<svg width="10" height="12" viewBox="0 0 10 12" fill="none" xmlns="http://www.w3.org/2000/svg">
<path d="M0 2.30511V9.12009C0.00130578 9.62226 0.201371 10.1035 0.556461 10.4586C0.911551 10.8137 1.39278 11.0137 1.89495 11.015H4.45961C4.49612 10.7516 4.57179 10.4951 4.68411 10.254C4.99139 9.57627 5.54711 9.04234 6.2366 8.76241C5.98815 8.59048 5.78524 8.36071 5.64537 8.0929C5.5055 7.82509 5.43286 7.52727 5.43372 7.22514C5.43423 6.72575 5.63283 6.24695 5.98595 5.89383C6.33908 5.54071 6.81787 5.3421 7.31726 5.3416C7.49911 5.34091 7.68002 5.36785 7.85378 5.42151C8.139 5.5059 8.39993 5.65723 8.61481 5.8629V2.30511C8.61481 1.80254 8.41516 1.32055 8.05979 0.965175C7.70442 0.609802 7.22243 0.410156 6.71985 0.410156H1.89495C1.3926 0.410861 0.911017 0.610733 0.555797 0.965953C0.200577 1.32117 0.000704639 1.80275 0 2.30511ZM2.2983 2.2975H6.31651C6.41743 2.2975 6.51421 2.33759 6.58557 2.40895C6.65693 2.48031 6.69702 2.57709 6.69702 2.67801C6.69702 2.77893 6.65693 2.87572 6.58557 2.94707C6.51421 3.01843 6.41743 3.05852 6.31651 3.05852H2.2983C2.19738 3.05852 2.10059 3.01843 2.02923 2.94707C1.95787 2.87572 1.91778 2.77893 1.91778 2.67801C1.91778 2.57709 1.95787 2.48031 2.02923 2.40895C2.10059 2.33759 2.19738 2.2975 2.2983 2.2975ZM2.2983 4.32183H6.31651C6.41743 4.32183 6.51421 4.36192 6.58557 4.43328C6.65693 4.50464 6.69702 4.60142 6.69702 4.70234C6.69702 4.80326 6.65693 4.90004 6.58557 4.9714C6.51421 5.04276 6.41743 5.08285 6.31651 5.08285H2.2983C2.19738 5.08285 2.10059 5.04276 2.02923 4.9714C1.95787 4.90004 1.91778 4.80326 1.91778 4.70234C1.91778 4.60142 1.95787 4.50464 2.02923 4.43328C2.10059 4.36192 2.19738 4.32183 2.2983 4.32183ZM2.2983 6.34235H4.12476C4.22568 6.34235 4.32246 6.38244 4.39382 6.4538C4.46518 6.52516 4.50527 6.62194 4.50527 6.72286C4.50527 6.82378 4.46518 6.92057 4.39382 6.99193C4.32246 7.06328 4.22568 7.10337 4.12476 7.10337H2.2983C2.19738 7.10337 2.10059 7.06328 2.02923 6.99193C1.95787 6.92057 1.91778 6.82378 1.91778 6.72286C1.91778 6.62194 1.95787 6.52516 2.02923 6.4538C2.10059 6.38244 2.19738 6.34235 2.2983 6.34235Z" fill="#2D945C"/>
<path d="M7.31667 8.53765C8.0417 8.53765 8.62944 7.9499 8.62944 7.22488C8.62944 6.49986 8.0417 5.91211 7.31667 5.91211C6.59165 5.91211 6.00391 6.49986 6.00391 7.22488C6.00391 7.9499 6.59165 8.53765 7.31667 8.53765Z" fill="#2D945C"/>
<path d="M5.37661 11.8266H9.26164C9.36247 11.8263 9.45908 11.7861 9.53037 11.7148C9.60167 11.6435 9.64185 11.5469 9.64215 11.4461C9.64215 10.83 9.39741 10.2391 8.96175 9.80345C8.5261 9.36779 7.93523 9.12305 7.31912 9.12305C6.70302 9.12305 6.11215 9.36779 5.67649 9.80345C5.24084 10.2391 4.99609 10.83 4.99609 11.4461C4.99639 11.5469 5.03658 11.6435 5.10788 11.7148C5.17917 11.7861 5.27578 11.8263 5.37661 11.8266Z" fill="#2D945C"/>
</svg>
