<svg width="13" height="12" viewBox="0 0 13 12" fill="none" xmlns="http://www.w3.org/2000/svg">
<path d="M0.675781 10.7847C0.676021 10.556 0.767015 10.3366 0.928797 10.1748C1.09058 10.0131 1.30993 9.9221 1.53871 9.92188H4.94532C4.81244 10.1901 4.74326 10.4854 4.74318 10.7847C4.74548 11.0834 4.81322 11.378 4.94161 11.6477H1.53871C1.30992 11.6475 1.09057 11.5565 0.928795 11.3947C0.767019 11.2329 0.676027 11.0135 0.675781 10.7847ZM6.94371 11.6477H10.5471C10.3199 11.418 10.1925 11.1079 10.1925 10.7848C10.1925 10.4617 10.3199 10.1516 10.5471 9.92188H6.94368C6.80591 10.0197 6.69356 10.1491 6.61603 10.2992C6.5385 10.4493 6.49804 10.6158 6.49804 10.7848C6.49804 10.9538 6.5385 11.1203 6.61603 11.2704C6.69356 11.4205 6.80591 11.5499 6.94368 11.6477H6.94371Z" fill="#2D945C"/>
<path d="M0.700078 2.99593C0.69262 2.99289 0.686284 2.98761 0.681941 2.98083C0.677598 2.97405 0.67546 2.96609 0.67582 2.95804C0.675483 2.94999 0.677618 2.94203 0.681937 2.93523C0.686256 2.92843 0.692554 2.92311 0.699983 2.91999L6.40189 0.236328L12.0669 2.91994C12.0741 2.92339 12.0801 2.92879 12.0844 2.93552C12.0886 2.94226 12.0908 2.95004 12.0908 2.95799C12.0908 2.96594 12.0886 2.97373 12.0844 2.98046C12.0801 2.98719 12.0741 2.99259 12.0669 2.99604L11.6886 3.17412L6.72676 2.67304C6.70863 2.63188 6.68386 2.59397 6.65346 2.56083C6.59978 2.5083 6.53203 2.47245 6.4584 2.45761C6.38477 2.44277 6.30842 2.44958 6.23858 2.47721C6.19186 2.4969 6.1493 2.52528 6.11316 2.56083C6.04309 2.63339 6.0036 2.73009 6.00283 2.83095C6.00477 2.93046 6.04417 3.02557 6.11316 3.09731C6.14828 3.13341 6.19028 3.16211 6.23668 3.1817C6.28308 3.2013 6.33294 3.21139 6.38331 3.21139C6.43368 3.21139 6.48353 3.2013 6.52994 3.1817C6.57634 3.16211 6.61834 3.13341 6.65346 3.09731C6.66476 3.08275 6.67489 3.06732 6.68376 3.05117L11.0194 3.48907L6.36491 5.67973L0.700078 2.99593ZM11.3408 11.6359C11.5481 11.6096 11.7386 11.5086 11.8768 11.3519C12.0149 11.1951 12.0911 10.9934 12.0911 10.7844C12.0911 10.5755 12.0149 10.3737 11.8768 10.217C11.7386 10.0602 11.5481 9.95921 11.3408 9.93291C11.1303 9.95491 10.9354 10.0541 10.7937 10.2114C10.652 10.3686 10.5736 10.5728 10.5736 10.7844C10.5736 10.9961 10.652 11.2002 10.7937 11.3575C10.9354 11.5147 11.1303 11.6139 11.3408 11.6359ZM6.40461 11.6474C6.21831 11.3982 6.11764 11.0955 6.11764 10.7844C6.11764 10.4733 6.21831 10.1706 6.40461 9.92149H5.38367C5.21393 10.19 5.12363 10.479 5.12363 10.7844C5.12363 11.0951 5.22428 11.4207 5.37936 11.6474H6.40461ZM6.3832 6.06445C6.32052 6.06437 6.25864 6.05034 6.20205 6.02338L2.43498 4.23875V6.47902C2.43503 6.48699 2.43733 6.49478 2.4416 6.50151C2.44587 6.50824 2.45195 6.51363 2.45914 6.51707L6.36489 8.36731L10.3078 6.51707C10.315 6.51363 10.3211 6.50824 10.3253 6.50151C10.3296 6.49478 10.3319 6.48699 10.332 6.47902V4.23875L6.56466 6.02345C6.50801 6.05043 6.44607 6.06446 6.38332 6.06452L6.3832 6.06445Z" fill="#2D945C"/>
</svg>
