<svg width="13" height="12" viewBox="0 0 13 12" fill="none" xmlns="http://www.w3.org/2000/svg">
<path d="M11.0563 0.580078H5.70678C5.08769 0.580078 4.58594 1.08193 4.58594 1.7009V4.33595C4.86873 4.4765 5.17431 4.6285 5.45948 4.77026L5.89583 3.89722C6.16005 3.36926 6.80409 3.15475 7.33186 3.41849C7.86072 3.68318 8.07505 4.32546 7.81028 4.85445L7.03244 6.41051C7.05328 6.61702 7.03435 6.82562 6.9767 7.02501H7.49025L6.13579 10.7495C6.05541 10.9704 6.21075 11.2282 6.47114 11.2282C6.61671 11.2282 6.75367 11.1384 6.80623 10.9933L8.24932 7.02501H8.49932L9.95706 10.9945C10.0101 11.1388 10.1467 11.2282 10.2922 11.2282C10.5354 11.2282 10.7138 10.9852 10.6268 10.7486L9.25932 7.02501H11.0564C11.6753 7.02501 12.1772 6.52316 12.1772 5.90419V1.70093C12.1772 1.08193 11.6753 0.580078 11.0563 0.580078ZM10.292 5.49673H8.69143C8.49447 5.49673 8.3347 5.33696 8.3347 5.14C8.3347 4.94287 8.49447 4.78327 8.69143 4.78327H10.292C10.4891 4.78327 10.6487 4.94287 10.6487 5.14C10.6487 5.33696 10.4891 5.49673 10.292 5.49673ZM10.292 4.15928H8.69143C8.49447 4.15928 8.3347 3.9997 8.3347 3.80254C8.3347 3.60561 8.49447 3.44581 8.69143 3.44581H10.292C10.4891 3.44581 10.6487 3.60561 10.6487 3.80254C10.6487 3.9997 10.4891 4.15928 10.292 4.15928ZM10.292 2.82201H6.47114C6.27399 2.82201 6.11441 2.6622 6.11441 2.46528C6.11441 2.26837 6.27399 2.10855 6.47114 2.10855H10.292C10.4891 2.10855 10.6487 2.26832 10.6487 2.46528C10.6487 2.66224 10.4891 2.82201 10.292 2.82201Z" fill="#2D945C"/>
<path d="M6.2766 6.87143C6.34105 6.68257 6.3406 6.48525 6.28617 6.30522L7.1715 4.53475C7.25956 4.35852 7.18822 4.14422 7.01199 4.05613C6.83586 3.96797 6.62154 4.03941 6.53338 4.21566L5.7783 5.72563C5.32699 5.50089 4.6413 5.15998 4.08894 4.88527C3.57501 4.62971 3.20825 4.40052 2.58249 4.40052H2.26728C2.75453 4.40052 3.18939 4.17626 3.47403 3.82528C3.69124 3.55821 3.82111 3.21782 3.82111 2.84689C3.82111 1.98859 3.12548 1.29297 2.26709 1.29297C1.40909 1.29297 0.713461 1.98859 0.713461 2.84689C0.713461 3.25908 0.87399 3.63365 1.13588 3.91161C1.41903 4.21269 1.82118 4.40052 2.267 4.40062C1.66929 4.40062 1.08496 4.64279 0.664589 5.06428C0.236037 5.49171 0 6.06117 0 6.66781V7.8141C0 8.30758 0.320415 8.72745 0.764188 8.87685V10.8708C0.764188 11.0679 0.923885 11.2275 1.12092 11.2275H3.41346C3.6105 11.2275 3.77019 11.0679 3.77019 10.8708V6.86272C4.10844 7.03181 4.55279 7.25394 4.9123 7.43378C5.16432 7.55975 5.45881 7.57107 5.72144 7.46424C5.98332 7.35649 6.18519 7.142 6.2752 6.87564L6.2766 6.87143Z" fill="#2D945C"/>
</svg>
