<svg width="785" height="777" viewBox="0 0 785 777" fill="none" xmlns="http://www.w3.org/2000/svg">
<g opacity="0.08">
<path d="M130.725 259.013L3.75179e-05 259.013L4.57764e-05 388.516L130.725 388.516L130.725 259.013Z" fill="#E6E7E8"/>
<path d="M10.4643 323.762C10.4643 293.724 35.0418 269.369 65.367 269.369C95.6887 269.369 120.27 293.724 120.27 323.762C120.27 353.798 95.6887 378.152 65.367 378.152C35.0418 378.152 10.4643 353.798 10.4643 323.762Z" fill="#185850"/>
<path d="M130.725 388.514L3.7518e-05 388.514L4.57764e-05 518.016L130.725 518.016L130.725 388.514Z" fill="#2D945C"/>
<path d="M10.4643 453.269C10.4643 423.23 35.0418 398.879 65.367 398.879C95.6887 398.879 120.27 423.23 120.27 453.269C120.27 483.308 95.6887 507.66 65.367 507.66C35.0418 507.66 10.4643 483.308 10.4643 453.269Z" fill="#E6E7E8"/>
<path d="M130.725 518.022L0.00228056 518.022L0.00228882 647.523L130.725 647.523L130.725 518.022Z" fill="#2D945C"/>
<path d="M65.367 550.707C83.2436 550.707 97.7363 565.06 97.7363 582.772C97.7363 600.483 83.2436 614.837 65.367 614.837C47.4892 614.837 32.9986 600.483 32.9986 582.772C32.9986 565.059 47.4892 550.707 65.367 550.707ZM65.367 637.164C95.691 637.164 120.27 612.812 120.27 582.772C120.27 552.734 95.691 528.382 65.367 528.382C35.0452 528.382 10.4643 552.734 10.4643 582.772C10.4643 612.811 35.0452 637.164 65.367 637.164Z" fill="#185850"/>
<path d="M65.3603 595.598C72.5118 595.598 78.3125 589.854 78.3125 582.767C78.3125 575.682 72.5118 569.939 65.3603 569.939C58.2053 569.939 52.4091 575.682 52.4091 582.767C52.4091 589.853 58.2053 595.598 65.3603 595.598Z" fill="#185850"/>
<path d="M392.172 259.013L261.45 259.013L261.45 388.516L392.172 388.516L392.172 259.013Z" fill="#185850"/>
<path d="M271.903 323.759C271.903 293.72 296.482 269.369 326.806 269.369C357.128 269.369 381.711 293.72 381.711 323.759C381.711 353.798 357.129 378.152 326.806 378.152C296.482 378.152 271.903 353.798 271.903 323.759Z" fill="#2D945C"/>
<path d="M261.451 259.013L130.728 259.013L130.728 388.516L261.451 388.516L261.451 259.013Z" fill="#185850"/>
<path d="M141.183 323.759C141.183 293.72 165.762 269.369 196.088 269.369C226.408 269.369 250.99 293.72 250.99 323.759C250.99 353.798 226.408 378.152 196.088 378.152C165.762 378.152 141.183 353.798 141.183 323.759Z" fill="#2D945C"/>
<path d="M261.445 388.516L130.726 388.516L130.726 518.016L261.445 518.016L261.445 388.516Z" fill="#E6E7E8"/>
<path d="M196.088 421.203C213.964 421.203 228.457 435.557 228.457 453.27C228.457 470.98 213.964 485.333 196.088 485.333C178.21 485.333 163.718 470.98 163.718 453.27C163.718 435.557 178.21 421.203 196.088 421.203ZM196.088 507.66C226.409 507.66 250.99 483.308 250.99 453.27C250.99 423.232 226.409 398.88 196.088 398.88C165.766 398.88 141.185 423.232 141.185 453.27C141.185 483.308 165.766 507.66 196.088 507.66Z" fill="#185850"/>
<path d="M196.092 466.094C203.242 466.094 209.043 460.351 209.043 453.266C209.043 446.178 203.242 440.436 196.092 440.436C188.937 440.436 183.141 446.178 183.141 453.266C183.141 460.351 188.937 466.094 196.092 466.094Z" fill="#185850"/>
<path d="M522.896 259.013L392.171 259.013L392.171 388.516L522.896 388.516L522.896 259.013Z" fill="#185850"/>
<path d="M457.533 291.692C475.41 291.692 489.903 306.048 489.903 323.762C489.903 341.472 475.41 355.827 457.533 355.827C439.654 355.827 425.162 341.471 425.162 323.762C425.162 306.048 439.654 291.692 457.533 291.692ZM457.533 378.152C487.857 378.152 512.437 353.801 512.437 323.762C512.437 293.724 487.857 269.369 457.533 269.369C427.211 269.369 402.629 293.724 402.629 323.762C402.629 353.801 427.211 378.152 457.533 378.152Z" fill="#2D945C"/>
<path d="M457.532 336.59C464.684 336.59 470.484 330.848 470.484 323.764C470.484 316.674 464.684 310.934 457.532 310.934C450.377 310.934 444.583 316.674 444.583 323.764C444.583 330.847 450.377 336.59 457.532 336.59Z" fill="#2D945C"/>
<path d="M130.725 647.523L0.00907062 647.523L0.00907898 777L130.725 777L130.725 647.523Z" fill="#185850"/>
<path d="M10.4671 712.267C10.4671 682.232 35.0446 657.882 65.3664 657.882C95.6847 657.882 120.266 682.231 120.266 712.267C120.266 742.305 95.6847 766.656 65.3664 766.656C35.0446 766.656 10.4671 742.305 10.4671 712.267Z" fill="#2D945C"/>
<path d="M653.627 388.516L522.902 388.516L522.902 518.02L653.627 518.02L653.627 388.516Z" fill="#E6E7E8"/>
<path d="M533.356 453.269C533.356 423.23 557.937 398.878 588.261 398.878C618.583 398.878 643.166 423.23 643.166 453.269C643.166 483.308 618.584 507.66 588.261 507.66C557.938 507.66 533.356 483.308 533.356 453.269Z" fill="#185850"/>
<path d="M392.168 518.016L261.448 518.016L261.448 647.516L392.168 647.516L392.168 518.016Z" fill="#2D945C"/>
<path d="M271.906 582.766C271.906 552.728 296.484 528.376 326.808 528.376C357.13 528.376 381.711 552.728 381.711 582.766C381.711 612.804 357.13 637.156 326.808 637.156C296.484 637.156 271.906 612.804 271.906 582.766Z" fill="#185850"/>
<path d="M392.172 129.506L261.451 129.506L261.451 259.008L392.172 259.008L392.172 129.506Z" fill="#E6E7E8"/>
<path d="M271.903 194.255C271.903 164.216 296.484 139.865 326.806 139.865C357.128 139.865 381.711 164.216 381.711 194.255C381.711 224.293 357.129 248.645 326.806 248.645C296.484 248.645 271.903 224.293 271.903 194.255Z" fill="#185850"/>
<path d="M522.896 129.506L392.174 129.506L392.174 259.008L522.896 259.008L522.896 129.506Z" fill="#E6E7E8"/>
<path d="M402.63 194.255C402.63 164.216 427.211 139.865 457.533 139.865C487.854 139.865 512.437 164.216 512.437 194.255C512.437 224.293 487.856 248.645 457.533 248.645C427.211 248.645 402.63 224.293 402.63 194.255Z" fill="#2D945C"/>
<path d="M261.445 0.00408936L0.000807458 0.0041205L0.000823975 259.004L261.445 259.004L261.445 0.00408936Z" fill="#185850"/>
<path d="M130.724 65.3687C166.477 65.3687 195.461 94.0826 195.461 129.502C195.461 164.922 166.478 193.637 130.724 193.637C94.9675 193.637 65.9841 164.922 65.9841 129.502C65.9841 94.0815 94.9675 65.3687 130.724 65.3687ZM130.724 238.285C191.371 238.285 240.529 189.579 240.529 129.502C240.529 69.428 191.371 20.7254 130.724 20.7254C70.0806 20.7254 20.9154 69.4281 20.9154 129.502C20.9154 189.579 70.0806 238.285 130.724 238.285Z" fill="#E6E7E8"/>
<path d="M130.727 155.16C145.028 155.16 156.631 143.673 156.631 129.502C156.631 115.328 145.027 103.846 130.727 103.846C116.42 103.846 104.826 115.328 104.826 129.502C104.826 143.673 116.42 155.16 130.727 155.16Z" fill="#E6E7E8"/>
<path d="M392.172 -0.00158691L261.45 -0.00157134L261.45 129.5L392.172 129.5L392.172 -0.00158691Z" fill="#E6E7E8"/>
<path d="M271.903 64.7545C271.903 34.7159 296.482 10.3613 326.806 10.3613C357.128 10.3613 381.711 34.7159 381.711 64.7545C381.711 94.7898 357.129 119.145 326.806 119.145C296.482 119.145 271.903 94.7898 271.903 64.7545Z" fill="#2D945C"/>
<path d="M522.896 -0.00158691L392.173 -0.00157134L392.173 129.5L522.896 129.5L522.896 -0.00158691Z" fill="#2D945C"/>
<path d="M457.533 32.6841C475.409 32.684 489.903 47.0426 489.903 64.7545C489.903 82.4642 475.409 96.8217 457.533 96.8217C439.655 96.8217 425.163 82.4642 425.163 64.7545C425.163 47.0438 439.655 32.6841 457.533 32.6841ZM457.533 119.145C487.858 119.145 512.437 94.7898 512.437 64.7545C512.437 34.7159 487.858 10.3613 457.533 10.3613C427.212 10.3613 402.63 34.7159 402.63 64.7545C402.63 94.7898 427.212 119.145 457.533 119.145Z" fill="#E6E7E8"/>
<path d="M457.531 77.5781C464.683 77.5781 470.484 71.8382 470.484 64.7513C470.484 57.6631 464.683 51.921 457.531 51.921C450.376 51.921 444.582 57.6631 444.582 64.7513C444.582 71.8371 450.377 77.5781 457.531 77.5781Z" fill="#E6E7E8"/>
<path d="M653.623 -0.00158691L522.902 -0.00157134L522.902 129.5L653.623 129.5L653.623 -0.00158691Z" fill="#2D945C"/>
<path d="M533.358 64.7507C533.358 34.7121 557.939 10.3608 588.263 10.3608C618.584 10.3608 643.166 34.7121 643.166 64.7507C643.166 94.7893 618.584 119.141 588.263 119.141C557.941 119.141 533.358 94.7893 533.358 64.7507Z" fill="#185850"/>
<path d="M784.348 -0.00106812L653.625 -0.00105254L653.625 129.504L784.348 129.504L784.348 -0.00106812Z" fill="#E6E7E8"/>
<path d="M664.085 64.7545C664.085 34.7159 688.665 10.3646 718.988 10.3646C749.309 10.3646 773.893 34.7159 773.893 64.7545C773.893 94.7931 749.311 119.145 718.988 119.145C688.665 119.145 664.085 94.7932 664.085 64.7545Z" fill="#2D945C"/>
</g>
</svg>
