<svg width="34" height="34" viewBox="0 0 34 34" fill="none" xmlns="http://www.w3.org/2000/svg">
<rect width="34" height="34" rx="17" fill="#185850"/>
<path d="M9.87305 11.3638V21.4381C9.87498 22.1805 10.1707 22.8919 10.6956 23.4168C11.2206 23.9417 11.932 24.2374 12.6743 24.2394H16.4655C16.5195 23.8499 16.6314 23.4708 16.7974 23.1144C17.2517 22.1125 18.0732 21.3232 19.0924 20.9094C18.7251 20.6552 18.4252 20.3156 18.2184 19.9197C18.0117 19.5238 17.9043 19.0835 17.9055 18.6369C17.9063 17.8986 18.1999 17.1909 18.7219 16.6688C19.2439 16.1468 19.9517 15.8532 20.6899 15.8525C20.9588 15.8515 21.2262 15.8913 21.483 15.9706C21.9047 16.0954 22.2904 16.3191 22.608 16.6231V11.3638C22.608 10.6208 22.3129 9.9083 21.7876 9.38297C21.2622 8.85763 20.5497 8.5625 19.8068 8.5625H12.6743C11.9317 8.56354 11.2198 8.85901 10.6947 9.38412C10.1696 9.90923 9.87409 10.6211 9.87305 11.3638ZM13.2705 11.3525H19.2105C19.3597 11.3525 19.5028 11.4118 19.6083 11.5173C19.7138 11.6227 19.773 11.7658 19.773 11.915C19.773 12.0642 19.7138 12.2073 19.6083 12.3127C19.5028 12.4182 19.3597 12.4775 19.2105 12.4775H13.2705C13.1214 12.4775 12.9783 12.4182 12.8728 12.3127C12.7673 12.2073 12.708 12.0642 12.708 11.915C12.708 11.7658 12.7673 11.6227 12.8728 11.5173C12.9783 11.4118 13.1214 11.3525 13.2705 11.3525ZM13.2705 14.345H19.2105C19.3597 14.345 19.5028 14.4043 19.6083 14.5098C19.7138 14.6152 19.773 14.7583 19.773 14.9075C19.773 15.0567 19.7138 15.1998 19.6083 15.3052C19.5028 15.4107 19.3597 15.47 19.2105 15.47H13.2705C13.1214 15.47 12.9783 15.4107 12.8728 15.3052C12.7673 15.1998 12.708 15.0567 12.708 14.9075C12.708 14.7583 12.7673 14.6152 12.8728 14.5098C12.9783 14.4043 13.1214 14.345 13.2705 14.345ZM13.2705 17.3319H15.9705C16.1197 17.3319 16.2628 17.3911 16.3683 17.4966C16.4738 17.6021 16.533 17.7452 16.533 17.8944C16.533 18.0436 16.4738 18.1866 16.3683 18.2921C16.2628 18.3976 16.1197 18.4569 15.9705 18.4569H13.2705C13.1214 18.4569 12.9783 18.3976 12.8728 18.2921C12.7673 18.1866 12.708 18.0436 12.708 17.8944C12.708 17.7452 12.7673 17.6021 12.8728 17.4966C12.9783 17.3911 13.1214 17.3319 13.2705 17.3319Z" fill="white"/>
<path d="M20.6901 20.5775C21.7619 20.5775 22.6308 19.7087 22.6308 18.6369C22.6308 17.5651 21.7619 16.6963 20.6901 16.6963C19.6184 16.6963 18.7495 17.5651 18.7495 18.6369C18.7495 19.7087 19.6184 20.5775 20.6901 20.5775Z" fill="white"/>
<path d="M17.8213 25.4375H23.5644C23.7135 25.437 23.8563 25.3776 23.9617 25.2722C24.0671 25.1668 24.1265 25.024 24.1269 24.875C24.1269 23.9642 23.7651 23.0907 23.1211 22.4467C22.4771 21.8027 21.6036 21.4409 20.6929 21.4409C19.7821 21.4409 18.9086 21.8027 18.2646 22.4467C17.6206 23.0907 17.2588 23.9642 17.2588 24.875C17.2592 25.024 17.3186 25.1668 17.424 25.2722C17.5294 25.3776 17.6722 25.437 17.8213 25.4375Z" fill="white"/>
</svg>
