<svg width="34" height="34" viewBox="0 0 34 34" fill="none" xmlns="http://www.w3.org/2000/svg">
<rect width="34" height="34" rx="17" fill="#185850"/>
<g clip-path="url(#clip0_361_3692)">
<path d="M8.5625 24.1584C8.56285 23.8201 8.69737 23.4959 8.93652 23.2568C9.17568 23.0176 9.49994 22.8831 9.83814 22.8828H14.874C14.6776 23.2793 14.5753 23.7158 14.5752 24.1584C14.5786 24.5999 14.6787 25.0354 14.8685 25.4341H9.83814C9.49992 25.4337 9.17567 25.2992 8.93652 25.06C8.69737 24.8208 8.56286 24.4966 8.5625 24.1584ZM17.8282 25.4341H23.155C22.8191 25.0945 22.6307 24.6361 22.6307 24.1585C22.6307 23.6808 22.8191 23.2224 23.155 22.8828H17.8281C17.6245 23.0274 17.4584 23.2187 17.3438 23.4406C17.2292 23.6625 17.1694 23.9087 17.1694 24.1585C17.1694 24.4082 17.2292 24.6544 17.3438 24.8763C17.4584 25.0982 17.6245 25.2895 17.8281 25.4341H17.8282Z" fill="white"/>
<path d="M8.59842 12.6449C8.58739 12.6404 8.57803 12.6326 8.57161 12.6225C8.56519 12.6125 8.56203 12.6007 8.56256 12.5889C8.56206 12.577 8.56522 12.5652 8.5716 12.5551C8.57799 12.5451 8.58729 12.5372 8.59828 12.5326L17.0272 8.56543L25.4017 12.5325C25.4123 12.5376 25.4212 12.5456 25.4275 12.5556C25.4337 12.5655 25.437 12.577 25.437 12.5888C25.437 12.6005 25.4337 12.612 25.4275 12.622C25.4212 12.6319 25.4123 12.6399 25.4017 12.645L24.8424 12.9083L17.5075 12.1675C17.4807 12.1067 17.4441 12.0507 17.3991 12.0017C17.3198 11.924 17.2196 11.871 17.1108 11.8491C17.0019 11.8271 16.8891 11.8372 16.7858 11.8781C16.7167 11.9072 16.6538 11.9491 16.6004 12.0017C16.4968 12.1089 16.4384 12.2519 16.4373 12.401C16.4402 12.5481 16.4984 12.6887 16.6004 12.7947C16.6523 12.8481 16.7144 12.8905 16.783 12.9195C16.8516 12.9485 16.9253 12.9634 16.9998 12.9634C17.0742 12.9634 17.1479 12.9485 17.2165 12.9195C17.2851 12.8905 17.3472 12.8481 17.3991 12.7947C17.4158 12.7732 17.4308 12.7504 17.4439 12.7265L23.8532 13.3739L16.9726 16.6122L8.59842 12.6449ZM24.3283 25.4171C24.6347 25.3782 24.9164 25.2289 25.1206 24.9972C25.3248 24.7655 25.4374 24.4672 25.4374 24.1584C25.4374 23.8495 25.3248 23.5512 25.1206 23.3195C24.9164 23.0878 24.6347 22.9385 24.3283 22.8996C24.0171 22.9321 23.729 23.0787 23.5195 23.3112C23.3101 23.5437 23.1942 23.8455 23.1942 24.1584C23.1942 24.4712 23.3101 24.773 23.5195 25.0055C23.729 25.238 24.0171 25.3846 24.3283 25.4171ZM17.0312 25.434C16.7558 25.0657 16.607 24.6182 16.607 24.1584C16.607 23.6985 16.7558 23.251 17.0312 22.8827H15.522C15.2711 23.2796 15.1376 23.7068 15.1376 24.1582C15.1376 24.6176 15.2864 25.0989 15.5157 25.434H17.0312ZM16.9996 17.181C16.9069 17.1808 16.8155 17.1601 16.7318 17.1202L11.1631 14.4821V17.7938C11.1631 17.8056 11.1665 17.8171 11.1729 17.8271C11.1792 17.837 11.1882 17.845 11.1988 17.8501L16.9725 20.5852L22.8012 17.8501C22.8119 17.845 22.8208 17.837 22.8272 17.8271C22.8335 17.8171 22.8369 17.8056 22.8369 17.7938V14.4821L17.2678 17.1204C17.1841 17.1602 17.0925 17.181 16.9998 17.1811L16.9996 17.181Z" fill="white"/>
</g>
<defs>
<clipPath id="clip0_361_3692">
<rect width="18" height="18" fill="white" transform="translate(8 8)"/>
</clipPath>
</defs>
</svg>
