<svg width="34" height="34" viewBox="0 0 34 34" fill="none" xmlns="http://www.w3.org/2000/svg">
<rect width="34" height="34" rx="17" fill="#185850"/>
<path d="M24.3433 9.125H16.4352C15.52 9.125 14.7783 9.86687 14.7783 10.7819V14.6772C15.1964 14.885 15.6481 15.1096 16.0696 15.3192L16.7147 14.0286C17.1053 13.2482 18.0573 12.9311 18.8375 13.3209C19.6193 13.7122 19.9362 14.6617 19.5448 15.4437L18.3949 17.7439C18.4257 18.0492 18.3977 18.3576 18.3125 18.6523H19.0717L17.0694 24.1582C16.9506 24.4847 17.1802 24.8658 17.5652 24.8658C17.7803 24.8658 17.9828 24.733 18.0605 24.5185L20.1938 18.6523H20.5634L22.7183 24.5203C22.7967 24.7337 22.9986 24.8658 23.2136 24.8658C23.5733 24.8658 23.837 24.5066 23.7083 24.1568L21.6868 18.6523H24.3434C25.2583 18.6523 26.0002 17.9105 26.0002 16.9955V10.7819C26.0002 9.86687 25.2583 9.125 24.3433 9.125ZM23.2134 16.3931H20.8473C20.5562 16.3931 20.32 16.157 20.32 15.8658C20.32 15.5744 20.5562 15.3384 20.8473 15.3384H23.2134C23.5048 15.3384 23.7407 15.5744 23.7407 15.8658C23.7407 16.157 23.5048 16.3931 23.2134 16.3931ZM23.2134 14.416H20.8473C20.5562 14.416 20.32 14.1801 20.32 13.8887C20.32 13.5975 20.5562 13.3613 20.8473 13.3613H23.2134C23.5048 13.3613 23.7407 13.5975 23.7407 13.8887C23.7407 14.1801 23.5048 14.416 23.2134 14.416ZM23.2134 12.4392H17.5652C17.2737 12.4392 17.0378 12.2029 17.0378 11.9118C17.0378 11.6207 17.2737 11.3845 17.5652 11.3845H23.2134C23.5048 11.3845 23.7407 11.6207 23.7407 11.9118C23.7407 12.203 23.5048 12.4392 23.2134 12.4392Z" fill="white"/>
<path d="M17.2785 18.4261C17.3738 18.147 17.3731 17.8553 17.2926 17.5891L18.6014 14.9719C18.7316 14.7114 18.6261 14.3946 18.3656 14.2644C18.1052 14.1341 17.7884 14.2397 17.6581 14.5002L16.5419 16.7324C15.8747 16.4001 14.8611 15.8962 14.0446 15.4901C13.2848 15.1123 12.7426 14.7735 11.8176 14.7735H11.3517C12.0719 14.7735 12.7148 14.442 13.1356 13.9231C13.4566 13.5283 13.6486 13.0251 13.6486 12.4768C13.6486 11.208 12.6203 10.1797 11.3514 10.1797C10.083 10.1797 9.05469 11.208 9.05469 12.4768C9.05469 13.0861 9.29199 13.6398 9.67913 14.0507C10.0977 14.4958 10.6922 14.7735 11.3512 14.7736C10.4677 14.7736 9.60386 15.1316 8.98244 15.7547C8.34893 16.3866 8 17.2284 8 18.1251V19.8197C8 20.5492 8.47366 21.1698 9.12968 21.3907V24.3383C9.12968 24.6296 9.36575 24.8656 9.65702 24.8656H13.046C13.3373 24.8656 13.5734 24.6296 13.5734 24.3383V18.4133C14.0734 18.6632 14.7302 18.9916 15.2617 19.2575C15.6342 19.4437 16.0696 19.4604 16.4578 19.3025C16.845 19.1432 17.1434 18.8261 17.2764 18.4324L17.2785 18.4261Z" fill="white"/>
</svg>
