<svg width="34" height="34" viewBox="0 0 34 34" fill="none" xmlns="http://www.w3.org/2000/svg">
<rect width="34" height="34" rx="17" fill="#185850"/>
<g clip-path="url(#clip0_361_3712)">
<path d="M11.6914 13.3086C12.5651 13.3086 13.2734 12.6003 13.2734 11.7266C13.2734 10.8528 12.5651 10.1445 11.6914 10.1445C10.8177 10.1445 10.1094 10.8528 10.1094 11.7266C10.1094 12.6003 10.8177 13.3086 11.6914 13.3086Z" fill="white"/>
<path d="M24.418 26C25.2917 26 26 25.2917 26 24.418C26 23.5442 25.2917 22.8359 24.418 22.8359C23.5442 22.8359 22.8359 23.5442 22.8359 24.418C22.8359 25.2917 23.5442 26 24.418 26Z" fill="white"/>
<path d="M20.1992 26C21.073 26 21.7812 25.2917 21.7812 24.418C21.7812 23.5442 21.073 22.8359 20.1992 22.8359C19.3255 22.8359 18.6172 23.5442 18.6172 24.418C18.6172 25.2917 19.3255 26 20.1992 26Z" fill="white"/>
<path d="M15.9805 26C16.8542 26 17.5625 25.2917 17.5625 24.418C17.5625 23.5442 16.8542 22.8359 15.9805 22.8359C15.1067 22.8359 14.3984 23.5442 14.3984 24.418C14.3984 25.2917 15.1067 26 15.9805 26Z" fill="white"/>
<path d="M22.3086 22.8359C23.1823 22.8359 23.8906 22.1276 23.8906 21.2539C23.8906 20.3802 23.1823 19.6719 22.3086 19.6719C21.4349 19.6719 20.7266 20.3802 20.7266 21.2539C20.7266 22.1276 21.4349 22.8359 22.3086 22.8359Z" fill="white"/>
<path d="M18.0898 22.8359C18.9636 22.8359 19.6719 22.1276 19.6719 21.2539C19.6719 20.3802 18.9636 19.6719 18.0898 19.6719C17.2161 19.6719 16.5078 20.3802 16.5078 21.2539C16.5078 22.1276 17.2161 22.8359 18.0898 22.8359Z" fill="white"/>
<path d="M8.52734 18.582C8.81882 18.582 9.05469 18.3462 9.05469 18.0547V15.9453C9.05469 15.2587 9.49688 14.6788 10.1094 14.4604V24.3828C10.1094 24.6743 10.3452 24.9102 10.6367 24.9102C10.9282 24.9102 11.1641 24.6743 11.1641 24.3828V19.6367H12.2188V24.3828C12.2188 24.6743 12.4546 24.9102 12.7461 24.9102C13.0376 24.9102 13.2734 24.6743 13.2734 24.3828V14.3633H18.0547C18.3462 14.3633 18.582 14.1274 18.582 13.8359C18.582 13.5445 18.3462 13.3086 18.0547 13.3086H10.6367C9.1829 13.3086 8 14.4915 8 15.9453V18.0547C8 18.3462 8.23586 18.582 8.52734 18.582Z" fill="white"/>
<path d="M25.4727 8H14.8906C14.5991 8 14.3633 8.23586 14.3633 8.52734V12.2539H18.0547C18.9271 12.2539 19.6367 12.9636 19.6367 13.8359C19.6367 14.7083 18.9271 15.418 18.0547 15.418H14.3633V17C14.3633 17.2915 14.5991 17.5273 14.8906 17.5273H25.4727C25.7641 17.5273 26 17.2915 26 17V8.52734C26 8.23586 25.7641 8 25.4727 8Z" fill="white"/>
</g>
<defs>
<clipPath id="clip0_361_3712">
<rect width="18" height="18" fill="white" transform="translate(8 8)"/>
</clipPath>
</defs>
</svg>
