<svg width="320" height="317" viewBox="0 0 320 317" fill="none" xmlns="http://www.w3.org/2000/svg">
<g opacity="0.04">
<path d="M265.914 126.372C265.914 114.774 275.316 105.372 286.914 105.372L298.097 105.372C309.695 105.372 319.097 114.774 319.097 126.372L319.097 137.059C319.097 148.657 309.695 158.059 298.097 158.059L286.914 158.059C275.316 158.059 265.914 148.657 265.914 137.059L265.914 126.372Z" fill="#E6E7E8"/>
<path d="M314.84 131.716C314.84 119.495 304.842 109.587 292.504 109.587C280.168 109.587 270.168 119.495 270.168 131.716C270.168 143.935 280.168 153.844 292.504 153.844C304.842 153.844 314.84 143.935 314.84 131.716Z" fill="#185850"/>
<path d="M265.914 179.06C265.914 167.462 275.316 158.06 286.914 158.06L298.097 158.06C309.695 158.06 319.097 167.462 319.097 179.06L319.097 189.746C319.097 201.344 309.695 210.746 298.097 210.746L286.914 210.746C275.316 210.746 265.914 201.344 265.914 189.746L265.914 179.06Z" fill="#2D945C"/>
<path d="M314.84 184.403C314.84 172.182 304.842 162.275 292.504 162.275C280.168 162.275 270.168 172.182 270.168 184.403C270.168 196.624 280.168 206.531 292.504 206.531C304.842 206.531 314.84 196.624 314.84 184.403Z" fill="#E6E7E8"/>
<path d="M265.918 231.748C265.918 220.15 275.32 210.748 286.918 210.748L298.1 210.748C309.698 210.748 319.1 220.15 319.1 231.748L319.1 242.434C319.1 254.032 309.698 263.434 298.1 263.434L286.918 263.434C275.32 263.434 265.918 254.032 265.918 242.434L265.918 231.748Z" fill="#2D945C"/>
<path d="M292.504 224.045C285.231 224.045 279.335 229.884 279.335 237.09C279.335 244.295 285.231 250.135 292.504 250.135C299.777 250.135 305.673 244.295 305.673 237.09C305.673 229.884 299.777 224.045 292.504 224.045ZM292.504 259.219C280.167 259.219 270.168 249.311 270.168 237.09C270.168 224.87 280.167 214.962 292.504 214.962C304.84 214.962 314.84 224.87 314.84 237.09C314.84 249.311 304.84 259.219 292.504 259.219Z" fill="#185850"/>
<path d="M292.508 242.309C289.598 242.309 287.238 239.972 287.238 237.089C287.238 234.206 289.598 231.87 292.508 231.87C295.419 231.87 297.777 234.206 297.777 237.089C297.777 239.972 295.419 242.309 292.508 242.309Z" fill="#185850"/>
<path d="M159.551 126.376C159.551 114.778 168.953 105.376 180.551 105.376L191.733 105.376C203.331 105.376 212.733 114.778 212.733 126.376L212.733 137.063C212.733 148.66 203.331 158.062 191.733 158.062L180.551 158.062C168.953 158.062 159.551 148.66 159.551 137.063L159.551 126.376Z" fill="#185850"/>
<path d="M208.478 131.719C208.478 119.498 198.479 109.591 186.142 109.591C173.806 109.591 163.805 119.498 163.805 131.719C163.805 143.939 173.805 153.848 186.142 153.848C198.479 153.848 208.478 143.939 208.478 131.719Z" fill="#2D945C"/>
<path d="M212.73 126.376C212.73 114.778 222.132 105.376 233.73 105.376L244.913 105.376C256.511 105.376 265.913 114.778 265.913 126.376L265.913 137.063C265.913 148.66 256.511 158.062 244.913 158.062L233.73 158.062C222.132 158.062 212.73 148.66 212.73 137.063L212.73 126.376Z" fill="#185850"/>
<path d="M261.658 131.719C261.658 119.498 251.658 109.591 239.321 109.591C226.985 109.591 216.984 119.498 216.984 131.719C216.984 143.939 226.985 153.848 239.321 153.848C251.658 153.848 261.658 143.939 261.658 131.719Z" fill="#2D945C"/>
<path d="M212.734 179.061C212.734 167.463 222.136 158.061 233.734 158.061L244.915 158.061C256.513 158.061 265.915 167.463 265.915 179.061L265.915 189.746C265.915 201.344 256.513 210.746 244.915 210.746L233.734 210.746C222.136 210.746 212.734 201.344 212.734 189.746L212.734 179.061Z" fill="#E6E7E8"/>
<path d="M239.325 171.358C232.052 171.358 226.156 177.197 226.156 184.404C226.156 191.608 232.052 197.448 239.325 197.448C246.598 197.448 252.494 191.608 252.494 184.404C252.494 177.197 246.598 171.358 239.325 171.358ZM239.325 206.531C226.989 206.531 216.988 196.624 216.988 184.404C216.988 172.183 226.989 162.276 239.325 162.276C251.66 162.276 261.661 172.183 261.661 184.404C261.661 196.624 251.66 206.531 239.325 206.531Z" fill="#185850"/>
<path d="M239.324 189.621C236.415 189.621 234.055 187.285 234.055 184.402C234.055 181.519 236.415 179.182 239.324 179.182C242.235 179.182 244.593 181.519 244.593 184.402C244.593 187.285 242.235 189.621 239.324 189.621Z" fill="#185850"/>
<path d="M106.367 126.372C106.367 114.774 115.769 105.372 127.367 105.372L138.551 105.372C150.149 105.372 159.551 114.774 159.551 126.372L159.551 137.059C159.551 148.657 150.149 158.059 138.551 158.059L127.367 158.059C115.769 158.059 106.367 148.657 106.367 137.059L106.367 126.372Z" fill="#185850"/>
<path d="M132.958 118.669C125.685 118.669 119.789 124.509 119.789 131.716C119.789 138.921 125.685 144.761 132.958 144.761C140.232 144.761 146.128 138.92 146.128 131.716C146.128 124.509 140.232 118.669 132.958 118.669ZM132.958 153.844C120.621 153.844 110.621 143.937 110.621 131.716C110.621 119.495 120.621 109.587 132.958 109.587C145.294 109.587 155.295 119.495 155.295 131.716C155.295 143.937 145.294 153.844 132.958 153.844Z" fill="#2D945C"/>
<path d="M132.961 136.937C130.051 136.937 127.691 134.601 127.691 131.72C127.691 128.835 130.051 126.5 132.961 126.5C135.872 126.5 138.229 128.835 138.229 131.72C138.229 134.601 135.872 136.937 132.961 136.937Z" fill="#2D945C"/>
<path d="M265.918 284.434C265.918 272.836 275.32 263.434 286.918 263.434L298.098 263.434C309.696 263.434 319.098 272.836 319.098 284.434L319.098 295.109C319.098 306.707 309.696 316.109 298.098 316.109L286.918 316.109C275.32 316.109 265.918 306.707 265.918 295.109L265.918 284.434Z" fill="#185850"/>
<path d="M314.842 289.775C314.842 277.556 304.843 267.649 292.507 267.649C280.172 267.649 270.172 277.555 270.172 289.775C270.172 301.995 280.172 311.902 292.507 311.902C304.843 311.902 314.842 301.995 314.842 289.775Z" fill="#2D945C"/>
<path d="M53.1836 179.059C53.1836 167.461 62.5856 158.059 74.1836 158.059L85.3668 158.059C96.9648 158.059 106.367 167.462 106.367 179.059L106.367 189.746C106.367 201.344 96.9648 210.746 85.3668 210.746L74.1836 210.746C62.5856 210.746 53.1836 201.344 53.1836 189.746L53.1836 179.059Z" fill="#E6E7E8"/>
<path d="M102.112 184.403C102.112 172.182 92.1115 162.275 79.7747 162.275C67.4388 162.275 57.4375 172.182 57.4375 184.403C57.4375 196.624 67.4383 206.531 79.7747 206.531C92.1111 206.531 102.112 196.624 102.112 184.403Z" fill="#185850"/>
<path d="M159.551 231.745C159.551 220.147 168.953 210.745 180.551 210.745L191.732 210.745C203.33 210.745 212.732 220.147 212.732 231.745L212.732 242.43C212.732 254.028 203.33 263.43 191.732 263.43L180.551 263.43C168.953 263.43 159.551 254.028 159.551 242.43L159.551 231.745Z" fill="#2D945C"/>
<path d="M208.477 237.087C208.477 224.866 198.478 214.959 186.141 214.959C173.805 214.959 163.805 224.866 163.805 237.087C163.805 249.307 173.805 259.215 186.141 259.215C198.478 259.215 208.477 249.307 208.477 237.087Z" fill="#185850"/>
<path d="M159.551 73.6854C159.551 62.0874 168.953 52.6854 180.551 52.6854L191.733 52.6854C203.331 52.6854 212.733 62.0874 212.733 73.6854L212.733 84.3711C212.733 95.9691 203.331 105.371 191.733 105.371L180.551 105.371C168.953 105.371 159.551 95.9691 159.551 84.3711L159.551 73.6854Z" fill="#E6E7E8"/>
<path d="M208.478 79.0285C208.478 66.8078 198.478 56.9008 186.142 56.9008C173.806 56.9008 163.805 66.8078 163.805 79.0285C163.805 91.2493 173.805 101.156 186.142 101.156C198.478 101.156 208.478 91.2493 208.478 79.0285Z" fill="#185850"/>
<path d="M106.367 73.6854C106.367 62.0874 115.769 52.6854 127.367 52.6854L138.549 52.6854C150.147 52.6854 159.549 62.0874 159.549 73.6854L159.549 84.3711C159.549 95.9691 150.147 105.371 138.549 105.371L127.367 105.371C115.769 105.371 106.367 95.9691 106.367 84.3711L106.367 73.6854Z" fill="#E6E7E8"/>
<path d="M155.295 79.0285C155.295 66.8078 145.294 56.9008 132.958 56.9008C120.622 56.9008 110.621 66.8078 110.621 79.0285C110.621 91.2493 120.622 101.156 132.958 101.156C145.294 101.156 155.295 91.2493 155.295 79.0285Z" fill="#2D945C"/>
<path d="M212.734 21.0011C212.734 9.40309 222.136 0.00109038 233.734 0.0010896L298.099 0.0010853C309.697 0.00108452 319.099 9.40311 319.099 21.0011L319.099 84.3711C319.099 95.9691 309.697 105.371 298.099 105.371L233.734 105.371C222.136 105.371 212.734 95.9691 212.734 84.3711L212.734 21.0011Z" fill="#185850"/>
<path d="M265.919 26.5931C251.373 26.5931 239.582 38.2749 239.582 52.6846C239.582 67.0949 251.373 78.7771 265.919 78.7771C280.466 78.7771 292.257 67.0949 292.257 52.6846C292.257 38.2744 280.466 26.5931 265.919 26.5931ZM265.919 96.9414C241.245 96.9414 221.246 77.1261 221.246 52.6846C221.246 28.2445 241.245 8.43062 265.919 8.43062C290.59 8.43061 310.593 28.2445 310.593 52.6846C310.593 77.1261 290.59 96.9414 265.919 96.9414Z" fill="#E6E7E8"/>
<path d="M265.913 63.1211C260.095 63.1211 255.375 58.4475 255.375 52.6824C255.375 46.916 260.096 42.2447 265.913 42.2447C271.734 42.2447 276.451 46.916 276.451 52.6824C276.451 58.4475 271.734 63.1211 265.913 63.1211Z" fill="#E6E7E8"/>
<path d="M159.551 20.9979C159.551 9.39994 168.953 -0.00209108 180.551 -0.00209186L191.733 -0.00209261C203.331 -0.00209338 212.733 9.39992 212.733 20.9979L212.733 31.6836C212.733 43.2816 203.331 52.6836 191.733 52.6836L180.551 52.6836C168.953 52.6836 159.551 43.2816 159.551 31.6836L159.551 20.9979Z" fill="#E6E7E8"/>
<path d="M208.478 26.341C208.478 14.1203 198.479 4.21199 186.142 4.21199C173.806 4.21199 163.805 14.1203 163.805 26.341C163.805 38.5604 173.805 48.4687 186.142 48.4687C198.479 48.4687 208.478 38.5604 208.478 26.341Z" fill="#2D945C"/>
<path d="M106.367 20.9979C106.367 9.39994 115.769 -0.00209108 127.367 -0.00209186L138.55 -0.00209261C150.148 -0.00209338 159.55 9.39992 159.55 20.9979L159.55 31.6836C159.55 43.2816 150.148 52.6836 138.55 52.6836L127.367 52.6836C115.769 52.6836 106.367 43.2816 106.367 31.6836L106.367 20.9979Z" fill="#2D945C"/>
<path d="M132.958 13.2937C125.685 13.2937 119.789 19.1352 119.789 26.341C119.789 33.5459 125.685 39.3871 132.958 39.3871C140.232 39.3871 146.127 33.5459 146.127 26.341C146.127 19.1357 140.232 13.2937 132.958 13.2937ZM132.958 48.4687C120.621 48.4687 110.621 38.5604 110.621 26.341C110.621 14.1203 120.621 4.21199 132.958 4.21199C145.294 4.21199 155.295 14.1203 155.295 26.341C155.295 38.5604 145.294 48.4687 132.958 48.4687Z" fill="#E6E7E8"/>
<path d="M132.961 31.5586C130.052 31.5586 127.691 29.2234 127.691 26.3402C127.691 23.4565 130.052 21.1204 132.961 21.1204C135.872 21.1204 138.229 23.4565 138.229 26.3402C138.229 29.223 135.872 31.5586 132.961 31.5586Z" fill="#E6E7E8"/>
<path d="M53.1836 20.9979C53.1836 9.39994 62.5856 -0.00209108 74.1836 -0.00209186L85.3654 -0.0020926C96.9634 -0.00209338 106.365 9.39992 106.365 20.9979L106.365 31.6836C106.365 43.2816 96.9634 52.6836 85.3654 52.6836L74.1836 52.6836C62.5856 52.6836 53.1836 43.2816 53.1836 31.6836L53.1836 20.9979Z" fill="#2D945C"/>
<path d="M102.111 26.3411C102.111 14.1203 92.1106 4.21337 79.7738 4.21337C67.4383 4.21337 57.4375 14.1203 57.4375 26.3411C57.4375 38.5618 67.4383 48.4687 79.7738 48.4687C92.1102 48.4687 102.111 38.5618 102.111 26.3411Z" fill="#185850"/>
<path d="M-3.60652e-06 21.0005C-4.92657e-06 9.40248 9.40202 0.000434247 21 0.000433472L32.1823 0.000432725C43.7803 0.000431949 53.1823 9.40245 53.1823 21.0004L53.1823 31.6875C53.1823 43.2855 43.7803 52.6875 32.1823 52.6875L21 52.6875C9.40204 52.6875 -1.07011e-06 43.2855 -2.39016e-06 31.6875L-3.60652e-06 21.0005Z" fill="#E6E7E8"/>
<path d="M48.9274 26.341C48.9274 14.1203 38.9275 4.21334 26.5911 4.21334C14.2552 4.21334 4.2539 14.1203 4.2539 26.341C4.25391 38.5618 14.2547 48.4687 26.5911 48.4687C38.9275 48.4687 48.9274 38.5618 48.9274 26.341Z" fill="#2D945C"/>
</g>
</svg>
