<svg version="1.2" xmlns="http://www.w3.org/2000/svg" viewBox="0 0 41 41" width="41" height="41">
	<title>admission-svg</title>
	<style>
		.s0 { fill: #185850 } 
		.s1 { fill: #ffffff } 
	</style>
	<g id="Layer">
		<path id="Layer" class="s0" d="m20.3 1c10.9 0 19.8 8.8 19.8 19.7 0 10.9-8.9 19.8-19.8 19.8-10.9 0-19.7-8.9-19.7-19.8 0-10.9 8.8-19.7 19.7-19.7z"/>
		<path id="Layer" class="s1" d="m20.9 11.6c0 0-0.1 0.1-0.2 0.1-0.1 0.2-1 1.8-1 1.8 0 0.1 1.9 1.2 1.9 1.2 0.1-0.1 0.9-1.6 1-1.7 0.2-0.3 0.1-0.7-0.2-0.9 0-0.1-0.2-0.2-0.5-0.3-0.3-0.2-0.4-0.3-0.6-0.3q-0.3 0-0.4 0.1z"/>
		<path id="Layer" class="s1" d="m16.8 18.4c-1.2 2.2-2.3 4-2.3 4 0 0 0.6 0 1.4 0h1.3l1.9-3.4c1.1-1.8 2-3.3 2-3.3 0-0.1-1.9-1.2-2-1.2 0 0-1 1.8-2.3 3.9z"/>
		<path id="Layer" class="s1" d="m16.1 16.1c-0.3 0-0.3 0.1-1.4 0.9-1 0.8-1.3 1-1.6 1.5-0.3 0.4-2.3 4.1-2.4 4.2-0.1 0.3 0 0.8 0.1 1.1 0.2 0.4 0.6 0.6 0.9 0.6 0.2 0 0.4-0.1 0.5-0.2 0.2-0.3 4.7-8.1 4.7-8.2 0 0-0.6 0-0.8 0.1z"/>
		<path id="Layer" class="s1" d="m20 19.8c-0.9 1.4-1.5 2.6-1.5 2.6 0 0 0.2 0 0.5 0 0.5 0 0.5 0 0.6 0.1 0.4 0.2 0.4 0.7 0 0.9-0.1 0.1-0.3 0.1-2.7 0.1h-2.6l-0.2 0.1c-0.3 0.2-0.6 0.6-0.7 1-0.1 0.6 0.2 1.3 0.8 1.5l0.2 0.1h2.6 2.6l0.4 0.2c2 1 4.2 1.2 6.3 0.4l0.2-0.1v-3.6-3.7h-0.4-0.4l-2.1-1.1c-1.2-0.6-2.1-1.1-2.1-1.1 0 0-0.7 1.1-1.5 2.6z"/>
		<path id="Layer" class="s1" d="m28.1 18.2q-0.2 0.1-0.4 0.3c0 0.1 0 0.3 0 4.4 0 4.8-0.1 4.5 0.2 4.7 0.1 0 0.1 0 0.9 0.1 0.9 0 1 0 1.1-0.3 0.1-0.1 0.1-0.2 0.1-4.5 0-4.8 0-4.4-0.3-4.6-0.1-0.1-0.1-0.1-0.8-0.1-0.4 0-0.7 0-0.8 0z"/>
		<path id="Layer" class="s1" d="m12.2 26.4l-0.3 0.6-0.3 1.2c-0.3 1.2-0.3 1.3-0.3 1.4q0.1 0.3 0.5 0.3c0.2 0 0.1 0.1 1.3-1 0.7-0.7 0.7-0.7 1-1.2l0.3-0.4-0.2-0.1c-0.3-0.1-0.6-0.2-0.8-0.3-0.3-0.2-0.6-0.6-0.8-0.8 0-0.1-0.1-0.2-0.1-0.2 0 0-0.1 0.2-0.3 0.5z"/>
		<path id="Layer" class="s1" d="m15.2 27.9l-0.3 0.7 0.1 0.1q0.3 0.3 0.9 0.3c0.5 0 1-0.3 1.2-0.8l0.1-0.2v0.2c0.2 0.3 0.5 0.6 0.8 0.7 0.5 0.2 1.2 0 1.5-0.4 0.2-0.2 0.3-0.5 0.3-0.7v-0.2l-0.3-0.2-0.3-0.1h-1.8-1.8z"/>
	</g>
</svg>