<svg width="69" height="69" viewBox="0 0 69 69" fill="none" xmlns="http://www.w3.org/2000/svg">
<g filter="url(#filter0_d_1341_5903)">
<rect x="14.6133" y="15" width="39.4602" height="39.4602" rx="19.7301" fill="#185850" shape-rendering="crispEdges"/>
<path d="M34.9246 25.5728C34.8642 25.5992 34.7662 25.6709 34.7096 25.7313C34.5775 25.8784 33.6533 27.4817 33.6722 27.5345C33.691 27.576 35.6225 28.7039 35.6414 28.6813C35.6678 28.6474 36.5316 27.1346 36.5996 27.0026C36.7542 26.697 36.6825 26.316 36.426 26.0821C36.3694 26.0255 36.1506 25.8822 35.9432 25.7615C35.5961 25.5615 35.5433 25.5427 35.3018 25.5313C35.1321 25.5238 34.9963 25.5389 34.9246 25.5728Z" fill="white"/>
<path d="M30.8022 32.4389C29.5536 34.6043 28.5312 36.3849 28.5312 36.3999C28.5312 36.4113 29.1273 36.4188 29.8591 36.415L31.1833 36.4037L33.1223 33.05C34.1861 31.2016 35.0575 29.6737 35.0575 29.6511C35.0575 29.6171 33.1675 28.5005 33.1034 28.5005C33.0883 28.5005 32.0547 30.2735 30.8022 32.4389Z" fill="white"/>
<path d="M30.09 30.066C29.8485 30.1377 29.7504 30.2056 28.6904 31.0053C27.6794 31.7636 27.3814 32.0427 27.0833 32.4992C26.8306 32.8764 24.7973 36.5621 24.7331 36.7507C24.6426 37.0148 24.6803 37.5203 24.8124 37.773C25.0047 38.154 25.3669 38.4219 25.6838 38.4219C25.8875 38.4219 26.1252 38.3049 26.2383 38.154C26.4307 37.8937 30.9123 30.0811 30.8897 30.0471C30.8558 29.9943 30.2748 30.0056 30.09 30.066Z" fill="white"/>
<path d="M33.9525 33.7737C33.1301 35.1997 32.4549 36.3805 32.4549 36.3956C32.4549 36.4107 32.6963 36.422 32.9943 36.422C33.4545 36.422 33.5451 36.4333 33.6394 36.4937C33.9827 36.72 33.9714 37.2368 33.6168 37.4292C33.4998 37.4933 33.3036 37.4971 30.9082 37.516L28.3241 37.5348L28.1468 37.6216C27.7507 37.8178 27.4866 38.1573 27.3998 38.5836C27.2753 39.1985 27.6299 39.8511 28.2222 40.0888L28.4372 40.1755L31.0025 40.1944L33.5677 40.2133L34.0204 40.4434C35.967 41.4355 38.2455 41.5751 40.3128 40.8282L40.5278 40.7489V37.0595V33.3663H40.1053H39.6828L37.5778 32.2723C36.4234 31.6687 35.469 31.1783 35.4615 31.1783C35.4577 31.1783 34.7749 32.3478 33.9525 33.7737Z" fill="white"/>
<path d="M42.0904 32.2304C41.9395 32.2681 41.8188 32.3549 41.732 32.4869C41.6641 32.5888 41.6604 32.7736 41.6604 36.9422C41.6604 41.718 41.6453 41.3936 41.8792 41.5709C41.9735 41.6388 42.0489 41.6464 42.7808 41.6577C43.6824 41.669 43.7805 41.6501 43.9238 41.42C43.9993 41.2993 43.9993 41.2427 43.9993 36.9497C43.9993 32.0946 44.0219 32.4756 43.7352 32.2983C43.6145 32.2229 43.5503 32.2153 42.9052 32.2078C42.5205 32.204 42.1545 32.2153 42.0904 32.2304Z" fill="white"/>
<path d="M26.1816 40.4395L25.8685 40.9865L25.5705 42.2352C25.2989 43.382 25.28 43.4951 25.3215 43.6309C25.3818 43.8271 25.5441 43.929 25.7893 43.929C25.9968 43.929 25.8609 44.0384 27.1172 42.8576C27.8075 42.2087 27.8452 42.1672 28.1055 41.7259L28.3809 41.2694L28.1998 41.2204C27.9282 41.1449 27.5698 40.9903 27.3737 40.862C27.1172 40.696 26.7776 40.3414 26.6418 40.1C26.5777 39.9868 26.5211 39.8925 26.5136 39.8925C26.506 39.8925 26.3589 40.1377 26.1816 40.4395Z" fill="white"/>
<path d="M29.2368 41.9406L28.8633 42.5895L29.0066 42.7102C29.2179 42.895 29.5159 42.9931 29.8517 42.9931C30.4251 42.9931 30.8627 42.6989 31.0777 42.1707L31.1607 41.9708L31.2474 42.1858C31.3719 42.4876 31.6888 42.7969 31.9831 42.9063C32.5338 43.1176 33.1978 42.9441 33.5298 42.5102C33.692 42.299 33.8089 41.9783 33.8127 41.7558V41.5596L33.526 41.4238L33.2393 41.288H31.421L29.6064 41.2917L29.2368 41.9406Z" fill="white"/>
</g>
<defs>
<filter id="filter0_d_1341_5903" x="0.113281" y="0.5" width="68.4609" height="68.4609" filterUnits="userSpaceOnUse" color-interpolation-filters="sRGB">
<feFlood flood-opacity="0" result="BackgroundImageFix"/>
<feColorMatrix in="SourceAlpha" type="matrix" values="0 0 0 0 0 0 0 0 0 0 0 0 0 0 0 0 0 0 127 0" result="hardAlpha"/>
<feMorphology radius="8" operator="dilate" in="SourceAlpha" result="effect1_dropShadow_1341_5903"/>
<feOffset/>
<feGaussianBlur stdDeviation="3.25"/>
<feComposite in2="hardAlpha" operator="out"/>
<feColorMatrix type="matrix" values="0 0 0 0 0.176471 0 0 0 0 0.580392 0 0 0 0 0.360784 0 0 0 1 0"/>
<feBlend mode="normal" in2="BackgroundImageFix" result="effect1_dropShadow_1341_5903"/>
<feBlend mode="normal" in="SourceGraphic" in2="effect1_dropShadow_1341_5903" result="shape"/>
</filter>
</defs>
</svg>
