<svg width="25" height="25" viewBox="0 0 25 25" fill="none" xmlns="http://www.w3.org/2000/svg">
<rect width="25" height="25" rx="12.5" fill="#185850"/>
<path d="M10.0777 6.50707C7.41411 6.87904 5.41812 7.1713 5.33177 7.20451C4.97641 7.34067 4.6609 7.74253 4.56127 8.1942C4.49485 8.47982 4.50481 9.19054 4.57455 9.54258C4.63766 9.83816 4.83028 10.2832 4.97309 10.4559L5.05612 10.5555L4.70408 10.6618C4.32215 10.778 4.25573 10.8212 4.25905 10.9541C4.25905 11.0769 4.37529 11.1865 4.59448 11.2696C4.85685 11.3725 5.04283 11.5751 5.12918 11.8607C5.21221 12.1231 5.24874 12.5349 5.21553 12.8338L5.18896 13.0464L4.7539 13.1892C4.2358 13.3552 4 13.4881 4 13.611C4 13.694 4.01328 13.7006 4.33875 13.777L4.42842 13.8003L4.30222 13.9862C4.23248 14.0925 4.13949 14.2652 4.09631 14.3748C4.02325 14.5575 4.01993 14.6206 4.01993 15.1885C4.01993 15.7132 4.02989 15.8394 4.09299 16.0619C4.21587 16.5103 4.43507 16.8657 4.69411 17.0317C4.80703 17.1048 11.0142 19.1406 11.1238 19.1406C11.2035 19.1406 20.3798 16.9122 20.4495 16.8789C20.6455 16.7727 20.3565 16.5734 19.679 16.3509L19.2938 16.2247L19.2705 15.9789C19.244 15.6701 19.2938 15.2018 19.3735 14.9859C19.4764 14.7169 19.5761 14.6139 19.8816 14.4645C20.1938 14.3117 20.2735 14.2187 20.2204 14.0659C20.1971 13.9962 20.1506 13.963 20.0012 13.9132L19.8119 13.8534L19.9613 13.7039C20.2602 13.4017 20.4528 12.8537 20.4927 12.1829C20.5259 11.6249 20.4296 11.1633 20.2204 10.8544C20.1739 10.7847 20.1407 10.7249 20.1473 10.7216C20.1539 10.7183 20.2702 10.6884 20.4064 10.6585C20.5425 10.6286 20.7351 10.5788 20.8315 10.5522C20.9942 10.5057 21.0075 10.4957 20.9975 10.4127C20.9842 10.2932 20.7219 10.1537 20.2004 9.98429L19.8119 9.85808L19.7886 9.61232C19.7421 9.10419 19.8484 8.57613 20.0443 8.33701C20.1141 8.25398 20.2337 8.17095 20.3864 8.10121C20.5159 8.04143 20.6488 7.9584 20.6853 7.92187C20.7584 7.83884 20.765 7.69603 20.6986 7.62961C20.6289 7.55987 14.9497 5.85613 14.8003 5.85945C14.7339 5.86277 12.6084 6.15171 10.0777 6.50707ZM8.67614 8.86175C10.3301 9.40309 11.6884 9.84812 11.6917 9.85144C11.7083 9.86473 11.6319 11.8175 11.6187 11.8308C11.612 11.8408 10.2504 11.4655 8.58979 11.0039C6.16205 10.3264 5.55429 10.1437 5.46129 10.074C5.21553 9.88465 5.08269 9.46287 5.07937 8.84514C5.07937 8.40011 5.13915 8.18092 5.31184 7.99825C5.39819 7.90526 5.44469 7.88202 5.54432 7.88202C5.61739 7.88202 6.90266 8.28387 8.67614 8.86175ZM19.5196 8.56949C19.4233 8.87171 19.3868 9.39313 19.4333 9.76509L19.4632 10.0042L18.6993 10.1902C18.2775 10.2932 16.597 10.7083 14.9663 11.1168L12.0006 11.8607L12.0238 11.0072C12.0371 10.5389 12.057 10.0906 12.067 10.0075L12.0869 9.86141L15.8232 9.0909C17.879 8.6658 19.5694 8.31708 19.5794 8.31708C19.5927 8.31376 19.5661 8.43 19.5196 8.56949ZM19.6724 11.1533C19.8816 11.3293 19.9812 11.8308 19.9148 12.3689C19.855 12.8537 19.6956 13.1925 19.4764 13.3121C19.3801 13.3652 13.4021 15.039 13.3855 15.0191C13.3689 15.0025 13.2991 13.0497 13.3124 13.0364C13.3191 13.0331 14.6674 12.588 16.3081 12.05C18.1546 11.4489 19.3469 11.0736 19.4333 11.0736C19.5362 11.0703 19.596 11.0935 19.6724 11.1533ZM9.21416 12.2825C11.25 12.701 12.9239 13.0464 12.9305 13.053C12.9504 13.0663 13.0069 14.9925 12.987 15.0125C12.977 15.0224 11.2998 14.6173 9.26398 14.1124L5.55761 13.1892L5.58085 12.7707C5.6041 12.3124 5.56757 11.9836 5.46129 11.6781C5.40151 11.5054 5.40151 11.4954 5.45465 11.5087C5.48786 11.5186 7.18164 11.8674 9.21416 12.2825ZM8.16801 15.235L11.157 16.2114L11.167 16.3708C11.1803 16.6 11.1238 18.1742 11.1006 18.1941C11.0906 18.2074 9.71565 17.8321 8.04845 17.3671L5.01294 16.5169L4.87346 16.3642C4.67087 16.1483 4.59448 15.8826 4.57455 15.3545C4.54466 14.6173 4.70408 14.2619 5.06276 14.2619C5.12586 14.2586 6.52405 14.7003 8.16801 15.235ZM19.0613 14.7468C19.048 14.78 19.0082 14.9228 18.9716 15.0689C18.9152 15.2881 18.9085 15.411 18.9152 15.8527L18.9285 16.3741L15.2188 17.2974C13.1763 17.8089 11.5024 18.2174 11.4925 18.2074C11.4725 18.1841 11.5423 16.2712 11.5655 16.2479C11.5788 16.2346 11.9308 16.1549 12.346 16.0719C12.9006 15.959 13.1431 15.9225 13.246 15.9357C13.3589 15.9557 13.4785 15.9291 13.8338 15.8162C14.1327 15.7232 15.0593 15.514 16.6369 15.1885C17.9354 14.9195 19.0148 14.697 19.0414 14.6936C19.0713 14.6903 19.0779 14.7102 19.0613 14.7468Z" fill="white"/>
</svg>
