<?xml version="1.0" encoding="UTF-8"?>
<!-- Creator: CorelDRAW (Evaluation Version) -->
<svg xmlns="http://www.w3.org/2000/svg" xmlns:xlink="http://www.w3.org/1999/xlink" xmlns:xodm="http://www.corel.com/coreldraw/odm/2003" xml:space="preserve" width="126.113mm" height="55.882mm" version="1.1" style="shape-rendering:geometricPrecision; text-rendering:geometricPrecision; image-rendering:optimizeQuality; fill-rule:evenodd; clip-rule:evenodd" viewBox="0 0 12596.82 5581.79">
 <defs>
  <style type="text/css">
   <![CDATA[
    .str0 {stroke:#1F1A17;stroke-width:26.44;stroke-linejoin:round;stroke-miterlimit:2.61313}
    .fil0 {fill:none}
    .fil1 {fill:#1F1A17}
    .fil2 {fill:#4D4A47}
    .fil3 {fill:#E05717}
    .fil4 {fill:white}
    .fil5 {fill:#1F1A17;fill-rule:nonzero}
   ]]>
  </style>
 </defs>
 <g id="Layer_x0020_1">
  <metadata id="CorelCorpID_0Corel-Layer"></metadata>
  <g id="_2134481846592">
   <g>
    <path class="fil0 str0" d="M3697.95 3377.17l91.86 0c1.79,45.28 18.88,81.27 50.91,108 32.34,26.9 74.53,40.33 126.78,40.33 56.47,0 101.24,-13.43 134.46,-40.01 32.97,-26.61 49.58,-62.71 49.58,-108.32 0,-66.07 -68,-116.27 -204.01,-150.12 -10.6,-2.69 -18.58,-4.63 -23.78,-5.92 -71.19,-18.57 -122.39,-41.82 -153.54,-70.12 -31.33,-28.26 -47.03,-65.12 -47.03,-110.76 0,-58.26 24.14,-105.85 72.24,-142.98 48.31,-37.31 110.53,-55.75 186.88,-55.75 72.81,0 130.54,16.91 173.31,50.72 42.47,33.67 66.35,81.42 71.06,142.56l-89.99 0c-4.67,-39.94 -20.59,-70.58 -47.29,-92.19 -26.57,-21.59 -62.21,-32.42 -107.1,-32.42 -47.81,0 -87.3,11.82 -117.41,35.55 -30.47,23.47 -45.74,53.52 -45.74,90.05 0,19.04 4.61,35.45 13.54,49.41 9.16,13.96 23.73,26.57 43.69,38.04 20.5,11.33 59.61,23.97 117.32,38.03 33.24,8.1 58.43,14.61 75.95,19.71 62.98,18.36 108.41,41.82 136.22,70.45 27.71,28.67 41.52,66.19 41.52,112.89 0,70.88 -25.65,128.04 -76.79,171.4 -51.37,43.39 -119.39,64.94 -204.22,64.94 -79.02,0 -143.16,-20.5 -192.41,-61.51 -49.47,-40.95 -74.7,-94.92 -76.04,-161.96zm1727.15 -333c-43.38,-45.36 -92.08,-78.97 -145.99,-100.36 -53.67,-21.41 -115.07,-32.05 -183.64,-32.05 -108.06,0 -200.31,30.14 -276.9,90.41 -76.59,60.33 -114.83,131.91 -114.83,214.99 0,88.26 38.24,162.83 114.39,223.52 76.15,60.41 168.48,90.81 277.34,90.81 67.06,0 127.74,-10.66 181.87,-31.74 54.08,-21.05 101.15,-52.58 141.16,-94.4l113.13 0c-44.23,62.08 -103.86,110.37 -178.42,144.43 -74.56,33.94 -158.21,50.87 -251.21,50.87 -142.52,0 -261.45,-36.67 -356.64,-109.95 -95.2,-73.18 -142.8,-164.85 -142.8,-274.54 0,-51.26 13.05,-99.71 38.66,-145.61 25.74,-46.03 63.48,-87.26 113.19,-124.1 46.29,-34.85 98.05,-61.16 155.54,-79.04 57.59,-18.03 119.76,-26.92 186.79,-26.92 96.41,0 183.05,17.63 260.14,53.14 77.11,35.51 138.04,85.7 182.81,150.56l-114.59 0zm616.28 541.95l-95.82 0 0 -731.13 95.82 0 0 327.85 460.87 0 0 -327.85 95.25 0 0 731.13 -95.25 0 0 -333.55 -460.87 0 0 333.55zm1055.6 -368.97c0,88.94 38.44,163.71 115.29,223.93 76.83,60.14 171.73,90.4 284.44,90.4 110.02,0 202.94,-30.58 278.83,-91.32 75.97,-61.1 113.93,-136.09 113.93,-225.02 0,-83.17 -39.05,-154.58 -117.33,-214.8 -77.92,-60.16 -172.05,-90.16 -282.34,-90.16 -44.82,0 -87.98,5.87 -129.27,17.39 -41.61,11.61 -79.81,28.58 -115.1,50.96 -46.07,29.3 -82.47,65.39 -108.88,107.99 -26.4,42.54 -39.57,86.05 -39.57,130.63zm-99.76 -1.01c0,-50.91 12.97,-99.58 38.95,-145.61 26.07,-46.35 63.59,-87.72 112.88,-124.1 47.53,-35.2 99.87,-61.62 156.85,-79.39 57.16,-17.68 119.03,-26.57 185.5,-26.57 67.65,0 130.7,8.89 188.62,26.92 58.12,17.88 111.05,44.54 159.06,79.98 49.32,36.56 86.32,77.24 111.09,122.52 24.76,45.28 37.26,93.96 37.26,146.25 0,51.79 -10.62,99.43 -32.05,142.72 -21.11,43.4 -53.17,82.81 -95.64,118.26 -49.38,41.03 -105.07,71.6 -167.32,92.34 -62.08,20.78 -129.56,31.17 -202.35,31.17 -139.37,0 -256.52,-36.8 -350.98,-110.63 -94.64,-73.88 -141.87,-165.17 -141.87,-273.87zm1441.38 1.01c0,88.94 38.4,163.71 115.23,223.93 76.85,60.14 171.68,90.4 284.39,90.4 110.04,0 202.96,-30.58 278.96,-91.32 75.95,-61.1 113.84,-136.09 113.84,-225.02 0,-83.17 -39.09,-154.58 -117.21,-214.8 -78.12,-60.16 -172.15,-90.16 -282.35,-90.16 -44.75,0 -88.06,5.87 -129.47,17.39 -41.56,11.61 -79.69,28.58 -114.98,50.96 -46.18,29.3 -82.52,65.39 -108.85,107.99 -26.4,42.54 -39.57,86.05 -39.57,130.63zm-99.87 -1.01c0,-50.91 12.97,-99.58 38.93,-145.61 26.09,-46.35 63.63,-87.72 113.01,-124.1 47.42,-35.2 99.8,-61.62 156.79,-79.39 57.07,-17.68 118.93,-26.57 185.52,-26.57 67.76,0 130.82,8.89 188.57,26.92 58.08,17.88 111.12,44.54 159.04,79.98 49.32,36.56 86.36,77.24 111.25,122.52 24.71,45.28 37.26,93.96 37.26,146.25 0,51.79 -10.78,99.43 -32.17,142.72 -21.11,43.4 -53.18,82.81 -95.6,118.26 -49.47,41.03 -105.06,71.6 -167.36,92.34 -62.08,20.78 -129.58,31.17 -202.33,31.17 -139.32,0 -256.45,-36.8 -350.93,-110.63 -94.58,-73.88 -141.98,-165.17 -141.98,-273.87zm1827.88 369.98l-436.88 0 0 -731.13 95.87 0 0 660.37 341.01 0 0 70.76z"></path>
    <path id="_1" class="fil1" d="M3697.95 3377.17l91.86 0c1.79,45.28 18.88,81.27 50.91,108 32.34,26.9 74.53,40.33 126.78,40.33 56.47,0 101.24,-13.43 134.46,-40.01 32.97,-26.61 49.58,-62.71 49.58,-108.32 0,-66.07 -68,-116.27 -204.01,-150.12 -10.6,-2.69 -18.58,-4.63 -23.78,-5.92 -71.19,-18.57 -122.39,-41.82 -153.54,-70.12 -31.33,-28.26 -47.03,-65.12 -47.03,-110.76 0,-58.26 24.14,-105.85 72.24,-142.98 48.31,-37.31 110.53,-55.75 186.88,-55.75 72.81,0 130.54,16.91 173.31,50.72 42.47,33.67 66.35,81.42 71.06,142.56l-89.99 0c-4.67,-39.94 -20.59,-70.58 -47.29,-92.19 -26.57,-21.59 -62.21,-32.42 -107.1,-32.42 -47.81,0 -87.3,11.82 -117.41,35.55 -30.47,23.47 -45.74,53.52 -45.74,90.05 0,19.04 4.61,35.45 13.54,49.41 9.16,13.96 23.73,26.57 43.69,38.04 20.5,11.33 59.61,23.97 117.32,38.03 33.24,8.1 58.43,14.61 75.95,19.71 62.98,18.36 108.41,41.82 136.22,70.45 27.71,28.67 41.52,66.19 41.52,112.89 0,70.88 -25.65,128.04 -76.79,171.4 -51.37,43.39 -119.39,64.94 -204.22,64.94 -79.02,0 -143.16,-20.5 -192.41,-61.51 -49.47,-40.95 -74.7,-94.92 -76.04,-161.96zm1727.15 -333c-43.38,-45.36 -92.08,-78.97 -145.99,-100.36 -53.67,-21.41 -115.07,-32.05 -183.64,-32.05 -108.06,0 -200.31,30.14 -276.9,90.41 -76.59,60.33 -114.83,131.91 -114.83,214.99 0,88.26 38.24,162.83 114.39,223.52 76.15,60.41 168.48,90.81 277.34,90.81 67.06,0 127.74,-10.66 181.87,-31.74 54.08,-21.05 101.15,-52.58 141.16,-94.4l113.13 0c-44.23,62.08 -103.86,110.37 -178.42,144.43 -74.56,33.94 -158.21,50.87 -251.21,50.87 -142.52,0 -261.45,-36.67 -356.64,-109.95 -95.2,-73.18 -142.8,-164.85 -142.8,-274.54 0,-51.26 13.05,-99.71 38.66,-145.61 25.74,-46.03 63.48,-87.26 113.19,-124.1 46.29,-34.85 98.05,-61.16 155.54,-79.04 57.59,-18.03 119.76,-26.92 186.79,-26.92 96.41,0 183.05,17.63 260.14,53.14 77.11,35.51 138.04,85.7 182.81,150.56l-114.59 0zm616.28 541.95l-95.82 0 0 -731.13 95.82 0 0 327.85 460.87 0 0 -327.85 95.25 0 0 731.13 -95.25 0 0 -333.55 -460.87 0 0 333.55zm1055.6 -368.97c0,88.94 38.44,163.71 115.29,223.93 76.83,60.14 171.73,90.4 284.44,90.4 110.02,0 202.94,-30.58 278.83,-91.32 75.97,-61.1 113.93,-136.09 113.93,-225.02 0,-83.17 -39.05,-154.58 -117.33,-214.8 -77.92,-60.16 -172.05,-90.16 -282.34,-90.16 -44.82,0 -87.98,5.87 -129.27,17.39 -41.61,11.61 -79.81,28.58 -115.1,50.96 -46.07,29.3 -82.47,65.39 -108.88,107.99 -26.4,42.54 -39.57,86.05 -39.57,130.63zm-99.76 -1.01c0,-50.91 12.97,-99.58 38.95,-145.61 26.07,-46.35 63.59,-87.72 112.88,-124.1 47.53,-35.2 99.87,-61.62 156.85,-79.39 57.16,-17.68 119.03,-26.57 185.5,-26.57 67.65,0 130.7,8.89 188.62,26.92 58.12,17.88 111.05,44.54 159.06,79.98 49.32,36.56 86.32,77.24 111.09,122.52 24.76,45.28 37.26,93.96 37.26,146.25 0,51.79 -10.62,99.43 -32.05,142.72 -21.11,43.4 -53.17,82.81 -95.64,118.26 -49.38,41.03 -105.07,71.6 -167.32,92.34 -62.08,20.78 -129.56,31.17 -202.35,31.17 -139.37,0 -256.52,-36.8 -350.98,-110.63 -94.64,-73.88 -141.87,-165.17 -141.87,-273.87zm1441.38 1.01c0,88.94 38.4,163.71 115.23,223.93 76.85,60.14 171.68,90.4 284.39,90.4 110.04,0 202.96,-30.58 278.96,-91.32 75.95,-61.1 113.84,-136.09 113.84,-225.02 0,-83.17 -39.09,-154.58 -117.21,-214.8 -78.12,-60.16 -172.15,-90.16 -282.35,-90.16 -44.75,0 -88.06,5.87 -129.47,17.39 -41.56,11.61 -79.69,28.58 -114.98,50.96 -46.18,29.3 -82.52,65.39 -108.85,107.99 -26.4,42.54 -39.57,86.05 -39.57,130.63zm-99.87 -1.01c0,-50.91 12.97,-99.58 38.93,-145.61 26.09,-46.35 63.63,-87.72 113.01,-124.1 47.42,-35.2 99.8,-61.62 156.79,-79.39 57.07,-17.68 118.93,-26.57 185.52,-26.57 67.76,0 130.82,8.89 188.57,26.92 58.08,17.88 111.12,44.54 159.04,79.98 49.32,36.56 86.36,77.24 111.25,122.52 24.71,45.28 37.26,93.96 37.26,146.25 0,51.79 -10.78,99.43 -32.17,142.72 -21.11,43.4 -53.18,82.81 -95.6,118.26 -49.47,41.03 -105.06,71.6 -167.36,92.34 -62.08,20.78 -129.58,31.17 -202.33,31.17 -139.32,0 -256.45,-36.8 -350.93,-110.63 -94.58,-73.88 -141.98,-165.17 -141.98,-273.87zm1827.88 369.98l-436.88 0 0 -731.13 95.87 0 0 660.37 341.01 0 0 70.76z"></path>
   </g>
   <path class="fil1" d="M12596.82 129.23l-914.42 2807.27c-70.52,212.11 -171.34,378.23 -302.6,498.15 -131.35,119.13 -333.74,179.11 -606.31,179.11 -65.68,0 -218.76,-6.95 -457.96,-22.61l0.33 -720.71c118.74,19.91 228.9,30.47 329.74,30.47 262.41,0 393.83,-64.36 393.83,-193.98 0.09,-41.73 -13.24,-100.73 -39.06,-175.6l-834.83 -2402.09 977.35 0 384.59 1380.57 402.99 -1380.57 666.36 0z"></path>
   <path class="fil1" d="M9579.97 1265.75l-0.72 1419.7 -632.49 0 0.68 -1419.7 -255.69 0 0.2 -485.21 255.64 0c0.09,-157.29 6.4,-273.65 18.49,-349.03 12.7,-75.43 43.18,-147.68 92.62,-217.36 49.49,-69.01 115.56,-122.06 198.87,-159.15 82.67,-36.45 194.68,-55 334.88,-55 150.47,0 294.67,12.81 432.57,39.01l-0.26 489.06c-106.86,-15.95 -186.05,-24.39 -238.93,-24.39 -52.82,0 -101.06,11.63 -144.72,35.84 -43.66,23.64 -65.61,81.23 -65.61,173.92l0 67.1 437.12 0 -0.2 485.21 -432.44 0zm-1151.6 -485.21l-0.83 1904.91 -671.56 0 0.74 -1904.91 671.65 0zm0.24 -731.96l-0.22 592 -671.56 0 0.28 -592 671.5 0zm-1762.35 1412.13c0.04,-171.31 -63.13,-256.41 -190.11,-256.41 -88.36,0 -146.44,54.37 -174.11,162.45 -27.58,108.67 -41.43,241.65 -41.51,399.44 -0.18,308.15 70.49,462.2 212.35,462.2 53.48,0 99.34,-24.25 136.73,-72.77 37.98,-48.63 56.35,-122.76 56.35,-223.1l0.31 -471.82zm661.18 1224.74l-629.54 0 0.04 -253.07c-93.08,195.01 -247.16,292.74 -461.39,292.74 -197.08,0 -357.28,-86.31 -480.13,-257.6 -122.91,-172.03 -184.27,-421.28 -184.14,-748.59 0.26,-305.46 62.32,-548.38 185.33,-728.09 123.52,-180.27 286.77,-269.75 490.11,-269.75 169.5,0 309.07,71.6 418.78,215.43l0.24 -807.28 661.78 0 -1.08 2556.22z"></path>
   <polygon class="fil1" points="5325.24,2075 5324.92,2685.45 3596.98,2685.45 3598.07,129.23 5326.09,129.23 5325.75,719.19 4289.54,719.19 4289.35,1089.95 5127.39,1089.95 5127.11,1657.53 4289.07,1657.53 4288.98,2075 "></polygon>
   <path class="fil2" d="M2740.09 122.67l-2434.52 0c-168.1,0 -305.57,118.65 -305.57,263.78l0 2692.41c0,145.14 137.47,263.86 305.57,263.86l2434.52 0c168.04,0 305.51,-118.71 305.51,-263.86l0 -2692.41c0,-145.12 -137.47,-263.78 -305.51,-263.78z"></path>
   <path class="fil3" d="M2615.83 365.42l-2185.99 0c-103.64,0 -188.44,73.89 -188.44,164.24l0 2406.03c0,90.27 84.8,164.21 188.44,164.21l2185.99 0c103.55,0 188.44,-73.95 188.44,-164.21l0 -2406.03c0,-90.36 -84.89,-164.24 -188.44,-164.24z"></path>
   <path class="fil4" d="M2301.54 2585.73l244.43 -1595.38c-1093.78,71.72 -1749.28,574.24 -1981.22,1507.47 500.9,88.59 1001.87,177.31 1502.73,265.95 218.95,38.71 192.6,53.74 234.05,-178.05z"></path>
   <path class="fil4" d="M474.45 2363.38c130.03,-515.7 304.8,-809.34 674.38,-1088.43l-610.9 -909.53 -108.09 0c-103.64,0 -188.44,73.89 -188.44,164.24l0 1486.79 233.05 346.92z"></path>
   <path class="fil4" d="M2455.7 855.93c-500.58,-35.91 -818.17,45.01 -1185.87,327.04l-549.13 -817.55 1405.52 0 329.48 490.51z"></path>
   <path class="fil2" d="M3759.64 4570.44l0 -481.01 -162.64 0 0 -43.03 374.8 0 0 43.03 -162.66 0 0 481.01 -49.49 0zm593.96 0l0 -524.04 47.99 0 0 227.46 299.69 0 0 -227.46 48.75 0 0 524.04 -48.75 0 0 -253.64 -299.69 0 0 253.64 -47.99 0zm832.88 0l0 -524.04 49.45 0 0 524.04 -49.45 0zm486.51 0l0 -524.04 53.1 0 295.95 449.71 0 -449.71 46.59 0 0 524.04 -53.26 0 -295.01 -449.64 0 449.64 -47.37 0zm830.02 0l0 -524.04 48.08 0 0 277.74 270.44 -277.74 61.87 0 -212.83 217.35 237.69 306.69 -59.68 0 -209.88 -274.62 -87.61 89.48 0 185.15 -48.08 0zm830.72 -43.11l141.23 0c52.04,0 88.4,-7.55 108.7,-22.74 20.3,-15.18 30.38,-41.1 30.38,-77.63 0,-35.45 -11.43,-62.31 -34.17,-80.26 -22.86,-18.08 -56.43,-27.09 -100.99,-27.09l-145.13 0 0 207.72zm116.75 -437.9l-116.75 0 0 189.6 112.03 0c54.04,0 91.54,-7.34 112.78,-21.69 21.08,-14.52 31.66,-39.04 31.66,-73.69 0,-34.38 -10.03,-58.61 -30.35,-72.92 -20.3,-14.15 -56.85,-21.32 -109.38,-21.32zm-164.94 481.01l0 -524.04 173.32 0c30.18,0 54.12,1.72 71.7,4.88 17.8,3.22 32.97,8.82 45.81,16.39 19.84,11.21 35.49,26.62 46.55,46.46 11.13,19.78 16.78,41.87 16.78,66.27 0,26.18 -6.91,49.06 -20.54,68.77 -13.65,19.61 -32.69,34.52 -57.38,44.44 31.67,6.92 56.72,22.38 74.85,46.42 18.08,24.11 27.16,53.75 27.16,89.2 0,30.54 -7.29,57.24 -21.83,80.04 -14.55,22.7 -34.89,39.1 -60.55,49.34 -10.53,4.26 -26.4,7.31 -47.83,9.12 -21.34,1.78 -55.75,2.71 -103.02,2.71l-145.01 0zm783.43 0l0 -524.04 342.97 0 0 43.03 -294.9 0 0 191.03 269.66 0 0 41.74 -269.66 0 0 205.12 303.81 0 0 43.11 -351.88 0zm879.36 0l0 -230.24 -184.98 -293.8 55.19 0 153.63 247.87 154.14 -247.87 55.15 0 -184.94 293.8 0 230.24 -48.19 0zm617.54 -261.6c0,71.62 17.17,128.31 51.27,170.21 34.15,41.98 80.39,62.87 138.85,62.87 58.57,0 105.07,-20.89 139.35,-62.76 34.49,-41.64 51.6,-98.39 51.6,-170.32 0,-72.08 -17.11,-129.12 -51.6,-171.13 -34.28,-41.89 -80.78,-62.91 -139.35,-62.91 -57.63,0 -103.7,21.13 -138.33,63.52 -34.49,42.27 -51.79,99.15 -51.79,170.52zm-49.73 0c0,-84.97 21.62,-152.1 64.78,-201.78 43.22,-49.56 101.48,-74.33 175.08,-74.33 73.7,0 132.29,24.77 175.51,74.33 43.4,49.68 64.98,116.81 64.98,201.78 0,84.94 -21.58,152.13 -64.98,201.73 -43.22,49.6 -101.81,74.39 -175.51,74.39 -73.6,0 -131.86,-24.79 -175.08,-74.39 -43.16,-49.6 -64.78,-116.79 -64.78,-201.73zm891.04 261.6l0 -524.04 53.12 0 295.91 449.71 0 -449.71 46.68 0 0 524.04 -53.26 0 -295.08 -449.64 0 449.64 -47.37 0zm878.13 -43.11l101.41 0c39.59,0 68.43,-1.48 86.77,-4.55 18.24,-2.87 33.43,-7.97 45.53,-15.06 26.59,-15.87 46.35,-40.18 59.45,-72.77 13.06,-32.54 19.5,-74.55 19.5,-126.07 0,-49.01 -6.31,-90.01 -18.71,-122.44 -12.69,-32.62 -31.39,-57.15 -56.28,-73.57 -12.9,-8.47 -28.59,-14.5 -47.13,-18.06 -18.76,-3.52 -50.12,-5.38 -94.49,-5.38l-11.34 0 -84.72 0 0 437.9zm75.04 -480.93l35.6 0c43.24,0 75.54,2.24 97.19,6.8 21.52,4.46 40.11,11.59 55.82,21.6 32.16,20.41 56.8,50.54 73.87,90.25 16.89,39.67 25.34,87.13 25.34,142.47 0,59.46 -9.21,109.52 -27.66,150.05 -18.61,40.55 -45.92,70.66 -82.24,90.36 -15.19,8.14 -33.8,13.91 -55.83,17.43 -22.1,3.41 -55.82,5.09 -101.07,5.09l-144.14 0 0 -524.04 123.13 0z"></path>
   <path class="fil5" d="M4043.31 5489.68c0,7.13 -0.15,13.24 -0.58,18.19 -0.44,4.95 -1.17,9.32 -2.04,12.81 -0.73,3.65 -1.9,6.69 -3.35,9.32 -1.46,2.47 -3.65,5.38 -6.84,8.58 -3.06,3.21 -9.17,7.42 -18.05,12.52 -9.02,4.94 -19.93,9.9 -32.88,14.55 -12.96,4.51 -27.65,8.44 -44.24,11.5 -16.59,3.06 -34.63,4.65 -53.99,4.65 -37.69,0 -71.74,-5.82 -102.15,-17.46 -30.42,-11.65 -56.32,-29.11 -77.56,-52.24 -21.39,-23.14 -37.69,-51.95 -49.03,-86.73 -11.36,-34.63 -17.03,-74.94 -17.03,-120.92 0,-46.87 6.25,-88.48 18.77,-124.86 12.52,-36.38 29.98,-66.94 52.39,-91.67 22.41,-24.74 49.33,-43.37 80.77,-56.18 31.28,-12.81 65.91,-19.21 103.75,-19.21 15.28,0 29.98,1.31 44.24,3.93 14.25,2.48 27.36,5.82 39.43,10.05 12.08,4.08 22.84,8.87 32.59,14.25 9.61,5.53 16.44,10.19 20.23,13.97 3.79,3.93 6.4,7.13 7.86,9.61 1.46,2.62 2.62,5.81 3.35,9.75 0.87,4.08 1.6,8.73 2.04,14.11 0.44,5.38 0.58,11.93 0.58,19.94 0,8.44 -0.29,15.71 -0.87,21.68 -0.59,5.97 -1.61,10.77 -2.92,14.41 -1.45,3.64 -3.2,6.4 -5.09,8 -2.03,1.75 -4.36,2.62 -6.83,2.62 -4.23,0 -9.61,-2.48 -16.15,-7.42 -6.55,-4.94 -14.99,-10.48 -25.32,-16.59 -10.34,-6.11 -22.7,-11.64 -37.11,-16.58 -14.26,-4.95 -31.28,-7.42 -51.22,-7.42 -21.83,0 -41.33,4.5 -58.5,13.38 -17.17,9.02 -31.72,21.69 -43.8,38.27 -12.08,16.74 -21.25,36.82 -27.5,60.39 -6.26,23.43 -9.32,50.06 -9.32,79.6 0,32.3 3.35,60.39 10.04,84.11 6.7,23.57 16.15,43.22 28.53,58.49 12.23,15.28 27.21,26.78 44.67,34.2 17.47,7.57 37.11,11.35 58.94,11.35 19.79,0 36.96,-2.33 51.51,-6.98 14.4,-4.65 26.77,-9.9 37.11,-15.42 10.48,-5.67 18.92,-10.77 25.61,-15.28 6.69,-4.51 11.79,-6.84 15.57,-6.84 2.76,0 5.09,0.59 6.69,1.75 1.75,1.17 3.2,3.35 4.36,6.84 1.02,3.35 1.89,8.15 2.48,14.26 0.58,6.25 0.87,14.4 0.87,24.73zm606.51 68.1c0,2.77 -0.87,5.38 -2.77,7.71 -1.89,2.19 -4.94,4.08 -9.17,5.53 -4.22,1.31 -9.89,2.48 -17.02,3.35 -6.98,0.88 -16.01,1.31 -26.63,1.31 -11.06,0 -20.23,-0.43 -27.51,-1.31 -7.27,-0.87 -12.81,-2.04 -17.02,-3.35 -4.08,-1.46 -6.98,-3.35 -8.88,-5.53 -1.89,-2.33 -2.77,-4.94 -2.77,-7.71l0 -223.07 -206.92 0 0 223.07c0,2.77 -0.87,5.38 -2.62,7.71 -1.61,2.19 -4.65,4.08 -8.88,5.53 -4.22,1.31 -9.9,2.48 -17.02,3.35 -6.99,0.88 -16.16,1.31 -27.07,1.31 -10.77,0 -19.8,-0.43 -27.07,-1.31 -7.27,-0.87 -12.96,-2.04 -17.17,-3.35 -4.23,-1.46 -7.27,-3.35 -9.17,-5.53 -1.89,-2.33 -2.77,-4.94 -2.77,-7.71l0 -521.24c0,-2.77 0.88,-5.38 2.77,-7.71 1.9,-2.19 4.94,-4.08 9.17,-5.53 4.22,-1.45 9.9,-2.47 17.17,-3.35 7.27,-0.87 16.3,-1.31 27.07,-1.31 10.91,0 20.08,0.44 27.07,1.31 7.12,0.88 12.81,2.04 17.02,3.35 4.23,1.46 7.27,3.35 8.88,5.53 1.75,2.33 2.62,4.94 2.62,7.71l0 203 206.92 0 0 -203c0,-2.77 0.88,-5.38 2.77,-7.71 1.9,-2.19 4.8,-4.08 8.88,-5.53 4.22,-1.31 9.75,-2.47 17.02,-3.35 7.28,-0.87 16.45,-1.31 27.51,-1.31 10.62,0 19.65,0.44 26.63,1.31 7.13,0.88 12.81,1.9 17.02,3.35 4.23,1.46 7.28,3.35 9.17,5.53 1.9,2.33 2.77,4.94 2.77,7.71l0 521.24zm328.42 0c0,2.77 -0.87,5.38 -2.76,7.71 -1.9,2.19 -4.95,4.08 -9.17,5.53 -4.23,1.31 -10.04,2.48 -17.03,3.35 -7.13,0.88 -16.29,1.31 -27.36,1.31 -10.77,0 -19.79,-0.43 -27.06,-1.31 -7.28,-0.87 -13.1,-2.04 -17.32,-3.35 -4.23,-1.46 -7.27,-3.35 -9.17,-5.53 -1.89,-2.33 -2.77,-4.94 -2.77,-7.71l0 -521.24c0,-2.77 0.88,-5.38 2.77,-7.71 1.9,-2.19 4.94,-4.08 9.46,-5.53 4.36,-1.45 10.04,-2.47 17.17,-3.35 7.13,-0.87 16.15,-1.31 26.92,-1.31 11.07,0 20.23,0.44 27.36,1.31 6.99,0.88 12.81,1.9 17.03,3.35 4.22,1.46 7.27,3.35 9.17,5.53 1.89,2.33 2.76,4.94 2.76,7.71l0 521.24zm618.16 -1.31c0,3.21 -0.73,5.96 -2.33,8.3 -1.61,2.47 -4.51,4.36 -9.03,5.96 -4.36,1.6 -10.33,2.77 -18.04,3.64 -7.71,0.88 -17.32,1.31 -28.96,1.31 -18.48,0 -31.72,-0.73 -39.87,-2.18 -8.15,-1.31 -13.96,-3.5 -17.46,-6.4 -3.5,-2.77 -6.26,-6.26 -8.3,-10.19l-166.76 -261.93 0 261.93c0,3.06 -0.87,5.82 -2.62,8.15 -1.61,2.18 -4.65,4.22 -8.88,5.67 -4.22,1.6 -9.9,2.77 -17.02,3.64 -6.99,0.88 -16.16,1.31 -27.07,1.31 -10.77,0 -19.8,-0.43 -27.07,-1.31 -7.27,-0.87 -12.96,-2.04 -17.17,-3.64 -4.23,-1.6 -7.27,-3.5 -9.17,-5.67 -1.89,-2.33 -2.77,-5.09 -2.77,-8.15l0 -519.93c0,-3.21 0.88,-5.82 2.77,-8.15 1.9,-2.19 4.94,-4.08 9.17,-5.53 4.22,-1.45 9.9,-2.47 17.17,-3.35 7.27,-0.87 16.3,-1.31 27.07,-1.31 10.91,0 20.08,0.44 27.07,1.31 7.12,0.88 12.81,1.9 17.02,3.35 4.23,1.46 7.27,3.35 8.88,5.53 1.75,2.33 2.62,4.94 2.62,8.15l0 235.01 161.52 -234.58c2.04,-3.64 4.36,-6.69 7.27,-9.16 2.77,-2.48 6.55,-4.37 11.07,-5.82 4.5,-1.31 10.33,-2.33 17.46,-2.92 7.13,-0.58 16.15,-0.87 27.21,-0.87 11.36,0 20.67,0.44 28.09,1.31 7.42,0.88 13.24,2.04 17.75,3.64 4.36,1.46 7.42,3.5 9.02,5.68 1.75,2.33 2.63,4.79 2.63,7.71 0,4.79 -1.31,9.75 -3.79,14.98 -2.62,5.09 -7.42,13.09 -14.55,24.3l-151.05 198.34 164.87 249.41c6.26,11.65 10.04,19.51 11.35,23.28 1.32,3.79 1.9,6.84 1.9,9.17zm572.89 0c0,3.21 -0.73,5.96 -2.33,8.3 -1.61,2.47 -4.51,4.36 -9.03,5.96 -4.36,1.6 -10.33,2.77 -18.04,3.64 -7.71,0.88 -17.32,1.31 -28.96,1.31 -18.48,0 -31.72,-0.73 -39.87,-2.18 -8.15,-1.31 -13.96,-3.5 -17.46,-6.4 -3.5,-2.77 -6.26,-6.26 -8.3,-10.19l-166.76 -261.93 0 261.93c0,3.06 -0.87,5.82 -2.62,8.15 -1.61,2.18 -4.65,4.22 -8.88,5.67 -4.22,1.6 -9.9,2.77 -17.02,3.64 -6.99,0.88 -16.16,1.31 -27.07,1.31 -10.77,0 -19.8,-0.43 -27.07,-1.31 -7.27,-0.87 -12.96,-2.04 -17.17,-3.64 -4.23,-1.6 -7.27,-3.5 -9.17,-5.67 -1.89,-2.33 -2.77,-5.09 -2.77,-8.15l0 -519.93c0,-3.21 0.88,-5.82 2.77,-8.15 1.9,-2.19 4.94,-4.08 9.17,-5.53 4.22,-1.45 9.9,-2.47 17.17,-3.35 7.27,-0.87 16.3,-1.31 27.07,-1.31 10.91,0 20.08,0.44 27.07,1.31 7.12,0.88 12.81,1.9 17.02,3.35 4.23,1.46 7.27,3.35 8.88,5.53 1.75,2.33 2.62,4.94 2.62,8.15l0 235.01 161.52 -234.58c2.04,-3.64 4.36,-6.69 7.27,-9.16 2.77,-2.48 6.55,-4.37 11.07,-5.82 4.5,-1.31 10.33,-2.33 17.46,-2.92 7.13,-0.58 16.15,-0.87 27.21,-0.87 11.36,0 20.67,0.44 28.09,1.31 7.42,0.88 13.24,2.04 17.75,3.64 4.36,1.46 7.42,3.5 9.02,5.68 1.75,2.33 2.63,4.79 2.63,7.71 0,4.79 -1.31,9.75 -3.79,14.98 -2.62,5.09 -7.42,13.09 -14.55,24.3l-151.05 198.34 164.87 249.41c6.26,11.65 10.04,19.51 11.35,23.28 1.32,3.79 1.9,6.84 1.9,9.17zm622.23 -25.17c3.35,10.19 5.52,18.33 6.4,24.3 0.87,5.96 -0.3,10.48 -3.36,13.53 -3.2,2.91 -8.73,4.79 -16.73,5.52 -7.86,0.73 -18.92,1.02 -32.74,1.02 -14.55,0 -25.9,-0.14 -33.9,-0.58 -8.15,-0.44 -14.26,-1.31 -18.63,-2.62 -4.23,-1.31 -7.13,-3.06 -8.88,-5.38 -1.75,-2.19 -3.2,-5.24 -4.22,-8.88l-36.24 -110.88 -208.09 0 -34.78 107.83c-1.16,4.08 -2.62,7.42 -4.5,10.04 -1.75,2.77 -4.8,4.8 -8.88,6.4 -4.08,1.61 -9.9,2.63 -17.46,3.21 -7.57,0.58 -17.46,0.87 -29.69,0.87 -13.09,0 -23.28,-0.43 -30.7,-1.31 -7.42,-0.87 -12.52,-2.91 -15.28,-6.11 -2.91,-3.35 -3.93,-8 -3.06,-13.96 0.88,-5.97 3.06,-13.82 6.4,-23.87l169.96 -489.67c1.61,-4.79 3.65,-8.73 5.97,-11.64 2.18,-3.06 5.81,-5.24 10.77,-6.84 5.09,-1.6 11.93,-2.62 20.81,-3.06 8.73,-0.43 20.38,-0.58 34.92,-0.58 16.74,0 30.13,0.15 40.02,0.58 10.04,0.44 17.75,1.46 23.28,3.06 5.52,1.6 9.46,3.94 11.93,6.99 2.33,3.2 4.51,7.42 6.11,12.81l170.55 489.23zm-253.21 -405.12l-0.43 0 -76.84 234.72 154.83 0 -77.56 -234.72zm824.93 281.29c0,19.65 -2.77,37.4 -8.15,53.41 -5.38,15.86 -12.81,29.98 -22.26,42.2 -9.6,12.22 -20.95,22.69 -34.05,31.57 -13.23,8.88 -27.79,16 -43.65,21.82 -15.86,5.67 -32.89,9.9 -50.93,12.52 -18.05,2.77 -38.13,4.08 -60.25,4.08l-146.53 0c-9.31,0 -17.17,-2.77 -23.57,-8.29 -6.4,-5.53 -9.61,-14.55 -9.61,-27.07l0 -481.09c0,-12.51 3.21,-21.54 9.61,-27.06 6.4,-5.53 14.26,-8.3 23.57,-8.3l138.24 0c33.76,0 62.28,2.92 85.71,8.59 23.42,5.67 43.07,14.26 59.08,25.75 16.15,11.5 28.38,26.05 36.82,43.66 8.58,17.61 12.81,38.27 12.81,62.14 0,13.38 -1.75,25.9 -5.09,37.69 -3.35,11.79 -8.44,22.55 -14.84,32.16 -6.55,9.75 -14.55,18.19 -24.16,25.61 -9.46,7.42 -20.23,13.38 -32.44,17.9 15.56,2.91 30.12,7.85 43.36,14.98 13.24,7.13 24.74,16.3 34.49,27.51 9.89,11.2 17.6,24.44 23.28,39.43 5.67,15.13 8.58,32.01 8.58,50.78zm-144.93 -232.53c0,-11.07 -1.75,-20.96 -5.09,-29.84 -3.35,-8.73 -8.44,-16.15 -15.28,-21.97 -6.83,-5.82 -15.42,-10.19 -25.75,-13.38 -10.34,-3.06 -24.16,-4.65 -41.47,-4.65l-56.47 0 0 143.19 62.43 0c16.15,0 29.11,-1.89 38.71,-5.82 9.61,-3.78 17.61,-9.02 24.01,-15.71 6.4,-6.69 11.06,-14.55 14.26,-23.43 3.06,-9.02 4.65,-18.33 4.65,-28.37zm28.82 236.61c0,-12.81 -2.19,-24.3 -6.4,-34.49 -4.23,-10.04 -10.48,-18.48 -18.78,-25.32 -8.15,-6.83 -18.63,-12.08 -31.43,-15.86 -12.81,-3.64 -29.39,-5.52 -49.91,-5.52l-66.35 0 0 157.16 80.91 0c15.57,0 28.67,-1.61 39.43,-4.95 10.63,-3.2 19.8,-8.14 27.65,-14.54 7.71,-6.4 13.82,-14.26 18.34,-23.87 4.36,-9.46 6.55,-20.37 6.55,-32.59zm745.18 119.76c3.35,10.19 5.52,18.33 6.4,24.3 0.87,5.96 -0.3,10.48 -3.36,13.53 -3.2,2.91 -8.73,4.79 -16.73,5.52 -7.86,0.73 -18.92,1.02 -32.74,1.02 -14.55,0 -25.9,-0.14 -33.9,-0.58 -8.15,-0.44 -14.26,-1.31 -18.63,-2.62 -4.23,-1.31 -7.13,-3.06 -8.88,-5.38 -1.75,-2.19 -3.2,-5.24 -4.22,-8.88l-36.24 -110.88 -208.09 0 -34.78 107.83c-1.16,4.08 -2.62,7.42 -4.5,10.04 -1.75,2.77 -4.8,4.8 -8.88,6.4 -4.08,1.61 -9.9,2.63 -17.46,3.21 -7.57,0.58 -17.46,0.87 -29.69,0.87 -13.09,0 -23.28,-0.43 -30.7,-1.31 -7.42,-0.87 -12.52,-2.91 -15.28,-6.11 -2.91,-3.35 -3.93,-8 -3.06,-13.96 0.88,-5.97 3.06,-13.82 6.4,-23.87l169.96 -489.67c1.61,-4.79 3.65,-8.73 5.97,-11.64 2.18,-3.06 5.81,-5.24 10.77,-6.84 5.09,-1.6 11.93,-2.62 20.81,-3.06 8.73,-0.43 20.38,-0.58 34.92,-0.58 16.74,0 30.13,0.15 40.02,0.58 10.04,0.44 17.75,1.46 23.28,3.06 5.52,1.6 9.46,3.94 11.93,6.99 2.33,3.2 4.51,7.42 6.11,12.81l170.55 489.23zm-253.21 -405.12l-0.43 0 -76.84 234.72 154.83 0 -77.56 -234.72zm880.81 407.6c0,6.54 -1.16,12.37 -3.35,17.6 -2.33,5.09 -5.38,9.32 -9.31,12.81 -3.79,3.35 -8.29,5.82 -13.53,7.42 -5.38,1.61 -10.62,2.33 -16,2.33l-47.88 0c-10.05,0 -18.63,-1.02 -25.91,-2.91 -7.12,-2.04 -13.82,-5.67 -19.93,-10.92 -6.26,-5.23 -12.09,-12.37 -17.76,-21.39 -5.67,-8.88 -12.08,-20.52 -19.21,-34.78l-136.93 -258c-8,-15.42 -16,-32.01 -24.3,-49.76 -8.29,-17.76 -15.57,-35.07 -22.11,-51.81l-0.88 0c1.17,20.52 2.04,40.89 2.63,61.27 0.58,20.23 0.87,41.32 0.87,62.86l0 288.86c0,2.76 -0.73,5.38 -2.33,7.71 -1.6,2.18 -4.36,4.08 -8.15,5.67 -3.79,1.6 -9.02,2.77 -15.57,3.64 -6.54,0.88 -14.98,1.31 -25.17,1.31 -10.04,0 -18.34,-0.43 -24.88,-1.31 -6.55,-0.87 -11.65,-2.04 -15.28,-3.64 -3.79,-1.46 -6.4,-3.5 -7.71,-5.67 -1.46,-2.33 -2.19,-4.95 -2.19,-7.71l0 -495.93c0,-13.38 3.94,-23.42 11.79,-30.13 7.72,-6.69 17.32,-10.04 28.82,-10.04l60.1 0c10.77,0 19.94,0.88 27.36,2.77 7.42,1.89 13.96,4.94 19.79,9.17 5.82,4.22 11.35,10.19 16.44,17.75 5.09,7.42 10.34,16.88 15.72,27.94l107.25 201.84c6.25,12.23 12.37,24.3 18.48,36.09 6.11,11.79 12.08,23.57 17.61,35.36 5.67,11.79 11.2,23.43 16.58,34.78 5.53,11.5 10.77,22.84 15.86,34.19l0.44 0c-0.87,-19.93 -1.6,-40.74 -2.04,-62.28 -0.44,-21.69 -0.58,-42.34 -0.58,-61.99l0 -259.02c0,-2.77 0.87,-5.38 2.62,-7.71 1.6,-2.19 4.51,-4.23 8.44,-5.96 4.08,-1.75 9.31,-2.92 15.86,-3.65 6.55,-0.72 14.99,-1.02 25.17,-1.02 9.75,0 17.9,0.3 24.45,1.02 6.54,0.73 11.5,1.9 15.13,3.65 3.5,1.74 6.11,3.78 7.42,5.96 1.46,2.33 2.18,4.8 2.18,7.71l0 495.93zm667.49 -2.48c3.35,10.19 5.52,18.33 6.4,24.3 0.87,5.96 -0.3,10.48 -3.36,13.53 -3.2,2.91 -8.73,4.79 -16.73,5.52 -7.86,0.73 -18.92,1.02 -32.74,1.02 -14.55,0 -25.9,-0.14 -33.9,-0.58 -8.15,-0.44 -14.26,-1.31 -18.63,-2.62 -4.23,-1.31 -7.13,-3.06 -8.88,-5.38 -1.75,-2.19 -3.2,-5.24 -4.22,-8.88l-36.24 -110.88 -208.09 0 -34.78 107.83c-1.16,4.08 -2.62,7.42 -4.5,10.04 -1.75,2.77 -4.8,4.8 -8.88,6.4 -4.08,1.61 -9.9,2.63 -17.46,3.21 -7.57,0.58 -17.46,0.87 -29.69,0.87 -13.09,0 -23.28,-0.43 -30.7,-1.31 -7.42,-0.87 -12.52,-2.91 -15.28,-6.11 -2.91,-3.35 -3.93,-8 -3.06,-13.96 0.88,-5.97 3.06,-13.82 6.4,-23.87l169.96 -489.67c1.61,-4.79 3.65,-8.73 5.97,-11.64 2.18,-3.06 5.81,-5.24 10.77,-6.84 5.09,-1.6 11.93,-2.62 20.81,-3.06 8.73,-0.43 20.38,-0.58 34.92,-0.58 16.74,0 30.13,0.15 40.02,0.58 10.04,0.44 17.75,1.46 23.28,3.06 5.52,1.6 9.46,3.94 11.93,6.99 2.33,3.2 4.51,7.42 6.11,12.81l170.55 489.23zm-253.21 -405.12l-0.43 0 -76.84 234.72 154.83 0 -77.56 -234.72zm655.85 427.39c-1.46,4.8 -3.21,8.73 -5.53,11.64 -2.33,3.06 -5.96,5.24 -11.06,6.84 -5.09,1.6 -12.08,2.62 -20.96,3.06 -8.73,0.44 -20.23,0.58 -34.49,0.58 -11.35,0 -21.1,0 -29.25,-0.14 -8.15,-0.15 -14.99,-0.59 -20.67,-1.17 -5.67,-0.58 -10.33,-1.46 -13.82,-2.48 -3.64,-1.16 -6.54,-2.62 -9.02,-4.36 -2.33,-1.6 -4.22,-3.78 -5.53,-6.1 -1.31,-2.48 -2.47,-5.53 -3.64,-9.17l-163.99 -489.24c-3.36,-10.33 -5.53,-18.33 -6.11,-24.3 -0.73,-5.96 0.58,-10.47 4.22,-13.52 3.5,-2.92 9.61,-4.8 18.05,-5.53 8.58,-0.73 20.52,-1.02 35.94,-1.02 13.09,0 23.28,0.29 30.7,0.87 7.42,0.59 13.09,1.61 17.03,2.92 3.93,1.45 6.83,3.64 8.29,6.4 1.6,2.91 3.06,6.4 4.51,10.77l134.02 425.64 0.44 0 131.84 -423.6c1.16,-4.8 2.62,-8.73 4.22,-11.65 1.75,-3.06 4.66,-5.38 8.88,-7.12 4.08,-1.61 10.04,-2.77 17.75,-3.36 7.57,-0.58 18.19,-0.87 31.58,-0.87 13.09,0 23.28,0.44 30.55,1.31 7.28,0.88 12.23,2.92 14.99,6.11 2.62,3.35 3.49,8 2.47,13.97 -0.87,5.96 -3.2,13.82 -6.54,23.86l-164.87 489.67zm742.43 -22.26c3.35,10.19 5.52,18.33 6.4,24.3 0.87,5.96 -0.3,10.48 -3.36,13.53 -3.2,2.91 -8.73,4.79 -16.73,5.52 -7.86,0.73 -18.92,1.02 -32.74,1.02 -14.55,0 -25.9,-0.14 -33.9,-0.58 -8.15,-0.44 -14.26,-1.31 -18.63,-2.62 -4.23,-1.31 -7.13,-3.06 -8.88,-5.38 -1.75,-2.19 -3.2,-5.24 -4.22,-8.88l-36.24 -110.88 -208.09 0 -34.78 107.83c-1.16,4.08 -2.62,7.42 -4.5,10.04 -1.75,2.77 -4.8,4.8 -8.88,6.4 -4.08,1.61 -9.9,2.63 -17.46,3.21 -7.57,0.58 -17.46,0.87 -29.69,0.87 -13.09,0 -23.28,-0.43 -30.7,-1.31 -7.42,-0.87 -12.52,-2.91 -15.28,-6.11 -2.91,-3.35 -3.93,-8 -3.06,-13.96 0.88,-5.97 3.06,-13.82 6.4,-23.87l169.96 -489.67c1.61,-4.79 3.65,-8.73 5.97,-11.64 2.18,-3.06 5.81,-5.24 10.77,-6.84 5.09,-1.6 11.93,-2.62 20.81,-3.06 8.73,-0.43 20.38,-0.58 34.92,-0.58 16.74,0 30.13,0.15 40.02,0.58 10.04,0.44 17.75,1.46 23.28,3.06 5.52,1.6 9.46,3.94 11.93,6.99 2.33,3.2 4.51,7.42 6.11,12.81l170.55 489.23zm-253.21 -405.12l-0.43 0 -76.84 234.72 154.83 0 -77.56 -234.72zm835.41 432.48c0,3.06 -0.58,5.67 -1.75,7.85 -1.16,2.19 -3.78,3.94 -8,5.38 -4.36,1.32 -10.48,2.34 -18.77,2.92 -8.3,0.58 -19.5,0.87 -33.62,0.87 -11.93,0 -21.39,-0.29 -28.52,-0.87 -7.13,-0.58 -12.81,-1.6 -16.88,-3.21 -4.08,-1.6 -6.98,-3.49 -8.73,-5.96 -1.6,-2.48 -3.06,-5.38 -4.23,-8.73l-49.76 -123.55c-5.96,-13.96 -11.79,-26.48 -17.46,-37.25 -5.67,-10.92 -12.08,-19.94 -19.07,-27.22 -6.98,-7.27 -15.13,-12.66 -24.3,-16.44 -9.02,-3.64 -19.64,-5.52 -31.57,-5.52l-35.07 0 0 210.85c0,2.77 -0.87,5.38 -2.77,7.57 -1.89,2.33 -4.94,4.22 -9.17,5.67 -4.22,1.31 -9.89,2.48 -17.02,3.35 -6.98,0.88 -16.15,1.31 -27.07,1.31 -10.77,0 -19.79,-0.43 -27.07,-1.31 -7.27,-0.87 -12.95,-2.04 -17.17,-3.35 -4.22,-1.46 -7.27,-3.35 -8.87,-5.53 -1.75,-2.33 -2.63,-4.94 -2.63,-7.71l0 -501.16c0,-12.51 3.21,-21.54 9.61,-27.06 6.4,-5.53 14.26,-8.3 23.57,-8.3l142.9 0c14.41,0 26.49,0.29 35.8,0.88 9.31,0.58 17.9,1.31 25.61,2.04 22.12,3.2 42.05,8.58 59.81,16.29 17.75,7.57 32.88,17.61 45.26,29.98 12.37,12.38 21.82,26.93 28.37,43.81 6.55,16.87 9.76,36.23 9.76,58.2 0,18.34 -2.34,35.21 -6.99,50.35 -4.79,15.27 -11.64,28.81 -20.81,40.74 -9.02,11.93 -20.23,22.26 -33.61,30.99 -13.39,8.88 -28.67,15.86 -45.7,21.39 8.3,3.94 16.01,8.74 23.28,14.41 7.28,5.67 14.11,12.66 20.52,20.81 6.4,8.15 12.52,17.32 18.19,27.8 5.67,10.33 11.21,22.11 16.59,35.21l46.72 108.99c4.22,10.77 7.12,18.63 8.44,23.72 1.45,4.94 2.18,8.87 2.18,11.79zm-144.93 -374.71c0,-18.19 -4.08,-33.61 -12.37,-45.99 -8.3,-12.52 -21.83,-21.39 -40.6,-26.48 -5.67,-1.46 -12.08,-2.48 -19.36,-3.35 -7.27,-0.88 -17.31,-1.31 -30.12,-1.31l-50.35 0 0 156.28 57.18 0c16.01,0 29.84,-1.89 41.77,-5.82 12.08,-3.78 21.96,-9.16 29.98,-16.15 8,-6.83 13.96,-15.27 17.9,-24.88 3.93,-9.6 5.96,-20.38 5.96,-32.3zm774.29 347.35c3.35,10.19 5.52,18.33 6.4,24.3 0.87,5.96 -0.3,10.48 -3.36,13.53 -3.2,2.91 -8.73,4.79 -16.73,5.52 -7.86,0.73 -18.92,1.02 -32.74,1.02 -14.55,0 -25.9,-0.14 -33.9,-0.58 -8.15,-0.44 -14.26,-1.31 -18.63,-2.62 -4.23,-1.31 -7.13,-3.06 -8.88,-5.38 -1.75,-2.19 -3.2,-5.24 -4.22,-8.88l-36.24 -110.88 -208.09 0 -34.78 107.83c-1.16,4.08 -2.62,7.42 -4.5,10.04 -1.75,2.77 -4.8,4.8 -8.88,6.4 -4.08,1.61 -9.9,2.63 -17.46,3.21 -7.57,0.58 -17.46,0.87 -29.69,0.87 -13.09,0 -23.28,-0.43 -30.7,-1.31 -7.42,-0.87 -12.52,-2.91 -15.28,-6.11 -2.91,-3.35 -3.93,-8 -3.06,-13.96 0.88,-5.97 3.06,-13.82 6.4,-23.87l169.96 -489.67c1.61,-4.79 3.65,-8.73 5.97,-11.64 2.18,-3.06 5.81,-5.24 10.77,-6.84 5.09,-1.6 11.93,-2.62 20.81,-3.06 8.73,-0.43 20.38,-0.58 34.92,-0.58 16.74,0 30.13,0.15 40.02,0.58 10.04,0.44 17.75,1.46 23.28,3.06 5.52,1.6 9.46,3.94 11.93,6.99 2.33,3.2 4.51,7.42 6.11,12.81l170.55 489.23zm-253.21 -405.12l-0.43 0 -76.84 234.72 154.83 0 -77.56 -234.72z"></path>
  </g>
 </g>
</svg>
