<svg width="25" height="25" viewBox="0 0 25 25" fill="none" xmlns="http://www.w3.org/2000/svg">
<rect width="25" height="25" rx="12.5" fill="#185850"/>
<g clip-path="url(#clip0_208_4666)">
<path d="M11.733 17.0692C11.8193 16.4085 12.1348 15.7942 12.593 15.3128C12.6893 15.7942 12.8453 16.2657 13.0578 16.714C12.6627 16.9862 12.2078 17.1323 11.723 17.139C11.7297 17.1157 11.7297 17.0925 11.733 17.0692ZM14.1203 14.7052C14.1203 14.6222 14.117 14.5425 14.1104 14.4661C13.682 14.5657 13.2703 14.755 12.925 15.0272C13.0014 15.5253 13.1508 16.0067 13.3633 16.4683C13.8447 16.0101 14.1203 15.3792 14.1203 14.7052ZM14.4789 14.4063C14.5818 15.3128 14.2199 16.2192 13.5359 16.8136C13.5758 16.8899 13.6189 16.963 13.6621 17.036C14.4789 16.0665 15.5746 15.3991 16.8064 15.1235C16.1723 14.579 15.3189 14.3134 14.4789 14.4063ZM14.2166 19.337C14.2166 19.7753 14.3328 20.2003 14.5553 20.5722C15.382 20.6386 16.2287 20.3563 16.8463 19.8118C15.9266 19.5794 15.0832 19.1212 14.376 18.477C14.273 18.7493 14.2166 19.0349 14.2166 19.337ZM16.6504 16.9032C15.7705 16.9032 14.977 17.3681 14.542 18.1218C15.2725 18.819 16.1689 19.2938 17.1518 19.503C17.6863 18.8821 17.9553 18.052 17.8855 17.2419C17.5137 17.0194 17.0887 16.9032 16.6504 16.9032ZM14.273 17.8429C14.977 16.6708 16.5773 16.1927 17.8158 16.7804C17.6996 16.2823 17.4605 15.8208 17.1219 15.439C15.8436 15.6681 14.7014 16.3454 13.8779 17.3581C14.0041 17.5274 14.1336 17.6868 14.273 17.8429ZM14.0871 18.1981C13.9277 18.0321 13.7783 17.8561 13.6422 17.6735C13.1973 18.311 12.8918 19.0448 12.7523 19.8052C13.1109 20.1405 13.609 20.3895 14.0938 20.4991C13.765 19.7886 13.7584 18.912 14.0871 18.1981ZM13.2338 17.046C12.7789 17.3481 12.2543 17.5075 11.7031 17.5108C11.7098 18.2446 11.9654 18.9352 12.4369 19.4864C12.6096 18.7161 12.9482 17.9856 13.4164 17.3448C13.3566 17.2519 13.2936 17.1489 13.2338 17.046ZM17.9121 10.7507C16.2287 10.7507 14.8574 9.37939 14.8574 7.69599C15.0234 3.64189 20.8008 3.64521 20.9668 7.69599C20.9668 9.37939 19.5955 10.7507 17.9121 10.7507ZM17.7229 5.50458C17.7229 5.75029 18.098 5.75029 18.098 5.50458V5.17255C18.098 5.0663 18.015 4.98662 17.9121 4.98662C17.8092 4.98662 17.7262 5.06962 17.7262 5.17255V5.50458H17.7229ZM15.91 7.69599C15.91 7.58974 15.827 7.51005 15.724 7.51005H15.3887C15.2857 7.51005 15.2027 7.59306 15.2027 7.69599C15.2027 7.79892 15.2857 7.88193 15.3887 7.88193H15.7207C15.8236 7.88525 15.91 7.79892 15.91 7.69599ZM18.098 9.8874C18.0947 9.64169 17.7295 9.64169 17.7229 9.8874V10.2194C17.7229 10.3257 17.8059 10.4054 17.9088 10.4054C18.015 10.4054 18.0947 10.3224 18.0947 10.2194V9.8874H18.098ZM18.2309 7.69599C18.2309 7.54658 18.1312 7.42373 17.9918 7.3872L17.258 5.54775C17.2215 5.45146 17.1086 5.40498 17.0156 5.4415C16.9193 5.47802 16.8729 5.59091 16.9094 5.68388L17.6432 7.52333C17.6033 7.58642 17.5834 7.66943 17.5967 7.74912L16.6869 8.68876C16.6139 8.76513 16.6172 8.88134 16.6902 8.95107C16.7633 9.02412 16.8861 9.0208 16.9525 8.94775L17.8623 8.00478C18.0549 8.04462 18.2309 7.88193 18.2309 7.69599ZM20.1035 7.88525H20.4355C20.6812 7.88193 20.6812 7.51337 20.4355 7.51005H20.1035C19.8578 7.51005 19.8578 7.88193 20.1035 7.88525ZM5.44766 11.9427C5.44434 11.6936 5.07246 11.6936 5.06914 11.9427C5.07246 12.4108 5.11562 12.8757 5.19863 13.3272C5.21855 13.4302 5.31816 13.4933 5.42109 13.48C5.52402 13.4601 5.59043 13.3604 5.57383 13.2575C5.49082 12.8259 5.45098 12.3843 5.44766 11.9427ZM10.6572 18.8157C10.2355 18.6962 9.82051 18.5368 9.42539 18.3409C9.19961 18.2347 9.03691 18.5667 9.25605 18.6796C9.67109 18.8854 10.1094 19.0548 10.5543 19.181C10.6539 19.2042 10.7602 19.1511 10.79 19.0515C10.8166 18.9485 10.7602 18.8456 10.6572 18.8157ZM10.5775 5.05302C11.0191 4.94345 11.4707 4.8372 11.9256 4.80068C12.1713 4.77744 12.1381 4.3956 11.8891 4.42216C11.4275 4.46533 10.966 4.55166 10.5244 4.68115C10.4248 4.71103 10.365 4.81728 10.3949 4.91689C10.4182 4.9999 10.4945 5.05302 10.5775 5.05302ZM7.32363 16.7571C7.15762 16.5745 6.87871 16.8302 7.04141 17.0128C7.35352 17.3548 7.70215 17.6702 8.0707 17.9491C8.10391 17.9724 8.14375 17.9856 8.18359 17.9856C8.35625 17.9923 8.44258 17.7466 8.29648 17.6436C7.95117 17.3813 7.62246 17.0825 7.32363 16.7571ZM13.2471 4.79736C13.6887 4.83388 14.1236 4.91357 14.5453 5.0331C14.7844 5.09287 14.8873 4.74091 14.6482 4.66787C14.2033 4.54169 13.7418 4.45869 13.2803 4.41884C13.1773 4.40888 13.0844 4.48525 13.0744 4.58818C13.0645 4.69443 13.1408 4.7874 13.2471 4.79736ZM5.93574 14.5259C5.84609 14.2968 5.49414 14.4329 5.58379 14.6653C5.75313 15.097 5.9623 15.5153 6.20469 15.9071C6.24121 15.9636 6.3043 15.9968 6.36738 15.9968C6.51348 16.0001 6.60977 15.8274 6.53008 15.7079C6.29434 15.3327 6.09512 14.9343 5.93574 14.5259ZM19.9574 11.7069C19.8412 11.7069 19.7549 11.8132 19.7682 11.9261C19.7682 12.3677 19.7283 12.8093 19.6453 13.2409C19.6221 13.3538 19.715 13.47 19.8346 13.4634C19.9242 13.4634 20.0039 13.4003 20.0205 13.3106C20.1035 12.8558 20.1467 12.3909 20.1467 11.9261C20.16 11.8132 20.0736 11.7069 19.9574 11.7069ZM19.5324 14.403C19.4328 14.3665 19.3232 14.413 19.2867 14.5126C19.1307 14.921 18.9314 15.3194 18.699 15.6946C18.6193 15.8175 18.7156 15.9868 18.8617 15.9835C18.9248 15.9835 18.9879 15.9503 19.0244 15.8938C19.2701 15.4987 19.4793 15.0804 19.6453 14.6487C19.6785 14.5491 19.6287 14.4395 19.5324 14.403ZM5.53066 5.56103C6.13496 5.80009 6.73926 6.03916 7.34688 6.27822L7.51953 6.30146L7.53281 6.21181C7.43652 6.20517 7.33691 6.24833 7.25059 6.18857C6.68945 5.81005 6.05527 5.53779 5.39453 5.38505C5.36133 5.41494 5.33145 5.44482 5.29824 5.47138C5.35469 5.4913 5.47422 5.53779 5.53066 5.56103ZM9.16641 6.27822L10.2289 6.17197C10.2057 6.14541 10.1857 6.11552 10.1725 6.08896C9.51172 6.05576 8.85098 6.13544 8.22344 6.32802C8.11055 6.36123 8.01426 6.27822 7.90469 6.26162L7.89141 6.35791L8.11055 6.38779L9.16641 6.27822ZM7.89805 6.7331L7.45645 6.67333C7.31367 7.70927 7.0248 9.79443 6.87871 10.8304L7.31699 10.8935L7.89805 6.7331ZM10.7668 6.49404L10.9262 6.47744L10.3484 10.6245L7.69551 10.8935C7.80176 10.1364 8.17031 7.45361 8.27324 6.74638C8.89082 6.6833 10.1559 6.5538 10.7668 6.49404ZM10.7336 7.10498C10.7502 6.98876 10.6473 6.87919 10.5311 6.89248L8.47578 7.10166C8.38945 7.1083 8.32305 7.17802 8.30977 7.26103L8.15371 8.37666C8.13379 8.48955 8.24336 8.60576 8.35625 8.58915L10.4115 8.37998C10.4979 8.37333 10.5676 8.30361 10.5775 8.2206L10.7336 7.10498ZM6.51348 10.7274L4.0332 9.74794L4.61094 5.60087C4.61426 5.60419 4.75371 5.654 4.75371 5.65732C5.0459 5.77021 6.76582 6.45419 7.09121 6.58037L6.51348 10.7274ZM6.51016 8.33349C6.61641 8.37998 6.74922 8.30029 6.7625 8.18408L6.91855 7.06513C6.93184 6.98212 6.88203 6.89912 6.80234 6.86591L4.87988 6.10888C4.77363 6.06572 4.64082 6.13876 4.62422 6.2583L4.46816 7.37724C4.4582 7.46357 4.50469 7.54658 4.58438 7.57646L6.51016 8.33349ZM4.85996 7.28095L6.42383 7.89853L6.52676 7.16474L4.96289 6.54384L4.85996 7.28095ZM8.55547 8.19404L10.2289 8.0247L10.3285 7.29091L8.65508 7.46025L8.55547 8.19404Z" fill="white"/>
</g>
<defs>
<clipPath id="clip0_208_4666">
<rect width="17" height="17" fill="white" transform="translate(4 4)"/>
</clipPath>
</defs>
</svg>
