<svg width="198" height="61" viewBox="0 0 198 61" fill="none" xmlns="http://www.w3.org/2000/svg">
<g id="_3074400787568">
<path id="Vector" fill-rule="evenodd" clip-rule="evenodd" d="M6.07938 28.9461C6.07938 16.4896 16.1772 6.39169 28.6335 6.39169C29.6755 6.39169 30.7009 6.46235 31.7052 6.59921C32.9818 6.97683 33.9564 8.09663 34.1654 9.47917C34.193 9.66116 34.2073 9.8476 34.2073 10.0373C34.2073 10.2237 34.1936 10.4069 34.1669 10.5859L34.1699 12.7623V13.0236L6.07938 29.0613C6.07909 29.023 6.07909 28.9847 6.07909 28.9461H6.07938ZM34.1702 19.7115C34.1702 26.317 34.1203 32.9292 34.1203 39.5305C34.1203 43.6048 36.6357 47.0498 40.094 48.1811V46.5789V30.8802V9.51628V2.48216C36.5303 0.887055 32.5804 0 28.423 0C13.6978 0 1.57224 11.1301 0 25.4364L6.07938 28.9461L0.0798573 32.41C1.94482 46.3993 13.9237 57.1907 28.423 57.1907C32.5801 57.1907 36.53 56.3036 40.094 54.7085V48.3762C36.7355 50.3614 32.8176 51.5005 28.6335 51.5005C19.7412 51.5005 12.051 46.3545 8.37807 38.878C8.17383 38.3638 8.06131 37.8006 8.06131 37.2105C8.06131 35.3268 9.20784 33.7204 10.8178 33.0991L34.1702 19.7118V19.7115Z" fill="#185850"/>
<path id="Vector_2" fill-rule="evenodd" clip-rule="evenodd" d="M40.0942 9.51675C46.7347 13.442 51.1884 20.6742 51.1884 28.9465C51.1884 37.1468 46.8122 44.3252 40.2676 48.273L45.8874 51.2406C52.6582 46.0112 57.019 37.8127 57.019 28.5956C57.019 19.443 52.7188 11.2944 46.0287 6.06055L40.0945 9.51675H40.0942Z" fill="#2D945C"/>
<path id="Vector_3" d="M70.6849 26.2816L69.7749 23.7053H63.893L63.0341 26.2816H59.9873L64.9967 11.9684H68.4933L73.544 26.2816H70.6849ZM64.813 21.0676H68.8413L66.7762 15.2198L64.8133 21.0676H64.813ZM79.3922 26.5681C77.852 26.5681 76.5671 26.05 75.5379 25.0139C74.5086 23.9778 73.9941 22.6965 73.9941 21.1697C73.9941 19.6429 74.5086 18.3616 75.5379 17.3258C76.5671 16.2897 77.8517 15.7716 79.3922 15.7716C80.3873 15.7716 81.2939 16.0103 82.1118 16.4874C82.9297 16.9645 83.5499 17.6051 83.9726 18.4094L81.703 19.7385C81.4985 19.316 81.1885 18.982 80.7726 18.7365C80.357 18.4913 79.89 18.3684 79.372 18.3684C78.5814 18.3684 77.9271 18.6308 77.409 19.1557C76.891 19.6806 76.6321 20.3518 76.6321 21.1697C76.6321 21.9739 76.891 22.6386 77.409 23.1635C77.9271 23.6881 78.5814 23.9505 79.372 23.9505C79.9037 23.9505 80.3775 23.8312 80.7931 23.5928C81.2087 23.3544 81.519 23.0237 81.7235 22.6009L84.0136 23.9095C83.5638 24.7138 82.93 25.3577 82.1121 25.8419C81.2942 26.3258 80.3876 26.5678 79.3925 26.5678L79.3922 26.5681ZM93.0101 16.0581H95.6478V26.2819H93.0101V25.0754C92.2192 26.0705 91.1083 26.5681 89.6771 26.5681C88.3138 26.5681 87.1447 26.0465 86.1704 25.0038C85.1958 23.9609 84.7086 22.6829 84.7086 21.1697C84.7086 19.6568 85.1958 18.3788 86.1704 17.3359C87.145 16.293 88.3138 15.7716 89.6771 15.7716C91.1083 15.7716 92.2192 16.2692 93.0101 17.2643V16.0578V16.0581ZM88.1434 23.2454C88.6751 23.784 89.3499 24.0532 90.1678 24.0532C90.9857 24.0532 91.6637 23.784 92.2023 23.2454C92.7408 22.7069 93.0101 22.0152 93.0101 21.17C93.0101 20.3251 92.7408 19.6331 92.2023 19.0946C91.6637 18.5563 90.9857 18.2871 90.1678 18.2871C89.3499 18.2871 88.6751 18.5563 88.1434 19.0946C87.6117 19.6331 87.346 20.3248 87.346 21.17C87.346 22.0152 87.6117 22.7069 88.1434 23.2454ZM105.79 11.9687H108.427V26.2819H105.79V25.0754C105.012 26.0705 103.908 26.5681 102.477 26.5681C101.1 26.5681 99.9245 26.0465 98.9499 25.0038C97.9753 23.9609 97.4881 22.6829 97.4881 21.1697C97.4881 19.6568 97.9753 18.3788 98.9499 17.3359C99.9245 16.293 101.1 15.7716 102.477 15.7716C103.908 15.7716 105.012 16.2692 105.79 17.2643V11.9684V11.9687ZM100.933 23.2454C101.472 23.784 102.15 24.0532 102.968 24.0532C103.786 24.0532 104.46 23.784 104.992 23.2454C105.524 22.7069 105.79 22.0152 105.79 21.17C105.79 20.3251 105.524 19.6331 104.992 19.0946C104.46 18.5563 103.786 18.2871 102.968 18.2871C102.15 18.2871 101.472 18.5563 100.933 19.0946C100.395 19.6331 100.126 20.3248 100.126 21.17C100.126 22.0152 100.395 22.7069 100.933 23.2454ZM113.069 22.2536C113.423 23.5349 114.384 24.1758 115.952 24.1758C116.96 24.1758 117.724 23.835 118.242 23.1534L120.368 24.3804C119.359 25.8389 117.874 26.5684 115.911 26.5684C114.22 26.5684 112.864 26.0571 111.842 25.0347C110.819 24.0126 110.308 22.7244 110.308 21.1703C110.308 19.6298 110.812 18.3452 111.821 17.316C112.83 16.2867 114.125 15.7722 115.706 15.7722C117.206 15.7722 118.443 16.2903 119.418 17.3264C120.392 18.3625 120.879 19.6438 120.879 21.1703C120.879 21.5111 120.845 21.8724 120.777 22.2539H113.069V22.2536ZM113.028 20.209H118.242C118.092 19.5137 117.782 18.9957 117.312 18.6552C116.841 18.3144 116.306 18.144 115.707 18.144C114.998 18.144 114.412 18.3245 113.948 18.6858C113.485 19.0471 113.178 19.5547 113.028 20.209ZM134.027 15.7719C135.199 15.7719 136.137 16.1537 136.838 16.917C137.541 17.6802 137.891 18.7027 137.891 19.984V26.2816H135.254V20.1677C135.254 19.5541 135.104 19.0773 134.804 18.7365C134.504 18.3957 134.081 18.2253 133.536 18.2253C132.936 18.2253 132.469 18.423 132.135 18.8182C131.801 19.2136 131.635 19.7863 131.635 20.5359V26.2816H128.997V20.1677C128.997 19.5541 128.847 19.0773 128.547 18.7365C128.247 18.3957 127.824 18.2253 127.279 18.2253C126.693 18.2253 126.226 18.423 125.878 18.8182C125.531 19.2136 125.357 19.7863 125.357 20.5359V26.2816H122.719V16.0578H125.357V17.1414C125.97 16.2282 126.918 15.7713 128.199 15.7713C129.453 15.7713 130.38 16.2621 130.98 17.2435C131.662 16.2621 132.677 15.7713 134.027 15.7713L134.027 15.7719ZM141.449 14.8314C141.013 14.8314 140.635 14.6711 140.315 14.3508C139.994 14.0305 139.834 13.652 139.834 13.2159C139.834 12.7797 139.994 12.398 140.315 12.0708C140.635 11.7437 141.013 11.5801 141.449 11.5801C141.899 11.5801 142.285 11.7437 142.605 12.0708C142.925 12.398 143.085 12.7797 143.085 13.2159C143.085 13.652 142.925 14.0305 142.605 14.3508C142.285 14.6711 141.899 14.8314 141.449 14.8314ZM140.141 26.2819V16.0581H142.779V26.2819H140.141ZM150.058 26.5684C148.517 26.5684 147.233 26.0503 146.203 25.0142C145.174 23.9781 144.66 22.6968 144.66 21.17C144.66 19.6432 145.174 18.3619 146.203 17.3261C147.233 16.29 148.517 15.7719 150.058 15.7719C151.053 15.7719 151.959 16.0106 152.777 16.4877C153.595 16.9648 154.215 17.6054 154.638 18.4097L152.368 19.7388C152.164 19.3163 151.854 18.9823 151.438 18.7368C151.022 18.4916 150.555 18.3687 150.037 18.3687C149.247 18.3687 148.593 18.6311 148.075 19.156C147.556 19.6809 147.298 20.3521 147.298 21.17C147.298 21.9742 147.556 22.6389 148.075 23.1638C148.593 23.6884 149.247 23.9508 150.037 23.9508C150.569 23.9508 151.043 23.8315 151.459 23.5931C151.874 23.3547 152.184 23.024 152.389 22.6012L154.679 23.9099C154.229 24.7141 153.595 25.358 152.777 25.8422C151.959 26.3261 151.053 26.5681 150.058 26.5681V26.5684Z" fill="#185850"/>
<path id="Vector_4" d="M65.4598 0.160446V1.48807H63.5589V7.20081H62.1711V1.48807H60.2803V0.160446H65.4598ZM68.9698 2.03106C69.5196 2.03106 69.9738 2.21541 70.3324 2.58413C70.691 2.95285 70.8707 3.46229 70.8707 4.11274V7.20023H69.5733V4.27364C69.5733 3.93817 69.4828 3.68197 69.3017 3.50415C69.1206 3.32662 68.8792 3.23754 68.5776 3.23754C68.2421 3.23754 67.9741 3.34145 67.7731 3.54926C67.5718 3.75707 67.4712 4.06879 67.4712 4.48471V7.20023H66.1738V0.160156H67.4712V2.73464C67.7861 2.26528 68.2858 2.03075 68.9698 2.03075V2.03106ZM73.0732 5.21917C73.2474 5.84944 73.7203 6.16472 74.4913 6.16472C74.9874 6.16472 75.3629 5.99699 75.6177 5.66182L76.6635 6.26507C76.1675 6.98262 75.4366 7.34124 74.4711 7.34124C73.6399 7.34124 72.9725 7.08978 72.4696 6.58688C71.9667 6.08398 71.7153 5.45044 71.7153 4.68599C71.7153 3.92837 71.9631 3.29633 72.4595 2.79016C72.9556 2.28369 73.5927 2.03075 74.3705 2.03075C75.1079 2.03075 75.7165 2.28547 76.1957 2.7952C76.6751 3.30464 76.9147 3.9349 76.9147 4.68599C76.9147 4.85372 76.8981 5.03126 76.8645 5.21888H73.0729L73.0732 5.21917ZM73.053 4.21337H75.6177C75.544 3.87137 75.3914 3.61666 75.1599 3.44922C74.9286 3.28149 74.6656 3.19776 74.3705 3.19776C74.022 3.19776 73.7334 3.28683 73.5054 3.46436C73.2774 3.64189 73.1266 3.89186 73.053 4.21367V4.21337Z" fill="#185850"/>
<path id="Vector_5" d="M65.0738 45.5877C63.6562 45.5877 62.4634 45.2709 61.4956 44.6368C60.5278 44.003 59.8461 43.1409 59.4507 42.0502L61.8634 40.6394C62.4224 42.098 63.5196 42.8274 65.1554 42.8274C65.946 42.8274 66.5255 42.6843 66.8933 42.3981C67.2614 42.1119 67.4455 41.7506 67.4455 41.3145C67.4455 40.8101 67.2205 40.4182 66.7707 40.1389C66.3209 39.8595 65.5167 39.5561 64.3577 39.229C63.7171 39.0381 63.1753 38.8475 62.7323 38.6566C62.2891 38.4657 61.8462 38.2101 61.4032 37.8898C60.9603 37.5694 60.6227 37.1639 60.3912 36.6732C60.1593 36.1824 60.0435 35.6101 60.0435 34.9558C60.0435 33.6608 60.5037 32.6283 61.4237 31.8582C62.344 31.0881 63.4514 30.7027 64.7463 30.7027C65.905 30.7027 66.9239 30.9857 67.8032 31.5515C68.6826 32.1173 69.3675 32.9044 69.8582 33.9131L67.4865 35.2832C66.9138 34.0565 66.0006 33.4432 64.7463 33.4432C64.1603 33.4432 63.7001 33.5762 63.3662 33.8419C63.0322 34.1076 62.8653 34.452 62.8653 34.8744C62.8653 35.3242 63.0527 35.6887 63.4276 35.9684C63.8026 36.2477 64.5216 36.5512 65.5847 36.8783C66.0208 37.0146 66.3515 37.1203 66.5766 37.1951C66.8013 37.2702 67.1082 37.386 67.4966 37.5427C67.8852 37.6995 68.185 37.8458 68.3961 37.9824C68.6075 38.1187 68.8494 38.3027 69.1219 38.5343C69.3945 38.7661 69.6026 39.0045 69.7457 39.25C69.8888 39.4953 70.0114 39.7918 70.1138 40.1395C70.2159 40.4871 70.2673 40.8653 70.2673 41.2741C70.2673 42.5964 69.7866 43.6461 68.8257 44.4231C67.8647 45.2 66.614 45.5886 65.0735 45.5886L65.0738 45.5877ZM77.1375 45.5877C75.5971 45.5877 74.3125 45.0697 73.2832 44.0339C72.254 42.9978 71.7395 41.7165 71.7395 40.1899C71.7395 38.6631 72.254 37.3818 73.2832 36.3457C74.3125 35.3099 75.5971 34.7919 77.1375 34.7919C78.1327 34.7919 79.039 35.0306 79.8569 35.5076C80.6748 35.9847 81.295 36.6254 81.7177 37.4296L79.4481 38.7587C79.2436 38.336 78.9336 38.0023 78.5177 37.7568C78.1021 37.5115 77.6351 37.3886 77.1171 37.3886C76.3265 37.3886 75.6722 37.6511 75.1541 38.176C74.6364 38.7008 74.3772 39.3721 74.3772 40.1899C74.3772 40.9942 74.6361 41.6586 75.1541 42.1834C75.6722 42.7083 76.3265 42.9708 77.1171 42.9708C77.6488 42.9708 78.1223 42.8514 78.5382 42.6127C78.9538 42.374 79.264 42.0436 79.4686 41.6209L81.7587 42.9295C81.3089 43.7337 80.6751 44.3776 79.8569 44.8618C79.039 45.3458 78.1327 45.5877 77.1375 45.5877ZM88.8332 34.7916C89.9509 34.7916 90.8745 35.1665 91.6039 35.9161C92.3333 36.6658 92.6979 37.7018 92.6979 39.0241V45.3012H90.0602V39.351C90.0602 38.6693 89.8761 38.148 89.5083 37.7867C89.1402 37.4254 88.6494 37.2449 88.0361 37.2449C87.3545 37.2449 86.8091 37.4563 86.4003 37.8788C85.9915 38.3015 85.787 38.9354 85.787 39.7806V45.3012H83.1492V30.9883H85.787V36.2228C86.4276 35.2687 87.4432 34.7916 88.8335 34.7916H88.8332ZM103.658 44.0235C102.608 45.0664 101.327 45.5877 99.8137 45.5877C98.3005 45.5877 97.0224 45.0664 95.9798 44.0235C94.9369 42.9806 94.4156 41.7028 94.4156 40.1896C94.4156 38.6765 94.9369 37.3984 95.9798 36.3558C97.0227 35.3129 98.3005 34.7916 99.8137 34.7916C101.327 34.7916 102.608 35.3129 103.658 36.3558C104.707 37.3987 105.232 38.6765 105.232 40.1896C105.232 41.7025 104.707 42.9806 103.658 44.0235ZM97.8403 42.214C98.3652 42.7457 99.0228 43.0114 99.8134 43.0114C100.604 43.0114 101.265 42.7457 101.797 42.214C102.328 41.6823 102.594 41.0075 102.594 40.1896C102.594 39.3717 102.328 38.697 101.797 38.1653C101.265 37.6336 100.604 37.3679 99.8134 37.3679C99.0228 37.3679 98.3649 37.6336 97.8403 38.1653C97.3155 38.697 97.053 39.3717 97.053 40.1896C97.053 41.0075 97.3155 41.6823 97.8403 42.214ZM115.803 44.0235C114.754 45.0664 113.472 45.5877 111.959 45.5877C110.446 45.5877 109.168 45.0664 108.126 44.0235C107.083 42.9806 106.561 41.7028 106.561 40.1896C106.561 38.6765 107.083 37.3984 108.126 36.3558C109.168 35.3129 110.446 34.7916 111.959 34.7916C113.472 34.7916 114.754 35.3129 115.803 36.3558C116.853 37.3987 117.378 38.6765 117.378 40.1896C117.378 41.7025 116.853 42.9806 115.803 44.0235ZM109.986 42.214C110.511 42.7457 111.168 43.0114 111.959 43.0114C112.75 43.0114 113.411 42.7457 113.942 42.214C114.474 41.6823 114.74 41.0075 114.74 40.1896C114.74 39.3717 114.474 38.697 113.942 38.1653C113.411 37.6336 112.75 37.3679 111.959 37.3679C111.168 37.3679 110.511 37.6336 109.986 38.1653C109.461 38.697 109.199 39.3717 109.199 40.1896C109.199 41.0075 109.461 41.6823 109.986 42.214ZM119.238 45.3015V30.375H121.876V45.3015H119.238Z" fill="#185850"/>
<path id="Vector_6" d="M59.9875 49.8965H166.135V50.5077H59.9875V49.8965Z" fill="#185850"/>
<path id="Vector_7" d="M65.1404 60.8549L64.5589 59.273H61.0507L60.4729 60.8549H59L61.9935 53.001H63.6198L66.6014 60.8549H65.1399H65.1404ZM61.4987 58.0609H64.113L62.8089 54.5155L61.4987 58.0609ZM71.7996 55.0988C72.4755 55.0988 73.0215 55.3045 73.4377 55.7159C73.8539 56.1272 74.0623 56.692 74.0623 57.4101V60.8544H72.7896V57.5333C72.7896 57.1146 72.6715 56.7926 72.436 56.5684C72.2004 56.3441 71.8781 56.2318 71.4696 56.2318C71.0221 56.2318 70.6603 56.3647 70.3852 56.6299C70.1102 56.8952 69.9726 57.3012 69.9726 57.8474V60.8544H68.6999V53.0005H69.9726V55.9626C70.3575 55.3866 70.9667 55.0983 71.7996 55.0983V55.0988ZM83.1612 55.0988C83.8289 55.0988 84.3672 55.3045 84.7757 55.7159C85.1842 56.1272 85.3885 56.6807 85.3885 57.3764V60.8544H84.1158V57.4546C84.1158 57.0657 84.0136 56.7648 83.8094 56.5513C83.6051 56.3383 83.326 56.2318 82.9724 56.2318C82.5798 56.2318 82.2672 56.3549 82.0353 56.6021C81.8033 56.8488 81.6873 57.2191 81.6873 57.713V60.8544H80.4146V57.4546C80.4146 57.0657 80.3186 56.7648 80.1257 56.5513C79.9332 56.3383 79.6602 56.2318 79.3066 56.2318C78.9217 56.2318 78.6071 56.3568 78.3639 56.6075C78.1206 56.8581 77.9985 57.2265 77.9985 57.7126V60.8539H76.7257V55.2439H77.9985V55.9172C78.3757 55.3714 78.9376 55.0983 79.6838 55.0983C80.4382 55.0983 80.996 55.3939 81.3573 55.9846C81.7499 55.3939 82.3514 55.0983 83.1607 55.0983L83.1612 55.0988ZM89.0542 58.5656C89.1487 58.9921 89.3647 59.3194 89.7024 59.5471C90.0401 59.7752 90.4527 59.8891 90.9397 59.8891C91.6156 59.8891 92.1221 59.6575 92.4603 59.1933L93.5093 59.7767C92.9278 60.5921 92.0677 60.9995 90.9279 60.9995C89.9693 60.9995 89.1954 60.7211 88.6062 60.1636C88.0171 59.6062 87.7225 58.9012 87.7225 58.0487C87.7225 57.2108 88.0135 56.5098 88.5944 55.945C89.1759 55.3802 89.9221 55.0979 90.834 55.0979C91.6982 55.0979 92.4075 55.3856 92.9612 55.9621C93.5149 56.5381 93.7921 57.2372 93.7921 58.0599C93.7921 58.1869 93.7762 58.3555 93.7449 58.5646H89.0537L89.0542 58.5656ZM89.0424 57.5782H92.5075C92.4208 57.1219 92.2227 56.778 91.9122 56.5459C91.6018 56.3143 91.2384 56.1981 90.8222 56.1981C90.3506 56.1981 89.958 56.3212 89.6439 56.5684C89.3293 56.8151 89.1292 57.1517 89.043 57.5782H89.0424ZM100.84 53.0005H102.113V60.8544H100.84V60.0464C100.361 60.6824 99.6733 61 98.7777 61C97.9684 61 97.2772 60.7142 96.7034 60.1416C96.1297 59.5695 95.8433 58.8719 95.8433 58.0492C95.8433 57.2186 96.1302 56.5195 96.7034 55.9509C97.2772 55.3827 97.9684 55.0983 98.7777 55.0983C99.6733 55.0983 100.361 55.4125 100.84 56.0407V53V53.0005ZM97.6462 59.3341C97.9998 59.6741 98.4437 59.8446 98.9779 59.8446C99.5121 59.8446 99.9561 59.6746 100.31 59.3341C100.663 58.9935 100.84 58.5656 100.84 58.0492C100.84 57.5328 100.663 57.1048 100.31 56.7643C99.9561 56.4238 99.5121 56.2537 98.9779 56.2537C98.4437 56.2537 97.9998 56.4238 97.6462 56.7643C97.2926 57.1043 97.116 57.5328 97.116 58.0492C97.116 58.5651 97.2926 58.9935 97.6462 59.3341ZM109.562 55.2444H110.835V60.8544H109.562V60.0464C109.083 60.6824 108.395 61 107.5 61C106.69 61 105.999 60.7142 105.425 60.1416C104.851 59.5695 104.565 58.8719 104.565 58.0492C104.565 57.2186 104.852 56.5195 105.425 55.9509C105.999 55.3827 106.69 55.0983 107.5 55.0983C108.395 55.0983 109.083 55.4125 109.562 56.0407V55.2444ZM106.368 59.3341C106.721 59.6741 107.165 59.8446 107.7 59.8446C108.234 59.8446 108.678 59.6746 109.031 59.3341C109.385 58.9935 109.562 58.5656 109.562 58.0492C109.562 57.5328 109.385 57.1048 109.031 56.7643C108.678 56.4238 108.234 56.2537 107.7 56.2537C107.165 56.2537 106.721 56.4238 106.368 56.7643C106.014 57.1043 105.838 57.5328 105.838 58.0492C105.838 58.5651 106.014 58.9935 106.368 59.3341ZM116.952 55.0983C117.761 55.0983 118.452 55.3827 119.026 55.9509C119.6 56.5195 119.886 57.2186 119.886 58.0492C119.886 58.8719 119.599 59.5695 119.026 60.1416C118.452 60.7137 117.761 61 116.952 61C116.056 61 115.368 60.6824 114.889 60.0464V60.8544H113.616V53.0005H114.889V56.0412C115.368 55.4129 116.056 55.0988 116.952 55.0988V55.0983ZM115.42 59.3341C115.773 59.6741 116.217 59.8446 116.751 59.8446C117.286 59.8446 117.73 59.6746 118.083 59.3341C118.437 58.9935 118.613 58.5656 118.613 58.0492C118.613 57.5328 118.437 57.1048 118.083 56.7643C117.73 56.4238 117.286 56.2537 116.751 56.2537C116.217 56.2537 115.773 56.4238 115.42 56.7643C115.066 57.1043 114.89 57.5328 114.89 58.0492C114.89 58.5651 115.066 58.9935 115.42 59.3341ZM127.006 55.2444H128.278V60.8544H127.006V60.0464C126.526 60.6824 125.839 61 124.943 61C124.134 61 123.442 60.7142 122.869 60.1416C122.295 59.5695 122.009 58.8719 122.009 58.0492C122.009 57.2186 122.295 56.5195 122.869 55.9509C123.442 55.3827 124.134 55.0983 124.943 55.0983C125.839 55.0983 126.526 55.4125 127.006 56.0407V55.2444ZM123.811 59.3341C124.165 59.6741 124.609 59.8446 125.143 59.8446C125.677 59.8446 126.121 59.6746 126.475 59.3341C126.828 58.9935 127.005 58.5656 127.005 58.0492C127.005 57.5328 126.828 57.1048 126.475 56.7643C126.121 56.4238 125.677 56.2537 125.143 56.2537C124.609 56.2537 124.165 56.4238 123.811 56.7643C123.458 57.1043 123.281 57.5328 123.281 58.0492C123.281 58.5651 123.458 58.9935 123.811 59.3341ZM135.727 53.0005H137V60.8544H135.727V60.0464C135.248 60.6824 134.56 61 133.665 61C132.855 61 132.164 60.7142 131.59 60.1416C131.017 59.5695 130.73 58.8719 130.73 58.0492C130.73 57.2186 131.017 56.5195 131.59 55.9509C132.164 55.3827 132.855 55.0983 133.665 55.0983C134.56 55.0983 135.248 55.4125 135.727 56.0407V53V53.0005ZM132.533 59.3341C132.887 59.6741 133.331 59.8446 133.865 59.8446C134.399 59.8446 134.843 59.6746 135.197 59.3341C135.55 58.9935 135.727 58.5656 135.727 58.0492C135.727 57.5328 135.55 57.1048 135.197 56.7643C134.843 56.4238 134.399 56.2537 133.865 56.2537C133.331 56.2537 132.887 56.4238 132.533 56.7643C132.18 57.1043 132.003 57.5328 132.003 58.0492C132.003 58.5651 132.18 58.9935 132.533 59.3341Z" fill="#2D945C"/>
<path id="Vector_8" fill-rule="evenodd" clip-rule="evenodd" d="M59.9878 26.2819L67.0703 11.9688H64.9972L59.9878 26.2819Z" fill="#2D945C"/>
<path id="Vector_9" d="M167.595 26.5678C165.442 26.5678 163.663 25.852 162.259 24.4208C160.855 22.9895 160.153 21.2243 160.153 19.1248C160.153 17.012 160.855 15.2432 162.259 13.8188C163.663 12.3944 165.442 11.6819 167.595 11.6819C168.89 11.6819 170.087 11.9853 171.184 12.5918C172.281 13.1983 173.137 14.0198 173.75 15.0559L171.317 16.4666C170.962 15.826 170.458 15.3248 169.804 14.9638C169.15 14.6026 168.414 14.4221 167.595 14.4221C166.205 14.4221 165.084 14.8582 164.232 15.7307C163.38 16.6032 162.954 17.7346 162.954 19.1248C162.954 20.5017 163.38 21.6263 164.232 22.4988C165.084 23.3713 166.205 23.8074 167.595 23.8074C168.413 23.8074 169.153 23.6269 169.814 23.2656C170.475 22.9043 170.976 22.4103 171.317 21.7833L173.75 23.1941C173.136 24.2299 172.285 25.0513 171.194 25.6578C170.104 26.2644 168.904 26.5678 167.595 26.5678ZM176.837 14.8312C176.401 14.8312 176.023 14.6711 175.703 14.3505C175.382 14.0302 175.222 13.652 175.222 13.2159C175.222 12.7797 175.382 12.398 175.703 12.0708C176.023 11.7437 176.401 11.5801 176.837 11.5801C177.287 11.5801 177.672 11.7437 177.993 12.0708C178.313 12.398 178.473 12.7797 178.473 13.2159C178.473 13.652 178.313 14.0305 177.993 14.3505C177.672 14.6708 177.287 14.8312 176.837 14.8312ZM175.529 26.2816V16.0581H178.167V26.2816H175.529ZM186.427 18.5934H184.116V22.8464C184.116 23.2009 184.205 23.4598 184.382 23.6234C184.559 23.7869 184.818 23.879 185.159 23.8995C185.5 23.9199 185.922 23.9164 186.427 23.8894V26.2816C184.614 26.4861 183.336 26.3157 182.593 25.7704C181.85 25.225 181.478 24.2504 181.478 22.8464V18.5934H179.7V16.0578H181.478V13.9928L184.116 13.1954V16.0581H186.427V18.5937L186.427 18.5934ZM195.178 16.0578H198L194.272 26.2985C193.74 27.757 193.035 28.8201 192.159 29.4813C191.28 30.1424 190.189 30.439 188.881 30.3707V27.9171C189.589 27.9307 190.152 27.7808 190.568 27.4673C190.983 27.1538 191.314 26.6494 191.559 25.9541L187.368 16.0578H190.251L192.916 22.9281L195.178 16.0578Z" fill="#185850"/>
</g>
</svg>
