<svg width="40" height="40" viewBox="0 0 40 40" fill="none" xmlns="http://www.w3.org/2000/svg">
<rect x="0.425781" width="39.4602" height="39.4602" rx="19.7301" fill="#185850"/>
<path d="M19.4718 9.2199C18.195 9.48763 17.1859 10.4185 16.7822 11.6912C16.6999 11.9631 16.6875 12.0825 16.6875 12.6797C16.6875 13.277 16.6999 13.3964 16.7822 13.6683C17.1529 14.8421 18.0055 15.6947 19.1794 16.0654C19.4512 16.1478 19.5707 16.1602 20.1679 16.1602C20.7652 16.1602 20.8846 16.1478 21.1564 16.0654C22.3303 15.6947 23.1829 14.8421 23.5536 13.6683C23.636 13.3964 23.6483 13.277 23.6483 12.6797C23.6483 12.0825 23.636 11.9631 23.5536 11.6912C23.187 10.5256 22.3427 9.6771 21.177 9.30228C20.9423 9.22814 20.7734 9.20755 20.2709 9.19519C19.9331 9.18695 19.5707 9.19931 19.4718 9.2199Z" fill="white"/>
<path d="M17.203 16.7932C16.4492 17.131 15.2383 17.9588 15.3783 18.0453C15.3989 18.0577 16.4822 18.4696 17.792 18.9597L20.1768 19.8535L22.5698 18.9556C23.8879 18.4655 24.9752 18.0536 24.9876 18.0412C25.0288 18.0083 24.6004 17.6582 24.1762 17.3699C23.7931 17.1145 23.0682 16.7356 22.8211 16.6573C22.7593 16.6367 22.6563 16.6738 22.4833 16.7767C21.9355 17.098 21.223 17.3163 20.5722 17.3657C19.596 17.4399 18.7022 17.2504 17.8908 16.7932C17.7343 16.7026 17.5943 16.6326 17.5819 16.6367C17.5654 16.6367 17.3966 16.7067 17.203 16.7932Z" fill="white"/>
<path d="M13.2904 18.7678C13.2122 18.8048 13.1051 18.8996 13.0557 18.9778C12.9651 19.1096 12.9609 19.1549 12.9609 19.9128V20.7077L13.1998 20.7325C13.7806 20.7942 14.0977 20.9343 14.452 21.2926C14.9133 21.7539 15.0162 22.137 15.0162 23.3891C15.0162 24.6412 14.9133 25.0243 14.452 25.4856C14.0977 25.8439 13.7806 25.984 13.1998 26.0458L12.9609 26.0705V26.8201C12.9609 27.4915 12.9692 27.5821 13.0433 27.7015C13.0845 27.7757 13.1628 27.8622 13.2163 27.8951C13.311 27.9528 19.4481 30.2676 19.5181 30.2676C19.5346 30.2676 19.5511 28.1546 19.5511 25.5762V20.8849L16.6226 19.7892C15.0121 19.1879 13.6364 18.6936 13.5664 18.6936C13.4923 18.6936 13.3687 18.7266 13.2904 18.7678Z" fill="white"/>
<path d="M23.7013 19.7975L20.7852 20.8931V25.5803C20.7852 28.1587 20.8016 30.2676 20.8181 30.2676C20.8881 30.2676 27.0252 27.9528 27.1199 27.8951C27.1735 27.8622 27.2517 27.7757 27.2929 27.7015C27.3671 27.5821 27.3753 27.4915 27.3753 26.8201V26.0705L27.1405 26.0458C26.5557 25.984 26.2385 25.8439 25.8843 25.4856C25.423 25.0243 25.32 24.6412 25.32 23.3891C25.32 22.137 25.423 21.7539 25.8843 21.2926C26.2385 20.9343 26.5557 20.7942 27.1405 20.7325L27.3753 20.7077V19.9128C27.3753 19.1549 27.3712 19.1096 27.2806 18.9778C27.1694 18.809 26.9511 18.6936 26.7575 18.6977C26.6751 18.6977 25.3571 19.1714 23.7013 19.7975Z" fill="white"/>
<path d="M12.2514 22.0098C11.8601 22.154 11.5018 22.5205 11.37 22.9077C11.2711 23.2043 11.3041 23.7603 11.4359 24.028C11.5636 24.2916 11.8519 24.58 12.1155 24.7076C12.2926 24.7982 12.3915 24.8106 12.8363 24.823C13.417 24.8394 13.5571 24.7982 13.7012 24.5635C13.7795 24.4399 13.7836 24.3534 13.7836 23.3855C13.7836 22.4299 13.7754 22.3311 13.7054 22.2199C13.5488 21.9851 13.4418 21.948 12.8981 21.9521C12.5892 21.9521 12.3461 21.9768 12.2514 22.0098Z" fill="white"/>
<path d="M26.8226 22.025C26.559 22.2022 26.5508 22.231 26.5508 23.3843C26.5508 24.3522 26.5549 24.4387 26.6332 24.5622C26.7773 24.797 26.9174 24.8423 27.4981 24.8217C27.943 24.8094 28.0418 24.7929 28.2189 24.7064C28.4825 24.5787 28.7708 24.2904 28.8985 24.0268C28.9891 23.8497 29.0015 23.7632 29.0015 23.3884C29.0015 23.0136 28.9891 22.9271 28.8985 22.75C28.7708 22.4864 28.4825 22.198 28.2189 22.0703C28.0377 21.9797 27.9471 21.9674 27.4775 21.955C27.0039 21.9468 26.9297 21.955 26.8226 22.025Z" fill="white"/>
</svg>
