<svg width="40" height="40" viewBox="0 0 40 40" fill="none" xmlns="http://www.w3.org/2000/svg">
<rect x="0.424805" width="39.4602" height="39.4602" rx="19.7301" fill="#185850"/>
<path d="M19.4694 9.21942C18.1926 9.48714 17.1834 10.418 16.7798 11.6907C16.6974 11.9626 16.6851 12.082 16.6851 12.6792C16.6851 13.2765 16.6974 13.3959 16.7798 13.6678C17.1505 14.8416 18.0031 15.6942 19.177 16.0649C19.4488 16.1473 19.5682 16.1597 20.1655 16.1597C20.7627 16.1597 20.8822 16.1473 21.154 16.0649C22.3279 15.6942 23.1805 14.8416 23.5512 13.6678C23.6335 13.3959 23.6459 13.2765 23.6459 12.6792C23.6459 12.082 23.6335 11.9626 23.5512 11.6907C23.1846 10.5251 22.3402 9.67661 21.1746 9.30179C20.9398 9.22765 20.771 9.20706 20.2685 9.1947C19.9307 9.18647 19.5682 9.19882 19.4694 9.21942Z" fill="white"/>
<path d="M17.1996 16.7937C16.4458 17.1314 15.2349 17.9593 15.3749 18.0458C15.3955 18.0582 16.4788 18.4701 17.7886 18.9602L20.1734 19.854L22.5664 18.9561C23.8845 18.466 24.9718 18.0541 24.9842 18.0417C25.0254 18.0088 24.597 17.6587 24.1728 17.3703C23.7897 17.115 23.0648 16.736 22.8177 16.6578C22.7559 16.6372 22.6529 16.6743 22.4799 16.7772C21.9321 17.0985 21.2196 17.3168 20.5688 17.3662C19.5926 17.4404 18.6988 17.2509 17.8874 16.7937C17.7309 16.7031 17.5909 16.6331 17.5785 16.6372C17.562 16.6372 17.3932 16.7072 17.1996 16.7937Z" fill="white"/>
<path d="M13.287 18.7678C13.2088 18.8048 13.1017 18.8996 13.0523 18.9778C12.9616 19.1096 12.9575 19.1549 12.9575 19.9128V20.7077L13.1964 20.7325C13.7772 20.7942 14.0943 20.9343 14.4485 21.2926C14.9099 21.7539 15.0128 22.137 15.0128 23.3891C15.0128 24.6412 14.9099 25.0243 14.4485 25.4856C14.0943 25.8439 13.7772 25.984 13.1964 26.0458L12.9575 26.0705V26.8201C12.9575 27.4915 12.9658 27.5821 13.0399 27.7015C13.0811 27.7757 13.1593 27.8622 13.2129 27.8951C13.3076 27.9528 19.4447 30.2676 19.5147 30.2676C19.5312 30.2676 19.5477 28.1546 19.5477 25.5762V20.8849L16.6192 19.7892C15.0087 19.1879 13.633 18.6936 13.563 18.6936C13.4889 18.6936 13.3653 18.7266 13.287 18.7678Z" fill="white"/>
<path d="M23.6989 19.7975L20.7827 20.8931V25.5803C20.7827 28.1587 20.7992 30.2676 20.8157 30.2676C20.8857 30.2676 27.0228 27.9528 27.1175 27.8951C27.171 27.8622 27.2493 27.7757 27.2905 27.7015C27.3646 27.5821 27.3729 27.4915 27.3729 26.8201V26.0705L27.1381 26.0458C26.5532 25.984 26.2361 25.8439 25.8818 25.4856C25.4205 25.0243 25.3176 24.6412 25.3176 23.3891C25.3176 22.137 25.4205 21.7539 25.8818 21.2926C26.2361 20.9343 26.5532 20.7942 27.1381 20.7325L27.3729 20.7077V19.9128C27.3729 19.1549 27.3687 19.1096 27.2781 18.9778C27.1669 18.809 26.9486 18.6936 26.755 18.6977C26.6727 18.6977 25.3546 19.1714 23.6989 19.7975Z" fill="white"/>
<path d="M12.2485 22.0103C11.8572 22.1544 11.4989 22.521 11.367 22.9082C11.2682 23.2047 11.3011 23.7608 11.4329 24.0285C11.5606 24.2921 11.849 24.5804 12.1126 24.7081C12.2897 24.7987 12.3885 24.8111 12.8334 24.8235C13.4141 24.8399 13.5542 24.7987 13.6983 24.564C13.7766 24.4404 13.7807 24.3539 13.7807 23.386C13.7807 22.4304 13.7725 22.3315 13.7024 22.2203C13.5459 21.9856 13.4388 21.9485 12.8951 21.9526C12.5862 21.9526 12.3432 21.9773 12.2485 22.0103Z" fill="white"/>
<path d="M26.8212 22.0255C26.5576 22.2026 26.5493 22.2315 26.5493 23.3847C26.5493 24.3527 26.5534 24.4392 26.6317 24.5627C26.7759 24.7975 26.9159 24.8428 27.4967 24.8222C27.9415 24.8099 28.0403 24.7934 28.2174 24.7069C28.4811 24.5792 28.7694 24.2909 28.8971 24.0273C28.9877 23.8502 29 23.7637 29 23.3889C29 23.0141 28.9877 22.9276 28.8971 22.7504C28.7694 22.4868 28.4811 22.1985 28.2174 22.0708C28.0362 21.9802 27.9456 21.9679 27.4761 21.9555C27.0024 21.9473 26.9283 21.9555 26.8212 22.0255Z" fill="white"/>
</svg>
