<svg width="25" height="25" viewBox="0 0 25 25" fill="none" xmlns="http://www.w3.org/2000/svg">
<rect width="25" height="25" rx="12.5" fill="#185850"/>
<path d="M7.81996 5.364C6.84699 5.54 6.0633 6.26391 5.81757 7.22027C5.68474 7.73166 5.74783 8.41905 5.97032 8.91051C6.54148 10.1591 8.11218 10.7103 9.33752 10.0894L9.58325 9.96318L9.65631 9.6776C9.79578 9.12636 10.0814 8.63157 10.4998 8.22313L10.7521 7.97407L10.7422 7.71506C10.7156 7.02767 10.3802 6.35025 9.84559 5.91192C9.59985 5.70603 9.18809 5.49351 8.89254 5.41381C8.64681 5.35072 8.05905 5.32415 7.81996 5.364Z" fill="white"/>
<path d="M16.3209 5.36378C15.7398 5.47004 15.1487 5.81539 14.8034 6.25373C14.4912 6.64889 14.2721 7.19681 14.2521 7.63514L14.2422 7.8211L14.4414 7.96389C14.996 8.36902 15.4509 9.05972 15.6004 9.71722C15.6967 10.1522 15.6701 10.119 15.9822 10.2253C16.5136 10.4046 17.1943 10.378 17.719 10.1556C18.3765 9.87662 18.9111 9.29881 19.1203 8.64131C19.4424 7.63182 19.1369 6.56255 18.3466 5.91169C18.1008 5.70581 17.6891 5.49328 17.3935 5.41359C17.1478 5.35049 16.56 5.32393 16.3209 5.36378Z" fill="white"/>
<path d="M11.9977 7.9903C10.7424 8.31241 9.92886 9.56099 10.1514 10.8295C10.3473 11.9552 11.2007 12.7655 12.3364 12.9049C13.5119 13.0477 14.6376 12.3238 15.0062 11.1915C15.1125 10.866 15.149 10.3115 15.0892 9.95948C14.9199 8.98983 14.1296 8.17294 13.1632 7.96705C12.8444 7.90064 12.2998 7.9106 11.9977 7.9903Z" fill="white"/>
<path d="M6.84051 10.5141C5.68491 10.637 4.65881 11.4041 4.2238 12.4733C4.01127 12.9947 4.01791 12.9382 4.00463 14.7181C3.99799 15.618 3.99799 16.3552 4.00795 16.3552C4.01459 16.3552 4.26032 16.4216 4.54922 16.5047C5.48566 16.7703 6.62467 16.9862 7.34858 17.036C7.52126 17.0493 7.69061 17.0659 7.72382 17.0758C7.77363 17.0891 7.78027 17.0559 7.78027 16.6807C7.78359 16.1195 7.83008 15.6712 7.9297 15.2992C8.23853 14.1436 9.11852 13.1773 10.2542 12.7523C10.3837 12.7025 10.4933 12.6593 10.4999 12.6526C10.5066 12.646 10.4202 12.5397 10.3106 12.4169C9.93541 11.9985 9.63655 11.3376 9.58341 10.793C9.56017 10.5506 9.55021 10.5274 9.47383 10.5075C9.35761 10.4743 7.15598 10.4809 6.84051 10.5141Z" fill="white"/>
<path d="M15.6838 10.6008C15.6838 10.8133 15.5642 11.3114 15.4513 11.5804C15.3251 11.8859 15.1392 12.1815 14.9133 12.4471C14.8204 12.5534 14.7506 12.6463 14.7573 12.6497C14.7639 12.6563 14.8934 12.7094 15.0429 12.7692C16.0324 13.1577 16.8261 13.968 17.2013 14.9642C17.384 15.449 17.4138 15.6449 17.4338 16.3987L17.4504 17.0928L17.8057 17.0695C18.8716 17.0031 19.9343 16.7707 20.7246 16.432L21.0002 16.3124L20.9869 14.6985C20.9736 12.9419 20.9803 12.995 20.7678 12.4737C20.4058 11.5804 19.5989 10.8665 18.6691 10.6108C18.2872 10.5078 17.8754 10.4779 16.7397 10.4779H15.6838V10.6008Z" fill="white"/>
<path d="M10.905 13.1376C9.94531 13.3401 9.12177 13.9744 8.6934 14.8444C8.3879 15.4687 8.34473 15.7908 8.34473 17.574V18.909L8.67016 19.0086C9.60992 19.2975 10.4434 19.4702 11.4994 19.5997C12.0739 19.6661 13.5549 19.6761 14.0729 19.613C15.1455 19.4868 16.0122 19.2742 16.6565 18.982L16.8823 18.8791L16.869 17.2951C16.8557 15.5916 16.859 15.6215 16.6697 15.1068C16.3775 14.3131 15.5971 13.5494 14.7902 13.2638C14.2755 13.0811 14.1095 13.0678 12.5986 13.0712C11.3533 13.0712 11.1873 13.0778 10.905 13.1376Z" fill="white"/>
</svg>
