<svg version="1.2" xmlns="http://www.w3.org/2000/svg" viewBox="0 0 198 58" width="198" height="58"><style>.a{fill:#185850}.b{fill:#2d945c}.c{fill:#6816a4}</style><path fill-rule="evenodd" class="a" d="m10.8 33.7c-1.6 0.6-2.7 2.2-2.7 4.1q0 0.8 0.3 1.6c3.7 7.4 11.3 12.5 20.2 12.5 4.2 0 8.1-1.1 11.5-3.1v6.3c-3.6 1.6-7.5 2.4-11.7 2.4-14.5 0-26.5-10.6-28.3-24.5l6-3.4-6.1-3.5c1.6-14.2 13.7-25.2 28.4-25.2 4.2 0 8.1 0.9 11.7 2.5v45.2c-3.5-1.1-6-4.5-6-8.5 0-6.6 0.1-13.1 0.1-19.7zm-4.8-4l28.1-15.8v-0.3-2.2q0.1-0.2 0.1-0.5 0-0.3-0.1-0.5c-0.2-1.4-1.2-2.5-2.4-2.9q-1.5-0.2-3.1-0.2c-12.5 0-22.6 10-22.6 22.3q0 0.1 0 0.1z"/><path fill-rule="evenodd" class="b" d="m40.1 10.3c6.6 3.9 11.1 11.1 11.1 19.3 0 8.1-4.4 15.2-10.9 19.1l5.6 2.9c6.8-5.1 11.1-13.2 11.1-22.4 0-9-4.3-17.1-11-22.3l-5.9 3.4z"/><path fill-rule="evenodd" class="a" d="m70.7 26.9l-0.9-2.5h-5.9l-0.9 2.5h-3l5-14.1h3.5l5 14.1zm-5.8-5.1h4l-2.1-5.8zm14.6 5.4q-2.3 0-3.8-1.5-1.6-1.5-1.6-3.8 0-2.3 1.6-3.8 1.5-1.6 3.8-1.6 1.5 0 2.7 0.8 1.3 0.7 1.9 1.9l-2.3 1.3q-0.3-0.7-0.9-1-0.6-0.4-1.4-0.4-1.2 0-2 0.8-0.7 0.8-0.7 2 0 1.2 0.7 2 0.8 0.7 2 0.7 0.8 0 1.4-0.3 0.6-0.4 1-1l2.2 1.3q-0.6 1.2-1.9 1.9-1.2 0.7-2.7 0.7zm13.6-10.4h2.7v10.2h-2.7v-1.2q-1.1 1.4-3.3 1.4-2 0-3.5-1.5-1.5-1.6-1.5-3.8 0-2.3 1.5-3.8 1.5-1.6 3.5-1.6 2.2 0 3.3 1.5zm-4.8 7.1q0.8 0.8 2 0.8 1.2 0 2-0.8 0.8-0.8 0.8-2 0-1.3-0.8-2.1-0.8-0.8-2-0.8-1.2 0-2 0.8-0.8 0.8-0.8 2.1 0 1.2 0.8 2zm17.6-11.1h2.7v14.1h-2.7v-1.1q-1.1 1.4-3.3 1.4-2.1 0-3.5-1.5-1.5-1.6-1.5-3.8 0-2.3 1.5-3.8 1.4-1.6 3.5-1.6 2.2 0 3.3 1.5zm-4.8 11.2q0.8 0.8 2 0.8 1.2 0 2-0.8 0.8-0.8 0.8-2.1 0-1.2-0.8-2-0.8-0.8-2-0.8-1.2 0-2 0.8-0.8 0.8-0.8 2 0 1.3 0.8 2.1zm12.1-1q0.5 1.9 2.9 1.9 1.5 0 2.3-1l2.1 1.2q-1.5 2.2-4.5 2.2-2.5 0-4-1.5-1.6-1.6-1.6-3.9 0-2.3 1.6-3.8 1.5-1.5 3.8-1.5 2.3 0 3.7 1.5 1.5 1.6 1.5 3.8 0 0.5-0.1 1.1zm0-2h5.2q-0.2-1.1-0.9-1.6-0.8-0.5-1.7-0.5-1 0-1.7 0.6-0.7 0.5-0.9 1.5zm21-4.4q1.7 0 2.8 1.1 1 1.1 1 3.1v6.2h-2.6v-6.1q0-0.9-0.5-1.4-0.4-0.5-1.2-0.5-0.9 0-1.4 0.6-0.5 0.6-0.5 1.7v5.7h-2.7v-6.1q0-0.9-0.4-1.4-0.5-0.5-1.3-0.5-0.9 0-1.4 0.6-0.5 0.6-0.5 1.7v5.7h-2.6v-10.1h2.6v1q0.9-1.3 2.8-1.3 1.9 0 2.8 1.4 1-1.4 3.1-1.4zm7.4-0.9q-0.7 0-1.1-0.5-0.5-0.5-0.5-1.1 0-0.7 0.5-1.2 0.4-0.5 1.1-0.5 0.7 0 1.1 0.5 0.5 0.5 0.5 1.2 0 0.6-0.5 1.1-0.4 0.5-1.1 0.5zm-1.3 11.3v-10.1h2.6v10.1zm9.9 0.3q-2.3 0-3.8-1.6-1.6-1.5-1.6-3.8 0-2.2 1.6-3.8 1.5-1.5 3.8-1.5 1.5 0 2.8 0.7 1.2 0.7 1.8 1.9l-2.3 1.3q-0.3-0.6-0.9-1-0.6-0.3-1.4-0.3-1.2 0-1.9 0.7-0.8 0.8-0.8 2 0 1.2 0.8 2 0.7 0.8 1.9 0.8 0.8 0 1.4-0.4 0.7-0.3 1-1l2.3 1.3q-0.7 1.2-1.9 2-1.3 0.7-2.8 0.7z"/><path class="a" d="m65.5 0v1.3h-1.9v5.7h-1.4v-5.7h-1.9v-1.3z"/><path class="a" d="m69 1.9q0.8 0 1.3 0.5 0.6 0.5 0.6 1.5v3.1h-1.3v-2.9q0-0.5-0.3-0.8-0.3-0.3-0.7-0.3-0.5 0-0.8 0.4-0.3 0.3-0.3 0.9v2.7h-1.3v-7h1.3v2.5q0.4-0.6 1.5-0.6z"/><path fill-rule="evenodd" class="a" d="m73.1 5q0.2 0.9 1.4 0.9 0.7 0 1.1-0.5l1.1 0.6q-0.8 1.1-2.2 1.1-1.3 0-2-0.7-0.8-0.8-0.8-1.9 0-1.1 0.8-1.9 0.7-0.7 1.9-0.7 1.1 0 1.8 0.7 0.7 0.8 0.7 1.9 0 0.2 0 0.5zm0-1h2.5q-0.1-0.5-0.4-0.7-0.4-0.3-0.8-0.3-0.6 0-0.9 0.3-0.3 0.2-0.4 0.7z"/><path class="a" d="m65.1 43.9q-2.1 0-3.6-1-1.5-0.9-2-2.5l2.4-1.4q0.8 2.1 3.3 2.1 1.1 0 1.7-0.4 0.6-0.4 0.6-1.1 0-0.7-0.7-1.1-0.7-0.4-2.4-0.9-1-0.3-1.7-0.6-0.6-0.3-1.3-0.7-0.7-0.5-1-1.3-0.4-0.7-0.4-1.7 0-1.9 1.4-3 1.4-1.2 3.4-1.2 1.7 0 3 0.9 1.3 0.8 2.1 2.3l-2.4 1.4q-0.9-1.9-2.7-1.9-0.9 0-1.4 0.5-0.5 0.3-0.5 1 0 0.6 0.5 1.1 0.6 0.4 2.2 0.8 0.6 0.3 1 0.4 0.3 0.1 0.9 0.3 0.6 0.2 0.9 0.4 0.3 0.2 0.7 0.6 0.4 0.3 0.6 0.7 0.3 0.4 0.4 0.9 0.2 0.5 0.2 1.1 0 2-1.5 3.1-1.4 1.2-3.7 1.2z"/><path class="a" d="m77.1 43.9q-2.3 0-3.8-1.6-1.6-1.5-1.6-3.8 0-2.2 1.6-3.8 1.5-1.5 3.8-1.5 1.5 0 2.8 0.7 1.2 0.7 1.8 1.9l-2.3 1.3q-0.3-0.6-0.9-1-0.6-0.3-1.4-0.3-1.2 0-1.9 0.7-0.8 0.8-0.8 2 0 1.2 0.8 2 0.7 0.8 1.9 0.8 0.8 0 1.4-0.4 0.7-0.3 1-1l2.3 1.3q-0.7 1.2-1.9 2-1.3 0.7-2.8 0.7z"/><path class="a" d="m88.8 33.2q1.7 0 2.8 1.1 1.1 1.1 1.1 3.1v6.2h-2.6v-5.9q0-1-0.6-1.5-0.5-0.6-1.5-0.6-1 0-1.6 0.6-0.6 0.7-0.6 1.9v5.5h-2.6v-14.2h2.6v5.2q1-1.4 3-1.4z"/><path fill-rule="evenodd" class="a" d="m103.7 42.3q-1.6 1.6-3.9 1.6-2.2 0-3.8-1.6-1.6-1.5-1.6-3.8 0-2.2 1.6-3.8 1.6-1.5 3.8-1.5 2.3 0 3.9 1.5 1.5 1.6 1.5 3.8 0 2.3-1.5 3.8zm-5.9-1.8q0.8 0.8 2 0.8 1.2 0 2-0.8 0.8-0.8 0.8-2 0-1.2-0.8-2-0.8-0.8-2-0.8-1.2 0-2 0.8-0.7 0.8-0.7 2 0 1.2 0.7 2z"/><path fill-rule="evenodd" class="a" d="m115.8 42.3q-1.6 1.6-3.8 1.6-2.3 0-3.9-1.6-1.5-1.5-1.5-3.8 0-2.2 1.5-3.8 1.6-1.5 3.9-1.5 2.2 0 3.8 1.5 1.6 1.6 1.6 3.8 0 2.3-1.6 3.8zm-5.8-1.8q0.8 0.8 2 0.8 1.1 0 1.9-0.8 0.8-0.8 0.8-2 0-1.2-0.8-2-0.8-0.8-1.9-0.8-1.2 0-2 0.8-0.8 0.8-0.8 2 0 1.2 0.8 2z"/><path class="a" d="m119.2 43.6v-14.8h2.7v14.8z"/><path class="c" d="m60 50.3h106.1v0.6h-106.1z"/><path class="a" d="m60 52.2h0.4v4.4h-0.4z"/><path class="a" d="m62.9 53.4q0.6 0 0.9 0.3 0.4 0.4 0.4 1v1.9h-0.4v-1.9q0-0.4-0.3-0.7-0.2-0.2-0.6-0.2-0.5 0-0.8 0.3-0.3 0.3-0.3 0.9v1.6h-0.4v-3.1h0.4v0.5q0.4-0.6 1.1-0.6z"/><path fill-rule="evenodd" class="a" d="m67.8 52.2h0.4v4.4h-0.4v-0.6q-0.5 0.7-1.3 0.7-0.7 0-1.2-0.5-0.5-0.4-0.5-1.1 0-0.7 0.5-1.2 0.5-0.5 1.2-0.5 0.8 0 1.3 0.7zm-2.2 3.8q0.4 0.3 0.9 0.3 0.5 0 0.9-0.3 0.4-0.4 0.4-0.9 0-0.6-0.4-0.9-0.4-0.4-0.9-0.4-0.5 0-0.9 0.4-0.4 0.3-0.4 0.9 0 0.5 0.4 0.9z"/><path class="a" d="m69.5 52.7q-0.1 0.1-0.2 0.1-0.1 0-0.2-0.1-0.1-0.1-0.1-0.2 0-0.1 0.1-0.2 0.1-0.1 0.2-0.1 0.1 0 0.2 0.1 0.1 0.1 0.1 0.2 0 0.1-0.1 0.2zm-0.4 3.9v-3.1h0.4v3.1z"/><path fill-rule="evenodd" class="a" d="m73.2 53.5h0.4v3.1h-0.4v-0.6q-0.5 0.7-1.3 0.7-0.7 0-1.2-0.5-0.5-0.4-0.5-1.1 0-0.7 0.5-1.2 0.5-0.5 1.2-0.5 0.8 0 1.3 0.7zm-2.2 2.5q0.4 0.3 0.9 0.3 0.5 0 0.9-0.3 0.4-0.4 0.4-0.9 0-0.5-0.4-0.9-0.4-0.4-0.9-0.4-0.5 0-0.9 0.4-0.4 0.4-0.4 0.9 0 0.5 0.4 0.9z"/><path class="a" d="m75.2 52.2l-0.4 1.4h-0.4l0.3-1.4z"/><path class="a" d="m75.9 54.3q0 0.2 0.2 0.3 0.2 0.2 0.4 0.2 0.3 0.1 0.6 0.2 0.3 0.1 0.5 0.3 0.1 0.2 0.1 0.5 0 0.4-0.3 0.7-0.3 0.2-0.8 0.2-0.5 0-0.8-0.2-0.3-0.2-0.5-0.5l0.4-0.2q0.1 0.2 0.3 0.4 0.3 0.1 0.6 0.1 0.3 0 0.5-0.1 0.2-0.1 0.2-0.4 0-0.2-0.2-0.3-0.2-0.2-0.4-0.2-0.3-0.1-0.6-0.2-0.3-0.1-0.5-0.3-0.2-0.2-0.2-0.5 0-0.4 0.4-0.7 0.3-0.2 0.7-0.2 0.4 0 0.7 0.2 0.3 0.1 0.5 0.4l-0.4 0.2q-0.2-0.4-0.8-0.4-0.2 0-0.4 0.1-0.2 0.2-0.2 0.4z"/><path class="a" d="m82.5 53.5v3.1h-0.4v-2.7h-1.4v2.7h-0.4v-2.7h-0.5v-0.4h0.5v-0.2q0-1.2 1.4-1.2 0.2 0 0.6 0.1v0.4q-0.3-0.1-0.6-0.1-0.5 0-0.7 0.2-0.3 0.2-0.3 0.6v0.2z"/><path class="a" d="m83.8 54q0.3-0.6 1-0.6v0.4q-0.4 0-0.7 0.3-0.3 0.2-0.3 0.8v1.7h-0.4v-3.1h0.4z"/><path class="a" d="m85.6 54.3q0 0.2 0.2 0.3 0.2 0.2 0.5 0.2 0.3 0.1 0.5 0.2 0.3 0.1 0.5 0.3 0.2 0.2 0.2 0.5 0 0.4-0.3 0.7-0.4 0.2-0.9 0.2-0.4 0-0.8-0.2-0.3-0.2-0.4-0.5l0.3-0.2q0.1 0.2 0.4 0.4 0.2 0.1 0.5 0.1 0.3 0 0.6-0.1 0.2-0.1 0.2-0.4 0-0.2-0.2-0.3-0.2-0.2-0.5-0.2-0.3-0.1-0.5-0.2-0.3-0.1-0.5-0.3-0.2-0.2-0.2-0.5 0-0.4 0.3-0.7 0.3-0.2 0.8-0.2 0.4 0 0.7 0.2 0.3 0.1 0.4 0.4l-0.3 0.2q-0.2-0.4-0.8-0.4-0.3 0-0.5 0.1-0.2 0.2-0.2 0.4z"/><path class="a" d="m89.8 53.9h-0.9v1.9q0 0.3 0.1 0.4 0.1 0.1 0.3 0.1 0.2 0 0.5 0v0.3q-0.7 0.2-1 0-0.4-0.2-0.4-0.8v-1.9h-0.6v-0.4h0.6v-0.8l0.5-0.1v0.9h0.9z"/><path class="a" d="m93.6 56.7q-0.7 0-1.2-0.5-0.5-0.4-0.5-1.1 0-0.7 0.5-1.2 0.5-0.5 1.2-0.5 0.5 0 0.9 0.2 0.3 0.2 0.5 0.6l-0.3 0.2q-0.2-0.3-0.5-0.4-0.2-0.2-0.6-0.2-0.5 0-0.9 0.4-0.4 0.3-0.4 0.9 0 0.5 0.4 0.9 0.4 0.3 0.9 0.3 0.4 0 0.6-0.1 0.3-0.2 0.5-0.5l0.3 0.2q-0.2 0.4-0.5 0.6-0.4 0.2-0.9 0.2z"/><path fill-rule="evenodd" class="a" d="m98.4 53.5h0.4v3.1h-0.4v-0.6q-0.5 0.7-1.3 0.7-0.7 0-1.2-0.5-0.5-0.4-0.5-1.1 0-0.7 0.5-1.2 0.5-0.5 1.2-0.5 0.8 0 1.3 0.7zm-2.2 2.5q0.4 0.3 0.9 0.3 0.5 0 0.9-0.3 0.4-0.4 0.4-0.9 0-0.5-0.4-0.9-0.4-0.4-0.9-0.4-0.5 0-0.9 0.4-0.4 0.4-0.4 0.9 0 0.5 0.4 0.9z"/><path class="a" d="m100.1 54q0.3-0.6 1-0.6v0.4q-0.4 0-0.7 0.3-0.3 0.2-0.3 0.8v1.7h-0.4v-3.1h0.4z"/><path fill-rule="evenodd" class="a" d="m103 53.4q0.7 0 1.2 0.5 0.4 0.5 0.4 1.2 0 0 0 0.2h-2.8q0 0.5 0.4 0.7 0.3 0.3 0.9 0.3 0.3 0 0.6-0.1 0.3-0.2 0.4-0.4l0.4 0.2q-0.2 0.3-0.6 0.5-0.4 0.2-0.8 0.2-0.8 0-1.3-0.4-0.5-0.5-0.5-1.2 0-0.8 0.5-1.2 0.5-0.5 1.2-0.5zm0 0.4q-0.5 0-0.8 0.3-0.4 0.3-0.4 0.8h2.4q-0.1-0.5-0.4-0.8-0.3-0.3-0.8-0.3z"/><path fill-rule="evenodd" class="a" d="m106.8 53.4q0.7 0 1.1 0.5 0.5 0.5 0.5 1.2 0 0 0 0.2h-2.9q0.1 0.5 0.4 0.7 0.4 0.3 0.9 0.3 0.4 0 0.6-0.1 0.3-0.2 0.5-0.4l0.3 0.2q-0.2 0.3-0.6 0.5-0.3 0.2-0.8 0.2-0.7 0-1.2-0.4-0.5-0.5-0.5-1.2 0-0.8 0.5-1.2 0.4-0.5 1.2-0.5zm0 0.4q-0.5 0-0.9 0.3-0.3 0.3-0.4 0.8h2.4q0-0.5-0.4-0.8-0.3-0.3-0.7-0.3z"/><path class="a" d="m109.5 54q0.3-0.6 1-0.6v0.4q-0.4 0-0.7 0.3-0.3 0.2-0.3 0.8v1.7h-0.5v-3.1h0.5z"/><path fill-rule="evenodd" class="a" d="m115.4 56.2q-0.5 0.5-1.2 0.5-0.7 0-1.2-0.5-0.5-0.4-0.5-1.1 0-0.7 0.5-1.2 0.5-0.5 1.2-0.5 0.7 0 1.2 0.5 0.5 0.5 0.5 1.2 0 0.7-0.5 1.1zm-2.1-0.2q0.3 0.3 0.9 0.3 0.5 0 0.9-0.3 0.3-0.4 0.3-0.9 0-0.6-0.3-0.9-0.4-0.4-0.9-0.4-0.6 0-0.9 0.4-0.4 0.3-0.4 0.9 0 0.5 0.4 0.9z"/><path class="a" d="m117 54q0.3-0.6 1-0.6v0.4q-0.4 0-0.7 0.3-0.3 0.2-0.3 0.8v1.7h-0.4v-3.1h0.4z"/><path class="a" d="m119 52.7q-0.1 0.1-0.2 0.1-0.1 0-0.2-0.1-0.1-0.1-0.1-0.2 0-0.1 0.1-0.2 0.1-0.1 0.2-0.1 0.1 0 0.2 0.1 0.1 0.1 0.1 0.2 0 0.1-0.1 0.2zm-0.4 3.9v-3.1h0.4v3.1z"/><path fill-rule="evenodd" class="a" d="m121.4 53.4q0.7 0 1.2 0.5 0.4 0.5 0.4 1.2 0 0 0 0.2h-2.8q0 0.5 0.4 0.7 0.3 0.3 0.9 0.3 0.3 0 0.6-0.1 0.3-0.2 0.4-0.4l0.4 0.2q-0.2 0.3-0.6 0.5-0.4 0.2-0.9 0.2-0.7 0-1.2-0.4-0.5-0.5-0.5-1.2 0-0.8 0.5-1.2 0.5-0.5 1.2-0.5zm0 0.4q-0.5 0-0.8 0.3-0.4 0.3-0.4 0.8h2.4q-0.1-0.5-0.4-0.8-0.3-0.3-0.8-0.3z"/><path class="a" d="m125.2 53.4q0.6 0 0.9 0.3 0.4 0.4 0.4 1v1.9h-0.5v-1.9q0-0.4-0.2-0.7-0.2-0.2-0.6-0.2-0.5 0-0.8 0.3-0.3 0.3-0.3 0.9v1.6h-0.4v-3.1h0.4v0.5q0.4-0.6 1.1-0.6z"/><path class="a" d="m129 53.9h-0.9v1.9q0 0.3 0.1 0.4 0.1 0.1 0.3 0.1 0.2 0 0.5 0v0.3q-0.7 0.2-1 0-0.4-0.2-0.4-0.8v-1.9h-0.6v-0.4h0.6v-0.8l0.5-0.1v0.9h0.9z"/><path fill-rule="evenodd" class="a" d="m131 53.4q0.7 0 1.1 0.5 0.5 0.5 0.5 1.2 0 0 0 0.2h-2.9q0.1 0.5 0.5 0.7 0.3 0.3 0.8 0.3 0.4 0 0.7-0.1 0.2-0.2 0.4-0.4l0.3 0.2q-0.2 0.3-0.6 0.5-0.3 0.2-0.8 0.2-0.7 0-1.2-0.4-0.5-0.5-0.5-1.2 0-0.8 0.5-1.2 0.4-0.5 1.2-0.5zm0 0.4q-0.5 0-0.9 0.3-0.3 0.3-0.4 0.8h2.4q0-0.5-0.4-0.8-0.3-0.3-0.7-0.3z"/><path fill-rule="evenodd" class="a" d="m136 52.2h0.4v4.4h-0.4v-0.6q-0.4 0.7-1.3 0.7-0.7 0-1.2-0.5-0.4-0.4-0.4-1.1 0-0.7 0.4-1.2 0.5-0.5 1.2-0.5 0.9 0 1.3 0.7zm-2.2 3.8q0.4 0.3 1 0.3 0.5 0 0.9-0.3 0.3-0.4 0.3-0.9 0-0.6-0.3-0.9-0.4-0.4-0.9-0.4-0.6 0-1 0.4-0.3 0.3-0.3 0.9 0 0.5 0.3 0.9z"/><path class="a" d="m139.3 54.3q0 0.2 0.2 0.3 0.2 0.2 0.4 0.2 0.3 0.1 0.6 0.2 0.3 0.1 0.5 0.3 0.2 0.2 0.2 0.5 0 0.4-0.4 0.7-0.3 0.2-0.8 0.2-0.5 0-0.8-0.2-0.3-0.2-0.4-0.5l0.3-0.2q0.1 0.2 0.3 0.4 0.3 0.1 0.6 0.1 0.3 0 0.5-0.1 0.2-0.1 0.2-0.4 0-0.2-0.2-0.3-0.1-0.2-0.4-0.2-0.3-0.1-0.6-0.2-0.3-0.1-0.4-0.3-0.2-0.2-0.2-0.5 0-0.4 0.3-0.7 0.3-0.2 0.8-0.2 0.4 0 0.6 0.2 0.3 0.1 0.5 0.4l-0.4 0.2q-0.2-0.4-0.7-0.4-0.3 0-0.5 0.1-0.2 0.2-0.2 0.4z"/><path class="a" d="m143.3 56.7q-0.8 0-1.2-0.5-0.5-0.4-0.5-1.1 0-0.7 0.5-1.2 0.4-0.5 1.2-0.5 0.5 0 0.8 0.2 0.4 0.2 0.6 0.6l-0.4 0.2q-0.1-0.3-0.4-0.4-0.3-0.2-0.6-0.2-0.6 0-0.9 0.4-0.4 0.3-0.4 0.9 0 0.5 0.4 0.9 0.3 0.3 0.9 0.3 0.3 0 0.6-0.1 0.3-0.2 0.5-0.5l0.3 0.2q-0.2 0.4-0.6 0.6-0.4 0.2-0.8 0.2z"/><path class="a" d="m146.8 53.4q0.6 0 1 0.3 0.3 0.4 0.3 1v1.9h-0.4v-1.9q0-0.4-0.3-0.7-0.2-0.2-0.6-0.2-0.5 0-0.8 0.3-0.2 0.3-0.2 0.9v1.6h-0.5v-4.4h0.5v1.8q0.3-0.6 1-0.6z"/><path fill-rule="evenodd" class="a" d="m151.6 56.2q-0.5 0.5-1.2 0.5-0.7 0-1.2-0.5-0.5-0.4-0.5-1.1 0-0.7 0.5-1.2 0.5-0.5 1.2-0.5 0.7 0 1.2 0.5 0.5 0.5 0.5 1.2 0 0.7-0.5 1.1zm-2.1-0.2q0.4 0.3 0.9 0.3 0.5 0 0.9-0.3 0.4-0.4 0.4-0.9 0-0.6-0.4-0.9-0.4-0.4-0.9-0.4-0.5 0-0.9 0.4-0.4 0.3-0.4 0.9 0 0.5 0.4 0.9z"/><path fill-rule="evenodd" class="a" d="m155.5 56.2q-0.5 0.5-1.2 0.5-0.7 0-1.2-0.5-0.5-0.4-0.5-1.1 0-0.7 0.5-1.2 0.5-0.5 1.2-0.5 0.7 0 1.2 0.5 0.5 0.5 0.5 1.2 0 0.7-0.5 1.1zm-2.1-0.2q0.4 0.3 0.9 0.3 0.6 0 0.9-0.3 0.4-0.4 0.4-0.9 0-0.6-0.4-0.9-0.3-0.4-0.9-0.4-0.5 0-0.9 0.4-0.4 0.3-0.4 0.9 0 0.5 0.4 0.9z"/><path class="a" d="m156.7 56.6v-4.6h0.4v4.6z"/><path class="a" d="m158.5 52.7q-0.1 0.1-0.2 0.1-0.2 0-0.3-0.1-0.1-0.1-0.1-0.2 0-0.1 0.1-0.2 0.1-0.1 0.3-0.1 0.1 0 0.2 0.1 0.1 0.1 0.1 0.2 0 0.1-0.1 0.2zm-0.5 3.9v-3.1h0.5v3.1z"/><path class="a" d="m160.9 53.4q0.6 0 0.9 0.3 0.3 0.4 0.3 1v1.9h-0.4v-1.9q0-0.4-0.2-0.7-0.2-0.2-0.7-0.2-0.4 0-0.7 0.3-0.3 0.3-0.3 0.9v1.6h-0.4v-3.1h0.4v0.5q0.4-0.6 1.1-0.6z"/><path fill-rule="evenodd" class="a" d="m165.7 53.5h0.5v3q-0.1 0.7-0.5 1.1-0.5 0.4-1.2 0.4-1.1 0-1.5-0.8l0.4-0.2q0.3 0.6 1.1 0.6 0.6 0 0.9-0.3 0.3-0.3 0.3-0.8v-0.5q-0.4 0.7-1.3 0.7-0.7 0-1.2-0.5-0.4-0.4-0.4-1.1 0-0.7 0.4-1.2 0.5-0.5 1.2-0.5 0.9 0 1.3 0.7zm-2.1 2.5q0.3 0.3 0.9 0.3 0.5 0 0.9-0.3 0.3-0.4 0.3-0.9 0-0.5-0.3-0.9-0.4-0.4-0.9-0.4-0.6 0-0.9 0.4-0.4 0.4-0.4 0.9 0 0.5 0.4 0.9z"/><path fill-rule="evenodd" class="b" d="m60 26.9l7.1-14.1h-2.1z"/><path class="a" d="m167.6 27q-3.2 0-5.3-2.1-2.1-2.1-2.1-5.2 0-3.2 2.1-5.3 2.1-2.1 5.3-2.1 1.9 0 3.6 0.9 1.6 0.9 2.6 2.4l-2.5 1.4q-0.5-0.9-1.5-1.4-1-0.6-2.2-0.6-2.1 0-3.4 1.3-1.2 1.3-1.2 3.4 0 2 1.2 3.3 1.3 1.3 3.4 1.3 1.2 0 2.2-0.5 1-0.6 1.5-1.5l2.5 1.4q-1 1.5-2.6 2.5-1.6 0.8-3.6 0.8z"/><path class="a" d="m176.8 15.4q-0.6 0-1.1-0.4-0.5-0.5-0.5-1.2 0-0.6 0.5-1.1 0.5-0.5 1.1-0.5 0.7 0 1.2 0.5 0.5 0.5 0.5 1.1 0 0.7-0.5 1.2-0.5 0.4-1.2 0.4zm-1.3 11.4v-10.2h2.7v10.2z"/><path class="a" d="m186.4 19.1h-2.3v4.3q0 0.5 0.3 0.7 0.3 0.3 0.8 0.3 0.5 0 1.2 0v2.4q-2.7 0.3-3.8-0.5-1.1-0.9-1.1-2.9v-4.3h-1.8v-2.5h1.8v-2l2.6-0.8v2.8h2.3z"/><path class="a" d="m195.2 16.6h2.8l-3.7 10.2q-0.8 2.1-2.1 3.1-1.4 1-3.3 0.9v-2.4q1 0 1.7-0.5 0.6-0.4 1-1.5l-4.2-9.8h2.9l2.6 6.8z"/></svg>