<svg width="1307" height="1307" viewBox="0 0 1307 1307" fill="none" xmlns="http://www.w3.org/2000/svg">
<g filter="url(#filter0_d_314_596)">
<rect x="38.5" y="77" width="999" height="999" rx="499.5" fill="#185850" shape-rendering="crispEdges"/>
<path d="M537.789 506.591L486.753 535.669L537.789 564.767L588.805 535.669L537.789 506.591Z" fill="white"/>
<path d="M476.537 611.185L527.573 640.781V582.605L476.537 553.009V611.185Z" fill="white"/>
<path d="M675.54 576.485C675.54 500.46 613.794 438.714 537.769 438.714C461.723 438.714 399.977 500.46 399.977 576.485C399.977 652.531 461.723 714.277 537.769 714.277C613.794 714.277 675.54 652.531 675.54 576.485ZM619.418 617.31C619.418 620.88 617.364 624.45 614.313 625.986L542.874 666.81C541.339 667.828 539.304 668.346 537.769 668.346C536.233 668.346 534.199 667.828 532.663 666.81L461.225 625.986C458.153 623.951 456.119 620.88 456.119 617.31V535.66C456.119 532.09 458.153 528.521 461.225 526.985L532.663 486.16C535.714 484.126 539.803 484.126 542.874 486.16L614.313 526.985C616.866 528.521 618.381 531.073 619.418 533.626C619.418 534.125 619.917 535.162 619.917 535.66C619.418 535.66 619.418 617.31 619.418 617.31Z" fill="white"/>
<path d="M547.943 640.781L598.979 611.185V553.009L547.943 582.605V640.781Z" fill="white"/>
<path d="M583.716 321.349V280.524C583.716 276.955 581.662 273.385 578.611 271.849L542.892 251.427C539.82 249.392 535.732 249.392 532.68 251.427L496.961 271.849C493.89 273.883 491.856 276.955 491.856 280.524V321.349C491.856 324.919 493.89 328.489 496.961 330.025L532.68 350.427C534.216 351.444 535.732 351.963 537.786 351.963C539.82 351.963 541.356 351.444 542.892 350.427L578.611 330.025C581.662 328.489 583.716 324.919 583.716 321.349Z" fill="white"/>
<path d="M527.559 382.565V408.093C527.559 413.697 532.146 418.284 537.77 418.284C543.374 418.284 547.961 413.697 547.961 408.093V382.565C547.961 376.961 543.374 372.354 537.77 372.354C532.146 372.354 527.559 376.961 527.559 382.565Z" fill="white"/>
<mask id="mask0_314_596" style="mask-type:luminance" maskUnits="userSpaceOnUse" x="488" y="800" width="98" height="104">
<path d="M488.746 800.808H585.753V903.099H488.746V800.808Z" fill="white"/>
</mask>
<g mask="url(#mask0_314_596)">
<path d="M491.841 831.636V872.461C491.841 876.031 493.876 879.621 496.947 881.137L532.666 901.559C534.202 902.576 535.718 903.095 537.772 903.095C539.806 903.095 541.342 902.576 542.877 901.559L578.597 881.137C581.648 879.102 583.702 876.031 583.702 872.461V831.636C583.702 828.066 581.648 824.497 578.597 822.961L542.877 802.558C539.806 800.524 535.718 800.524 532.666 802.558L496.947 822.961C493.876 824.497 491.841 828.066 491.841 831.636Z" fill="white"/>
</g>
<path d="M547.961 770.412V744.904C547.961 739.28 543.374 734.693 537.77 734.693C532.146 734.693 527.559 739.28 527.559 744.904V770.412C527.559 776.036 532.146 780.623 537.77 780.623C543.374 780.623 547.961 776.036 547.961 770.412Z" fill="white"/>
<mask id="mask1_314_596" style="mask-type:luminance" maskUnits="userSpaceOnUse" x="769" y="525" width="96" height="108">
<path d="M769.485 525.09H864.596V632.307H769.485V525.09Z" fill="white"/>
</mask>
<g mask="url(#mask1_314_596)">
<path d="M859.279 547.395L823.56 526.972C820.508 524.938 816.42 524.938 813.368 526.972L777.629 547.395C774.578 549.429 772.543 552.5 772.543 556.07V596.895C772.543 600.465 774.578 604.035 777.629 605.571L813.368 625.973C814.884 626.99 816.42 627.509 818.454 627.509C820.508 627.509 822.044 626.99 823.56 625.973L859.279 605.571C862.35 603.517 864.384 600.465 864.384 596.895V556.07C864.384 552.5 862.35 548.911 859.279 547.395Z" fill="white"/>
</g>
<path d="M706.141 586.695H731.669C737.273 586.695 741.86 582.108 741.86 576.484C741.86 570.88 737.273 566.273 731.669 566.273H706.141C700.537 566.273 695.95 570.88 695.95 576.484C695.95 582.108 700.537 586.695 706.141 586.695Z" fill="white"/>
<mask id="mask2_314_596" style="mask-type:luminance" maskUnits="userSpaceOnUse" x="210" y="525" width="95" height="108">
<path d="M210.92 525.09H304.895V632.307H210.92V525.09Z" fill="white"/>
</mask>
<g mask="url(#mask2_314_596)">
<path d="M216.274 605.571L251.994 625.973C253.529 626.99 255.563 627.509 257.099 627.509C258.635 627.509 260.669 626.99 262.205 625.973L297.924 605.571C300.995 603.517 303.03 600.465 303.03 596.895V556.07C303.03 552.5 300.995 548.911 297.924 547.395L262.205 526.972C259.133 524.938 255.065 524.938 251.994 526.972L216.274 547.395C213.223 549.429 211.169 552.5 211.169 556.07V596.895C211.169 600.465 213.223 604.035 216.274 605.571Z" fill="white"/>
</g>
<path d="M369.352 566.273H343.844C338.219 566.273 333.632 570.88 333.632 576.484C333.632 582.108 338.219 586.695 343.844 586.695H369.352C374.976 586.695 379.563 582.108 379.563 576.484C379.563 570.88 374.976 566.273 369.352 566.273Z" fill="white"/>
<path d="M714.33 818.36C716.364 820.414 718.917 821.431 721.47 821.431C722.487 821.431 723.504 821.431 724.023 820.913L763.83 810.203C767.4 809.186 769.953 806.633 770.97 803.063L781.68 763.255C782.697 759.686 781.68 756.116 779.127 753.563L750.049 724.465C747.496 721.912 743.926 720.895 740.356 721.912L701.047 732.642C697.477 733.659 694.925 736.212 693.907 739.782L683.198 779.589C682.181 783.159 683.198 786.729 685.75 789.282L714.33 818.36Z" fill="white"/>
<path d="M667.875 720.904C669.93 722.938 672.482 723.975 675.035 723.975C677.568 723.975 680.121 722.938 682.175 720.904C686.244 716.816 686.244 710.693 682.175 706.624L664.306 688.755C660.237 684.666 654.114 684.666 650.026 688.755C645.937 692.843 645.937 698.966 650.026 703.054L667.875 720.904Z" fill="white"/>
<path d="M361.196 334.624C358.643 332.071 355.073 331.054 351.503 332.071L311.696 342.781C308.126 343.818 305.573 346.371 304.556 349.941L293.826 389.729C292.809 393.299 293.826 396.888 296.379 399.441L325.477 428.519C327.511 430.553 330.064 431.571 332.617 431.571C333.634 431.571 334.651 431.571 335.169 431.072L374.977 420.362C378.547 419.325 381.1 416.772 382.117 413.202L392.827 373.415C393.844 369.845 392.827 366.255 390.274 363.702L361.196 334.624Z" fill="white"/>
<path d="M393.348 446.381L411.198 464.231C413.252 466.265 415.805 467.302 418.338 467.302C420.891 467.302 423.443 466.265 425.498 464.231C429.566 460.142 429.566 454.02 425.498 449.951L407.628 432.081C403.54 427.993 397.417 427.993 393.348 432.081C389.26 436.17 389.26 442.791 393.348 446.381Z" fill="white"/>
<path d="M782.198 389.729L771.469 349.941C770.452 346.371 767.899 343.818 764.329 342.781L724.521 332.071C720.951 331.054 717.381 332.071 714.828 334.624L685.75 363.702C683.198 366.255 682.181 369.845 683.198 373.415L693.907 413.202C694.925 416.772 697.477 419.325 701.047 420.362L740.855 431.072C741.872 431.072 742.909 431.571 743.408 431.571C745.961 431.571 748.513 430.553 750.548 428.519L779.646 399.441C782.198 396.888 783.216 393.299 782.198 389.729Z" fill="white"/>
<path d="M663.842 464.735L681.692 446.866C685.78 442.777 685.78 436.654 681.692 432.586C677.603 428.497 671.481 428.497 667.412 432.586L649.542 450.436C645.474 454.524 645.474 460.647 649.542 464.735C651.597 466.769 654.149 467.787 656.682 467.787C659.235 467.787 662.306 466.769 663.842 464.735Z" fill="white"/>
<path d="M293.353 763.255L304.063 803.063C305.08 806.633 307.632 809.186 311.202 810.203L351.01 820.913C352.027 820.913 353.044 821.431 353.563 821.431C356.116 821.431 358.668 820.414 360.703 818.36L389.801 789.282C392.353 786.729 393.371 783.159 392.353 779.589L381.624 739.782C380.607 736.212 378.054 733.659 374.484 732.642L334.676 721.912C331.106 720.895 327.536 721.912 324.984 724.465L295.906 753.563C293.353 756.116 292.336 759.686 293.353 763.255Z" fill="white"/>
<path d="M400.488 723.975C403.041 723.975 405.594 722.938 407.628 720.904L425.498 703.054C429.566 698.966 429.566 692.843 425.498 688.755C421.409 684.666 415.286 684.666 411.198 688.755L393.348 706.624C389.26 710.693 389.26 716.816 393.348 720.904C395.383 722.938 397.935 723.975 400.488 723.975Z" fill="white"/>
</g>
<defs>
<filter id="filter0_d_314_596" x="0.0769119" y="0.153839" width="1306.38" height="1306.38" filterUnits="userSpaceOnUse" color-interpolation-filters="sRGB">
<feFlood flood-opacity="0" result="BackgroundImageFix"/>
<feColorMatrix in="SourceAlpha" type="matrix" values="0 0 0 0 0 0 0 0 0 0 0 0 0 0 0 0 0 0 127 0" result="hardAlpha"/>
<feOffset dx="115.269" dy="76.8462"/>
<feGaussianBlur stdDeviation="76.8462"/>
<feComposite in2="hardAlpha" operator="out"/>
<feColorMatrix type="matrix" values="0 0 0 0 0 0 0 0 0 0 0 0 0 0 0 0 0 0 0.25 0"/>
<feBlend mode="normal" in2="BackgroundImageFix" result="effect1_dropShadow_314_596"/>
<feBlend mode="normal" in="SourceGraphic" in2="effect1_dropShadow_314_596" result="shape"/>
</filter>
</defs>
</svg>
