<svg width="320" height="317" viewBox="0 0 320 317" fill="none" xmlns="http://www.w3.org/2000/svg">
<g opacity="0.04">
<path d="M53.3359 126.673C53.3359 115.075 43.9339 105.673 32.3359 105.673L21.0026 105.673C9.40462 105.673 0.0026142 115.075 0.00261288 126.673L0.00261164 137.508C0.00261032 149.106 9.40463 158.508 21.0026 158.508L32.336 158.508C43.9339 158.508 53.3359 149.106 53.3359 137.508L53.3359 126.673Z" fill="#E6E7E8"/>
<path d="M4.2678 132.091C4.2678 119.836 14.295 109.9 26.6671 109.9C39.0379 109.9 49.0664 119.836 49.0664 132.091C49.0664 144.345 39.0379 154.281 26.6671 154.281C14.295 154.281 4.2678 144.345 4.2678 132.091Z" fill="#185850"/>
<path d="M53.3359 179.509C53.3359 167.911 43.9339 158.509 32.3359 158.509L21.0026 158.509C9.40462 158.509 0.0026142 167.911 0.00261288 179.509L0.00261164 190.344C0.00261032 201.942 9.40463 211.344 21.0026 211.344L32.336 211.344C43.9339 211.344 53.3359 201.942 53.3359 190.344L53.3359 179.509Z" fill="#2D945C"/>
<path d="M4.27171 184.927C4.27171 172.671 14.2989 162.736 26.671 162.736C39.0418 162.736 49.0703 172.671 49.0703 184.927C49.0703 197.182 39.0418 207.117 26.671 207.117C14.2989 207.117 4.27171 197.182 4.27171 184.927Z" fill="#E6E7E8"/>
<path d="M53.332 232.345C53.332 220.747 43.93 211.345 32.332 211.345L20.9996 211.345C9.40165 211.345 -0.000376526 220.747 -0.000377846 232.345L-0.00037908 243.18C-0.0003804 254.778 9.40164 264.18 20.9996 264.18L32.332 264.18C43.93 264.18 53.332 254.778 53.332 243.18L53.332 232.345Z" fill="#2D945C"/>
<path d="M26.671 224.68C33.9644 224.68 39.8772 230.536 39.8772 237.762C39.8772 244.988 33.9644 250.844 26.671 250.844C19.3772 250.844 13.4653 244.988 13.4653 237.762C13.4653 230.535 19.3772 224.68 26.671 224.68ZM26.671 259.953C39.0427 259.953 49.0703 250.018 49.0703 237.762C49.0703 225.507 39.0427 215.572 26.671 215.572C14.3003 215.572 4.27171 225.507 4.27171 237.762C4.27171 250.017 14.3003 259.953 26.671 259.953Z" fill="#185850"/>
<path d="M26.6688 242.996C29.5865 242.996 31.9531 240.653 31.9531 237.762C31.9531 234.871 29.5865 232.528 26.6688 232.528C23.7498 232.528 21.385 234.871 21.385 237.762C21.385 240.653 23.7498 242.996 26.6688 242.996Z" fill="#185850"/>
<path d="M160 126.673C160 115.075 150.598 105.673 139 105.673L127.668 105.673C116.07 105.673 106.668 115.075 106.668 126.673L106.668 137.508C106.668 149.106 116.07 158.508 127.668 158.508L139 158.508C150.598 158.508 160 149.106 160 137.508L160 126.673Z" fill="#185850"/>
<path d="M110.931 132.09C110.931 119.835 120.959 109.9 133.33 109.9C145.701 109.9 155.73 119.835 155.73 132.09C155.73 144.345 145.701 154.281 133.33 154.281C120.959 154.281 110.931 144.345 110.931 132.09Z" fill="#2D945C"/>
<path d="M106.668 126.673C106.668 115.075 97.266 105.673 85.668 105.673L74.3351 105.673C62.7371 105.673 53.3351 115.075 53.3351 126.673L53.3351 137.508C53.3351 149.106 62.7372 158.508 74.3351 158.508L85.668 158.508C97.266 158.508 106.668 149.106 106.668 137.508L106.668 126.673Z" fill="#185850"/>
<path d="M57.6028 132.09C57.6028 119.835 67.6309 109.9 80.003 109.9C92.3733 109.9 102.402 119.835 102.402 132.09C102.402 144.345 92.3733 154.281 80.003 154.281C67.6309 154.281 57.6028 144.345 57.6028 132.09Z" fill="#2D945C"/>
<path d="M106.664 179.51C106.664 167.912 97.262 158.51 85.6641 158.51L74.3331 158.51C62.7351 158.51 53.3331 167.912 53.3331 179.51L53.3331 190.344C53.3331 201.942 62.7351 211.344 74.3331 211.344L85.6641 211.344C97.2621 211.344 106.664 201.942 106.664 190.344L106.664 179.51Z" fill="#E6E7E8"/>
<path d="M80.003 171.844C87.2964 171.844 93.2092 177.7 93.2092 184.927C93.2092 192.152 87.2964 198.008 80.003 198.008C72.7092 198.008 66.7969 192.152 66.7969 184.927C66.7969 177.7 72.7092 171.844 80.003 171.844ZM80.003 207.117C92.3738 207.117 102.402 197.182 102.402 184.927C102.402 172.672 92.3738 162.737 80.003 162.737C67.6323 162.737 57.6037 172.672 57.6037 184.927C57.6037 197.182 67.6323 207.117 80.003 207.117Z" fill="#185850"/>
<path d="M80.0013 190.16C82.9186 190.16 85.2852 187.817 85.2852 184.927C85.2852 182.035 82.9186 179.692 80.0013 179.692C77.0822 179.692 74.7175 182.035 74.7175 184.927C74.7175 187.817 77.0822 190.16 80.0013 190.16Z" fill="#185850"/>
<path d="M213.336 126.673C213.336 115.075 203.934 105.673 192.336 105.673L181.002 105.673C169.404 105.673 160.002 115.075 160.002 126.673L160.002 137.508C160.002 149.106 169.404 158.508 181.002 158.508L192.336 158.508C203.934 158.508 213.336 149.106 213.336 137.508L213.336 126.673Z" fill="#185850"/>
<path d="M186.666 119.007C193.96 119.007 199.873 124.864 199.873 132.091C199.873 139.316 193.96 145.173 186.666 145.173C179.372 145.173 173.46 139.316 173.46 132.091C173.46 124.864 179.372 119.007 186.666 119.007ZM186.666 154.281C199.038 154.281 209.066 144.346 209.066 132.091C209.066 119.836 199.038 109.9 186.666 109.9C174.295 109.9 164.266 119.836 164.266 132.091C164.266 144.346 174.295 154.281 186.666 154.281Z" fill="#2D945C"/>
<path d="M186.665 137.324C189.583 137.324 191.949 134.982 191.949 132.092C191.949 129.199 189.583 126.857 186.665 126.857C183.746 126.857 181.382 129.199 181.382 132.092C181.382 134.981 183.746 137.324 186.665 137.324Z" fill="#2D945C"/>
<path d="M53.332 285.18C53.332 273.582 43.93 264.18 32.332 264.18L21.0024 264.18C9.40444 264.18 0.00239672 273.582 0.00239541 285.18L0.00239419 296.004C0.00239288 307.602 9.40441 317.004 21.0024 317.004L32.332 317.004C43.93 317.004 53.332 307.602 53.332 296.004L53.332 285.18Z" fill="#185850"/>
<path d="M4.27055 290.595C4.27055 278.342 14.2977 268.407 26.6685 268.407C39.0378 268.407 49.0664 278.341 49.0664 290.595C49.0664 302.85 39.0378 312.785 26.6685 312.785C14.2977 312.785 4.27055 302.85 4.27055 290.595Z" fill="#2D945C"/>
<path d="M266.664 179.508C266.664 167.91 257.262 158.508 245.664 158.508L234.331 158.508C222.733 158.508 213.331 167.91 213.331 179.508L213.331 190.344C213.331 201.942 222.733 211.344 234.331 211.344L245.664 211.344C257.262 211.344 266.664 201.942 266.664 190.344L266.664 179.508Z" fill="#E6E7E8"/>
<path d="M217.602 184.927C217.602 172.671 227.63 162.736 240.002 162.736C252.373 162.736 262.402 172.671 262.402 184.927C262.402 197.182 252.373 207.117 240.002 207.117C227.631 207.117 217.602 197.182 217.602 184.927Z" fill="#185850"/>
<path d="M159.996 232.342C159.996 220.744 150.594 211.342 138.996 211.342L127.665 211.342C116.067 211.342 106.665 220.744 106.665 232.342L106.665 243.176C106.665 254.774 116.067 264.176 127.665 264.176L138.996 264.176C150.594 264.176 159.996 254.774 159.996 243.176L159.996 232.342Z" fill="#2D945C"/>
<path d="M110.932 237.759C110.932 225.504 120.96 215.569 133.331 215.569C145.702 215.569 155.73 225.504 155.73 237.759C155.73 250.014 145.702 259.949 133.331 259.949C120.959 259.949 110.932 250.014 110.932 237.759Z" fill="#185850"/>
<path d="M159.996 73.8375C159.996 62.2395 150.594 52.8375 138.996 52.8375L127.664 52.8375C116.066 52.8375 106.664 62.2395 106.664 73.8375L106.664 84.6719C106.664 96.2698 116.066 105.672 127.664 105.672L138.996 105.672C150.594 105.672 159.996 96.2699 159.996 84.6719L159.996 73.8375Z" fill="#E6E7E8"/>
<path d="M110.931 79.2551C110.931 66.9999 120.96 57.065 133.33 57.065C145.701 57.065 155.73 66.9999 155.73 79.2552C155.73 91.5104 145.701 101.445 133.33 101.445C120.959 101.445 110.931 91.5104 110.931 79.2551Z" fill="#185850"/>
<path d="M213.336 73.8375C213.336 62.2395 203.934 52.8375 192.336 52.8375L181.004 52.8375C169.406 52.8375 160.004 62.2395 160.004 73.8375L160.004 84.6719C160.004 96.2698 169.406 105.672 181.004 105.672L192.336 105.672C203.934 105.672 213.336 96.2699 213.336 84.6719L213.336 73.8375Z" fill="#E6E7E8"/>
<path d="M164.267 79.2512C164.267 66.996 174.295 57.0611 186.666 57.0611C199.037 57.0611 209.066 66.996 209.066 79.2512C209.066 91.5065 199.037 101.441 186.666 101.441C174.295 101.441 164.267 91.5065 164.267 79.2512Z" fill="#2D945C"/>
<path d="M106.664 21.0045C106.664 9.40649 97.2621 0.00449308 85.6641 0.00449231L20.9993 0.00448799C9.40133 0.00448721 -0.000675689 9.4065 -0.000677009 21.0045L-0.000684255 84.6719C-0.000685575 96.2699 9.40134 105.672 20.9993 105.672L85.6641 105.672C97.2621 105.672 106.664 96.2699 106.664 84.6719L106.664 21.0045Z" fill="#185850"/>
<path d="M53.3303 26.6719C67.917 26.6719 79.7417 38.3866 79.7417 52.8371C79.7417 67.288 67.9174 79.0032 53.3303 79.0032C38.7423 79.0032 26.9175 67.288 26.9175 52.8371C26.9175 38.3862 38.7423 26.6719 53.3303 26.6719ZM53.3303 97.2187C78.0732 97.2187 98.1289 77.3475 98.1289 52.8371C98.1289 28.328 78.0732 8.45817 53.3303 8.45817C28.5888 8.45816 8.53031 28.328 8.53031 52.8371C8.53031 77.3475 28.5888 97.2187 53.3303 97.2187Z" fill="#E6E7E8"/>
<path d="M53.3342 63.3008C59.1687 63.3008 63.9023 58.614 63.9023 52.8327C63.9023 47.0499 59.1682 42.3655 53.3342 42.3655C47.4969 42.3655 42.767 47.0499 42.767 52.8327C42.767 58.614 47.4969 63.3008 53.3342 63.3008Z" fill="#E6E7E8"/>
<path d="M159.996 21.0016C159.996 9.40359 150.594 0.0015634 138.996 0.00156262L127.664 0.00156186C116.066 0.00156109 106.664 9.40358 106.664 21.0016L106.664 31.8359C106.664 43.4339 116.066 52.8359 127.664 52.8359L138.996 52.8359C150.594 52.8359 159.996 43.4339 159.996 31.8359L159.996 21.0016Z" fill="#E6E7E8"/>
<path d="M110.931 26.4192C110.931 14.164 120.959 4.22772 133.33 4.22772C145.701 4.22772 155.73 14.164 155.73 26.4192C155.73 38.6731 145.701 48.6094 133.33 48.6094C120.959 48.6094 110.931 38.6731 110.931 26.4192Z" fill="#2D945C"/>
<path d="M213.336 21.0016C213.336 9.40359 203.934 0.0015634 192.336 0.00156262L181.003 0.00156186C169.405 0.00156109 160.003 9.40358 160.003 21.0016L160.003 31.8359C160.003 43.4339 169.405 52.8359 181.003 52.8359L192.336 52.8359C203.934 52.8359 213.336 43.4339 213.336 31.8359L213.336 21.0016Z" fill="#2D945C"/>
<path d="M186.666 13.335C193.96 13.335 199.873 19.1931 199.873 26.4192C199.873 33.6444 193.96 39.5021 186.666 39.502C179.372 39.502 173.46 33.6444 173.46 26.4192C173.46 19.1935 179.372 13.335 186.666 13.335ZM186.666 48.6094C199.038 48.6094 209.066 38.6731 209.066 26.4192C209.066 14.164 199.038 4.22772 186.666 4.22772C174.296 4.22772 164.267 14.164 164.267 26.4192C164.267 38.6731 174.296 48.6094 186.666 48.6094Z" fill="#E6E7E8"/>
<path d="M186.664 31.6523C189.582 31.6523 191.949 29.3106 191.949 26.4192C191.949 23.5274 189.582 21.1847 186.664 21.1847C183.745 21.1847 181.382 23.5274 181.382 26.4192C181.382 29.3101 183.746 31.6523 186.664 31.6523Z" fill="#E6E7E8"/>
<path d="M266.664 21.0016C266.664 9.40359 257.262 0.0015634 245.664 0.00156262L234.332 0.00156186C222.734 0.00156109 213.332 9.40358 213.332 21.0016L213.332 31.8359C213.332 43.4339 222.734 52.8359 234.332 52.8359L245.664 52.8359C257.262 52.8359 266.664 43.4339 266.664 31.8359L266.664 21.0016Z" fill="#2D945C"/>
<path d="M217.603 26.4192C217.603 14.164 227.631 4.22909 240.003 4.22909C252.373 4.22909 262.402 14.164 262.402 26.4192C262.402 38.6745 252.373 48.6094 240.003 48.6094C227.632 48.6094 217.603 38.6745 217.603 26.4192Z" fill="#185850"/>
<path d="M320 21.0002C320 9.40218 310.598 0.000178662 299 0.000177887L287.668 0.00017713C276.07 0.000176355 266.668 9.4022 266.668 21.0002L266.668 31.836C266.668 43.4339 276.07 52.8359 287.668 52.8359L299 52.8359C310.598 52.8359 320 43.4339 320 31.8359L320 21.0002Z" fill="#E6E7E8"/>
<path d="M270.935 26.4192C270.935 14.164 280.963 4.22907 293.334 4.22907C305.705 4.22907 315.734 14.164 315.734 26.4192C315.734 38.6744 305.705 48.6094 293.334 48.6094C280.963 48.6094 270.935 38.6744 270.935 26.4192Z" fill="#2D945C"/>
</g>
</svg>
