<svg width="456" height="462" viewBox="0 0 456 462" fill="none" xmlns="http://www.w3.org/2000/svg">
<g opacity="0.1">
<path d="M75.1665 307.522L-1.00027 307.522L-1.00027 230.638L75.1665 230.638L75.1665 307.522Z" fill="#E6E7E8"/>
<path d="M5.09465 269.081C5.09465 286.915 19.4148 301.374 37.0837 301.374C54.7507 301.374 69.0728 286.915 69.0728 269.081C69.0728 251.25 54.7507 236.791 37.0837 236.791C19.4148 236.791 5.09465 251.25 5.09465 269.081Z" fill="#185850"/>
<path d="M75.1665 230.636L-1.00027 230.636L-1.00027 153.753L75.1665 153.753L75.1665 230.636Z" fill="#2D945C"/>
<path d="M5.09465 192.196C5.09465 210.029 19.4148 224.486 37.0837 224.486C54.7507 224.486 69.0728 210.029 69.0728 192.196C69.0728 174.362 54.7507 159.904 37.0837 159.904C19.4148 159.904 5.09465 174.362 5.09465 192.196Z" fill="#E6E7E8"/>
<path d="M75.1655 153.753L-0.99993 153.753L-0.999931 76.8691L75.1655 76.8691L75.1655 153.753Z" fill="#2D945C"/>
<path d="M37.0837 134.35C47.4995 134.35 55.9438 125.829 55.9438 115.313C55.9438 104.799 47.4995 96.2769 37.0837 96.2769C26.6673 96.2769 18.2243 104.799 18.2243 115.313C18.2243 125.829 26.6673 134.35 37.0837 134.35ZM37.0837 83.0215C54.752 83.0215 69.0728 97.4792 69.0728 115.313C69.0728 133.146 54.752 147.604 37.0837 147.604C19.4167 147.604 5.09465 133.146 5.09465 115.313C5.09465 97.4799 19.4167 83.0215 37.0837 83.0215Z" fill="#185850"/>
<path d="M37.0832 107.695C41.2501 107.695 44.6299 111.105 44.6299 115.312C44.6299 119.519 41.2501 122.928 37.0832 122.928C32.9144 122.928 29.5373 119.519 29.5373 115.312C29.5373 111.105 32.9144 107.695 37.0832 107.695Z" fill="#185850"/>
<path d="M227.498 307.522L151.332 307.522L151.332 230.638L227.498 230.638L227.498 307.522Z" fill="#185850"/>
<path d="M157.425 269.083C157.425 286.917 171.746 301.374 189.414 301.374C207.081 301.374 221.404 286.917 221.404 269.083C221.404 251.25 207.082 236.791 189.414 236.791C171.746 236.791 157.425 251.25 157.425 269.083Z" fill="#2D945C"/>
<path d="M151.333 307.522L75.1665 307.522L75.1665 230.638L151.333 230.638L151.333 307.522Z" fill="#185850"/>
<path d="M81.2588 269.083C81.2588 286.917 95.5802 301.374 113.249 301.374C130.916 301.374 145.238 286.917 145.238 269.083C145.238 251.25 130.916 236.791 113.249 236.791C95.5802 236.791 81.2588 251.25 81.2588 269.083Z" fill="#2D945C"/>
<path d="M151.332 230.637L75.1681 230.637L75.1681 153.755L151.332 153.755L151.332 230.637Z" fill="#E6E7E8"/>
<path d="M113.249 211.233C123.665 211.233 132.109 202.711 132.109 192.195C132.109 181.681 123.665 173.16 113.249 173.16C102.833 173.16 94.3892 181.681 94.3892 192.195C94.3892 202.711 102.833 211.233 113.249 211.233ZM113.249 159.904C130.916 159.904 145.238 174.362 145.238 192.195C145.238 210.028 130.916 224.485 113.249 224.485C95.5822 224.485 81.2601 210.028 81.2601 192.195C81.2601 174.362 95.5822 159.904 113.249 159.904Z" fill="#185850"/>
<path d="M113.25 184.579C117.416 184.579 120.796 187.989 120.796 192.195C120.796 196.403 117.416 199.812 113.25 199.812C109.081 199.812 105.704 196.403 105.704 192.195C105.704 187.989 109.081 184.579 113.25 184.579Z" fill="#185850"/>
<path d="M303.667 307.522L227.5 307.522L227.5 230.638L303.667 230.638L303.667 307.522Z" fill="#185850"/>
<path d="M265.582 288.121C275.999 288.121 284.443 279.598 284.443 269.081C284.443 258.567 275.999 250.045 265.582 250.045C255.165 250.045 246.722 258.568 246.722 269.081C246.722 279.598 255.165 288.121 265.582 288.121ZM265.582 236.791C283.251 236.791 297.573 251.248 297.573 269.081C297.573 286.915 283.251 301.374 265.582 301.374C247.915 301.374 233.593 286.915 233.593 269.081C233.593 251.248 247.915 236.791 265.582 236.791Z" fill="#2D945C"/>
<path d="M265.582 261.468C269.749 261.468 273.129 264.877 273.129 269.082C273.129 273.292 269.749 276.699 265.582 276.699C261.413 276.699 258.038 273.292 258.038 269.082C258.038 264.877 261.413 261.468 265.582 261.468Z" fill="#2D945C"/>
<path d="M75.1631 76.8685L-0.998412 76.8685L-0.998413 -0.000244149L75.1631 -0.000244141L75.1631 76.8685Z" fill="#185850"/>
<path d="M5.09467 38.4296C5.09467 56.2611 19.4148 70.7175 37.0818 70.7175C54.7468 70.7175 69.0688 56.2618 69.0688 38.4296C69.0688 20.5967 54.7468 6.13965 37.0818 6.13965C19.4148 6.13965 5.09467 20.5967 5.09467 38.4296Z" fill="#2D945C"/>
<path d="M379.833 230.638L303.666 230.638L303.666 153.753L379.833 153.753L379.833 230.638Z" fill="#E6E7E8"/>
<path d="M309.759 192.196C309.759 210.029 324.081 224.487 341.749 224.487C359.416 224.487 373.74 210.029 373.74 192.196C373.74 174.362 359.417 159.904 341.749 159.904C324.082 159.904 309.759 174.362 309.759 192.196Z" fill="#185850"/>
<path d="M227.498 153.756L151.333 153.756L151.333 76.8735L227.498 76.8735L227.498 153.756Z" fill="#2D945C"/>
<path d="M157.425 115.314C157.425 133.148 171.746 147.605 189.414 147.605C207.081 147.605 221.403 133.148 221.403 115.314C221.403 97.4814 207.081 83.0237 189.414 83.0237C171.746 83.0237 157.425 97.4814 157.425 115.314Z" fill="#185850"/>
<path d="M227.498 384.41L151.333 384.41L151.333 307.527L227.498 307.527L227.498 384.41Z" fill="#E6E7E8"/>
<path d="M157.425 345.968C157.425 363.801 171.747 378.258 189.414 378.258C207.081 378.258 221.404 363.801 221.404 345.968C221.404 328.134 207.082 313.677 189.414 313.677C171.747 313.677 157.425 328.134 157.425 345.968Z" fill="#185850"/>
<path d="M303.665 384.41L227.499 384.41L227.499 307.527L303.665 307.527L303.665 384.41Z" fill="#E6E7E8"/>
<path d="M233.592 345.968C233.592 363.801 247.914 378.258 265.581 378.258C283.248 378.258 297.572 363.801 297.572 345.968C297.572 328.134 283.249 313.677 265.581 313.677C247.914 313.677 233.592 328.134 233.592 345.968Z" fill="#2D945C"/>
<path d="M151.332 461.294L-0.999281 461.294L-0.999283 307.529L151.332 307.529L151.332 461.294Z" fill="#185850"/>
<path d="M75.1664 422.486C95.9981 422.486 112.885 405.439 112.885 384.411C112.885 363.383 95.9987 346.335 75.1664 346.335C54.3328 346.335 37.4457 363.383 37.4457 384.411C37.4457 405.44 54.3328 422.486 75.1664 422.486ZM75.1664 319.828C110.502 319.828 139.145 348.744 139.145 384.411C139.145 420.076 110.502 448.99 75.1664 448.99C39.8325 448.99 11.1863 420.076 11.1863 384.411C11.1863 348.744 39.8325 319.828 75.1664 319.828Z" fill="#E6E7E8"/>
<path d="M75.1661 369.18C83.4985 369.18 90.2588 376 90.2588 384.413C90.2588 392.828 83.4979 399.645 75.1661 399.645C66.8298 399.645 60.0748 392.828 60.0748 384.413C60.0748 376 66.8298 369.18 75.1661 369.18Z" fill="#E6E7E8"/>
<path d="M227.498 461.295L151.332 461.295L151.332 384.412L227.498 384.412L227.498 461.295Z" fill="#E6E7E8"/>
<path d="M157.425 422.852C157.425 440.685 171.746 455.144 189.414 455.144C207.081 455.144 221.404 440.685 221.404 422.852C221.404 405.02 207.082 390.561 189.414 390.561C171.746 390.561 157.425 405.02 157.425 422.852Z" fill="#2D945C"/>
<path d="M303.665 461.295L227.498 461.295L227.498 384.412L303.665 384.412L303.665 461.295Z" fill="#2D945C"/>
<path d="M265.581 441.891C275.997 441.891 284.442 433.367 284.442 422.852C284.442 412.338 275.997 403.814 265.581 403.814C255.165 403.814 246.721 412.338 246.721 422.852C246.721 433.366 255.165 441.891 265.581 441.891ZM265.581 390.561C283.25 390.561 297.572 405.02 297.572 422.852C297.572 440.685 283.25 455.144 265.581 455.144C247.915 455.144 233.592 440.685 233.592 422.852C233.592 405.02 247.915 390.561 265.581 390.561Z" fill="#E6E7E8"/>
<path d="M265.582 415.237C269.748 415.237 273.129 418.645 273.129 422.852C273.129 427.06 269.748 430.469 265.582 430.469C261.413 430.469 258.037 427.06 258.037 422.852C258.037 418.645 261.413 415.237 265.582 415.237Z" fill="#E6E7E8"/>
<path d="M379.832 461.295L303.667 461.295L303.667 384.412L379.832 384.412L379.832 461.295Z" fill="#2D945C"/>
<path d="M309.759 422.855C309.759 440.689 324.081 455.146 341.75 455.146C359.416 455.146 373.739 440.689 373.739 422.855C373.739 405.022 359.416 390.564 341.75 390.564C324.082 390.564 309.759 405.022 309.759 422.855Z" fill="#185850"/>
<path d="M456 461.295H379.835L379.835 384.41H456L456 461.295Z" fill="#E6E7E8"/>
<path d="M385.928 422.852C385.928 440.685 400.249 455.142 417.917 455.142C435.584 455.142 449.907 440.685 449.907 422.852C449.907 405.018 435.585 390.561 417.917 390.561C400.249 390.561 385.928 405.018 385.928 422.852Z" fill="#2D945C"/>
</g>
</svg>
