<svg width="829" height="565" viewBox="0 0 829 565" fill="none" xmlns="http://www.w3.org/2000/svg">
<g opacity="0.15">
<path d="M612.858 70.5601H689.464V0.00195312H612.858V70.5601Z" fill="#E6E7E8"/>
<path d="M651.16 52.7516C640.683 52.7516 632.192 44.9317 632.192 35.2804C632.192 25.6314 640.683 17.8115 651.16 17.8115C661.636 17.8115 670.131 25.6314 670.131 35.2804C670.131 44.9317 661.636 52.7516 651.16 52.7516ZM651.16 5.64551C633.389 5.64551 618.986 18.9147 618.986 35.2804C618.986 51.6469 633.39 64.9152 651.16 64.9152C668.929 64.9152 683.335 51.6469 683.335 35.2804C683.335 18.9147 668.929 5.64551 651.16 5.64551Z" fill="#2D945C"/>
<path d="M651.162 28.29C646.971 28.29 643.57 31.4188 643.57 35.2796C643.57 39.1428 646.97 42.27 651.162 42.27C655.354 42.27 658.75 39.142 658.75 35.2796C658.75 31.4196 655.354 28.29 651.162 28.29Z" fill="#2D945C"/>
<path d="M612.858 141.12H689.464V70.5615H612.858V141.12Z" fill="#2D945C"/>
<path d="M683.335 105.84C683.335 122.206 668.931 135.474 651.16 135.474C633.39 135.474 618.986 122.206 618.986 105.84C618.986 89.4727 633.391 76.2051 651.16 76.2051C668.931 76.2051 683.335 89.4727 683.335 105.84Z" fill="#E6E7E8"/>
<path d="M612.858 211.674H689.459V141.12H612.858V211.674Z" fill="#2D945C"/>
<path d="M651.16 193.868C640.682 193.868 632.191 186.047 632.191 176.396C632.191 166.747 640.682 158.926 651.16 158.926C661.634 158.926 670.127 166.747 670.127 176.396C670.127 186.047 661.635 193.868 651.16 193.868ZM651.16 146.765C633.389 146.765 618.988 160.031 618.988 176.397C618.988 192.763 633.39 206.03 651.16 206.03C668.928 206.03 683.333 192.762 683.333 176.397C683.333 160.031 668.928 146.765 651.16 146.765Z" fill="#E6E7E8"/>
<path d="M651.161 169.408C646.97 169.408 643.571 172.536 643.571 176.396C643.571 180.258 646.97 183.386 651.161 183.386C655.353 183.386 658.749 180.258 658.749 176.396C658.749 172.536 655.353 169.408 651.161 169.408Z" fill="#E6E7E8"/>
<path d="M612.858 282.234H689.46V211.678H612.858V282.234Z" fill="#E6E7E8"/>
<path d="M651.159 264.427C640.682 264.427 632.191 256.605 632.191 246.956C632.191 237.307 640.682 229.486 651.159 229.486C661.634 229.486 670.128 237.306 670.128 246.956C670.128 256.605 661.634 264.427 651.159 264.427ZM651.159 217.323C633.388 217.323 618.986 230.59 618.986 246.956C618.986 263.321 633.388 276.59 651.159 276.59C668.928 276.59 683.332 263.321 683.332 246.956C683.332 230.59 668.928 217.323 651.159 217.323Z" fill="#185850"/>
<path d="M651.161 239.966C646.97 239.966 643.571 243.096 643.571 246.955C643.571 250.817 646.97 253.946 651.161 253.946C655.353 253.946 658.749 250.816 658.749 246.955C658.749 243.096 655.353 239.966 651.161 239.966Z" fill="#185850"/>
<path d="M612.858 423.356H689.46V352.8H612.858V423.356Z" fill="#E6E7E8"/>
<path d="M651.159 405.55C640.682 405.55 632.191 397.73 632.191 388.079C632.191 378.429 640.682 370.609 651.159 370.609C661.634 370.609 670.128 378.429 670.128 388.079C670.128 397.73 661.634 405.55 651.159 405.55ZM651.159 358.444C633.388 358.444 618.986 371.713 618.986 388.079C618.986 404.445 633.388 417.712 651.159 417.712C668.928 417.712 683.332 404.444 683.332 388.079C683.332 371.713 668.928 358.444 651.159 358.444Z" fill="#2D945C"/>
<path d="M651.161 381.089C646.97 381.089 643.571 384.218 643.571 388.078C643.571 391.939 646.97 395.067 651.161 395.067C655.353 395.067 658.749 391.939 658.749 388.078C658.749 384.218 655.353 381.089 651.161 381.089Z" fill="#2D945C"/>
<path d="M612.861 352.793H689.463V282.237H612.861V352.793Z" fill="#185850"/>
<path d="M651.16 334.987C640.682 334.987 632.191 327.166 632.191 317.516C632.191 307.868 640.682 300.046 651.16 300.046C661.634 300.046 670.127 307.868 670.127 317.516C670.127 327.166 661.635 334.987 651.16 334.987ZM651.16 287.882C633.389 287.882 618.988 301.15 618.988 317.515C618.988 333.881 633.39 347.148 651.16 347.148C668.929 347.148 683.333 333.881 683.333 317.515C683.333 301.149 668.929 287.882 651.16 287.882Z" fill="#E6E7E8"/>
<path d="M651.161 310.526C646.97 310.526 643.571 313.657 643.571 317.516C643.571 321.376 646.97 324.506 651.161 324.506C655.353 324.506 658.749 321.376 658.749 317.516C658.749 313.657 655.353 310.526 651.161 310.526Z" fill="#E6E7E8"/>
<path d="M536.253 423.356H612.858V352.8H536.253V423.356Z" fill="#2D945C"/>
<path d="M574.556 405.55C564.08 405.55 555.587 397.728 555.587 388.079C555.587 378.429 564.08 370.608 574.556 370.608C585.031 370.608 593.522 378.429 593.522 388.079C593.522 397.728 585.031 405.55 574.556 405.55ZM574.556 358.444C556.786 358.444 542.381 371.711 542.381 388.079C542.381 404.446 556.786 417.712 574.556 417.712C592.325 417.712 606.729 404.446 606.729 388.079C606.729 371.711 592.325 358.444 574.556 358.444Z" fill="#E6E7E8"/>
<path d="M574.557 381.089C570.366 381.089 566.966 384.215 566.966 388.078C566.966 391.94 570.366 395.067 574.557 395.067C578.75 395.067 582.144 391.94 582.144 388.078C582.144 384.215 578.75 381.089 574.557 381.089Z" fill="#E6E7E8"/>
<path d="M536.253 352.8H612.861V282.24H536.253V352.8Z" fill="#E6E7E8"/>
<path d="M574.555 334.992C564.08 334.992 555.585 327.171 555.585 317.521C555.585 307.871 564.08 300.051 574.555 300.051C585.031 300.051 593.524 307.871 593.524 317.521C593.524 327.171 585.031 334.992 574.555 334.992ZM574.555 287.885C556.785 287.885 542.38 301.154 542.38 317.52C542.38 333.887 556.785 347.155 574.555 347.155C592.325 347.155 606.729 333.887 606.729 317.52C606.729 301.153 592.325 287.885 574.555 287.885Z" fill="#2D945C"/>
<path d="M574.557 310.529C570.366 310.529 566.966 313.66 566.966 317.52C566.966 321.38 570.366 324.51 574.557 324.51C578.75 324.51 582.145 321.38 582.145 317.52C582.145 313.66 578.749 310.529 574.557 310.529Z" fill="#2D945C"/>
<path d="M536.253 282.24H612.858V211.682H536.253V282.24Z" fill="#185850"/>
<path d="M606.728 246.96C606.728 263.327 592.324 276.595 574.555 276.595C556.785 276.595 542.38 263.327 542.38 246.96C542.38 230.595 556.785 217.327 574.555 217.327C592.324 217.327 606.728 230.596 606.728 246.96Z" fill="#2D945C"/>
<path d="M536.253 211.679H612.857V141.122H536.253V211.679Z" fill="#E6E7E8"/>
<path d="M606.727 176.399C606.727 192.767 592.325 206.034 574.554 206.034C556.786 206.034 542.381 192.766 542.381 176.399C542.381 160.034 556.786 146.768 574.554 146.768C592.325 146.768 606.727 160.034 606.727 176.399Z" fill="#2D945C"/>
<path d="M459.643 141.122H612.857V0.000976562H459.643V141.122Z" fill="#185850"/>
<path d="M600.601 70.5615C600.601 103.294 571.792 129.832 536.251 129.832C500.712 129.832 471.899 103.295 471.899 70.5615C471.899 37.8286 500.712 11.291 536.251 11.291C571.792 11.291 600.601 37.8286 600.601 70.5615Z" fill="#E6E7E8"/>
<path d="M459.647 211.674H536.248V141.119H459.647V211.674Z" fill="#2D945C"/>
<path d="M497.945 193.868C487.47 193.868 478.978 186.047 478.978 176.396C478.978 166.747 487.47 158.926 497.945 158.926C508.421 158.926 516.913 166.747 516.913 176.396C516.913 186.047 508.421 193.868 497.945 193.868ZM497.945 146.765C480.176 146.765 465.772 160.031 465.772 176.397C465.772 192.764 480.176 206.03 497.945 206.03C515.714 206.03 530.118 192.764 530.118 176.397C530.118 160.031 515.713 146.765 497.945 146.765Z" fill="#E6E7E8"/>
<path d="M497.947 169.408C493.756 169.408 490.357 172.536 490.357 176.396C490.357 180.258 493.756 183.387 497.947 183.387C502.14 183.387 505.536 180.258 505.536 176.396C505.536 172.536 502.14 169.408 497.947 169.408Z" fill="#E6E7E8"/>
<path d="M459.645 282.236H536.251V211.677H459.645V282.236Z" fill="#185850"/>
<path d="M530.122 246.958C530.122 263.325 515.716 276.593 497.948 276.593C480.178 276.593 465.772 263.325 465.772 246.958C465.772 230.592 480.179 217.323 497.948 217.323C515.717 217.323 530.122 230.592 530.122 246.958Z" fill="#2D945C"/>
<path d="M459.645 423.356H536.25V352.8H459.645V423.356Z" fill="#185850"/>
<path d="M497.946 405.55C487.47 405.55 478.978 397.728 478.978 388.079C478.978 378.429 487.47 370.608 497.946 370.608C508.422 370.608 516.915 378.429 516.915 388.079C516.915 397.728 508.422 405.55 497.946 405.55ZM497.946 358.444C480.175 358.444 465.772 371.713 465.772 388.079C465.772 404.446 480.176 417.712 497.946 417.712C515.715 417.712 530.121 404.446 530.121 388.079C530.121 371.713 515.715 358.444 497.946 358.444Z" fill="#2D945C"/>
<path d="M497.947 381.089C493.756 381.089 490.357 384.218 490.357 388.078C490.357 391.94 493.756 395.068 497.947 395.068C502.14 395.068 505.536 391.94 505.536 388.078C505.536 384.218 502.14 381.089 497.947 381.089Z" fill="#2D945C"/>
<path d="M459.645 352.795H536.25V282.237H459.645V352.795Z" fill="#E6E7E8"/>
<path d="M497.946 334.987C487.47 334.987 478.978 327.165 478.978 317.516C478.978 307.867 487.47 300.046 497.946 300.046C508.422 300.046 516.915 307.867 516.915 317.516C516.915 327.165 508.422 334.987 497.946 334.987ZM497.946 287.881C480.175 287.881 465.772 301.15 465.772 317.516C465.772 333.881 480.176 347.149 497.946 347.149C515.715 347.149 530.121 333.881 530.121 317.516C530.121 301.15 515.715 287.881 497.946 287.881Z" fill="#2D945C"/>
<path d="M497.947 310.524C493.756 310.524 490.357 313.655 490.357 317.516C490.357 321.376 493.756 324.506 497.947 324.506C502.138 324.506 505.536 321.376 505.536 317.516C505.536 313.656 502.138 310.524 497.947 310.524Z" fill="#2D945C"/>
<path d="M383.038 423.356H459.642V352.8H383.038V423.356Z" fill="#2D945C"/>
<path d="M421.34 405.55C410.864 405.55 402.371 397.73 402.371 388.079C402.371 378.429 410.864 370.609 421.34 370.609C431.816 370.609 440.309 378.429 440.309 388.079C440.309 397.73 431.816 405.55 421.34 405.55ZM421.34 358.444C403.569 358.444 389.167 371.713 389.167 388.079C389.167 404.445 403.569 417.712 421.34 417.712C439.108 417.712 453.513 404.444 453.513 388.079C453.513 371.713 439.108 358.444 421.34 358.444Z" fill="#185850"/>
<path d="M421.34 381.089C417.149 381.089 413.75 384.218 413.75 388.078C413.75 391.939 417.149 395.067 421.34 395.067C425.531 395.067 428.929 391.939 428.929 388.078C428.929 384.218 425.531 381.089 421.34 381.089Z" fill="#185850"/>
<path d="M383.035 352.8H459.643V282.24H383.035V352.8Z" fill="#E6E7E8"/>
<path d="M453.515 317.52C453.515 333.887 439.111 347.154 421.341 347.154C403.571 347.154 389.165 333.887 389.165 317.52C389.165 301.153 403.571 287.885 421.341 287.885C439.111 287.885 453.515 301.154 453.515 317.52Z" fill="#185850"/>
<path d="M383.038 282.238H459.642V211.683H383.038V282.238Z" fill="#185850"/>
<path d="M421.34 264.431C410.864 264.431 402.371 256.61 402.371 246.961C402.371 237.312 410.864 229.49 421.34 229.49C431.816 229.49 440.309 237.312 440.309 246.961C440.309 256.61 431.816 264.431 421.34 264.431ZM421.34 217.328C403.569 217.328 389.167 230.595 389.167 246.961C389.167 263.326 403.569 276.594 421.34 276.594C439.108 276.594 453.513 263.326 453.513 246.961C453.513 230.595 439.108 217.328 421.34 217.328Z" fill="#2D945C"/>
<path d="M421.34 239.971C417.149 239.971 413.75 243.101 413.75 246.96C413.75 250.822 417.149 253.951 421.34 253.951C425.531 253.951 428.929 250.821 428.929 246.96C428.929 243.102 425.531 239.971 421.34 239.971Z" fill="#2D945C"/>
<path d="M383.038 211.679H459.642V141.122H383.038V211.679Z" fill="#E6E7E8"/>
<path d="M453.513 176.401C453.513 192.767 439.109 206.034 421.34 206.034C403.572 206.034 389.167 192.767 389.167 176.401C389.167 160.035 403.573 146.768 421.34 146.768C439.109 146.768 453.513 160.035 453.513 176.401Z" fill="#2D945C"/>
<path d="M383.035 70.5597H459.643V0H383.035V70.5597Z" fill="#E6E7E8"/>
<path d="M453.515 35.2802C453.515 51.6482 439.111 64.915 421.341 64.915C403.571 64.915 389.165 51.6482 389.165 35.2802C389.165 18.9145 403.571 5.64453 421.341 5.64453C439.111 5.64453 453.515 18.9153 453.515 35.2802Z" fill="#2D945C"/>
<path d="M383.041 141.12H459.643V70.5645H383.041V141.12Z" fill="#E6E7E8"/>
<path d="M421.34 123.314C410.864 123.314 402.372 115.493 402.372 105.843C402.372 96.1941 410.864 88.3726 421.34 88.3726C431.816 88.3726 440.308 96.1941 440.308 105.843C440.308 115.493 431.817 123.314 421.34 123.314ZM421.34 76.209C403.57 76.209 389.167 89.4774 389.167 105.842C389.167 122.208 403.571 135.475 421.34 135.475C439.108 135.475 453.512 122.208 453.512 105.842C453.512 89.4766 439.108 76.209 421.34 76.209Z" fill="#185850"/>
<path d="M421.34 98.8535C417.149 98.8535 413.75 101.984 413.75 105.843C413.75 109.703 417.149 112.833 421.34 112.833C425.531 112.833 428.929 109.704 428.929 105.843C428.929 101.984 425.531 98.8535 421.34 98.8535Z" fill="#185850"/>
<path d="M306.428 70.5597H383.034V0H306.428V70.5597Z" fill="#185850"/>
<path d="M344.732 52.753C334.255 52.753 325.763 44.9307 325.763 35.2802C325.763 25.6312 334.255 17.8089 344.732 17.8089C355.208 17.8089 363.702 25.6312 363.702 35.2802C363.702 44.9299 355.208 52.753 344.732 52.753ZM344.732 5.64453C326.962 5.64453 312.557 18.9137 312.557 35.2802C312.557 51.6467 326.962 64.915 344.732 64.915C362.502 64.915 376.907 51.6467 376.907 35.2802C376.907 18.9137 362.502 5.64453 344.732 5.64453Z" fill="#E6E7E8"/>
<path d="M344.733 28.29C340.542 28.29 337.143 31.4188 337.143 35.2796C337.143 39.1428 340.542 42.27 344.733 42.27C348.926 42.27 352.322 39.142 352.322 35.2796C352.322 31.4196 348.926 28.29 344.733 28.29Z" fill="#E6E7E8"/>
<path d="M306.428 141.12H383.032V70.5615H306.428V141.12Z" fill="#E6E7E8"/>
<path d="M344.731 123.313C334.255 123.313 325.763 115.491 325.763 105.841C325.763 96.191 334.255 88.3703 344.731 88.3703C355.208 88.3703 363.7 96.1902 363.7 105.841C363.7 115.491 355.208 123.313 344.731 123.313ZM344.731 76.2051C326.96 76.2051 312.557 89.4727 312.557 105.841C312.557 122.206 326.96 135.474 344.731 135.474C362.501 135.474 376.905 122.206 376.905 105.841C376.905 89.4727 362.5 76.2051 344.731 76.2051Z" fill="#2D945C"/>
<path d="M344.733 98.8506C340.543 98.8506 337.142 101.981 337.142 105.841C337.142 109.701 340.543 112.829 344.733 112.829C348.925 112.829 352.321 109.701 352.321 105.841C352.321 101.981 348.925 98.8506 344.733 98.8506Z" fill="#2D945C"/>
<path d="M306.432 211.674H383.034V141.119H306.432V211.674Z" fill="#185850"/>
<path d="M344.732 193.869C334.256 193.869 325.763 186.047 325.763 176.396C325.763 166.747 334.256 158.926 344.732 158.926C355.207 158.926 363.699 166.746 363.699 176.396C363.699 186.047 355.207 193.869 344.732 193.869ZM344.732 146.764C326.962 146.764 312.559 160.03 312.559 176.396C312.559 192.763 326.962 206.029 344.732 206.029C362.5 206.029 376.904 192.763 376.904 176.396C376.904 160.03 362.5 146.764 344.732 146.764Z" fill="#E6E7E8"/>
<path d="M344.733 169.408C340.542 169.408 337.143 172.538 337.143 176.396C337.143 180.258 340.542 183.387 344.733 183.387C348.924 183.387 352.322 180.258 352.322 176.396C352.322 172.537 348.924 169.408 344.733 169.408Z" fill="#E6E7E8"/>
<path d="M306.428 282.236H383.032V211.677H306.428V282.236Z" fill="#E6E7E8"/>
<path d="M376.905 246.958C376.905 263.324 362.501 276.593 344.731 276.593C326.962 276.593 312.557 263.324 312.557 246.958C312.557 230.592 326.962 217.323 344.731 217.323C362.502 217.323 376.905 230.592 376.905 246.958Z" fill="#2D945C"/>
<path d="M306.431 423.356H383.034V352.8H306.431V423.356Z" fill="#E6E7E8"/>
<path d="M376.905 388.079C376.905 404.446 362.501 417.712 344.732 417.712C326.963 417.712 312.558 404.446 312.558 388.079C312.558 371.711 326.963 358.444 344.732 358.444C362.502 358.444 376.905 371.711 376.905 388.079Z" fill="#185850"/>
<path d="M306.431 352.793H383.033V282.237H306.431V352.793Z" fill="#E6E7E8"/>
<path d="M344.731 334.986C334.255 334.986 325.763 327.166 325.763 317.515C325.763 307.866 334.255 300.045 344.731 300.045C355.207 300.045 363.699 307.866 363.699 317.515C363.699 327.165 355.207 334.986 344.731 334.986ZM344.731 287.882C326.962 287.882 312.559 301.15 312.559 317.515C312.559 333.881 326.961 347.148 344.731 347.148C362.499 347.148 376.904 333.881 376.904 317.515C376.904 301.149 362.498 287.882 344.731 287.882Z" fill="#2D945C"/>
<path d="M344.732 310.524C340.541 310.524 337.143 313.655 337.143 317.516C337.143 321.376 340.541 324.506 344.732 324.506C348.925 324.506 352.32 321.376 352.32 317.516C352.32 313.656 348.924 310.524 344.732 310.524Z" fill="#2D945C"/>
<path d="M229.824 423.356H306.43V352.8H229.824V423.356Z" fill="#185850"/>
<path d="M268.125 405.55C257.649 405.55 249.156 397.728 249.156 388.079C249.156 378.429 257.649 370.608 268.125 370.608C278.601 370.608 287.094 378.429 287.094 388.079C287.094 397.728 278.601 405.55 268.125 405.55ZM268.125 358.444C250.354 358.444 235.951 371.713 235.951 388.079C235.951 404.446 250.355 417.712 268.125 417.712C285.894 417.712 300.298 404.446 300.298 388.079C300.298 371.713 285.894 358.444 268.125 358.444Z" fill="#E6E7E8"/>
<path d="M268.127 381.089C263.936 381.089 260.537 384.218 260.537 388.078C260.537 391.94 263.936 395.068 268.127 395.068C272.319 395.068 275.715 391.94 275.715 388.078C275.715 384.218 272.319 381.089 268.127 381.089Z" fill="#E6E7E8"/>
<path d="M229.823 352.799H306.428V282.241H229.823V352.799Z" fill="#2D945C"/>
<path d="M268.124 334.991C257.648 334.991 249.156 327.169 249.156 317.52C249.156 307.871 257.647 300.048 268.124 300.048C278.6 300.048 287.093 307.871 287.093 317.52C287.093 327.169 278.6 334.991 268.124 334.991ZM268.124 287.885C250.355 287.885 235.949 301.155 235.949 317.52C235.949 333.885 250.355 347.153 268.124 347.153C285.893 347.153 300.299 333.885 300.299 317.52C300.299 301.154 285.893 287.885 268.124 287.885Z" fill="#E6E7E8"/>
<path d="M268.125 310.529C263.934 310.529 260.535 313.658 260.535 317.52C260.535 321.38 263.934 324.509 268.125 324.509C272.318 324.509 275.714 321.381 275.714 317.52C275.714 313.658 272.318 310.529 268.125 310.529Z" fill="#E6E7E8"/>
<path d="M229.824 282.24H306.43V211.682H229.824V282.24Z" fill="#185850"/>
<path d="M300.298 246.96C300.298 263.327 285.896 276.595 268.125 276.595C250.355 276.595 235.951 263.327 235.951 246.96C235.951 230.594 250.356 217.327 268.125 217.327C285.896 217.327 300.298 230.594 300.298 246.96Z" fill="#E6E7E8"/>
<path d="M229.823 211.679H306.429V141.122H229.823V211.679Z" fill="#185850"/>
<path d="M268.124 193.873C257.648 193.873 249.155 186.049 249.155 176.4C249.155 166.75 257.648 158.929 268.124 158.929C278.602 158.929 287.094 166.75 287.094 176.4C287.094 186.049 278.602 193.873 268.124 193.873ZM268.124 146.766C250.353 146.766 235.949 160.034 235.949 176.4C235.949 192.769 250.353 206.035 268.124 206.035C285.893 206.035 300.299 192.768 300.299 176.4C300.299 160.034 285.893 146.766 268.124 146.766Z" fill="#E6E7E8"/>
<path d="M268.125 169.411C263.935 169.411 260.535 172.541 260.535 176.401C260.535 180.262 263.935 183.39 268.125 183.39C272.318 183.39 275.714 180.262 275.714 176.401C275.714 172.541 272.318 169.411 268.125 169.411Z" fill="#E6E7E8"/>
<path d="M229.823 70.5605H306.428V0.00390625H229.823V70.5605Z" fill="#E6E7E8"/>
<path d="M300.299 35.2807C300.299 51.6472 285.895 64.914 268.124 64.914C250.356 64.914 235.949 51.6472 235.949 35.2807C235.949 18.9143 250.356 5.64746 268.124 5.64746C285.895 5.64746 300.299 18.9143 300.299 35.2807Z" fill="#2D945C"/>
<path d="M229.827 141.12H306.43V70.5645H229.827V141.12Z" fill="#2D945C"/>
<path d="M268.126 123.313C257.65 123.313 249.158 115.492 249.158 105.842C249.158 96.1933 257.65 88.3718 268.126 88.3718C278.602 88.3718 287.094 96.1933 287.094 105.842C287.094 115.492 278.603 123.313 268.126 123.313ZM268.126 76.209C250.356 76.209 235.953 89.4774 235.953 105.842C235.953 122.208 250.357 135.475 268.126 135.475C285.894 135.475 300.299 122.208 300.299 105.842C300.299 89.4766 285.894 76.209 268.126 76.209Z" fill="#185850"/>
<path d="M268.127 98.8525C263.936 98.8525 260.537 101.983 260.537 105.843C260.537 109.703 263.936 112.833 268.127 112.833C272.319 112.833 275.715 109.704 275.715 105.843C275.715 101.983 272.319 98.8525 268.127 98.8525Z" fill="#185850"/>
<path d="M0.00292969 141.115H153.209V0.00195312H0.00292969V141.115Z" fill="#2D945C"/>
<path d="M140.951 70.5592C140.951 103.29 112.144 129.826 76.6047 129.826C41.068 129.826 12.2578 103.29 12.2578 70.5592C12.2578 37.827 41.0672 11.291 76.6047 11.291C112.144 11.291 140.951 37.827 140.951 70.5592Z" fill="#E6E7E8"/>
<path d="M0.00488281 211.674H76.6034V141.122H0.00488281V211.674Z" fill="#E6E7E8"/>
<path d="M70.4753 176.396C70.4753 192.763 56.0731 206.029 38.3031 206.029C20.5348 206.029 6.13184 192.763 6.13184 176.396C6.13184 160.03 20.5357 146.764 38.3031 146.764C56.0723 146.764 70.4753 160.03 70.4753 176.396Z" fill="#2D945C"/>
<path d="M0 282.234H76.6045V211.677H0V282.234Z" fill="#E6E7E8"/>
<path d="M38.3037 264.428C27.8278 264.428 19.3351 256.608 19.3351 246.956C19.3351 237.307 27.8278 229.487 38.3037 229.487C48.7796 229.487 57.2724 237.307 57.2724 246.956C57.2724 256.608 48.7796 264.428 38.3037 264.428ZM38.3037 217.322C20.5337 217.322 6.12988 230.591 6.12988 246.956C6.12988 263.323 20.5337 276.59 38.3037 276.59C56.0729 276.59 70.4776 263.322 70.4776 246.956C70.4776 230.591 56.0729 217.322 38.3037 217.322Z" fill="#2D945C"/>
<path d="M38.3024 239.968C34.1124 239.968 30.7129 243.097 30.7129 246.956C30.7129 250.818 34.1124 253.946 38.3024 253.946C42.495 253.946 45.891 250.818 45.891 246.956C45.891 243.097 42.495 239.968 38.3024 239.968Z" fill="#2D945C"/>
<path d="M0 423.356H76.6045V352.8H0V423.356Z" fill="#E6E7E8"/>
<path d="M70.4776 388.079C70.4776 404.446 56.0746 417.712 38.3037 417.712C20.5354 417.712 6.12988 404.446 6.12988 388.079C6.12988 371.711 20.5354 358.444 38.3037 358.444C56.0738 358.444 70.4776 371.711 70.4776 388.079Z" fill="#2D945C"/>
<path d="M0.00390625 352.791H76.6032V282.238H0.00390625V352.791Z" fill="#E6E7E8"/>
<path d="M38.3023 334.985C27.8272 334.985 19.3354 327.166 19.3354 317.515C19.3354 307.867 27.8272 300.045 38.3023 300.045C48.7782 300.045 57.2701 307.867 57.2701 317.515C57.2701 327.165 48.7782 334.985 38.3023 334.985ZM38.3023 287.882C20.534 287.882 6.13184 301.15 6.13184 317.515C6.13184 333.881 20.5348 347.148 38.3023 347.148C56.0706 347.148 70.4744 333.881 70.4744 317.515C70.4744 301.149 56.0706 287.882 38.3023 287.882Z" fill="#185850"/>
<path d="M38.3024 310.526C34.1124 310.526 30.7129 313.656 30.7129 317.516C30.7129 321.378 34.1115 324.506 38.3024 324.506C42.4941 324.506 45.891 321.378 45.891 317.516C45.891 313.656 42.495 310.526 38.3024 310.526Z" fill="#185850"/>
<path d="M76.6094 282.24H153.216V211.681H76.6094V282.24Z" fill="#2D945C"/>
<path d="M114.912 264.431C104.435 264.431 95.9424 256.609 95.9424 246.959C95.9424 237.31 104.435 229.487 114.912 229.487C125.388 229.487 133.881 237.31 133.881 246.959C133.881 256.609 125.388 264.431 114.912 264.431ZM114.912 217.325C97.1402 217.325 82.7363 230.593 82.7363 246.958C82.7363 263.325 97.1402 276.594 114.912 276.594C132.68 276.594 147.086 263.325 147.086 246.958C147.086 230.593 132.679 217.325 114.912 217.325Z" fill="#E6E7E8"/>
<path d="M114.913 239.97C110.722 239.97 107.322 243.099 107.322 246.959C107.322 250.822 110.722 253.95 114.913 253.95C119.105 253.95 122.501 250.822 122.501 246.959C122.501 243.099 119.105 239.97 114.913 239.97Z" fill="#E6E7E8"/>
<path d="M76.6094 211.678H153.211V141.124H76.6094V211.678Z" fill="#2D945C"/>
<path d="M114.912 193.872C104.436 193.872 95.9436 186.05 95.9436 176.401C95.9436 166.752 104.435 158.931 114.912 158.931C125.388 158.931 133.88 166.752 133.88 176.401C133.88 186.05 125.388 193.872 114.912 193.872ZM114.912 146.769C97.1422 146.769 82.7393 160.035 82.7393 176.401C82.7393 192.768 97.1422 206.035 114.912 206.035C132.681 206.035 147.084 192.768 147.084 176.401C147.084 160.035 132.681 146.769 114.912 146.769Z" fill="#E6E7E8"/>
<path d="M114.913 169.413C110.722 169.413 107.322 172.541 107.322 176.401C107.322 180.263 110.722 183.391 114.913 183.391C119.103 183.391 122.501 180.263 122.501 176.401C122.501 172.541 119.103 169.413 114.913 169.413Z" fill="#E6E7E8"/>
<path d="M153.214 70.5597H229.822V0H153.214V70.5597Z" fill="#E6E7E8"/>
<path d="M223.693 35.2802C223.693 51.6467 209.288 64.915 191.518 64.915C173.748 64.915 159.344 51.6467 159.344 35.2802C159.344 18.9137 173.749 5.64453 191.518 5.64453C209.288 5.64453 223.693 18.9137 223.693 35.2802Z" fill="#2D945C"/>
<path d="M153.216 141.12H229.82V70.5625H153.216V141.12Z" fill="#E6E7E8"/>
<path d="M223.691 105.841C223.691 122.208 209.288 135.474 191.517 135.474C173.748 135.474 159.344 122.207 159.344 105.841C159.344 89.4729 173.749 76.2061 191.517 76.2061C209.288 76.2061 223.691 89.4729 223.691 105.841Z" fill="#185850"/>
<path d="M153.216 211.674H229.819V141.119H153.216V211.674Z" fill="#185850"/>
<path d="M223.69 176.396C223.69 192.763 209.286 206.029 191.516 206.029C173.748 206.029 159.345 192.763 159.345 176.396C159.345 160.03 173.749 146.764 191.516 146.764C209.286 146.764 223.69 160.03 223.69 176.396Z" fill="#E6E7E8"/>
<path d="M153.216 282.234H229.82V211.677H153.216V282.234Z" fill="#185850"/>
<path d="M191.517 264.428C181.041 264.428 172.55 256.605 172.55 246.956C172.55 237.307 181.041 229.486 191.517 229.486C201.993 229.486 210.487 237.307 210.487 246.956C210.487 256.605 201.993 264.428 191.517 264.428ZM191.517 217.322C173.748 217.322 159.344 230.591 159.344 246.956C159.344 263.323 173.748 276.59 191.517 276.59C209.287 276.59 223.691 263.322 223.691 246.956C223.691 230.591 209.287 217.322 191.517 217.322Z" fill="#E6E7E8"/>
<path d="M191.517 239.968C187.328 239.968 183.93 243.097 183.93 246.956C183.93 250.818 187.328 253.946 191.517 253.946C195.712 253.946 199.107 250.818 199.107 246.956C199.107 243.097 195.711 239.968 191.517 239.968Z" fill="#E6E7E8"/>
<path d="M76.6123 423.351H229.82V282.237H76.6123V423.351Z" fill="#E6E7E8"/>
<path d="M153.214 387.737C132.262 387.737 115.278 372.096 115.278 352.795C115.278 333.497 132.262 317.855 153.214 317.855C174.166 317.855 191.15 333.497 191.15 352.795C191.15 372.097 174.167 387.737 153.214 387.737ZM153.214 293.528C117.674 293.528 88.8662 320.063 88.8662 352.795C88.8662 385.526 117.674 412.061 153.214 412.061C188.75 412.061 217.56 385.526 217.56 352.795C217.56 320.063 188.75 293.528 153.214 293.528Z" fill="#2D945C"/>
<path d="M153.216 338.814C144.834 338.814 138.035 345.075 138.035 352.794C138.035 360.518 144.835 366.773 153.216 366.773C161.601 366.773 168.392 360.518 168.392 352.794C168.392 345.075 161.6 338.814 153.216 338.814Z" fill="#2D945C"/>
<path d="M612.858 564.476H689.463V493.921H612.858V564.476Z" fill="#185850"/>
<path d="M651.159 546.669C640.683 546.669 632.192 538.848 632.192 529.199C632.192 519.55 640.683 511.728 651.159 511.728C661.635 511.728 670.128 519.55 670.128 529.199C670.128 538.848 661.635 546.669 651.159 546.669ZM651.159 499.565C633.39 499.565 618.986 512.834 618.986 529.199C618.986 545.564 633.39 558.832 651.159 558.832C668.93 558.832 683.334 545.564 683.334 529.199C683.334 512.834 668.93 499.565 651.159 499.565Z" fill="#2D945C"/>
<path d="M651.161 522.209C646.971 522.209 643.571 525.339 643.571 529.199C643.571 533.06 646.971 536.189 651.161 536.189C655.354 536.189 658.749 533.059 658.749 529.199C658.749 525.339 655.355 522.209 651.161 522.209Z" fill="#2D945C"/>
<path d="M612.858 493.913H689.46V423.356H612.858V493.913Z" fill="#2D945C"/>
<path d="M683.332 458.635C683.332 475 668.928 488.27 651.159 488.27C633.391 488.27 618.986 475 618.986 458.635C618.986 442.27 633.392 429.003 651.159 429.003C668.928 429.003 683.332 442.27 683.332 458.635Z" fill="#185850"/>
<path d="M766.07 70.5613H842.68V0H766.07V70.5613Z" fill="#2D945C"/>
<path d="M804.377 52.753C793.901 52.753 785.407 44.933 785.407 35.2802C785.407 25.6312 793.901 17.8113 804.377 17.8113C814.853 17.8113 823.346 25.6312 823.346 35.2802C823.346 44.933 814.853 52.753 804.377 52.753ZM804.377 5.64453C786.607 5.64453 772.2 18.9153 772.2 35.2802C772.2 51.6482 786.607 64.9174 804.377 64.9174C822.146 64.9174 836.551 51.6482 836.551 35.2802C836.551 18.9145 822.145 5.64453 804.377 5.64453Z" fill="#185850"/>
<path d="M804.376 28.29C800.184 28.29 796.784 31.4204 796.784 35.2804C796.784 39.1436 800.184 42.2708 804.376 42.2708C808.567 42.2708 811.965 39.1428 811.965 35.2804C811.965 31.4204 808.568 28.29 804.376 28.29Z" fill="#185850"/>
<path d="M766.072 141.12H842.678V70.5625H766.072V141.12Z" fill="#185850"/>
<path d="M804.376 123.313C793.899 123.313 785.407 115.49 785.407 105.841C785.407 96.1922 793.899 88.3706 804.376 88.3706C814.851 88.3706 823.343 96.1914 823.343 105.841C823.343 115.49 814.851 123.313 804.376 123.313ZM804.376 76.207C786.605 76.207 772.2 89.477 772.2 105.842C772.2 122.209 786.606 135.475 804.376 135.475C822.144 135.475 836.547 122.208 836.547 105.842C836.547 89.477 822.143 76.207 804.376 76.207Z" fill="#E6E7E8"/>
<path d="M804.375 98.8525C800.183 98.8525 796.784 101.981 796.784 105.842C796.784 109.704 800.183 112.832 804.375 112.832C808.566 112.832 811.962 109.704 811.962 105.842C811.962 101.982 808.566 98.8525 804.375 98.8525Z" fill="#E6E7E8"/>
<path d="M766.075 211.674H842.677V141.122H766.075V211.674Z" fill="#185850"/>
<path d="M804.375 193.868C793.898 193.868 785.407 186.047 785.407 176.396C785.407 166.747 793.898 158.926 804.375 158.926C814.85 158.926 823.341 166.747 823.341 176.396C823.341 186.047 814.85 193.868 804.375 193.868ZM804.375 146.765C786.604 146.765 772.202 160.033 772.202 176.397C772.202 192.764 786.604 206.03 804.375 206.03C822.142 206.03 836.546 192.764 836.546 176.397C836.546 160.033 822.142 146.765 804.375 146.765Z" fill="#E6E7E8"/>
<path d="M804.375 169.408C800.183 169.408 796.784 172.538 796.784 176.396C796.784 180.258 800.183 183.387 804.375 183.387C808.566 183.387 811.962 180.258 811.962 176.396C811.962 172.537 808.566 169.408 804.375 169.408Z" fill="#E6E7E8"/>
<path d="M766.073 423.356H842.677V352.8H766.073V423.356Z" fill="#2D945C"/>
<path d="M804.377 405.55C793.9 405.55 785.408 397.728 785.408 388.078C785.408 378.429 793.9 370.608 804.377 370.608C814.852 370.608 823.345 378.429 823.345 388.078C823.345 397.728 814.852 405.55 804.377 405.55ZM804.377 358.444C786.606 358.444 772.202 371.711 772.202 388.078C772.202 404.444 786.606 417.712 804.377 417.712C822.145 417.712 836.548 404.444 836.548 388.078C836.548 371.711 822.144 358.444 804.377 358.444Z" fill="#185850"/>
<path d="M804.375 381.089C800.183 381.089 796.784 384.219 796.784 388.078C796.784 391.939 800.183 395.067 804.375 395.067C808.566 395.067 811.962 391.939 811.962 388.078C811.962 384.219 808.566 381.089 804.375 381.089Z" fill="#185850"/>
<path d="M689.469 423.357H766.072V352.802H689.469V423.357Z" fill="#E6E7E8"/>
<path d="M759.942 388.08C759.942 404.446 745.539 417.713 727.769 417.713C710 417.713 695.595 404.446 695.595 388.08C695.595 371.713 710 358.445 727.769 358.445C745.539 358.445 759.942 371.713 759.942 388.08Z" fill="#185850"/>
<path d="M689.469 352.8H842.678V211.683H689.469V352.8Z" fill="#2D945C"/>
<path d="M766.073 317.182C745.122 317.182 728.134 301.538 728.134 282.239C728.134 262.941 745.122 247.296 766.073 247.296C787.025 247.296 804.011 262.941 804.011 282.239C804.011 301.538 787.025 317.182 766.073 317.182ZM766.073 222.971C730.532 222.971 701.726 249.507 701.726 282.239C701.726 314.971 730.532 341.508 766.073 341.508C801.611 341.508 830.421 314.971 830.421 282.239C830.421 249.507 801.611 222.971 766.073 222.971Z" fill="#E6E7E8"/>
<path d="M766.072 268.262C757.691 268.262 750.892 274.518 750.892 282.241C750.892 289.963 757.691 296.219 766.072 296.219C774.456 296.219 781.249 289.963 781.249 282.241C781.249 274.519 774.456 268.262 766.072 268.262Z" fill="#E6E7E8"/>
<path d="M689.467 211.679H766.072V141.122H689.467V211.679Z" fill="#E6E7E8"/>
<path d="M759.942 176.401C759.942 192.769 745.539 206.035 727.768 206.035C710 206.035 695.594 192.768 695.594 176.401C695.594 160.035 710 146.768 727.768 146.768C745.539 146.768 759.942 160.035 759.942 176.401Z" fill="#185850"/>
<path d="M689.467 70.5601H766.073V0.00195312H689.467V70.5601Z" fill="#2D945C"/>
<path d="M759.944 35.2804C759.944 51.6469 745.539 64.9152 727.768 64.9152C710 64.9152 695.594 51.6469 695.594 35.2804C695.594 18.9147 710 5.64551 727.768 5.64551C745.539 5.64551 759.944 18.9147 759.944 35.2804Z" fill="#185850"/>
<path d="M689.469 141.121H766.07V70.5664H689.469V141.121Z" fill="#2D945C"/>
<path d="M759.941 105.842C759.941 122.208 745.538 135.475 727.768 135.475C710.001 135.475 695.594 122.208 695.594 105.842C695.594 89.4781 710.001 76.209 727.768 76.209C745.538 76.209 759.941 89.4781 759.941 105.842Z" fill="#E6E7E8"/>
<path d="M766.075 564.476H842.678V493.921H766.075V564.476Z" fill="#185850"/>
<path d="M836.546 529.199C836.546 545.564 822.143 558.832 804.375 558.832C786.607 558.832 772.202 545.564 772.202 529.199C772.202 512.834 786.607 499.565 804.375 499.565C822.143 499.565 836.546 512.834 836.546 529.199Z" fill="#E6E7E8"/>
<path d="M766.073 493.913H842.677V423.356H766.073V493.913Z" fill="#185850"/>
<path d="M836.548 458.635C836.548 475 822.146 488.27 804.377 488.27C786.609 488.27 772.202 475 772.202 458.635C772.202 442.27 786.609 429.003 804.377 429.003C822.146 429.003 836.548 442.27 836.548 458.635Z" fill="#E6E7E8"/>
<path d="M689.469 564.476H766.072V493.92H689.469V564.476Z" fill="#2D945C"/>
<path d="M727.768 546.669C717.293 546.669 708.8 538.848 708.8 529.198C708.8 519.549 717.293 511.727 727.768 511.727C738.244 511.727 746.736 519.549 746.736 529.198C746.736 538.848 738.244 546.669 727.768 546.669ZM727.768 499.563C709.998 499.563 695.594 512.831 695.594 529.197C695.594 545.562 709.998 558.831 727.768 558.831C745.536 558.831 759.941 545.562 759.941 529.197C759.941 512.831 745.535 499.563 727.768 499.563Z" fill="#E6E7E8"/>
<path d="M727.77 522.208C723.58 522.208 720.181 525.336 720.181 529.198C720.181 533.059 723.58 536.188 727.77 536.188C731.963 536.188 735.36 533.059 735.36 529.198C735.36 525.336 731.962 522.208 727.77 522.208Z" fill="#E6E7E8"/>
<path d="M689.463 493.919H766.071V423.359H689.463V493.919Z" fill="#2D945C"/>
<path d="M759.944 458.64C759.944 475.006 745.539 488.276 727.768 488.276C710 488.276 695.594 475.006 695.594 458.64C695.594 442.274 710 429.006 727.768 429.006C745.539 429.006 759.944 442.275 759.944 458.64Z" fill="#E6E7E8"/>
<path d="M459.647 564.477H612.856V423.364H459.647V564.477Z" fill="#E6E7E8"/>
<path d="M536.25 528.865C515.298 528.865 498.314 513.223 498.314 493.922C498.314 474.624 515.298 458.981 536.25 458.981C557.202 458.981 574.185 474.624 574.185 493.922C574.185 513.223 557.202 528.865 536.25 528.865ZM536.25 434.654C500.712 434.654 471.902 461.189 471.902 493.922C471.902 526.654 500.711 553.188 536.25 553.188C571.787 553.188 600.598 526.654 600.598 493.922C600.598 461.189 571.787 434.654 536.25 434.654Z" fill="#2D945C"/>
<path d="M536.25 479.941C527.869 479.941 521.071 486.201 521.071 493.921C521.071 501.644 527.869 507.899 536.25 507.899C544.634 507.899 551.427 501.644 551.427 493.921C551.427 486.201 544.634 479.941 536.25 479.941Z" fill="#2D945C"/>
<path d="M383.041 564.476H459.643V493.921H383.041V564.476Z" fill="#E6E7E8"/>
<path d="M453.512 529.199C453.512 545.564 439.11 558.832 421.34 558.832C403.572 558.832 389.167 545.564 389.167 529.199C389.167 512.834 403.573 499.565 421.34 499.565C439.109 499.565 453.512 512.834 453.512 529.199Z" fill="#185850"/>
<path d="M383.038 493.919H459.643V423.36H383.038V493.919Z" fill="#E6E7E8"/>
<path d="M421.34 476.11C410.864 476.11 402.371 468.29 402.371 458.639C402.371 448.99 410.864 441.17 421.34 441.17C431.816 441.17 440.309 448.99 440.309 458.639C440.309 468.29 431.816 476.11 421.34 476.11ZM421.34 429.006C403.569 429.006 389.167 442.273 389.167 458.639C389.167 475.005 403.569 488.274 421.34 488.274C439.108 488.274 453.515 475.005 453.515 458.639C453.515 442.273 439.108 429.006 421.34 429.006Z" fill="#2D945C"/>
<path d="M421.34 451.65C417.15 451.65 413.75 454.781 413.75 458.639C413.75 462.501 417.15 465.63 421.34 465.63C425.533 465.63 428.929 462.501 428.929 458.639C428.929 454.781 425.533 451.65 421.34 451.65Z" fill="#2D945C"/>
<path d="M306.431 564.478H383.034V493.92H306.431V564.478Z" fill="#E6E7E8"/>
<path d="M376.905 529.199C376.905 545.565 362.501 558.832 344.732 558.832C326.963 558.832 312.558 545.565 312.558 529.199C312.558 512.832 326.963 499.564 344.732 499.564C362.502 499.564 376.905 512.832 376.905 529.199Z" fill="#185850"/>
<path d="M306.431 493.912H383.033V423.356H306.431V493.912Z" fill="#E6E7E8"/>
<path d="M344.731 476.107C334.256 476.107 325.763 468.286 325.763 458.635C325.763 448.986 334.256 441.166 344.731 441.166C355.207 441.166 363.699 448.986 363.699 458.635C363.699 468.285 355.207 476.107 344.731 476.107ZM344.731 429.003C326.962 429.003 312.558 442.27 312.558 458.635C312.558 475 326.961 488.269 344.731 488.269C362.498 488.269 376.903 475 376.903 458.635C376.903 442.27 362.498 429.003 344.731 429.003Z" fill="#185850"/>
<path d="M344.733 451.646C340.542 451.646 337.142 454.776 337.142 458.635C337.142 462.496 340.542 465.624 344.733 465.624C348.924 465.624 352.32 462.496 352.32 458.635C352.32 454.775 348.924 451.646 344.733 451.646Z" fill="#185850"/>
<path d="M229.824 564.476H306.428V493.92H229.824V564.476Z" fill="#185850"/>
<path d="M300.299 529.199C300.299 545.564 285.895 558.832 268.124 558.832C250.356 558.832 235.951 545.564 235.951 529.199C235.951 512.834 250.356 499.564 268.124 499.564C285.895 499.564 300.299 512.834 300.299 529.199Z" fill="#2D945C"/>
<path d="M229.823 493.919H306.43V423.359H229.823V493.919Z" fill="#2D945C"/>
<path d="M268.125 476.111C257.647 476.111 249.156 468.291 249.156 458.64C249.156 448.991 257.647 441.17 268.125 441.17C278.601 441.17 287.093 448.991 287.093 458.64C287.093 468.291 278.601 476.111 268.125 476.111ZM268.125 429.005C250.354 429.005 235.949 442.272 235.949 458.639C235.949 475.005 250.355 488.275 268.125 488.275C285.894 488.275 300.299 475.005 300.299 458.639C300.299 442.272 285.894 429.005 268.125 429.005Z" fill="#185850"/>
<path d="M268.126 451.651C263.935 451.651 260.535 454.781 260.535 458.639C260.535 462.503 263.935 465.631 268.126 465.631C272.319 465.631 275.716 462.503 275.716 458.639C275.716 454.781 272.318 451.651 268.126 451.651Z" fill="#185850"/>
<path d="M0.00195312 564.476H76.6056V493.92H0.00195312V564.476Z" fill="#185850"/>
<path d="M38.303 546.669C27.8271 546.669 19.3352 538.848 19.3352 529.198C19.3352 519.549 27.8262 511.728 38.303 511.728C48.7789 511.728 57.2725 519.549 57.2725 529.198C57.2725 538.848 48.7789 546.669 38.303 546.669ZM38.303 499.563C20.5338 499.563 6.13086 512.831 6.13086 529.198C6.13086 545.563 20.5338 558.831 38.303 558.831C56.073 558.831 70.4769 545.563 70.4769 529.198C70.4769 512.831 56.073 499.563 38.303 499.563Z" fill="#E6E7E8"/>
<path d="M38.3024 522.209C34.1124 522.209 30.7129 525.339 30.7129 529.199C30.7129 533.06 34.1115 536.188 38.3024 536.188C42.4958 536.188 45.8919 533.06 45.8919 529.199C45.8919 525.339 42.4958 522.209 38.3024 522.209Z" fill="#E6E7E8"/>
<path d="M0.00390625 493.912H76.6032V423.359H0.00390625V493.912Z" fill="#2D945C"/>
<path d="M70.4752 458.636C70.4752 475 56.0722 488.268 38.303 488.268C20.5355 488.268 6.13086 475 6.13086 458.636C6.13086 442.272 20.5355 429.005 38.303 429.005C56.0722 429.005 70.4752 442.272 70.4752 458.636Z" fill="#185850"/>
<path d="M76.6094 564.478H153.213V493.92H76.6094V564.478Z" fill="#E6E7E8"/>
<path d="M147.085 529.199C147.085 545.564 132.683 558.832 114.912 558.832C97.1439 558.832 82.7393 545.564 82.7393 529.199C82.7393 512.834 97.1448 499.564 114.912 499.564C132.683 499.564 147.085 512.834 147.085 529.199Z" fill="#2D945C"/>
<path d="M76.6094 493.919H153.216V423.359H76.6094V493.919Z" fill="#E6E7E8"/>
<path d="M114.912 476.111C104.435 476.111 95.9424 468.29 95.9424 458.64C95.9424 448.99 104.435 441.171 114.912 441.171C125.388 441.171 133.881 448.99 133.881 458.64C133.881 468.29 125.388 476.111 114.912 476.111ZM114.912 429.005C97.1402 429.005 82.7363 442.274 82.7363 458.639C82.7363 475.005 97.1402 488.275 114.912 488.275C132.68 488.275 147.086 475.005 147.086 458.639C147.086 442.273 132.679 429.005 114.912 429.005Z" fill="#2D945C"/>
<path d="M114.913 451.65C110.722 451.65 107.322 454.781 107.322 458.639C107.322 462.501 110.722 465.63 114.913 465.63C119.105 465.63 122.501 462.501 122.501 458.639C122.501 454.781 119.105 451.65 114.913 451.65Z" fill="#2D945C"/>
<path d="M153.216 564.476H229.819V493.92H153.216V564.476Z" fill="#2D945C"/>
<path d="M223.691 529.198C223.691 545.563 209.287 558.832 191.518 558.832C173.749 558.832 159.345 545.563 159.345 529.198C159.345 512.832 173.749 499.564 191.518 499.564C209.287 499.564 223.691 512.832 223.691 529.198Z" fill="#185850"/>
<path d="M153.218 493.913H229.819V423.358H153.218V493.913Z" fill="#E6E7E8"/>
<path d="M191.518 476.107C181.042 476.107 172.549 468.285 172.549 458.634C172.549 448.987 181.042 441.166 191.518 441.166C201.994 441.166 210.485 448.986 210.485 458.634C210.485 468.284 201.994 476.107 191.518 476.107ZM191.518 429.002C173.748 429.002 159.345 442.27 159.345 458.634C159.345 474.999 173.749 488.268 191.518 488.268C209.284 488.268 223.69 474.999 223.69 458.634C223.69 442.27 209.284 429.002 191.518 429.002Z" fill="#185850"/>
<path d="M191.519 451.646C187.328 451.646 183.93 454.777 183.93 458.635C183.93 462.496 187.328 465.626 191.519 465.626C195.71 465.626 199.107 462.496 199.107 458.635C199.107 454.776 195.71 451.646 191.519 451.646Z" fill="#185850"/>
<path d="M612.859 352.802H612.858V352.801H612.859V352.802ZM536.253 352.802H536.25V352.801H459.645L459.642 352.802V352.801H459.645V282.241H383.037V352.801H383.038L383.034 352.802V352.801H344.726V352.794H383.033V282.238H344.726V282.237H383.034V211.678H383.038V211.679H459.643L459.646 211.678V282.237H536.252V211.678H536.254V211.679H612.858L651.17 211.678L612.86 211.679V282.236H651.17V282.239H612.862V352.795H651.17V352.803L612.86 352.802V282.241L612.859 211.683H536.254V282.241H536.253V352.802H536.254V352.803L536.253 352.802ZM459.645 282.237V352.794H536.25V282.237H459.645ZM383.038 211.683V282.238H459.643V211.683H383.038Z" fill="#FEFEFE"/>
<path d="M612.858 352.801H651.167V352.8H612.858V352.801Z" fill="#FEFEFE"/>
<path d="M612.858 352.801H536.253V352.8H612.86H612.858V352.801Z" fill="#FDF4F8"/>
<path d="M612.857 211.677H536.253L612.857 211.676V211.677Z" fill="#FEFEFE"/>
<path d="M459.645 352.801H536.25V352.8H459.645V352.801Z" fill="#F3F4F4"/>
<path d="M459.642 352.801H383.038V352.8H459.644H459.642V352.801Z" fill="#FDF4F8"/>
<path d="M459.642 211.677H383.038L459.642 211.676V211.677Z" fill="#FEFEFE"/>
<path d="M383.033 352.801H344.725L383.033 352.8V352.801Z" fill="#FEFEFE"/>
</g>
</svg>
