<svg width="25" height="25" viewBox="0 0 25 25" fill="none" xmlns="http://www.w3.org/2000/svg">
<rect width="25" height="25" rx="12.5" fill="#185850"/>
<path d="M15.975 6.08732C15.2214 6.27655 14.8429 7.09656 15.1849 7.79374C15.57 8.58055 16.639 8.69011 17.21 8.00289C17.4491 7.71738 17.5188 7.17956 17.3661 6.81105C17.2299 6.47906 16.9876 6.24003 16.6755 6.13048C16.4996 6.0674 16.1443 6.04748 15.975 6.08732Z" fill="white"/>
<path d="M11.5925 6.88777C11.2572 6.96744 10.9384 7.22639 10.7791 7.54842C10.6994 7.70778 10.6895 7.77086 10.6895 8.04641C10.6895 8.32528 10.6994 8.38504 10.7857 8.56763C11.0082 9.05233 11.5261 9.32456 12.0572 9.24157C12.459 9.17517 12.7777 8.93946 12.9569 8.57759C13.0366 8.41492 13.0466 8.35516 13.0466 8.06301C13.0466 7.77418 13.0366 7.70778 12.9603 7.54842C12.7179 7.04048 12.1369 6.75829 11.5925 6.88777Z" fill="white"/>
<path d="M7.59212 8.57725C7.53236 8.59053 7.43277 8.63701 7.37301 8.68017C7.22693 8.7864 5.70974 10.4397 5.64999 10.5592C5.54043 10.7783 5.55703 11.0439 5.69978 11.2531C5.79606 11.3958 6.05833 11.532 6.23761 11.532C6.5032 11.5286 6.60279 11.449 7.29997 10.6887C7.66184 10.2936 7.97391 9.9716 7.99715 9.9716C8.07683 9.9716 8.74744 10.1542 8.7408 10.1741C8.73416 10.1874 8.29926 10.6157 7.76808 11.1302C6.69575 12.1694 6.58951 12.3022 6.58951 12.6242C6.58951 12.7736 6.64263 12.9296 6.95802 13.6799C7.16054 14.1646 7.31989 14.563 7.31325 14.5696C7.30661 14.573 6.64595 14.9182 5.84254 15.3332C5.03913 15.7482 4.32867 16.13 4.26559 16.1765C4.09628 16.3126 4.00332 16.5184 4 16.7707C4 17.0031 4.04648 17.1426 4.18259 17.3019C4.37183 17.5277 4.72706 17.6273 5.00593 17.531C5.22836 17.4546 8.75076 15.6187 8.85036 15.5291C8.89684 15.4859 8.94332 15.4494 8.95328 15.4494C8.96324 15.4494 9.04623 15.5391 9.14251 15.6486L9.31514 15.8478L9.02631 16.9002C8.7076 18.0721 8.68436 18.2514 8.8072 18.4904C9.01635 18.8988 9.53094 19.0515 9.92268 18.8224C10.1816 18.673 10.2115 18.5967 10.6066 17.1392C10.9983 15.7017 11.0216 15.549 10.9087 15.3C10.8755 15.227 10.4738 14.7522 10.0123 14.241C9.55418 13.733 9.18235 13.3048 9.18567 13.2948C9.21223 13.2351 10.2049 12.2955 10.2182 12.3188C10.2248 12.332 10.2646 12.4482 10.3078 12.5777C10.4107 12.9031 10.5136 13.0657 10.663 13.1487C10.8556 13.255 12.884 13.8227 13.0733 13.8227C13.1662 13.8227 13.2857 13.7961 13.3588 13.7563C13.7704 13.5471 13.8468 13.0292 13.5148 12.7072C13.3787 12.5777 13.3422 12.5644 12.4558 12.3121L11.5362 12.0499L11.4034 11.6349C11.2905 11.273 11.2805 11.2132 11.3204 11.1668C11.3469 11.1369 11.4 11.0406 11.4399 10.951C11.5494 10.7086 11.5428 10.3799 11.4266 10.1243C11.317 9.88861 10.9087 9.45702 10.6697 9.32422C10.5568 9.26447 10.0754 9.12503 9.23547 8.90924C7.85771 8.55733 7.7548 8.53741 7.59212 8.57725Z" fill="white"/>
<path d="M16.556 9.05875C16.0215 9.24134 15.7593 9.43722 15.6132 9.75593C15.5534 9.88872 15.5401 9.98168 15.5368 10.2274V10.5295L15.2746 10.8382C15.082 11.0706 14.999 11.147 14.9426 11.1436C14.906 11.137 14.4844 11.0872 14.0097 11.0308C13.2826 10.9444 13.1233 10.9312 13.0004 10.9644C12.6917 11.0474 12.519 11.2731 12.519 11.5985C12.519 11.8475 12.6186 12.0334 12.8178 12.1496C12.9539 12.2292 13.0668 12.2492 14.003 12.3654C14.5741 12.4351 15.1451 12.4948 15.2746 12.4948C15.5601 12.4948 15.6862 12.4218 15.9551 12.1031C16.1012 11.9271 16.1344 11.9006 16.1576 11.9471C16.2074 12.0334 16.7486 13.3281 16.7486 13.358C16.7486 13.3713 16.4963 13.5638 16.1875 13.7863C15.8788 14.0054 15.5966 14.2278 15.5601 14.2776C15.5235 14.3307 15.0953 15.1707 14.6073 16.15C13.7374 17.8863 13.7175 17.9361 13.7175 18.1254C13.7208 18.3843 13.8038 18.5769 13.9798 18.7296C14.2753 18.9919 14.6803 19.0018 15.0056 18.7561C15.1019 18.6831 15.2447 18.4242 15.8124 17.2854L16.5062 15.9044L17.6848 17.3286C18.5314 18.3511 18.9032 18.7727 18.9995 18.8292C19.3912 19.0483 19.9257 18.8856 20.105 18.4906C20.1813 18.3246 20.188 17.9926 20.1216 17.8332C20.095 17.7701 19.5838 17.1294 18.9895 16.4123L17.9072 15.1076L18.621 14.4071C19.2584 13.783 19.3414 13.69 19.3746 13.5572C19.4543 13.2451 19.4311 13.1787 18.7438 11.552C18.5048 10.9843 18.3156 10.5195 18.3222 10.5095C18.3388 10.4963 19.0825 10.6025 19.1024 10.6191C19.109 10.6257 19.2518 11.0175 19.4211 11.4889C19.5904 11.9637 19.7531 12.3952 19.7796 12.4517C19.8859 12.6542 20.1315 12.7936 20.3839 12.7936C20.5997 12.7903 20.8852 12.5911 20.9615 12.3853C21.0478 12.1628 21.008 11.9969 20.6528 10.9909C20.4635 10.4597 20.2743 9.9352 20.2345 9.83228C20.1614 9.63641 20.0054 9.46378 19.8394 9.40402C19.7099 9.35422 17.1702 8.97575 16.971 8.97575C16.8747 8.97575 16.6888 9.01559 16.556 9.05875Z" fill="white"/>
<path d="M11.9112 16.5453C11.5394 16.5984 11.2041 16.8474 11.0314 17.2026C10.9318 17.4018 10.9219 17.4516 10.9219 17.7238C10.9219 17.9828 10.9352 18.0492 11.0148 18.2251C11.4331 19.1315 12.7312 19.1647 13.1728 18.2816C13.279 18.0691 13.3022 17.9662 13.2989 17.7072C13.2923 16.9735 12.6582 16.4424 11.9112 16.5453Z" fill="white"/>
</svg>
