<svg xmlns="http://www.w3.org/2000/svg" xmlns:xlink="http://www.w3.org/1999/xlink" width="45" height="45" viewBox="0 0 45 45">
  <defs>
    <clipPath id="clip-path">
      <rect id="Rectangle_1107" data-name="Rectangle 1107" width="45" height="45" transform="translate(0 0)" fill="#29a71a"/>
    </clipPath>
  </defs>
  <g id="Group_8239" data-name="Group 8239" transform="translate(-0.558 -0.558)">
    <g id="Group_8238" data-name="Group 8238" transform="translate(0.558 0.558)" clip-path="url(#clip-path)">
      <path id="Path_1856" data-name="Path 1856" d="M0,40.438V5.267A6.88,6.88,0,0,1,1.731,1.858,6.821,6.821,0,0,1,5.267,0H40.438a6.763,6.763,0,0,1,3.6,1.922A6.923,6.923,0,0,1,45.7,5.267V40.438a6.927,6.927,0,0,1-1.67,3.345,6.77,6.77,0,0,1-3.6,1.922H5.267A6.8,6.8,0,0,1,1.7,43.814,6.9,6.9,0,0,1,0,40.438M36.956,22.689c-.014-.5-.019-1.08-.088-1.659A14.12,14.12,0,1,0,10.05,28.7a1.55,1.55,0,0,1,.108,1.031q-.672,3.187-1.319,6.378c-.173.847.069,1.08.914.881,2.07-.488,4.14-.974,6.207-1.477a1.617,1.617,0,0,1,1.117.1,13.744,13.744,0,0,0,7.668,1.116A14.086,14.086,0,0,0,36.956,22.689" transform="translate(-0.352 -0.352)" fill="#29a71a"/>
      <path id="Path_1857" data-name="Path 1857" d="M109.781,119.753a11.2,11.2,0,0,1-5.418-1.338,1.745,1.745,0,0,0-1.363-.15c-1.048.28-2.109.513-3.167.758-.476.11-.534.054-.438-.421.23-1.137.452-2.275.707-3.407a1.5,1.5,0,0,0-.159-1.11,11.268,11.268,0,0,1-1.4-4.8A11.146,11.146,0,0,1,109.891,97.5a11.129,11.129,0,0,1,1.514,22.117,8.2,8.2,0,0,1-1.624.135m3.54-4.279a3.825,3.825,0,0,0,3.638-2.084,1.017,1.017,0,0,0-.614-1.693c-.668-.2-1.358-.345-2.01-.589a1.6,1.6,0,0,0-1.976.521c-.63.718-1.049.746-1.878.24a15.86,15.86,0,0,1-3.727-3.23c-.852-.986-.836-1.294-.053-2.322a4.161,4.161,0,0,0,.259-.363.933.933,0,0,0,.088-.9c-.388-.885-.764-1.776-1.182-2.646A.933.933,0,0,0,104.5,102a4.2,4.2,0,0,0-1.89,2.7,5.241,5.241,0,0,0,.622,3.319A15.753,15.753,0,0,0,110.4,114.8a6.969,6.969,0,0,0,2.919.675" transform="translate(-87.153 -86.248)" fill="#29a71a"/>
    </g>
  </g>
</svg>
