<svg width="40" height="40" viewBox="0 0 40 40" fill="none" xmlns="http://www.w3.org/2000/svg">
<rect width="40" height="40" rx="20" fill="#2D945C"/>
<path d="M30.4625 11.0465C31.178 11.1839 31.7939 11.7335 32.0403 12.449C32.1256 12.7049 32.1304 12.8707 32.1304 16.4861C32.1304 20.4947 32.1351 20.4284 31.9029 20.8785C31.7655 21.1439 31.4575 21.4803 31.1827 21.6556C30.7942 21.902 30.4483 21.9873 29.8038 21.9873C29.4958 21.9873 29.24 21.9778 29.24 21.9684C29.24 21.9589 29.0031 20.9117 28.7188 19.6371C28.335 17.9265 28.1691 17.2869 28.0886 17.1684C27.8706 16.8509 28.425 16.8699 20.0002 16.8699C11.5754 16.8699 12.1298 16.8509 11.9119 17.1684C11.8313 17.2869 11.6655 17.9265 11.2817 19.6371C10.9974 20.9117 10.7605 21.9589 10.7605 21.9684C10.7605 21.9778 10.5046 21.9873 10.1966 21.9873C9.55218 21.9873 9.20628 21.902 8.81774 21.6556C8.54291 21.4803 8.23492 21.1439 8.09751 20.8785C7.86533 20.4284 7.87007 20.4947 7.87007 16.4861C7.87007 12.8707 7.87481 12.7049 7.9601 12.449C8.21597 11.7146 8.82247 11.1839 9.57587 11.0417C9.8886 10.9849 30.164 10.9849 30.4625 11.0465ZM15.9205 14.6571C15.6125 14.8608 15.513 15.2446 15.6883 15.5337C15.8779 15.8417 16.0058 15.8796 16.7876 15.8654C17.4557 15.8512 17.4889 15.8464 17.6074 15.7327C17.9769 15.3868 17.939 14.894 17.5268 14.6429C17.3894 14.5623 17.2851 14.5481 16.726 14.5481C16.1337 14.5481 16.0674 14.5576 15.9205 14.6571ZM12.6511 14.6571C12.2246 14.9414 12.2341 15.5147 12.67 15.7848C12.8074 15.8701 12.8927 15.8748 13.5182 15.8654L14.2194 15.8512L14.39 15.6758C14.7075 15.3584 14.6459 14.8798 14.2573 14.6429C14.1199 14.5623 14.0157 14.5481 13.4566 14.5481C12.8643 14.5481 12.7979 14.5576 12.6511 14.6571Z" fill="white"/>
<path d="M27.0365 18.3009C27.046 18.334 27.2308 19.1396 27.4393 20.092C27.6525 21.0444 27.8373 21.8594 27.8468 21.902C27.8705 21.9826 27.4724 21.9873 20.0048 21.9873H12.1344L12.1629 21.8546C12.1771 21.7836 12.3666 20.9496 12.5798 19.9972L12.9684 18.2677L19.9953 18.2535C25.5866 18.244 27.0176 18.2535 27.0365 18.3009Z" fill="white"/>
<path d="M23.8289 22.9681C24.0422 23.0724 24.1654 23.2667 24.2175 23.5604C24.2364 23.6978 24.3312 23.9632 24.426 24.1432C24.7719 24.8256 24.7671 25.5126 24.4023 26.2423C24.1748 26.7019 24.1748 26.7588 24.4307 27.2705C24.7055 27.8155 24.7624 28.3319 24.5823 28.6399C24.2317 29.2512 23.3456 29.0427 23.2461 28.3272C23.2272 28.1898 23.1419 27.9387 23.0566 27.7681C22.8481 27.3606 22.796 27.1521 22.796 26.7209C22.796 26.3087 22.886 25.9533 23.085 25.6074C23.2793 25.2662 23.2651 25.0814 23.0234 24.6029C22.8434 24.2522 22.8244 24.1717 22.8055 23.7973C22.7912 23.423 22.796 23.3709 22.9002 23.2193C23.104 22.9113 23.502 22.807 23.8289 22.9681Z" fill="white"/>
<path d="M20.0949 22.969C20.3128 23.0827 20.455 23.3054 20.4929 23.5897C20.5071 23.7176 20.5876 23.9451 20.6682 24.0919C20.8625 24.4473 20.9478 24.779 20.9478 25.1865C20.9478 25.5656 20.8767 25.8309 20.6635 26.2526C20.5782 26.4185 20.5118 26.6222 20.5071 26.7075C20.5024 26.7975 20.5876 27.0392 20.7108 27.2998C20.8862 27.6694 20.9193 27.7878 20.9335 28.0958C20.9478 28.3801 20.9335 28.4891 20.8672 28.6171C20.7487 28.8445 20.5639 28.963 20.2986 28.9866C19.8816 29.0246 19.5689 28.7592 19.512 28.3185C19.4931 28.2001 19.4125 27.9679 19.332 27.8068C19.133 27.4088 19.0524 27.1055 19.0524 26.7028C19.0524 26.319 19.1235 26.0584 19.3367 25.6319C19.5357 25.2434 19.531 25.0775 19.3225 24.6653C19.2325 24.4805 19.133 24.2483 19.1045 24.1441C19.0335 23.8835 19.0382 23.4854 19.1188 23.2959C19.2609 22.9595 19.7537 22.7936 20.0949 22.969Z" fill="white"/>
<path d="M16.3282 22.9541C16.5651 23.0584 16.6788 23.229 16.7499 23.5701C16.7878 23.7407 16.8636 23.9634 16.9157 24.0534C17.3138 24.7215 17.3043 25.6218 16.9015 26.3136C16.731 26.6027 16.7357 26.8585 16.9205 27.176C17.2237 27.7067 17.3043 28.3653 17.0958 28.6733C16.712 29.2467 15.7833 28.9861 15.7833 28.3037C15.7833 28.2327 15.698 28.0005 15.5937 27.7873C15.2242 27.0291 15.2242 26.3989 15.5985 25.6455C15.8259 25.1954 15.8259 25.1196 15.5748 24.641C15.3094 24.134 15.2384 23.5701 15.409 23.2669C15.5937 22.9447 15.9965 22.8073 16.3282 22.9541Z" fill="white"/>
</svg>
