<svg width="32" height="32" viewBox="0 0 32 32" fill="none" xmlns="http://www.w3.org/2000/svg">
<rect x="0.669556" y="0.500977" width="31" height="31" rx="15.5" fill="white"/>
<g clip-path="url(#clip0_821_3487)">
<path d="M13.7801 16.0008C15.1332 16.0008 16.4683 14.9955 17.7732 14.9955C18.6689 14.9955 19.3847 15.5314 19.637 16.2838C19.7649 16.6653 20.2463 16.7859 20.5454 16.5167C20.6379 16.433 20.7001 16.3211 20.7223 16.1983C20.7446 16.0756 20.7256 15.949 20.6684 15.8381C20.2913 15.0957 19.7361 14.4583 19.0526 13.9826C18.3691 13.507 17.5784 13.2081 16.7512 13.1125C15.9239 13.0168 15.0859 13.1276 14.3119 13.4347C13.5379 13.7418 12.852 14.2359 12.3154 14.8727C12.2475 14.9527 12.2019 15.0493 12.1831 15.1526C12.1643 15.2559 12.1731 15.3623 12.2085 15.4611C12.2439 15.56 12.3047 15.6477 12.3848 15.7156C12.4649 15.7835 12.5614 15.8291 12.6647 15.8479C13.0654 15.9198 13.4744 16.0008 13.7801 16.0008Z" fill="#185850"/>
<path d="M12.4508 24.501H7.93518C7.86473 24.501 7.79717 24.473 7.74736 24.4232C7.69754 24.3734 7.66956 24.3058 7.66956 24.2354V21.3135C7.66956 20.3893 7.81512 19.0611 8.50863 17.9824C9.2405 16.8439 10.3881 16.2666 11.9196 16.2666C12.2958 16.2666 13.3758 16.5322 13.7789 16.5322C14.7798 16.5322 15.8087 16.1203 16.7165 15.7569C19.3495 14.7027 19.8332 17.5843 18.4274 18.1163C17.3904 18.5088 15.6184 18.7827 14.783 19.5863L19.2272 18.4167L21.7716 16.1268C22.1295 14.5025 22.2183 12.2822 24.4039 12.2822C24.4423 12.2828 24.4802 12.2916 24.5149 12.308C24.5496 12.3244 24.5804 12.348 24.6053 12.3773C24.6301 12.4066 24.6484 12.4409 24.6588 12.4778C24.6693 12.5148 24.6717 12.5536 24.666 12.5915C24.6384 12.7575 23.9275 17.3979 23.7949 17.5169L19.5449 21.7669C19.453 21.8832 13.6886 23.1598 13.5458 23.1928C13.3096 23.2464 13.0988 23.3789 12.948 23.5684C12.7972 23.7579 12.7155 23.9932 12.7164 24.2354C12.7164 24.3058 12.6884 24.3734 12.6386 24.4232C12.5888 24.473 12.5213 24.501 12.4508 24.501ZM21.1958 7.88771C21.1095 7.85962 19.0693 7.20465 17.7113 7.68052C16.9465 7.94853 16.4523 8.32273 16.1773 8.72097C15.9083 8.31795 15.416 7.93927 14.6481 7.67006C13.3028 7.19858 11.2779 7.85978 11.1923 7.88814C11.1541 7.90141 11.1193 7.92315 11.0907 7.95173C11.062 7.98031 11.0402 8.01499 11.0269 8.05319C11.0135 8.09138 11.009 8.1321 11.0136 8.1723C11.0181 8.2125 11.0318 8.25115 11.0534 8.28535C11.4687 8.92208 12.8426 10.8401 14.8258 10.8401C15.2165 10.8401 15.6055 10.7394 15.9039 10.528V12.3149C15.9039 12.3854 15.9319 12.453 15.9817 12.5028C16.0315 12.5526 16.0991 12.5806 16.1696 12.5806C16.24 12.5806 16.3076 12.5526 16.3574 12.5028C16.4072 12.453 16.4352 12.3854 16.4352 12.3149V10.559C17.0452 10.9838 18.0294 10.873 18.7375 10.6249C20.0952 10.1491 21.2852 8.36234 21.3352 8.28654C21.3571 8.25224 21.3709 8.21343 21.3756 8.17303C21.3802 8.13264 21.3757 8.0917 21.3623 8.05331C21.3489 8.01492 21.3269 7.98007 21.2981 7.95139C21.2693 7.9227 21.2343 7.90093 21.1958 7.88771Z" fill="#185850"/>
</g>
<defs>
<clipPath id="clip0_821_3487">
<rect width="17" height="17" fill="white" transform="translate(7.66956 7.50098)"/>
</clipPath>
</defs>
</svg>
