<svg width="37" height="37" viewBox="0 0 37 37" fill="none" xmlns="http://www.w3.org/2000/svg">
<rect width="37" height="37" rx="18.5" fill="#185850"/>
<g clip-path="url(#clip0_1_7195)">
<path d="M16.1093 18.4999C17.4624 18.4999 18.7976 17.4945 20.1024 17.4945C20.9982 17.4945 21.7139 18.0304 21.9662 18.7828C22.0941 19.1643 22.5755 19.2849 22.8746 19.0157C22.9671 18.932 23.0293 18.8201 23.0515 18.6974C23.0738 18.5746 23.0548 18.448 22.9977 18.3372C22.6205 17.5947 22.0654 16.9573 21.3818 16.4817C20.6983 16.0061 19.9076 15.7071 19.0804 15.6115C18.2532 15.5159 17.4151 15.6266 16.6411 15.9337C15.8671 16.2409 15.1812 16.7349 14.6446 17.3717C14.5767 17.4518 14.5311 17.5483 14.5123 17.6516C14.4936 17.7549 14.5023 17.8613 14.5377 17.9601C14.5731 18.059 14.6339 18.1468 14.714 18.2146C14.7941 18.2825 14.8906 18.3281 14.9939 18.3469C15.3946 18.4188 15.8036 18.4999 16.1093 18.4999Z" fill="white"/>
<path d="M14.7812 27H10.2656C10.1952 27 10.1276 26.972 10.0778 26.9222C10.028 26.8724 10 26.8048 10 26.7344V23.8125C10 22.8883 10.1456 21.5601 10.8391 20.4814C11.5709 19.3429 12.7185 18.7656 14.25 18.7656C14.6262 18.7656 15.7063 19.0313 16.1094 19.0313C17.1102 19.0313 18.1391 18.6193 19.0469 18.2559C21.6799 17.2017 22.1636 20.0833 20.7578 20.6154C19.7209 21.0078 17.9488 21.2818 17.1134 22.0853L21.5576 20.9158L24.1021 18.6258C24.46 17.0016 24.5487 14.7813 26.7344 14.7813C26.7728 14.7818 26.8106 14.7906 26.8453 14.807C26.8801 14.8234 26.9109 14.847 26.9357 14.8763C26.9605 14.9056 26.9788 14.9399 26.9893 14.9769C26.9997 15.0138 27.0022 15.0526 26.9964 15.0905C26.9688 15.2566 26.258 19.8969 26.1253 20.016L21.8753 24.266C21.7835 24.3822 16.019 25.6589 15.8763 25.6918C15.6401 25.7454 15.4292 25.8779 15.2784 26.0674C15.1277 26.2569 15.046 26.4922 15.0469 26.7344C15.0469 26.8048 15.0189 26.8724 14.9691 26.9222C14.9193 26.972 14.8517 27 14.7812 27ZM23.5263 10.3867C23.44 10.3586 21.3997 9.70367 20.0418 10.1795C19.2769 10.4476 18.7828 10.8218 18.5078 11.22C18.2388 10.817 17.7465 10.4383 16.9785 10.1691C15.6332 9.6976 13.6084 10.3588 13.5227 10.3872C13.4845 10.4004 13.4498 10.4222 13.4211 10.4508C13.3925 10.4793 13.3707 10.514 13.3573 10.5522C13.344 10.5904 13.3394 10.6311 13.344 10.6713C13.3486 10.7115 13.3622 10.7502 13.3838 10.7844C13.7991 11.4211 15.173 13.3391 17.1563 13.3391C17.547 13.3391 17.9359 13.2384 18.2344 13.027V14.814C18.2344 14.8844 18.2624 14.952 18.3122 15.0018C18.362 15.0516 18.4296 15.0796 18.5 15.0796C18.5704 15.0796 18.638 15.0516 18.6878 15.0018C18.7376 14.952 18.7656 14.8844 18.7656 14.814V13.058C19.3757 13.4828 20.3598 13.3721 21.0679 13.1239C22.4256 12.6481 23.6157 10.8614 23.6657 10.7856C23.6875 10.7513 23.7013 10.7125 23.706 10.6721C23.7107 10.6317 23.7062 10.5907 23.6927 10.5523C23.6793 10.5139 23.6574 10.4791 23.6285 10.4504C23.5997 10.4217 23.5647 10.4 23.5263 10.3867Z" fill="white"/>
</g>
<defs>
<clipPath id="clip0_1_7195">
<rect width="17" height="17" fill="white" transform="translate(10 10)"/>
</clipPath>
</defs>
</svg>
