<svg width="59" height="59" viewBox="0 0 59 59" fill="none" xmlns="http://www.w3.org/2000/svg">
<rect width="59" height="59" rx="29.5" fill="#2D945C"/>
<path d="M39.5833 29.5C38.854 29.5 38.1545 29.2103 37.6388 28.6945C37.1231 28.1788 36.8333 27.4793 36.8333 26.75C36.8333 26.0207 37.1231 25.3212 37.6388 24.8055C38.1545 24.2897 38.854 24 39.5833 24C40.3127 24 41.0122 24.2897 41.5279 24.8055C42.0436 25.3212 42.3333 26.0207 42.3333 26.75C42.3333 27.4793 42.0436 28.1788 41.5279 28.6945C41.0122 29.2103 40.3127 29.5 39.5833 29.5ZM34.0833 22.1667C33.354 22.1667 32.6545 21.8769 32.1388 21.3612C31.6231 20.8455 31.3333 20.146 31.3333 19.4167C31.3333 18.6873 31.6231 17.9878 32.1388 17.4721C32.6545 16.9564 33.354 16.6667 34.0833 16.6667C34.8127 16.6667 35.5122 16.9564 36.0279 17.4721C36.5436 17.9878 36.8333 18.6873 36.8333 19.4167C36.8333 20.146 36.5436 20.8455 36.0279 21.3612C35.5122 21.8769 34.8127 22.1667 34.0833 22.1667ZM24.9167 22.1667C24.1873 22.1667 23.4878 21.8769 22.9721 21.3612C22.4564 20.8455 22.1667 20.146 22.1667 19.4167C22.1667 18.6873 22.4564 17.9878 22.9721 17.4721C23.4878 16.9564 24.1873 16.6667 24.9167 16.6667C25.646 16.6667 26.3455 16.9564 26.8612 17.4721C27.3769 17.9878 27.6667 18.6873 27.6667 19.4167C27.6667 20.146 27.3769 20.8455 26.8612 21.3612C26.3455 21.8769 25.646 22.1667 24.9167 22.1667ZM19.4167 29.5C18.6873 29.5 17.9878 29.2103 17.4721 28.6945C16.9564 28.1788 16.6667 27.4793 16.6667 26.75C16.6667 26.0207 16.9564 25.3212 17.4721 24.8055C17.9878 24.2897 18.6873 24 19.4167 24C20.146 24 20.8455 24.2897 21.3612 24.8055C21.8769 25.3212 22.1667 26.0207 22.1667 26.75C22.1667 27.4793 21.8769 28.1788 21.3612 28.6945C20.8455 29.2103 20.146 29.5 19.4167 29.5ZM29.5 13C25.1239 13 20.9271 14.7384 17.8327 17.8327C14.7384 20.9271 13 25.1239 13 29.5C13 33.8761 14.7384 38.0729 17.8327 41.1673C20.9271 44.2616 25.1239 46 29.5 46C30.2293 46 30.9288 45.7103 31.4445 45.1945C31.9603 44.6788 32.25 43.9793 32.25 43.25C32.25 42.535 31.975 41.8933 31.535 41.4167C31.1133 40.9217 30.8383 40.28 30.8383 39.5833C30.8383 38.854 31.1281 38.1545 31.6438 37.6388C32.1595 37.1231 32.859 36.8333 33.5883 36.8333H36.8333C39.2645 36.8333 41.5961 35.8676 43.3151 34.1485C45.0342 32.4294 46 30.0978 46 27.6667C46 19.5633 38.6117 13 29.5 13Z" fill="white"/>
</svg>
