<svg width="40" height="40" viewBox="0 0 40 40" fill="none" xmlns="http://www.w3.org/2000/svg">
<rect width="40" height="40" rx="20" fill="#2D945C"/>
<path d="M28.3721 17.0861C31.1546 14.3044 31.8512 10.1216 29.8638 8.13618C27.8771 6.14871 23.696 6.84537 20.914 9.627C18.6315 11.9107 18.1178 14.8586 19.5027 17.0056L18.7686 17.7398C18.6386 17.8706 18.5453 18.0332 18.4981 18.2115C18.4508 18.3897 18.4513 18.5772 18.4994 18.7552L13.4928 23.7601L11.3491 25.1597C11.3491 25.1597 9.48376 27.0243 7.24673 29.2621C7.04423 29.4638 6.23258 29.7846 6.23258 29.7846C5.96967 29.9075 5.92259 30.1759 6.12758 30.3805L7.61922 31.8721C7.82421 32.0771 8.09212 32.0308 8.21504 31.7679C8.21504 31.7679 8.53587 30.9559 8.73753 30.7538L12.8408 26.6513L14.2387 24.5072L19.2452 19.5006C19.4232 19.5488 19.6106 19.5493 19.7888 19.502C19.967 19.4548 20.1295 19.3615 20.2602 19.2314L20.9944 18.4977C23.1422 19.8831 26.0897 19.3698 28.3721 17.0861ZM21.8539 10.1937L22.4064 10.7457L21.6602 11.492L21.1335 10.9649C21.2964 10.7636 21.4681 10.5649 21.6602 10.3728C21.7227 10.3107 21.7898 10.2541 21.8539 10.1937ZM26.4393 8.06619L26.8809 8.50785L26.1351 9.25409L25.3889 8.50785L25.7443 8.15327C25.974 8.11037 26.2061 8.08129 26.4393 8.06619ZM24.6443 12.9836L23.8981 13.729L23.1518 12.9828L23.8972 12.2382L24.6443 12.9836ZM24.271 11.8649L25.0172 11.1186L25.7618 11.8649L25.0172 12.6111L24.271 11.8649ZM23.5256 14.1019L22.7793 14.8482L22.0331 14.1028L22.7793 13.3565L23.5256 14.1019ZM23.5256 16.3398L22.7793 17.0852L22.0331 16.3407L22.7793 15.5936L23.5256 16.3398ZM23.1518 15.2207L23.8981 14.4753L24.6443 15.2207L23.8981 15.9661L23.1518 15.2207ZM25.0172 15.5936L25.7618 16.3407L25.0164 17.0861L24.2701 16.3407L25.0172 15.5936ZM25.0164 14.8482L24.271 14.1019L25.0172 13.3565L25.7618 14.1028L25.0164 14.8482ZM25.3889 12.9836L26.1351 12.2382L26.8805 12.9836L26.1351 13.729L25.3889 12.9836ZM26.508 11.8649L27.2542 11.1186L27.9996 11.8649L27.2542 12.6111L26.508 11.8649ZM28.373 12.2374L29.1184 12.9836L28.373 13.729L27.6276 12.9828L28.373 12.2374ZM28.7459 11.8649L29.4921 11.1186L29.9342 11.5607C29.9191 11.7942 29.8899 12.0266 29.8467 12.2565L29.4921 12.6111L28.7459 11.8649ZM28.373 11.492L27.6276 10.7449L28.373 9.99949L29.1184 10.7449L28.373 11.492ZM27.2542 10.3732L26.508 9.627L27.2542 8.88076L27.9996 9.627L27.2542 10.3732ZM26.8805 10.7457L26.1351 11.492L25.3889 10.7457L26.1351 10.0003L26.8805 10.7457ZM25.0172 10.3732L24.271 9.627L25.0172 8.88159L25.7618 9.627L25.0172 10.3732ZM24.6443 10.7457L23.8981 11.492L23.1518 10.7449L23.8981 9.99949L24.6443 10.7457ZM23.5256 11.8649L22.7793 12.6103L22.0339 11.8649L22.7793 11.1186L23.5256 11.8649ZM22.4064 12.9836L21.6602 13.729L20.914 12.9836L21.6602 12.2382L22.4064 12.9836ZM21.2873 14.1019L20.5419 14.8473L19.8152 14.1219L19.8177 14.0811L20.5419 13.3565L21.2873 14.1019ZM21.6602 14.4753L22.4064 15.2207L21.6602 15.9669L20.914 15.2207L21.6602 14.4753ZM22.4064 17.459L22.0127 17.8527C21.6855 17.7004 21.3821 17.5015 21.1119 17.2623L21.6602 16.7136L22.4064 17.459ZM22.7793 17.8323L23.1089 18.161C22.9241 18.1371 22.7413 18.0998 22.5618 18.0494L22.7793 17.8323ZM23.8785 18.1856L23.1518 17.459L23.8981 16.7127L24.6443 17.459L23.9201 18.1831L23.8785 18.1856ZM25.0172 17.8315L25.1255 17.9398C25.023 17.9744 24.9201 18.004 24.8172 18.0319L25.0172 17.8315ZM25.3897 17.459L26.1351 16.7136L26.6088 17.1865C26.2976 17.4011 25.9797 17.5815 25.6584 17.7281L25.3897 17.459ZM25.3897 15.2207L26.1351 14.4753L26.8805 15.2207L26.1351 15.9669L25.3897 15.2207ZM26.5088 14.1019L27.2542 13.3565L28.0005 14.1019L27.2542 14.8482L26.5088 14.1019ZM28.373 14.4753L28.785 14.8873C28.5975 15.1844 28.3859 15.4723 28.1567 15.7502L27.6271 15.2207L28.373 14.4753ZM28.745 14.1028L29.4921 13.3565L29.5279 13.3924C29.4 13.7365 29.2446 14.0803 29.0613 14.4182L28.745 14.1028ZM29.8638 10.7457L29.9175 10.6924C29.9221 10.7341 29.9304 10.7736 29.9342 10.8157L29.8638 10.7457ZM29.4921 10.3732L28.7459 9.627L29.2896 9.08284C29.5179 9.367 29.6859 9.6995 29.7942 10.0712L29.4921 10.3732ZM28.373 9.25409L27.6276 8.50785L27.9296 8.20577C28.3009 8.3141 28.6334 8.48201 28.9171 8.70993L28.373 9.25409ZM27.2542 8.13535L27.1847 8.06577C27.2267 8.0691 27.2659 8.07785 27.3072 8.08285L27.2542 8.13535ZM24.6443 8.50785L23.8981 9.25409L23.5826 8.93867C23.9201 8.75534 24.2643 8.59993 24.6085 8.4716L24.6443 8.50785ZM23.5256 9.627L22.7793 10.3732L22.2498 9.84366C22.5238 9.61585 22.8122 9.40584 23.1131 9.21492L23.5256 9.627ZM21.2873 11.8649L20.5419 12.6111L20.2727 12.342C20.4194 12.0207 20.5994 11.7024 20.8144 11.3911L21.2873 11.8649ZM20.1686 12.9836L19.969 13.1832C19.9961 13.0803 20.0261 12.9782 20.0606 12.8753L20.1686 12.9836ZM20.1686 15.2207L19.9515 15.4382C19.9012 15.259 19.8639 15.0764 19.8398 14.8919L20.1686 15.2207ZM20.5419 15.5936L21.2873 16.3398L20.739 16.8894C20.4995 16.619 20.3004 16.3155 20.1477 15.9882L20.5419 15.5936ZM27.0359 16.8669L26.5084 16.3398L27.2538 15.5936L27.8063 16.1469C27.7463 16.2111 27.6901 16.2773 27.6271 16.3398C27.4355 16.5319 27.2372 16.704 27.0359 16.8669ZM21.5602 22.5597C21.1752 22.9451 20.9589 23.4676 20.9589 24.0124C20.9589 24.5572 21.1752 25.0797 21.5602 25.4651L24.4647 22.5597C24.0795 22.1747 23.5571 21.9585 23.0125 21.9585C22.4678 21.9585 21.9454 22.1747 21.5602 22.5597ZM25.9172 24.0114L25.1914 23.2864L22.286 26.1909L23.0118 26.9168L25.1905 31.9996L25.9172 31.2738L25.4818 30.258L26.2084 29.5313L26.8247 30.3663L27.5513 29.6396L26.9347 28.8055L27.6613 28.0788L28.4588 28.7321L29.1846 28.0063L28.3871 27.353L29.2588 26.4813L30.2746 26.9168L31 26.1909L25.9172 24.0114ZM26.2084 25.1743L25.9897 25.393L25.1905 24.738L26.2084 25.1743ZM24.1747 27.2088L23.7385 26.1909L24.356 27.0268L24.1747 27.2088ZM25.2634 26.1193L25.0818 26.3009L24.4643 25.4643L25.2634 26.1193ZM25.0455 29.2409L24.611 28.2259L24.9739 27.863L25.5901 28.6963L25.0455 29.2409ZM26.3168 27.9697L25.7005 27.1363L26.0643 26.7726L26.8609 27.4251L26.3168 27.9697ZM27.5872 26.6993L26.7905 26.0468L27.2267 25.6105L28.2409 26.0451L27.5872 26.6993Z" fill="white"/>
</svg>
