<svg width="40" height="40" viewBox="0 0 40 40" fill="none" xmlns="http://www.w3.org/2000/svg">
<rect width="40" height="40" rx="20" fill="#2D945C"/>
<path d="M29 10H11C10.4696 10 9.96086 10.2007 9.58579 10.5579C9.21071 10.9151 9 11.3996 9 11.9048V23.3333C9 23.8385 9.21071 24.323 9.58579 24.6802C9.96086 25.0374 10.4696 25.2381 11 25.2381H14.57L16 30L18 28.0952L20 30L22 28.0952L24 30L25.43 25.2381H29C29.5304 25.2381 30.0391 25.0374 30.4142 24.6802C30.7893 24.323 31 23.8385 31 23.3333V11.9048C31 11.3996 30.7893 10.9151 30.4142 10.5579C30.0391 10.2007 29.5304 10 29 10ZM29 23.3333H26V21.4286H25V16.6667C25 16.1615 24.7893 15.677 24.4142 15.3198C24.0391 14.9626 23.5304 14.7619 23 14.7619H17C16.4696 14.7619 15.9609 14.9626 15.5858 15.3198C15.2107 15.677 15 16.1615 15 16.6667V21.4286H14V23.3333H11V11.9048H29V23.3333ZM17 21.4286V16.6667H23V21.4286H17Z" fill="white"/>
</svg>
