<svg width="37" height="37" viewBox="0 0 37 37" fill="none" xmlns="http://www.w3.org/2000/svg">
<rect width="37" height="37" rx="18.5" fill="#185850"/>
<path d="M16.9355 11.7815C16.892 11.6699 16.828 11.5674 16.7467 11.4793C16.665 11.3908 16.5669 11.3194 16.4522 11.2657C16.3376 11.2119 16.21 11.1849 16.0693 11.1849C15.9321 11.1849 15.8057 11.2105 15.6902 11.2618C15.5747 11.313 15.4748 11.3817 15.3906 11.4676C15.3064 11.5535 15.2408 11.653 15.1939 11.7659C15.1473 11.8773 15.1234 11.9969 15.1235 12.1176C15.1235 12.2375 15.1461 12.3538 15.1913 12.4667C15.2365 12.5796 15.2998 12.68 15.3815 12.7676C15.4631 12.8554 15.5612 12.9261 15.6758 12.98C15.7906 13.0338 15.9181 13.0607 16.0589 13.0607C16.196 13.0607 16.3224 13.0346 16.4379 12.9826C16.5534 12.9306 16.6529 12.8615 16.7362 12.7755C16.8196 12.6896 16.8847 12.5905 16.9316 12.4785C16.9783 12.3675 17.0022 12.2484 17.002 12.128C17.0019 12.0099 16.9798 11.8945 16.9355 11.7815ZM16.4614 12.2973C16.4449 12.3564 16.4198 12.409 16.3858 12.455C16.3519 12.501 16.3081 12.5383 16.2543 12.567C16.2004 12.5956 16.1371 12.61 16.0641 12.61C15.9911 12.61 15.9281 12.596 15.8752 12.5682C15.8222 12.5405 15.7784 12.504 15.7437 12.4589C15.7089 12.4137 15.6828 12.3621 15.6655 12.3039C15.6481 12.2451 15.6393 12.1841 15.6394 12.1228C15.6394 12.0621 15.6476 12.0026 15.6642 11.9443C15.6807 11.8862 15.7063 11.834 15.741 11.7879C15.7757 11.742 15.8195 11.705 15.8726 11.6772C15.9255 11.6494 15.9885 11.6356 16.0615 11.6356C16.1327 11.6356 16.1948 11.649 16.2478 11.6759C16.3007 11.7028 16.345 11.7384 16.3806 11.7827C16.4162 11.827 16.4427 11.8783 16.4601 11.9365C16.4775 11.9947 16.4862 12.055 16.4862 12.1176C16.4861 12.1783 16.4778 12.2388 16.4614 12.2973ZM18.6773 12.2583C18.6522 12.1988 18.6138 12.1458 18.5652 12.1033C18.5166 12.0607 18.458 12.0238 18.3894 11.9925C18.3207 11.9613 18.2439 11.9326 18.1588 11.9066C18.1108 11.891 18.0626 11.8763 18.0142 11.8623C17.9716 11.8502 17.9356 11.8375 17.9061 11.8245C17.8765 11.8115 17.8539 11.7972 17.8383 11.7816C17.8226 11.7659 17.8149 11.7459 17.8149 11.7215C17.8149 11.6886 17.8283 11.6652 17.8552 11.6512C17.8822 11.6373 17.9182 11.6304 17.9634 11.6304C18.0189 11.6304 18.0758 11.6395 18.134 11.6577C18.1922 11.676 18.2448 11.6955 18.2916 11.7164C18.3472 11.7407 18.4011 11.7685 18.4531 11.7998L18.672 11.3803C18.6256 11.3572 18.5787 11.3351 18.5313 11.3138C18.4764 11.2894 18.4203 11.2676 18.3633 11.2487C18.3022 11.2284 18.24 11.2119 18.177 11.1992C18.1118 11.1861 18.0455 11.1795 17.979 11.1797C17.8869 11.1797 17.7996 11.1932 17.7172 11.22C17.6346 11.247 17.5612 11.2865 17.497 11.3386C17.4327 11.3907 17.3819 11.4558 17.3446 11.534C17.3072 11.6122 17.2885 11.7025 17.2885 11.805C17.2885 11.8727 17.2976 11.9326 17.3159 11.9848C17.334 12.0367 17.3629 12.0842 17.4006 12.1242C17.4388 12.165 17.4874 12.2014 17.5465 12.2336C17.6055 12.2657 17.6759 12.2956 17.7576 12.3234C17.8096 12.3415 17.8621 12.358 17.9152 12.3729C17.9647 12.3869 18.0086 12.4007 18.0468 12.4146C18.085 12.4285 18.1149 12.4445 18.1367 12.4628C18.1583 12.4811 18.1692 12.5032 18.1692 12.5292C18.1692 12.5536 18.1583 12.5732 18.1367 12.5878C18.1149 12.6026 18.0763 12.61 18.0207 12.61C17.9478 12.61 17.8761 12.5995 17.8058 12.5787C17.7354 12.5579 17.6724 12.5344 17.6169 12.5084C17.5512 12.479 17.4876 12.4451 17.4267 12.4068L17.2078 12.8523C17.2658 12.8864 17.3263 12.916 17.3889 12.9409C17.5226 12.9941 17.662 13.0317 17.8044 13.0529C17.8734 13.0632 17.9431 13.0685 18.0129 13.0686C18.098 13.0686 18.1826 13.0585 18.2669 13.0386C18.3512 13.0185 18.4268 12.986 18.4937 12.9408C18.5605 12.8957 18.6143 12.8353 18.6552 12.7597C18.696 12.6841 18.7164 12.5909 18.7164 12.4797C18.7163 12.3929 18.7034 12.3191 18.6773 12.2583Z" fill="white"/>
<path d="M26.2917 24.4019H26.0385C26.0496 24.3248 26.0555 24.246 26.0555 24.1658C26.0555 23.4172 25.5576 22.7851 24.875 22.5819V13.0686H23.8591V12.6022H23.0202V11.1954H22.5121V13.0686H22.1448V12.6022H21.3346V12.3104H22.0068V11.8987H21.3346V11.6381H22.1214V11.1953H20.8265V13.0686H19.9798V11.6382H20.5113V11.1954H18.9377V11.6382H19.4718V13.0686H14.777V11.1954H14.2689V11.8779H13.6489V11.1954H13.1408V13.0686H12.125V22.5819C11.4423 22.7851 10.9444 23.4172 10.9444 24.1658C10.9444 24.246 10.9504 24.3248 10.9615 24.4019H10.7083C10.3172 24.4019 10 24.719 10 25.1102C10 25.5014 10.3172 25.8186 10.7083 25.8186H15.6666V22.9852H21.3333V25.8186H26.2916C26.6828 25.8186 27 25.5014 27 25.1102C27 24.7191 26.6828 24.4019 26.2917 24.4019ZM13.6489 12.3208H14.269V13.0686H13.6489V12.3208ZM14.9583 21.5686H13.5416V20.1519H14.9583V21.5686ZM14.9583 18.7352H13.5416V17.3186H14.9583V18.7352ZM14.9583 15.9019H13.5416V14.4852H14.9583V15.9019ZM17.7917 21.5686H16.375V20.1519H17.7917V21.5686ZM17.7917 18.7352H16.375V17.3186H17.7917V18.7352ZM17.7917 15.9019H16.375V14.4852H17.7917V15.9019ZM20.625 21.5686H19.2083V20.1519H20.625V21.5686ZM20.625 18.7352H19.2083V17.3186H20.625V18.7352ZM20.625 15.9019H19.2083V14.4852H20.625V15.9019ZM23.4583 21.5686H22.0416V20.1519H23.4583V21.5686ZM23.4583 18.7352H22.0416V17.3186H23.4583V18.7352ZM23.4583 15.9019H22.0416V14.4852H23.4583V15.9019Z" fill="white"/>
</svg>
