<svg width="32" height="32" viewBox="0 0 32 32" fill="none" xmlns="http://www.w3.org/2000/svg">
<rect x="0.669556" y="0.500977" width="31" height="31" rx="15.5" fill="white"/>
<g clip-path="url(#clip0_821_3478)">
<path d="M14.6026 9.28251C14.5591 9.17086 14.4951 9.06836 14.4138 8.98032C14.3321 8.89174 14.234 8.82042 14.1193 8.76663C14.0047 8.71284 13.8771 8.68585 13.7364 8.68585C13.5992 8.68585 13.4728 8.71148 13.3574 8.76278C13.2418 8.81401 13.1419 8.88264 13.0577 8.96857C12.9735 9.05447 12.9079 9.15398 12.861 9.26683C12.8144 9.37825 12.7905 9.49783 12.7907 9.61859C12.7907 9.73845 12.8132 9.85476 12.8584 9.96765C12.9036 10.0806 12.9669 10.1809 13.0486 10.2686C13.1302 10.3564 13.2283 10.4271 13.343 10.481C13.4577 10.5348 13.5852 10.5617 13.726 10.5617C13.8631 10.5617 13.9895 10.5356 14.105 10.4836C14.2205 10.4316 14.32 10.3624 14.4033 10.2765C14.4867 10.1905 14.5518 10.0915 14.5988 9.97944C14.6454 9.86852 14.6693 9.74935 14.6691 9.62901C14.6691 9.51091 14.6469 9.39546 14.6026 9.28251ZM14.1285 9.79832C14.112 9.85739 14.0869 9.90995 14.0529 9.95593C14.019 10.002 13.9752 10.0393 13.9214 10.068C13.8675 10.0965 13.8042 10.111 13.7312 10.111C13.6582 10.111 13.5953 10.097 13.5423 10.0692C13.4893 10.0414 13.4455 10.005 13.4108 9.95985C13.376 9.91469 13.35 9.86303 13.3326 9.80486C13.3152 9.74608 13.3064 9.68507 13.3066 9.62377C13.3066 9.56304 13.3148 9.50354 13.3313 9.44524C13.3478 9.38716 13.3734 9.33497 13.4081 9.28891C13.4428 9.24293 13.4867 9.20601 13.5397 9.17818C13.5926 9.15036 13.6556 9.13655 13.7286 9.13655C13.7998 9.13655 13.8619 9.14999 13.9149 9.17689C13.9678 9.20382 14.0122 9.23941 14.0477 9.2837C14.0833 9.32799 14.1098 9.37923 14.1272 9.43747C14.1446 9.4957 14.1533 9.556 14.1533 9.61856C14.1532 9.67932 14.1449 9.7398 14.1285 9.79832ZM16.3444 9.75927C16.3193 9.69978 16.281 9.64678 16.2324 9.60424C16.1837 9.56171 16.1251 9.52476 16.0565 9.49351C15.9878 9.46227 15.911 9.43358 15.8259 9.40758C15.778 9.39202 15.7298 9.37725 15.6813 9.36329C15.6387 9.3512 15.6027 9.33849 15.5732 9.32547C15.5436 9.31249 15.521 9.29815 15.5054 9.28254C15.4897 9.26687 15.482 9.24688 15.482 9.22251C15.482 9.18954 15.4954 9.16616 15.5223 9.15218C15.5493 9.13831 15.5853 9.1314 15.6305 9.1314C15.6861 9.1314 15.7429 9.1405 15.8011 9.15873C15.8593 9.17695 15.9119 9.19644 15.9587 9.21733C16.0143 9.24167 16.0682 9.26952 16.1203 9.30074L16.3391 8.88125C16.2927 8.85819 16.2458 8.83604 16.1985 8.81481C16.1435 8.79033 16.0874 8.7686 16.0304 8.7497C15.9693 8.7294 15.9071 8.71286 15.8441 8.70016C15.7789 8.68704 15.7126 8.68051 15.6461 8.68067C15.554 8.68067 15.4667 8.69418 15.3843 8.72101C15.3017 8.74797 15.2284 8.78745 15.1641 8.83958C15.0999 8.89171 15.049 8.95678 15.0117 9.03498C14.9743 9.11317 14.9557 9.20352 14.9557 9.30595C14.9557 9.37365 14.9648 9.43358 14.9831 9.48578C15.0012 9.53767 15.03 9.58516 15.0677 9.62513C15.1059 9.66597 15.1545 9.70243 15.2136 9.73453C15.2726 9.76671 15.343 9.79659 15.4247 9.82438C15.4767 9.84244 15.5293 9.85893 15.5823 9.87385C15.6318 9.88783 15.6757 9.90168 15.7139 9.91556C15.7521 9.9295 15.782 9.94551 15.8038 9.96374C15.8254 9.98206 15.8363 10.0041 15.8363 10.0302C15.8363 10.0546 15.8254 10.0742 15.8038 10.0888C15.7821 10.1036 15.7434 10.111 15.6878 10.111C15.6149 10.111 15.5432 10.1005 15.4729 10.0797C15.4025 10.0589 15.3395 10.0354 15.284 10.0094C15.2183 9.98002 15.1547 9.94606 15.0938 9.90775L14.8749 10.3532C14.9329 10.3874 14.9934 10.417 15.056 10.4418C15.1897 10.4951 15.3292 10.5327 15.4715 10.5539C15.5405 10.5642 15.6102 10.5694 15.68 10.5696C15.7651 10.5696 15.8498 10.5595 15.9341 10.5396C16.0184 10.5195 16.0939 10.487 16.1608 10.4418C16.2276 10.3967 16.2815 10.3363 16.3223 10.2607C16.3631 10.1851 16.3835 10.0918 16.3835 9.98064C16.3835 9.89384 16.3705 9.82003 16.3444 9.75927Z" fill="#185850"/>
<path d="M23.9612 21.9029H23.7081C23.7191 21.8257 23.7251 21.747 23.7251 21.6668C23.7251 20.9181 23.2272 20.2861 22.5445 20.0829V10.5695H21.5287V10.1032H20.6898V8.69636H20.1817V10.5696H19.8144V10.1032H19.0042V9.81138H19.6763V9.39966H19.0042V9.13909H19.791V8.69629H18.4961V10.5695H17.6494V9.13915H18.1809V8.69636H16.6073V9.13915H17.1413V10.5696H12.4466V8.69636H11.9385V9.37885H11.3184V8.69636H10.8104V10.5696H9.79456V20.0829C9.1119 20.2861 8.61399 20.9181 8.61399 21.6668C8.61399 21.747 8.62 21.8257 8.63102 21.9029H8.37784C7.98671 21.9029 7.66956 22.22 7.66956 22.6112C7.66956 23.0024 7.98671 23.3195 8.37788 23.3195H13.3362V20.4862H19.0029V23.3195H23.9612C24.3524 23.3195 24.6695 23.0024 24.6695 22.6112C24.6695 22.2201 24.3524 21.9029 23.9612 21.9029ZM11.3185 9.82174H11.9385V10.5695H11.3185V9.82174ZM12.6279 19.0695H11.2112V17.6529H12.6279V19.0695ZM12.6279 16.2362H11.2112V14.8195H12.6279V16.2362ZM12.6279 13.4029H11.2112V11.9862H12.6279V13.4029ZM15.4612 19.0695H14.0446V17.6529H15.4612V19.0695ZM15.4612 16.2362H14.0446V14.8195H15.4612V16.2362ZM15.4612 13.4029H14.0446V11.9862H15.4612V13.4029ZM18.2946 19.0695H16.8779V17.6529H18.2946V19.0695ZM18.2946 16.2362H16.8779V14.8195H18.2946V16.2362ZM18.2946 13.4029H16.8779V11.9862H18.2946V13.4029ZM21.1279 19.0695H19.7112V17.6529H21.1279V19.0695ZM21.1279 16.2362H19.7112V14.8195H21.1279V16.2362ZM21.1279 13.4029H19.7112V11.9862H21.1279V13.4029Z" fill="#185850"/>
</g>
<defs>
<clipPath id="clip0_821_3478">
<rect width="17" height="17" fill="white" transform="translate(7.66956 7.50098)"/>
</clipPath>
</defs>
</svg>
