<svg width="33" height="32" viewBox="0 0 33 32" fill="none" xmlns="http://www.w3.org/2000/svg">
<rect x="0.882812" y="0.383789" width="31.2344" height="31.2344" rx="15.6172" fill="white"/>
<path d="M24.5101 11.0364C24.7749 11.38 24.8344 11.7687 24.6888 12.2027L21.9582 20.3938C21.8324 20.7795 21.5792 21.1035 21.1986 21.3657C20.818 21.6279 20.4125 21.759 19.9822 21.759H10.8173C10.3076 21.759 9.81609 21.5977 9.34279 21.2753C8.86948 20.9528 8.54015 20.5565 8.3548 20.0864C8.19593 19.6826 8.18931 19.2998 8.33494 18.9382C8.33494 18.9141 8.34487 18.8327 8.36473 18.6941C8.38459 18.5555 8.39783 18.444 8.40445 18.3596C8.41107 18.3114 8.40114 18.2466 8.37466 18.1652C8.34818 18.0838 8.33825 18.0251 8.34487 17.9889C8.35811 17.9226 8.38459 17.8593 8.42431 17.799C8.46403 17.7388 8.51864 17.6679 8.58815 17.5866C8.65765 17.5052 8.71226 17.4344 8.75198 17.3741C8.90423 17.1451 9.05318 16.8693 9.19881 16.5469C9.34444 16.2244 9.44374 15.9487 9.49669 15.7196C9.51655 15.6593 9.51821 15.5689 9.50166 15.4484C9.48511 15.3278 9.48345 15.2435 9.49669 15.1952C9.51655 15.1289 9.57282 15.0446 9.66549 14.9421C9.75817 14.8396 9.81444 14.7703 9.8343 14.7342C9.97331 14.5172 10.1123 14.2399 10.2513 13.9024C10.3903 13.5649 10.4731 13.2936 10.4996 13.0887C10.5062 13.0345 10.4979 12.938 10.4747 12.7994C10.4516 12.6608 10.4532 12.5764 10.4797 12.5462C10.5062 12.4679 10.579 12.376 10.6982 12.2705C10.8173 12.165 10.8901 12.0972 10.9166 12.0671C11.0424 11.9104 11.1831 11.6557 11.3386 11.3031C11.4942 10.9505 11.5852 10.6597 11.6117 10.4307C11.6183 10.3824 11.6084 10.3056 11.5819 10.2001C11.5554 10.0946 11.5488 10.0148 11.562 9.96053C11.5753 9.91231 11.6051 9.85807 11.6514 9.79779C11.6977 9.73752 11.7573 9.66821 11.8301 9.58985C11.9029 9.5115 11.9592 9.44821 11.9989 9.39999C12.0519 9.32766 12.1065 9.23575 12.1628 9.12424C12.219 9.01274 12.2687 8.90726 12.3117 8.80781C12.3547 8.70836 12.4077 8.59987 12.4706 8.48233C12.5335 8.3648 12.598 8.26837 12.6642 8.19302C12.7304 8.11768 12.8181 8.04686 12.9273 7.98056C13.0366 7.91426 13.1557 7.8796 13.2848 7.87659C13.4139 7.87358 13.5711 7.89015 13.7564 7.92632L13.7465 7.95344C13.9981 7.89919 14.1669 7.87207 14.2529 7.87207H21.8092C22.2991 7.87207 22.6764 8.04083 22.9412 8.37836C23.206 8.71589 23.2656 9.10767 23.1199 9.55369L20.3993 17.7448C20.161 18.462 19.9243 18.9246 19.6893 19.1326C19.4543 19.3405 19.029 19.4445 18.4134 19.4445H9.78465C9.60592 19.4445 9.48014 19.4897 9.40733 19.5801C9.33451 19.6765 9.3312 19.8061 9.3974 19.9689C9.55627 20.3908 10.0329 20.6017 10.8272 20.6017H19.9922C20.1841 20.6017 20.3695 20.555 20.5482 20.4616C20.7269 20.3682 20.8428 20.2431 20.8957 20.0864L23.8746 11.163C23.9209 11.0304 23.9375 10.8586 23.9242 10.6476C24.1758 10.7381 24.3711 10.8676 24.5101 11.0364ZM13.9451 11.0545C13.9186 11.1328 13.9252 11.2006 13.965 11.2579C14.0047 11.3152 14.0709 11.3438 14.1635 11.3438H20.2007C20.2867 11.3438 20.3711 11.3152 20.4539 11.2579C20.5366 11.2006 20.5912 11.1328 20.6177 11.0545L20.8262 10.4759C20.8527 10.3975 20.8461 10.3297 20.8064 10.2724C20.7667 10.2152 20.7005 10.1866 20.6078 10.1866H14.5707C14.4846 10.1866 14.4002 10.2152 14.3175 10.2724C14.2347 10.3297 14.1801 10.3975 14.1536 10.4759L13.9451 11.0545ZM13.121 13.369C13.0945 13.4473 13.1011 13.5151 13.1408 13.5724C13.1805 13.6296 13.2467 13.6583 13.3394 13.6583H19.3765C19.4626 13.6583 19.547 13.6296 19.6297 13.5724C19.7125 13.5151 19.7671 13.4473 19.7936 13.369L20.0021 12.7903C20.0286 12.712 20.0219 12.6442 19.9822 12.5869C19.9425 12.5297 19.8763 12.501 19.7836 12.501H13.7465C13.6605 12.501 13.5761 12.5297 13.4933 12.5869C13.4106 12.6442 13.356 12.712 13.3295 12.7903L13.121 13.369Z" fill="#185850"/>
</svg>
