<svg width="37" height="37" viewBox="0 0 37 37" fill="none" xmlns="http://www.w3.org/2000/svg">
<rect width="37" height="37" rx="18.5" fill="#185850"/>
<path d="M27.9907 12.6195C28.3044 13.0265 28.375 13.487 28.2025 14.0011L24.9678 23.7042C24.8188 24.1612 24.5189 24.5449 24.068 24.8555C23.6171 25.1661 23.1368 25.3214 22.6271 25.3214H11.7704C11.1666 25.3214 10.5844 25.1304 10.0237 24.7484C9.46302 24.3664 9.0729 23.897 8.85334 23.3401C8.66514 22.8617 8.6573 22.4083 8.82982 21.9799C8.82982 21.9514 8.84158 21.855 8.8651 21.6908C8.88863 21.5266 8.90431 21.3945 8.91215 21.2945C8.91999 21.2374 8.90823 21.1606 8.87686 21.0642C8.8455 20.9679 8.83374 20.8982 8.84158 20.8554C8.85726 20.7769 8.88863 20.7019 8.93568 20.6305C8.98273 20.5591 9.04742 20.4752 9.12976 20.3788C9.21209 20.2824 9.27679 20.1985 9.32384 20.1271C9.50419 19.8558 9.68063 19.5292 9.85314 19.1472C10.0257 18.7652 10.1433 18.4385 10.206 18.1672C10.2295 18.0958 10.2315 17.9887 10.2119 17.8459C10.1923 17.7031 10.1903 17.6032 10.206 17.5461C10.2295 17.4675 10.2962 17.3676 10.406 17.2462C10.5158 17.1248 10.5824 17.0427 10.6059 16.9999C10.7706 16.7428 10.9353 16.4144 11.1 16.0146C11.2646 15.6147 11.3626 15.2934 11.394 15.0507C11.4019 14.9864 11.3921 14.8722 11.3646 14.708C11.3372 14.5437 11.3391 14.4438 11.3705 14.4081C11.4019 14.3153 11.4881 14.2064 11.6293 14.0814C11.7704 13.9565 11.8567 13.8762 11.888 13.8405C12.037 13.6548 12.2037 13.3532 12.3879 12.9355C12.5722 12.5178 12.68 12.1733 12.7114 11.902C12.7192 11.8449 12.7075 11.7538 12.6761 11.6289C12.6447 11.5039 12.6369 11.4093 12.6526 11.3451C12.6683 11.2879 12.7036 11.2237 12.7585 11.1523C12.8133 11.0809 12.8839 10.9988 12.9702 10.906C13.0564 10.8131 13.1231 10.7382 13.1701 10.6811C13.2329 10.5954 13.2976 10.4865 13.3642 10.3544C13.4309 10.2223 13.4897 10.0974 13.5407 9.97956C13.5916 9.86175 13.6544 9.73324 13.7288 9.59401C13.8033 9.45478 13.8798 9.34054 13.9582 9.25129C14.0366 9.16204 14.1405 9.07815 14.2699 8.99961C14.3993 8.92107 14.5405 8.88002 14.6934 8.87645C14.8463 8.87288 15.0325 8.89251 15.2521 8.93535L15.2403 8.96748C15.5383 8.90322 15.7383 8.87109 15.8402 8.87109H24.7914C25.3717 8.87109 25.8186 9.07101 26.1323 9.47084C26.4459 9.87068 26.5165 10.3348 26.344 10.8631L23.1211 20.5662C22.8388 21.4159 22.5585 21.9639 22.2801 22.2102C22.0017 22.4565 21.4979 22.5797 20.7686 22.5797H10.5471C10.3354 22.5797 10.1864 22.6332 10.1002 22.7403C10.0139 22.8546 10.01 23.0081 10.0884 23.2009C10.2766 23.7006 10.8412 23.9505 11.7822 23.9505H22.6389C22.8663 23.9505 23.0858 23.8952 23.2976 23.7845C23.5093 23.6739 23.6465 23.5257 23.7092 23.3401L27.2379 12.7695C27.2928 12.6124 27.3124 12.4089 27.2968 12.159C27.5947 12.2661 27.8261 12.4196 27.9907 12.6195ZM15.4756 12.641C15.4442 12.7338 15.452 12.8141 15.4991 12.8819C15.5461 12.9498 15.6246 12.9837 15.7343 12.9837H22.8859C22.9878 12.9837 23.0878 12.9498 23.1858 12.8819C23.2838 12.8141 23.3485 12.7338 23.3799 12.641L23.6269 11.9555C23.6583 11.8627 23.6504 11.7824 23.6034 11.7146C23.5563 11.6467 23.4779 11.6128 23.3681 11.6128H16.2166C16.1147 11.6128 16.0147 11.6467 15.9167 11.7146C15.8186 11.7824 15.7539 11.8627 15.7226 11.9555L15.4756 12.641ZM14.4993 15.3827C14.4679 15.4755 14.4758 15.5558 14.5228 15.6236C14.5699 15.6915 14.6483 15.7254 14.7581 15.7254H21.9096C22.0115 15.7254 22.1115 15.6915 22.2095 15.6236C22.3075 15.5558 22.3722 15.4755 22.4036 15.3827L22.6506 14.6972C22.682 14.6044 22.6741 14.5241 22.6271 14.4563C22.58 14.3884 22.5016 14.3545 22.3918 14.3545H15.2403C15.1384 14.3545 15.0384 14.3884 14.9404 14.4563C14.8424 14.5241 14.7777 14.6044 14.7463 14.6972L14.4993 15.3827Z" fill="white"/>
</svg>
