<svg width="32" height="32" viewBox="0 0 32 32" fill="none" xmlns="http://www.w3.org/2000/svg">
<rect x="0.669556" y="0.500977" width="31" height="31" rx="15.5" fill="white"/>
<g clip-path="url(#clip0_821_3430)">
<path d="M11.7506 20.4927H8.32207C8.04701 20.4927 7.82402 20.7157 7.82402 20.9907V24.0029C7.82402 24.278 8.04701 24.501 8.32207 24.501H12.2486V20.9907C12.2486 20.7157 12.0256 20.4927 11.7506 20.4927ZM16.6732 17.7036H13.7427C13.4677 17.7036 13.2447 17.9266 13.2447 18.2017V24.501H17.1713V18.2017C17.1713 17.9266 16.9483 17.7036 16.6732 17.7036ZM23.5339 10.1908L24.5376 9.10137C24.6717 8.95594 24.7069 8.7451 24.6276 8.56414C24.5888 8.47546 24.525 8.40002 24.4439 8.34707C24.3629 8.29411 24.2682 8.26593 24.1714 8.26598H20.9607V7.99902C20.9607 7.7241 20.7379 7.50098 20.4626 7.50098C20.1877 7.50098 19.9646 7.7241 19.9646 7.99902V13.8096H18.6653C18.3903 13.8096 18.1673 14.0326 18.1673 14.3076V24.501H22.1785C22.4538 24.501 22.6766 24.2779 22.6766 24.0029V14.3076C22.6766 14.0327 22.4538 13.8096 22.1785 13.8096H20.9607V12.0276H24.1714C24.3729 12.0276 24.5545 11.906 24.6316 11.7198C24.7086 11.5335 24.6658 11.319 24.523 11.1769L23.5339 10.1908ZM16.1214 11.777C16.2436 12.0235 16.5424 12.1241 16.7889 12.002C17.0353 11.8797 17.136 11.5809 17.0138 11.3345C16.1109 9.51372 16.2022 9.69726 16.1891 9.67253C16.1427 9.58479 16.0711 9.51292 15.9836 9.46617C15.896 9.41942 15.7965 9.39991 15.6978 9.41016C15.6964 9.41029 15.695 9.41059 15.6936 9.41075C15.6528 9.41534 15.7616 9.39399 13.8752 9.79096C13.606 9.84761 13.4338 10.1117 13.4904 10.3809C13.5398 10.6155 13.7467 10.7765 13.9773 10.7765C14.0466 10.7765 14.0019 10.7822 14.8779 10.5979C14.2248 11.8799 13.3747 13.0482 12.3425 14.0805C11.0773 15.3456 9.60742 16.3375 7.9736 17.0285C7.72026 17.1357 7.60176 17.4279 7.7089 17.6813C7.81612 17.9348 8.10847 18.053 8.36161 17.946C10.1142 17.2047 11.6905 16.1412 13.0468 14.7848C14.1522 13.6794 15.063 12.4281 15.7632 11.0548L16.1214 11.777Z" fill="#185850"/>
</g>
<defs>
<clipPath id="clip0_821_3430">
<rect width="17" height="17" fill="white" transform="translate(7.66956 7.50098)"/>
</clipPath>
</defs>
</svg>
