<svg width="40" height="40" viewBox="0 0 40 40" fill="none" xmlns="http://www.w3.org/2000/svg">
<rect width="40" height="40" rx="20" fill="#2D945C"/>
<path d="M14.25 19C13.6295 19 13.0151 18.8836 12.4418 18.6575C11.8686 18.4313 11.3477 18.0998 10.9089 17.682C10.4702 17.2641 10.1221 16.768 9.88467 16.2221C9.64722 15.6761 9.525 15.0909 9.525 14.5C9.525 13.9091 9.64722 13.3239 9.88467 12.7779C10.1221 12.232 10.4702 11.7359 10.9089 11.318C11.3477 10.9002 11.8686 10.5687 12.4418 10.3425C13.0151 10.1164 13.6295 10 14.25 10C15.5031 10 16.705 10.4741 17.5911 11.318C18.4772 12.1619 18.975 13.3065 18.975 14.5C18.975 15.6935 18.4772 16.8381 17.5911 17.682C16.705 18.5259 15.5031 19 14.25 19ZM25.275 23C24.1611 23 23.0928 22.5786 22.3052 21.8284C21.5175 21.0783 21.075 20.0609 21.075 19C21.075 17.9391 21.5175 16.9217 22.3052 16.1716C23.0928 15.4214 24.1611 15 25.275 15C26.3889 15 27.4572 15.4214 28.2448 16.1716C29.0325 16.9217 29.475 17.9391 29.475 19C29.475 20.0609 29.0325 21.0783 28.2448 21.8284C27.4572 22.5786 26.3889 23 25.275 23ZM25.275 24C26.5281 24 27.73 24.4741 28.6161 25.318C29.5022 26.1619 30 27.3065 30 28.5V29H20.55V28.5C20.55 27.3065 21.0478 26.1619 21.9339 25.318C22.82 24.4741 24.0219 24 25.275 24ZM14.25 20C14.9394 20 15.6221 20.1293 16.2591 20.3806C16.896 20.6319 17.4748 21.0002 17.9623 21.4645C18.4498 21.9288 18.8365 22.48 19.1004 23.0866C19.3642 23.6932 19.5 24.3434 19.5 25V29H9V25C9 23.6739 9.55312 22.4021 10.5377 21.4645C11.5223 20.5268 12.8576 20 14.25 20Z" fill="white"/>
</svg>
