<svg width="37" height="37" viewBox="0 0 37 37" fill="none" xmlns="http://www.w3.org/2000/svg">
<rect width="37" height="37" rx="18.5" fill="#185850"/>
<g clip-path="url(#clip0_1_7161)">
<path d="M14.081 22.9917H10.6525C10.3775 22.9917 10.1545 23.2147 10.1545 23.4898V26.502C10.1545 26.777 10.3775 27 10.6525 27H14.5791V23.4898C14.579 23.2147 14.3561 22.9917 14.081 22.9917ZM19.0037 20.2027H16.0732C15.7981 20.2027 15.5751 20.4256 15.5751 20.7007V27H19.5017V20.7007C19.5017 20.4256 19.2787 20.2027 19.0037 20.2027ZM25.8643 12.6898L26.8681 11.6004C27.0022 11.455 27.0374 11.2441 26.958 11.0632C26.9192 10.9745 26.8554 10.899 26.7744 10.8461C26.6933 10.7931 26.5986 10.765 26.5018 10.765H23.2911V10.498C23.2911 10.2231 23.0683 10 22.7931 10C22.5181 10 22.295 10.2231 22.295 10.498V16.3086H20.9958C20.7207 16.3086 20.4977 16.5316 20.4977 16.8066V27H24.509C24.7842 27 25.007 26.7769 25.007 26.502V16.8066C25.007 16.5317 24.7842 16.3086 24.509 16.3086H23.2911V14.5266H26.5018C26.7034 14.5266 26.885 14.4051 26.962 14.2188C27.039 14.0325 26.9962 13.818 26.8534 13.6759L25.8643 12.6898ZM18.4519 14.2761C18.5741 14.5225 18.8728 14.6232 19.1193 14.501C19.3657 14.3788 19.4664 14.0799 19.3442 13.8335C18.4413 12.0127 18.5326 12.1963 18.5195 12.1716C18.4731 12.0838 18.4016 12.0119 18.314 11.9652C18.2265 11.9184 18.127 11.8989 18.0283 11.9092C18.0269 11.9093 18.0254 11.9096 18.024 11.9098C17.9833 11.9144 18.0921 11.893 16.2057 12.29C15.9365 12.3466 15.7642 12.6108 15.8208 12.8799C15.8702 13.1145 16.0772 13.2755 16.3077 13.2755C16.377 13.2755 16.3324 13.2813 17.2083 13.0969C16.5552 14.3789 15.7052 15.5472 14.6729 16.5795C13.4078 17.8447 11.9379 18.8365 10.304 19.5276C10.0507 19.6348 9.9322 19.9269 10.0393 20.1803C10.1466 20.4338 10.4389 20.5521 10.6921 20.445C12.4446 19.7037 14.0209 18.6402 15.3772 17.2838C16.4826 16.1784 17.3935 14.9271 18.0937 13.5539L18.4519 14.2761Z" fill="white"/>
</g>
<defs>
<clipPath id="clip0_1_7161">
<rect width="17" height="17" fill="white" transform="translate(10 10)"/>
</clipPath>
</defs>
</svg>
