<svg width="40" height="40" viewBox="0 0 40 40" fill="none" xmlns="http://www.w3.org/2000/svg">
<rect width="40" height="40" rx="20" fill="#2D945C"/>
<path d="M22.8755 25.8455C23.4579 25.2721 23.1436 23.9551 22.1923 22.4338C22.538 22.3798 22.8613 22.2973 23.1058 22.1709C23.9855 21.7168 24.5795 20.8891 25.0291 20.033C25.5125 19.1146 25.8369 18.1051 26.4676 17.2689C26.5741 17.1275 26.6806 17.0008 26.7868 16.8815C28.1476 17.0446 29.234 17.3371 29.234 17.3371L29.6491 16.2823C29.1252 16.0942 28.5879 15.9454 28.0419 15.8371C28.3764 15.647 28.5946 15.5877 28.5946 15.5877L28.2013 14.5243C27.5705 14.7909 27.0586 15.1842 26.63 15.6552C25.028 15.5656 23.4148 15.8848 22.142 16.8718C21.185 17.6143 20.5385 18.6436 19.9303 19.6734C19.3913 19.1445 18.8174 18.6525 18.2124 18.2008C18.3271 18.0121 18.4501 17.8426 18.5825 17.7118C19.3824 16.9243 20.4376 16.4206 21.1299 15.5195C22.5849 13.6273 21.5206 10.661 20.3236 9.125C20.1091 9.33162 19.7544 9.63275 19.4874 9.8705C20.7597 11.1736 21.6496 13.4551 20.6525 15.1599C20.0953 16.1128 19.0655 16.7105 18.3455 17.5291C18.221 17.6712 18.1096 17.8512 18.0087 18.05C16.1259 16.6996 14.3979 16.1562 13.7131 16.8305C13.6451 16.9001 13.5891 16.9804 13.5474 17.0682L13.5448 17.0656L13.5264 17.1193C13.5009 17.1774 13.4776 17.2378 13.4619 17.3038L8.75 30.875L22.4982 26.0682L22.4945 26.0645C22.6423 26.0169 22.7724 25.9468 22.8755 25.8455ZM11.4849 29.1245L10.3374 28.5897L11.1118 26.3585L14.6634 28.013L11.4849 29.1245ZM17.8415 26.9019L11.8869 24.1273L12.6613 21.8964L17.111 24.1299C14.4549 22.4011 13.4356 19.6648 13.4356 19.6648L13.7004 18.9024C14.171 20.093 15.2064 21.5757 16.6291 22.9752C18.0639 24.3875 19.5845 25.4105 20.7999 25.8676L17.8415 26.9019ZM20.1286 19.8744C20.7504 18.983 21.3912 18.0834 22.2822 17.4432C23.1305 16.8335 24.5075 16.7221 25.8129 16.7952C25.3719 17.5655 25.046 18.4201 24.7535 19.241C24.3999 20.2347 23.9259 21.2653 23.0221 21.8746C22.7784 22.0389 22.4368 22.1589 22.0719 22.2477C21.5705 21.4794 20.9127 20.6671 20.1286 19.8744Z" fill="white"/>
<path d="M16.6374 16.25C17.0131 16.25 15.8866 15.125 16.0749 14.1384C16.7964 14.0828 18.4456 14.408 17.4856 13.0895C18.5716 13.2807 19.1341 12.47 18.1089 11.7016C18.4501 11.7256 18.9804 11.0821 18.5998 11.0007C17.3803 10.7424 16.9029 11.402 17.6769 12.3534C16.8631 12.2019 16.1998 12.5802 16.811 13.43C14.4613 13.1371 15.7981 16.25 16.6374 16.25ZM24.7044 15.2502C25.0565 15.0912 24.4591 14.0409 24.2649 13.7723C25.751 13.6133 25.6948 13.1705 24.7629 12.2217C27.2964 12.3069 24.8413 10.8669 25.1855 10.2969C25.4836 9.8026 26.3983 10.3209 26.3135 10.0456C26.0278 9.12498 23.3173 9.74748 25.0325 11.4665C23.5355 11.4957 23.3919 11.9851 24.5075 12.9995C22.5643 13.0208 24.1498 15.5 24.7044 15.2502ZM31.1364 18.9594C30.5431 19.1255 30.4516 19.0632 30.5308 19.6539C29.1605 19.0231 27.7108 18.146 28.5905 20.4698C27.0343 19.5432 27.1119 20.3547 26.8209 21.6901C26.4421 21.395 25.904 20.6172 25.904 20.6172L25.334 21.1014C25.334 21.1014 26.3784 22.5743 26.894 22.4907C27.3474 22.4176 27.5941 21.5607 27.6193 20.8055C29.063 21.4149 29.7541 21.4962 29.0938 19.7142C30.248 20.3626 31.6633 20.9345 31.1364 18.9594ZM10.2684 12.2889L11.3289 13.3497L10.2684 14.4102L9.20752 13.3497L10.2684 12.2889ZM12.809 16.6992L11.7478 17.7597L10.6869 16.6985L11.7481 15.6376L12.809 16.6992ZM14.4575 10.625L15.518 11.6855L14.4571 12.7467L13.3966 11.6855L14.4575 10.625ZM26.0041 25.4315L24.9429 24.3706L26.0034 23.3094L27.0646 24.3702L26.0041 25.4315ZM23.6394 29.0697L22.5789 28.0092L23.6394 26.9483L24.7003 28.0092L23.6394 29.0697ZM28.2924 29.9075L27.2311 28.8466L28.2913 27.7854L29.3525 28.8462L28.2924 29.9075ZM29.3529 25.076L28.2924 24.0151L29.3529 22.9546L30.4134 24.0151L29.3529 25.076ZM27.5825 11.75L28.643 12.8105L27.5821 13.8713L26.5216 12.8105L27.5825 11.75Z" fill="white"/>
</svg>
