<svg width="30" height="30" viewBox="0 0 30 30" fill="none" xmlns="http://www.w3.org/2000/svg">
<g id="Frame">
<g id="Group">
<path id="Vector" d="M5.74058 10.3711H4.89883C3.96907 10.3711 3.21533 11.1248 3.21533 12.0546V14.5798H7.42409V12.0546C7.42409 11.1248 6.67035 10.3711 5.74058 10.3711Z" fill="#BE5000"/>
<path id="Vector_2" d="M5.74063 11.2129H4.89888C4.43397 11.2129 4.05713 11.5897 4.05713 12.0546V14.5799H6.58238V12.0546C6.58238 11.5897 6.20554 11.2129 5.74063 11.2129Z" fill="#DC6E1E"/>
<path id="Vector_3" d="M8.6865 12.0547H10.37C10.4816 12.0547 10.5887 12.099 10.6676 12.178C10.7465 12.2569 10.7909 12.3639 10.7909 12.4756V14.5799H8.26562V12.4756C8.26562 12.3639 8.30997 12.2569 8.3889 12.178C8.46783 12.099 8.57488 12.0547 8.6865 12.0547Z" fill="#4B8C41"/>
<path id="Vector_4" d="M10.3701 11.2129H12.0536C12.1652 11.2129 12.2723 11.2572 12.3512 11.3362C12.4301 11.4151 12.4745 11.5221 12.4745 11.6338V14.5799H9.94922V11.6338C9.94922 11.5221 9.99356 11.4151 10.0725 11.3362C10.1514 11.2572 10.2585 11.2129 10.3701 11.2129Z" fill="#91B945"/>
<path id="Vector_5" d="M24.2591 17.1052C25.6538 17.1052 26.7844 15.9746 26.7844 14.5799C26.7844 13.1853 25.6538 12.0547 24.2591 12.0547C22.8645 12.0547 21.7339 13.1853 21.7339 14.5799C21.7339 15.9746 22.8645 17.1052 24.2591 17.1052Z" fill="#D7E6E6"/>
<path id="Vector_6" d="M8.89735 14.5794C8.89735 14.307 9.26483 13.9797 9.18497 13.7338C9.10227 13.4791 8.60984 13.4309 8.45549 13.2189C8.2996 13.0047 8.40488 12.522 8.1907 12.3661C7.97863 12.2118 7.55281 12.46 7.29808 12.3773C7.05229 12.2975 6.85495 11.8438 6.58254 11.8438C6.31013 11.8438 6.11279 12.2975 5.86694 12.3773C5.61221 12.46 5.18639 12.2119 4.97432 12.3662C4.76015 12.522 4.86542 13.0047 4.70954 13.2189C4.55523 13.431 4.06281 13.4791 3.98011 13.7339C3.90025 13.9797 4.26772 14.307 4.26772 14.5794C4.26772 14.8519 3.90025 15.1792 3.98011 15.425C4.06281 15.6798 4.55523 15.728 4.70959 15.94C4.86547 16.1542 4.7602 16.6369 4.97437 16.7928C5.18644 16.9471 5.61226 16.6989 5.867 16.7816C6.11279 16.8614 6.31013 17.3151 6.58254 17.3151C6.85495 17.3151 7.05229 16.8614 7.29813 16.7816C7.55287 16.6989 7.97869 16.947 8.19075 16.7927C8.40493 16.6368 8.29966 16.1541 8.45554 15.94C8.60984 15.7279 9.10227 15.6798 9.18497 15.425C9.26483 15.1792 8.89735 14.8519 8.89735 14.5794Z" fill="#D7E6E6"/>
<path id="Vector_7" d="M6.58242 16.4734C5.53807 16.4734 4.68848 15.6238 4.68848 14.5795C4.68848 13.5351 5.53807 12.6855 6.58242 12.6855C7.62677 12.6855 8.47636 13.5351 8.47636 14.5795C8.47636 15.6238 7.62677 16.4734 6.58242 16.4734ZM6.58242 13.1064C5.77018 13.1064 5.10935 13.7672 5.10935 14.5795C5.10935 15.3917 5.77018 16.0526 6.58242 16.0526C7.39465 16.0526 8.05548 15.3917 8.05548 14.5795C8.05548 13.7672 7.39465 13.1064 6.58242 13.1064Z" fill="#FF8773"/>
<path id="Vector_8" d="M6.58229 15.4917C6.07945 15.4917 5.67041 15.0827 5.67041 14.5798C5.67041 14.077 6.07945 13.668 6.58229 13.668C7.08513 13.668 7.49417 14.077 7.49417 14.5798C7.49417 15.0827 7.08513 15.4917 6.58229 15.4917ZM6.58229 14.0888C6.31156 14.0888 6.09129 14.3091 6.09129 14.5798C6.09129 14.8506 6.31156 15.0709 6.58229 15.0709C6.85302 15.0709 7.07329 14.8506 7.07329 14.5798C7.07329 14.3091 6.85302 14.0888 6.58229 14.0888Z" fill="#FF8773"/>
<path id="Vector_9" d="M24.2592 15.8417C24.9565 15.8417 25.5218 15.2764 25.5218 14.579C25.5218 13.8817 24.9565 13.3164 24.2592 13.3164C23.5619 13.3164 22.9966 13.8817 22.9966 14.579C22.9966 15.2764 23.5619 15.8417 24.2592 15.8417Z" fill="#FABE19"/>
<path id="Vector_10" d="M20.4711 17.1052C21.8657 17.1052 22.9963 15.9746 22.9963 14.5799C22.9963 13.1853 21.8657 12.0547 20.4711 12.0547C19.0764 12.0547 17.9458 13.1853 17.9458 14.5799C17.9458 15.9746 19.0764 17.1052 20.4711 17.1052Z" fill="#D7E6E6"/>
<path id="Vector_11" d="M20.4711 15.8417C21.1685 15.8417 21.7337 15.2764 21.7337 14.579C21.7337 13.8817 21.1685 13.3164 20.4711 13.3164C19.7738 13.3164 19.2085 13.8817 19.2085 14.579C19.2085 15.2764 19.7738 15.8417 20.4711 15.8417Z" fill="#FABE19"/>
<path id="Vector_12" d="M10.3701 4.47847H27.626V3.63672H10.3701C10.2585 3.63672 10.1514 3.68106 10.0725 3.75999C9.99356 3.83892 9.94922 3.94597 9.94922 4.05759C9.94922 4.16922 9.99356 4.27627 10.0725 4.3552C10.1514 4.43413 10.2585 4.47847 10.3701 4.47847ZM10.3701 6.16197H27.626V5.32022H10.3701C10.2585 5.32022 10.1514 5.36456 10.0725 5.44349C9.99356 5.52242 9.94922 5.62947 9.94922 5.7411C9.94922 5.85272 9.99356 5.95977 10.0725 6.0387C10.1514 6.11763 10.2585 6.16197 10.3701 6.16197Z" fill="#D7322D"/>
<path id="Vector_13" d="M9.94922 4.05759H27.626V3.63672H10.3701C10.2585 3.63672 10.1514 3.68106 10.0725 3.75999C9.99356 3.83892 9.94922 3.94597 9.94922 4.05759ZM9.94922 5.7411H27.626V5.32022H10.3701C10.2585 5.32022 10.1514 5.36456 10.0725 5.44349C9.99356 5.52242 9.94922 5.62947 9.94922 5.7411Z" fill="#F04B37"/>
<path id="Vector_14" d="M12.4746 15.2103C12.1259 15.2103 11.8433 14.9277 11.8433 14.579C11.8433 13.8589 12.1761 13.4762 12.419 13.1967C12.6016 12.9867 12.685 12.8908 12.685 12.6429C12.685 12.3949 12.6017 12.2991 12.419 12.0891C12.1761 11.8095 11.8433 11.4268 11.8433 10.7067C11.8433 9.98659 12.1761 9.60391 12.4191 9.3245C12.6017 9.11454 12.685 9.01868 12.685 8.77084C12.685 8.52294 12.6017 8.42714 12.4191 8.21713C12.1761 7.93761 11.8433 7.55488 11.8433 6.83476C11.8433 6.11464 12.1761 5.73196 12.4191 5.45255C12.6017 5.24259 12.685 5.14673 12.685 4.89889C12.685 4.55025 12.9677 4.26758 13.3163 4.26758C13.665 4.26758 13.9476 4.55025 13.9476 4.89889C13.9476 5.61901 13.6148 6.00169 13.3718 6.28105C13.1892 6.49101 13.1059 6.58686 13.1059 6.83471C13.1059 7.08266 13.1892 7.17846 13.3719 7.38847C13.6149 7.66794 13.9476 8.05062 13.9476 8.77068C13.9476 9.49075 13.6148 9.87343 13.3718 10.1528C13.1892 10.3629 13.1059 10.4587 13.1059 10.7066C13.1059 10.9545 13.1892 11.0504 13.3719 11.2604C13.6149 11.5399 13.9476 11.9226 13.9476 12.6427C13.9476 13.3628 13.6148 13.7455 13.3719 14.025C13.1892 14.2352 13.1059 14.3311 13.1059 14.579C13.1059 14.9277 12.8232 15.2103 12.4746 15.2103Z" fill="#F5871E"/>
<path id="Vector_15" d="M11.2119 15.2103C10.8632 15.2103 10.5806 14.9277 10.5806 14.579C10.5806 13.8589 10.9134 13.4762 11.1563 13.1967C11.3389 12.9867 11.4223 12.8908 11.4223 12.6429C11.4223 12.3949 11.339 12.2991 11.1563 12.0891C10.9134 11.8095 10.5806 11.4268 10.5806 10.7067C10.5806 9.98659 10.9134 9.60391 11.1564 9.3245C11.339 9.11454 11.4223 9.01868 11.4223 8.77084C11.4223 8.52294 11.339 8.42714 11.1564 8.21713C10.9134 7.93761 10.5806 7.55488 10.5806 6.83476C10.5806 6.11464 10.9134 5.73196 11.1564 5.45255C11.339 5.24259 11.4223 5.14673 11.4223 4.89889C11.4223 4.55025 11.705 4.26758 12.0536 4.26758C12.4023 4.26758 12.6849 4.55025 12.6849 4.89889C12.6849 5.61901 12.3521 6.00169 12.1091 6.28105C11.9265 6.49101 11.8432 6.58686 11.8432 6.83471C11.8432 7.08266 11.9265 7.17846 12.1092 7.38847C12.3522 7.66794 12.6849 8.05062 12.6849 8.77068C12.6849 9.49075 12.3521 9.87343 12.1091 10.1528C11.9265 10.3629 11.8432 10.4587 11.8432 10.7066C11.8432 10.9545 11.9265 11.0504 12.1092 11.2604C12.3522 11.5399 12.6849 11.9226 12.6849 12.6427C12.6849 13.3628 12.3521 13.7455 12.1092 14.025C11.9265 14.2352 11.8432 14.3311 11.8432 14.579C11.8432 14.9277 11.5605 15.2103 11.2119 15.2103Z" fill="#FABE19"/>
<path id="Vector_16" d="M15 15.2103C14.6513 15.2103 14.3687 14.9277 14.3687 14.579C14.3687 13.8589 14.7015 13.4762 14.9444 13.1967C15.1271 12.9867 15.2104 12.8908 15.2104 12.6429C15.2104 12.3949 15.1271 12.2991 14.9444 12.0891C14.7015 11.8095 14.3687 11.4268 14.3687 10.7067C14.3687 9.98659 14.7015 9.60391 14.9445 9.3245C15.1271 9.11454 15.2104 9.01868 15.2104 8.77084C15.2104 8.52294 15.1271 8.42714 14.9445 8.21713C14.7015 7.93761 14.3687 7.55488 14.3687 6.83476C14.3687 6.11464 14.7015 5.73196 14.9445 5.45255C15.1271 5.24259 15.2104 5.14673 15.2104 4.89889C15.2104 4.55025 15.4931 4.26758 15.8417 4.26758C16.1904 4.26758 16.473 4.55025 16.473 4.89889C16.473 5.61901 16.1402 6.00169 15.8972 6.28105C15.7146 6.49101 15.6313 6.58686 15.6313 6.83471C15.6313 7.08266 15.7146 7.17846 15.8973 7.38847C16.1402 7.66794 16.473 8.05062 16.473 8.77068C16.473 9.49075 16.1402 9.87343 15.8973 10.1528C15.7146 10.3629 15.6313 10.4587 15.6313 10.7066C15.6313 10.9545 15.7146 11.0504 15.8973 11.2604C16.1403 11.5399 16.473 11.9226 16.473 12.6427C16.473 13.3628 16.1403 13.7455 15.8973 14.025C15.7146 14.2352 15.6313 14.3311 15.6313 14.579C15.6313 14.9277 15.3486 15.2103 15 15.2103Z" fill="#F5871E"/>
<path id="Vector_17" d="M13.7373 15.2103C13.3886 15.2103 13.106 14.9277 13.106 14.579C13.106 13.8589 13.4388 13.4762 13.6817 13.1967C13.8643 12.9867 13.9477 12.8908 13.9477 12.6429C13.9477 12.3949 13.8644 12.2991 13.6817 12.0891C13.4388 11.8095 13.106 11.4268 13.106 10.7067C13.106 9.98659 13.4388 9.60391 13.6818 9.3245C13.8644 9.11454 13.9477 9.01868 13.9477 8.77084C13.9477 8.52294 13.8644 8.42714 13.6818 8.21713C13.4388 7.93761 13.106 7.55488 13.106 6.83476C13.106 6.11464 13.4388 5.73196 13.6818 5.45255C13.8644 5.24259 13.9477 5.14673 13.9477 4.89889C13.9477 4.55025 14.2304 4.26758 14.579 4.26758C14.9277 4.26758 15.2103 4.55025 15.2103 4.89889C15.2103 5.61901 14.8775 6.00169 14.6345 6.28105C14.4519 6.49101 14.3686 6.58686 14.3686 6.83471C14.3686 7.08266 14.4519 7.17846 14.6346 7.38847C14.8776 7.66794 15.2103 8.05062 15.2103 8.77068C15.2103 9.49075 14.8775 9.87343 14.6345 10.1528C14.4519 10.3629 14.3686 10.4587 14.3686 10.7066C14.3686 10.9545 14.4519 11.0504 14.6346 11.2604C14.8776 11.5399 15.2103 11.9226 15.2103 12.6427C15.2103 13.3628 14.8775 13.7455 14.6346 14.025C14.4519 14.2352 14.3686 14.3311 14.3686 14.579C14.3686 14.9277 14.0859 15.2103 13.7373 15.2103Z" fill="#FABE19"/>
<path id="Vector_18" d="M17.5249 15.2103C17.1762 15.2103 16.8936 14.9277 16.8936 14.579C16.8936 13.8589 17.2263 13.4762 17.4693 13.1967C17.652 12.9867 17.7353 12.8908 17.7353 12.6429C17.7353 12.3949 17.652 12.2991 17.4693 12.0891C17.2263 11.8095 16.8936 11.4268 16.8936 10.7067C16.8936 9.98659 17.2264 9.60391 17.4694 9.3245C17.652 9.11454 17.7353 9.01868 17.7353 8.77084C17.7353 8.52294 17.652 8.42714 17.4694 8.21713C17.2264 7.93761 16.8936 7.55488 16.8936 6.83476C16.8936 6.11464 17.2264 5.73196 17.4694 5.45255C17.652 5.24259 17.7353 5.14673 17.7353 4.89889C17.7353 4.55025 18.018 4.26758 18.3666 4.26758C18.7153 4.26758 18.9979 4.55025 18.9979 4.89889C18.9979 5.61901 18.6651 6.00169 18.4221 6.28105C18.2395 6.49101 18.1562 6.58686 18.1562 6.83471C18.1562 7.08266 18.2395 7.17846 18.4222 7.38847C18.6651 7.66794 18.9979 8.05062 18.9979 8.77068C18.9979 9.49075 18.6651 9.87343 18.4222 10.1528C18.2395 10.3629 18.1562 10.4587 18.1562 10.7066C18.1562 10.9545 18.2395 11.0504 18.4222 11.2604C18.6652 11.5399 18.9979 11.9226 18.9979 12.6427C18.9979 13.3628 18.6652 13.7455 18.4222 14.025C18.2395 14.2352 18.1562 14.3311 18.1562 14.579C18.1562 14.9277 17.8735 15.2103 17.5249 15.2103Z" fill="#F5871E"/>
<path id="Vector_19" d="M16.2627 15.2103C15.914 15.2103 15.6313 14.9277 15.6313 14.579C15.6313 13.8589 15.9641 13.4762 16.2071 13.1967C16.3898 12.9867 16.4731 12.8908 16.4731 12.6429C16.4731 12.3949 16.3898 12.2991 16.2071 12.0891C15.9641 11.8095 15.6313 11.4268 15.6313 10.7067C15.6313 9.98659 15.9642 9.60391 16.2072 9.3245C16.3898 9.11454 16.4731 9.01868 16.4731 8.77084C16.4731 8.52294 16.3898 8.42714 16.2072 8.21713C15.9642 7.93761 15.6313 7.55488 15.6313 6.83476C15.6313 6.11464 15.9642 5.73196 16.2072 5.45255C16.3898 5.24259 16.4731 5.14673 16.4731 4.89889C16.4731 4.55025 16.7558 4.26758 17.1044 4.26758C17.4531 4.26758 17.7357 4.55025 17.7357 4.89889C17.7357 5.61901 17.4029 6.00169 17.1599 6.28105C16.9773 6.49101 16.894 6.58686 16.894 6.83471C16.894 7.08266 16.9773 7.17846 17.16 7.38847C17.4029 7.66794 17.7357 8.05062 17.7357 8.77068C17.7357 9.49075 17.4029 9.87343 17.16 10.1528C16.9773 10.3629 16.894 10.4587 16.894 10.7066C16.894 10.9545 16.9773 11.0504 17.16 11.2604C17.403 11.5399 17.7357 11.9226 17.7357 12.6427C17.7357 13.3628 17.403 13.7455 17.16 14.025C16.9773 14.2352 16.894 14.3311 16.894 14.579C16.894 14.9277 16.6113 15.2103 16.2627 15.2103Z" fill="#FABE19"/>
<path id="Vector_20" d="M19.2086 24.6811H10.791C6.14216 24.6811 2.37354 20.9125 2.37354 16.2636V15.4218C2.37354 14.9569 2.75038 14.5801 3.21529 14.5801H26.7843C27.2492 14.5801 27.6261 14.9569 27.6261 15.4218V16.2636C27.6261 20.9125 23.8574 24.6811 19.2086 24.6811Z" fill="#F04B37"/>
<path id="Vector_21" d="M10.7911 23.8394C6.6138 23.8394 3.21533 20.4409 3.21533 16.2636V15.8428C3.21533 15.7311 3.25967 15.6241 3.3386 15.5451C3.41753 15.4662 3.52458 15.4219 3.63621 15.4219C3.74783 15.4219 3.85488 15.4662 3.93381 15.5451C4.01274 15.6241 4.05708 15.7311 4.05708 15.8428V16.2636C4.05708 19.9767 7.07792 22.9976 10.7911 22.9976C10.9027 22.9976 11.0098 23.042 11.0887 23.1209C11.1676 23.1998 11.212 23.3069 11.212 23.4185C11.212 23.5301 11.1676 23.6372 11.0887 23.7161C11.0098 23.795 10.9027 23.8394 10.7911 23.8394Z" fill="#FF6955"/>
<path id="Vector_22" d="M26.7843 14.5801H18.3668C18.8317 14.5801 19.2085 14.9569 19.2085 15.4218V16.2636C19.2085 20.9124 15.4398 24.6811 10.791 24.6811H19.2085C23.8574 24.6811 27.626 20.9124 27.626 16.2636V15.4218C27.626 14.9569 27.2492 14.5801 26.7843 14.5801ZM18.3668 26.3646H11.6328C11.1679 26.3646 10.791 25.9877 10.791 25.5228V24.6811H19.2085V25.5228C19.2085 25.9877 18.8317 26.3646 18.3668 26.3646Z" fill="#D7322D"/>
</g>
</g>
</svg>
