<svg width="59" height="59" viewBox="0 0 59 59" fill="none" xmlns="http://www.w3.org/2000/svg">
<rect width="59" height="59" rx="29.5" fill="#2D945C"/>
<g clip-path="url(#clip0_1_5413)">
<path d="M23.3438 19.1875V15.0625C23.3438 14.789 23.4524 14.5267 23.6458 14.3333C23.8392 14.1399 24.1015 14.0312 24.375 14.0312C24.6485 14.0312 24.9108 14.1399 25.1042 14.3333C25.2976 14.5267 25.4063 14.789 25.4063 15.0625V19.1875C25.4063 19.461 25.2976 19.7233 25.1042 19.9167C24.9108 20.1101 24.6485 20.2188 24.375 20.2188C24.1015 20.2188 23.8392 20.1101 23.6458 19.9167C23.4524 19.7233 23.3438 19.461 23.3438 19.1875ZM28.5 20.2188C28.7735 20.2188 29.0358 20.1101 29.2292 19.9167C29.4226 19.7233 29.5313 19.461 29.5313 19.1875V15.0625C29.5313 14.789 29.4226 14.5267 29.2292 14.3333C29.0358 14.1399 28.7735 14.0312 28.5 14.0312C28.2265 14.0312 27.9642 14.1399 27.7708 14.3333C27.5774 14.5267 27.4688 14.789 27.4688 15.0625V19.1875C27.4688 19.461 27.5774 19.7233 27.7708 19.9167C27.9642 20.1101 28.2265 20.2188 28.5 20.2188ZM32.625 20.2188C32.8985 20.2188 33.1608 20.1101 33.3542 19.9167C33.5476 19.7233 33.6563 19.461 33.6563 19.1875V15.0625C33.6563 14.789 33.5476 14.5267 33.3542 14.3333C33.1608 14.1399 32.8985 14.0312 32.625 14.0312C32.3515 14.0312 32.0892 14.1399 31.8958 14.3333C31.7024 14.5267 31.5938 14.789 31.5938 15.0625V19.1875C31.5938 19.461 31.7024 19.7233 31.8958 19.9167C32.0892 20.1101 32.3515 20.2188 32.625 20.2188ZM44.7938 24.7562C44.6297 24.5374 44.3854 24.3928 44.1146 24.3541C43.8438 24.3154 43.5688 24.3859 43.35 24.55L40.875 26.4062V23.3125C40.875 23.039 40.7664 22.7767 40.573 22.5833C40.3796 22.3899 40.1173 22.2812 39.8438 22.2812H17.1563C16.8828 22.2812 16.6204 22.3899 16.4271 22.5833C16.2337 22.7767 16.125 23.039 16.125 23.3125V26.4062L13.65 24.55C13.4312 24.3859 13.1562 24.3154 12.8854 24.3541C12.6147 24.3928 12.3704 24.5374 12.2063 24.7562C12.0422 24.9751 11.9717 25.2501 12.0104 25.5208C12.049 25.7916 12.1937 26.0359 12.4125 26.2L16.125 28.9844V36.7188C16.125 37.8128 16.5596 38.862 17.3332 39.6356C18.1068 40.4092 19.156 40.8438 20.25 40.8438H36.75C37.844 40.8438 38.8932 40.4092 39.6668 39.6356C40.4404 38.862 40.875 37.8128 40.875 36.7188V28.9844L44.5875 26.2C44.6958 26.1187 44.7871 26.0169 44.8561 25.9004C44.9251 25.7839 44.9705 25.6549 44.9896 25.5208C45.0088 25.3868 45.0014 25.2503 44.9677 25.1191C44.9341 24.9879 44.875 24.8646 44.7938 24.7562Z" fill="white"/>
</g>
<defs>
<clipPath id="clip0_1_5413">
<rect width="33" height="33" fill="white" transform="translate(12 13)"/>
</clipPath>
</defs>
</svg>
