<svg width="40" height="40" viewBox="0 0 40 40" fill="none" xmlns="http://www.w3.org/2000/svg">
<rect width="40" height="40" rx="20" fill="#2D945C"/>
<path d="M22.25 22.75L18.75 26.25C18.5 26.5 18.2083 26.625 17.875 26.625C17.5417 26.625 17.25 26.5 17 26.25L6.375 15.625C6.125 15.375 6 15.0938 6 14.7812C6 14.4688 6.125 14.1875 6.375 13.9375L9.875 10.4375C10.125 10.1875 10.4271 10.0625 10.7812 10.0625C11.1354 10.0625 11.4375 10.1875 11.6875 10.4375L22.25 21C22.5 21.25 22.625 21.5417 22.625 21.875C22.625 22.2083 22.5 22.5 22.25 22.75ZM26.75 32.5L21.4375 27.1875L23.1875 25.4375L28.5 30.75L26.75 32.5ZM26.625 16.25C25.4167 16.25 24.3854 15.8229 23.5312 14.9688C22.6771 14.1146 22.25 13.0833 22.25 11.875C22.25 10.6667 22.6771 9.63542 23.5312 8.78125C24.3854 7.92708 25.4167 7.5 26.625 7.5C27.8333 7.5 28.8646 7.92708 29.7188 8.78125C30.5729 9.63542 31 10.6667 31 11.875C31 13.0833 30.5729 14.1146 29.7188 14.9688C28.8646 15.8229 27.8333 16.25 26.625 16.25Z" fill="white"/>
</svg>
