<svg width="32" height="32" viewBox="0 0 32 32" fill="none" xmlns="http://www.w3.org/2000/svg">
<rect x="0.669556" y="0.500977" width="31" height="31" rx="15.5" fill="white"/>
<g clip-path="url(#clip0_821_3422)">
<path d="M15.4045 20.5702C15.4908 19.9095 15.8063 19.2952 16.2645 18.8138C16.3608 19.2952 16.5168 19.7667 16.7293 20.2149C16.3342 20.4872 15.8793 20.6333 15.3946 20.6399C15.4012 20.6167 15.4012 20.5935 15.4045 20.5702ZM17.7918 18.2061C17.7918 18.1231 17.7885 18.0435 17.7819 17.9671C17.3535 18.0667 16.9418 18.256 16.5965 18.5282C16.6729 19.0263 16.8223 19.5077 17.0348 19.9692C17.5162 19.511 17.7918 18.8802 17.7918 18.2061ZM18.1504 17.9073C18.2533 18.8138 17.8914 19.7202 17.2074 20.3145C17.2473 20.3909 17.2905 20.464 17.3336 20.537C18.1504 19.5675 19.2461 18.9001 20.478 18.6245C19.8438 18.08 18.9905 17.8144 18.1504 17.9073ZM17.8881 22.838C17.8881 23.2763 18.0043 23.7013 18.2268 24.0731C19.0535 24.1395 19.9002 23.8573 20.5178 23.3128C19.5981 23.0804 18.7547 22.6222 18.0475 21.978C17.9446 22.2503 17.8881 22.5358 17.8881 22.838ZM20.3219 20.4042C19.442 20.4042 18.6485 20.869 18.2135 21.6227C18.944 22.32 19.8405 22.7948 20.8233 23.004C21.3578 22.3831 21.6268 21.553 21.5571 20.7429C21.1852 20.5204 20.7602 20.4042 20.3219 20.4042ZM17.9446 21.3438C18.6485 20.1718 20.2489 19.6936 21.4873 20.2813C21.3711 19.7833 21.1321 19.3218 20.7934 18.9399C19.5151 19.169 18.3729 19.8464 17.5494 20.8591C17.6756 21.0284 17.8051 21.1878 17.9446 21.3438ZM17.7586 21.6991C17.5992 21.5331 17.4498 21.3571 17.3137 21.1745C16.8688 21.812 16.5633 22.5458 16.4239 23.3061C16.7824 23.6415 17.2805 23.8905 17.7653 24.0001C17.4365 23.2895 17.4299 22.413 17.7586 21.6991ZM16.9053 20.547C16.4504 20.8491 15.9258 21.0085 15.3746 21.0118C15.3813 21.7456 15.6369 22.4362 16.1084 22.9874C16.2811 22.2171 16.6198 21.4866 17.0879 20.8458C17.0281 20.7528 16.9651 20.6499 16.9053 20.547ZM21.5836 14.2517C19.9002 14.2517 18.5289 12.8804 18.5289 11.197C18.6949 7.14287 24.4723 7.14619 24.6383 11.197C24.6383 12.8804 23.267 14.2517 21.5836 14.2517ZM21.3944 9.00556C21.3944 9.25126 21.7696 9.25126 21.7696 9.00556V8.67353C21.7696 8.56728 21.6865 8.48759 21.5836 8.48759C21.4807 8.48759 21.3977 8.5706 21.3977 8.67353V9.00556H21.3944ZM19.5815 11.197C19.5815 11.0907 19.4985 11.011 19.3955 11.011H19.0602C18.9573 11.011 18.8742 11.094 18.8742 11.197C18.8742 11.2999 18.9573 11.3829 19.0602 11.3829H19.3922C19.4951 11.3862 19.5815 11.2999 19.5815 11.197ZM21.7696 13.3884C21.7662 13.1427 21.401 13.1427 21.3944 13.3884V13.7204C21.3944 13.8267 21.4774 13.9063 21.5803 13.9063C21.6865 13.9063 21.7662 13.8233 21.7662 13.7204V13.3884H21.7696ZM21.9024 11.197C21.9024 11.0476 21.8028 10.9247 21.6633 10.8882L20.9295 9.04873C20.893 8.95244 20.7801 8.90595 20.6871 8.94248C20.5908 8.979 20.5444 9.09189 20.5809 9.18486L21.3147 11.0243C21.2748 11.0874 21.2549 11.1704 21.2682 11.2501L20.3584 12.1897C20.2854 12.2661 20.2887 12.3823 20.3617 12.452C20.4348 12.5251 20.5576 12.5218 20.624 12.4487L21.5338 11.5058C21.7264 11.5456 21.9024 11.3829 21.9024 11.197ZM23.775 11.3862H24.1071C24.3528 11.3829 24.3528 11.0144 24.1071 11.011H23.775C23.5293 11.011 23.5293 11.3829 23.775 11.3862ZM9.11916 15.4436C9.11584 15.1946 8.74397 15.1946 8.74065 15.4436C8.74397 15.9118 8.78713 16.3767 8.87014 16.8282C8.89006 16.9311 8.98967 16.9942 9.0926 16.981C9.19553 16.961 9.26194 16.8614 9.24534 16.7585C9.16233 16.3269 9.12249 15.8852 9.11916 15.4436ZM14.3287 22.3167C13.9071 22.1972 13.492 22.0378 13.0969 21.8419C12.8711 21.7356 12.7084 22.0677 12.9276 22.1806C13.3426 22.3864 13.7809 22.5558 14.2258 22.6819C14.3254 22.7052 14.4317 22.652 14.4615 22.5524C14.4881 22.4495 14.4317 22.3466 14.3287 22.3167ZM14.249 8.554C14.6906 8.44443 15.1422 8.33818 15.5971 8.30166C15.8428 8.27841 15.8096 7.89658 15.5606 7.92314C15.099 7.9663 14.6375 8.05263 14.1959 8.18212C14.0963 8.21201 14.0365 8.31826 14.0664 8.41787C14.0897 8.50087 14.166 8.554 14.249 8.554ZM10.9951 20.2581C10.8291 20.0755 10.5502 20.3311 10.7129 20.5138C11.025 20.8558 11.3737 21.1712 11.7422 21.4501C11.7754 21.4733 11.8153 21.4866 11.8551 21.4866C12.0278 21.4933 12.1141 21.2476 11.968 21.1446C11.6227 20.8823 11.294 20.5835 10.9951 20.2581ZM16.9186 8.29833C17.3602 8.33486 17.7951 8.41455 18.2168 8.53408C18.4559 8.59384 18.5588 8.24189 18.3198 8.16884C17.8748 8.04267 17.4133 7.95966 16.9518 7.91982C16.8489 7.90986 16.7559 7.98623 16.7459 8.08916C16.736 8.19541 16.8123 8.28837 16.9186 8.29833ZM9.60725 18.0269C9.5176 17.7977 9.16565 17.9339 9.2553 18.1663C9.42463 18.5979 9.63381 19.0163 9.8762 19.4081C9.91272 19.4645 9.97581 19.4977 10.0389 19.4977C10.185 19.5011 10.2813 19.3284 10.2016 19.2089C9.96584 18.8337 9.76663 18.4352 9.60725 18.0269ZM23.6289 15.2079C23.5127 15.2079 23.4264 15.3142 23.4397 15.427C23.4397 15.8686 23.3998 16.3102 23.3168 16.7419C23.2936 16.8548 23.3865 16.971 23.5061 16.9644C23.5957 16.9644 23.6754 16.9013 23.692 16.8116C23.775 16.3567 23.8182 15.8919 23.8182 15.427C23.8315 15.3142 23.7451 15.2079 23.6289 15.2079ZM23.2039 17.904C23.1043 17.8675 22.9948 17.914 22.9582 18.0136C22.8022 18.422 22.603 18.8204 22.3705 19.1956C22.2908 19.3185 22.3871 19.4878 22.5332 19.4845C22.5963 19.4845 22.6594 19.4513 22.6959 19.3948C22.9416 18.9997 23.1508 18.5813 23.3168 18.1497C23.35 18.0501 23.3002 17.9405 23.2039 17.904ZM9.20217 9.06201C9.80647 9.30107 10.4108 9.54013 11.0184 9.77919L11.191 9.80244L11.2043 9.71279C11.108 9.70615 11.0084 9.74931 10.9221 9.68955C10.361 9.31103 9.72678 9.03876 9.06604 8.88603C9.03284 8.91591 9.00295 8.9458 8.96975 8.97236C9.0262 8.99228 9.14573 9.03876 9.20217 9.06201ZM12.8379 9.77919L13.9004 9.67294C13.8772 9.64638 13.8573 9.6165 13.844 9.58994C13.1832 9.55673 12.5225 9.63642 11.8949 9.829C11.7821 9.8622 11.6858 9.77919 11.5762 9.76259L11.5629 9.85888L11.7821 9.88876L12.8379 9.77919ZM11.5696 10.2341L11.128 10.1743C10.9852 11.2102 10.6963 13.2954 10.5502 14.3313L10.9885 14.3944L11.5696 10.2341ZM14.4383 9.99501L14.5977 9.97841L14.0199 14.1255L11.367 14.3944C11.4733 13.6374 11.8418 10.9546 11.9448 10.2474C12.5623 10.1843 13.8274 10.0548 14.4383 9.99501ZM14.4051 10.606C14.4217 10.4897 14.3188 10.3802 14.2026 10.3935L12.1473 10.6026C12.061 10.6093 11.9946 10.679 11.9813 10.762L11.8252 11.8776C11.8053 11.9905 11.9149 12.1067 12.0278 12.0901L14.083 11.881C14.1694 11.8743 14.2391 11.8046 14.249 11.7216L14.4051 10.606ZM10.185 14.2284L7.70471 13.2489L8.28245 9.10185C8.28577 9.10517 8.42522 9.15498 8.42522 9.1583C8.71741 9.27119 10.4373 9.95517 10.7627 10.0813L10.185 14.2284ZM10.1817 11.8345C10.2879 11.881 10.4207 11.8013 10.434 11.6851L10.5901 10.5661C10.6033 10.4831 10.5535 10.4001 10.4739 10.3669L8.55139 9.60986C8.44514 9.56669 8.31233 9.63974 8.29573 9.75927L8.13967 10.8782C8.12971 10.9645 8.1762 11.0476 8.25588 11.0774L10.1817 11.8345ZM8.53147 10.7819L10.0953 11.3995L10.1983 10.6657L8.6344 10.0448L8.53147 10.7819ZM12.227 11.695L13.9004 11.5257L14 10.7919L12.3266 10.9612L12.227 11.695Z" fill="#185850"/>
</g>
<defs>
<clipPath id="clip0_821_3422">
<rect width="17" height="17" fill="white" transform="translate(7.66956 7.50098)"/>
</clipPath>
</defs>
</svg>
