<svg width="37" height="37" viewBox="0 0 37 37" fill="none" xmlns="http://www.w3.org/2000/svg">
<rect width="37" height="37" rx="18.5" fill="#185850"/>
<g clip-path="url(#clip0_1_7148)">
<path d="M17.733 23.0692C17.8193 22.4085 18.1348 21.7942 18.593 21.3128C18.6893 21.7942 18.8453 22.2657 19.0578 22.714C18.6627 22.9862 18.2078 23.1323 17.723 23.139C17.7297 23.1157 17.7297 23.0925 17.733 23.0692ZM20.1203 20.7052C20.1203 20.6222 20.117 20.5425 20.1104 20.4661C19.682 20.5657 19.2703 20.755 18.925 21.0272C19.0014 21.5253 19.1508 22.0067 19.3633 22.4683C19.8447 22.0101 20.1203 21.3792 20.1203 20.7052ZM20.4789 20.4063C20.5818 21.3128 20.2199 22.2192 19.5359 22.8136C19.5758 22.8899 19.6189 22.963 19.6621 23.036C20.4789 22.0665 21.5746 21.3991 22.8064 21.1235C22.1723 20.579 21.3189 20.3134 20.4789 20.4063ZM20.2166 25.337C20.2166 25.7753 20.3328 26.2003 20.5553 26.5722C21.382 26.6386 22.2287 26.3563 22.8463 25.8118C21.9266 25.5794 21.0832 25.1212 20.376 24.477C20.273 24.7493 20.2166 25.0349 20.2166 25.337ZM22.6504 22.9032C21.7705 22.9032 20.977 23.3681 20.542 24.1218C21.2725 24.819 22.1689 25.2938 23.1518 25.503C23.6863 24.8821 23.9553 24.052 23.8855 23.2419C23.5137 23.0194 23.0887 22.9032 22.6504 22.9032ZM20.273 23.8429C20.977 22.6708 22.5773 22.1927 23.8158 22.7804C23.6996 22.2823 23.4605 21.8208 23.1219 21.439C21.8436 21.6681 20.7014 22.3454 19.8779 23.3581C20.0041 23.5274 20.1336 23.6868 20.273 23.8429ZM20.0871 24.1981C19.9277 24.0321 19.7783 23.8561 19.6422 23.6735C19.1973 24.311 18.8918 25.0448 18.7523 25.8052C19.1109 26.1405 19.609 26.3895 20.0938 26.4991C19.765 25.7886 19.7584 24.912 20.0871 24.1981ZM19.2338 23.046C18.7789 23.3481 18.2543 23.5075 17.7031 23.5108C17.7098 24.2446 17.9654 24.9352 18.4369 25.4864C18.6096 24.7161 18.9482 23.9856 19.4164 23.3448C19.3566 23.2519 19.2936 23.1489 19.2338 23.046ZM23.9121 16.7507C22.2287 16.7507 20.8574 15.3794 20.8574 13.696C21.0234 9.64189 26.8008 9.64521 26.9668 13.696C26.9668 15.3794 25.5955 16.7507 23.9121 16.7507ZM23.7229 11.5046C23.7229 11.7503 24.098 11.7503 24.098 11.5046V11.1726C24.098 11.0663 24.015 10.9866 23.9121 10.9866C23.8092 10.9866 23.7262 11.0696 23.7262 11.1726V11.5046H23.7229ZM21.91 13.696C21.91 13.5897 21.827 13.5101 21.724 13.5101H21.3887C21.2857 13.5101 21.2027 13.5931 21.2027 13.696C21.2027 13.7989 21.2857 13.8819 21.3887 13.8819H21.7207C21.8236 13.8852 21.91 13.7989 21.91 13.696ZM24.098 15.8874C24.0947 15.6417 23.7295 15.6417 23.7229 15.8874V16.2194C23.7229 16.3257 23.8059 16.4054 23.9088 16.4054C24.015 16.4054 24.0947 16.3224 24.0947 16.2194V15.8874H24.098ZM24.2309 13.696C24.2309 13.5466 24.1312 13.4237 23.9918 13.3872L23.258 11.5477C23.2215 11.4515 23.1086 11.405 23.0156 11.4415C22.9193 11.478 22.8729 11.5909 22.9094 11.6839L23.6432 13.5233C23.6033 13.5864 23.5834 13.6694 23.5967 13.7491L22.6869 14.6888C22.6139 14.7651 22.6172 14.8813 22.6902 14.9511C22.7633 15.0241 22.8861 15.0208 22.9525 14.9477L23.8623 14.0048C24.0549 14.0446 24.2309 13.8819 24.2309 13.696ZM26.1035 13.8852H26.4355C26.6812 13.8819 26.6812 13.5134 26.4355 13.5101H26.1035C25.8578 13.5101 25.8578 13.8819 26.1035 13.8852ZM11.4477 17.9427C11.4443 17.6936 11.0725 17.6936 11.0691 17.9427C11.0725 18.4108 11.1156 18.8757 11.1986 19.3272C11.2186 19.4302 11.3182 19.4933 11.4211 19.48C11.524 19.4601 11.5904 19.3604 11.5738 19.2575C11.4908 18.8259 11.451 18.3843 11.4477 17.9427ZM16.6572 24.8157C16.2355 24.6962 15.8205 24.5368 15.4254 24.3409C15.1996 24.2347 15.0369 24.5667 15.2561 24.6796C15.6711 24.8854 16.1094 25.0548 16.5543 25.181C16.6539 25.2042 16.7602 25.1511 16.79 25.0515C16.8166 24.9485 16.7602 24.8456 16.6572 24.8157ZM16.5775 11.053C17.0191 10.9435 17.4707 10.8372 17.9256 10.8007C18.1713 10.7774 18.1381 10.3956 17.8891 10.4222C17.4275 10.4653 16.966 10.5517 16.5244 10.6811C16.4248 10.711 16.365 10.8173 16.3949 10.9169C16.4182 10.9999 16.4945 11.053 16.5775 11.053ZM13.3236 22.7571C13.1576 22.5745 12.8787 22.8302 13.0414 23.0128C13.3535 23.3548 13.7021 23.6702 14.0707 23.9491C14.1039 23.9724 14.1438 23.9856 14.1836 23.9856C14.3562 23.9923 14.4426 23.7466 14.2965 23.6436C13.9512 23.3813 13.6225 23.0825 13.3236 22.7571ZM19.2471 10.7974C19.6887 10.8339 20.1236 10.9136 20.5453 11.0331C20.7844 11.0929 20.8873 10.7409 20.6482 10.6679C20.2033 10.5417 19.7418 10.4587 19.2803 10.4188C19.1773 10.4089 19.0844 10.4852 19.0744 10.5882C19.0645 10.6944 19.1408 10.7874 19.2471 10.7974ZM11.9357 20.5259C11.8461 20.2968 11.4941 20.4329 11.5838 20.6653C11.7531 21.097 11.9623 21.5153 12.2047 21.9071C12.2412 21.9636 12.3043 21.9968 12.3674 21.9968C12.5135 22.0001 12.6098 21.8274 12.5301 21.7079C12.2943 21.3327 12.0951 20.9343 11.9357 20.5259ZM25.9574 17.7069C25.8412 17.7069 25.7549 17.8132 25.7682 17.9261C25.7682 18.3677 25.7283 18.8093 25.6453 19.2409C25.6221 19.3538 25.715 19.47 25.8346 19.4634C25.9242 19.4634 26.0039 19.4003 26.0205 19.3106C26.1035 18.8558 26.1467 18.3909 26.1467 17.9261C26.16 17.8132 26.0736 17.7069 25.9574 17.7069ZM25.5324 20.403C25.4328 20.3665 25.3232 20.413 25.2867 20.5126C25.1307 20.921 24.9314 21.3194 24.699 21.6946C24.6193 21.8175 24.7156 21.9868 24.8617 21.9835C24.9248 21.9835 24.9879 21.9503 25.0244 21.8938C25.2701 21.4987 25.4793 21.0804 25.6453 20.6487C25.6785 20.5491 25.6287 20.4395 25.5324 20.403ZM11.5307 11.561C12.135 11.8001 12.7393 12.0392 13.3469 12.2782L13.5195 12.3015L13.5328 12.2118C13.4365 12.2052 13.3369 12.2483 13.2506 12.1886C12.6895 11.8101 12.0553 11.5378 11.3945 11.3851C11.3613 11.4149 11.3314 11.4448 11.2982 11.4714C11.3547 11.4913 11.4742 11.5378 11.5307 11.561ZM15.1664 12.2782L16.2289 12.172C16.2057 12.1454 16.1857 12.1155 16.1725 12.089C15.5117 12.0558 14.851 12.1354 14.2234 12.328C14.1105 12.3612 14.0143 12.2782 13.9047 12.2616L13.8914 12.3579L14.1105 12.3878L15.1664 12.2782ZM13.898 12.7331L13.4564 12.6733C13.3137 13.7093 13.0248 15.7944 12.8787 16.8304L13.317 16.8935L13.898 12.7331ZM16.7668 12.494L16.9262 12.4774L16.3484 16.6245L13.6955 16.8935C13.8018 16.1364 14.1703 13.4536 14.2732 12.7464C14.8908 12.6833 16.1559 12.5538 16.7668 12.494ZM16.7336 13.105C16.7502 12.9888 16.6473 12.8792 16.5311 12.8925L14.4758 13.1017C14.3895 13.1083 14.323 13.178 14.3098 13.261L14.1537 14.3767C14.1338 14.4895 14.2434 14.6058 14.3562 14.5892L16.4115 14.38C16.4979 14.3733 16.5676 14.3036 16.5775 14.2206L16.7336 13.105ZM12.5135 16.7274L10.0332 15.7479L10.6109 11.6009C10.6143 11.6042 10.7537 11.654 10.7537 11.6573C11.0459 11.7702 12.7658 12.4542 13.0912 12.5804L12.5135 16.7274ZM12.5102 14.3335C12.6164 14.38 12.7492 14.3003 12.7625 14.1841L12.9186 13.0651C12.9318 12.9821 12.882 12.8991 12.8023 12.8659L10.8799 12.1089C10.7736 12.0657 10.6408 12.1388 10.6242 12.2583L10.4682 13.3772C10.4582 13.4636 10.5047 13.5466 10.5844 13.5765L12.5102 14.3335ZM10.86 13.281L12.4238 13.8985L12.5268 13.1647L10.9629 12.5438L10.86 13.281ZM14.5555 14.194L16.2289 14.0247L16.3285 13.2909L14.6551 13.4602L14.5555 14.194Z" fill="white"/>
</g>
<defs>
<clipPath id="clip0_1_7148">
<rect width="17" height="17" fill="white" transform="translate(10 10)"/>
</clipPath>
</defs>
</svg>
