<svg width="59" height="59" viewBox="0 0 59 59" fill="none" xmlns="http://www.w3.org/2000/svg">
<rect width="59" height="59" rx="29.5" fill="#2D945C"/>
<path d="M18.545 12.6282C18.2719 13.2564 18.3811 13.8026 20.1016 19.7014C20.1836 19.9745 21.2213 20.8758 22.423 21.6951L24.5804 23.2244V27.9217V32.6189L23.6246 35.0495C22.9145 36.8519 22.5595 38.3539 22.2591 40.8391C21.5764 46.2737 21.7402 46.9565 23.6246 46.9565C24.9901 46.9565 25.2905 46.2737 25.7001 42.3138C25.9732 39.5009 26.219 38.4086 27.1202 36.1145C27.6937 34.5579 28.2945 33.3017 28.4311 33.3017C28.5403 33.3017 28.7861 33.7659 28.9227 34.3121C29.0865 34.8856 29.8239 37.7258 30.5612 40.6206C31.3259 43.4882 32.0633 46.1099 32.2271 46.4103C32.6914 47.2569 34.5211 47.175 35.1219 46.2737C35.5589 45.6183 35.5043 45.3179 33.893 39.0913L32.2271 32.6189V28.5771C32.2271 23.9618 31.8721 24.3714 35.4497 24.863C36.6513 25.0268 37.8256 25.0541 38.0441 24.9176C38.5083 24.6718 41.567 20.8758 42.0313 19.9472C42.6594 18.8002 41.6216 17.5167 40.3381 17.8444C40.0104 17.9263 39.0818 18.8822 38.2626 19.9472L36.7605 21.8862L35.1219 21.6951C34.1934 21.5858 31.9813 21.422 30.1789 21.3127L26.9017 21.1489L24.8535 19.6195L22.8053 18.0902L22.0133 15.3319C21.5764 13.8299 21.1121 12.4644 20.9482 12.3005C20.7844 12.1367 20.2382 12.0001 19.7466 12.0001C19.0639 12.0001 18.7635 12.164 18.545 12.6282Z" fill="white"/>
<path d="M36.269 13.1744L34.685 13.7752V15.3046C34.685 16.6154 34.6031 16.8612 34.1388 16.9978C33.8384 17.0797 33.5927 17.3255 33.5927 17.544C33.5927 18.1175 34.5212 18.3906 35.2312 18.0082C35.6955 17.7624 35.7774 17.4347 35.7774 16.1239C35.7774 14.5672 35.7774 14.5399 36.7333 14.2668L37.6891 13.9664V15.0315C37.6891 15.9054 37.6072 16.0965 37.1429 16.0965C36.7606 16.0965 36.5967 16.2877 36.5967 16.67C36.5967 17.1343 36.7333 17.2162 37.6345 17.1343L38.6449 17.0524L38.7269 15.1953C38.7815 14.0483 38.6722 13.1744 38.4811 12.9286C38.0987 12.4644 38.1807 12.4644 36.269 13.1744Z" fill="white"/>
<path d="M42.1404 13.7756C41.6761 14.2945 41.7034 14.5949 42.2223 15.0045C42.8231 15.5234 43.697 14.6768 43.2601 13.9941C42.8777 13.3659 42.5227 13.3113 42.1404 13.7756Z" fill="white"/>
<path d="M13.9295 14.5949C13.6564 14.9226 13.6837 15.0319 14.0661 15.1684C14.6942 15.4142 15.1585 14.8953 14.6669 14.4857C14.3665 14.2399 14.2026 14.2672 13.9295 14.5949Z" fill="white"/>
<path d="M44.9533 14.7039C44.8714 14.8405 44.9533 15.0863 45.1718 15.2501C45.4449 15.4686 45.6087 15.4686 45.8545 15.1955C46.0184 14.977 46.073 14.7312 45.9637 14.6493C45.718 14.3762 45.1171 14.4035 44.9533 14.7039Z" fill="white"/>
<path d="M26.8195 15.2771C24.5528 16.6699 25.2355 20.2202 27.8846 20.6298C28.3762 20.7118 29.1408 20.6571 29.5505 20.4933C30.4244 20.1656 31.4075 18.7182 31.4075 17.7896C31.4075 16.8065 30.6702 15.6049 29.7689 15.1406C28.7039 14.5944 27.8846 14.6217 26.8195 15.2771Z" fill="white"/>
<path d="M16.497 15.5777C16.2239 16.042 17.1251 16.8339 17.5074 16.4516C17.6986 16.2604 17.7532 15.9327 17.6713 15.7142C17.4801 15.2227 16.7701 15.1407 16.497 15.5777Z" fill="white"/>
<path d="M13.2742 17.1345C12.8645 17.6261 12.8645 17.6807 13.3834 18.145C13.8203 18.5273 13.9842 18.5546 14.3392 18.2815C14.8581 17.8446 14.8581 17.5442 14.3665 17.0253C13.875 16.5337 13.8203 16.5337 13.2742 17.1345Z" fill="white"/>
<path d="M43.8067 17.3256C43.6975 17.5714 43.7521 17.8991 43.9159 18.063C44.3256 18.4726 45.1176 18.0903 45.0083 17.5441C44.8991 16.916 44.0252 16.7521 43.8067 17.3256Z" fill="white"/>
<path d="M15.8414 18.6911C14.9129 18.9915 14.8856 19.0734 14.8036 20.5209C14.749 21.7771 14.6125 22.0775 14.2028 22.1867C13.9024 22.2687 13.6566 22.5145 13.6566 22.7329C13.6566 23.2518 14.5578 23.5795 15.2952 23.3338C15.7595 23.1972 15.8414 22.9241 15.8414 21.5859C15.8414 20.2478 15.9506 19.92 16.4149 19.5923C16.7426 19.4012 16.9611 19.0188 16.9065 18.8004C16.8245 18.418 16.6607 18.418 15.8414 18.6911Z" fill="white"/>
<path d="M42.4138 23.7979C41.5399 24.0983 41.5126 24.1256 41.5126 25.655C41.5126 26.9932 41.4306 27.2389 40.9664 27.3755C40.666 27.4574 40.4202 27.6486 40.4202 27.8124C40.4202 28.2494 41.3487 28.659 42.0041 28.4679C42.5503 28.3313 42.6049 28.1402 42.6049 26.6108C42.6049 25.1361 42.6869 24.8903 43.1511 24.7538C43.4788 24.6718 43.6973 24.3714 43.6973 24.0437C43.6973 23.4156 43.67 23.4156 42.4138 23.7979Z" fill="white"/>
</svg>
