<svg width="40" height="40" viewBox="0 0 40 40" fill="none" xmlns="http://www.w3.org/2000/svg">
<rect width="40" height="40" rx="20" fill="#2D945C"/>
<path d="M22.5291 7.52777C22.28 7.62058 22.0895 7.9332 22.0895 8.25071V8.47053H21.6352C21.0832 8.47053 20.7266 8.55845 20.199 8.81246C19.4712 9.16905 18.8704 9.892 18.6115 10.7175C18.5187 11.0204 18.4991 11.1865 18.504 11.6701L18.5089 12.2562L19.5591 15.9198C20.1355 17.9324 20.6778 19.7544 20.7657 19.9644C21.1858 21.0147 21.9869 21.9916 22.9638 22.6413L23.3693 22.9148L24.439 25.4354C25.4209 27.7459 25.5088 27.9852 25.5088 28.2392C25.5088 29.5337 24.7663 30.5693 23.6086 30.9112C23.2276 31.0236 22.5682 31.0138 22.1774 30.8917C21.4007 30.6523 20.7315 29.9831 20.4677 29.182C20.3651 28.8743 20.3602 28.7717 20.3358 25.7138L20.3065 22.5631L20.1453 22.0991C19.9157 21.4396 19.6031 20.9365 19.1097 20.4382C18.6115 19.9449 18.1084 19.6323 17.4489 19.4027C16.9946 19.2464 16.9702 19.2415 16.13 19.2415C15.2898 19.2415 15.2654 19.2464 14.8111 19.4027C14.1468 19.6323 13.6437 19.9449 13.1503 20.4382C12.6569 20.9316 12.3443 21.4347 12.1147 22.0991L11.9535 22.5631L11.9389 23.8429L11.9242 25.1179L11.5237 25.2449C10.9424 25.4256 10.5516 25.6747 10.0485 26.1779C9.53556 26.6859 9.26201 27.1744 9.09105 27.8582C8.9445 28.4444 8.9787 29.3872 9.15943 29.9098C9.37925 30.5156 9.60883 30.8819 10.0924 31.3557C10.4441 31.7074 10.6249 31.8393 10.9521 32.0054C11.5237 32.2887 12.017 32.406 12.6618 32.406C13.3066 32.406 13.7951 32.2936 14.3715 32.0054C14.7085 31.8393 14.8746 31.7123 15.2508 31.3313C15.6318 30.9552 15.7588 30.7891 15.9249 30.4521C16.2131 29.8756 16.3254 29.3872 16.3254 28.7424C16.3254 28.0976 16.2082 27.6042 15.9249 27.0327C15.7588 26.7005 15.6269 26.5296 15.2752 26.1779C14.772 25.6747 14.3813 25.4256 13.8 25.2449L13.3945 25.1179V24.351C13.3945 23.0516 13.502 22.5045 13.8586 21.9672C14.2054 21.4494 14.7379 21.0293 15.2801 20.8486C15.6855 20.7167 16.5745 20.7167 16.98 20.8486C17.7225 21.0928 18.3966 21.7523 18.6799 22.5143C18.7873 22.8025 18.7922 22.8562 18.8215 25.9092C18.8508 28.8596 18.8557 29.0306 18.9534 29.4116C19.3442 30.921 20.4775 32.0494 21.9576 32.406C22.5095 32.5379 23.3351 32.5379 23.8968 32.406C25.0447 32.1324 26.0412 31.3362 26.5639 30.2811C26.8423 29.7096 26.9694 29.2064 27.0133 28.4493L27.0475 27.8387L28.0977 25.367L29.148 22.8953L29.4655 22.695C30.4229 22.104 31.2533 21.1172 31.7174 20.0279C31.8004 19.8374 32.3377 18.03 32.919 16.0175L33.9692 12.3539L33.9937 11.7678C34.023 11.0839 33.9546 10.7566 33.6762 10.1802C33.5443 9.91154 33.3928 9.71126 33.1046 9.41818C32.455 8.75873 31.7809 8.47053 30.8967 8.47053H30.4424V8.28491C30.4375 8.02601 30.2812 7.7085 30.0907 7.59127C29.8563 7.44472 29.3776 7.47403 29.1919 7.64012C28.9379 7.87947 28.9282 7.93809 28.9282 9.20325C28.9282 10.4684 28.9379 10.527 29.1919 10.7664C29.3776 10.9325 29.8563 10.9618 30.0907 10.8152C30.2812 10.698 30.4375 10.3805 30.4424 10.1118V9.92619L30.8234 9.96039C31.3168 10.0044 31.6343 10.1314 31.9323 10.3951C32.284 10.698 32.4647 11.079 32.4843 11.5479C32.4989 11.8996 32.4598 12.056 31.4731 15.5193C30.9065 17.5025 30.3838 19.261 30.3154 19.4271C29.9881 20.2038 29.2066 21.083 28.4641 21.5129C27.7363 21.9281 27.0573 22.1088 26.2171 22.104C24.5807 22.104 23.042 21.1417 22.2995 19.6469C22.1383 19.3196 21.8696 18.4599 21.0588 15.6219C20.0867 12.2465 20.0183 11.9876 20.0183 11.6212C20.0232 11.333 20.0476 11.1718 20.1258 10.996C20.2625 10.6931 20.6338 10.2974 20.922 10.1509C21.1467 10.0385 21.6205 9.93596 21.9331 9.93596C22.0846 9.93596 22.0895 9.94085 22.0895 10.1558C22.0895 10.4098 22.1676 10.5905 22.3532 10.7664C22.5389 10.9325 23.0176 10.9618 23.252 10.8152C23.5647 10.6198 23.6037 10.444 23.6037 9.20325C23.6037 7.96251 23.5647 7.78177 23.252 7.59127C23.0957 7.49846 22.7098 7.46426 22.5291 7.52777ZM26.7349 24.6782C26.4809 25.2742 26.2562 25.748 26.2366 25.7285C26.2122 25.6992 25.6553 24.4193 25.333 23.6378C25.3183 23.6085 25.6456 23.5889 26.2562 23.5889H27.1989L26.7349 24.6782ZM13.5557 26.7738C13.9954 26.9839 14.4203 27.4039 14.6304 27.8485C14.7769 28.1611 14.7867 28.2099 14.7867 28.7424C14.7867 29.2748 14.7769 29.3237 14.6304 29.6363C14.4203 30.0808 14.0003 30.5009 13.5557 30.7109C13.2431 30.8575 13.1943 30.8673 12.6618 30.8673C12.1294 30.8673 12.0805 30.8575 11.7679 30.7109C11.3234 30.5009 10.9033 30.0808 10.6933 29.6363C10.5467 29.3237 10.5369 29.2748 10.5369 28.7424C10.5369 28.2099 10.5467 28.1611 10.6933 27.8485C10.874 27.4675 11.3039 27.0083 11.636 26.8373C12.0317 26.6322 12.2222 26.5931 12.7351 26.6077C13.1698 26.6175 13.2627 26.637 13.5557 26.7738Z" fill="white"/>
<path d="M12.2516 28.103C12.0269 28.2544 11.9292 28.44 11.9292 28.7429C11.9292 29.2069 12.1979 29.4756 12.6619 29.4756C13.126 29.4756 13.3946 29.2069 13.3946 28.7429C13.3946 28.2788 13.126 28.0102 12.6619 28.0102C12.4812 28.0102 12.3493 28.0395 12.2516 28.103Z" fill="white"/>
</svg>
