<svg width="40" height="40" viewBox="0 0 40 40" fill="none" xmlns="http://www.w3.org/2000/svg">
<rect width="40" height="40" rx="20" fill="#2D945C"/>
<path fill-rule="evenodd" clip-rule="evenodd" d="M23.0698 9H25.1163C27.0461 9 28.01 9 28.6097 9.59306C29.2093 10.1861 29.2093 11.1395 29.2093 13.0482V28.4819H30.2326C30.4361 28.4819 30.6313 28.5619 30.7752 28.7042C30.9191 28.8466 31 29.0397 31 29.241C31 29.4423 30.9191 29.6353 30.7752 29.7777C30.6313 29.92 30.4361 30 30.2326 30H9.76744C9.5639 30 9.3687 29.92 9.22478 29.7777C9.08086 29.6353 9 29.4423 9 29.241C9 29.0397 9.08086 28.8466 9.22478 28.7042C9.3687 28.5619 9.5639 28.4819 9.76744 28.4819H10.7907V16.0843C10.7907 14.1756 10.7907 13.2223 11.3903 12.6292C11.99 12.0361 12.9539 12.0361 14.8837 12.0361H18.9767C20.9066 12.0361 21.8705 12.0361 22.4701 12.6292C23.0698 13.2223 23.0698 14.1756 23.0698 16.0843V28.4819H24.6047V15.9933C24.6047 15.1178 24.6047 14.3143 24.5156 13.6615C24.4184 12.9419 24.1882 12.1809 23.5558 11.5564C22.9234 10.93 22.154 10.7023 21.4274 10.6051C20.7756 10.5191 19.9765 10.5181 19.1057 10.5181C19.1916 10.1264 19.3359 9.82988 19.5764 9.59306C20.176 9 21.1399 9 23.0698 9ZM13.093 15.0723C13.093 14.871 13.1739 14.6779 13.3178 14.5356C13.4617 14.3932 13.6569 14.3133 13.8605 14.3133H20C20.2035 14.3133 20.3987 14.3932 20.5427 14.5356C20.6866 14.6779 20.7674 14.871 20.7674 15.0723C20.7674 15.2736 20.6866 15.4667 20.5427 15.609C20.3987 15.7514 20.2035 15.8313 20 15.8313H13.8605C13.6569 15.8313 13.4617 15.7514 13.3178 15.609C13.1739 15.4667 13.093 15.2736 13.093 15.0723ZM13.093 18.1084C13.093 17.9071 13.1739 17.7141 13.3178 17.5717C13.4617 17.4294 13.6569 17.3494 13.8605 17.3494H20C20.2035 17.3494 20.3987 17.4294 20.5427 17.5717C20.6866 17.7141 20.7674 17.9071 20.7674 18.1084C20.7674 18.3097 20.6866 18.5028 20.5427 18.6452C20.3987 18.7875 20.2035 18.8675 20 18.8675H13.8605C13.6569 18.8675 13.4617 18.7875 13.3178 18.6452C13.1739 18.5028 13.093 18.3097 13.093 18.1084ZM13.093 21.1446C13.093 20.9433 13.1739 20.7502 13.3178 20.6079C13.4617 20.4655 13.6569 20.3855 13.8605 20.3855H20C20.2035 20.3855 20.3987 20.4655 20.5427 20.6079C20.6866 20.7502 20.7674 20.9433 20.7674 21.1446C20.7674 21.3459 20.6866 21.539 20.5427 21.6813C20.3987 21.8236 20.2035 21.9036 20 21.9036H13.8605C13.6569 21.9036 13.4617 21.8236 13.3178 21.6813C13.1739 21.539 13.093 21.3459 13.093 21.1446ZM16.9302 25.4458C17.1338 25.4458 17.329 25.5258 17.4729 25.6681C17.6168 25.8104 17.6977 26.0035 17.6977 26.2048V28.4819H16.1628V26.2048C16.1628 26.0035 16.2436 25.8104 16.3876 25.6681C16.5315 25.5258 16.7267 25.4458 16.9302 25.4458Z" fill="white"/>
</svg>
