<svg width="40" height="40" viewBox="0 0 40 40" fill="none" xmlns="http://www.w3.org/2000/svg">
<rect width="40" height="40" rx="20" fill="#2D945C"/>
<path d="M19.8166 16.2731C20.0805 16.3767 20.3395 16.1233 20.252 15.8537C19.6514 14.003 17.477 13.3126 15.4556 14.9545C14.3923 15.8183 13.9928 16.0018 13.9827 16.0065C14.6837 16.7073 15.4845 19.0591 17.2321 19.3192C19.1573 19.6682 20.8612 17.7741 19.4672 16.9074C18.5504 16.3375 17.4709 16.0064 16.3139 16.0064C17.5269 15.733 18.7378 15.8502 19.8166 16.2731ZM28.5341 14.9544C25.0448 12.1201 22.8195 16.5898 24.2027 16.1467C25.1851 15.8321 26.2591 15.7635 27.3364 16.0063C25.5112 16.0063 23.8286 16.8428 22.7068 18.2044C22.7989 16.0647 22.9383 14.7253 23.0999 13.7291C24.0322 13.697 25.2749 12.9441 25.9573 11.6266C27.1339 9.52109 26.5883 7.36224 26.4127 6C25.4934 6.8952 21.4776 5.84626 19.8856 8.57424C19.1824 9.7793 19.3868 11.2457 20.1266 12.3188C20.3607 12.6585 20.9207 12.4955 20.9366 12.0832C21.0061 10.2898 21.8987 8.93486 23.5626 8.18439C22.816 9.15183 22.3257 10.2349 22.0724 11.3544C21.6788 13.0983 21.2676 14.2423 21.1166 19.8006C21.1013 20.3643 21.5579 20.8309 22.1218 20.8238C22.53 20.8187 22.8796 20.5596 23.0366 20.1828C23.2754 19.6097 23.664 19.0165 24.2963 18.473C24.8973 19.1373 25.8117 19.4907 26.7578 19.3191C28.498 19.0601 29.3102 16.7032 30.0072 16.0063C29.997 16.0018 29.5974 15.8182 28.5341 14.9544ZM33.6634 21.88C32.5726 21.1399 31.3854 21.6673 30.8402 21.9821L23.9981 26.9899L19.9918 26.9907L18.9903 25.9892H22.6695C23.776 25.9892 25.0153 25.2684 25.0153 23.9856C25.0153 22.6237 23.776 21.9821 22.6695 21.9821H21.2907C20.2665 21.9821 19.0696 22.0734 18.2257 21.6217C17.4239 21.2137 16.5006 20.9815 15.515 20.9815C13.86 20.9815 12.3787 21.6413 11.3637 22.6818L5.97009 27.9914L11.9794 34.0007L13.9825 30.9961H23.4482C24.4577 30.9961 25.4321 30.6258 26.1868 29.9553L33.7319 23.2528C34.1514 22.8802 34.1277 22.1951 33.6634 21.88Z" fill="white"/>
</svg>
