<svg width="59" height="59" viewBox="0 0 59 59" fill="none" xmlns="http://www.w3.org/2000/svg">
<rect width="59" height="59" rx="29.5" fill="#2D945C"/>
<path d="M22.875 29.4063V23.5625C22.875 22.9896 23.0757 22.5028 23.4772 22.1023C23.8787 21.7017 24.3655 21.5009 24.9375 21.5C25.5095 21.4991 25.9967 21.6998 26.3991 22.1023C26.8015 22.5047 27.0018 22.9914 27 23.5625V29.4063C27 29.9792 26.7997 30.4664 26.3991 30.8679C25.9985 31.2694 25.5113 31.4697 24.9375 31.4688C24.3637 31.4678 23.8769 31.2675 23.4772 30.8679C23.0776 30.4682 22.8768 29.981 22.875 29.4063ZM29.75 29.0969V18.0625C29.75 17.4896 29.9507 17.0028 30.3522 16.6023C30.7537 16.2017 31.2405 16.0009 31.8125 16C32.3845 15.9991 32.8717 16.1998 33.2741 16.6023C33.6765 17.0047 33.8768 17.4914 33.875 18.0625V29.0969C33.875 29.7844 33.6632 30.3 33.2397 30.6438C32.8162 30.9875 32.3405 31.1594 31.8125 31.1594C31.2845 31.1594 30.8092 30.9875 30.3866 30.6438C29.964 30.3 29.7518 29.7844 29.75 29.0969ZM16 33.8406V29.0625C16 28.4896 16.2007 28.0028 16.6022 27.6023C17.0037 27.2017 17.4905 27.0009 18.0625 27C18.6345 26.9991 19.1217 27.1998 19.5241 27.6023C19.9265 28.0047 20.1268 28.4914 20.125 29.0625V33.8406C20.125 34.5281 19.9133 35.0438 19.4898 35.3875C19.0663 35.7313 18.5905 35.9031 18.0625 35.9031C17.5345 35.9031 17.0592 35.7313 16.6366 35.3875C16.214 35.0438 16.0018 34.5281 16 33.8406ZM19.3 42.1938C18.7042 42.1938 18.2857 41.9133 18.0446 41.3523C17.8035 40.7913 17.9012 40.2926 18.3375 39.8563L23.975 34.2188C24.2271 33.9667 24.531 33.8292 24.8866 33.8063C25.2423 33.7833 25.5572 33.8979 25.8312 34.15L29.75 37.5188L37.45 29.8188H36.625C36.2354 29.8188 35.9091 29.6868 35.646 29.4228C35.3829 29.1588 35.2509 28.8324 35.25 28.4438C35.2491 28.0551 35.3811 27.7288 35.646 27.4648C35.9109 27.2008 36.2372 27.0688 36.625 27.0688H40.75C41.1396 27.0688 41.4664 27.2008 41.7304 27.4648C41.9944 27.7288 42.1259 28.0551 42.125 28.4438V32.5688C42.125 32.9583 41.993 33.2851 41.729 33.5491C41.465 33.8131 41.1387 33.9447 40.75 33.9438C40.3613 33.9428 40.035 33.8108 39.771 33.5478C39.507 33.2847 39.375 32.9583 39.375 32.5688V31.7438L30.7812 40.3375C30.5292 40.5896 30.2253 40.7271 29.8696 40.75C29.514 40.7729 29.1991 40.6583 28.925 40.4063L25.0063 37.0375L20.2625 41.7813C20.1479 41.8958 20.0049 41.9935 19.8335 42.0741C19.6621 42.1548 19.4843 42.1947 19.3 42.1938Z" fill="white"/>
</svg>
