<svg width="59" height="59" viewBox="0 0 59 59" fill="none" xmlns="http://www.w3.org/2000/svg">
<rect width="59" height="59" rx="29.5" fill="#2D945C"/>
<path d="M40.5 21.25H36.375V18.5C36.375 17.7707 36.0853 17.0712 35.5695 16.5555C35.0538 16.0397 34.3543 15.75 33.625 15.75H25.375C24.6457 15.75 23.9462 16.0397 23.4305 16.5555C22.9147 17.0712 22.625 17.7707 22.625 18.5V21.25H18.5C17.7707 21.25 17.0712 21.5397 16.5555 22.0555C16.0397 22.5712 15.75 23.2707 15.75 24V37.75C15.75 38.4793 16.0397 39.1788 16.5555 39.6945C17.0712 40.2103 17.7707 40.5 18.5 40.5H40.5C41.2293 40.5 41.9288 40.2103 42.4445 39.6945C42.9603 39.1788 43.25 38.4793 43.25 37.75V24C43.25 23.2707 42.9603 22.5712 42.4445 22.0555C41.9288 21.5397 41.2293 21.25 40.5 21.25ZM25.375 18.5H33.625V21.25H25.375V18.5ZM35 32.25H30.875V36.375H28.125V32.25H24V29.5H28.125V25.375H30.875V29.5H35V32.25Z" fill="white"/>
</svg>
