<svg width="40" height="40" viewBox="0 0 40 40" fill="none" xmlns="http://www.w3.org/2000/svg">
<rect width="40" height="40" rx="20" fill="#2D945C"/>
<path d="M31.9404 13.406L29.7269 31H22.2507L20.0463 13.3181H29.1734L30.9774 7L32 7.31257L30.2692 13.3929L31.9404 13.406ZM18.9894 23.585C18.9894 23.585 19.2689 21.3035 15.3922 21.3035H9.21819C5.34706 21.3035 5.621 23.585 5.621 23.585H18.9894ZM5.621 28.7185C5.621 28.7185 5.34706 31 9.21819 31H15.3927C19.2695 31 18.9899 28.7185 18.9899 28.7185H5.621ZM18.4094 27.5777C19.0439 27.5777 19.5564 26.9423 19.5564 26.1523C19.5564 25.3578 19.0439 24.7258 18.4094 24.7258H6.1475C5.51581 24.7258 5 25.3578 5 26.1523C5 26.9423 5.51581 27.5777 6.1475 27.5777H18.4094Z" fill="white"/>
</svg>
