<svg width="40" height="40" viewBox="0 0 40 40" fill="none" xmlns="http://www.w3.org/2000/svg">
<rect width="40" height="40" rx="20" fill="#2D945C"/>
<path d="M7.625 26.875L14.5 28.25L15.5312 26.1875M22.75 32.375V26.875L17.25 22.75L18.625 14.5M18.625 9C18.625 9.36467 18.7699 9.71441 19.0277 9.97227C19.2856 10.2301 19.6353 10.375 20 10.375C20.3647 10.375 20.7144 10.2301 20.9723 9.97227C21.2301 9.71441 21.375 9.36467 21.375 9C21.375 8.63533 21.2301 8.28559 20.9723 8.02773C20.7144 7.76987 20.3647 7.625 20 7.625C19.6353 7.625 19.2856 7.76987 19.0277 8.02773C18.7699 8.28559 18.625 8.63533 18.625 9Z" stroke="white" stroke-width="2.75" stroke-linecap="round" stroke-linejoin="round"/>
<path d="M11.75 20V15.875L18.625 14.5L22.75 18.625L26.875 20" stroke="white" stroke-width="2.75" stroke-linecap="round" stroke-linejoin="round"/>
<path d="M30.3125 31C30.4948 31 30.6697 30.9276 30.7986 30.7986C30.9276 30.6697 31 30.4948 31 30.3125C31 30.1302 30.9276 29.9553 30.7986 29.8264C30.6697 29.6974 30.4948 29.625 30.3125 29.625C30.1302 29.625 29.9553 29.6974 29.8264 29.8264C29.6974 29.9553 29.625 30.1302 29.625 30.3125C29.625 30.4948 29.6974 30.6697 29.8264 30.7986C29.9553 30.9276 30.1302 31 30.3125 31Z" fill="white" stroke="white" stroke-width="2.75" stroke-linecap="round" stroke-linejoin="round"/>
</svg>
