<svg width="40" height="40" viewBox="0 0 40 40" fill="none" xmlns="http://www.w3.org/2000/svg">
<rect width="40" height="40" rx="20" fill="#2D945C"/>
<path d="M33.8418 15.1521L30.825 12.0049L32.138 11.1675L32.2147 10.5148L31.6056 10.4785L30.0262 11.6146L28.0552 11.6163L26.8486 10.8796L26.4165 10.9678L26.4228 11.4468L27.2006 12.3082L27.098 12.7606L17.9452 13.745L8.46447 13.4802L7.44281 13.9085L6.69027 14.8647L6.30308 17.1015L6.23468 18.7093L6 20.2107L6.06451 21.7061L6.32845 21.7601L6.71211 21.3377L7.02401 19.9346L6.7712 17.9882L6.85914 17.9749L7.45341 20.9381L7.04862 23.5098L7.41821 28.6423L7.45341 29.2106L7.81358 29.5179L9.40607 29.5204L9.91923 29.3651L8.49449 27.045L9.20129 24.0986L9.57147 24.0993L10.8631 28.0167L11.5289 29.0224L11.8573 29.2246L13.6152 29.2259L13.8407 28.9436L12.319 28.0089L11.2872 24.8313L11.5459 24.3154L12.152 24.3717L12.5325 25.3035L13.0837 24.3952L13.6178 25.3073L14.0702 24.3169L15.4019 23.2933L20.1272 22.8408L20.9203 23.8104L21.5887 28.5506L21.9404 29.2316L23.5505 29.231L23.724 28.9758L22.7454 27.6137L22.6278 25.0199L23.1563 25.3132L23.7129 27.0362L24.4208 29.2734L24.7383 29.5195L26.1789 29.5204L26.2985 29.195L25.8773 28.8052L24.5189 26.1505L24.8321 23.3684L26.3542 22.2424L28.5715 18.124L31.1236 16.9458L33.4704 16.6786L33.6716 16.4605L34.0001 15.5348L33.8418 15.1521Z" fill="white"/>
</svg>
