<svg width="30" height="30" viewBox="0 0 30 30" fill="none" xmlns="http://www.w3.org/2000/svg">
<path d="M6.16943 9.94869C6.93393 10.36 7.69837 10.3225 8.46287 10.132C8.46287 9.16773 9.37909 8.20337 9.37909 7.23906C9.37909 6.29007 8.46287 5.34108 8.46287 4.39209C7.69837 4.58252 6.93393 4.62004 6.16943 4.20874V9.94869Z" fill="#B3E59F"/>
<path d="M10.8344 9.37921C11.5989 9.18878 12.3633 9.15126 13.1278 9.56256C13.1278 8.61028 13.7526 7.8386 13.7526 6.88632C13.7526 5.9253 13.1278 4.78363 13.1278 3.82266C12.3633 3.41136 11.5989 3.44888 10.8344 3.63931C10.8344 4.60362 10.0142 5.92201 10.0142 6.88638C10.0142 7.83531 10.8344 8.43022 10.8344 9.37921Z" fill="#DD636E"/>
<path d="M8.46289 10.1328C9.25333 9.93591 10.0437 9.57552 10.8342 9.37862V3.63867C10.0438 3.83557 9.25333 4.19596 8.46289 4.39285V10.1328Z" fill="#F9F6F9"/>
<path d="M14.377 4.0153V12.6902C14.377 13.0353 14.0977 13.3147 13.7525 13.3147C13.4077 13.3147 13.1279 13.0353 13.1279 12.6902V4.0153C13.1279 3.67054 13.4077 3.39075 13.7525 3.39075C14.0976 3.39075 14.377 3.67054 14.377 4.0153Z" fill="#B78B7A"/>
<path d="M13.7525 3.39075V13.3148C13.4077 13.3148 13.1279 13.0354 13.1279 12.6902V4.0153C13.1279 3.67054 13.4077 3.39075 13.7525 3.39075Z" fill="#AA7A63"/>
<path d="M23.8393 23.9076C23.8393 24.3322 23.7413 24.7344 23.5668 25.0918C23.4345 25.3623 23.2584 25.6077 23.0479 25.8181C22.5586 26.3069 21.8834 26.6096 21.1373 26.6096H9.42416C8.35658 26.6096 7.43385 25.9906 6.99515 25.0918C6.82061 24.7344 6.72266 24.3322 6.72266 23.9076L14.9996 22.1501L23.8393 23.9076Z" fill="#F9F6F9"/>
<path d="M23.8393 23.9076C23.8393 24.3322 23.7413 24.7344 23.5668 25.0918H6.99515C6.82061 24.7344 6.72266 24.3322 6.72266 23.9076L14.9996 22.1501L23.8393 23.9076Z" fill="#DDDAEC"/>
<path d="M12.4539 26.6096H9.42465C7.93244 26.6096 6.72314 25.3998 6.72314 23.9076L15.0001 22.1501L16.5642 22.4612L9.75185 23.9076C9.75185 25.3998 10.9617 26.6096 12.4539 26.6096Z" fill="#DDDAEC"/>
<path d="M8.29004 17.0276C8.29004 14.2651 10.5376 12.0176 13.3001 12.0176C16.0627 12.0176 18.3102 14.2651 18.3102 17.0276" fill="#FFD064"/>
<path d="M4.23242 20.3929C4.23242 17.6303 6.47996 15.3828 9.24252 15.3828C12.0051 15.3828 14.2526 17.6303 14.2526 20.3929" fill="#FFE07D"/>
<path d="M26.7162 20.3927C26.7162 16.6162 23.6547 13.5547 19.8781 13.5547C16.1016 13.5547 13.04 16.6162 13.04 20.3927" fill="#FFE07D"/>
<path d="M24.4315 23.9081H5.56779C3.6262 23.9081 2.05225 22.3342 2.05225 20.3926H27.9471C27.9471 22.3342 26.3731 23.9081 24.4315 23.9081Z" fill="#F9F6F9"/>
<path d="M12.0668 23.9084H5.56807C3.62674 23.9084 2.05273 22.3344 2.05273 20.3926H8.55145C8.55145 22.3344 10.1255 23.9084 12.0668 23.9084Z" fill="#DDDAEC"/>
<path d="M23.4616 13.8601C23.6876 13.9785 23.8768 14.1565 24.0088 14.3747C24.1409 14.593 24.2107 14.8432 24.2108 15.0983V16.1091C24.2108 16.4342 24.079 16.7281 23.8664 16.9412C23.7572 17.0505 23.6274 17.1371 23.4847 17.1962C23.3419 17.2553 23.1889 17.2857 23.0343 17.2856C22.3841 17.2856 21.8573 16.7588 21.8573 16.1091V17.023C21.8573 17.6867 21.3076 18.2227 20.638 18.1992C19.9999 18.1768 19.5034 17.6332 19.5034 16.9947V14.518C19.5034 14.8431 19.3715 15.1375 19.1584 15.3506C19.0493 15.4599 18.9196 15.5466 18.7768 15.6057C18.634 15.6648 18.4809 15.6952 18.3264 15.6949C17.6767 15.6949 17.1499 15.1682 17.1499 14.518C17.1499 13.8616 17.606 13.2907 18.2477 13.1528C18.7835 13.0379 19.33 12.9801 19.878 12.9805C21.1713 12.9804 22.3907 13.2981 23.4616 13.8601Z" fill="#DD636E"/>
<path d="M17.8357 14.518C17.8357 13.8617 18.2918 13.2908 18.9335 13.1528C19.3563 13.0623 19.7859 13.0074 20.2178 12.9887C20.1046 12.9835 19.9913 12.9808 19.878 12.9805C19.3188 12.9805 18.7733 13.0399 18.2477 13.1528C17.6061 13.2907 17.1499 13.8616 17.1499 14.518C17.1499 15.1682 17.6767 15.695 18.3264 15.695C18.4457 15.695 18.5608 15.6771 18.6694 15.6441C18.1869 15.4973 17.8357 15.0489 17.8357 14.518ZM20.1892 16.9948V15.2038C20.1892 14.825 19.8821 14.518 19.5034 14.518V16.9948C19.5034 17.6211 19.981 18.159 20.606 18.1977C20.7474 18.2066 20.8893 18.1899 21.0249 18.1484C20.5372 17.997 20.1892 17.5292 20.1892 16.9948Z" fill="#DA4A54"/>
<path d="M27.9472 20.0013H27.0967C26.9914 18.032 26.0933 16.2025 24.5909 14.9105C24.5606 14.6176 24.4582 14.3367 24.2928 14.093C24.1275 13.8492 23.9044 13.6502 23.6434 13.5138C22.4908 12.9091 21.1888 12.5894 19.8781 12.5894C19.3008 12.5894 18.7246 12.6503 18.1657 12.7705C17.7927 12.8507 17.4668 13.0484 17.2227 13.3192C16.5506 12.6104 15.6983 12.0982 14.7679 11.8329V6.5044C14.7679 6.40076 14.7268 6.30137 14.6535 6.22808C14.5802 6.1548 14.4808 6.11363 14.3772 6.11363C14.2735 6.11363 14.1741 6.1548 14.1009 6.22808C14.0276 6.30137 13.9864 6.40076 13.9864 6.5044V11.6715C13.8311 11.6513 13.675 11.638 13.5185 11.6315V9.56228L13.5186 9.5615V4.01495C13.5188 3.95302 13.5435 3.89369 13.5873 3.84995C13.6312 3.8062 13.6905 3.7816 13.7525 3.78153C13.8145 3.7816 13.874 3.80627 13.9178 3.85013C13.9617 3.89399 13.9863 3.95345 13.9864 4.01547V4.94133C13.9864 5.04497 14.0276 5.14436 14.1009 5.21764C14.1741 5.29093 14.2735 5.3321 14.3772 5.3321C14.4808 5.3321 14.5802 5.29093 14.6535 5.21764C14.7268 5.14436 14.7679 5.04497 14.7679 4.94133V4.01547C14.7679 3.45553 14.3124 3 13.7525 3C13.4558 3 13.1893 3.12864 13.0035 3.33215C11.8024 2.8426 10.643 3.25051 9.51885 3.6468C8.40986 4.03772 7.36239 4.40697 6.35478 3.86495C6.29525 3.83293 6.22843 3.81689 6.16085 3.81842C6.09327 3.81994 6.02724 3.83897 5.96922 3.87365C5.91119 3.90832 5.86315 3.95746 5.82979 4.01625C5.79643 4.07505 5.7789 4.14149 5.7789 4.20909V9.94904C5.7789 10.0196 5.79802 10.0889 5.83423 10.1495C5.87044 10.2101 5.92238 10.2597 5.98455 10.2932C6.48264 10.5611 6.9735 10.6633 7.45763 10.6633C8.2486 10.6633 9.02169 10.3908 9.77863 10.1238C10.8124 9.75944 11.7926 9.41426 12.7369 9.80805V11.6567C10.7296 11.866 8.99538 13.1818 8.26152 15.0828C6.92244 15.333 5.70418 16.0874 4.88467 17.2055C4.85433 17.2469 4.83245 17.2939 4.82026 17.3437C4.80808 17.3936 4.80583 17.4453 4.81365 17.4961C4.82147 17.5468 4.8392 17.5955 4.86583 17.6393C4.89246 17.6832 4.92747 17.7214 4.96886 17.7517C5.01026 17.7821 5.05722 17.8039 5.10707 17.8161C5.15692 17.8283 5.20868 17.8306 5.2594 17.8227C5.31012 17.8149 5.3588 17.7972 5.40266 17.7706C5.44653 17.7439 5.48472 17.7089 5.51505 17.6675C6.38454 16.4812 7.77801 15.7729 9.2425 15.7729C10.7917 15.7729 12.2544 16.5692 13.1052 17.8626C12.9075 18.3931 12.773 18.9451 12.7043 19.507C12.3096 17.9637 10.9073 16.8193 9.24271 16.8193C7.40475 16.8193 5.88701 18.2145 5.69168 20.0013H4.63973C4.67058 19.6321 4.74609 19.2679 4.86461 18.9168C4.89778 18.8186 4.89059 18.7112 4.84461 18.6184C4.82185 18.5724 4.79025 18.5313 4.75162 18.4975C4.71299 18.4638 4.66808 18.4379 4.61947 18.4215C4.52128 18.3883 4.41394 18.3955 4.32105 18.4415C4.22817 18.4875 4.15735 18.5684 4.12418 18.6666C3.9786 19.0984 3.88859 19.5469 3.85633 20.0013H2.05239C1.94875 20.0013 1.84936 20.0425 1.77607 20.1158C1.70279 20.1891 1.66162 20.2885 1.66162 20.3921C1.66162 22.546 3.41398 24.2984 5.56794 24.2984H6.35739C6.55022 25.8199 7.85168 27.0004 9.4246 27.0004H21.1374C22.7103 27.0004 24.0118 25.8198 24.2046 24.2984H24.4317C26.5857 24.2984 28.338 22.5461 28.338 20.3921C28.338 20.2885 28.2968 20.1891 28.2235 20.1158C28.1503 20.0425 28.0509 20.0013 27.9472 20.0013ZM26.3138 20.0013H25.2636C25.1884 18.9711 24.8191 17.984 24.1996 17.1574C24.4595 16.8688 24.6018 16.4996 24.6018 16.1089V16.0032C25.6181 17.095 26.2238 18.5016 26.3138 20.0013ZM21.5784 20.0013C21.4004 19.2269 20.706 18.6474 19.8783 18.6474C19.0506 18.6474 18.3562 19.2269 18.1782 20.0013H17.1142C17.2744 18.8552 18.1296 17.9233 19.263 17.6697C19.5078 18.1939 20.0261 18.5686 20.6245 18.5896C20.6435 18.5903 20.6624 18.5906 20.6813 18.5906C21.0413 18.5906 21.3825 18.4701 21.6604 18.2466C22.1967 18.6914 22.5448 19.3155 22.6414 20.0013H21.5784V20.0013ZM20.7579 20.0013H18.9987C19.1489 19.6645 19.4863 19.4289 19.8783 19.4289C20.2703 19.4289 20.6077 19.6645 20.7579 20.0013ZM16.7752 14.7393C16.8271 15.104 17.0047 15.4286 17.2628 15.6677C15.6812 16.5475 14.6258 18.181 14.4925 20.0013H13.4438C13.5084 18.914 13.8479 17.8608 14.4306 16.9405C15.0132 16.0201 15.82 15.2628 16.7752 14.7393ZM12.0661 15.7953C11.7577 15.6058 11.4312 15.4474 11.0915 15.3225C11.6154 14.6428 12.4258 14.2358 13.3002 14.2358C13.9819 14.2358 14.6331 14.4858 15.1395 14.9309C14.8751 15.1602 14.6277 15.4084 14.3993 15.6736C14.0888 15.4208 13.7007 15.2827 13.3003 15.2825C12.8284 15.2825 12.3892 15.4696 12.0661 15.7953ZM18.2189 16.0814C18.2545 16.0838 18.2903 16.0855 18.3265 16.0855C18.6072 16.0855 18.8765 16.0123 19.1127 15.875V16.9024C17.615 17.228 16.493 18.4774 16.3274 20.0014H15.2765C15.4261 18.2557 16.5677 16.7199 18.2189 16.0814ZM23.4296 20.0013C23.3275 19.0676 22.8624 18.2146 22.1306 17.6207C22.1561 17.5592 22.1775 17.4962 22.1949 17.4319C22.4457 17.5918 22.737 17.6765 23.0345 17.6762C23.2117 17.6762 23.3843 17.6466 23.5472 17.5904C24.0816 18.2887 24.4054 19.1252 24.4804 20.0013H23.4296ZM18.33 13.5346C18.8388 13.4256 19.3578 13.3708 19.8781 13.371C21.0627 13.371 22.2392 13.6597 23.2803 14.2058C23.4433 14.2909 23.5798 14.4191 23.675 14.5765C23.7702 14.7338 23.8204 14.9142 23.8202 15.0981V16.1089C23.8202 16.3186 23.7384 16.5161 23.5906 16.6643C23.5177 16.7375 23.431 16.7955 23.3356 16.835C23.2401 16.8746 23.1378 16.8948 23.0345 16.8946C22.601 16.8946 22.2483 16.5421 22.2483 16.1089C22.2483 15.8931 22.0734 15.7181 21.8575 15.7181C21.6416 15.7181 21.4667 15.8931 21.4667 16.1089V17.0228C21.4671 17.1284 21.446 17.233 21.4047 17.3303C21.3634 17.4275 21.3028 17.5154 21.2265 17.5885C21.0717 17.738 20.8677 17.8166 20.6519 17.8085C20.2341 17.7938 19.8943 17.4287 19.8943 16.9945V14.5177C19.8943 14.3019 19.7194 14.127 19.5035 14.127C19.2877 14.127 19.1128 14.3019 19.1128 14.5177C19.1128 14.7279 19.031 14.9254 18.8823 15.074C18.8095 15.1472 18.7229 15.2052 18.6275 15.2447C18.5321 15.2841 18.4298 15.3043 18.3265 15.304C17.8933 15.304 17.5408 14.9512 17.5408 14.5177C17.5408 14.0464 17.8727 13.6329 18.33 13.5346ZM6.56043 9.7029V4.79372C7.07176 4.94836 7.57559 4.95071 8.07234 4.87245V9.81727C7.55694 9.91241 7.05379 9.90866 6.56043 9.7029ZM9.51885 9.38675C9.29471 9.46574 9.07317 9.54384 8.85387 9.61371V4.6914C9.16482 4.60017 9.47305 4.49164 9.77869 4.38389C10.0028 4.3049 10.2244 4.2268 10.4436 4.15693V9.07929C10.1327 9.17052 9.82443 9.279 9.51885 9.38675ZM11.2251 8.89819V3.95337C11.7406 3.85823 12.2437 3.86198 12.737 4.06773V8.97686C12.2257 8.82227 11.7219 8.81993 11.2251 8.89819ZM9.15351 14.9927C9.92212 13.4254 11.5204 12.4081 13.3002 12.4081C14.5894 12.4081 15.826 12.9587 16.696 13.9006C16.3731 14.0588 16.0623 14.2408 15.7664 14.4451C15.1041 13.8118 14.2239 13.4543 13.3002 13.4543C12.0764 13.4543 10.951 14.0768 10.2956 15.0969C9.94897 15.0269 9.59618 14.9915 9.2425 14.9914C9.2128 14.9913 9.18316 14.9922 9.15351 14.9927ZM12.7148 16.2629C12.8825 16.1336 13.0884 16.0636 13.3002 16.0641C13.5305 16.0641 13.7496 16.147 13.9218 16.2929C13.757 16.532 13.6069 16.7809 13.4721 17.0381C13.2463 16.755 12.9925 16.4953 12.7148 16.2629ZM9.24266 17.6008C10.6491 17.6008 11.8153 18.6466 12.006 20.0013H10.9427C10.7648 19.2269 10.0704 18.6474 9.24266 18.6474C8.41496 18.6474 7.72049 19.2269 7.54256 20.0013H6.47931C6.67 18.6466 7.83621 17.6008 9.24266 17.6008ZM10.1222 20.0013H8.36307C8.51328 19.6645 8.85069 19.4289 9.24271 19.4289C9.63462 19.4289 9.97198 19.6645 10.1222 20.0013ZM21.1374 26.2189H9.4246C8.28335 26.2189 7.33264 25.3874 7.14643 24.2984H23.4156C23.2294 25.3874 22.2786 26.2189 21.1374 26.2189ZM24.4317 23.5168H5.56794C3.97725 23.5168 2.66032 22.3221 2.46749 20.7828H27.5321C27.3393 22.3221 26.0224 23.5168 24.4317 23.5168Z" fill="black"/>
</svg>
