<svg width="59" height="59" viewBox="0 0 59 59" fill="none" xmlns="http://www.w3.org/2000/svg">
<g clip-path="url(#clip0_662_3180)">
<path d="M59 29.5C59 13.2076 45.7924 0 29.5 0C13.2076 0 0 13.2076 0 29.5C0 45.7924 13.2076 59 29.5 59C45.7924 59 59 45.7924 59 29.5Z" fill="#2D945C"/>
<g clip-path="url(#clip1_662_3180)">
<mask id="mask0_662_3180" style="mask-type:luminance" maskUnits="userSpaceOnUse" x="15" y="16" width="28" height="28">
<path d="M15 16H43V44H15V16Z" fill="white"/>
</mask>
<g mask="url(#mask0_662_3180)">
<path d="M34.2513 21.11C35.54 21.11 36.5846 20.0654 36.5846 18.7767C36.5846 17.488 35.54 16.4434 34.2513 16.4434C32.9626 16.4434 31.918 17.488 31.918 18.7767C31.918 20.0654 32.9626 21.11 34.2513 21.11Z" fill="white"/>
<path d="M42.9994 29.8603V24.3769L37.1078 21.8803C35.9761 21.4019 34.6694 21.8103 34.0161 22.8603L32.8494 24.7269C32.0678 26.1036 30.6211 27.1303 28.8711 27.4336L28.9411 27.5036C29.7461 28.3086 30.7144 28.7519 31.8111 28.8686C32.7444 28.3786 33.5844 27.7253 34.2494 26.9553L34.9494 30.4553L33.5961 31.7386L32.4994 32.7769V33.6636V41.5269H34.8328V34.5269L37.2828 32.1936L39.3828 41.5269H41.8328L39.2894 28.6936L38.5661 25.0769L40.6661 25.8936V29.8603H42.9994Z" fill="white"/>
<path d="M27.0062 25.4384C27.2629 25.6134 27.5546 25.7184 27.8462 25.7767C27.9979 25.8 28.1379 25.8234 28.2896 25.8234C28.4412 25.8234 28.5929 25.8117 28.7329 25.7767C28.8846 25.7534 29.0246 25.7067 29.1646 25.6484C29.4446 25.5317 29.7129 25.3684 29.9346 25.135C30.5062 24.5634 30.7162 23.77 30.5762 23.035C30.4946 22.6034 30.2846 22.1717 29.9346 21.8334C29.7129 21.6117 29.4446 21.4367 29.1646 21.32C29.0246 21.2617 28.8846 21.215 28.7329 21.1917C28.5812 21.1684 28.4412 21.145 28.2896 21.145C28.1496 21.145 28.0212 21.1567 27.8812 21.18C27.7179 21.2034 27.5546 21.25 27.4029 21.3084C27.1346 21.4367 26.8662 21.6117 26.6445 21.8334C26.2945 22.1717 26.0845 22.6034 26.0028 23.035C25.8628 23.77 26.0728 24.5634 26.6445 25.135C26.7496 25.2517 26.8779 25.345 27.0062 25.4384Z" fill="white"/>
<path d="M28.1136 28.3201L25.7803 25.9867C25.6636 25.8701 25.5469 25.7767 25.4186 25.6834C25.1619 25.5201 24.8703 25.4034 24.5786 25.3567C24.4269 25.3217 24.2869 25.3101 24.1353 25.3101C23.5403 25.3101 22.9453 25.5434 22.4903 25.9984L18.5936 29.8951C18.1153 30.3734 17.8703 31.0384 17.9169 31.6917C17.9169 31.9017 17.9636 32.1234 18.0453 32.3334L19.2936 35.7751L15.0586 40.0101L16.7036 41.6667L21.6503 36.7201V34.1301L23.1669 35.5417V41.5267H25.5003V34.5267L23.0269 32.0534L25.7803 29.3001L26.6086 30.1284C28.1136 31.5984 30.0736 32.5084 32.4769 32.5084L32.3136 30.0934C30.5636 30.0701 29.1636 29.3701 28.1136 28.3201Z" fill="white"/>
</g>
</g>
</g>
<defs>
<clipPath id="clip0_662_3180">
<rect width="59" height="59" fill="white"/>
</clipPath>
<clipPath id="clip1_662_3180">
<rect width="28" height="28" fill="white" transform="translate(15 16)"/>
</clipPath>
</defs>
</svg>
