<svg width="40" height="40" viewBox="0 0 40 40" fill="none" xmlns="http://www.w3.org/2000/svg">
<rect width="40" height="40" rx="20" fill="#2D945C"/>
<path d="M27.8725 20.6568C30.1499 20.6568 32.0002 18.801 32.0002 16.5236C32.0002 14.2463 30.1499 12.3905 27.8725 12.3905C27.0349 12.3905 26.2521 12.6478 25.6006 13.0748L23.6572 10.5073L23.6682 10.4963C23.8669 10.2994 24.0245 10.0648 24.1316 9.80635C24.2388 9.54788 24.2934 9.27066 24.2923 8.99086C24.2867 8.42686 24.0598 7.88762 23.6604 7.4893C23.2611 7.09098 22.7213 6.86546 22.1573 6.86133H22.1518C21.5879 6.86133 21.0569 7.08578 20.6573 7.48541C20.4024 7.73594 20.2162 8.04775 20.1165 8.39093C20.0168 8.73412 20.007 9.09716 20.0879 9.44524L15.2376 11.197C14.9549 10.5681 14.4966 10.0342 13.9178 9.65938C13.3391 9.28455 12.6644 9.08473 11.9749 9.08393C9.99864 9.08393 8.39464 10.6879 8.39464 12.6642C8.39464 14.5638 9.8782 16.1185 11.7504 16.239L11.8052 20.5582C9.68113 20.728 8.00049 22.5071 8.00049 24.675C8.00049 26.9523 9.85083 28.8027 12.1282 28.8027C12.9767 28.8027 13.7705 28.5454 14.4274 28.1074L15.7358 29.8045C15.3745 30.1713 15.1774 30.6585 15.1774 31.1786C15.1789 31.6979 15.3858 32.1955 15.753 32.5628C16.1203 32.93 16.6179 33.1369 17.1372 33.1384H17.1427C17.6628 33.1384 18.1555 32.9358 18.5277 32.5691C18.8945 32.1968 19.0971 31.7041 19.0971 31.1786C19.0971 31.091 19.0806 31.0034 19.0697 30.9158L23.1262 29.7662C23.6299 31.1348 24.9437 32.1147 26.482 32.1147C28.4583 32.1147 30.0623 30.5052 30.0623 28.529C30.0623 26.7881 28.8141 25.3319 27.1608 25.0144L27.6645 20.6458C27.7302 20.6458 27.7959 20.6568 27.8725 20.6568ZM22.1627 11.1149H22.1682C22.5405 11.1149 22.8963 11.0109 23.2083 10.8303L25.1627 13.4087C24.3937 14.0761 23.8985 15.0041 23.7722 16.0145L19.8416 15.7955C19.7923 15.3795 19.5788 15.0127 19.2723 14.7609L21.3799 10.9616C21.6262 11.0547 21.889 11.1149 22.1627 11.1149ZM22.2886 21.3411L24.8233 19.3101C25.4299 19.972 26.2347 20.4195 27.1171 20.5856L26.6134 24.9542C26.5696 24.9542 26.5258 24.9487 26.482 24.9487C25.6499 24.9487 24.889 25.2334 24.2813 25.7096L22.1354 23.3611C22.3927 23.0436 22.535 22.6495 22.535 22.2334C22.5405 21.9104 22.4419 21.6039 22.2886 21.3411ZM21.9492 20.9141C21.6262 20.6185 21.2047 20.4323 20.7339 20.4323H20.7284C20.5971 20.4323 20.4711 20.4488 20.3452 20.4761L19.108 17.3174C19.212 17.2517 19.3106 17.1805 19.3982 17.093C19.6117 16.8849 19.7485 16.6222 19.8142 16.343L23.7394 16.5619C23.7454 17.3934 24.0052 18.2032 24.4839 18.8831L21.9492 20.9141ZM18.9602 22.4524L16.015 23.29C15.7633 22.5778 15.32 21.9489 14.734 21.4725L17.619 17.3941C17.8215 17.4926 18.046 17.5528 18.2869 17.5528C18.3964 17.5528 18.4949 17.5419 18.5989 17.52L19.8361 20.6787C19.6993 20.7553 19.5733 20.8484 19.4584 20.9579C19.119 21.2973 18.9328 21.7517 18.9328 22.2334C18.9328 22.3101 18.9493 22.3812 18.9602 22.4524ZM15.4292 11.7116L20.285 9.95983C20.4383 10.2445 20.6518 10.4963 20.9091 10.6934L18.796 14.4926C18.6372 14.4379 18.4675 14.405 18.2869 14.405C17.8653 14.405 17.4712 14.5638 17.1756 14.8594C17.1263 14.9087 17.088 14.9634 17.0497 15.0182L15.2705 14.082C15.4621 13.6496 15.5661 13.1678 15.5661 12.6642C15.5661 12.3357 15.5113 12.0182 15.4292 11.7116ZM16.7978 15.4999C16.7486 15.6532 16.7157 15.812 16.7157 15.9762C16.7157 16.4087 16.8909 16.7973 17.1756 17.082L14.2906 21.155C13.7069 20.7957 13.0425 20.5887 12.3581 20.5528L12.3034 16.2335C13.4475 16.1349 14.4329 15.489 15.0132 14.5638L16.7978 15.4999ZM8.94208 12.6642C8.94208 10.9945 10.3052 9.63137 11.9749 9.63137C13.6501 9.63137 15.0132 10.9945 15.0132 12.6642C15.0132 14.3393 13.6501 15.7025 11.9749 15.7025C10.3052 15.7025 8.94208 14.3393 8.94208 12.6642ZM12.1282 28.2552C10.1574 28.2552 8.54793 26.6512 8.54793 24.675C8.54793 22.6987 10.1574 21.0893 12.1282 21.0893C14.1044 21.0893 15.7139 22.6987 15.7139 24.675C15.7139 26.6512 14.1044 28.2552 12.1282 28.2552ZM17.1318 29.2187C16.7869 29.2187 16.4639 29.3118 16.1737 29.476L14.8544 27.768C15.2958 27.3825 15.6497 26.9071 15.8924 26.3737C16.135 25.8402 16.2608 25.261 16.2613 24.675C16.2613 24.3794 16.2285 24.0892 16.1683 23.8155L19.1025 22.9779C19.2558 23.3119 19.5077 23.5856 19.8197 23.7717L17.6026 29.2844C17.4548 29.2461 17.296 29.2187 17.1318 29.2187ZM22.9729 29.2406L18.9274 30.3902C18.7577 30.007 18.4675 29.7005 18.1117 29.4924L20.3288 23.9797C20.4602 24.0126 20.5971 24.0345 20.7394 24.0345C21.1007 24.0345 21.4456 23.9305 21.7357 23.7334L23.8762 26.0819C23.2507 26.7431 22.902 27.6187 22.9018 28.529C22.9018 28.7753 22.9237 29.0107 22.9729 29.2406ZM29.5203 28.529C29.5203 30.2041 28.1627 31.5672 26.4875 31.5672C24.8123 31.5672 23.4547 30.2041 23.4547 28.529C23.4547 27.7246 23.7742 26.9532 24.343 26.3844C24.9117 25.8157 25.6831 25.4961 26.4875 25.4961C27.2918 25.4961 28.0633 25.8157 28.632 26.3844C29.2008 26.9532 29.5203 27.7246 29.5203 28.529ZM27.451 20.082H27.4455C26.5748 19.9781 25.7724 19.5586 25.1902 18.9028C24.6081 18.247 24.2867 17.4005 24.2868 16.5236C24.2868 14.5474 25.8908 12.9379 27.867 12.9379C29.8433 12.9379 31.4473 14.5474 31.4473 16.5236C31.4473 18.4999 29.8433 20.1093 27.867 20.1093C27.7302 20.1093 27.5933 20.0984 27.4619 20.082H27.451Z" fill="white"/>
<path d="M29.8101 17.4039C29.8101 17.5681 29.7883 17.7488 29.7445 17.9404C29.6076 18.5097 29.0711 18.9258 28.458 18.9258H27.281C26.6678 18.9258 26.1368 18.5207 25.9945 17.9404C25.9507 17.7379 25.9288 17.5627 25.9288 17.4039C25.9288 16.8236 26.1971 16.3857 26.6843 16.1284C26.5803 15.9368 26.5146 15.7178 26.5146 15.4824C26.5091 15.1156 26.6514 14.7762 26.9087 14.5189C27.166 14.2616 27.5054 14.1248 27.8667 14.1248H27.8722C28.6167 14.1248 29.2299 14.7324 29.2299 15.4824C29.2299 15.7123 29.1696 15.9313 29.0602 16.1284C29.5419 16.3857 29.8101 16.8236 29.8101 17.4039ZM14.0713 25.5553C14.0713 25.7195 14.0439 25.9002 14.0001 26.0863C13.8687 26.6556 13.3268 27.0717 12.7191 27.0717H11.5421C10.9235 27.0717 10.398 26.6666 10.2556 26.0863C10.2118 25.8837 10.1899 25.714 10.1899 25.5553C10.1899 24.975 10.4582 24.5316 10.9454 24.2797C10.8359 24.0827 10.7702 23.8637 10.7702 23.6283C10.7698 23.4499 10.8046 23.2731 10.8727 23.1082C10.9408 22.9433 11.0408 22.7935 11.1669 22.6673C11.2931 22.5412 11.4429 22.4412 11.6078 22.3731C11.7727 22.305 11.9495 22.2702 12.1279 22.2706C12.8779 22.2706 13.4855 22.8838 13.4855 23.6338C13.491 23.8637 13.4253 24.0827 13.3158 24.2797C13.803 24.537 14.0713 24.975 14.0713 25.5553ZM13.6826 13.424C13.6826 13.5664 13.6607 13.7251 13.6224 13.8894C13.5019 14.3985 13.0202 14.7653 12.4837 14.7653H11.4709C10.9235 14.7653 10.4527 14.404 10.3268 13.8894C10.2885 13.7142 10.2721 13.5609 10.2721 13.424C10.2721 12.9204 10.4965 12.5372 10.9071 12.3127C10.8196 12.1453 10.7727 11.9597 10.7702 11.7708C10.7702 11.4478 10.8961 11.1467 11.1206 10.9168C11.3503 10.6956 11.6557 10.5703 11.9746 10.5664C12.637 10.5664 13.179 11.1084 13.179 11.7708C13.179 11.9624 13.1297 12.1485 13.0476 12.3127C13.4582 12.5427 13.6826 12.9259 13.6826 13.424ZM28.1843 29.2888C28.1843 29.4311 28.1678 29.5899 28.124 29.7541C28.0036 30.2578 27.5273 30.63 26.9854 30.63H25.9781C25.4306 30.63 24.9598 30.2687 24.8339 29.7541C24.7956 29.5735 24.7792 29.4257 24.7792 29.2888C24.7792 28.7852 25.0036 28.402 25.4087 28.1775C25.3266 28.0133 25.2774 27.8272 25.2774 27.6355C25.2774 27.3126 25.4033 27.0115 25.6277 26.7815C25.8522 26.5571 26.1587 26.4312 26.4762 26.4312H26.4817C27.1441 26.4312 27.6861 26.9731 27.6861 27.6355C27.6861 27.8272 27.6368 28.0078 27.5547 28.1775C27.9598 28.402 28.1843 28.7852 28.1843 29.2888Z" fill="white"/>
</svg>
