<svg width="32" height="32" viewBox="0 0 32 32" fill="none" xmlns="http://www.w3.org/2000/svg">
<rect x="0.669556" y="0.500977" width="31" height="31" rx="15.5" fill="white"/>
<g clip-path="url(#clip0_821_3411)">
<path d="M10.0602 13.6104H11.654V14.1416H12.1852V13.6104C12.1852 13.3174 11.9469 13.0791 11.654 13.0791H10.0602C9.76722 13.0791 9.52896 13.3174 9.52896 13.6104V14.1416H10.0602V13.6104ZM21.4821 13.0791C19.8711 13.0791 18.5602 14.39 18.5602 16.001C18.5602 17.612 19.8711 18.9229 21.4821 18.9229C23.0931 18.9229 24.404 17.612 24.404 16.001C24.404 14.39 23.0931 13.0791 21.4821 13.0791ZM22.279 15.7354H21.7477V15.4697C21.7477 15.3993 21.7197 15.3317 21.6699 15.2819C21.6201 15.2321 21.5525 15.2041 21.4821 15.2041H21.2165V15.4697C21.2165 15.5402 21.2444 15.6077 21.2943 15.6576C21.3441 15.7074 21.4116 15.7354 21.4821 15.7354C21.9214 15.7354 22.279 16.0929 22.279 16.5322V17.3291H21.7477V17.8604H21.2165V17.2802C21.0615 17.2256 20.9273 17.1244 20.8322 16.9905C20.7371 16.8566 20.6857 16.6965 20.6852 16.5322V16.2666H21.2165V16.5322C21.2165 16.6027 21.2444 16.6702 21.2943 16.7201C21.3441 16.7699 21.4116 16.7979 21.4821 16.7979H21.7477V16.5322C21.7477 16.4618 21.7197 16.3942 21.6699 16.3444C21.6201 16.2946 21.5525 16.2666 21.4821 16.2666C21.0427 16.2666 20.6852 15.9091 20.6852 15.4697V14.6729H21.2165V14.1416H21.7477V14.7217C22.0561 14.8317 22.279 15.1239 22.279 15.4697V15.7354ZM10.5915 15.7354V15.2041H11.1227V15.7354H12.3087L13.0171 14.6729H8.69702L9.40544 15.7354H10.5915Z" fill="#185850"/>
<path d="M12.7507 16.0299C12.7023 16.1028 12.6366 16.1625 12.5594 16.2038C12.4823 16.2451 12.3962 16.2667 12.3087 16.2666H11.1227V16.7979H10.5914V16.2666H9.40541C9.22745 16.2666 9.06223 16.1781 8.96341 16.0299L8.46643 15.2846V17.8604H13.2482L13.2477 15.2843L12.7507 16.0299ZM18.0289 10.4229H14.3102V13.0791H15.3727V11.4854H16.9664V13.0791H18.0289V10.4229ZM14.8414 8.29785H14.3102V9.17973L14.8414 8.75473V8.29785Z" fill="#185850"/>
<path d="M15.9044 12.0164H16.4357V13.0789H15.9044V12.0164ZM16.1701 8.37207L14.2711 9.89145H18.069L16.1701 8.37207ZM17.6796 19.0088C17.7347 18.8676 17.7632 18.7175 17.7638 18.566C17.7635 18.238 17.633 17.9236 17.4011 17.6916C17.1692 17.4597 16.8548 17.3293 16.5268 17.3289H15.8133C15.4854 17.3293 15.1709 17.4597 14.939 17.6916C14.7071 17.9236 14.5767 18.238 14.5763 18.566C14.5763 18.72 14.6069 18.869 14.6605 19.0085C14.7138 18.8986 14.7918 18.8025 14.8883 18.7276C14.9848 18.6528 15.0973 18.6012 15.217 18.5769L15.5971 18.5009C15.6837 18.4833 15.7615 18.4364 15.8175 18.368C15.8735 18.2997 15.9042 18.2142 15.9044 18.1258V17.8602H16.4357V18.1258C16.4357 18.3075 16.5648 18.465 16.743 18.5009L17.1234 18.5769C17.2431 18.6013 17.3555 18.653 17.4519 18.7279C17.5484 18.8028 17.6263 18.8989 17.6796 19.0088ZM16.9144 22.4789L17.2674 21.8903L17.0299 21.8563L16.5871 22.1516L16.9144 22.4789Z" fill="#185850"/>
<path d="M17.2324 19.7196V19.3589C17.2324 19.2975 17.2111 19.2381 17.1723 19.1906C17.1334 19.1432 17.0793 19.1106 17.0191 19.0985L16.6385 19.0226C16.4605 18.9868 16.2973 18.8987 16.1697 18.7697C16.0421 18.8989 15.8788 18.987 15.7008 19.0226L15.3205 19.0985C15.2604 19.1107 15.2063 19.1432 15.1675 19.1907C15.1287 19.2381 15.1074 19.2975 15.1074 19.3589V19.7196C15.1077 20.0013 15.2197 20.2715 15.4189 20.4707C15.6181 20.67 15.8882 20.7822 16.1699 20.7826C16.4517 20.7822 16.7218 20.67 16.921 20.4707C17.1201 20.2715 17.2321 20.0013 17.2324 19.7196ZM15.4256 22.4794L15.7529 22.1522L15.3101 21.8568L15.0726 21.8908L15.4256 22.4794ZM17.8282 21.9883L17.0194 23.3361L16.4356 22.7519V23.7045H18.5606V22.9971C18.5595 22.7734 18.4883 22.5557 18.3569 22.3747C18.2255 22.1937 18.0406 22.0585 17.8282 21.9883ZM14.5116 21.9883C14.2993 22.0585 14.1144 22.1937 13.983 22.3747C13.8516 22.5557 13.7803 22.7734 13.7793 22.9971V23.7045H15.9043V22.7519L15.3205 23.3358L14.5116 21.9883ZM16.5801 21.2583C16.4465 21.2947 16.3088 21.3134 16.1705 21.3139H16.1694C16.031 21.3134 15.8933 21.2947 15.7598 21.2583L15.6889 21.4708L16.1699 21.7914L16.6507 21.4708L16.5801 21.2583ZM10.4176 18.7901L9.95802 19.0563C10.5888 20.1461 11.4942 21.0515 12.584 21.6823L12.8501 21.2227C11.8407 20.6383 11.002 19.7996 10.4176 18.7901ZM19.49 21.2225L19.7561 21.682C20.6533 21.161 21.4282 20.4536 22.0286 19.6075L21.5948 19.3009C21.0387 20.0846 20.3209 20.7399 19.49 21.2225ZM22.1887 12.6609L22.6703 12.4356C21.956 10.9105 20.7296 9.68405 19.2044 8.96973L18.9792 9.4513C20.3917 10.1126 21.5274 11.2484 22.1887 12.6609ZM9.66956 12.4356L10.1511 12.6609C10.8124 11.2484 11.9482 10.1126 13.3607 9.4513L13.1354 8.96973C11.6104 9.68412 10.384 10.9105 9.66956 12.4356Z" fill="#185850"/>
</g>
<defs>
<clipPath id="clip0_821_3411">
<rect width="17" height="17" fill="white" transform="translate(7.66956 7.50098)"/>
</clipPath>
</defs>
</svg>
