<svg width="37" height="37" viewBox="0 0 37 37" fill="none" xmlns="http://www.w3.org/2000/svg">
<rect width="37" height="37" rx="18.5" fill="#185850"/>
<g clip-path="url(#clip0_1_7153)">
<path d="M12.3907 16.1094H13.9844V16.6406H14.5157V16.1094C14.5157 15.8164 14.2774 15.5781 13.9844 15.5781H12.3907C12.0977 15.5781 11.8594 15.8164 11.8594 16.1094V16.6406H12.3907V16.1094ZM23.8125 15.5781C22.2015 15.5781 20.8907 16.889 20.8907 18.5C20.8907 20.111 22.2015 21.4219 23.8125 21.4219C25.4235 21.4219 26.7344 20.111 26.7344 18.5C26.7344 16.889 25.4235 15.5781 23.8125 15.5781ZM24.6094 18.2344H24.0782V17.9688C24.0782 17.8983 24.0502 17.8307 24.0004 17.7809C23.9505 17.7311 23.883 17.7031 23.8125 17.7031H23.5469V17.9688C23.5469 18.0392 23.5749 18.1068 23.6247 18.1566C23.6745 18.2064 23.7421 18.2344 23.8125 18.2344C24.2519 18.2344 24.6094 18.5919 24.6094 19.0312V19.8281H24.0782V20.3594H23.5469V19.7793C23.392 19.7246 23.2578 19.6234 23.1626 19.4895C23.0675 19.3556 23.0162 19.1955 23.0157 19.0312V18.7656H23.5469V19.0312C23.5469 19.1017 23.5749 19.1693 23.6247 19.2191C23.6745 19.2689 23.7421 19.2969 23.8125 19.2969H24.0782V19.0312C24.0782 18.9608 24.0502 18.8932 24.0004 18.8434C23.9505 18.7936 23.883 18.7656 23.8125 18.7656C23.3732 18.7656 23.0157 18.4081 23.0157 17.9688V17.1719H23.5469V16.6406H24.0782V17.2207C24.3865 17.3307 24.6094 17.6229 24.6094 17.9688V18.2344ZM12.9219 18.2344V17.7031H13.4532V18.2344H14.6392L15.3476 17.1719H11.0275L11.7359 18.2344H12.9219Z" fill="white"/>
<path d="M15.0811 18.529C15.0327 18.6018 14.967 18.6615 14.8899 18.7028C14.8128 18.7441 14.7266 18.7657 14.6391 18.7656H13.4531V19.2969H12.9219V18.7656H11.7359C11.5579 18.7656 11.3927 18.6772 11.2939 18.529L10.7969 17.7836V20.3594H15.5787L15.5781 17.7833L15.0811 18.529ZM20.3594 12.9219H16.6406V15.5781H17.7031V13.9844H19.2969V15.5781H20.3594V12.9219ZM17.1719 10.7969H16.6406V11.6788L17.1719 11.2537V10.7969Z" fill="white"/>
<path d="M18.2344 14.5155H18.7657V15.578H18.2344V14.5155ZM18.5 10.8711L16.6011 12.3905H20.399L18.5 10.8711ZM20.0096 21.5078C20.0646 21.3666 20.0932 21.2165 20.0938 21.065C20.0934 20.737 19.963 20.4226 19.7311 20.1907C19.4992 19.9588 19.1847 19.8283 18.8568 19.828H18.1433C17.8153 19.8283 17.5009 19.9588 17.269 20.1907C17.0371 20.4226 16.9066 20.737 16.9063 21.065C16.9063 21.219 16.9368 21.3681 16.9905 21.5075C17.0438 21.3976 17.1217 21.3015 17.2183 21.2266C17.3148 21.1518 17.4273 21.1002 17.547 21.0759L17.9271 20.9999C18.0136 20.9823 18.0915 20.9354 18.1475 20.8671C18.2035 20.7987 18.2342 20.7132 18.2344 20.6248V20.3592H18.7657V20.6248C18.7657 20.8065 18.8947 20.964 19.073 20.9999L19.4534 21.0759C19.573 21.1003 19.6854 21.152 19.7819 21.2269C19.8783 21.3018 19.9562 21.3979 20.0096 21.5078ZM19.2443 24.9779L19.5973 24.3893L19.3599 24.3553L18.9171 24.6507L19.2443 24.9779Z" fill="white"/>
<path d="M19.5624 22.2186V21.8579C19.5624 21.7965 19.5411 21.7371 19.5022 21.6896C19.4633 21.6422 19.4092 21.6096 19.3491 21.5976L18.9684 21.5216C18.7905 21.4858 18.6273 21.3978 18.4996 21.2687C18.3721 21.3979 18.2088 21.486 18.0308 21.5216L17.6504 21.5976C17.5903 21.6097 17.5363 21.6423 17.4974 21.6897C17.4586 21.7371 17.4374 21.7966 17.4374 21.8579V22.2186C17.4377 22.5003 17.5497 22.7705 17.7489 22.9698C17.948 23.1691 18.2181 23.2812 18.4999 23.2816C18.7816 23.2812 19.0517 23.1691 19.2509 22.9698C19.4501 22.7705 19.5621 22.5003 19.5624 22.2186ZM17.7556 24.9784L18.0829 24.6512L17.6401 24.3558L17.4026 24.3898L17.7556 24.9784ZM20.1582 24.4873L19.3494 25.8351L18.7655 25.251V26.2035H20.8905V25.4961C20.8895 25.2725 20.8182 25.0548 20.6868 24.8738C20.5555 24.6927 20.3705 24.5576 20.1582 24.4873ZM16.8416 24.4873C16.6292 24.5576 16.4443 24.6927 16.3129 24.8738C16.1815 25.0548 16.1103 25.2725 16.1093 25.4961V26.2035H18.2343V25.251L17.6504 25.8348L16.8416 24.4873ZM18.91 23.7574C18.7765 23.7937 18.6388 23.8124 18.5004 23.8129H18.4994C18.361 23.8124 18.2233 23.7937 18.0898 23.7574L18.0188 23.9699L18.4999 24.2905L18.9807 23.9699L18.91 23.7574ZM12.7475 21.2892L12.288 21.5553C12.9188 22.6451 13.8242 23.5505 14.9139 24.1813L15.1801 23.7218C14.1707 23.1373 13.332 22.2986 12.7475 21.2892ZM21.8199 23.7215L22.0861 24.181C22.9833 23.6601 23.7582 22.9526 24.3585 22.1065L23.9247 21.8C23.3687 22.5836 22.6509 23.2389 21.8199 23.7215ZM24.5187 15.1599L25.0003 14.9346C24.2859 13.4095 23.0595 12.1831 21.5344 11.4688L21.3091 11.9503C22.7216 12.6116 23.8574 13.7474 24.5187 15.1599ZM11.9995 14.9346L12.4811 15.1599C13.1424 13.7474 14.2782 12.6116 15.6906 11.9503L15.4654 11.4688C13.9403 12.1831 12.7139 13.4095 11.9995 14.9346Z" fill="white"/>
</g>
<defs>
<clipPath id="clip0_1_7153">
<rect width="17" height="17" fill="white" transform="translate(10 10)"/>
</clipPath>
</defs>
</svg>
