<svg width="59" height="59" viewBox="0 0 59 59" fill="none" xmlns="http://www.w3.org/2000/svg">
<rect width="59" height="59" rx="29.5" fill="#2D945C"/>
<path d="M39.2077 16.5745L28.9502 24.962L27.2865 23.532L30.6965 21.5657C30.8786 21.4605 31.0343 21.3149 31.1513 21.1401C31.2684 20.9653 31.3437 20.7659 31.3716 20.5574C31.3995 20.3488 31.3792 20.1367 31.3122 19.9372C31.2452 19.7378 31.1333 19.5564 30.9852 19.407L26.929 15.3507C26.6719 15.0937 26.3232 14.9492 25.9596 14.9492C25.596 14.9492 25.2473 15.0937 24.9902 15.3507C24.7331 15.6078 24.5887 15.9565 24.5887 16.3201C24.5887 16.6837 24.7331 17.0324 24.9902 17.2895L27.7815 20.0807L20.3565 24.357C20.0448 24.5375 19.8174 24.8342 19.724 25.182L18.404 29.9807C18.3077 30.3382 18.349 30.7095 18.5415 31.0395L20.934 35.192C21.319 35.852 22.1577 36.072 22.8177 35.7007C23.4777 35.3157 23.6977 34.477 23.3265 33.817L21.2227 30.1595L21.7177 28.3857L26.0627 30.8745L26.6677 41.8745C26.709 42.6445 27.3415 43.2495 28.1115 43.2495C28.8815 43.2495 29.514 42.6445 29.5552 41.8745L30.174 29.4995L40.9952 18.5545C41.2322 18.3112 41.3677 17.9868 41.3741 17.6473C41.3806 17.3077 41.2575 16.9784 41.0299 16.7263C40.8023 16.4742 40.4873 16.3182 40.1488 16.29C39.8104 16.2618 39.4739 16.3635 39.2077 16.5745Z" fill="white"/>
<path d="M19.875 22.625C21.3938 22.625 22.625 21.3938 22.625 19.875C22.625 18.3562 21.3938 17.125 19.875 17.125C18.3562 17.125 17.125 18.3562 17.125 19.875C17.125 21.3938 18.3562 22.625 19.875 22.625Z" fill="white"/>
</svg>
