<svg width="59" height="59" viewBox="0 0 59 59" fill="none" xmlns="http://www.w3.org/2000/svg">
<rect width="59" height="59" rx="29.5" fill="#2D945C"/>
<path fill-rule="evenodd" clip-rule="evenodd" d="M41.4585 36.1047V32.8438H36.7657C36.3642 32.8438 36.1644 32.8438 35.9952 32.8605C35.2099 32.937 34.4759 33.2773 33.9178 33.8236C33.3598 34.3699 33.0121 35.0885 32.9339 35.8572C32.9168 36.0228 32.9168 36.2184 32.9168 36.6098C32.9168 37.078 32.9168 37.3121 32.9373 37.4978C33.0365 38.3648 33.4778 39.1596 34.1672 39.7125C34.8566 40.2655 35.7394 40.5329 36.6273 40.4577C36.8152 40.441 37.051 40.3958 37.5191 40.3039L38.0247 40.2035C38.6739 40.0781 39.0002 40.0146 39.2752 39.9109C39.8254 39.7025 40.3111 39.3583 40.685 38.9117C41.0589 38.465 41.3083 37.9313 41.409 37.3623C41.4585 37.078 41.4585 36.7536 41.4585 36.1047ZM24.3752 39.4493V36.1883H19.6807C19.2809 36.1883 19.081 36.1883 18.9119 36.2051C18.1266 36.2816 17.3925 36.6219 16.8345 37.1682C16.2764 37.7145 15.9288 38.4331 15.8506 39.2018C15.8335 39.3674 15.8335 39.563 15.8335 39.9544C15.8335 40.4226 15.8335 40.6567 15.854 40.8423C15.9532 41.7094 16.3945 42.5042 17.0839 43.0571C17.7732 43.6101 18.6561 43.8775 19.544 43.8023C19.7319 43.7856 19.9677 43.7404 20.4357 43.6485L20.9414 43.5481C21.5906 43.4227 21.9169 43.3592 22.1902 43.2555C22.7407 43.0473 23.2267 42.7032 23.6009 42.2566C23.9751 41.8099 24.2248 41.276 24.3256 40.7069C24.3752 40.4226 24.3752 40.0965 24.3752 39.4493Z" fill="white"/>
<path d="M24.7375 36.2215V28.2568M24.7375 36.2215V39.3277M24.7375 36.2215H20.1853C19.7977 36.2215 19.6038 36.2215 19.4398 36.2374C18.6783 36.3103 17.9665 36.6345 17.4254 37.1548C16.8842 37.6752 16.5471 38.3597 16.4713 39.0919M24.7375 28.2568L41.3032 25.0709M24.7375 28.2568V25.5169M24.7375 39.3277V25.5169M24.7375 39.3277C24.7375 39.9474 24.7375 40.2548 24.6878 40.5256M24.7375 39.3277C24.7375 39.9442 24.7375 40.2548 24.6878 40.5256M41.3032 33.0356V25.0709M41.3032 33.0356V36.1418C41.3032 36.7615 41.3032 37.0689 41.2535 37.3397M41.3032 33.0356H36.7526C36.365 33.0356 36.1695 33.0356 36.0055 33.0515C35.244 33.1244 34.5322 33.4486 33.991 33.969M41.3032 25.0709V24.8798M24.7375 25.5169C24.7375 23.016 24.7375 21.7656 25.488 20.8847C26.24 20.0038 27.5139 19.7585 30.0651 19.2678L33.3782 18.6307C37.0442 17.925 38.878 17.573 40.0906 18.5287C41.3032 19.4845 41.3032 21.2829 41.3032 24.8782M41.3032 36.1434C41.3032 36.7599 41.3032 37.0689 41.2535 37.3397M41.2535 37.3397C41.156 37.8815 40.9144 38.3898 40.5522 38.8152C40.1899 39.2407 39.7193 39.5687 39.1861 39.7674C38.9194 39.8661 38.6046 39.9266 37.9735 40.0477L37.4832 40.1433C37.0293 40.2293 36.8023 40.2739 36.6168 40.2882C35.756 40.3595 34.9004 40.1045 34.2323 39.5778C33.5642 39.0511 33.1364 38.2943 33.0402 37.4687C33.0204 37.2935 33.0204 37.0705 33.0204 36.6245M33.0204 36.6245C33.0204 36.2501 33.0204 36.0638 33.0369 35.9061C33.1128 35.1738 33.4499 34.4893 33.991 33.969M33.0204 36.6245C33.0204 36.2501 33.0204 36.0638 33.0369 35.9077C33.1124 35.1751 33.4498 34.4897 33.991 33.969M24.6878 40.5256C24.5902 41.0676 24.3484 41.576 23.9858 42.0014C23.6232 42.4268 23.1523 42.7548 22.6188 42.9532M22.6188 42.9532C22.3537 43.052 22.039 43.1125 21.4095 43.2336M22.6188 42.9532C22.3537 43.052 22.039 43.1109 21.4095 43.232L20.9175 43.3276C20.4636 43.4136 20.2367 43.4582 20.0511 43.4725C19.1904 43.5437 18.3347 43.2888 17.6666 42.7621M17.6666 42.7621C16.9985 42.2354 16.5708 41.4786 16.4746 40.653C16.4547 40.4794 16.4547 40.2564 16.4547 39.8104M17.6666 42.7621C16.9985 42.2354 16.5708 41.4802 16.4746 40.6546C16.4547 40.4794 16.4547 40.2564 16.4547 39.8104M16.4547 39.8104C16.4547 39.436 16.4547 39.2496 16.4713 39.0919M16.4547 39.8104C16.4547 39.436 16.4547 39.2481 16.4713 39.0919" stroke="white" stroke-width="2.75"/>
</svg>
