<svg width="34" height="34" viewBox="0 0 34 34" fill="none" xmlns="http://www.w3.org/2000/svg">
<g id="Frame">
<g id="Group">
<path id="Vector" d="M17 31C24.732 31 31 24.732 31 17C31 9.26801 24.732 3 17 3C9.26801 3 3 9.26801 3 17C3 24.732 9.26801 31 17 31Z" fill="#555A6E"/>
<path id="Vector_2" d="M16.9998 28.2008C23.1854 28.2008 28.1998 23.1864 28.1998 17.0008C28.1998 10.8152 23.1854 5.80078 16.9998 5.80078C10.8142 5.80078 5.7998 10.8152 5.7998 17.0008C5.7998 23.1864 10.8142 28.2008 16.9998 28.2008Z" fill="#463C4B"/>
<path id="Vector_3" d="M16.0667 28.2008H18.8667V5.80078H16.0667C9.88109 5.80078 4.8667 10.8152 4.8667 17.0008C4.8667 23.1864 9.88109 28.2008 16.0667 28.2008Z" fill="#A5C3DC"/>
<path id="Vector_4" d="M16.0665 27.2658H18.8665V6.73242H16.0665C10.3964 6.73242 5.7998 11.329 5.7998 16.9991C5.7998 22.6692 10.3964 27.2658 16.0665 27.2658Z" fill="#D7E6F0"/>
<path id="Vector_5" d="M7.66647 18.8661C8.6974 18.8661 9.53314 18.0304 9.53314 16.9995C9.53314 15.9685 8.6974 15.1328 7.66647 15.1328C6.63554 15.1328 5.7998 15.9685 5.7998 16.9995C5.7998 18.0304 6.63554 18.8661 7.66647 18.8661Z" fill="#FFD205"/>
<path id="Vector_6" d="M8.60007 17.0009C9.631 17.0009 10.4667 16.1652 10.4667 15.1342C10.4667 14.1033 9.631 13.2676 8.60007 13.2676C7.56913 13.2676 6.7334 14.1033 6.7334 15.1342C6.7334 16.1652 7.56913 17.0009 8.60007 17.0009Z" fill="#FFD205"/>
<path id="Vector_7" d="M9.53317 15.1337C10.5641 15.1337 11.3998 14.298 11.3998 13.2671C11.3998 12.2361 10.5641 11.4004 9.53317 11.4004C8.50224 11.4004 7.6665 12.2361 7.6665 13.2671C7.6665 14.298 8.50224 15.1337 9.53317 15.1337Z" fill="#FAA019"/>
<path id="Vector_8" d="M10.4668 13.2667C11.4977 13.2667 12.3334 12.4309 12.3334 11.4C12.3334 10.3691 11.4977 9.53333 10.4668 9.53333C9.43583 9.53333 8.6001 10.3691 8.6001 11.4C8.6001 12.4309 9.43583 13.2667 10.4668 13.2667Z" fill="#FFD205"/>
<path id="Vector_9" d="M8.60007 20.7333C9.631 20.7333 10.4667 19.8976 10.4667 18.8667C10.4667 17.8357 9.631 17 8.60007 17C7.56913 17 6.7334 17.8357 6.7334 18.8667C6.7334 19.8976 7.56913 20.7333 8.60007 20.7333Z" fill="#FAA019"/>
<path id="Vector_10" d="M9.53317 22.6005C10.5641 22.6005 11.3998 21.7648 11.3998 20.7339C11.3998 19.7029 10.5641 18.8672 9.53317 18.8672C8.50224 18.8672 7.6665 19.7029 7.6665 20.7339C7.6665 21.7648 8.50224 22.6005 9.53317 22.6005Z" fill="#FFD205"/>
<path id="Vector_11" d="M10.4668 24.4658C11.4977 24.4658 12.3334 23.63 12.3334 22.5991C12.3334 21.5682 11.4977 20.7324 10.4668 20.7324C9.43583 20.7324 8.6001 21.5682 8.6001 22.5991C8.6001 23.63 9.43583 24.4658 10.4668 24.4658Z" fill="#FAA019"/>
<path id="Vector_12" d="M18.8665 28.2008C19.382 28.2008 19.7998 27.7829 19.7998 27.2674V6.73411C19.7998 6.21862 19.382 5.80078 18.8665 5.80078C12.6809 5.80078 7.6665 10.8152 7.6665 17.0008C7.6665 23.1864 12.6809 28.2008 18.8665 28.2008Z" fill="#F57828"/>
<path id="Vector_13" d="M17.4496 11.9833C17.8792 11.9833 18.2274 11.635 18.2274 11.2055C18.2274 10.7759 17.8792 10.4277 17.4496 10.4277C17.0201 10.4277 16.6719 10.7759 16.6719 11.2055C16.6719 11.635 17.0201 11.9833 17.4496 11.9833Z" fill="#FAA019"/>
<path id="Vector_14" d="M16.5942 12.7616C16.723 12.7616 16.8275 12.6571 16.8275 12.5283C16.8275 12.3994 16.723 12.2949 16.5942 12.2949C16.4653 12.2949 16.3608 12.3994 16.3608 12.5283C16.3608 12.6571 16.4653 12.7616 16.5942 12.7616Z" fill="#FAA019"/>
<path id="Vector_15" d="M15.9887 23.3768C16.1176 23.3768 16.222 23.2724 16.222 23.1435C16.222 23.0146 16.1176 22.9102 15.9887 22.9102C15.8598 22.9102 15.7554 23.0146 15.7554 23.1435C15.7554 23.2724 15.8598 23.3768 15.9887 23.3768Z" fill="#FAA019"/>
<path id="Vector_16" d="M11.789 22.1327C11.9179 22.1327 12.0223 22.0282 12.0223 21.8993C12.0223 21.7705 11.9179 21.666 11.789 21.666C11.6601 21.666 11.5557 21.7705 11.5557 21.8993C11.5557 22.0282 11.6601 22.1327 11.789 22.1327Z" fill="#FAA019"/>
<path id="Vector_17" d="M17.8554 26.0214C17.9843 26.0214 18.0887 25.9169 18.0887 25.788C18.0887 25.6592 17.9843 25.5547 17.8554 25.5547C17.7265 25.5547 17.6221 25.6592 17.6221 25.788C17.6221 25.9169 17.7265 26.0214 17.8554 26.0214Z" fill="#FAA019"/>
<path id="Vector_18" d="M16.1445 9.99999C16.2733 9.99999 16.3778 9.89552 16.3778 9.76666C16.3778 9.63779 16.2733 9.53333 16.1445 9.53333C16.0156 9.53333 15.9111 9.63779 15.9111 9.76666C15.9111 9.89552 16.0156 9.99999 16.1445 9.99999Z" fill="#FAA019"/>
<path id="Vector_19" d="M12.0223 13.4216C12.2801 13.4216 12.489 13.2127 12.489 12.9549C12.489 12.6972 12.2801 12.4883 12.0223 12.4883C11.7646 12.4883 11.5557 12.6972 11.5557 12.9549C11.5557 13.2127 11.7646 13.4216 12.0223 13.4216Z" fill="#FAA019"/>
<path id="Vector_20" d="M17.7611 15.0953C18.0188 15.0953 18.2278 14.8864 18.2278 14.6287C18.2278 14.3709 18.0188 14.162 17.7611 14.162C17.5034 14.162 17.2944 14.3709 17.2944 14.6287C17.2944 14.8864 17.5034 15.0953 17.7611 15.0953Z" fill="#FAA019"/>
<path id="Vector_21" d="M12.0223 21.0444C12.2801 21.0444 12.489 20.8355 12.489 20.5778C12.489 20.32 12.2801 20.1111 12.0223 20.1111C11.7646 20.1111 11.5557 20.32 11.5557 20.5778C11.5557 20.8355 11.7646 21.0444 12.0223 21.0444Z" fill="#FAA019"/>
<path id="Vector_22" d="M24.4665 21.6673C27.0438 21.6673 29.1331 19.578 29.1331 17.0007C29.1331 14.4233 27.0438 12.334 24.4665 12.334C21.8891 12.334 19.7998 14.4233 19.7998 17.0007C19.7998 19.578 21.8891 21.6673 24.4665 21.6673Z" fill="#A5C3DC"/>
<path id="Vector_23" d="M24.4667 20.7342C26.5286 20.7342 28.2001 19.0628 28.2001 17.0009C28.2001 14.939 26.5286 13.2676 24.4667 13.2676C22.4049 13.2676 20.7334 14.939 20.7334 17.0009C20.7334 19.0628 22.4049 20.7342 24.4667 20.7342Z" fill="#F28A39"/>
<path id="Vector_24" d="M23.0667 19.3342C23.0667 17.2724 24.7382 15.6009 26.8001 15.6009C27.2087 15.6008 27.6145 15.6679 28.0014 15.7996C27.5011 14.3273 26.1081 13.2676 24.4667 13.2676C22.4049 13.2676 20.7334 14.9391 20.7334 17.0009C20.7334 18.6424 21.7931 20.0353 23.2654 20.5356C23.1338 20.1487 23.0666 19.7429 23.0667 19.3342Z" fill="#D26E28"/>
<path id="Vector_25" d="M20.2665 17.4673C20.1427 17.4673 20.024 17.4182 19.9365 17.3306C19.849 17.2431 19.7998 17.1244 19.7998 17.0007C19.7998 14.4275 21.8933 12.334 24.4665 12.334C24.5902 12.334 24.7089 12.3832 24.7965 12.4707C24.884 12.5582 24.9331 12.6769 24.9331 12.8007C24.9331 12.9244 24.884 13.0431 24.7965 13.1306C24.7089 13.2182 24.5902 13.2673 24.4665 13.2673C22.4079 13.2673 20.7331 14.9421 20.7331 17.0007C20.7331 17.1244 20.684 17.2431 20.5965 17.3306C20.5089 17.4182 20.3902 17.4673 20.2665 17.4673Z" fill="#D7E6F0"/>
<path id="Vector_26" d="M26.5667 17.4664C26.9533 17.4664 27.2667 17.153 27.2667 16.7664C27.2667 16.3798 26.9533 16.0664 26.5667 16.0664C26.1801 16.0664 25.8667 16.3798 25.8667 16.7664C25.8667 17.153 26.1801 17.4664 26.5667 17.4664Z" fill="#D26E28"/>
<path id="Vector_27" d="M22.8333 16.9996C23.2199 16.9996 23.5333 16.6862 23.5333 16.2996C23.5333 15.913 23.2199 15.5996 22.8333 15.5996C22.4467 15.5996 22.1333 15.913 22.1333 16.2996C22.1333 16.6862 22.4467 16.9996 22.8333 16.9996Z" fill="#A55023"/>
<path id="Vector_28" d="M25.1664 19.8007C25.2953 19.8007 25.3998 19.6962 25.3998 19.5673C25.3998 19.4385 25.2953 19.334 25.1664 19.334C25.0376 19.334 24.9331 19.4385 24.9331 19.5673C24.9331 19.6962 25.0376 19.8007 25.1664 19.8007Z" fill="#D26E28"/>
<path id="Vector_29" d="M25.1664 14.1991C25.2953 14.1991 25.3998 14.0946 25.3998 13.9658C25.3998 13.8369 25.2953 13.7324 25.1664 13.7324C25.0376 13.7324 24.9331 13.8369 24.9331 13.9658C24.9331 14.0946 25.0376 14.1991 25.1664 14.1991Z" fill="#A55023"/>
<path id="Vector_30" d="M23.0665 28.1993C24.8706 28.1993 26.3331 26.7368 26.3331 24.9327C26.3331 23.1286 24.8706 21.666 23.0665 21.666C21.2623 21.666 19.7998 23.1286 19.7998 24.9327C19.7998 26.7368 21.2623 28.1993 23.0665 28.1993Z" fill="#A5C3DC"/>
<path id="Vector_31" d="M20.2665 25.3993C20.1427 25.3993 20.024 25.3502 19.9365 25.2627C19.849 25.1751 19.7998 25.0564 19.7998 24.9327C19.7998 23.1314 21.2652 21.666 23.0665 21.666C23.1902 21.666 23.3089 21.7152 23.3965 21.8027C23.484 21.8902 23.5331 22.0089 23.5331 22.1327C23.5331 22.2564 23.484 22.3751 23.3965 22.4627C23.3089 22.5502 23.1902 22.5993 23.0665 22.5993C21.7799 22.5993 20.7331 23.6461 20.7331 24.9327C20.7331 25.0564 20.684 25.1751 20.5965 25.2627C20.5089 25.3502 20.3902 25.3993 20.2665 25.3993Z" fill="#D7E6F0"/>
<path id="Vector_32" d="M23.0667 27.2663C24.3554 27.2663 25.4001 26.2216 25.4001 24.9329C25.4001 23.6443 24.3554 22.5996 23.0667 22.5996C21.7781 22.5996 20.7334 23.6443 20.7334 24.9329C20.7334 26.2216 21.7781 27.2663 23.0667 27.2663Z" fill="#FFD23C"/>
<path id="Vector_33" d="M22.1334 26.3329C22.1334 25.0442 23.1781 23.9996 24.4667 23.9996C24.7457 23.9996 25.0131 24.0487 25.2611 24.1386C24.9361 23.241 24.0764 22.5996 23.0667 22.5996C21.7781 22.5996 20.7334 23.6442 20.7334 24.9329C20.7334 25.9426 21.3748 26.8024 22.2723 27.1273C22.1802 26.8726 22.1331 26.6038 22.1334 26.3329Z" fill="#FAA019"/>
<path id="Vector_34" d="M23.0665 12.3341C24.8706 12.3341 26.3331 10.8716 26.3331 9.06745C26.3331 7.26332 24.8706 5.80078 23.0665 5.80078C21.2623 5.80078 19.7998 7.26332 19.7998 9.06745C19.7998 10.8716 21.2623 12.3341 23.0665 12.3341Z" fill="#A5C3DC"/>
<path id="Vector_35" d="M20.2665 9.53411C20.1427 9.53411 20.024 9.48495 19.9365 9.39743C19.849 9.30991 19.7998 9.19122 19.7998 9.06745C19.7998 7.26617 21.2652 5.80078 23.0665 5.80078C23.1902 5.80078 23.3089 5.84995 23.3965 5.93746C23.484 6.02498 23.5331 6.14368 23.5331 6.26745C23.5331 6.39122 23.484 6.50991 23.3965 6.59743C23.3089 6.68495 23.1902 6.73411 23.0665 6.73411C21.7799 6.73411 20.7331 7.78085 20.7331 9.06745C20.7331 9.19122 20.684 9.30991 20.5965 9.39743C20.5089 9.48495 20.3902 9.53411 20.2665 9.53411Z" fill="#D7E6F0"/>
<path id="Vector_36" d="M23.0667 11.3991C24.3554 11.3991 25.4001 10.3544 25.4001 9.06576C25.4001 7.77709 24.3554 6.73242 23.0667 6.73242C21.7781 6.73242 20.7334 7.77709 20.7334 9.06576C20.7334 10.3544 21.7781 11.3991 23.0667 11.3991Z" fill="#F04B37"/>
<path id="Vector_37" d="M22.1334 10.4658C22.1334 9.17706 23.1781 8.13242 24.4667 8.13242C24.7457 8.13242 25.0131 8.18154 25.2611 8.27137C24.9361 7.3738 24.0764 6.73242 23.0667 6.73242C21.7781 6.73242 20.7334 7.77706 20.7334 9.06576C20.7334 10.0754 21.3748 10.9352 22.2723 11.2601C22.1802 11.0054 22.1331 10.7366 22.1334 10.4658Z" fill="#E1322D"/>
</g>
</g>
</svg>
