<svg width="37" height="37" viewBox="0 0 37 37" fill="none" xmlns="http://www.w3.org/2000/svg">
<rect width="37" height="37" rx="18.5" fill="#185850"/>
<g clip-path="url(#clip0_1_7182)">
<path d="M23.663 19.3037C23.6167 19.2575 23.58 19.2026 23.5549 19.1422C23.5299 19.0818 23.5171 19.017 23.5171 18.9516L23.5171 18.7698C23.5171 18.3513 23.6801 17.9579 23.976 17.662C24.2718 17.3661 24.6653 17.2031 25.0837 17.2032L25.2654 17.2031C25.3975 17.2031 25.5242 17.2556 25.6176 17.349C25.711 17.4424 25.7635 17.5691 25.7635 17.7012V17.883C25.7635 18.3015 25.6006 18.6949 25.3047 18.9908C25.0088 19.2867 24.6154 19.4496 24.1969 19.4496H24.0152C23.9498 19.4497 23.885 19.4369 23.8245 19.4118C23.7641 19.3868 23.7092 19.35 23.663 19.3037Z" fill="white"/>
<path d="M25.7818 19.8967C25.3317 20.2525 24.7793 20.4462 24.1968 20.4462H24.0149C23.6158 20.4462 23.2406 20.2907 22.9584 20.0086C22.6763 19.7265 22.5209 19.3513 22.5208 18.9523L22.5208 18.7704C22.5208 18.6312 22.5323 18.4938 22.554 18.359C22.3803 18.1781 22.1736 18.0322 21.9449 17.9292C21.6939 17.8163 21.3992 17.9281 21.2864 18.179C21.1735 18.4298 21.2853 18.7247 21.5362 18.8375C21.8372 18.973 22.0457 19.2518 22.0961 19.5717C21.275 19.2743 20.3903 19.333 19.6654 19.7469C18.6596 20.3211 18.0971 21.432 18.2324 22.577C18.2344 22.5937 18.2372 22.6103 18.2409 22.6267C18.5715 24.112 19.3459 25.4331 20.4805 26.4471L20.6975 26.641C20.9646 26.8797 21.2991 27 21.6344 27C21.9442 27 22.2546 26.8973 22.5131 26.6906L22.606 26.6162L22.7018 26.6925C22.9612 26.9 23.2858 27.0087 23.6178 26.9993C23.9499 26.9898 24.2678 26.8629 24.515 26.641L24.732 26.4471C25.8665 25.4331 26.6409 24.1121 26.9716 22.6268C26.9752 22.6103 26.978 22.5937 26.98 22.577C27.1045 21.5239 26.6391 20.5012 25.7818 19.8967ZM18.7988 13.6523H12.8223C12.7452 13.6523 12.6691 13.6344 12.6001 13.6001C12.5312 13.5657 12.4711 13.5157 12.4247 13.4542C12.3782 13.3927 12.3467 13.3212 12.3326 13.2454C12.3185 13.1696 12.3222 13.0916 12.3434 13.0175C12.4537 12.6298 12.663 12.2775 12.9508 11.9953C13.2385 11.713 13.5947 11.5105 13.9844 11.4076V10.498C13.9844 10.223 14.2074 10 14.4824 10H17.1387C17.4137 10 17.6367 10.223 17.6367 10.498V11.4076C18.0264 11.5105 18.3826 11.713 18.6703 11.9953C18.958 12.2776 19.1674 12.6298 19.2777 13.0175C19.2989 13.0916 19.3026 13.1696 19.2885 13.2454C19.2744 13.3212 19.2428 13.3927 19.1964 13.4542C19.15 13.5157 19.0899 13.5657 19.0209 13.6001C18.9519 13.6344 18.8759 13.6523 18.7988 13.6523Z" fill="white"/>
<path d="M21.123 12.3223H20.0833C20.1431 12.4581 20.1942 12.5985 20.2355 12.7431C20.3635 13.1913 20.2724 13.6811 19.9917 14.0533C19.7109 14.4256 19.265 14.6477 18.7988 14.6477H12.8223C12.3561 14.6477 11.9102 14.4256 11.6294 14.0534C11.3487 13.6811 11.2576 13.1913 11.3856 12.7431C11.4267 12.5995 11.4776 12.4589 11.5378 12.3223H10.498C10.223 12.3223 10 12.5453 10 12.8203V26.5C10 26.7751 10.223 26.998 10.498 26.998H19.6106C18.4321 25.8716 17.6245 24.4407 17.2687 22.8425C17.2578 22.7933 17.2493 22.7436 17.2434 22.6935C17.061 21.1503 17.818 19.654 19.1717 18.8811C19.5058 18.6905 19.8697 18.5534 20.2487 18.4729C20.234 18.2342 20.2772 17.9939 20.3781 17.7696C20.6024 17.271 21.082 16.9368 21.6211 16.8934V12.8203C21.6211 12.5453 21.3981 12.3223 21.123 12.3223ZM16.4746 24.2754H12.4902C12.2152 24.2754 11.9922 24.0524 11.9922 23.7773C11.9922 23.5023 12.2152 23.2793 12.4902 23.2793H16.4746C16.7497 23.2793 16.9727 23.5023 16.9727 23.7773C16.9727 24.0524 16.7497 24.2754 16.4746 24.2754ZM16.4746 22.2832H12.4902C12.2152 22.2832 11.9922 22.0602 11.9922 21.7852C11.9922 21.5101 12.2152 21.2871 12.4902 21.2871H16.4746C16.7497 21.2871 16.9727 21.5101 16.9727 21.7852C16.9727 22.0602 16.7497 22.2832 16.4746 22.2832ZM16.4746 20.291H12.4902C12.2152 20.291 11.9922 20.068 11.9922 19.793C11.9922 19.5179 12.2152 19.2949 12.4902 19.2949H16.4746C16.7497 19.2949 16.9727 19.5179 16.9727 19.793C16.9727 20.068 16.7497 20.291 16.4746 20.291ZM16.4746 18.2988H12.4902C12.2152 18.2988 11.9922 18.0758 11.9922 17.8008C11.9922 17.5257 12.2152 17.3027 12.4902 17.3027H16.4746C16.7497 17.3027 16.9727 17.5257 16.9727 17.8008C16.9727 18.0758 16.7497 18.2988 16.4746 18.2988ZM16.4746 16.3066H12.4902C12.2152 16.3066 11.9922 16.0836 11.9922 15.8086C11.9922 15.5335 12.2152 15.3105 12.4902 15.3105H16.4746C16.7497 15.3105 16.9727 15.5335 16.9727 15.8086C16.9727 16.0836 16.7497 16.3066 16.4746 16.3066ZM19.1309 18.2988H18.4668C18.1917 18.2988 17.9688 18.0758 17.9688 17.8008C17.9688 17.5257 18.1917 17.3027 18.4668 17.3027H19.1309C19.4059 17.3027 19.6289 17.5257 19.6289 17.8008C19.6289 18.0758 19.4059 18.2988 19.1309 18.2988ZM19.1309 16.3066H18.4668C18.1917 16.3066 17.9688 16.0836 17.9688 15.8086C17.9688 15.5335 18.1917 15.3105 18.4668 15.3105H19.1309C19.4059 15.3105 19.6289 15.5335 19.6289 15.8086C19.6289 16.0836 19.4059 16.3066 19.1309 16.3066Z" fill="white"/>
</g>
<defs>
<clipPath id="clip0_1_7182">
<rect width="17" height="17" fill="white" transform="translate(10 10)"/>
</clipPath>
</defs>
</svg>
