<svg width="32" height="32" viewBox="0 0 32 32" fill="none" xmlns="http://www.w3.org/2000/svg">
<rect x="0.669556" y="0.500977" width="31" height="31" rx="15.5" fill="white"/>
<g clip-path="url(#clip0_821_3451)">
<path d="M10.9928 10.4418C11.1569 10.5341 12.2614 11.0678 12.7951 11.3247C12.7972 11.5319 12.8017 11.89 12.8088 11.8961C12.8676 12.409 12.9686 12.9788 12.9978 13.1397C12.9493 13.1666 12.6999 13.3297 12.6999 13.8369L12.7006 13.8453C12.7002 13.8586 12.6999 13.872 12.6999 13.8858C12.8072 15.2956 13.3679 14.688 13.4835 15.3055C13.6759 16.3323 14.585 17.0751 15.1508 17.3315C15.4779 17.4797 15.8145 17.5553 16.1682 17.5625C16.522 17.5553 16.8586 17.4797 17.1856 17.3315C17.7515 17.0751 18.6606 16.3322 18.8529 15.3055C18.9685 14.688 19.5292 15.2956 19.6366 13.8858C19.6366 13.872 19.6362 13.8586 19.6359 13.8453L19.6366 13.8369C19.6366 13.3297 19.3872 13.1666 19.3387 13.1397C19.3679 12.9788 19.4689 12.409 19.5277 11.8961C19.5347 11.89 19.5393 11.5319 19.5414 11.3247C19.9237 11.1408 20.3055 10.9558 20.6868 10.77V12.1328C20.5793 12.1962 20.5037 12.3083 20.5037 12.4418C20.5037 12.5601 20.5637 12.6603 20.6512 12.7265C20.6512 12.7265 20.4956 13.6007 20.4454 13.8578C20.3951 14.1148 21.3322 14.0633 21.2901 13.8578C21.2479 13.6522 21.0844 12.7265 21.0844 12.7265C21.1719 12.6603 21.2319 12.5601 21.2319 12.4418C21.2319 12.3082 21.1566 12.1963 21.0491 12.1328V10.5919C21.1934 10.5203 21.3008 10.4659 21.3437 10.4418C21.4598 10.3765 21.5223 10.2929 21.5091 10.206C21.525 10.1155 21.4595 10.0181 21.2838 9.93209C20.0297 9.3182 16.8324 7.75354 16.5163 7.60274C16.3783 7.53696 16.2648 7.5079 16.1682 7.50098C16.0717 7.5079 15.9581 7.53696 15.8202 7.60274C15.5041 7.75354 12.3068 9.31824 11.0527 9.93209C10.8769 10.0181 10.8115 10.1155 10.8274 10.206C10.8141 10.2929 10.8767 10.3765 10.9928 10.4418ZM20.4247 19.26C19.8347 19.0473 18.8077 18.434 18.6317 18.3394C18.5847 18.3119 18.5312 18.2974 18.4768 18.2974C18.4182 18.2974 18.3608 18.3141 18.3114 18.3455C18.262 18.3769 18.2225 18.4217 18.1976 18.4747C17.7111 19.2891 16.8092 21.6572 16.1799 21.7012C16.1761 21.7009 16.1721 21.7001 16.1682 21.6997C16.1643 21.7001 16.1604 21.7009 16.1565 21.7012C15.5273 21.6572 14.6254 19.2891 14.1389 18.4747C14.114 18.4217 14.0745 18.3769 14.0251 18.3455C13.9756 18.3141 13.9183 18.2974 13.8597 18.2974C13.8052 18.2974 13.7517 18.3119 13.7047 18.3394C13.5288 18.434 12.5018 19.0473 11.9118 19.26C9.93136 19.9741 9.04065 20.7024 9.04065 21.1989V24.501H23.2958V21.1989C23.2958 20.7024 22.4051 19.9741 20.4247 19.26Z" fill="#185850"/>
</g>
<defs>
<clipPath id="clip0_821_3451">
<rect width="17" height="17" fill="white" transform="translate(7.66956 7.50098)"/>
</clipPath>
</defs>
</svg>
