<svg width="59" height="59" viewBox="0 0 59 59" fill="none" xmlns="http://www.w3.org/2000/svg">
<g clip-path="url(#clip0_662_3172)">
<path d="M59 29.5C59 13.2076 45.7924 0 29.5 0C13.2076 0 0 13.2076 0 29.5C0 45.7924 13.2076 59 29.5 59C45.7924 59 59 45.7924 59 29.5Z" fill="#2D945C"/>
<g clip-path="url(#clip1_662_3172)">
<path d="M28.7137 25.4415C30.4011 25.352 31.6965 23.9114 31.607 22.2239C31.5175 20.5365 30.0769 19.241 28.3895 19.3306C26.702 19.4201 25.4066 20.8607 25.4961 22.5481C25.5856 24.2356 27.0262 25.531 28.7137 25.4415Z" fill="white"/>
<path d="M23.618 29.9039H23.644C25.231 29.8933 26.5805 29.4265 27.4761 29.0102L29.7011 35.4726C29.7011 35.4775 29.7005 35.4823 29.7005 35.4873C29.7005 35.4899 29.7007 36.5844 28.9563 38.1658C28.2076 39.7482 26.7286 41.8397 23.6069 43.8755C22.82 44.3871 22.5972 45.4399 23.1088 46.2269C23.4347 46.7276 23.9794 47 24.5352 47C24.853 47.0001 25.1743 46.9111 25.4605 46.7249C29.0789 44.3761 31.0328 41.7477 32.0323 39.6125C32.5664 38.4765 32.8329 37.4906 32.9665 36.7576L33.0903 36.7262C33.2344 36.8359 33.3975 36.9254 33.5788 36.9862C33.5936 36.9916 33.633 37.0063 33.6954 37.0328C33.9819 37.1507 34.6895 37.5088 35.2449 38.0876C35.5251 38.377 35.7705 38.7142 35.9481 39.1128C36.1251 39.5132 36.2423 39.9773 36.2436 40.5781C36.2441 41.4923 35.9559 42.7624 34.9957 44.4646C34.5341 45.2821 34.8227 46.3187 35.6401 46.7803C35.9041 46.9293 36.1911 47.0001 36.474 47.0001C37.0671 47.0001 37.6433 46.689 37.9558 46.1359C39.1259 44.0638 39.6425 42.218 39.6428 40.5782C39.6453 39.3178 39.3275 38.2031 38.8454 37.3045C38.1196 35.95 37.0796 35.0872 36.245 34.5513C35.9398 34.3565 35.659 34.2037 35.4202 34.0859L34.2337 26.565C34.6199 26.0924 35.7689 24.3314 35.7601 20.6499C35.7601 18.8562 35.4953 16.6069 34.7619 13.8118C34.6095 13.2307 34.0151 12.8835 33.4338 13.0359C32.8531 13.1884 32.5055 13.7829 32.6579 14.364C33.3508 17.0065 33.5845 19.0709 33.5845 20.6499C33.584 22.4751 33.2748 23.6513 32.9973 24.3488C32.8854 24.6293 32.7784 24.8319 32.6957 24.9692L27.7437 26.4032C27.5992 26.4451 27.471 26.5158 27.3625 26.6065C27.0696 26.7958 25.4302 27.7437 23.6438 27.7282C22.7496 27.7237 21.8293 27.5211 20.8967 26.898L20.4922 29.1735C21.5519 29.6979 22.6335 29.9038 23.618 29.9039Z" fill="white"/>
<path d="M19.0133 26.8219C18.6412 27.2933 18.7214 27.9772 19.1931 28.3493C19.2596 28.4021 19.3266 28.4515 19.3938 28.5012L19.7645 26.4136C19.4791 26.4408 19.2048 26.579 19.0133 26.8219Z" fill="white"/>
<path d="M19.3026 21.8085C19.4897 22.2351 19.7645 22.9166 19.9628 23.6322C20.163 24.3456 20.2773 25.0981 20.1805 25.628C20.1804 25.6287 20.1804 25.6292 20.1801 25.63L20.0395 26.4219L19.6394 28.6751L19.5437 29.2145L20.1881 29.3289L20.239 29.0425L20.6507 26.724L20.8246 25.7445C20.9442 25.0335 21.5622 24.0914 22.1607 23.3653C22.4586 22.9998 22.7493 22.6831 22.9644 22.4589C23.1771 22.2374 23.3123 22.1099 23.3157 22.1062C24.1692 21.5335 24.8111 20.5591 25.019 19.3988C25.3817 17.3366 24.2576 15.3537 22.398 15.0143C20.5347 14.6927 18.7968 16.1671 18.4271 18.2281C18.223 19.389 18.4899 20.5244 19.0939 21.3561C19.0943 21.3568 19.1777 21.5242 19.3026 21.8085ZM21.0487 22.6128C21.3437 22.6637 21.6358 22.6693 21.9195 22.635C21.8328 22.7355 21.7438 22.8408 21.6536 22.9512C21.3493 23.3279 21.0325 23.7515 20.7674 24.1956C20.6715 23.6872 20.5199 23.1803 20.3637 22.722C20.3169 22.5871 20.2697 22.4577 20.2228 22.3336C20.4776 22.4637 20.7539 22.559 21.0487 22.6128Z" fill="white"/>
</g>
</g>
<defs>
<clipPath id="clip0_662_3172">
<rect width="59" height="59" fill="white"/>
</clipPath>
<clipPath id="clip1_662_3172">
<rect width="34" height="34" fill="white" transform="translate(12 13)"/>
</clipPath>
</defs>
</svg>
