<svg width="40" height="40" viewBox="0 0 40 40" fill="none" xmlns="http://www.w3.org/2000/svg">
<rect width="40" height="40" rx="20" fill="#2D945C"/>
<path fill-rule="evenodd" clip-rule="evenodd" d="M19.195 7.03213C19.8124 6.56776 20.5776 6.21948 21.3585 6.05589C21.5907 6.0084 21.9812 5.99257 22.5722 6.00313C23.3268 6.01896 23.501 6.04006 23.8915 6.15616C25.2318 6.56248 25.4112 6.70496 28.3294 9.61784C29.7278 11.0162 30.894 12.2246 31.0312 12.4252C31.3584 12.8895 31.7277 13.6758 31.8649 14.1877C32.0074 14.7259 32.0602 15.8921 31.9652 16.462C31.8386 17.2747 31.4639 18.1507 30.9679 18.805C30.8254 18.995 29.369 20.4831 27.7331 22.1084C24.5511 25.2798 24.4772 25.3484 23.6804 25.6175C23.4218 25.702 23.1738 25.7389 22.6514 25.7547C21.9073 25.7811 21.7913 25.7653 18.8784 25.2693C18.1079 25.1373 17.3692 25.0318 17.2372 25.0318C16.8362 25.0318 16.0869 25.1848 15.6753 25.3484C14.8784 25.6703 14.6779 25.8392 12.0131 28.4988C9.56456 30.942 9.49596 31.0159 9.35348 31.3641C9.22684 31.686 9.13185 31.8021 8.56194 32.3615L7.91815 33H7.6332H7.34824L6.17676 31.8232L5 30.6518V30.3615V30.0713L5.67545 29.4117C6.24536 28.847 6.39311 28.7362 6.66224 28.636C6.96303 28.5199 7.1055 28.3932 9.49596 25.9975C12.1608 23.3221 12.3297 23.1215 12.6516 22.3247C12.8574 21.8076 12.9893 21.0477 12.9524 20.5728C12.9365 20.367 12.7888 19.4435 12.6305 18.5148C12.4722 17.586 12.3244 16.6256 12.3086 16.3776C12.2241 15.3064 12.5777 14.0241 13.232 13.0479C13.5012 12.6468 18.6726 7.4279 19.195 7.03213ZM24.6989 7.86061C24.2503 7.57038 23.6698 7.33292 23.2319 7.25376C22.0868 7.05324 21.0103 7.27487 20.0921 7.89755C19.7312 8.14444 15.5557 12.2914 14.526 13.4127L15.1039 12.819L15.6844 12.2227L16.4231 12.2544C16.8295 12.2702 19.964 12.3546 23.3887 12.4391L29.5878 12.5967C29.1319 12.1336 28.3296 11.3313 27.4534 10.4621C25.7331 8.75769 24.9733 8.04003 24.6989 7.86061ZM29.9335 12.953C29.9869 13.0166 30.0449 13.0906 30.1006 13.1661C30.0603 13.1081 30.0187 13.0527 29.9758 13.0004C29.9691 12.9919 29.9548 12.9759 29.9335 12.953ZM30.4377 13.7867L30.1063 13.8005C29.8108 13.8111 16.5128 13.4892 14.8928 13.4311L14.5236 13.4153C14.4102 13.5389 14.3353 13.6253 14.3085 13.6653C13.5381 14.784 13.3798 15.7497 13.6753 17.433C13.7545 17.8815 13.8283 18.3565 13.8389 18.4884C13.8653 18.8525 14.0183 19.6863 14.0869 19.8498C14.1238 19.9343 14.145 20.3037 14.145 20.7839C14.145 21.4593 14.1238 21.6493 14.0078 22.1031C13.8494 22.6994 13.4009 23.6492 13.0843 24.0556L12.8785 24.3194L13.269 24.7205L13.6648 25.1268L14.0447 24.8524C14.5513 24.4936 15.2584 24.1664 15.8969 23.9975C16.3402 23.8814 16.5407 23.8603 17.1634 23.855C17.8388 23.855 18.071 23.8814 19.9443 24.2033C22.2292 24.5991 22.6831 24.6308 23.2688 24.4513C23.4535 24.3933 23.7173 24.2719 23.8493 24.1769C24.0987 23.9983 26.4374 21.6895 28.1669 19.9434C26.9417 19.9649 14.1797 19.7945 14.1343 19.7491C14.1132 19.7227 13.9232 18.7359 13.918 18.6199C13.918 18.5565 14.1818 18.5513 15.6224 18.5829C16.5564 18.5987 20.0287 18.6515 23.3373 18.699C26.3029 18.7416 28.7936 18.7841 29.2859 18.8039C29.6939 18.3832 29.9712 18.0883 30.0286 18.0082C30.5563 17.2589 30.8043 16.4937 30.8043 15.5913C30.8043 14.9725 30.6684 14.3295 30.4377 13.7867ZM12.7782 25.9817L12.4141 25.6123C12.2136 25.4117 12.0342 25.2429 12.0183 25.2429C12.0025 25.2429 11.8178 25.417 11.6067 25.6281L11.2268 26.008L11.612 26.3933L11.992 26.7732L12.3877 26.3774L12.7782 25.9817ZM8.9841 29.7811L10.0553 28.7098L11.1213 27.6439L10.736 27.2587L10.3561 26.8787L9.28488 27.95L8.21894 29.0159L8.60416 29.4011L8.9841 29.7811ZM7.88121 31.3114C8.01314 31.1795 8.15562 31.0106 8.19255 30.9367C8.26115 30.8048 8.2506 30.789 7.72818 30.2665L7.18993 29.7283L7.03163 29.8286C6.94192 29.8813 6.77833 30.0238 6.66224 30.1452L6.45644 30.3615L7.04746 30.9525L7.63847 31.5488L7.88121 31.3114Z" fill="white"/>
</svg>
