<svg width="40" height="40" viewBox="0 0 40 40" fill="none" xmlns="http://www.w3.org/2000/svg">
<rect width="40" height="40" rx="20" fill="#2D945C"/>
<path d="M32.2328 13.3442L20.755 7.19938C20.5274 7.06846 20.2663 7 20 7C19.7337 7 19.4725 7.06846 19.2442 7.19938L7.76716 13.3442C7.03165 13.7653 6.78515 14.6949 7.20036 15.4226C7.61237 16.1452 8.54416 16.4136 9.2788 15.9894L20 10.3276L30.7219 15.9894C31.4 16.3793 32.4004 16.1225 32.7996 15.4226C33.2148 14.6951 32.9685 13.7654 32.2328 13.3442ZM24.5705 19.2373C22.4705 19.2373 20.7617 20.946 20.7617 23.046V23.8078H21.5235C23.6235 23.8078 25.3323 22.0991 25.3323 19.999V19.2373H24.5705Z" fill="white"/>
<path d="M19.9996 12.0527L10.0461 17.3075V28.4298H19.2379V25.332H18.4761C15.5362 25.332 13.1439 22.9397 13.1439 19.9998V18.4763C13.1439 18.0552 13.4846 17.7145 13.9056 17.7145H15.4292C17.3787 17.7145 19.0696 18.7779 19.9996 20.344C20.9297 18.7779 22.6205 17.7145 24.5701 17.7145H26.0936C26.5147 17.7145 26.8554 18.0552 26.8554 18.4763V19.9998C26.8554 22.9397 24.463 25.332 21.5231 25.332H20.7614V28.4298H29.9531V17.3062L19.9996 12.0527Z" fill="white"/>
<path d="M15.4297 19.2383H14.6679V20C14.6679 22.1001 16.3766 23.8088 18.4767 23.8088H19.2384V23.047C19.2384 20.947 17.5297 19.2383 15.4297 19.2383ZM29.9537 29.9535H10.0467C9.20522 29.9535 8.52319 30.6356 8.52319 31.477V32.2388C8.52319 32.6595 8.86426 33.0006 9.28495 33.0006H30.7155C31.1362 33.0006 31.4772 32.6594 31.4772 32.2388V31.477C31.4771 30.6356 30.7951 29.9535 29.9537 29.9535Z" fill="white"/>
</svg>
