<svg width="59" height="59" viewBox="0 0 59 59" fill="none" xmlns="http://www.w3.org/2000/svg">
<rect width="59" height="59" rx="29.5" fill="#2D945C"/>
<path d="M29.4114 14.1696C29.3388 14.2665 29.3388 15.4286 29.4114 16.7844C29.5567 19.1086 29.5324 19.3507 28.9514 20.6338C28.564 21.457 27.7409 22.5949 26.8209 23.5149C25.1019 25.2338 24.2061 26.9286 24.0125 28.938L23.8672 30.2938L24.6419 30.1486C25.0777 30.0517 25.8282 30.1244 26.3609 30.318C27.2809 30.6328 27.3051 30.6328 28.104 29.8096C28.8546 29.0349 28.903 28.9138 28.8303 27.3644C28.7819 26.2991 28.8546 25.597 29.0724 25.3307C29.4356 24.8949 35.1735 22.2317 35.7788 22.2317C36.3114 22.2317 36.7714 22.6917 36.7714 23.2244C36.7714 23.8296 34.1082 29.5675 33.6724 29.9307C33.4061 30.1244 32.6798 30.2212 31.6146 30.197C30.0651 30.1486 29.9198 30.197 29.1693 30.9233C28.3946 31.6738 28.3703 31.7222 28.6609 32.5938C29.0724 33.7559 29.7746 33.8528 31.6388 33.0054C33.5272 32.1096 35.3914 32.1096 37.3767 33.0054C39.1198 33.7801 41.0324 33.7559 42.9451 32.9328C43.623 32.6665 44.3493 32.3759 44.5914 32.3033C45.003 32.158 45.0514 31.9159 44.9545 29.7854C44.8577 26.8559 44.4219 25.8633 42.0009 23.2244C39.6282 20.6338 39.0956 18.9391 39.6767 15.937C40.0398 13.9759 40.1124 14.0001 34.4956 14.0001C31.8082 14.0001 29.5082 14.0728 29.4114 14.1696Z" fill="white"/>
<path d="M32.4134 25.2579L30.5977 26.0811L30.525 27.3158L30.4524 28.5264H31.6629H32.8977L33.5998 26.9527C34.4955 25.0158 34.6892 24.4106 34.4229 24.4106C34.3261 24.4106 33.4061 24.7979 32.4134 25.2579Z" fill="white"/>
<path d="M24.0124 32.0853C23.6977 32.2789 23.4556 32.5937 23.4556 32.7389C23.4556 33.1021 25.925 35.5474 26.2882 35.5474C26.724 35.5474 27.3292 34.4095 27.3292 33.6105C27.3292 32.0368 25.3682 31.1168 24.0124 32.0853Z" fill="white"/>
<path d="M20.9135 33.9011C19.6788 34.6032 14.7156 38.5253 14.4735 38.9853C14.3282 39.2759 14.1346 40.3896 14.0619 41.5032C13.9409 43.5127 13.9409 43.5127 14.7156 44.2874C15.4903 45.0622 15.4903 45.0622 17.4998 44.9411C18.6135 44.8685 19.7514 44.6748 20.0419 44.5295C20.3324 44.3601 21.664 42.7864 22.9956 40.9948C24.763 38.6222 25.3924 37.6296 25.2956 37.2906C25.1261 36.7822 21.9303 33.6106 21.5914 33.6106C21.4946 33.6106 21.1798 33.7559 20.9135 33.9011ZM19.3398 39.8811C19.6303 40.438 19.0493 41.1885 18.4924 40.9706C17.984 40.7527 17.863 40.1959 18.2746 39.7843C18.7588 39.3001 19.0251 39.3243 19.3398 39.8811Z" fill="white"/>
<path d="M31.808 34.5787C30.888 34.9661 29.7744 35.3051 29.387 35.3051C28.8059 35.3051 28.3217 35.6198 27.2565 36.7093C26.5059 37.484 25.8765 38.2587 25.8765 38.4524C25.8765 38.9366 28.0796 43.0282 28.9028 44.1177L29.5565 44.9893H34.568H39.5554L40.548 43.464C41.1049 42.6408 41.8796 41.3093 42.2912 40.5103C43.1144 38.864 44.6154 34.3366 44.3975 34.1429C44.3249 34.0461 43.9133 34.1429 43.4775 34.3124C41.468 35.1356 40.9354 35.2808 39.967 35.3051C39.3133 35.3051 38.2965 35.0387 37.2554 34.5787C35.1733 33.6587 34.0112 33.6587 31.808 34.5787Z" fill="white"/>
</svg>
