<svg width="32" height="32" viewBox="0 0 32 32" fill="none" xmlns="http://www.w3.org/2000/svg">
<rect x="0.669556" y="0.500977" width="31" height="31" rx="15.5" fill="white"/>
<g clip-path="url(#clip0_821_3459)">
<path d="M17.6637 7.50098H14.6754C13.8515 7.50098 13.1813 8.17121 13.1813 8.99512C13.1813 9.81902 13.8515 10.4893 14.6754 10.4893H17.6637C18.4876 10.4893 19.1578 9.81902 19.1578 8.99512C19.1578 8.17121 18.4876 7.50098 17.6637 7.50098Z" fill="#185850"/>
<path d="M21.152 8.49707H20.1055C20.139 8.66097 20.1559 8.82783 20.1559 8.99512C20.1559 10.3682 19.0387 11.4854 17.6656 11.4854H14.6774C13.3043 11.4854 12.1871 10.3682 12.1871 8.99512C12.1871 8.82459 12.2047 8.65807 12.2375 8.49707H11.191C10.3671 8.49707 9.6969 9.16731 9.6969 9.99121V23.0068C9.6969 23.8307 10.3671 24.501 11.191 24.501H21.152C21.9759 24.501 22.6461 23.8307 22.6461 23.0068V9.99121C22.6461 9.16731 21.9759 8.49707 21.152 8.49707ZM14.5315 21.3668L13.0374 22.8609C12.8428 23.0555 12.5276 23.0555 12.3331 22.8609L11.835 22.3629C11.6404 22.1683 11.6404 21.8532 11.835 21.6586C12.0296 21.4641 12.3447 21.4641 12.5393 21.6586L12.6852 21.8046L13.8272 20.6625C14.0218 20.468 14.337 20.468 14.5315 20.6625C14.726 20.8571 14.726 21.1723 14.5315 21.3668ZM14.5315 17.3492L13.0374 18.8434C12.8428 19.0379 12.5276 19.0379 12.3331 18.8434L11.835 18.3453C11.6404 18.1507 11.6404 17.8356 11.835 17.641C12.0296 17.4465 12.3447 17.4465 12.5393 17.641L12.6852 17.787L13.8272 16.645C14.0218 16.4504 14.337 16.4504 14.5315 16.645C14.726 16.8395 14.726 17.1547 14.5315 17.3492ZM14.5315 13.3316L13.0374 14.8258C12.9401 14.9231 12.8126 14.9717 12.6852 14.9717C12.5578 14.9717 12.4304 14.9231 12.3331 14.8258L11.8351 14.3277C11.6404 14.1332 11.6404 13.818 11.835 13.6235C12.0296 13.4289 12.3447 13.4289 12.5393 13.6235L12.6852 13.7694L13.8272 12.6274C14.0218 12.4328 14.337 12.4328 14.5315 12.6274C14.726 12.8219 14.726 13.1371 14.5315 13.3316ZM20.1559 22.5088H16.1715C15.8962 22.5088 15.6735 22.286 15.6735 22.0107C15.6735 21.7355 15.8962 21.5127 16.1715 21.5127H20.1559C20.4312 21.5127 20.6539 21.7355 20.6539 22.0107C20.6539 22.286 20.4312 22.5088 20.1559 22.5088ZM20.1559 18.4912H16.1715C15.8962 18.4912 15.6735 18.2685 15.6735 17.9932C15.6735 17.7179 15.8962 17.4951 16.1715 17.4951H20.1559C20.4312 17.4951 20.6539 17.7179 20.6539 17.9932C20.6539 18.2685 20.4312 18.4912 20.1559 18.4912ZM20.1559 14.4736H16.1715C15.8962 14.4736 15.6735 14.2509 15.6735 13.9756C15.6735 13.7003 15.8962 13.4775 16.1715 13.4775H20.1559C20.4312 13.4775 20.6539 13.7003 20.6539 13.9756C20.6539 14.2509 20.4312 14.4736 20.1559 14.4736Z" fill="#185850"/>
</g>
<defs>
<clipPath id="clip0_821_3459">
<rect width="17" height="17" fill="white" transform="translate(7.66956 7.50098)"/>
</clipPath>
</defs>
</svg>
