<svg width="37" height="37" viewBox="0 0 37 37" fill="none" xmlns="http://www.w3.org/2000/svg">
<rect width="37" height="37" rx="18.5" fill="#185850"/>
<path d="M19.9941 10H17.0059C16.182 10 15.5117 10.6702 15.5117 11.4941C15.5117 12.318 16.182 12.9883 17.0059 12.9883H19.9941C20.818 12.9883 21.4883 12.318 21.4883 11.4941C21.4883 10.6702 20.818 10 19.9941 10Z" fill="white"/>
<path d="M23.4805 10.9961H22.434C22.4675 11.16 22.4843 11.3269 22.4844 11.4941C22.4844 12.8672 21.3672 13.9844 19.9941 13.9844H17.0059C15.6328 13.9844 14.5156 12.8672 14.5156 11.4941C14.5156 11.3236 14.5332 11.1571 14.566 10.9961H13.5195C12.6956 10.9961 12.0254 11.6663 12.0254 12.4902V25.5059C12.0254 26.3298 12.6956 27 13.5195 27H23.4805C24.3044 27 24.9746 26.3298 24.9746 25.5059V12.4902C24.9746 11.6663 24.3044 10.9961 23.4805 10.9961ZM16.86 23.8658L15.3659 25.36C15.1713 25.5545 14.8561 25.5545 14.6616 25.36L14.1635 24.8619C13.9689 24.6673 13.9689 24.3522 14.1635 24.1576C14.358 23.9631 14.6732 23.9631 14.8678 24.1576L15.0137 24.3036L16.1557 23.1616C16.3503 22.967 16.6655 22.967 16.86 23.1616C17.0545 23.3561 17.0545 23.6713 16.86 23.8658ZM16.86 19.8482L15.3659 21.3424C15.1713 21.5369 14.8561 21.5369 14.6616 21.3424L14.1635 20.8443C13.9689 20.6498 13.9689 20.3346 14.1635 20.1401C14.358 19.9455 14.6732 19.9455 14.8678 20.1401L15.0137 20.286L16.1557 19.144C16.3503 18.9494 16.6655 18.9494 16.86 19.144C17.0545 19.3385 17.0545 19.6537 16.86 19.8482ZM16.86 15.8307L15.3659 17.3248C15.2686 17.4221 15.1411 17.4707 15.0137 17.4707C14.8863 17.4707 14.7589 17.4221 14.6616 17.3248L14.1636 16.8268C13.9689 16.6322 13.9689 16.317 14.1635 16.1225C14.358 15.928 14.6732 15.928 14.8678 16.1225L15.0137 16.2684L16.1557 15.1264C16.3503 14.9319 16.6655 14.9319 16.86 15.1264C17.0545 15.3209 17.0545 15.6361 16.86 15.8307ZM22.4844 25.0078H18.5C18.2247 25.0078 18.002 24.7851 18.002 24.5098C18.002 24.2345 18.2247 24.0117 18.5 24.0117H22.4844C22.7597 24.0117 22.9824 24.2345 22.9824 24.5098C22.9824 24.7851 22.7597 25.0078 22.4844 25.0078ZM22.4844 20.9902H18.5C18.2247 20.9902 18.002 20.7675 18.002 20.4922C18.002 20.2169 18.2247 19.9941 18.5 19.9941H22.4844C22.7597 19.9941 22.9824 20.2169 22.9824 20.4922C22.9824 20.7675 22.7597 20.9902 22.4844 20.9902ZM22.4844 16.9727H18.5C18.2247 16.9727 18.002 16.7499 18.002 16.4746C18.002 16.1993 18.2247 15.9766 18.5 15.9766H22.4844C22.7597 15.9766 22.9824 16.1993 22.9824 16.4746C22.9824 16.7499 22.7597 16.9727 22.4844 16.9727Z" fill="white"/>
</svg>
