<svg width="40" height="40" viewBox="0 0 40 40" fill="none" xmlns="http://www.w3.org/2000/svg">
<rect width="40" height="40" rx="20" fill="#2D945C"/>
<g clip-path="url(#clip0_206_2527)">
<path d="M23.5625 13.125C24.3084 13.125 25.0238 12.8287 25.5512 12.3012C26.0787 11.7738 26.375 11.0584 26.375 10.3125C26.375 9.56658 26.0787 8.85121 25.5512 8.32376C25.0238 7.79632 24.3084 7.5 23.5625 7.5C22.8166 7.5 22.1012 7.79632 21.5737 8.32376C21.0463 8.85121 20.75 9.56658 20.75 10.3125C20.75 11.0584 21.0463 11.7738 21.5737 12.3012C22.1012 12.8287 22.8166 13.125 23.5625 13.125ZM17.9125 15.8012C17.1331 15.995 16.6012 16.2863 16.1719 16.6475C15.5281 17.19 15.0081 17.9725 14.3056 19.2025C14.1411 19.4903 13.869 19.701 13.5491 19.7882C13.2292 19.8755 12.8878 19.832 12.6 19.6675C12.3121 19.503 12.1014 19.2309 12.0142 18.911C11.927 18.5911 11.9705 18.2497 12.135 17.9619C12.8344 16.7388 13.5412 15.5944 14.5619 14.7356C15.6269 13.8381 16.9306 13.3306 18.6887 13.135C19.4237 13.0538 20.2325 13.07 20.9906 13.4081C21.7862 13.7638 22.3675 14.4006 22.7637 15.2519C23.2975 16.3975 23.6944 17.0794 24.0119 17.475C24.165 17.6644 24.2719 17.7525 24.3325 17.7919C24.3806 17.8231 24.4012 17.8256 24.4087 17.8269C24.4631 17.8331 24.64 17.8269 25.1575 17.5975C25.3831 17.4975 25.6294 17.3775 25.9306 17.2306L26.0025 17.1956C26.3709 17.0139 26.7427 16.8388 27.1175 16.6706C27.4201 16.5378 27.763 16.5302 28.0713 16.6495C28.3795 16.7688 28.6279 17.0054 28.7622 17.3074C28.8964 17.6094 28.9056 17.9523 28.7877 18.261C28.6699 18.5698 28.4345 18.8193 28.1331 18.955C27.7857 19.1109 27.4413 19.2732 27.1 19.4419L27.0181 19.4819C26.73 19.6225 26.44 19.7644 26.1681 19.8844C25.6056 20.1331 24.8869 20.4031 24.1075 20.3088C23.285 20.2087 22.6512 19.7444 22.1294 19.1213L20.4212 22.4169L22.7837 25.4906C22.9244 25.6744 23.0112 25.8931 23.0356 26.1231L23.5556 31.1206C23.5754 31.2853 23.5623 31.4522 23.5169 31.6117C23.4716 31.7713 23.3949 31.9202 23.2915 32.0498C23.188 32.1794 23.0598 32.2871 22.9143 32.3667C22.7688 32.4463 22.6089 32.4961 22.4439 32.5132C22.279 32.5304 22.1123 32.5146 21.9535 32.4667C21.7947 32.4188 21.6471 32.3398 21.5192 32.2342C21.3912 32.1287 21.2856 31.9988 21.2083 31.852C21.1311 31.7052 21.0839 31.5446 21.0694 31.3794L20.5856 26.7337L19.1506 24.8662L19.1381 24.8894L19.0856 24.7819L16.4344 21.3319C16.304 21.1623 16.2194 20.9621 16.1885 20.7505C16.1577 20.5389 16.1816 20.3229 16.2581 20.1231L17.9125 15.8012Z" fill="white"/>
<path d="M16.02 23.1289L15.1 25.6039L11.475 25.3164C11.3101 25.3011 11.1439 25.3187 10.986 25.3681C10.828 25.4176 10.6814 25.4979 10.5548 25.6044C10.4281 25.711 10.3238 25.8416 10.2481 25.9888C10.1723 26.1359 10.1265 26.2967 10.1133 26.4617C10.1002 26.6267 10.1199 26.7926 10.1714 26.9499C10.2229 27.1072 10.3051 27.2528 10.4133 27.378C10.5215 27.5033 10.6535 27.6058 10.8016 27.6797C10.9497 27.7536 11.1111 27.7973 11.2762 27.8083L15.8437 28.1708C16.1148 28.1924 16.3855 28.1249 16.6148 27.9788C16.8441 27.8326 17.0195 27.6156 17.1143 27.3608L17.8175 25.4683L16.02 23.1289Z" fill="white"/>
</g>
<defs>
<clipPath id="clip0_206_2527">
<rect width="30" height="30" fill="white" transform="translate(4.5 5)"/>
</clipPath>
</defs>
</svg>
