<svg width="40" height="40" viewBox="0 0 40 40" fill="none" xmlns="http://www.w3.org/2000/svg">
<rect width="40" height="40" rx="20" fill="#2D945C"/>
<path d="M26.6 24.0455C27.81 24.0455 28.8 23.0227 28.8 21.7727V20.7727C28.8 18.3864 27.095 16.7614 25.467 16.3636L22.497 15.6023C21.54 15.3523 20.77 14.6818 20.352 13.8182H17.25C16.942 13.8182 16.7 13.5682 16.7 13.25C16.7 12.9318 16.942 12.6818 17.25 12.6818H20.022L20 11.5455H17.25C16.942 11.5455 16.7 11.2955 16.7 10.9773C16.7 10.6591 16.942 10.4091 17.25 10.4091H20V9.27273C20 8.02273 19.01 7 17.8 7H13.4C12.19 7 11.2 8.02273 11.2 9.27273V21.7727C11.2 23.0227 12.19 24.0455 13.4 24.0455H26.6ZM12.3 32C10.474 32 9 30.4773 9 28.5909C9 26.7045 10.474 25.1818 12.3 25.1818C14.126 25.1818 15.6 26.7045 15.6 28.5909C15.6 30.4773 14.126 32 12.3 32ZM27.7 32C25.874 32 24.4 30.4773 24.4 28.5909C24.4 26.7045 25.874 25.1818 27.7 25.1818C29.526 25.1818 31 26.7045 31 28.5909C31 30.4773 29.526 32 27.7 32ZM20 32C18.174 32 16.7 30.4773 16.7 28.5909C16.7 26.7045 18.174 25.1818 20 25.1818C21.826 25.1818 23.3 26.7045 23.3 28.5909C23.3 30.4773 21.826 32 20 32Z" fill="white"/>
</svg>
