<svg width="34" height="34" viewBox="0 0 34 34" fill="none" xmlns="http://www.w3.org/2000/svg">
<g id="Frame">
<g id="Group">
<path id="Vector" d="M29.3398 16.4199C29.3398 23.5554 23.5554 29.3398 16.4199 29.3398C9.28443 29.3398 3.5 23.5554 3.5 16.4199C3.5 9.28443 9.28443 3.5 16.4199 3.5C23.5554 3.5 29.3398 9.28443 29.3398 16.4199Z" fill="#FFC143"/>
<path id="Vector_2" d="M9.18273 19.5219C9.09879 19.755 9.00644 19.985 8.90587 20.2114C8.70732 20.0632 8.51418 19.9079 8.32685 19.7458C4.2112 16.1874 2.37129 9.15398 4.21731 4.03617C4.26239 3.91118 4.30982 3.78705 4.35959 3.66386C4.42519 3.50154 4.63022 3.44791 4.76686 3.55728C4.87057 3.64031 4.9727 3.7253 5.07319 3.8122C9.18885 7.37061 11.0287 14.4041 9.18273 19.5219Z" fill="#00A42C"/>
<path id="Vector_3" d="M8.49419 19.6993C8.10339 20.1882 7.67784 20.6484 7.22087 21.0762C4.22376 16.5263 4.33782 10.3847 7.92455 5.89979C8.24784 5.4954 8.59488 5.11058 8.96384 4.74739C9.08418 4.62895 9.28389 4.6532 9.37317 4.79654C12.1891 9.31666 12.0095 15.3036 8.49419 19.6993Z" fill="#00C53B"/>
<path id="Vector_4" d="M30.1044 18.1955C30.1044 24.7724 24.7728 30.104 18.196 30.104C11.6192 30.104 6.2876 24.7724 6.2876 18.1955C6.2876 11.6187 11.6192 6.28711 18.196 6.28711C24.7728 6.28711 30.1044 11.6187 30.1044 18.1955Z" fill="#87523E"/>
<path id="Vector_5" d="M27.5184 25.6059C25.3367 28.3468 21.9715 30.1039 18.196 30.1039C11.6191 30.1039 6.2876 24.7723 6.2876 18.1954C6.2876 14.4199 8.0446 11.0548 10.7856 8.87305C9.16679 10.9067 8.19948 13.4822 8.19948 16.2835C8.19948 22.8603 13.5311 28.1919 20.1079 28.1919C22.9093 28.192 25.4847 27.2247 27.5184 25.6059Z" fill="#6D4336"/>
<path id="Vector_6" d="M25.3154 18.1953C25.3154 22.1271 22.1281 25.3145 18.1963 25.3145C14.2645 25.3145 11.0771 22.1271 11.0771 18.1953C11.0771 14.2635 14.2645 11.0762 18.1963 11.0762C22.1281 11.0762 25.3154 14.2635 25.3154 18.1953Z" fill="#6D4336"/>
<path id="Vector_7" d="M26.8961 9.49629C24.5723 7.17239 21.4825 5.89258 18.196 5.89258C14.9095 5.89258 11.8197 7.17244 9.49585 9.49629C7.17195 11.8202 5.89209 14.91 5.89209 18.1965C5.89209 21.483 7.17195 24.5728 9.49585 26.8966C11.8197 29.2206 14.9095 30.5004 18.196 30.5004C21.4825 30.5004 24.5723 29.2206 26.8961 26.8967C29.22 24.5728 30.4999 21.483 30.4999 18.1965C30.4999 14.91 29.22 11.8202 26.8961 9.49629ZM18.196 29.7094C11.8478 29.7094 6.68305 24.5447 6.68305 18.1965C6.68305 11.8483 11.8478 6.68359 18.1959 6.68359C24.5442 6.68359 29.7089 11.8482 29.7089 18.1965C29.7089 24.5447 24.5442 29.7094 18.196 29.7094Z" fill="#AC6A51"/>
<path id="Vector_8" d="M28.0259 21.2629C27.5588 22.2595 26.9136 23.1933 26.0903 24.0166C25.2671 24.8398 24.3332 25.4851 23.3366 25.9522C23.1354 26.0466 22.9154 26.0728 22.7065 26.0362C22.4975 25.9996 22.5771 25.3661 22.42 25.209L10.9844 13.8722C10.8273 13.7151 10.3216 13.8236 10.2849 13.6146C10.2483 13.4057 10.2745 13.1857 10.3689 12.9845C10.8361 11.9879 11.4813 11.054 12.3045 10.2308C13.1277 9.40755 14.0616 8.76235 15.0582 8.29512C15.2594 8.20083 15.4794 8.17457 15.6884 8.21117C15.8973 8.24777 15.9077 8.74231 16.0648 8.8994L27.3388 20.1195C27.4991 20.2799 28.0773 20.4318 28.1121 20.6455C28.1454 20.8506 28.1183 21.0658 28.0259 21.2629Z" fill="#FFC143"/>
<path id="Vector_9" d="M25.0714 22.7716C24.2827 23.5604 23.004 23.5604 22.2153 22.7716C21.4266 21.9829 21.4266 20.7042 22.2153 19.9155C23.004 19.1268 24.2827 19.1268 25.0714 19.9155C25.8601 20.7042 25.8601 21.9829 25.0714 22.7716ZM14.3533 10.0471C14.0012 10.3671 13.7892 10.7794 13.7175 11.2104C13.644 11.6523 13.4097 12.0474 13.0899 12.361C13.0516 12.3986 13.0147 12.4376 12.9794 12.478C12.3225 13.2304 12.3211 14.371 12.9763 15.1248C13.7531 16.0186 15.109 16.0541 15.9318 15.2313C16.4269 14.7362 16.6112 14.048 16.4847 13.4092C16.729 13.3077 16.9509 13.159 17.1377 12.9717C17.922 12.1874 17.9264 10.9185 17.1508 10.1288C16.3961 9.36049 15.1504 9.32284 14.3533 10.0471Z" fill="#FF8835"/>
<path id="Vector_10" d="M22.7201 26.0391C22.5016 26.0037 22.2998 25.9003 22.1433 25.7437L10.579 14.1795C10.4224 14.023 10.3191 13.8212 10.2837 13.6027C13.7107 12.3979 17.6766 13.1656 20.4169 15.9059C23.1572 18.6462 23.9249 22.6121 22.7201 26.0391Z" fill="#FFB509"/>
<path id="Vector_11" d="M28.1124 20.6473C24.6853 21.8522 20.7194 21.0845 17.9791 18.3442C15.2388 15.6039 14.4711 11.638 15.676 8.21094C15.8945 8.24636 16.0963 8.34968 16.2528 8.50625L27.817 20.0705C27.9736 20.227 28.0769 20.4288 28.1124 20.6473Z" fill="#FFCD6B"/>
<path id="Vector_12" d="M11.814 19.5663C11.814 21.7529 10.0414 23.5255 7.85475 23.5255C5.66812 23.5255 3.89551 21.7529 3.89551 19.5663C3.89551 17.3797 5.66812 15.607 7.85475 15.607C10.0414 15.607 11.814 17.3797 11.814 19.5663ZM19.024 26.1626C19.024 28.3492 17.2514 30.1218 15.0648 30.1218C12.8781 30.1218 11.1055 28.3492 11.1055 26.1626C11.1055 23.9759 12.8781 22.2033 15.0648 22.2033C17.2514 22.2033 19.024 23.9759 19.024 26.1626ZM28.9942 10.1C28.9942 12.2866 27.2216 14.0592 25.0349 14.0592C22.8483 14.0592 21.0757 12.2866 21.0757 10.1C21.0757 7.91336 22.8483 6.14075 25.0349 6.14075C27.2216 6.14075 28.9942 7.91336 28.9942 10.1Z" fill="#87E0EC"/>
<path id="Vector_13" d="M7.8547 15.1948C5.45349 15.1948 3.5 17.1484 3.5 19.5496C3.5 21.9508 5.45349 23.9043 7.8547 23.9043C10.2559 23.9043 12.2095 21.9508 12.2095 19.5496C12.2095 17.1484 10.2559 15.1948 7.8547 15.1948ZM7.8547 23.1133C5.88966 23.1133 4.29102 21.5146 4.29102 19.5496C4.29102 17.5845 5.88966 15.9858 7.8547 15.9858C9.81979 15.9858 11.4184 17.5845 11.4184 19.5496C11.4184 21.5147 9.81979 23.1133 7.8547 23.1133ZM15.0648 21.7911C12.6635 21.7911 10.7101 23.7446 10.7101 26.1458C10.7101 28.5471 12.6635 30.5006 15.0648 30.5006C17.466 30.5006 19.4195 28.547 19.4195 26.1458C19.4195 23.7446 17.466 21.7911 15.0648 21.7911ZM15.0648 29.7096C13.0997 29.7096 11.5011 28.1109 11.5011 26.1458C11.5011 24.1808 13.0997 22.5821 15.0648 22.5821C17.0299 22.5821 18.6285 24.1807 18.6285 26.1458C18.6285 28.1109 17.0298 29.7096 15.0648 29.7096ZM25.0349 5.72852C22.6337 5.72852 20.6802 7.68201 20.6802 10.0833C20.6802 12.4845 22.6337 14.438 25.0349 14.438C27.4361 14.438 29.3897 12.4845 29.3897 10.0833C29.3897 7.68206 27.4361 5.72852 25.0349 5.72852ZM25.0349 13.647C23.0699 13.647 21.4712 12.0483 21.4712 10.0833C21.4712 8.11823 23.0699 6.51953 25.0349 6.51953C27 6.51953 28.5987 8.11817 28.5987 10.0833C28.5987 12.0484 27 13.647 25.0349 13.647Z" fill="#D5F3F7"/>
<path id="Vector_14" d="M10.2698 20.9291C9.77184 21.8093 8.8067 22.3903 7.71119 22.335C6.30086 22.264 5.15674 21.1198 5.08565 19.7095C5.03044 18.614 5.61136 17.6488 6.49155 17.1509C6.56512 17.1093 6.6507 17.181 6.6226 17.2607C6.50384 17.5978 6.44842 17.9648 6.47062 18.3473C6.55141 19.7405 7.68013 20.8692 9.07327 20.95C9.4558 20.9722 9.82278 20.9168 10.1599 20.798C10.2396 20.77 10.3114 20.8556 10.2698 20.9291Z" fill="#80CF00"/>
<path id="Vector_15" d="M10.6272 19.5658C10.6272 20.0769 10.4889 20.5556 10.2478 20.9666C9.83666 21.2078 9.35794 21.3461 8.84694 21.3461C7.31559 21.3461 6.07422 20.1047 6.07422 18.5734C6.07422 18.0623 6.21249 17.5836 6.45364 17.1725C6.86476 16.9314 7.34348 16.7931 7.85448 16.7931C9.38578 16.7931 10.6272 18.0345 10.6272 19.5658Z" fill="#A3E72D"/>
<path id="Vector_16" d="M7.93783 20.4051C7.78815 20.4597 7.6286 20.482 7.46968 20.4705C7.31077 20.459 7.15609 20.414 7.01583 20.3384C6.82356 20.2346 6.75184 19.9948 6.85557 19.8025C6.95929 19.6102 7.19924 19.5381 7.39145 19.6422C7.43315 19.665 7.47925 19.6786 7.52664 19.682C7.57402 19.6855 7.6216 19.6787 7.66615 19.6622C7.93435 19.5641 8.07278 19.266 7.9747 18.9978C7.83331 18.6112 7.4039 18.4118 7.01736 18.5532C6.483 18.7486 6.20725 19.3423 6.40268 19.8766C6.42099 19.9255 6.42944 19.9775 6.42754 20.0297C6.42565 20.0819 6.41345 20.1331 6.39164 20.1805C6.36984 20.228 6.33887 20.2706 6.30051 20.306C6.26215 20.3414 6.21716 20.3689 6.16814 20.3868C6.11912 20.4047 6.06704 20.4128 6.01489 20.4105C5.96275 20.4082 5.91158 20.3956 5.86432 20.3734C5.81707 20.3512 5.77467 20.3199 5.73957 20.2813C5.70447 20.2427 5.67736 20.1975 5.65981 20.1483C5.31461 19.2043 5.80172 18.1555 6.74572 17.8103C7.5419 17.5191 8.42647 17.9299 8.71762 18.7261C8.96552 19.404 8.61568 20.1572 7.93783 20.4051Z" fill="#80CF00"/>
<path id="Vector_17" d="M17.4802 27.5248C16.9823 28.405 16.0171 28.986 14.9216 28.9307C13.5113 28.8597 12.3672 27.7155 12.2961 26.3052C12.2409 25.2097 12.8218 24.2445 13.702 23.7466C13.7756 23.705 13.8612 23.7767 13.833 23.8564C13.7143 24.1935 13.6589 24.5605 13.6811 24.943C13.7619 26.3362 14.8906 27.4649 16.2837 27.5457C16.6663 27.5679 17.0332 27.5125 17.3704 27.3937C17.4502 27.3657 17.5219 27.4513 17.4802 27.5248Z" fill="#FFE7BF"/>
<path id="Vector_18" d="M17.8376 26.1633C17.8376 26.6744 17.6994 27.1531 17.4582 27.5642C17.0471 27.8053 16.5684 27.9436 16.0574 27.9436C14.526 27.9436 13.2847 26.7022 13.2847 25.1709C13.2847 24.6598 13.4229 24.1811 13.6641 23.77C14.0752 23.5289 14.5539 23.3906 15.0649 23.3906C16.5963 23.3906 17.8376 24.632 17.8376 26.1633Z" fill="white"/>
<path id="Vector_19" d="M15.1478 27.0009C14.9981 27.0555 14.8386 27.0778 14.6796 27.0663C14.5207 27.0548 14.366 27.0098 14.2258 26.9342C14.0335 26.8305 13.9618 26.5906 14.0655 26.3983C14.1693 26.206 14.4092 26.1339 14.6014 26.2381C14.6431 26.2608 14.6892 26.2744 14.7366 26.2778C14.784 26.2813 14.8316 26.2745 14.8761 26.258C15.1443 26.1599 15.2827 25.8618 15.1847 25.5936C15.0433 25.207 14.6139 25.0076 14.2273 25.149C13.693 25.3444 13.4172 25.9381 13.6126 26.4725C13.6309 26.5213 13.6394 26.5734 13.6375 26.6255C13.6356 26.6777 13.6234 26.7289 13.6016 26.7764C13.5798 26.8238 13.5488 26.8664 13.5105 26.9018C13.4721 26.9372 13.4271 26.9647 13.3781 26.9826C13.3291 27.0005 13.277 27.0086 13.2249 27.0063C13.1727 27.004 13.1215 26.9914 13.0743 26.9692C13.027 26.9471 12.9846 26.9158 12.9495 26.8771C12.9144 26.8385 12.8873 26.7933 12.8698 26.7441C12.5246 25.8001 13.0117 24.7513 13.9557 24.4061C14.7519 24.115 15.6364 24.5258 15.9276 25.3219C16.1755 25.9999 15.8257 26.7531 15.1478 27.0009Z" fill="#FFE7BF"/>
<path id="Vector_20" d="M27.4499 11.4623C26.952 12.3425 25.9869 12.9235 24.8914 12.8682C23.481 12.7972 22.3369 11.653 22.2658 10.2427C22.2106 9.1472 22.7915 8.182 23.6717 7.68408C23.7453 7.64248 23.8309 7.7142 23.8028 7.79393C23.684 8.13106 23.6286 8.49804 23.6508 8.88058C23.7316 10.2737 24.8603 11.4024 26.2534 11.4832C26.636 11.5054 27.003 11.45 27.3401 11.3312C27.4199 11.3032 27.4915 11.3887 27.4499 11.4623Z" fill="#FF7117"/>
<path id="Vector_21" d="M27.8074 10.1008C27.8074 10.6119 27.6691 11.0906 27.428 11.5017C27.0168 11.7428 26.5381 11.8811 26.0271 11.8811C24.4958 11.8811 23.2544 10.6397 23.2544 9.10839C23.2544 8.59734 23.3927 8.11861 23.6338 7.70755C24.0449 7.46639 24.5237 7.32812 25.0347 7.32812C26.566 7.32812 27.8074 8.56949 27.8074 10.1008Z" fill="#FF8835"/>
<path id="Vector_22" d="M25.118 10.9384C24.9683 10.993 24.8088 11.0153 24.6499 11.0038C24.4909 10.9923 24.3363 10.9473 24.196 10.8717C24.0037 10.768 23.932 10.5281 24.0357 10.3358C24.1395 10.1435 24.3794 10.0714 24.5716 10.1756C24.6133 10.1983 24.6594 10.2119 24.7068 10.2153C24.7542 10.2188 24.8018 10.212 24.8463 10.1955C25.1145 10.0974 25.253 9.79934 25.1549 9.53108C25.0135 9.14454 24.5841 8.9451 24.1975 9.08648C23.6632 9.28191 23.3874 9.8756 23.5829 10.41C23.6012 10.4588 23.6096 10.5109 23.6077 10.563C23.6058 10.6152 23.5936 10.6664 23.5718 10.7139C23.55 10.7613 23.519 10.8039 23.4807 10.8393C23.4423 10.8747 23.3973 10.9022 23.3483 10.9201C23.2993 10.938 23.2472 10.9461 23.1951 10.9438C23.1429 10.9415 23.0918 10.9289 23.0445 10.9067C22.9972 10.8846 22.9548 10.8533 22.9197 10.8146C22.8846 10.776 22.8575 10.7308 22.84 10.6816C22.4948 9.73765 22.9819 8.68881 23.9259 8.34361C24.7221 8.05246 25.6066 8.46327 25.8978 9.25945C26.1457 9.9373 25.7959 10.6905 25.118 10.9384Z" fill="#FF7117"/>
<path id="Vector_23" d="M20.4277 14.9298C20.4277 15.6579 19.8375 16.2482 19.1094 16.2482C18.3813 16.2482 17.791 15.6579 17.791 14.9298C17.791 14.2017 18.3813 13.6115 19.1094 13.6115C19.8375 13.6115 20.4277 14.2017 20.4277 14.9298ZM20.3301 17.0022C19.8933 17.0022 19.5391 17.3563 19.5391 17.7932C19.5391 18.23 19.8933 18.5842 20.3301 18.5842C20.767 18.5842 21.1211 18.23 21.1211 17.7932C21.1211 17.3563 20.767 17.0022 20.3301 17.0022ZM27.5817 16.8361C27.5817 17.1274 27.3456 17.3634 27.0543 17.3634C26.7631 17.3634 26.527 17.1274 26.527 16.8361C26.527 16.5449 26.7631 16.3088 27.0543 16.3088C27.3456 16.3088 27.5817 16.5449 27.5817 16.8361ZM25.9682 26.0275C25.9682 26.3188 25.7321 26.5549 25.4409 26.5549C25.1496 26.5549 24.9135 26.3188 24.9135 26.0275C24.9135 25.7363 25.1496 25.5002 25.4409 25.5002C25.7321 25.5002 25.9682 25.7364 25.9682 26.0275ZM23.9284 18.3575C23.9284 18.6488 23.6923 18.8849 23.4011 18.8849C23.1098 18.8849 22.8737 18.6488 22.8737 18.3575C22.8737 18.0663 23.1098 17.8302 23.4011 17.8302C23.6923 17.8302 23.9284 18.0663 23.9284 18.3575Z" fill="#FFC143"/>
</g>
</g>
</svg>
