<svg width="59" height="59" viewBox="0 0 59 59" fill="none" xmlns="http://www.w3.org/2000/svg">
<rect width="59" height="59" rx="29.5" fill="#2D945C"/>
<path d="M29 15.127C27.6571 15.127 26.4863 16.4315 26.4863 18.1562C26.4863 19.881 27.6571 21.1855 29 21.1855C30.3429 21.1855 31.5137 19.881 31.5137 18.1562C31.5137 16.4315 30.3429 15.127 29 15.127ZM19.6065 16.5407L18.5114 17.0883C19.4729 18.5157 20.5876 20.1184 21.7186 21.5321C22.9888 23.1198 24.2935 24.4356 25.1344 24.8561L25.4551 25.0164V27.5609C27.2037 27.7935 28.4532 27.882 29.8298 27.8245C29.7873 27.793 29.745 27.7614 29.7041 27.7291C29.3874 27.4791 29.1125 27.2002 28.8985 26.9005C28.5201 26.8627 28.2168 26.6186 28.0353 26.343C27.8379 26.0433 27.7408 25.6829 27.7408 25.2949C27.7408 24.9069 27.8379 24.5465 28.0353 24.2466C28.2328 23.9469 28.5744 23.6836 29 23.6836C29.4256 23.6836 29.7672 23.9468 29.9647 24.2466C30.1622 24.5464 30.2592 24.9069 30.2592 25.2949C30.2592 25.6829 30.1621 26.0433 29.9647 26.3431C29.9608 26.3491 29.9563 26.355 29.9523 26.3609C30.076 26.5129 30.2317 26.6676 30.423 26.8186C30.828 27.1384 31.3719 27.4283 32.0182 27.6345C32.189 27.6137 32.3641 27.5913 32.5449 27.5675V25.0164L32.8656 24.8561C33.7066 24.4355 35.0112 23.1197 36.2815 21.532C37.4124 20.1183 38.5271 18.5156 39.4887 17.0882L38.3936 16.5406C35.3851 19.537 32.3382 22.3457 29 22.3457C25.6618 22.3457 22.6148 19.537 19.6065 16.5407ZM21.4817 28.1377L22.2649 32.0541C28.7783 32.6575 29.2217 32.6575 35.7351 32.0541L36.518 28.1396C29.423 29.2642 28.5761 29.2458 21.4817 28.1377L21.4817 28.1377ZM24.0111 33.38L24.8715 40.2636H33.1286L33.9889 33.38C29.6216 33.7688 28.3785 33.7688 24.0111 33.38ZM21.3301 41.4238V42.7129H36.6699V41.4238H21.3301ZM13.5312 43.8086V44.9688H44.4688V43.8086H13.5312Z" fill="white"/>
</svg>
