<svg width="37" height="37" viewBox="0 0 37 37" fill="none" xmlns="http://www.w3.org/2000/svg">
<rect width="37" height="37" rx="18.5" fill="#185850"/>
<g clip-path="url(#clip0_1_7166)">
<path d="M11.7915 24.3357C12.3564 24.8542 13.0624 25.1935 13.8202 25.3107C13.9029 24.8949 13.8876 24.4655 13.7756 24.0566C13.6635 23.6477 13.4578 23.2705 13.1747 22.9548L11.7915 24.3357ZM18.9344 23.7538C18.7116 23.7538 18.4938 23.8199 18.3086 23.9437C18.1233 24.0675 17.9789 24.2434 17.8937 24.4493C17.8084 24.6551 17.7861 24.8816 17.8296 25.1002C17.873 25.3187 17.9803 25.5194 18.1379 25.677C18.2954 25.8345 18.4962 25.9418 18.7147 25.9853C18.9332 26.0287 19.1597 26.0064 19.3656 25.9212C19.5714 25.8359 19.7474 25.6915 19.8712 25.5062C19.9949 25.321 20.061 25.1032 20.061 24.8804C20.0607 24.5817 19.9419 24.2953 19.7307 24.0841C19.5195 23.8729 19.2331 23.7541 18.9344 23.7538ZM18.3103 21.1942C18.1224 21.229 17.9317 21.2465 17.7406 21.2466C16.9794 21.2466 16.2454 20.9639 15.6809 20.4531L14.6603 21.472L17.2941 24.1012C17.9561 23.3859 18.3227 22.4466 18.3201 21.472C18.3201 21.3789 18.3168 21.2862 18.3103 21.1942Z" fill="white"/>
<path d="M13.4099 22.7201C13.7252 23.0728 13.9559 23.4929 14.0844 23.9483C14.2128 24.4038 14.2356 24.8825 14.1511 25.348C14.6792 25.3859 15.2094 25.3156 15.7094 25.1416C16.2093 24.9675 16.6685 24.6932 17.0589 24.3356L14.4251 21.7065L13.4099 22.7201ZM21.4212 25.4558C21.4114 25.4626 21.4031 25.4712 21.3966 25.4811C21.3901 25.4911 21.3857 25.5023 21.3835 25.5139C21.3814 25.5256 21.3815 25.5376 21.384 25.5493C21.3865 25.5609 21.3913 25.5719 21.398 25.5817C21.4833 25.7047 21.6137 25.7889 21.761 25.816C21.9082 25.843 22.0601 25.8107 22.1835 25.726L22.7074 25.3658C22.7787 25.3165 22.8376 25.2516 22.8798 25.1759L22.2917 24.8574L21.4212 25.4558ZM21.9638 24.6798L21.0136 24.1651L21.5602 24.9573L21.9638 24.6798ZM24.615 20.4574L20.8182 20.7026L20.6465 21.5028L24.4428 21.7815C24.544 21.7886 24.6449 21.7632 24.7306 21.7089L25.7174 21.08L25.0438 20.5812C24.9204 20.4898 24.7682 20.4458 24.615 20.4574ZM25.3663 12.8636C25.2026 12.5516 24.9551 12.2915 24.6517 12.1124L24.4081 12.64L25.2835 13.0428L25.3663 12.8636ZM23.9973 23.9142L20.4084 22.613L20.2458 23.3716L23.581 25.1781C23.7251 25.2565 23.8939 25.2762 24.0522 25.2334L24.8752 25.0119L24.2214 24.0852C24.166 24.0065 24.0878 23.9468 23.9973 23.9142ZM24.4765 22.1146C24.4572 22.1146 24.4379 22.1139 24.4187 22.1125L20.5764 21.8303L20.4789 22.2852L24.1107 23.6019C24.146 23.6149 24.1804 23.6303 24.2136 23.648L25.5836 23.0691L24.5969 22.1052C24.557 22.1114 24.5168 22.1145 24.4765 22.1146ZM19.4452 23.1568L19.9986 20.5674L20.485 20.6713L19.9317 23.2607L19.4452 23.1568ZM21.0148 20.3572L21.6745 18.9284C21.5728 18.8956 21.4732 18.8568 21.3761 18.8122C21.279 18.7673 21.1846 18.7168 21.0934 18.661L20.336 20.3012L20.6946 20.3779L21.0148 20.3572ZM19.2127 20.1978L19.1684 20.1336C18.9996 19.8892 18.9272 19.591 18.9652 19.2964C18.9928 19.083 18.9404 18.8671 18.8181 18.6901L14.4383 12.3435C14.301 12.1454 14.0908 12.0097 13.8537 11.9662C13.6166 11.9226 13.372 11.9747 13.1732 12.1111C13.075 12.1786 12.991 12.2648 12.9261 12.3647C12.8611 12.4647 12.8166 12.5765 12.795 12.6938C12.7733 12.811 12.775 12.9313 12.8 13.0479C12.8249 13.1645 12.8726 13.275 12.9403 13.3731L15.7692 17.4722C16.4551 17.7014 17.0707 18.1029 17.557 18.6382C18.0434 19.1735 18.3841 19.8247 18.5467 20.5294C18.7321 20.3569 18.9634 20.2418 19.2127 20.1978ZM13.5185 13.0812C13.5003 13.0933 13.48 13.1017 13.4586 13.1059C13.4372 13.1101 13.4152 13.1101 13.3938 13.1058C13.3724 13.1015 13.3521 13.093 13.334 13.0809C13.3159 13.0688 13.3004 13.0532 13.2883 13.035L13.2505 12.978C13.2384 12.9599 13.23 12.9395 13.2258 12.9181C13.2216 12.8967 13.2216 12.8747 13.2259 12.8533C13.2302 12.832 13.2386 12.8117 13.2508 12.7935C13.2629 12.7754 13.2785 12.7599 13.2967 12.7478C13.3148 12.7357 13.3352 12.7273 13.3566 12.7231C13.3779 12.7189 13.4 12.7189 13.4213 12.7232C13.4427 12.7275 13.463 12.736 13.4811 12.7481C13.4992 12.7603 13.5148 12.7759 13.5269 12.794L13.5648 12.851C13.5769 12.8692 13.5852 12.8895 13.5895 12.9109C13.5937 12.9323 13.5936 12.9543 13.5893 12.9757C13.585 12.9971 13.5765 13.0174 13.5644 13.0355C13.5522 13.0536 13.5366 13.0691 13.5185 13.0812ZM15.2749 15.7199C15.2568 15.732 15.2364 15.7404 15.215 15.7446C15.1936 15.7488 15.1716 15.7488 15.1502 15.7445C15.1289 15.7402 15.1086 15.7318 15.0904 15.7196C15.0723 15.7075 15.0568 15.6919 15.0447 15.6737L13.6248 13.5406C13.6123 13.5225 13.6036 13.502 13.5992 13.4805C13.5947 13.459 13.5945 13.4368 13.5987 13.4152C13.6029 13.3936 13.6113 13.373 13.6235 13.3547C13.6357 13.3364 13.6514 13.3207 13.6697 13.3085C13.688 13.2963 13.7086 13.2879 13.7302 13.2837C13.7518 13.2795 13.774 13.2797 13.7955 13.2842C13.817 13.2887 13.8375 13.2974 13.8556 13.3098C13.8738 13.3223 13.8892 13.3382 13.9012 13.3567L15.3211 15.4898C15.3455 15.5264 15.3544 15.5712 15.3457 15.6144C15.3371 15.6576 15.3116 15.6955 15.275 15.7199H15.2749ZM19.1156 23.1023L19.6722 20.5074C19.1863 20.4573 18.7336 20.6673 18.6263 21.0067C18.6432 21.1612 18.6518 21.3165 18.6518 21.4719C18.6524 21.9202 18.5815 22.3657 18.4419 22.7917C18.6272 23.0373 18.933 23.0842 19.1156 23.1023ZM23.0179 14.8588L22.1425 14.456L21.807 15.1826L22.6824 15.5854L23.0179 14.8588ZM13.1747 22.4855L14.1901 21.4719L11.5563 18.8427C10.8943 19.5579 10.5277 20.4973 10.5303 21.4718C10.5303 21.5636 10.5335 21.6549 10.5399 21.7456C11.0064 21.6608 11.4862 21.6833 11.9427 21.8115C12.3992 21.9397 12.8205 22.1702 13.1747 22.4855Z" fill="white"/>
<path d="M10.5771 22.0765C10.6948 22.8337 11.0358 23.5386 11.5564 24.1009L12.9397 22.72C12.6227 22.4371 12.2442 22.2317 11.8342 22.1201C11.4242 22.0084 10.9939 21.9935 10.5771 22.0765ZM15.446 20.2183C15.1281 19.8682 14.8956 19.4493 14.7668 18.9943C14.638 18.5393 14.6164 18.0607 14.7036 17.5959C14.611 17.5893 14.5182 17.5859 14.4252 17.5859C13.4502 17.5843 12.5101 17.9491 11.7914 18.6081L14.4252 21.2372L15.446 20.2183Z" fill="white"/>
<path d="M17.059 18.6085C16.4952 18.0909 15.7907 17.7519 15.0345 17.6341C14.9531 18.0491 14.9691 18.4773 15.0814 18.8851C15.1936 19.2928 15.3989 19.6689 15.6812 19.9838L17.059 18.6085ZM18.2726 20.8632C18.1543 20.1075 17.8137 19.4042 17.2941 18.8429L15.9161 20.2183C16.2325 20.5004 16.6098 20.7055 17.0187 20.8174C17.4275 20.9293 17.8567 20.9449 18.2726 20.8632ZM20.8562 16.4503L20.8916 16.3735L20.8233 16.3421C20.8336 16.3785 20.8445 16.4146 20.8562 16.4503ZM23.5113 17.6734C23.5464 17.6588 23.5815 17.6434 23.6165 17.6272L23.5473 17.5953L23.5113 17.6734ZM20.7428 15.0586C20.7037 15.3505 20.703 15.6463 20.7406 15.9385L21.0308 16.072L21.3662 15.3454L20.7428 15.0586ZM22.0475 17.7527C22.3814 17.866 22.74 17.8848 23.0838 17.807L23.2457 17.4566L22.3703 17.0538L22.0475 17.7527ZM21.1933 16.5123L21.0318 16.8619C21.1954 17.174 21.4427 17.4344 21.7461 17.6137L22.0687 16.915L21.1933 16.5123ZM23.6863 17.2939L23.9761 17.4272C24.2226 17.2656 24.4474 17.0729 24.6448 16.854L24.0219 16.5673L23.6863 17.2939ZM22.8449 16.0258L22.5095 16.7524L23.3849 17.1551L23.7204 16.4286L22.8449 16.0258Z" fill="white"/>
<path d="M24.8836 11.2155C24.5614 11.0681 24.2111 10.9926 23.8568 10.9942C22.537 10.9942 21.1302 11.9875 20.3976 13.574C19.8704 14.7159 19.7836 15.9551 20.1596 16.974C20.4249 17.6932 20.8936 18.2243 21.5149 18.5102C23.0599 19.2211 25.0722 18.1629 26.0009 16.1517C26.5281 15.0098 26.6148 13.7706 26.2389 12.7517C25.9736 12.0325 25.5049 11.5013 24.8836 11.2155ZM25.6157 15.9748C24.9882 17.3336 23.7803 18.1836 22.6446 18.1836C22.3376 18.185 22.0339 18.1195 21.7547 17.9918C21.2142 17.7431 20.8073 17.2832 20.5781 16.6621C20.2564 15.7903 20.331 14.7292 20.7828 13.7507C21.5794 12.0257 23.3116 11.1208 24.6438 11.7338C25.1843 11.9825 25.5912 12.4423 25.8204 13.0635C26.1421 13.9352 26.0675 14.9964 25.6157 15.9748V15.9748Z" fill="white"/>
<path d="M25.446 13.4831L25.1106 14.2098L25.6764 14.4701C25.7004 14.1665 25.6812 13.8611 25.6196 13.563L25.446 13.4831ZM24.6358 15.2378L25.4161 15.5968C25.5149 15.3445 25.5878 15.0829 25.6339 14.816L24.9714 14.5112L24.6358 15.2378ZM24.161 16.2658L24.864 16.5893C25.0262 16.3743 25.1667 16.1439 25.2834 15.9013L24.4965 15.5394L24.161 16.2658ZM23.4926 13.8309L22.6172 13.4281L22.2817 14.1547L23.1571 14.5575L23.4926 13.8309ZM25.1443 13.3444L24.2689 12.9416L23.9334 13.6682L24.8088 14.071L25.1443 13.3444ZM21.3323 16.2108L22.2077 16.6136L22.5432 15.887L21.6678 15.4842L21.3323 16.2108ZM21.8409 14.3173L21.0549 13.9557C20.9459 14.2017 20.8612 14.4578 20.8022 14.7204L21.5054 15.0439L21.8409 14.3173ZM24.6696 14.3724L23.7942 13.9697L23.4587 14.6962L24.3341 15.099L24.6696 14.3724ZM24.35 11.9741C24.1563 11.9067 23.9527 11.8725 23.7477 11.8731C23.6017 11.8736 23.4561 11.8894 23.3134 11.9203L23.2311 12.0986L24.1065 12.5014L24.35 11.9741ZM24.1949 15.4005L23.3195 14.9977L22.984 15.7243L23.8594 16.127L24.1949 15.4005ZM22.3155 13.2894L21.6555 12.9858C21.4816 13.1938 21.3293 13.4188 21.2008 13.6576L21.9801 14.0161L22.3155 13.2894ZM22.7902 12.2613L22.6184 12.1823C22.352 12.3299 22.1075 12.5139 21.8919 12.729L22.4547 12.988L22.7902 12.2613ZM23.6318 13.5294L23.9673 12.8028L23.0919 12.4001L22.7564 13.1267L23.6318 13.5294Z" fill="white"/>
</g>
<defs>
<clipPath id="clip0_1_7166">
<rect width="17" height="17" fill="white" transform="translate(10 10)"/>
</clipPath>
</defs>
</svg>
