<svg width="32" height="32" viewBox="0 0 32 32" fill="none" xmlns="http://www.w3.org/2000/svg">
<rect x="0.669556" y="0.500977" width="31" height="31" rx="15.5" fill="white"/>
<g clip-path="url(#clip0_821_3438)">
<path d="M9.46252 21.8366C10.0274 22.3552 10.7334 22.6945 11.4912 22.8117C11.5739 22.3958 11.5586 21.9665 11.4466 21.5576C11.3345 21.1486 11.1288 20.7714 10.8457 20.4558L9.46252 21.8366ZM16.6054 21.2548C16.3826 21.2548 16.1648 21.3209 15.9796 21.4447C15.7943 21.5685 15.6499 21.7444 15.5647 21.9503C15.4794 22.1561 15.4571 22.3826 15.5006 22.6011C15.5441 22.8197 15.6513 23.0204 15.8089 23.1779C15.9665 23.3355 16.1672 23.4428 16.3857 23.4862C16.6042 23.5297 16.8308 23.5074 17.0366 23.4221C17.2424 23.3369 17.4184 23.1925 17.5422 23.0072C17.666 22.822 17.732 22.6041 17.732 22.3813C17.7317 22.0827 17.6129 21.7963 17.4017 21.5851C17.1905 21.3739 16.9041 21.2551 16.6054 21.2548ZM15.9813 18.6951C15.7934 18.7299 15.6027 18.7475 15.4117 18.7476C14.6505 18.7476 13.9164 18.4648 13.3519 17.9541L12.3313 18.9729L14.9651 21.6021C15.6271 20.8869 15.9937 19.9476 15.9911 18.973C15.9911 18.8798 15.9879 18.7872 15.9813 18.6951Z" fill="#185850"/>
<path d="M11.0804 20.2211C11.3957 20.5738 11.6264 20.9939 11.7549 21.4493C11.8833 21.9047 11.9062 22.3834 11.8217 22.849C12.3497 22.8869 12.8799 22.8166 13.3799 22.6425C13.8799 22.4684 14.3391 22.1942 14.7294 21.8365L12.0956 19.2075L11.0804 20.2211ZM19.0918 22.9568C19.082 22.9636 19.0736 22.9721 19.0671 22.9821C19.0607 22.9921 19.0562 23.0032 19.0541 23.0149C19.0519 23.0266 19.0521 23.0386 19.0546 23.0502C19.057 23.0619 19.0618 23.0729 19.0685 23.0827C19.1538 23.2057 19.2843 23.2899 19.4315 23.317C19.5787 23.344 19.7306 23.3117 19.854 23.227L20.3779 22.8667C20.4492 22.8175 20.5082 22.7526 20.5503 22.6769L19.9622 22.3584L19.0918 22.9568ZM19.6343 22.1808L18.6841 21.6661L19.2308 22.4583L19.6343 22.1808ZM22.2855 17.9584L18.4887 18.2036L18.3171 19.0038L22.1133 19.2825C22.2146 19.2896 22.3154 19.2642 22.4012 19.2099L23.3879 18.5809L22.7144 18.0822C22.5909 17.9908 22.4387 17.9468 22.2855 17.9584ZM23.0368 10.3645C22.8731 10.0526 22.6257 9.79248 22.3223 9.61338L22.0786 10.141L22.9541 10.5437L23.0368 10.3645ZM21.6678 21.4152L18.079 20.1139L17.9163 20.8726L21.2515 22.6791C21.3956 22.7574 21.5644 22.7772 21.7228 22.7343L22.5458 22.5128L21.8919 21.5861C21.8365 21.5075 21.7583 21.4478 21.6678 21.4152ZM22.147 19.6156C22.1277 19.6156 22.1084 19.6149 22.0892 19.6135L18.247 19.3313L18.1494 19.7862L21.7812 21.1029C21.8165 21.1159 21.8509 21.1312 21.8841 21.1489L23.2542 20.57L22.2674 19.6062C22.2276 19.6123 22.1873 19.6155 22.147 19.6156ZM17.1157 20.6577L17.6691 18.0684L18.1556 18.1723L17.6022 20.7617L17.1157 20.6577ZM18.6853 17.8582L19.345 16.4294C19.2434 16.3965 19.1437 16.3577 19.0467 16.3131C18.9496 16.2682 18.8552 16.2178 18.7639 16.162L18.0065 17.8022L18.3651 17.8788L18.6853 17.8582ZM16.8833 17.6988L16.839 17.6346C16.6701 17.3902 16.5977 17.0919 16.6358 16.7973C16.6634 16.584 16.6109 16.368 16.4886 16.1911L12.1088 9.84448C11.9715 9.64638 11.7613 9.51072 11.5242 9.46716C11.2872 9.42361 11.0425 9.4757 10.8438 9.61205C10.7455 9.67954 10.6615 9.76574 10.5966 9.86572C10.5317 9.96571 10.4871 10.0775 10.4655 10.1947C10.4439 10.312 10.4456 10.4323 10.4705 10.5489C10.4954 10.6654 10.5431 10.776 10.6108 10.8741L13.4397 14.9731C14.1256 15.2024 14.7413 15.6039 15.2276 16.1392C15.7139 16.6745 16.0547 17.3257 16.2172 18.0304C16.4026 17.8579 16.6339 17.7428 16.8833 17.6988ZM11.189 10.5822C11.1709 10.5943 11.1505 10.6027 11.1291 10.6069C11.1077 10.6111 11.0857 10.6111 11.0643 10.6068C11.043 10.6025 11.0226 10.594 11.0045 10.5819C10.9864 10.5697 10.9709 10.5541 10.9588 10.536L10.921 10.479C10.9089 10.4608 10.9005 10.4405 10.8963 10.4191C10.8921 10.3977 10.8921 10.3757 10.8964 10.3543C10.9007 10.3329 10.9092 10.3126 10.9213 10.2945C10.9335 10.2764 10.9491 10.2609 10.9672 10.2488C10.9854 10.2367 11.0057 10.2283 11.0271 10.2241C11.0485 10.2199 11.0705 10.2199 11.0919 10.2242C11.1132 10.2285 11.1336 10.237 11.1517 10.2491C11.1698 10.2612 11.1853 10.2768 11.1974 10.295L11.2353 10.352C11.2474 10.3701 11.2558 10.3905 11.26 10.4119C11.2642 10.4333 11.2641 10.4553 11.2598 10.4767C11.2555 10.4981 11.2471 10.5184 11.2349 10.5365C11.2228 10.5546 11.2072 10.5701 11.189 10.5822ZM12.9454 13.2209C12.9273 13.233 12.9069 13.2414 12.8856 13.2456C12.8642 13.2498 12.8422 13.2498 12.8208 13.2455C12.7994 13.2412 12.7791 13.2327 12.761 13.2206C12.7429 13.2085 12.7273 13.1929 12.7152 13.1747L11.2953 11.0416C11.2829 11.0234 11.2742 11.003 11.2697 10.9815C11.2652 10.9599 11.2651 10.9377 11.2692 10.9161C11.2734 10.8945 11.2818 10.874 11.294 10.8557C11.3062 10.8374 11.3219 10.8217 11.3402 10.8095C11.3586 10.7973 11.3791 10.7889 11.4007 10.7847C11.4223 10.7805 11.4445 10.7807 11.466 10.7851C11.4876 10.7896 11.508 10.7983 11.5261 10.8108C11.5443 10.8232 11.5598 10.8392 11.5717 10.8576L12.9917 12.9907C13.0161 13.0274 13.0249 13.0722 13.0162 13.1154C13.0076 13.1585 12.9821 13.1965 12.9455 13.2209H12.9454ZM16.7861 20.6033L17.3427 18.0083C16.8569 17.9583 16.4041 18.1683 16.2968 18.5077C16.3138 18.6622 16.3223 18.8175 16.3224 18.9729C16.3229 19.4212 16.252 19.8667 16.1124 20.2927C16.2977 20.5382 16.6035 20.5852 16.7861 20.6033ZM20.6884 12.3597L19.813 11.957L19.4776 12.6835L20.353 13.0863L20.6884 12.3597ZM10.8452 19.9865L11.8607 18.9729L9.2268 16.3437C8.56482 17.0589 8.19824 17.9983 8.20082 18.9728C8.20082 19.0646 8.20402 19.1559 8.21041 19.2466C8.67695 19.1618 9.15668 19.1843 9.61321 19.3125C10.0697 19.4407 10.4911 19.6712 10.8452 19.9865Z" fill="#185850"/>
<path d="M8.24768 19.5775C8.36535 20.3347 8.70631 21.0396 9.22691 21.6019L10.6102 20.221C10.2932 19.9381 9.91475 19.7327 9.50475 19.621C9.09475 19.5094 8.66442 19.4945 8.24768 19.5775ZM13.1166 17.7192C12.7986 17.3692 12.5661 16.9502 12.4373 16.4953C12.3085 16.0403 12.2869 15.5616 12.3742 15.0969C12.2815 15.0902 12.1887 15.0869 12.0958 15.0869C11.1207 15.0852 10.1806 15.4501 9.46195 16.1091L12.0958 18.7381L13.1166 17.7192Z" fill="#185850"/>
<path d="M14.7295 16.1095C14.1657 15.5919 13.4613 15.2528 12.705 15.1351C12.6236 15.5501 12.6397 15.9783 12.7519 16.386C12.8641 16.7938 13.0695 17.1699 13.3518 17.4848L14.7295 16.1095ZM15.9431 18.3641C15.8249 17.6085 15.4842 16.9051 14.9646 16.3439L13.5867 17.7192C13.903 18.0014 14.2804 18.2065 14.6892 18.3184C15.098 18.4302 15.5272 18.4459 15.9431 18.3641ZM18.5267 13.9513L18.5622 13.8745L18.4939 13.8431C18.5041 13.8795 18.515 13.9155 18.5267 13.9513ZM21.1818 15.1743C21.2169 15.1598 21.252 15.1444 21.287 15.1282L21.2178 15.0963L21.1818 15.1743ZM18.4133 12.5596C18.3743 12.8515 18.3735 13.1473 18.4112 13.4395L18.7014 13.573L19.0367 12.8464L18.4133 12.5596ZM19.7181 15.2537C20.0519 15.367 20.4105 15.3857 20.7544 15.308L20.9162 14.9576L20.0408 14.5548L19.7181 15.2537ZM18.8638 14.0133L18.7024 14.3629C18.8659 14.675 19.1132 14.9354 19.4166 15.1147L19.7392 14.416L18.8638 14.0133ZM21.3569 14.7949L21.6466 14.9282C21.8932 14.7666 22.1179 14.5739 22.3153 14.3549L21.6924 14.0683L21.3569 14.7949ZM20.5155 13.5267L20.18 14.2533L21.0554 14.6561L21.3909 13.9295L20.5155 13.5267Z" fill="#185850"/>
<path d="M22.5539 8.71647C22.2317 8.56906 21.8814 8.49353 21.5271 8.49514C20.2073 8.49514 18.8005 9.48848 18.0679 11.075C17.5406 12.2168 17.4539 13.4561 17.8298 14.475C18.0952 15.1941 18.5639 15.7253 19.1852 16.0112C20.7302 16.7221 22.7425 15.6639 23.6712 13.6527C24.1984 12.5108 24.2851 11.2716 23.9092 10.2527C23.6438 9.5335 23.1752 9.00229 22.5539 8.71647ZM23.286 13.4758C22.6584 14.8346 21.4506 15.6846 20.3149 15.6846C20.0078 15.686 19.7042 15.6205 19.425 15.4927C18.8845 15.244 18.4776 14.7842 18.2484 14.163C17.9267 13.2913 18.0013 12.2301 18.4531 11.2517C19.2496 9.52663 20.9818 8.62181 22.3141 9.23478C22.8546 9.48347 23.2615 9.94326 23.4907 10.5644C23.8124 11.4362 23.7378 12.4973 23.286 13.4758V13.4758Z" fill="#185850"/>
<path d="M23.1141 10.9841L22.7787 11.7107L23.3445 11.971C23.3685 11.6675 23.3493 11.3621 23.2876 11.0639L23.1141 10.9841ZM22.3039 12.7388L23.0842 13.0977C23.183 12.8455 23.2559 12.5839 23.302 12.317L22.6395 12.0122L22.3039 12.7388ZM21.8291 13.7668L22.5321 14.0902C22.6943 13.8753 22.8348 13.6449 22.9515 13.4023L22.1646 13.0404L21.8291 13.7668ZM21.1607 11.3319L20.2853 10.9291L19.9498 11.6557L20.8252 12.0585L21.1607 11.3319ZM22.8124 10.8454L21.937 10.4426L21.6015 11.1692L22.4769 11.5719L22.8124 10.8454ZM19.0004 13.7118L19.8758 14.1145L20.2113 13.388L19.3359 12.9852L19.0004 13.7118ZM19.509 11.8182L18.723 11.4566C18.614 11.7026 18.5293 11.9588 18.4703 12.2213L19.1735 12.5448L19.509 11.8182ZM22.3377 11.8734L21.4623 11.4706L21.1268 12.1972L22.0022 12.6L22.3377 11.8734ZM22.0181 9.47503C21.8244 9.40766 21.6208 9.37351 21.4158 9.37403C21.2698 9.37457 21.1242 9.39041 20.9815 9.42128L20.8991 9.59961L21.7745 10.0024L22.0181 9.47503ZM21.863 12.9014L20.9876 12.4987L20.6521 13.2253L21.5275 13.628L21.863 12.9014ZM19.9836 10.7903L19.3236 10.4868C19.1497 10.6948 18.9974 10.9198 18.8689 11.1585L19.6482 11.5171L19.9836 10.7903ZM20.4583 9.76227L20.2865 9.68328C20.0201 9.83089 19.7756 10.0149 19.56 10.23L20.1228 10.489L20.4583 9.76227ZM21.2999 11.0304L21.6354 10.3038L20.76 9.90106L20.4245 10.6276L21.2999 11.0304Z" fill="#185850"/>
</g>
<defs>
<clipPath id="clip0_821_3438">
<rect width="17" height="17" fill="white" transform="translate(7.66956 7.50098)"/>
</clipPath>
</defs>
</svg>
