<svg width="37" height="37" viewBox="0 0 37 37" fill="none" xmlns="http://www.w3.org/2000/svg">
<rect width="37" height="37" rx="18.5" fill="#185850"/>
<path d="M13.3246 12.9408C13.4887 13.0332 14.5932 13.5668 15.1269 13.8238C15.1289 14.0309 15.1335 14.3891 15.1406 14.3951C15.1994 14.908 15.3003 15.4778 15.3296 15.6387C15.2811 15.6656 15.0317 15.8287 15.0317 16.3359L15.0324 16.3443C15.032 16.3576 15.0317 16.371 15.0317 16.3848C15.139 17.7946 15.6997 17.187 15.8153 17.8045C16.0076 18.8313 16.9167 19.5741 17.4826 19.8306C17.8097 19.9787 18.1463 20.0543 18.5 20.0615C18.8538 20.0543 19.1904 19.9787 19.5174 19.8306C20.0833 19.5741 20.9924 18.8312 21.1847 17.8045C21.3003 17.187 21.861 17.7946 21.9684 16.3848C21.9684 16.371 21.968 16.3576 21.9677 16.3443L21.9684 16.3359C21.9684 15.8287 21.7189 15.6656 21.6705 15.6387C21.6997 15.4778 21.8007 14.9081 21.8595 14.3951C21.8665 14.3891 21.8711 14.0309 21.8732 13.8238C22.2554 13.6398 22.6372 13.4549 23.0186 13.269V14.6318C22.9111 14.6953 22.8355 14.8073 22.8355 14.9409C22.8355 15.0591 22.8955 15.1593 22.983 15.2255C22.983 15.2255 22.8274 16.0997 22.7772 16.3568C22.7269 16.6138 23.664 16.5623 23.6218 16.3568C23.5797 16.1513 23.4161 15.2255 23.4161 15.2255C23.5037 15.1593 23.5636 15.0591 23.5636 14.9409C23.5636 14.8073 23.4884 14.6953 23.3809 14.6318V13.0909C23.5252 13.0193 23.6326 12.9649 23.6755 12.9408C23.7916 12.8755 23.8541 12.7919 23.8409 12.705C23.8568 12.6145 23.7913 12.5172 23.6156 12.4311C22.3614 11.8172 19.1642 10.2526 18.848 10.1018C18.7101 10.036 18.5966 10.0069 18.5 10C18.4035 10.0069 18.2899 10.036 18.152 10.1018C17.8359 10.2526 14.6386 11.8173 13.3845 12.4311C13.2087 12.5172 13.1433 12.6145 13.1592 12.705C13.1459 12.7919 13.2085 12.8755 13.3246 12.9408ZM22.7565 21.759C22.1665 21.5463 21.1395 20.933 20.9635 20.8384C20.9165 20.8109 20.863 20.7964 20.8085 20.7964C20.75 20.7964 20.6926 20.8131 20.6432 20.8445C20.5937 20.8759 20.5543 20.9207 20.5293 20.9737C20.0429 21.7881 19.141 24.1563 18.5117 24.2002C18.5079 24.1999 18.5039 24.1991 18.5 24.1987C18.4961 24.1991 18.4922 24.1999 18.4883 24.2002C17.859 24.1563 16.9572 21.7881 16.4707 20.9737C16.4458 20.9207 16.4063 20.8759 16.3569 20.8445C16.3074 20.8131 16.2501 20.7964 16.1915 20.7964C16.137 20.7964 16.0835 20.8109 16.0365 20.8384C15.8605 20.933 14.8335 21.5463 14.2436 21.759C12.2631 22.4731 11.3724 23.2014 11.3724 23.698V27H25.6276V23.698C25.6276 23.2014 24.7369 22.4731 22.7565 21.759Z" fill="white"/>
</svg>
