<svg width="59" height="59" viewBox="0 0 59 59" fill="none" xmlns="http://www.w3.org/2000/svg">
<rect width="59" height="59" rx="29.5" fill="#2D945C"/>
<g clip-path="url(#clip0_1_5389)">
<path d="M30.8859 24.4984L39.8062 32.149C39.7031 32.207 39.6 32.2779 39.4969 32.3424C38.3367 33.1416 36.9123 33.6508 35.6812 33.6508C34.4179 33.6508 33.0515 33.1545 31.8656 32.3424C30.4412 31.3434 28.5398 31.3434 27.1154 32.3424C26.0133 33.1029 24.6662 33.6508 23.2998 33.6508C22.6488 33.6508 21.9398 33.509 21.2437 33.2512C21.45 25.4523 27.8373 19.1875 35.6877 19.1875H39.8127C40.9535 19.1875 41.8752 20.1092 41.8752 21.25C41.8752 22.3908 40.9535 23.3125 39.8127 23.3125H35.6877C33.9539 23.3125 32.3168 23.7379 30.8859 24.4984ZM21.2502 23.3125C21.2502 24.4065 20.8156 25.4557 20.042 26.2293C19.2684 27.0029 18.2192 27.4375 17.1252 27.4375C16.0312 27.4375 14.9819 27.0029 14.2084 26.2293C13.4348 25.4557 13.0002 24.4065 13.0002 23.3125C13.0002 22.2185 13.4348 21.1693 14.2084 20.3957C14.9819 19.6221 16.0312 19.1875 17.1252 19.1875C18.2192 19.1875 19.2684 19.6221 20.042 20.3957C20.8156 21.1693 21.2502 22.2185 21.2502 23.3125ZM30.6926 34.0053C32.1427 35.0043 33.9152 35.6875 35.6877 35.6875C37.4215 35.6875 39.2584 34.9914 40.6763 34.0053C41.4433 33.4574 42.4875 33.5025 43.2029 34.1148C44.131 34.8818 45.2976 35.4684 46.4642 35.7391C47.5728 35.9969 48.2625 37.1055 48.0047 38.2141C47.7468 39.3227 46.6383 40.0123 45.5297 39.7545C43.9506 39.3871 42.6357 38.691 41.7785 38.1432C39.9094 39.1486 37.8146 39.8125 35.6877 39.8125C33.6316 39.8125 31.7818 39.1744 30.5056 38.5943C30.1318 38.4203 29.7902 38.2527 29.5002 38.098C29.2101 38.2527 28.875 38.4268 28.4947 38.5943C27.2185 39.1744 25.3687 39.8125 23.3127 39.8125C21.1857 39.8125 19.091 39.1486 17.2219 38.1496C16.3582 38.691 15.0498 39.3936 13.4707 39.7609C12.3621 40.0188 11.2535 39.3291 10.9957 38.2205C10.7379 37.1119 11.4275 36.0033 12.5361 35.7455C13.7027 35.4748 14.8693 34.8883 15.7974 34.1213C16.5129 33.5154 17.557 33.4703 18.324 34.0117C19.7484 34.9914 21.5789 35.6875 23.3127 35.6875C25.0851 35.6875 26.8576 35.0043 28.3078 34.0053C29.0232 33.4961 29.9771 33.4961 30.6926 34.0053Z" fill="white"/>
</g>
<defs>
<clipPath id="clip0_1_5389">
<rect width="37.13" height="33" fill="white" transform="translate(10.9351 13)"/>
</clipPath>
</defs>
</svg>
