<svg width="59" height="59" viewBox="0 0 59 59" fill="none" xmlns="http://www.w3.org/2000/svg">
<rect width="59" height="59" rx="29.5" fill="#2D945C"/>
<path d="M17.4002 15.1992C17.4002 15.1992 15.2002 15.1992 15.2002 17.3992V28.7468C15.2002 32.5528 15.979 37.1992 22.9002 37.1992H24.0002V30.5992L18.5002 32.7992C18.5002 32.7992 18.5002 27.2992 24.0002 27.2992V23.9992C24.0002 22.4416 24.1916 21.0952 25.1002 20.0942C25.9384 19.1702 27.3112 17.3266 30.9434 19.058L32.8002 20.2658V17.3992C32.8002 17.3992 32.8002 15.1992 30.6002 15.1992C29.0426 15.1992 26.2486 17.3992 24.0002 17.3992C21.7518 17.3992 19.1316 15.1992 17.4002 15.1992ZM19.6002 19.5992C20.1837 19.5992 20.7433 19.831 21.1558 20.2436C21.5684 20.6562 21.8002 21.2157 21.8002 21.7992C21.8002 22.3827 21.5684 22.9423 21.1558 23.3549C20.7433 23.7674 20.1837 23.9992 19.6002 23.9992C19.0167 23.9992 18.4571 23.7674 18.0446 23.3549C17.632 22.9423 17.4002 22.3827 17.4002 21.7992C17.4002 21.2157 17.632 20.6562 18.0446 20.2436C18.4571 19.831 19.0167 19.5992 19.6002 19.5992ZM28.4002 21.7992C28.4002 21.7992 26.2002 21.7992 26.2002 23.9992V34.9992C26.2002 39.3992 28.4002 43.7992 35.0002 43.7992C41.6002 43.7992 43.8002 39.3992 43.8002 34.9992V23.9992C43.8002 21.7992 41.6002 21.7992 41.6002 21.7992C40.0426 21.7992 37.2486 23.9992 35.0002 23.9992C32.7518 23.9992 30.1316 21.7992 28.4002 21.7992ZM30.6002 26.1992C31.1837 26.1992 31.7432 26.431 32.1558 26.8436C32.5684 27.2562 32.8002 27.8157 32.8002 28.3992C32.8002 28.9827 32.5684 29.5423 32.1558 29.9549C31.7432 30.3674 31.1837 30.5992 30.6002 30.5992C30.0167 30.5992 29.4571 30.3674 29.0446 29.9549C28.632 29.5423 28.4002 28.9827 28.4002 28.3992C28.4002 27.8157 28.632 27.2562 29.0446 26.8436C29.4571 26.431 30.0167 26.1992 30.6002 26.1992ZM39.4002 26.1992C39.9837 26.1992 40.5433 26.431 40.9558 26.8436C41.3684 27.2562 41.6002 27.8157 41.6002 28.3992C41.6002 28.9827 41.3684 29.5423 40.9558 29.9549C40.5433 30.3674 39.9837 30.5992 39.4002 30.5992C38.8167 30.5992 38.2571 30.3674 37.8446 29.9549C37.432 29.5423 37.2002 28.9827 37.2002 28.3992C37.2002 27.8157 37.432 27.2562 37.8446 26.8436C38.2571 26.431 38.8167 26.1992 39.4002 26.1992ZM29.5002 34.9992H40.5002C40.5002 34.9992 40.5002 40.4992 35.0002 40.4992C29.5002 40.4992 29.5002 34.9992 29.5002 34.9992Z" fill="white"/>
</svg>
