<svg width="40" height="40" viewBox="0 0 40 40" fill="none" xmlns="http://www.w3.org/2000/svg">
<rect width="40" height="40" rx="20" fill="#2D945C"/>
<path d="M27.5002 20.5C25.1518 20.5 23.1128 21.8499 22.1285 23.8185L11.2304 12.921L11.2586 12.8929L14.0756 10.0759C18.1771 5.9747 24.8237 5.9747 28.9251 10.0759C32.0703 13.221 32.8015 17.8706 31.1188 21.714C30.1157 20.95 28.8595 20.5 27.5002 20.5ZM10.3117 14.1209L21.5988 25.4074C21.5332 25.759 21.5004 26.1246 21.5004 26.4995C21.5004 27.5869 21.791 28.604 22.2925 29.4852C22.1519 29.4946 22.0066 29.4993 21.8613 29.4993H21.7347C20.1457 29.4993 18.6177 28.8665 17.4927 27.7416L17.0333 27.2823C16.4193 26.6683 15.4115 26.7011 14.8397 27.362L12.1351 30.4836C11.8632 30.7976 11.4695 30.9851 11.057 30.9991C10.6445 31.0132 10.2367 30.8538 9.94141 30.5586L8.44147 29.0587C8.14616 28.7634 7.9868 28.3603 8.00086 27.9478C8.01492 27.5354 8.20241 27.1417 8.51646 26.8698L11.6382 24.1653C12.2945 23.5935 12.332 22.5858 11.7179 21.9718L11.2586 21.5124C10.1336 20.3829 9.5008 18.8549 9.5008 17.2659V17.1394C9.5008 16.0707 9.78673 15.0349 10.3117 14.1256V14.1209ZM27.5002 21.9999C28.6936 21.9999 29.8381 22.474 30.682 23.3178C31.5259 24.1617 32 25.3062 32 26.4995C32 27.6929 31.5259 28.8374 30.682 29.6812C29.8381 30.5251 28.6936 30.9991 27.5002 30.9991C26.3067 30.9991 25.1622 30.5251 24.3183 29.6812C23.4744 28.8374 23.0003 27.6929 23.0003 26.4995C23.0003 25.3062 23.4744 24.1617 24.3183 23.3178C25.1622 22.474 26.3067 21.9999 27.5002 21.9999Z" fill="white"/>
</svg>
