<svg width="59" height="59" viewBox="0 0 59 59" fill="none" xmlns="http://www.w3.org/2000/svg">
<g clip-path="url(#clip0_662_3191)">
<path d="M59 29.5C59 13.2076 45.7924 0 29.5 0C13.2076 0 0 13.2076 0 29.5C0 45.7924 13.2076 59 29.5 59C45.7924 59 59 45.7924 59 29.5Z" fill="#2D945C"/>
<path d="M30.2421 36.6861C30.6452 33.7426 29.8868 31.337 29.5817 30.525C28.586 30.3482 25.6647 29.6634 22.9936 27.4438C22.9708 27.431 22.9457 27.4234 22.9242 27.407C22.8915 27.382 22.8722 27.3481 22.8466 27.3184C21.5463 26.206 20.3161 24.7266 19.4107 22.7515C18.7732 23.6813 18.2557 24.6998 17.8789 25.7842C18.5066 31.9687 25.2464 35.8257 30.2421 36.6861Z" fill="white"/>
<path d="M30.0274 37.8322C25.3263 37.0121 19.2071 33.69 17.2763 28.3408C17.2063 28.8845 17.166 29.4375 17.166 29.9998C17.166 36.2981 21.7043 41.5329 27.6888 42.6214C28.9523 41.0132 29.6628 39.3722 30.0274 37.8322Z" fill="white"/>
<path d="M35.6789 26.4727C32.936 27.6008 31.214 29.4494 30.6657 30.1033C31.0116 31.0594 31.8779 33.9323 31.2887 37.3547C31.2887 37.3787 31.2969 37.4008 31.2934 37.4253C31.2875 37.472 31.2677 37.5128 31.2514 37.5548C30.9369 39.2307 30.2714 41.0286 29.0195 42.7932C29.3439 42.8177 29.6705 42.834 30.0007 42.834C30.8249 42.834 31.6299 42.7535 32.411 42.6047C37.4429 38.9747 37.4219 31.2315 35.6789 26.4732V26.4727Z" fill="white"/>
<path d="M36.7765 26.0813C38.4104 30.566 38.586 37.5164 34.918 41.8558C39.5648 39.9261 42.8332 35.3458 42.8332 30.0007C42.8332 28.4887 42.5696 27.0391 42.0895 25.6922C40.0741 25.4058 38.2972 25.6193 36.7765 26.0819V26.0813Z" fill="white"/>
<path d="M41.578 24.4574C41.0816 23.422 40.4481 22.4659 39.7049 21.6072C34.039 19.0668 27.3371 22.9699 24.0938 26.8619C26.437 28.6778 28.8952 29.2337 29.7538 29.376C30.4077 28.5996 32.4657 26.4075 35.7283 25.2058C35.7482 25.1947 35.7627 25.1772 35.7843 25.1685C35.8158 25.1556 35.8479 25.1568 35.88 25.1498C37.4976 24.5764 39.4051 24.2526 41.578 24.4574Z" fill="white"/>
<path d="M23.2063 26.1027C26.2688 22.4423 32.2036 18.8087 37.7989 19.8114C35.6371 18.1536 32.9339 17.166 29.9986 17.166C26.0868 17.166 22.5868 18.9183 20.2324 21.6781C20.9937 23.5768 22.0536 25.0165 23.2057 26.1021L23.2063 26.1027Z" fill="white"/>
</g>
<defs>
<clipPath id="clip0_662_3191">
<rect width="59" height="59" fill="white"/>
</clipPath>
</defs>
</svg>
