<svg width="40" height="40" viewBox="0 0 40 40" fill="none" xmlns="http://www.w3.org/2000/svg">
<rect width="40" height="40" rx="20" fill="#2D945C"/>
<path d="M17.3096 8.01379C16.9571 8.05526 16.475 8.24706 16.1795 8.46478C15.6611 8.84839 15.3501 9.44972 15.3034 10.1599C15.2205 11.29 15.9307 12.2801 17.0245 12.5652C17.8643 12.7829 18.7248 12.5341 19.3054 11.9069C19.9171 11.2485 20.0985 10.3724 19.7978 9.50674C19.632 9.02464 19.2535 8.56328 18.8129 8.2989C18.4656 8.09673 17.7502 7.95677 17.3096 8.01379Z" fill="white"/>
<path d="M7.7979 9.5679C8.04154 10.1433 8.13485 10.5165 8.13485 10.9364C8.13485 11.1853 8.09857 11.4963 8.0571 11.6363C8.01562 11.7762 7.97934 11.9162 7.97934 11.9525C7.97934 12.0769 8.50291 12.5797 8.80357 12.7404C9.0524 12.87 9.64854 13.0515 9.8559 13.0566C9.87663 13.0566 9.93884 12.927 9.99586 12.7767C10.3898 11.7244 9.9492 10.4543 8.97464 9.83746C8.70508 9.6664 8.15559 9.47978 7.91713 9.47978C7.78753 9.47978 7.7668 9.49533 7.7979 9.5679Z" fill="white"/>
<path d="M6.8031 9.62999C6.32618 9.80624 5.73522 10.3091 5.5175 10.7238C5.24276 11.2525 5.14426 12.0405 5.28941 12.5537L5.34125 12.7559L5.63673 12.4759C5.79743 12.3204 6.0307 12.1286 6.14993 12.056C6.42986 11.8798 7.08303 11.6569 7.32148 11.6569C7.46663 11.6569 7.5081 11.631 7.52884 11.5377C7.6066 11.2318 7.62215 10.8741 7.57031 10.5942C7.51847 10.2935 7.18152 9.5315 7.10895 9.5315C7.08821 9.53668 6.95343 9.57815 6.8031 9.62999Z" fill="white"/>
<path d="M6.90812 12.3045C6.78889 12.3408 6.58672 12.429 6.4623 12.5015C6.21348 12.6467 5.64844 13.2273 5.64844 13.3361C5.64844 13.445 6.22903 13.9686 6.51933 14.1137C7.43169 14.5751 8.50474 14.4662 9.27196 13.8286C9.50523 13.6368 9.54152 13.5228 9.38082 13.5228C9.16309 13.5228 8.46327 13.2065 8.17816 12.9784C8.01228 12.8489 7.79456 12.6311 7.68569 12.486C7.51463 12.2579 7.46797 12.2268 7.30727 12.232C7.20878 12.232 7.02734 12.2631 6.90812 12.3045Z" fill="white"/>
<path d="M14.3443 13.3112C14.1836 13.363 13.8985 13.5134 13.7119 13.6481C13.3905 13.8762 13.1779 14.068 11.9027 15.2707L11.3428 15.7995L10.192 16.2504C9.55958 16.4993 9.06711 16.7118 9.09822 16.7222C9.12932 16.7325 10.135 16.6133 11.3273 16.4578L13.4993 16.1727L14.6138 15.6802C15.2204 15.4055 15.7284 15.1929 15.7336 15.1981C15.7439 15.2085 15.2463 15.5817 14.6294 16.0327L13.5097 16.8518L11.1873 17.1524C9.73583 17.3442 8.8131 17.4842 8.71461 17.536C8.4606 17.6656 8.19623 18.013 8.1392 18.2981C7.98887 18.9927 8.51244 19.6873 9.19153 19.6925C9.30557 19.6925 10.4927 19.5526 11.8353 19.3763C13.5926 19.1482 14.3235 19.0342 14.4583 18.9668C14.5568 18.915 15.35 18.3551 16.2208 17.7227C17.0917 17.0902 17.8382 16.5459 17.8797 16.5148C17.9211 16.4837 17.3406 17.0799 16.5941 17.8367L15.2255 19.2104L15.5677 19.9984C15.7543 20.4286 15.9098 20.8071 15.9098 20.833C15.9098 20.8537 15.2929 22.16 14.5413 23.7256C13.7896 25.2963 13.1468 26.6648 13.1105 26.7685C13.0224 27.0329 13.0691 27.5513 13.2038 27.8105C13.3438 28.0904 13.66 28.3651 13.971 28.4844C14.2095 28.5777 14.4169 28.5829 17.6464 28.5829H21.0677L21.3632 28.4377C22.4104 27.9245 22.4674 26.5145 21.4669 25.9235L21.2233 25.7836L18.989 25.7576L16.7496 25.7317L17.5635 24.0418L18.3721 22.357L19.243 22.2585C20.0984 22.1652 20.1191 22.1652 20.2072 22.2637C20.2591 22.3156 20.9485 23.2487 21.7417 24.3321C22.54 25.4155 23.245 26.3745 23.3175 26.4627C23.5612 26.7581 29.5589 31.7813 29.8026 31.8902C30.2743 32.1027 30.9275 31.999 31.3422 31.6465C31.8605 31.2111 31.9279 30.2261 31.4769 29.6974C31.3784 29.5885 29.9944 28.3962 28.4029 27.0484L25.4999 24.6068L24.4269 23.1502L23.3538 21.6987L21.7831 18.4277C20.9122 16.6289 20.1347 15.0115 20.0517 14.8404C19.8495 14.4154 19.5074 14.0421 19.1394 13.8503C18.7765 13.6585 18.7817 13.6585 17.4909 13.4978C16.9207 13.4252 16.2001 13.3319 15.8839 13.2905C15.1374 13.192 14.7072 13.1972 14.3443 13.3112Z" fill="white"/>
<path d="M7.36719 17.3553C6.53777 17.687 6.33041 17.8218 6.16971 18.1536C5.79648 18.9208 6.34597 19.7969 7.2013 19.7969C7.40347 19.7969 7.77153 19.7036 7.77153 19.6569C7.77153 19.6414 7.70932 19.4962 7.63156 19.3407C7.52789 19.123 7.48642 18.9571 7.47086 18.6357C7.44494 18.0966 7.57972 17.713 7.91668 17.3501C8.04627 17.2101 8.13958 17.0909 8.12921 17.0805C8.11885 17.0702 7.77671 17.1946 7.36719 17.3553Z" fill="white"/>
</svg>
