<svg width="14" height="19" viewBox="0 0 14 19" fill="none" xmlns="http://www.w3.org/2000/svg">
<mask id="mask0_662_3103" style="mask-type:luminance" maskUnits="userSpaceOnUse" x="0" y="0" width="14" height="14">
<path d="M0.5 0.645569H13.5V13.7251H0.5V0.645569Z" fill="white"/>
</mask>
<g mask="url(#mask0_662_3103)">
<path d="M13.5075 5.28694L12.4608 4.24077L11.7131 2.29688L10.2178 1.92306L8.79783 0.652588L6.96395 1.09103L5.20965 0.652588L3.78912 1.92306L2.29382 2.29688L1.54671 4.24077L0.5 5.28694L1.02335 7.15553L0.5 8.87512L1.771 10.2209L2.29382 11.9405L3.93918 12.3885L5.35918 13.6595L7.00347 13.3017L8.64883 13.6595L10.0688 12.3885L11.7131 11.9405L12.2365 10.2209L13.5075 8.87512L12.9847 7.15553L13.5075 5.28694ZM7.07877 11.7156C6.92924 11.7156 6.78024 11.7087 6.63178 11.6938C6.48279 11.6793 6.33539 11.6574 6.18907 11.6281C6.04274 11.5992 5.89802 11.5629 5.7549 11.5197C5.61178 11.4764 5.47133 11.4257 5.33355 11.3685C5.19576 11.3114 5.06065 11.2478 4.92875 11.1773C4.79737 11.1068 4.66921 11.0305 4.54531 10.9472C4.42088 10.8644 4.30126 10.7757 4.18591 10.6807C4.07002 10.5862 3.95947 10.4858 3.85427 10.38C3.74853 10.2748 3.64813 10.1643 3.55361 10.0489C3.45855 9.93304 3.3699 9.81341 3.28713 9.68898C3.20382 9.56509 3.12745 9.43692 3.05696 9.30555C2.98646 9.17364 2.92291 9.03906 2.86577 8.90075C2.80863 8.76297 2.75843 8.62252 2.71464 8.4794C2.67138 8.33681 2.63507 8.19209 2.60623 8.04523C2.57686 7.8989 2.55496 7.75151 2.54055 7.60251C2.52559 7.45405 2.51865 7.30506 2.51865 7.15553C2.51865 7.00653 2.52559 6.85753 2.54055 6.70854C2.55496 6.56008 2.57686 6.41268 2.60623 6.26636C2.63507 6.1195 2.67138 5.97478 2.71464 5.83219C2.75843 5.68907 2.80863 5.54862 2.86577 5.41083C2.92291 5.27252 2.98646 5.13794 3.05696 5.00604C3.12745 4.87466 3.20382 4.7465 3.28713 4.62207C3.3699 4.49817 3.45855 4.37801 3.55361 4.26266C3.64813 4.14731 3.74853 4.03676 3.85427 3.93103C3.95947 3.82582 4.07002 3.72542 4.18591 3.6309C4.30126 3.53584 4.42088 3.44719 4.54531 3.36388C4.66921 3.28111 4.79737 3.2042 4.92875 3.13425C5.06065 3.06375 5.19576 2.99967 5.33355 2.94253C5.47133 2.88539 5.61178 2.83519 5.7549 2.79193C5.89802 2.74867 6.04274 2.71236 6.18907 2.68299C6.33539 2.65415 6.48279 2.63225 6.63178 2.6173C6.78024 2.60288 6.92924 2.59541 7.07877 2.59541C7.22777 2.59541 7.37676 2.60288 7.52576 2.6173C7.67422 2.63225 7.82161 2.65415 7.96847 2.68299C8.1148 2.71236 8.25952 2.74867 8.40211 2.79193C8.54523 2.83519 8.68568 2.88539 8.82346 2.94253C8.96177 2.99967 9.09635 3.06375 9.22826 3.13425C9.36016 3.2042 9.4878 3.28111 9.61223 3.36388C9.73612 3.44719 9.85628 3.53584 9.97163 3.6309C10.087 3.72542 10.1975 3.82582 10.3033 3.93103C10.4085 4.03676 10.5089 4.14731 10.6034 4.26266C10.6985 4.37801 10.7871 4.49817 10.8704 4.62207C10.9532 4.7465 11.0301 4.87466 11.1 5.00604C11.1705 5.13794 11.2346 5.27252 11.2918 5.41083C11.3489 5.54862 11.3991 5.68907 11.4424 5.83219C11.4856 5.97478 11.5219 6.1195 11.5513 6.26636C11.5801 6.41268 11.602 6.56008 11.617 6.70854C11.6314 6.85753 11.6389 7.00653 11.6389 7.15553C11.6389 7.30506 11.6314 7.45405 11.617 7.60251C11.602 7.75151 11.5801 7.8989 11.5513 8.04523C11.5219 8.19209 11.4856 8.33681 11.4424 8.4794C11.3991 8.62252 11.3489 8.76297 11.2918 8.90075C11.2346 9.03906 11.1705 9.17364 11.1 9.30555C11.0301 9.43692 10.9532 9.56509 10.8704 9.68898C10.7871 9.81341 10.6985 9.93304 10.6034 10.0489C10.5089 10.1643 10.4085 10.2748 10.3033 10.38C10.1975 10.4858 10.087 10.5862 9.97163 10.6807C9.85628 10.7757 9.73612 10.8644 9.61223 10.9472C9.4878 11.0305 9.36016 11.1068 9.22826 11.1773C9.09635 11.2478 8.96177 11.3114 8.82346 11.3685C8.68568 11.4257 8.54523 11.4764 8.40211 11.5197C8.25952 11.5629 8.1148 11.5992 7.96847 11.6281C7.82161 11.6574 7.67422 11.6793 7.52576 11.6938C7.37676 11.7087 7.22777 11.7156 7.07877 11.7156Z" fill="white"/>
</g>
<path d="M9.3212 4.68927C9.20959 4.68981 9.10278 4.7117 9.00024 4.75603C8.89771 4.79982 8.80799 4.86176 8.73056 4.9424L6.18481 7.30444L5.27429 6.43183C5.23477 6.3907 5.19098 6.35439 5.14398 6.32235C5.09699 6.29031 5.04679 6.2636 4.99392 6.24224C4.94158 6.22088 4.88711 6.20486 4.83104 6.19471C4.77496 6.18457 4.71836 6.1803 4.66175 6.18136C4.60461 6.18297 4.54853 6.19044 4.49299 6.20379C4.43745 6.21661 4.38405 6.2353 4.33278 6.25987C4.28098 6.2839 4.23292 6.31327 4.18753 6.34798C4.14213 6.38216 4.10048 6.42061 4.0631 6.46387C4.02571 6.50659 3.99314 6.55305 3.96537 6.60272C3.9376 6.65292 3.91517 6.70472 3.89861 6.75919C3.88152 6.81366 3.87031 6.8692 3.86497 6.92581C3.85963 6.98242 3.86016 7.03902 3.86657 7.09563C3.87298 7.15224 3.88526 7.20778 3.90342 7.26172C3.92104 7.31565 3.94454 7.36745 3.97284 7.41659C4.00168 7.46572 4.03533 7.51164 4.07324 7.55383C4.11116 7.59602 4.15335 7.63394 4.19927 7.66758L5.70579 9.10947C5.74584 9.15647 5.79016 9.19812 5.83983 9.23497C5.88896 9.27182 5.94183 9.30279 5.99844 9.32789C6.05451 9.35299 6.11272 9.37115 6.1736 9.3829C6.23395 9.39465 6.29483 9.39946 6.35624 9.39785C6.41819 9.39572 6.47853 9.38717 6.53835 9.37169C6.59762 9.3562 6.65477 9.33377 6.70924 9.30547C6.76424 9.27716 6.81498 9.24298 6.86197 9.20293C6.90897 9.16341 6.95062 9.11855 6.98747 9.06942L9.87286 6.11728C9.93427 6.06121 9.98607 5.99766 10.0288 5.92663C10.071 5.85507 10.1014 5.7787 10.1212 5.69806C10.1404 5.61742 10.1468 5.53572 10.1415 5.45294C10.1361 5.36963 10.118 5.28953 10.0886 5.21209C10.0587 5.13466 10.0176 5.06363 9.96631 4.99848C9.91505 4.93333 9.8547 4.87725 9.78634 4.83026C9.71799 4.78326 9.64376 4.74748 9.56472 4.72292C9.48515 4.69835 9.40397 4.68607 9.3212 4.6866V4.68927Z" fill="white"/>
<mask id="mask1_662_3103" style="mask-type:luminance" maskUnits="userSpaceOnUse" x="1" y="12" width="7" height="7">
<path d="M1.78711 12.7684H7.39233V18.3544H1.78711V12.7684Z" fill="white"/>
</mask>
<g mask="url(#mask1_662_3103)">
<path d="M3.34045 12.8371L1.91992 17.2477L4.53616 16.0515L5.80716 18.3692L7.30245 13.9586L5.13428 14.3324L3.34045 12.8371Z" fill="white"/>
</g>
<mask id="mask2_662_3103" style="mask-type:luminance" maskUnits="userSpaceOnUse" x="7" y="12" width="6" height="7">
<path d="M7.39258 12.7684H12.1775V18.3544H7.39258V12.7684Z" fill="white"/>
</mask>
<g mask="url(#mask2_662_3103)">
<path d="M9.02264 14.4813L8.0507 14.3323L7.52734 16.1267L8.27499 18.3691L9.54546 16.0514L12.1617 17.2476L10.7412 12.837L9.02264 14.4813Z" fill="white"/>
</g>
</svg>
