<svg width="36" height="34" viewBox="0 0 36 34" fill="none" xmlns="http://www.w3.org/2000/svg">
<path d="M19.4303 0.329541C19.3203 0.377641 19.1417 0.508198 19.0386 0.61814C18.7981 0.886125 17.1146 3.80647 17.149 3.90267C17.1833 3.97825 20.7015 6.0328 20.7358 5.99158C20.7839 5.92973 22.3575 3.1743 22.4812 2.9338C22.7629 2.37722 22.6323 1.68321 22.1651 1.25718C22.062 1.15411 21.6635 0.892996 21.2855 0.673111C20.6534 0.308927 20.5572 0.27457 20.1174 0.253956C19.8082 0.240213 19.5608 0.267699 19.4303 0.329541Z" fill="white"/>
<path d="M11.9178 12.8339C9.6434 16.7781 7.78125 20.0214 7.78125 20.0489C7.78125 20.0695 8.86693 20.0832 10.2 20.0763L12.6118 20.0557L16.1437 13.947C18.0815 10.5801 19.6688 7.79714 19.6688 7.75591C19.6688 7.69407 16.2262 5.66014 16.1094 5.66014C16.0819 5.66014 14.1991 8.8897 11.9178 12.8339Z" fill="white"/>
<path d="M10.6211 8.51227C10.1813 8.64283 10.0026 8.76651 8.07177 10.2232C6.23024 11.6044 5.6874 12.1129 5.14456 12.9443C4.68417 13.6315 0.980488 20.3448 0.863674 20.6884C0.698761 21.1694 0.767475 22.0902 1.00797 22.5505C1.35842 23.2446 2.01807 23.7324 2.59527 23.7324C2.96632 23.7324 3.39922 23.5194 3.60536 23.2446C3.9558 22.7704 12.119 8.53975 12.0778 8.47791C12.016 8.38171 10.9578 8.40233 10.6211 8.51227Z" fill="white"/>
<path d="M17.6566 15.2665C16.1586 17.8639 14.9287 20.0147 14.9287 20.0421C14.9287 20.0696 15.3684 20.0902 15.9113 20.0902C16.7496 20.0902 16.9145 20.1109 17.0863 20.2208C17.7116 20.6331 17.691 21.5745 17.0451 21.9249C16.832 22.0417 16.4747 22.0486 12.1114 22.083L7.40448 22.1173L7.08152 22.2754C6.36003 22.6327 5.87903 23.2511 5.72099 24.0276C5.49423 25.1476 6.14014 26.3364 7.21895 26.7692L7.61062 26.9273L12.2832 26.9616L16.9557 26.996L17.7803 27.4152C21.3259 29.2223 25.4763 29.4766 29.2418 28.116L29.6335 27.9717V21.2515V14.5244H28.8639H28.0943L24.26 12.5317C22.1574 11.4323 20.4189 10.539 20.4052 10.539C20.3983 10.539 19.1546 12.6691 17.6566 15.2665Z" fill="white"/>
<path d="M32.479 12.4566C32.2042 12.5254 31.9843 12.6834 31.8262 12.9239C31.7025 13.1094 31.6957 13.4461 31.6957 21.039C31.6957 29.7382 31.6682 29.1473 32.0942 29.4702C32.266 29.5939 32.4034 29.6077 33.7365 29.6283C35.3787 29.6489 35.5574 29.6145 35.8185 29.1954C35.9559 28.9755 35.9559 28.8724 35.9559 21.0528C35.9559 12.2093 35.9972 12.9033 35.4749 12.5803C35.2551 12.4429 35.1382 12.4292 33.9632 12.4154C33.2624 12.4085 32.5958 12.4292 32.479 12.4566Z" fill="white"/>
<path d="M3.50354 27.4086L2.93321 28.405L2.39037 30.6794C1.89563 32.7683 1.86127 32.9744 1.93686 33.2218C2.0468 33.5791 2.34227 33.7647 2.78891 33.7647C3.16684 33.7647 2.91947 33.9639 5.20764 31.8132C6.46511 30.6313 6.53382 30.5557 7.00795 29.7518L7.50956 28.9203L7.17973 28.831C6.68499 28.6936 6.03221 28.4118 5.6749 28.1782C5.20764 27.8759 4.58922 27.23 4.34185 26.7902C4.22503 26.584 4.12196 26.4123 4.10822 26.4123C4.09448 26.4123 3.82649 26.8589 3.50354 27.4086Z" fill="white"/>
<path d="M9.06699 30.1419L8.38672 31.3238L8.64783 31.5437C9.03263 31.8804 9.57547 32.059 10.187 32.059C11.2315 32.059 12.0286 31.523 12.4202 30.561L12.5714 30.1969L12.7294 30.5885C12.9562 31.1382 13.5334 31.7017 14.0694 31.901C15.0726 32.2858 16.282 31.9697 16.8866 31.1795C17.1821 30.7947 17.3951 30.2106 17.402 29.8052V29.4479L16.8798 29.2005L16.3575 28.9531H13.0455L9.74038 28.96L9.06699 30.1419Z" fill="white"/>
</svg>
