<svg width="17" height="25" viewBox="0 0 17 25" fill="none" xmlns="http://www.w3.org/2000/svg">
<path d="M9.82009 0.0736846C10.0011 0.116221 10.1767 0.175048 10.3459 0.251975C10.5151 0.328902 10.6753 0.421215 10.8265 0.528912C10.9776 0.637516 11.1161 0.759694 11.2437 0.895448C11.3704 1.0303 11.4835 1.17691 11.5813 1.33529C11.6799 1.49276 11.7614 1.65838 11.8274 1.83305C11.8926 2.00682 11.9406 2.18511 11.9704 2.36883C12.0012 2.55164 12.013 2.73627 12.0075 2.9218C12.0012 3.10824 11.9768 3.29105 11.9351 3.47206C11.8926 3.65306 11.8338 3.82864 11.7568 3.99788C11.6799 4.16711 11.5876 4.3273 11.4799 4.47844C11.3713 4.62958 11.2491 4.76805 11.1134 4.89566C10.9785 5.02236 10.831 5.13549 10.6735 5.23323C10.5161 5.33188 10.3495 5.41333 10.1758 5.4794C10.002 5.54456 9.82371 5.59253 9.63999 5.6224C9.45627 5.65317 9.27164 5.66493 9.08611 5.6595C8.90058 5.65317 8.71686 5.62873 8.53586 5.5871C8.35485 5.54456 8.18018 5.48574 8.01094 5.40881C7.8417 5.33188 7.68151 5.23957 7.53037 5.13097C7.37923 5.02327 7.23986 4.90109 7.11316 4.76534C6.98555 4.62958 6.87332 4.48297 6.77468 4.32549C6.67693 4.16802 6.59458 4.0015 6.52941 3.82773C6.46335 3.65397 6.41538 3.47568 6.38552 3.29196C6.35474 3.10914 6.34298 2.92452 6.34931 2.73808C6.35474 2.55255 6.37918 2.36973 6.42081 2.18873C6.46335 2.00772 6.52308 1.83215 6.5991 1.66291C6.67603 1.49367 6.76834 1.33348 6.87694 1.18234C6.98464 1.0312 7.10682 0.891828 7.24257 0.765124C7.37833 0.638421 7.52494 0.525293 7.68242 0.42755C7.8408 0.328902 8.00642 0.24745 8.18018 0.181383C8.35395 0.116221 8.53314 0.0682544 8.71596 0.0374836C8.89968 0.0076176 9.0843 -0.00414767 9.26983 0.0012826C9.45536 0.0076176 9.63908 0.0320534 9.82009 0.0736846Z" fill="#185850"/>
<path d="M11.0714 17.2602L12.4551 22.9039C12.6307 23.6216 13.2733 24.1031 13.981 24.1031C14.105 24.1031 14.2317 24.0877 14.3575 24.0569C15.201 23.8506 15.7169 22.999 15.5105 22.1555L13.8326 15.3126C13.6588 14.6076 13.0316 14.1152 12.3049 14.1152H10.3763L7.92188 17.2602H11.0714Z" fill="#185850"/>
<path d="M8.78496 14.1152H7.60571C7.60662 13.2075 7.71884 12.2762 7.86545 11.3911C7.2618 11.0816 6.72512 10.6481 6.31062 10.1277C5.67258 9.3222 5.45266 8.54931 5.37754 8.16106L5.37482 8.14839C5.25988 7.45514 5.72416 6.80623 6.40927 6.6931C6.47714 6.68134 6.54683 6.675 6.61561 6.675C7.22651 6.675 7.74689 7.11213 7.85369 7.71307L7.8564 7.72393C7.85912 7.7366 7.86817 7.77189 7.88265 7.81805C7.90618 7.89498 7.95958 8.04702 8.05551 8.22169C8.15235 8.39817 8.26638 8.55384 8.3967 8.69231C8.65645 7.485 8.1795 6.12565 7.16225 5.87225C6.08798 5.60436 4.53043 6.1881 3.89692 8.03073C3.04076 10.5684 2.85704 12.221 3.18195 15.0166C3.52224 16.766 4.60374 17.1597 5.63547 17.2249C5.74317 17.2484 5.85539 17.262 5.97033 17.262V17.2611H6.32962L8.78496 14.1152Z" fill="#185850"/>
<mask id="mask0_655_19498" style="mask-type:luminance" maskUnits="userSpaceOnUse" x="0" y="8" width="17" height="17">
<path d="M0 8.77344H17V24.7227H0V8.77344Z" fill="white"/>
</mask>
<g mask="url(#mask0_655_19498)">
<path d="M16.3607 12.0237H9.62819C9.28066 12.0237 8.99919 12.3052 8.99919 12.6527C8.99919 13.0003 9.28066 13.2817 9.62819 13.2817H9.74765L6.09497 17.9625C4.96459 17.9625 3.90118 17.9625 3.44505 17.9625C3.24052 17.9616 3.12829 17.9218 3.05408 17.882C2.94729 17.8231 2.89299 17.7426 2.85226 17.653C2.83325 17.6105 2.82239 17.5688 2.81696 17.5435C2.81425 17.5317 2.81244 17.5227 2.81244 17.5209C2.81244 17.52 2.81244 17.52 2.81244 17.52V17.5209L2.8052 17.4702L1.29471 9.33309C1.23136 8.9919 0.902834 8.76564 0.56164 8.82899C0.21954 8.89325 -0.0058116 9.22087 0.0575403 9.56297L1.56531 17.6865C1.5807 17.8078 1.63409 18.1046 1.8513 18.4376C1.98162 18.6331 2.17892 18.8386 2.45133 18.987C2.67397 19.1092 2.94186 19.1879 3.24233 19.2124L1.14357 24.1656C1.06212 24.3574 1.15172 24.5792 1.34358 24.6606C1.39155 24.6814 1.44223 24.6905 1.4911 24.6905C1.63771 24.6905 1.77799 24.6045 1.83863 24.4606L4.05866 19.2205C5.02794 19.2205 6.64613 19.2205 7.92131 19.2205L10.1404 24.4606C10.2011 24.6045 10.3413 24.6905 10.488 24.6905C10.5377 24.6905 10.5875 24.6814 10.6355 24.6606C10.8273 24.5792 10.9169 24.3574 10.8355 24.1656L8.74036 19.2205C9.38654 19.2205 9.82005 19.2205 9.82005 19.2205C10.1676 19.2205 10.4499 18.939 10.4499 18.5915C10.4499 18.244 10.1676 17.9625 9.82005 17.9625C9.82005 17.9625 8.50776 17.9625 7.05248 17.9625L10.7052 13.2817H16.3607C16.7082 13.2817 16.9897 13.0003 16.9897 12.6527C16.9897 12.3052 16.7082 12.0237 16.3607 12.0237Z" fill="#185850"/>
</g>
<path d="M12.6242 8.56055L12.2305 8.87369L12.5201 9.23751C12.6938 9.19587 12.8694 9.14881 13.0504 9.09632L12.6242 8.56055Z" fill="#185850"/>
<path d="M14.9135 11.8031L14.9009 11.7715L14.6085 11.0547L14.2148 11.3678L14.7877 11.7715L14.8755 11.833L14.9135 11.8031Z" fill="#185850"/>
<path d="M10.6465 11.7572C11.537 11.7572 12.5534 11.6051 13.7245 11.2594C14.2576 11.101 14.5616 10.5417 14.4042 10.0086C14.2467 9.47559 13.6865 9.17059 13.1534 9.32807C12.1335 9.63035 11.3063 9.74438 10.6465 9.74438C9.88628 9.74347 9.34869 9.59686 8.94958 9.40499C8.35498 9.11539 8.03098 8.70269 7.83187 8.3434C7.73413 8.16511 7.67349 8.00311 7.64001 7.89451C7.62281 7.84021 7.61286 7.79948 7.60743 7.77685C7.60471 7.76599 7.60381 7.75966 7.60381 7.75785H7.6029C7.50697 7.21574 6.99201 6.85101 6.44718 6.94151C5.89874 7.03292 5.52858 7.5506 5.61908 8.09904C5.639 8.1986 5.78289 9.05837 6.5051 9.97154C6.86621 10.4241 7.38026 10.8829 8.07261 11.2169C8.76224 11.5517 9.61839 11.7572 10.6384 11.7572C10.6411 11.7572 10.6438 11.7572 10.6465 11.7572Z" fill="#185850"/>
</svg>
