<svg width="18" height="18" viewBox="0 0 18 18" fill="none" xmlns="http://www.w3.org/2000/svg">
<path d="M3.54778 0.751335C3.36194 0.876358 3.32477 0.974349 3.32477 1.3528V1.70083H1.9529C0.64185 1.70083 0.57427 1.70421 0.469521 1.76841C0.246508 1.90695 0.243129 1.92723 0.260024 3.1707C0.27354 4.37362 0.287056 4.46485 0.489795 5.10348C0.993265 6.68147 2.26715 7.96211 3.86541 8.50275C4.25399 8.63453 4.63582 8.719 4.95682 8.74941C5.28121 8.77644 5.29472 8.7832 5.43664 8.97243C5.86577 9.5401 6.54495 10.1179 7.13628 10.4153C7.37956 10.5369 7.37618 10.52 7.29509 11.0911C7.13627 12.2163 6.7139 13.3009 6.06176 14.2707C5.95701 14.4295 5.81171 14.6255 5.74413 14.7032C5.67655 14.7843 5.62249 14.8586 5.62249 14.8654C5.62249 14.8721 7.09911 14.8789 8.90349 14.8789C12.0899 14.8789 12.1845 14.8755 12.1406 14.8181C12.1135 14.7809 12.0155 14.6525 11.9243 14.5275C11.1235 13.4699 10.5795 12.0743 10.468 10.7836L10.4443 10.5268L10.6606 10.4186C11.2553 10.1179 11.9344 9.5401 12.3636 8.97243C12.5055 8.7832 12.519 8.77644 12.8434 8.74941C13.901 8.6548 15.0803 8.10402 15.9048 7.31334C16.6312 6.61389 17.0942 5.86037 17.3679 4.91426C17.5233 4.38037 17.5503 4.08978 17.5503 3.01864C17.5503 1.91709 17.5503 1.91033 17.3273 1.76503C17.2361 1.70421 17.1449 1.70083 15.8541 1.70083H14.4754V1.3528C14.4754 0.974349 14.4383 0.876358 14.2524 0.751335C14.1578 0.690513 13.9923 0.687134 8.90011 0.687134C3.80797 0.687134 3.6424 0.690513 3.54778 0.751335ZM3.37208 2.78887C3.38221 2.8328 3.40587 3.04905 3.42614 3.27206C3.55792 4.61353 3.92623 6.08001 4.41619 7.21873L4.59865 7.63772L4.44322 7.59718C3.08824 7.23224 1.92925 6.12056 1.48322 4.75544C1.35482 4.35672 1.30075 3.99517 1.2771 3.32275L1.25345 2.71453H2.30431H3.35856L3.37208 2.78887ZM16.5231 3.32275C16.513 3.65727 16.4792 4.05599 16.4522 4.20805C16.2393 5.438 15.4418 6.55307 14.3234 7.1917C14.0463 7.35051 13.6307 7.52284 13.357 7.59718L13.2016 7.63772L13.384 7.21873C13.874 6.09014 14.2491 4.59325 14.3741 3.27206C14.3944 3.04905 14.418 2.8328 14.4281 2.78887L14.4417 2.71453H15.4959H16.5468L16.5231 3.32275ZM9.17381 3.09636C9.25828 3.1538 9.34952 3.28896 9.52522 3.62686L9.76175 4.08302L10.2348 4.15398C10.495 4.19453 10.7586 4.25197 10.8194 4.28238C10.9748 4.36348 11.0627 4.52229 11.0627 4.72165V4.88722L10.6673 5.28594L10.2754 5.68467L10.3497 6.13407C10.4376 6.68147 10.4376 6.7896 10.3531 6.92813C10.2686 7.06667 10.1537 7.14101 9.98815 7.16466C9.87664 7.17818 9.79554 7.14777 9.37993 6.93827L8.90349 6.69499L8.42029 6.93827C8.00806 7.14777 7.9202 7.17818 7.80869 7.16466C7.6465 7.14101 7.53162 7.06667 7.44714 6.92813C7.36267 6.7896 7.36267 6.68147 7.45052 6.13407L7.52486 5.68467L7.1329 5.28594L6.73755 4.88722V4.72165C6.73755 4.52229 6.82541 4.36348 6.98084 4.28238C7.04166 4.25197 7.30522 4.19453 7.56541 4.15398L8.03847 4.08302L8.275 3.62686C8.54532 3.10649 8.63655 3.01864 8.90011 3.01864C9.00824 3.01864 9.09609 3.04229 9.17381 3.09636Z" fill="white"/>
<path d="M8.79825 4.75366C8.71039 4.89896 8.53469 5.01385 8.40291 5.01385C8.28464 5.01385 8.28126 5.08143 8.39953 5.20307C8.50766 5.31458 8.51441 5.33485 8.51441 5.55787C8.51441 5.68627 8.51779 5.79102 8.52455 5.79102C8.52793 5.79102 8.59213 5.7606 8.66647 5.72344C8.74081 5.68627 8.84555 5.65586 8.903 5.65586C8.96044 5.65586 9.06519 5.68627 9.13953 5.72344C9.21386 5.7606 9.27807 5.79102 9.28144 5.79102C9.2882 5.79102 9.29158 5.68627 9.29158 5.55787C9.29158 5.33485 9.29834 5.31458 9.40647 5.20307C9.52473 5.08143 9.52135 5.01385 9.40309 5.01385C9.27131 5.01385 9.0956 4.89896 9.00775 4.75366C8.96044 4.67595 8.91313 4.61175 8.903 4.61175C8.89286 4.61175 8.84555 4.67595 8.79825 4.75366Z" fill="white"/>
<path d="M5.34964 16.4359V16.9765H5.00498C4.72114 16.9765 4.64005 16.9901 4.55895 17.0407C4.40352 17.1455 4.33594 17.2739 4.33594 17.4834C4.33594 17.6929 4.40352 17.8213 4.55895 17.926C4.65356 17.9869 4.79886 17.9902 8.89758 17.9902C12.9963 17.9902 13.1416 17.9869 13.2362 17.926C13.3916 17.8213 13.4592 17.6929 13.4592 17.4834C13.4592 17.2739 13.3916 17.1455 13.2362 17.0407C13.1551 16.9901 13.074 16.9765 12.7936 16.9765H12.4455V16.4359V15.8953H8.89758H5.34964V16.4359Z" fill="white"/>
</svg>
