<svg width="18" height="14" viewBox="0 0 18 14" fill="none" xmlns="http://www.w3.org/2000/svg">
<path d="M17.2366 3.1901C17.5088 3.53646 17.57 3.92839 17.4203 4.36589L14.6131 12.6237C14.4838 13.0126 14.2234 13.3392 13.8321 13.6035C13.4408 13.8678 13.024 14 12.5816 14H3.15946C2.63544 14 2.13013 13.8375 1.64354 13.5124C1.15695 13.1873 0.818377 12.7878 0.627824 12.3138C0.464493 11.9067 0.457688 11.5208 0.607408 11.1562C0.607408 11.1319 0.617616 11.0499 0.638033 10.9102C0.658449 10.7704 0.67206 10.658 0.678865 10.5729C0.685671 10.5243 0.675463 10.459 0.648241 10.377C0.621019 10.2949 0.610811 10.2357 0.617616 10.1992C0.631227 10.1324 0.658449 10.0686 0.699282 10.0078C0.740115 9.94705 0.79626 9.87565 0.867717 9.79362C0.939174 9.71159 0.99532 9.64019 1.03615 9.57943C1.19268 9.34852 1.3458 9.07053 1.49552 8.74544C1.64524 8.42036 1.74732 8.14236 1.80177 7.91146C1.82218 7.85069 1.82388 7.75955 1.80687 7.63802C1.78986 7.51649 1.78816 7.43142 1.80177 7.38281C1.82218 7.31597 1.88003 7.2309 1.97531 7.1276C2.07058 7.02431 2.12843 6.95443 2.14885 6.91797C2.29176 6.69922 2.43468 6.4197 2.57759 6.07943C2.7205 5.73915 2.80557 5.46571 2.8328 5.25911C2.8396 5.20443 2.83109 5.1072 2.80727 4.96745C2.78346 4.82769 2.78516 4.74262 2.81238 4.71224C2.8396 4.63325 2.91446 4.54058 3.03696 4.43424C3.15946 4.32791 3.23432 4.25955 3.26154 4.22917C3.39084 4.07118 3.53546 3.81445 3.69539 3.45898C3.85532 3.10352 3.94889 2.81033 3.97611 2.57943C3.98292 2.53082 3.97271 2.45334 3.94549 2.34701C3.91827 2.24067 3.91146 2.16016 3.92507 2.10547C3.93868 2.05686 3.96931 2.00217 4.01695 1.94141C4.06458 1.88064 4.12583 1.81076 4.20069 1.73177C4.27555 1.65278 4.3334 1.58898 4.37423 1.54036C4.42868 1.46745 4.48482 1.37478 4.54267 1.26237C4.60051 1.14996 4.65156 1.04362 4.69579 0.943359C4.74003 0.843099 4.79447 0.733724 4.85912 0.615234C4.92377 0.496745 4.99013 0.399523 5.05818 0.323568C5.12624 0.247613 5.21641 0.176215 5.3287 0.109375C5.44099 0.0425347 5.56349 0.00759549 5.69619 0.00455729C5.8289 0.0015191 5.99053 0.0182292 6.18108 0.0546875L6.17088 0.0820312C6.42948 0.0273438 6.60302 0 6.69149 0H14.4599C14.9635 0 15.3514 0.170139 15.6237 0.510417C15.8959 0.850694 15.9571 1.24566 15.8074 1.69531L13.0104 9.95312C12.7654 10.6762 12.5221 11.1426 12.2805 11.3522C12.0389 11.5618 11.6016 11.6667 10.9687 11.6667H2.0978C1.91406 11.6667 1.78475 11.7122 1.70989 11.8034C1.63503 11.9006 1.63163 12.0312 1.69969 12.1953C1.86302 12.6207 2.35301 12.8333 3.16967 12.8333H12.5918C12.7892 12.8333 12.9797 12.7862 13.1635 12.6921C13.3472 12.5979 13.4663 12.4718 13.5208 12.3138L16.5832 3.31771C16.6309 3.18403 16.6479 3.01085 16.6343 2.79818C16.8929 2.88932 17.0936 3.01997 17.2366 3.1901ZM6.37504 3.20833C6.34782 3.28733 6.35462 3.35569 6.39546 3.41341C6.43629 3.47114 6.50434 3.5 6.59962 3.5H12.8062C12.8947 3.5 12.9814 3.47114 13.0665 3.41341C13.1516 3.35569 13.2077 3.28733 13.2349 3.20833L13.4493 2.625C13.4765 2.54601 13.4697 2.47765 13.4289 2.41992C13.3881 2.3622 13.32 2.33333 13.2247 2.33333H7.01816C6.92969 2.33333 6.84292 2.3622 6.75785 2.41992C6.67278 2.47765 6.61663 2.54601 6.58941 2.625L6.37504 3.20833ZM5.52776 5.54167C5.50054 5.62066 5.50734 5.68902 5.54818 5.74674C5.58901 5.80447 5.65706 5.83333 5.75234 5.83333H11.9589C12.0474 5.83333 12.1342 5.80447 12.2192 5.74674C12.3043 5.68902 12.3604 5.62066 12.3877 5.54167L12.602 4.95833C12.6293 4.87934 12.6225 4.81098 12.5816 4.75325C12.5408 4.69553 12.4727 4.66667 12.3775 4.66667H6.17088C6.0824 4.66667 5.99564 4.69553 5.91057 4.75325C5.8255 4.81098 5.76935 4.87934 5.74213 4.95833L5.52776 5.54167Z" fill="white"/>
</svg>
