<svg width="22" height="23" viewBox="0 0 22 23" fill="none" xmlns="http://www.w3.org/2000/svg">
<path d="M11.5125 0.756327C11.4578 0.768948 11.3316 0.853091 11.2306 0.949856C11.0161 1.16021 10.9404 1.3874 10.9656 1.74921C10.9993 2.20779 11.2433 2.37608 12.009 2.46864C13.6161 2.67058 15.1896 3.17123 16.2161 3.81071C17.8401 4.82464 18.8498 6.30555 19.3967 8.46803C19.5734 9.17483 19.6996 9.9237 19.7459 10.5421C19.7964 11.2279 19.9226 11.4761 20.2844 11.6066C20.6631 11.7412 21.1132 11.636 21.3194 11.3667C21.5003 11.1227 21.5297 10.8493 21.4793 9.84797C21.4246 8.80039 21.3194 8.20298 21.0291 7.3321C19.7543 3.50359 16.01 0.697427 12.2193 0.731084C11.8828 0.735291 11.5672 0.747912 11.5125 0.756327Z" fill="white"/>
<path d="M3.65976 1.85855C2.2125 2.24561 1.07236 3.22587 0.681099 4.42912C0.432877 5.19061 0.437084 5.98576 0.702135 6.8903C0.895663 7.55502 1.67399 9.23788 2.34713 10.4411C5.12385 15.4308 9.23002 19.1499 14.7666 21.6868C15.9615 22.238 16.5799 22.3642 17.2699 22.2043C18.0734 22.015 18.8265 21.5859 19.5123 20.9253C20.0929 20.3658 20.4505 19.8609 20.6777 19.2677C21.0395 18.3421 20.9006 17.6101 20.2401 16.9454C19.6932 16.3942 17.4213 14.724 16.744 14.3706C16.2517 14.1182 15.8857 14.013 15.4608 14.013C14.653 14.0046 14.0556 14.358 13.4288 15.212C13.0417 15.7337 12.6883 15.902 12.1961 15.7926C12.0698 15.7632 11.7375 15.6243 11.4514 15.4855C10.4291 14.9806 9.65074 14.4337 8.90186 13.6933C8.14878 12.9444 7.686 12.2965 7.23163 11.3499C6.94133 10.744 6.87823 10.5295 6.87823 10.155C6.87823 9.68384 7.08438 9.37672 7.71965 8.91393C8.36756 8.43853 8.66206 8.00098 8.72516 7.43722C8.7462 7.26473 8.7462 7.03755 8.72516 6.93237C8.55267 6.01942 7.23163 3.99157 5.99472 2.74205C5.43097 2.17409 5.17433 1.98476 4.83776 1.87959C4.50119 1.77441 4.00474 1.76599 3.65976 1.85855Z" fill="white"/>
<path d="M11.7817 3.54135C11.4535 3.6886 11.2979 3.97469 11.2979 4.42906C11.2979 4.90026 11.5966 5.16952 12.2318 5.27049C12.7451 5.35042 13.6412 5.59864 14.1251 5.79217C15.4166 6.31386 16.115 7.05432 16.5568 8.37957C16.7167 8.85498 16.8765 9.61226 16.9312 10.1508C16.9985 10.7776 17.1836 11.0385 17.617 11.1184C17.8904 11.1689 18.2607 11.0721 18.429 10.9081C18.6309 10.7145 18.6604 10.5715 18.6604 9.83524C18.6604 8.81711 18.4837 8.03037 18.0714 7.19736C17.4403 5.93522 16.2581 4.76563 15.0043 4.17242C14.2933 3.83164 13.8263 3.69281 12.9386 3.54556C12.2907 3.44038 12.0004 3.44038 11.7817 3.54135Z" fill="white"/>
<path d="M12.4296 6.32273C11.9626 6.38163 11.6807 6.65509 11.605 7.11367C11.5208 7.64798 11.8069 7.92986 12.5979 8.08973C12.7493 8.11918 12.9849 8.19491 13.1238 8.25801C13.7548 8.5441 14.0493 8.97323 14.1966 9.81466C14.2639 10.2143 14.3144 10.3532 14.4616 10.513C14.6425 10.7234 14.8066 10.7949 15.1011 10.7949C15.3998 10.7949 15.5681 10.7192 15.7448 10.5046C15.9047 10.3111 15.9636 10.0797 15.9636 9.63375C15.9636 8.51886 15.1895 7.31141 14.0619 6.66771C13.5781 6.39004 12.9386 6.25541 12.4296 6.32273Z" fill="white"/>
</svg>
