<svg width="29" height="33" viewBox="0 0 29 33" fill="none" xmlns="http://www.w3.org/2000/svg">
<path d="M15.6386 0.270373C14.7817 0.449531 14.2598 0.652058 13.5198 1.08827C12.3825 1.75037 11.479 2.76301 10.8948 4.0249C10.404 5.07648 10.3105 5.52048 10.3105 6.85248C10.3105 8.13775 10.3962 8.58954 10.8247 9.5788C12.1644 12.6323 15.6541 14.2603 18.8712 13.3178C21.7767 12.4687 23.6773 9.93712 23.6929 6.89143C23.7007 5.47375 23.3501 4.26638 22.6023 3.14469C21.0834 0.854584 18.287 -0.298259 15.6386 0.270373Z" fill="#185850"/>
<path d="M3.6272 10.7706C3.12088 11.0354 2.28741 11.6664 1.80446 12.1415C0.199826 13.754 0.223195 15.8104 1.89014 19.082C3.72067 22.6963 6.5872 26.5832 8.40215 27.9308C10.0301 29.1382 11.6737 29.2472 13.3718 28.2658C14.6415 27.5258 14.9609 27.1519 14.9609 26.4041C14.9609 25.9133 14.9142 25.8277 13.6289 23.8491C12.7643 22.5093 12.5228 22.1978 12.2579 22.0498C11.5725 21.6525 11.1674 21.707 10.2638 22.3146C9.78867 22.634 9.61731 22.7041 9.34467 22.7041C8.94741 22.7041 8.63583 22.5561 8.37878 22.2445C7.94257 21.7304 5.83162 18.3575 5.78488 18.1005C5.75372 17.9213 5.77709 17.7188 5.86278 17.5007C5.97183 17.2281 6.10425 17.1112 6.68846 16.7373C7.52194 16.2154 7.7712 15.8727 7.7712 15.234C7.7712 15.0159 7.72446 14.7199 7.66215 14.5797C7.44404 14.05 5.44993 11.1211 5.16172 10.8952C4.78004 10.607 4.06341 10.5447 3.6272 10.7706Z" fill="#185850"/>
<path d="M12.9131 15.3742C11.1059 15.7714 9.17415 16.8697 8.20047 18.0615L7.92784 18.4043L8.58994 19.4403C8.95605 20.0089 9.27542 20.4919 9.291 20.5152C9.31437 20.5308 9.49352 20.4607 9.69605 20.3439C11.0592 19.6116 12.6405 19.8375 13.7154 20.9281C14.0426 21.263 15.5771 23.5453 16.3171 24.8072C16.7377 25.5161 16.839 26.5365 16.5742 27.4011C16.247 28.4527 15.3902 29.2628 13.731 30.1041C11.2851 31.3426 8.97163 30.9609 6.53352 28.9356C6.27647 28.7175 6.04278 28.5462 6.01942 28.5462C5.99605 28.5462 5.98047 29.0603 5.98047 29.6834V30.8129L6.70489 31.1479C8.29394 31.8879 10.5062 32.4487 13.1078 32.7681C14.2607 32.9083 19.4874 32.9083 20.6247 32.7681C23.1563 32.4565 25.8904 31.7632 27.495 31.031L28.0325 30.7818L28.0091 26.6455L27.978 22.5093L27.7754 21.7615C27.3704 20.2582 26.6927 19.0274 25.6878 17.9369C24.6908 16.8464 23.1641 15.9194 21.6373 15.4832L20.8973 15.2729L17.2363 15.2573C13.9102 15.234 13.5129 15.2417 12.9131 15.3742Z" fill="#185850"/>
</svg>
