<svg width="18" height="14" viewBox="0 0 18 14" fill="none" xmlns="http://www.w3.org/2000/svg">
<path d="M14.3975 8.16225C15.3382 8.16225 16.1037 7.39278 16.1037 6.44724C16.1037 5.50169 15.3382 4.73267 14.3975 4.73267C13.4569 4.73267 12.6914 5.50169 12.6914 6.44724C12.6914 7.39278 13.4569 8.16225 14.3975 8.16225ZM14.3975 5.1398C15.1151 5.1398 15.6988 5.72611 15.6988 6.44768C15.6988 7.16881 15.1151 7.75556 14.3975 7.75556C13.68 7.75556 13.0963 7.16881 13.0963 6.44768C13.0963 5.72611 13.68 5.1398 14.3975 5.1398Z" fill="white"/>
<mask id="mask0_655_19572" style="mask-type:luminance" maskUnits="userSpaceOnUse" x="0" y="0" width="5" height="8">
<path d="M0.5 0.794434H4.9004V7.6607H0.5V0.794434Z" fill="white"/>
</mask>
<g mask="url(#mask0_655_19572)">
<path d="M0.768693 3.93663L0.769136 3.93707C0.769136 3.93707 0.769136 3.93707 0.769136 3.93752L1.99763 6.07607C1.35766 6.16211 0.768249 6.38297 0.768249 6.79099C0.768249 7.31166 1.74794 7.54849 2.65844 7.54849C3.56806 7.54849 4.54731 7.31166 4.54731 6.79099C4.54731 6.38164 3.9579 6.16078 3.31749 6.07563L4.47058 4.06835L4.54864 3.93397L4.47458 3.89095C4.47325 3.88829 4.47192 3.88563 4.47058 3.88297L4.55308 3.92598C4.56461 3.9047 4.57525 3.88252 4.58678 3.85813C4.72382 3.56941 4.79345 3.26029 4.79345 2.93964C4.79345 1.75683 3.83549 0.794434 2.658 0.794434C1.48095 0.794434 0.523438 1.75683 0.523438 2.93964C0.523438 3.26029 0.593067 3.56941 0.730552 3.86035C0.740309 3.88252 0.750953 3.9047 0.768693 3.93663ZM4.14328 6.78789C4.11401 6.88501 3.61374 7.14224 2.65844 7.14224C1.7027 7.14224 1.20199 6.88546 1.17272 6.79498C1.1949 6.71959 1.52974 6.52711 2.21938 6.4628L2.48238 6.92005C2.5183 6.98303 2.58527 7.02206 2.65756 7.02206C2.72985 7.02206 2.79682 6.98347 2.83274 6.92005L3.09574 6.4628C3.78538 6.52622 4.12111 6.7187 4.14328 6.78789ZM2.65711 1.20157C3.61153 1.20157 4.38765 1.98124 4.38765 2.94008C4.38765 3.19953 4.33177 3.44967 4.22001 3.68516C4.21291 3.70069 4.20582 3.71577 4.20227 3.72242L4.19961 3.72685L4.28165 3.77741C4.28032 3.77741 4.27944 3.77741 4.27811 3.77786L4.19739 3.73084L4.11268 3.87809C4.11224 3.87853 4.11179 3.87897 4.11135 3.87942C4.11091 3.87986 4.11135 3.8803 4.11091 3.88119L2.65711 6.41136L1.11728 3.72996C1.10974 3.71577 1.10265 3.70069 1.09422 3.68339C0.98379 3.44967 0.927466 3.19953 0.927466 2.94008C0.927909 1.98124 1.70359 1.20157 2.65711 1.20157Z" fill="white"/>
</g>
<path d="M2.65633 4.15882C3.32513 4.15882 3.86975 3.61199 3.86975 2.94008C3.86975 2.26774 3.32557 1.72046 2.65633 1.72046C1.98753 1.72046 1.44336 2.26729 1.44336 2.94008C1.44336 3.61243 1.98753 4.15882 2.65633 4.15882ZM2.65633 2.12759C3.10205 2.12759 3.46483 2.4917 3.46483 2.94008C3.46483 3.38757 3.10205 3.75213 2.65633 3.75213C2.21106 3.75213 1.84827 3.38757 1.84827 2.94008C1.84827 2.4917 2.21106 2.12759 2.65633 2.12759Z" fill="white"/>
<path d="M4.50619 9.43438C4.45873 9.57497 4.42503 9.72176 4.40595 9.86945C4.39176 9.98121 4.47026 10.0828 4.58114 10.0974C4.58956 10.0987 4.59843 10.0992 4.6073 10.0992C4.70709 10.0992 4.79446 10.0242 4.80732 9.92178C4.82329 9.80026 4.85078 9.68008 4.88937 9.56477C4.92529 9.45833 4.86852 9.34302 4.76253 9.30709C4.65653 9.27073 4.54211 9.32794 4.50619 9.43438Z" fill="white"/>
<path d="M7.76278 7.02261H8.1677C8.27946 7.02261 8.36993 6.93125 8.36993 6.81904C8.36993 6.70684 8.27946 6.61548 8.1677 6.61548H7.76278C7.65102 6.61548 7.56055 6.70684 7.56055 6.81904C7.56055 6.93125 7.65102 7.02261 7.76278 7.02261Z" fill="white"/>
<path d="M8.97807 7.02261H9.38254C9.4943 7.02261 9.58522 6.93125 9.58522 6.81904C9.58522 6.70684 9.4943 6.61548 9.38254 6.61548H8.97807C8.86631 6.61548 8.77539 6.70684 8.77539 6.81904C8.77539 6.93125 8.86631 7.02261 8.97807 7.02261Z" fill="white"/>
<path d="M5.3331 7.02261H5.73801C5.84977 7.02261 5.94025 6.93125 5.94025 6.81904C5.94025 6.70684 5.84977 6.61548 5.73801 6.61548H5.3331C5.22133 6.61548 5.13086 6.70684 5.13086 6.81904C5.13086 6.93125 5.22133 7.02261 5.3331 7.02261Z" fill="white"/>
<path d="M6.54838 7.02261H6.95285C7.06462 7.02261 7.15553 6.93125 7.15553 6.81904C7.15553 6.70684 7.06462 6.61548 6.95285 6.61548H6.54838C6.43662 6.61548 6.3457 6.70684 6.3457 6.81904C6.3457 6.93125 6.43662 7.02261 6.54838 7.02261Z" fill="white"/>
<path d="M10.1536 7.36838C10.1735 7.46462 10.2578 7.53026 10.3514 7.53026C10.3651 7.53026 10.3793 7.52893 10.3935 7.52582C10.503 7.50276 10.5727 7.39499 10.5496 7.28456C10.5124 7.10716 10.4214 6.94972 10.2862 6.82864C10.2024 6.75413 10.0751 6.76167 10.0006 6.8455C9.92605 6.92932 9.93359 7.05793 10.017 7.13288C10.087 7.19542 10.1341 7.27702 10.1536 7.36838Z" fill="white"/>
<path d="M5.92254 8.21962C5.94649 8.31098 6.02854 8.37174 6.11857 8.37174C6.13542 8.37174 6.15227 8.36952 6.16957 8.36509C6.28665 8.33404 6.40773 8.31497 6.52969 8.30788C6.60021 8.30344 6.66008 8.26352 6.6929 8.20631C6.72838 8.2653 6.79269 8.30477 6.86631 8.30477H7.73202C7.80608 8.30477 7.87128 8.26441 7.90632 8.20454C7.9418 8.26441 8.00655 8.30477 8.08105 8.30477H8.94632C9.02083 8.30477 9.08558 8.26441 9.12106 8.20454C9.1561 8.26441 9.22129 8.30477 9.29536 8.30477H9.72821C9.87191 8.30477 10.0138 8.26707 10.1393 8.197C10.2369 8.14156 10.2715 8.01783 10.2165 7.91981C10.162 7.82224 10.0391 7.78721 9.94109 7.8422C9.87545 7.87901 9.80405 7.89764 9.72821 7.89764H9.2958C9.22129 7.89764 9.15654 7.938 9.12106 7.99787C9.08602 7.938 9.02083 7.89764 8.94677 7.89764H8.08105C8.00699 7.89764 7.9418 7.938 7.90676 7.99787C7.87128 7.938 7.80653 7.89764 7.73202 7.89764H6.86675C6.79136 7.89764 6.72616 7.93844 6.69113 7.99964C6.65343 7.93667 6.58247 7.89631 6.50574 7.90163C6.35761 7.9105 6.20993 7.93356 6.06712 7.97126C5.95891 7.99964 5.8946 8.11096 5.92254 8.21962Z" fill="white"/>
<path d="M5.09892 9.00277C5.15524 9.00277 5.21112 8.97926 5.25104 8.93314C5.27721 8.90343 5.30382 8.8746 5.33087 8.8471C5.38897 8.78945 5.4515 8.73445 5.51714 8.68389C5.60628 8.61604 5.62314 8.48831 5.55528 8.39872C5.48742 8.30914 5.36058 8.29273 5.27144 8.36058C5.19161 8.42179 5.11577 8.48831 5.04481 8.55971C5.01111 8.59386 4.97829 8.6289 4.9468 8.66527C4.87318 8.74998 4.88116 8.87815 4.96543 8.95221C5.00401 8.98636 5.05146 9.00277 5.09892 9.00277Z" fill="white"/>
<path d="M10.0386 12.0142C9.92685 12.0142 9.83594 12.1051 9.83594 12.2177C9.83594 12.3299 9.92685 12.4213 10.0386 12.4213H10.4431C10.5549 12.4213 10.6458 12.3299 10.6458 12.2177C10.6458 12.1051 10.5549 12.0142 10.4431 12.0142H10.0386Z" fill="white"/>
<path d="M6.63867 12.4212H6.8001C6.91186 12.4212 7.00234 12.3298 7.00234 12.2176C7.00234 12.105 6.91186 12.0141 6.8001 12.0141H6.63867C6.56549 12.0141 6.49187 12.0096 6.41914 12.0012C6.30871 11.9879 6.20759 12.0682 6.19473 12.1795C6.18186 12.2912 6.26125 12.3924 6.37213 12.4052C6.46038 12.4159 6.54997 12.4212 6.63867 12.4212Z" fill="white"/>
<path d="M5.63021 12.1556C5.70117 12.1556 5.76991 12.1184 5.80672 12.0523C5.86171 11.9547 5.82756 11.8305 5.73044 11.7751C5.62444 11.7152 5.52421 11.6443 5.4324 11.5649C5.3477 11.4913 5.21952 11.501 5.14679 11.5857C5.07361 11.6709 5.08337 11.7995 5.16808 11.8727C5.27984 11.9698 5.40225 12.0563 5.53086 12.1295C5.56279 12.1472 5.59694 12.1556 5.63021 12.1556Z" fill="white"/>
<path d="M8.0134 12.4213C8.12516 12.4213 8.21608 12.3299 8.21608 12.2177C8.21608 12.1051 8.12516 12.0142 8.0134 12.0142H7.60893C7.49717 12.0142 7.40625 12.1051 7.40625 12.2177C7.40625 12.3299 7.49717 12.4213 7.60893 12.4213H8.0134Z" fill="white"/>
<path d="M4.80628 11.285C4.83644 11.285 4.86749 11.2779 4.89676 11.2633C4.99655 11.2127 5.0369 11.0908 4.98679 10.9901C4.93224 10.881 4.88878 10.7661 4.85684 10.6486C4.82713 10.5404 4.71625 10.4761 4.60804 10.5058C4.50027 10.5355 4.43685 10.6473 4.46612 10.7559C4.5047 10.8992 4.55837 11.0393 4.62489 11.1728C4.66037 11.2438 4.73178 11.285 4.80628 11.285Z" fill="white"/>
<path d="M9.2302 12.4213C9.34196 12.4213 9.43243 12.3299 9.43243 12.2177C9.43243 12.1051 9.34196 12.0142 9.2302 12.0142H8.82528C8.71352 12.0142 8.62305 12.1051 8.62305 12.2177C8.62305 12.3299 8.71352 12.4213 8.82528 12.4213H9.2302Z" fill="white"/>
<mask id="mask1_655_19572" style="mask-type:luminance" maskUnits="userSpaceOnUse" x="11" y="3" width="7" height="11">
<path d="M11.0312 3.34595H17.5015V13.2054H11.0312V3.34595Z" fill="white"/>
</mask>
<g mask="url(#mask1_655_19572)">
<path d="M11.2535 12.4209H11.6584C11.6885 12.4209 11.716 12.4134 11.7418 12.4014C12.0074 12.93 13.2093 13.2055 14.3992 13.2055C15.7466 13.2055 17.1112 12.8524 17.1112 12.1779C17.1112 11.6018 16.1528 11.2984 15.2192 11.1942L16.9955 8.10211L17.0092 8.07861C17.0096 8.07816 17.0096 8.07772 17.0096 8.07772L17.1267 7.8746L17.0345 7.81827L17.1312 7.86661C17.148 7.83557 17.1635 7.80319 17.1791 7.77082C17.376 7.35481 17.4762 6.9091 17.4762 6.44697C17.4762 4.74171 16.0951 3.354 14.3979 3.354C12.7015 3.354 11.3209 4.74171 11.3209 6.44697C11.3209 6.9091 11.4211 7.35481 11.618 7.77082C11.6335 7.80364 11.6491 7.83601 11.6726 7.87859C11.6726 7.87903 11.6735 7.87947 11.6735 7.87992L13.5765 11.1942C12.7303 11.2891 11.8673 11.549 11.7129 12.0244C11.6952 12.0191 11.6774 12.0133 11.6584 12.0133H11.2535C11.1417 12.0133 11.0508 12.1043 11.0508 12.2165C11.0508 12.3291 11.1417 12.4209 11.2535 12.4209ZM14.3979 3.76158C15.8721 3.76158 17.0713 4.96657 17.0713 6.44741C17.0713 6.84878 16.9844 7.23507 16.8136 7.59652C16.8016 7.6218 16.7897 7.64708 16.7812 7.66305L16.7768 7.67014L16.8389 7.70828L16.7746 7.67413L16.6619 7.87016C16.6615 7.8706 16.6611 7.87105 16.6611 7.87149L16.6473 7.895C16.6464 7.89588 16.6464 7.89677 16.646 7.8981L14.3979 11.8107L12.0203 7.6697C12.007 7.64619 11.9954 7.62136 11.9839 7.59652C11.8127 7.23507 11.7262 6.84878 11.7262 6.44741C11.7258 4.96657 12.9246 3.76158 14.3979 3.76158ZM13.7991 11.5818L14.2227 12.3193C14.2591 12.3823 14.3256 12.4209 14.3979 12.4209C14.4702 12.4209 14.5371 12.3823 14.5731 12.3193L14.997 11.5818C16.1342 11.6754 16.7063 12.0089 16.7063 12.1779C16.7063 12.3885 15.892 12.7983 14.3992 12.7983C12.9055 12.7983 12.0908 12.3885 12.0908 12.1779C12.0908 12.0191 12.6097 11.6798 13.7991 11.5818Z" fill="white"/>
</g>
</svg>
