<svg width="34" height="34" viewBox="0 0 34 34" fill="none" xmlns="http://www.w3.org/2000/svg">
<rect width="34" height="34" rx="17" fill="#185850"/>
<path d="M26.4905 12.4715C26.8042 12.8832 26.8747 13.3491 26.7022 13.8691L23.4676 23.6846C23.3186 24.1468 23.0186 24.535 22.5677 24.8492C22.1169 25.1634 21.6366 25.3205 21.1269 25.3205H10.2702C9.66637 25.3205 9.08413 25.1273 8.52345 24.7409C7.96278 24.3545 7.57266 23.8796 7.3531 23.3162C7.1649 22.8323 7.15706 22.3737 7.32957 21.9403C7.32957 21.9114 7.34133 21.8139 7.36486 21.6478C7.38838 21.4817 7.40407 21.3481 7.41191 21.247C7.41975 21.1892 7.40799 21.1115 7.37662 21.014C7.34525 20.9165 7.33349 20.8461 7.34133 20.8028C7.35702 20.7233 7.38838 20.6475 7.43543 20.5753C7.48248 20.503 7.54718 20.4182 7.62951 20.3207C7.71185 20.2232 7.77654 20.1383 7.82359 20.0661C8.00395 19.7916 8.18038 19.4612 8.3529 19.0748C8.52541 18.6884 8.64304 18.3579 8.70577 18.0835C8.7293 18.0112 8.73126 17.9029 8.71165 17.7585C8.69205 17.614 8.69009 17.5129 8.70577 17.4551C8.7293 17.3757 8.79595 17.2745 8.90573 17.1518C9.01551 17.029 9.08217 16.9459 9.10569 16.9026C9.27036 16.6426 9.43504 16.3103 9.59971 15.9059C9.76439 15.5014 9.86241 15.1764 9.89377 14.9308C9.90161 14.8658 9.89181 14.7503 9.86437 14.5841C9.83692 14.418 9.83888 14.3169 9.87025 14.2808C9.90161 14.1869 9.98787 14.0768 10.129 13.9504C10.2702 13.824 10.3564 13.7427 10.3878 13.7066C10.5368 13.5188 10.7034 13.2137 10.8877 12.7911C11.072 12.3686 11.1798 12.0201 11.2112 11.7457C11.219 11.6879 11.2072 11.5958 11.1759 11.4694C11.1445 11.343 11.1367 11.2473 11.1523 11.1823C11.168 11.1245 11.2033 11.0595 11.2582 10.9873C11.3131 10.9151 11.3837 10.832 11.4699 10.7381C11.5562 10.6442 11.6228 10.5684 11.6699 10.5106C11.7326 10.4239 11.7973 10.3138 11.864 10.1802C11.9306 10.0466 11.9894 9.92016 12.0404 9.80099C12.0914 9.68182 12.1541 9.55181 12.2286 9.41097C12.3031 9.27013 12.3796 9.15457 12.458 9.06429C12.5364 8.97401 12.6403 8.88914 12.7697 8.80969C12.8991 8.73025 13.0402 8.68872 13.1931 8.6851C13.346 8.68149 13.5323 8.70136 13.7518 8.74469L13.7401 8.77719C14.0381 8.71219 14.238 8.67969 14.34 8.67969H23.2911C23.8714 8.67969 24.3184 8.88192 24.632 9.28638C24.9457 9.69085 25.0163 10.1603 24.8438 10.6948L21.6209 20.5103C21.3386 21.3697 21.0582 21.9241 20.7799 22.1733C20.5015 22.4224 19.9977 22.547 19.2684 22.547H9.04688C8.83516 22.547 8.68617 22.6012 8.59991 22.7095C8.51365 22.8251 8.50973 22.9804 8.58815 23.1754C8.77634 23.681 9.34094 23.9338 10.2819 23.9338H21.1386C21.366 23.9338 21.5856 23.8778 21.7973 23.7658C22.009 23.6539 22.1463 23.504 22.209 23.3162L25.7377 12.6232C25.7926 12.4643 25.8122 12.2585 25.7965 12.0057C26.0945 12.114 26.3258 12.2693 26.4905 12.4715ZM13.9753 12.4932C13.944 12.5871 13.9518 12.6684 13.9988 12.737C14.0459 12.8056 14.1243 12.8399 14.2341 12.8399H21.3856C21.4876 12.8399 21.5875 12.8056 21.6856 12.737C21.7836 12.6684 21.8483 12.5871 21.8796 12.4932L22.1267 11.7998C22.158 11.7059 22.1502 11.6247 22.1031 11.5561C22.0561 11.4875 21.9777 11.4532 21.8679 11.4532H14.7163C14.6144 11.4532 14.5144 11.4875 14.4164 11.5561C14.3184 11.6247 14.2537 11.7059 14.2223 11.7998L13.9753 12.4932ZM12.999 15.2667C12.9677 15.3606 12.9755 15.4418 13.0226 15.5104C13.0696 15.579 13.148 15.6134 13.2578 15.6134H20.4093C20.5113 15.6134 20.6113 15.579 20.7093 15.5104C20.8073 15.4418 20.872 15.3606 20.9034 15.2667L21.1504 14.5733C21.1817 14.4794 21.1739 14.3982 21.1269 14.3295C21.0798 14.2609 21.0014 14.2266 20.8916 14.2266H13.7401C13.6381 14.2266 13.5382 14.2609 13.4401 14.3295C13.3421 14.3982 13.2774 14.4794 13.2461 14.5733L12.999 15.2667Z" fill="white"/>
</svg>
