<svg width="34" height="34" viewBox="0 0 34 34" fill="none" xmlns="http://www.w3.org/2000/svg">
<rect width="34" height="34" rx="17" fill="#185850"/>
<path d="M16.3144 6.48944C15.0375 6.75716 14.0284 7.68802 13.6248 8.96074C13.5424 9.23259 13.53 9.35203 13.53 9.94926C13.53 10.5465 13.5424 10.6659 13.6248 10.9378C13.9955 12.1117 14.8481 12.9643 16.0219 13.335C16.2938 13.4173 16.4132 13.4297 17.0105 13.4297C17.6077 13.4297 17.7271 13.4173 17.999 13.335C19.1728 12.9643 20.0254 12.1117 20.3961 10.9378C20.4785 10.6659 20.4909 10.5465 20.4909 9.94926C20.4909 9.35203 20.4785 9.23259 20.3961 8.96074C20.0296 7.79511 19.1852 6.94663 18.0196 6.57181C17.7848 6.49767 17.6159 6.47708 17.1134 6.46472C16.7757 6.45649 16.4132 6.46884 16.3144 6.48944Z" fill="white"/>
<path d="M14.045 14.0627C13.2913 14.4005 12.0803 15.2284 12.2204 15.3149C12.241 15.3272 13.3242 15.7391 14.634 16.2293L17.0188 17.123L19.4119 16.2251C20.7299 15.735 21.8173 15.3231 21.8296 15.3108C21.8708 15.2778 21.4425 14.9277 21.0182 14.6394C20.6352 14.384 19.9103 14.0051 19.6631 13.9268C19.6014 13.9062 19.4984 13.9433 19.3254 14.0463C18.7776 14.3675 18.065 14.5858 17.4142 14.6353C16.4381 14.7094 15.5443 14.5199 14.7329 14.0627C14.5764 13.9721 14.4363 13.9021 14.424 13.9062C14.4075 13.9062 14.2386 13.9763 14.045 14.0627Z" fill="white"/>
<path d="M10.132 16.0373C10.0537 16.0744 9.94665 16.1691 9.89722 16.2474C9.80661 16.3792 9.80249 16.4245 9.80249 17.1823V17.9773L10.0414 18.002C10.6221 18.0638 10.9393 18.2038 11.2935 18.5621C11.7548 19.0235 11.8578 19.4065 11.8578 20.6586C11.8578 21.9108 11.7548 22.2938 11.2935 22.7551C10.9393 23.1135 10.6221 23.2535 10.0414 23.3153L9.80249 23.34V24.0896C9.80249 24.761 9.81073 24.8516 9.88487 24.9711C9.92606 25.0452 10.0043 25.1317 10.0579 25.1647C10.1526 25.2223 16.2897 27.5371 16.3597 27.5371C16.3762 27.5371 16.3926 25.4241 16.3926 22.8457V18.1544L13.4641 17.0588C11.8537 16.4574 10.478 15.9632 10.408 15.9632C10.3338 15.9632 10.2103 15.9961 10.132 16.0373Z" fill="white"/>
<path d="M20.5443 17.067L17.6282 18.1626V22.8499C17.6282 25.4283 17.6446 27.5371 17.6611 27.5371C17.7311 27.5371 23.8682 25.2223 23.963 25.1647C24.0165 25.1317 24.0948 25.0452 24.1359 24.9711C24.2101 24.8516 24.2183 24.761 24.2183 24.0896V23.34L23.9835 23.3153C23.3987 23.2535 23.0815 23.1135 22.7273 22.7551C22.266 22.2938 22.163 21.9108 22.163 20.6586C22.163 19.4065 22.266 19.0235 22.7273 18.5621C23.0815 18.2038 23.3987 18.0638 23.9835 18.002L24.2183 17.9773V17.1823C24.2183 16.4245 24.2142 16.3792 24.1236 16.2474C24.0124 16.0785 23.7941 15.9632 23.6005 15.9673C23.5181 15.9673 22.2001 16.4409 20.5443 17.067Z" fill="white"/>
<path d="M9.09369 19.2793C8.7024 19.4235 8.34407 19.7901 8.21226 20.1772C8.11341 20.4738 8.14636 21.0298 8.27816 21.2976C8.40585 21.5612 8.69417 21.8495 8.95777 21.9772C9.13488 22.0678 9.23374 22.0801 9.67857 22.0925C10.2593 22.109 10.3994 22.0678 10.5435 21.833C10.6218 21.7094 10.6259 21.6229 10.6259 20.655C10.6259 19.6994 10.6177 19.6006 10.5476 19.4894C10.3911 19.2546 10.284 19.2175 9.74035 19.2217C9.43144 19.2217 9.18843 19.2464 9.09369 19.2793Z" fill="white"/>
<path d="M23.6664 19.2946C23.4028 19.4717 23.3945 19.5005 23.3945 20.6538C23.3945 21.6217 23.3987 21.7082 23.4769 21.8318C23.6211 22.0666 23.7611 22.1119 24.3419 22.0913C24.7867 22.0789 24.8856 22.0624 25.0627 21.9759C25.3263 21.8483 25.6146 21.5599 25.7423 21.2963C25.8329 21.1192 25.8452 21.0327 25.8452 20.6579C25.8452 20.2831 25.8329 20.1966 25.7423 20.0195C25.6146 19.7559 25.3263 19.4676 25.0627 19.3399C24.8814 19.2493 24.7908 19.2369 24.3213 19.2246C23.8476 19.2163 23.7735 19.2246 23.6664 19.2946Z" fill="white"/>
</svg>
