<svg width="18" height="18" viewBox="0 0 18 18" fill="none" xmlns="http://www.w3.org/2000/svg">
<path d="M8.99453 7.18066L7.66626 7.93745L8.99453 8.69475L10.3223 7.93745L8.99453 7.18066Z" fill="white"/>
<path d="M7.40039 9.903L8.72866 10.6733V9.1592L7.40039 8.38892V9.903Z" fill="white"/>
<path d="M12.5796 8.99995C12.5796 7.02131 10.9726 5.41431 8.994 5.41431C7.01484 5.41431 5.40784 7.02131 5.40784 8.99995C5.40784 10.9791 7.01484 12.5861 8.994 12.5861C10.9726 12.5861 12.5796 10.9791 12.5796 8.99995ZM11.119 10.0625C11.119 10.1554 11.0656 10.2483 10.9861 10.2882L9.12688 11.3508C9.08691 11.3772 9.03396 11.3907 8.994 11.3907C8.95403 11.3907 8.90109 11.3772 8.86112 11.3508L7.00186 10.2882C6.92192 10.2353 6.86898 10.1554 6.86898 10.0625V7.93744C6.86898 7.84453 6.92192 7.75162 7.00186 7.71165L8.86112 6.64914C8.94053 6.5962 9.04694 6.5962 9.12688 6.64914L10.9861 7.71165C11.0526 7.75162 11.092 7.81806 11.119 7.8845C11.119 7.89747 11.132 7.92446 11.132 7.93744C11.119 7.93744 11.119 10.0625 11.119 10.0625Z" fill="white"/>
<path d="M9.25879 10.6733L10.5871 9.903V8.38892L9.25879 9.1592V10.6733Z" fill="white"/>
<path d="M10.1898 2.35952V1.29701C10.1898 1.2041 10.1364 1.11119 10.057 1.07122L9.12734 0.539708C9.0474 0.486764 8.941 0.486764 8.86158 0.539708L7.93195 1.07122C7.85202 1.12417 7.79907 1.2041 7.79907 1.29701V2.35952C7.79907 2.45243 7.85202 2.54534 7.93195 2.58531L8.86158 3.1163C8.90155 3.14278 8.941 3.15627 8.99446 3.15627C9.0474 3.15627 9.08737 3.14278 9.12734 3.1163L10.057 2.58531C10.1364 2.54534 10.1898 2.45243 10.1898 2.35952Z" fill="white"/>
<path d="M8.72827 3.95301V4.6174C8.72827 4.76326 8.84765 4.88264 8.99403 4.88264C9.13988 4.88264 9.25927 4.76326 9.25927 4.6174V3.95301C9.25927 3.80716 9.13988 3.68726 8.99403 3.68726C8.84765 3.68726 8.72827 3.80716 8.72827 3.95301Z" fill="white"/>
<mask id="mask0_1_6571" style="mask-type:luminance" maskUnits="userSpaceOnUse" x="7" y="14" width="4" height="4">
<path d="M7.71814 14.8378H10.2428V17.5H7.71814V14.8378Z" fill="white"/>
</mask>
<g mask="url(#mask0_1_6571)">
<path d="M7.79871 15.6401V16.7026C7.79871 16.7955 7.85165 16.889 7.93158 16.9284L8.86121 17.4599C8.90118 17.4864 8.94063 17.4999 8.99409 17.4999C9.04704 17.4999 9.087 17.4864 9.12697 17.4599L10.0566 16.9284C10.136 16.8755 10.1895 16.7955 10.1895 16.7026V15.6401C10.1895 15.5472 10.136 15.4543 10.0566 15.4143L9.12697 14.8833C9.04704 14.8304 8.94063 14.8304 8.86121 14.8833L7.93158 15.4143C7.85165 15.4543 7.79871 15.5472 7.79871 15.6401Z" fill="white"/>
</g>
<path d="M9.25927 14.0466V13.3827C9.25927 13.2363 9.13988 13.1169 8.99403 13.1169C8.84765 13.1169 8.72827 13.2363 8.72827 13.3827V14.0466C8.72827 14.1929 8.84765 14.3123 8.99403 14.3123C9.13988 14.3123 9.25927 14.1929 9.25927 14.0466Z" fill="white"/>
<mask id="mask1_1_6571" style="mask-type:luminance" maskUnits="userSpaceOnUse" x="15" y="7" width="3" height="4">
<path d="M15.0247 7.66211H17.5V10.4526H15.0247V7.66211Z" fill="white"/>
</mask>
<g mask="url(#mask1_1_6571)">
<path d="M17.3616 8.24273L16.432 7.71122C16.3526 7.65827 16.2462 7.65827 16.1668 7.71122L15.2366 8.24273C15.1572 8.29567 15.1042 8.37561 15.1042 8.46852V9.53103C15.1042 9.62394 15.1572 9.71685 15.2366 9.75682L16.1668 10.2878C16.2062 10.3143 16.2462 10.3278 16.2991 10.3278C16.3526 10.3278 16.3925 10.3143 16.432 10.2878L17.3616 9.75682C17.4416 9.70336 17.4945 9.62394 17.4945 9.53103V8.46852C17.4945 8.37561 17.4416 8.28218 17.3616 8.24273Z" fill="white"/>
</g>
<path d="M13.3761 9.26564H14.0405C14.1863 9.26564 14.3057 9.14626 14.3057 8.99989C14.3057 8.85403 14.1863 8.73413 14.0405 8.73413H13.3761C13.2302 8.73413 13.1108 8.85403 13.1108 8.99989C13.1108 9.14626 13.2302 9.26564 13.3761 9.26564Z" fill="white"/>
<mask id="mask2_1_6571" style="mask-type:luminance" maskUnits="userSpaceOnUse" x="0" y="7" width="3" height="4">
<path d="M0.487427 7.66211H2.93322V10.4526H0.487427V7.66211Z" fill="white"/>
</mask>
<g mask="url(#mask2_1_6571)">
<path d="M0.626775 9.75682L1.5564 10.2878C1.59637 10.3143 1.64932 10.3278 1.68928 10.3278C1.72925 10.3278 1.78219 10.3143 1.82216 10.2878L2.75179 9.75682C2.83173 9.70336 2.88467 9.62394 2.88467 9.53103V8.46852C2.88467 8.37561 2.83173 8.28218 2.75179 8.24273L1.82216 7.71122C1.74223 7.65827 1.63634 7.65827 1.5564 7.71122L0.626775 8.24273C0.547359 8.29567 0.493896 8.37561 0.493896 8.46852V9.53103C0.493896 9.62394 0.547359 9.71685 0.626775 9.75682Z" fill="white"/>
</g>
<path d="M4.61078 8.73413H3.94691C3.80054 8.73413 3.68115 8.85403 3.68115 8.99989C3.68115 9.14626 3.80054 9.26564 3.94691 9.26564H4.61078C4.75716 9.26564 4.87654 9.14626 4.87654 8.99989C4.87654 8.85403 4.75716 8.73413 4.61078 8.73413Z" fill="white"/>
<path d="M13.5892 15.2948C13.6421 15.3483 13.7086 15.3748 13.775 15.3748C13.8015 15.3748 13.828 15.3748 13.8414 15.3613L14.8775 15.0825C14.9704 15.0561 15.0368 14.9896 15.0633 14.8967L15.342 13.8607C15.3685 13.7678 15.342 13.6749 15.2756 13.6084L14.5188 12.8511C14.4524 12.7847 14.3595 12.7582 14.2666 12.7847L13.2435 13.0639C13.1506 13.0904 13.0841 13.1568 13.0577 13.2498L12.7789 14.2858C12.7525 14.3787 12.7789 14.4716 12.8454 14.538L13.5892 15.2948Z" fill="white"/>
<path d="M12.3802 12.7582C12.4336 12.8111 12.5001 12.8381 12.5665 12.8381C12.6324 12.8381 12.6989 12.8111 12.7523 12.7582C12.8582 12.6518 12.8582 12.4924 12.7523 12.3866L12.2873 11.9215C12.1814 11.8151 12.022 11.8151 11.9156 11.9215C11.8092 12.0279 11.8092 12.1872 11.9156 12.2936L12.3802 12.7582Z" fill="white"/>
<path d="M4.39852 2.70475C4.33208 2.63831 4.23917 2.61184 4.14626 2.63831L3.11022 2.91705C3.01731 2.94404 2.95087 3.01048 2.9244 3.10339L2.64515 4.13891C2.61868 4.23182 2.64515 4.32525 2.71159 4.39169L3.46889 5.14847C3.52184 5.20141 3.58827 5.22789 3.65471 5.22789C3.68119 5.22789 3.70766 5.22789 3.72115 5.21491L4.75719 4.93618C4.8501 4.90919 4.91654 4.84275 4.94301 4.74983L5.22175 3.71432C5.24822 3.62141 5.22175 3.52798 5.15531 3.46154L4.39852 2.70475Z" fill="white"/>
<path d="M5.23532 5.61359L5.69988 6.07814C5.75334 6.13109 5.81978 6.15808 5.8857 6.15808C5.95214 6.15808 6.01858 6.13109 6.07204 6.07814C6.17793 5.97174 6.17793 5.81239 6.07204 5.7065L5.60697 5.24143C5.50056 5.13502 5.34121 5.13502 5.23532 5.24143C5.12892 5.34783 5.12892 5.52016 5.23532 5.61359Z" fill="white"/>
<path d="M15.3555 4.13891L15.0763 3.10339C15.0498 3.01048 14.9834 2.94404 14.8905 2.91705L13.8544 2.63831C13.7615 2.61184 13.6686 2.63831 13.6022 2.70475L12.8454 3.46154C12.7789 3.52798 12.7525 3.62141 12.7789 3.71432L13.0577 4.74983C13.0841 4.84275 13.1506 4.90919 13.2435 4.93618L14.2795 5.21491C14.306 5.21491 14.333 5.22789 14.346 5.22789C14.4124 5.22789 14.4788 5.20141 14.5318 5.14847L15.2891 4.39169C15.3555 4.32525 15.382 4.23182 15.3555 4.13891Z" fill="white"/>
<path d="M12.2752 6.09145L12.7397 5.62638C12.8461 5.51997 12.8461 5.36062 12.7397 5.25473C12.6333 5.14833 12.474 5.14833 12.3681 5.25473L11.903 5.71929C11.7971 5.82569 11.7971 5.98504 11.903 6.09145C11.9565 6.14439 12.0229 6.17087 12.0888 6.17087C12.1553 6.17087 12.2352 6.14439 12.2752 6.09145Z" fill="white"/>
<path d="M2.63282 13.8607L2.91155 14.8967C2.93803 14.9896 3.00446 15.0561 3.09738 15.0825L4.13341 15.3613C4.15988 15.3613 4.18636 15.3748 4.19985 15.3748C4.26629 15.3748 4.33273 15.3483 4.38567 15.2948L5.14298 14.538C5.20942 14.4716 5.23589 14.3787 5.20942 14.2858L4.93016 13.2498C4.90369 13.1568 4.83725 13.0904 4.74434 13.0639L3.70831 12.7847C3.61539 12.7582 3.52248 12.7847 3.45604 12.8511L2.69926 13.6084C2.63282 13.6749 2.60635 13.7678 2.63282 13.8607Z" fill="white"/>
<path d="M5.42114 12.8381C5.48758 12.8381 5.55402 12.8111 5.60697 12.7582L6.07204 12.2936C6.17793 12.1872 6.17793 12.0279 6.07204 11.9215C5.96563 11.8151 5.80628 11.8151 5.69988 11.9215L5.23532 12.3866C5.12892 12.4924 5.12892 12.6518 5.23532 12.7582C5.28827 12.8111 5.35471 12.8381 5.42114 12.8381Z" fill="white"/>
</svg>
