<svg width="17" height="21" viewBox="0 0 17 21" fill="none" xmlns="http://www.w3.org/2000/svg">
<path fill-rule="evenodd" clip-rule="evenodd" d="M7.58432 19.2104V18.7767H9.41583C9.41583 19.8498 9.33566 19.7887 8.16268 19.7887C7.79004 19.7887 7.58432 19.583 7.58432 19.2104ZM6.52405 17.2824H10.4764C10.4333 17.4668 10.3146 17.6468 10.1996 17.7769C10.1214 17.8654 9.88006 18.1019 9.75366 18.1019H7.24735C7.09784 18.1019 6.74318 17.7595 6.63447 17.5581C6.57313 17.4448 6.56742 17.3786 6.52434 17.2827L6.52405 17.2824ZM1.70433 14.6797H3.05392C3.5638 14.6797 3.58234 15.9328 4.35529 15.9328H12.6452C12.9801 15.9328 13.2115 15.6481 13.3519 15.3865C13.8361 14.484 13.587 14.6797 15.2961 14.6797C15.4462 14.6797 15.6479 15.0355 15.6816 15.1616C14.4952 15.1616 14.5737 15.0364 14.1711 15.7716C14.0233 16.0413 13.9465 16.0361 13.9465 16.3665C13.9465 16.4404 14.3802 17.1754 14.4535 17.2573C14.5888 17.4083 14.7446 17.3823 15.0059 17.3795C15.247 17.3769 15.4887 17.3786 15.7298 17.3786C15.6405 17.5121 15.4839 17.6984 15.4408 17.8605H13.7539C13.3773 17.2981 13.2124 16.6074 12.5008 16.6074H4.49995C3.78835 16.6074 3.62343 17.2981 3.2468 17.8605H1.55995C1.51658 17.6984 1.36022 17.5118 1.27063 17.3786C1.69348 17.3786 2.37285 17.4514 2.54689 17.257C2.62507 17.1697 3.0542 16.5084 3.0542 16.2701C3.0542 16.1063 2.68727 15.4818 2.58256 15.3439C2.37884 15.0763 1.78878 15.1616 1.31914 15.1616C1.3528 15.0352 1.55453 14.6797 1.7049 14.6797H1.70433ZM3.58405 9.13696C3.58405 6.41152 5.8932 4.22079 8.16297 4.22079C9.21439 4.22079 9.71685 4.22621 10.7015 4.71868C12.941 5.83887 14.0415 8.46416 13.0312 11.0167C12.3846 12.6502 10.4767 13.434 10.4767 15.2581H6.52434C6.52434 13.6597 4.97644 12.7152 4.36385 11.7794C4.21177 11.5468 4.07539 11.2829 3.96981 11.0167C3.75325 10.4697 3.58434 9.90363 3.58434 9.13696H3.58405ZM2.90926 8.89614C2.90926 9.90477 2.96261 10.2614 3.28817 11.1682C3.36806 11.3905 3.53127 11.7072 3.65225 11.9126C4.45458 13.2719 5.726 13.7775 5.84926 15.2583H4.355C3.56265 13.761 3.65082 14.0052 1.51144 14.0052C1.13111 14.0052 1.04808 14.3362 0.871459 14.5701C0.775019 14.6977 0.402954 15.2078 0.402954 15.3548C0.402954 16.0173 1.4541 15.8849 2.13802 15.8849C2.22647 16.2647 2.5021 16.0886 2.0898 16.7044C1.73885 16.7044 1.37534 16.6947 1.02668 16.7015C0.645766 16.7092 0.402954 16.9375 0.402954 17.1863C0.402954 17.3874 0.733648 17.8015 0.844069 17.9501C1.40645 18.7074 0.987017 18.5359 3.24651 18.5359C3.75924 18.5359 4.00862 17.9059 4.18894 17.5986C4.45744 17.1409 4.52534 17.2827 5.80104 17.2827C5.96938 18.0049 6.37739 18.3724 6.90953 18.7288C6.90953 19.2715 6.87329 19.6107 7.10013 19.936C7.5595 20.5951 8.15269 20.4638 8.98214 20.4638C9.37788 20.4638 9.69916 20.2045 9.87977 19.9639C10.1317 19.6278 10.0906 19.2826 10.0906 18.7288C10.6228 18.3724 11.0311 18.0049 11.1991 17.2827C11.5041 17.2827 11.81 17.2847 12.1153 17.2824C12.8948 17.2762 12.5342 17.2745 13.1468 18.1787C13.2492 18.3299 13.5325 18.5359 13.7536 18.5359H15.5369C15.8511 18.5359 15.9489 18.2508 16.143 17.9849C16.2288 17.8674 16.5975 17.3458 16.5975 17.2345C16.5975 16.5229 15.5743 16.7044 14.9106 16.7044C14.5075 15.9423 14.7394 16.4131 14.8624 15.8849C15.2647 15.8849 16.5975 16.0376 16.5975 15.403C16.5975 15.1665 16.1852 14.6403 16.0325 14.4258C15.6137 13.8368 15.661 14.0052 13.8986 14.0052C13.2395 14.0052 12.971 14.6432 12.6454 15.2583H11.1515C11.2938 13.5467 13.0286 13.0739 13.7126 11.1682C14.7808 8.19138 13.4398 5.14125 10.7526 3.99338C6.74061 2.27943 2.90954 5.46053 2.90954 8.89614H2.90926Z" fill="#FEFEFE"/>
<path fill-rule="evenodd" clip-rule="evenodd" d="M5.22258 7.78735C5.3136 7.65154 5.36524 7.54026 5.45398 7.39218C5.54471 7.24095 5.62603 7.11655 5.70449 6.9679C6.3636 7.02268 6.47002 7.29745 6.85464 7.0107C7.59478 6.45916 7.72745 6.86575 8.0182 5.6183H8.98203C9.04338 5.88109 9.19432 6.44518 9.40546 6.59269L9.88309 6.83807C10.7522 7.35851 10.2483 7.05492 11.2957 6.9679C11.3691 7.10628 11.4427 7.22155 11.528 7.36222C11.6219 7.51715 11.6821 7.6444 11.7777 7.78707C11.6647 7.95598 11.1511 8.41393 11.1511 8.60652C11.1511 8.8519 11.1922 8.92209 11.197 9.09129C11.2144 9.68991 10.9465 9.55181 11.4287 10.064C11.5834 10.2283 11.5791 10.3048 11.7777 10.438C11.6182 10.7393 11.4501 11.0135 11.2957 11.3057C10.084 11.0235 10.5074 11.0837 9.81747 11.4661C9.35181 11.7243 9.23683 11.5622 8.98232 12.6553H8.01849C7.76369 11.5622 7.64899 11.7243 7.18334 11.4661C6.49656 11.0854 6.91542 11.0235 5.70506 11.3057C5.55042 11.0135 5.38236 10.7393 5.22315 10.438C5.30989 10.3798 5.84972 9.79633 5.84972 9.71502C5.84972 9.4528 5.81235 9.36692 5.80236 9.18088C5.79123 8.97117 5.84972 8.87559 5.84972 8.60652C5.84972 8.41393 5.33614 7.95598 5.22315 7.78707L5.22258 7.78735ZM5.56012 6.24517C5.38122 6.24517 5.26509 6.37014 5.1872 6.49882L4.71384 7.32655C4.30069 8.00534 4.50241 7.98565 5.01857 8.57257C5.19091 8.76859 5.14154 8.80169 5.13241 8.94349C5.11444 9.21826 5.12585 9.31299 5.17464 9.52271C5.12243 9.5578 4.49985 10.1961 4.49985 10.3422C4.49985 10.7433 4.76092 11.0395 5.08733 11.5862C5.39805 12.1063 5.38693 12.0866 6.15959 11.9038C6.51653 11.8193 6.48942 11.8244 6.74565 11.9999C6.95365 12.142 7.11514 12.1351 7.20759 12.3574C7.65213 13.4271 7.11429 13.3301 9.12669 13.3301C9.63543 13.3301 9.6457 12.7112 9.79264 12.3574C9.88509 12.1349 10.0469 12.142 10.2546 11.9999C11.0013 11.4889 11.3077 12.6062 11.9132 11.5862C12.5089 10.5824 12.7432 10.4549 12.1988 9.92045C12.0576 9.78207 11.9831 9.62799 11.8256 9.52271C11.9837 8.84449 11.7369 8.94378 11.8964 8.68099C12.0927 8.35772 12.5004 8.2473 12.5004 7.78764C12.5004 7.6076 12.1549 7.09287 12.057 6.92966C11.4706 5.95185 11.7038 6.25116 10.6315 6.40666C10.4572 6.43205 10.482 6.41351 10.3222 6.30508C10.1841 6.21121 10.1208 6.20094 9.97554 6.11934C9.54926 5.88023 9.78836 4.94408 9.17463 4.94408C7.64927 4.94408 7.57395 4.78458 7.3611 5.44397C7.08947 6.28454 7.21815 5.949 6.70684 6.28511C6.21751 6.60667 6.19383 6.24545 5.56012 6.24545V6.24517Z" fill="#FEFEFE"/>
<path fill-rule="evenodd" clip-rule="evenodd" d="M7.68107 9.18519C7.68107 8.00907 9.3197 8.00907 9.3197 9.18519C9.3197 10.2115 7.68107 10.2115 7.68107 9.18519ZM8.40409 10.6312C9.42127 10.6312 10.0225 9.98439 10.0108 9.09531C9.98536 7.17278 7.07019 7.11458 6.99115 9.05993C6.95805 9.86911 7.56865 10.6312 8.40409 10.6312Z" fill="#FEFEFE"/>
<path fill-rule="evenodd" clip-rule="evenodd" d="M8.16257 0.798906C8.16257 1.49853 8.01106 2.43753 8.49983 2.43753C8.98888 2.43753 8.83737 1.49853 8.83737 0.798906C8.83737 0.434544 8.16257 0.434544 8.16257 0.798906Z" fill="#FEFEFE"/>
<path fill-rule="evenodd" clip-rule="evenodd" d="M14.1875 5.47396C14.1875 5.6948 14.2768 5.96358 14.5912 5.88283C14.6877 5.85801 15.0013 5.66513 15.0943 5.6092C15.3993 5.42574 15.9229 5.21574 15.9229 4.94382C15.9229 4.8217 15.8056 4.60657 15.5856 4.60657C15.4064 4.60657 15.3285 4.68589 15.209 4.76007C15.0061 4.88562 14.1878 5.24998 14.1878 5.47424L14.1875 5.47396Z" fill="#FEFEFE"/>
<path fill-rule="evenodd" clip-rule="evenodd" d="M0.402767 9.37804C1.03248 9.37804 1.89702 9.51814 1.89702 9.0405C1.89702 8.81538 1.7846 8.70325 1.55976 8.70325H0.258392C-0.0680211 8.70325 -0.151051 9.37804 0.403052 9.37804H0.402767Z" fill="#FEFEFE"/>
<path fill-rule="evenodd" clip-rule="evenodd" d="M15.1029 8.99228C15.1029 9.52784 15.8042 9.37804 16.5972 9.37804C17.1513 9.37804 17.0679 8.70325 16.7418 8.70325H15.4404C15.2459 8.70325 15.1029 8.80825 15.1029 8.99228Z" fill="#FEFEFE"/>
<path fill-rule="evenodd" clip-rule="evenodd" d="M11.6327 3.01587C11.6327 3.22843 11.7879 3.35312 12.0185 3.35312C12.2847 3.35312 12.9341 1.97899 12.9341 1.95531C12.9341 1.70365 12.5292 1.38437 12.2479 1.84746C12.1688 1.97756 12.1083 2.07771 12.035 2.21296C11.9414 2.38472 11.633 2.84438 11.633 3.01587H11.6327Z" fill="#FEFEFE"/>
<path fill-rule="evenodd" clip-rule="evenodd" d="M4.0662 1.9556C4.0662 1.97929 4.71561 3.35342 4.98182 3.35342C5.21207 3.35342 5.36729 3.22873 5.36729 3.01616C5.36729 2.85267 4.90135 2.10169 4.76982 1.87828C4.46338 1.35728 4.06592 1.71964 4.06592 1.9556H4.0662Z" fill="#FEFEFE"/>
<path fill-rule="evenodd" clip-rule="evenodd" d="M1.07751 4.94374C1.07751 5.21623 1.60023 5.42537 1.9061 5.60912C2.00853 5.67104 2.27217 5.83539 2.37346 5.87077C2.71443 5.99032 3.08849 5.50669 2.55779 5.19825C2.2873 5.04104 1.61963 4.6062 1.36655 4.6062C1.23045 4.6062 1.07751 4.80707 1.07751 4.94346V4.94374Z" fill="#FEFEFE"/>
</svg>
