<svg width="17" height="21" viewBox="0 0 17 21" fill="none" xmlns="http://www.w3.org/2000/svg">
<path fill-rule="evenodd" clip-rule="evenodd" d="M4.96126 16.4954H12.0443V17.3712H4.96126V16.4954ZM7.16992 12.0019C7.16992 13.3636 8.6333 13.7778 9.40818 13.0597C10.27 12.2611 9.65042 11.0591 9.18829 10.9358V4.9192L12.6916 11.8878C12.9475 12.3995 12.9588 12.1532 12.3869 13.2968L11.1684 15.734C11.1197 15.833 11.0616 16.0384 10.9399 16.0384H6.06559C5.93021 16.0384 5.73426 15.5278 5.67209 15.4037C5.54613 15.1518 5.4425 14.9446 5.31681 14.6929C5.07753 14.2144 4.85252 13.7643 4.61863 13.2966C4.04883 12.1567 4.05556 12.4043 4.31422 11.8875L7.8175 4.91893V10.9356C7.54404 11.0085 7.17019 11.5457 7.17019 12.0019H7.16992ZM3.62842 12.3063C3.62842 12.4541 3.97616 13.078 4.06014 13.2457L5.4565 16.0381C4.29565 16.0381 4.50451 15.8059 4.50451 17.6377C4.50451 17.8926 4.90743 17.828 5.15209 17.828V19.694C5.15209 20.1938 5.64706 20.1093 5.64706 19.7702V17.828H11.359V19.7702C11.359 20.1093 11.854 20.1938 11.854 19.694V17.828C12.6568 17.828 12.5015 18.0032 12.5015 16.3049C12.5015 15.9391 12.0679 16.0381 11.5496 16.0381C11.6556 15.8379 13.3774 12.4724 13.3774 12.3063C13.3774 12.1537 12.9325 11.3404 12.8442 11.1641C12.6568 10.7897 12.4784 10.4322 12.2857 10.0471C11.9016 9.27892 11.5401 8.55598 11.1561 7.78782L9.46793 4.41131C9.36835 4.21187 9.28384 4.03908 9.19017 3.85121C9.0303 3.53092 8.73154 3.60682 8.73154 3.8146V11.0879C8.73154 11.307 9.37885 11.3813 9.37885 12.0399C9.37885 13.2376 7.62721 13.2376 7.62721 12.0399C7.62721 11.7185 7.83553 11.4451 8.07212 11.3043C8.15986 11.2521 8.27452 11.2082 8.27452 11.0879V3.8146C8.27452 3.62297 7.98491 3.52553 7.82853 3.82537L4.73329 10.0215C4.59252 10.303 3.62896 12.1588 3.62896 12.3063H3.62842Z" fill="#FEFEFE"/>
<path fill-rule="evenodd" clip-rule="evenodd" d="M15.1669 9.18382H15.9286C16.0163 9.18382 16.0427 9.2102 16.0427 9.29794V10.0596H15.1669V9.18382ZM0.962947 9.29794C0.962947 9.2102 0.989323 9.18382 1.07707 9.18382H1.83876V10.0596H0.962947V9.29794ZM8.08389 1.45351H8.92177V2.29138H8.08389V1.45351ZM15.1669 1.91053C15.1669 1.23119 16.0048 1.4196 16.0048 1.75819C16.0048 2.1202 15.9776 2.29138 15.5477 2.29138C15.3564 2.29138 15.1669 2.1019 15.1669 1.91053ZM1.45792 2.29138C0.828102 2.29138 0.963753 1.68041 1.13036 1.54502C1.33141 1.38165 1.83876 1.3943 1.83876 1.9108C1.83876 2.10217 1.64928 2.29165 1.45792 2.29165V2.29138ZM7.58893 1.33939V1.64407H2.25784C2.23146 1.32889 1.84415 0.996761 1.49613 0.996761H1.30585C0.398535 0.996761 0.125615 2.57103 1.28889 2.76832C1.73434 2.84395 2.22581 2.48436 2.25784 2.10109H5.8755C5.80041 2.16623 5.2177 2.39204 4.93078 2.56538C4.08753 3.07488 4.1785 3.01728 3.52366 3.59542C3.2397 3.846 3.45475 3.6035 3.16057 3.95582C2.98212 4.16925 2.95682 4.13749 2.6656 4.52696C1.93109 5.50882 1.19173 7.03007 1.19173 8.72707C0.385347 8.72707 0.506463 8.59249 0.506463 10.2502C0.506463 10.3786 0.573753 10.5167 0.696755 10.5167C1.10317 10.5167 1.90417 10.5611 2.25811 10.4787C2.34047 10.1248 2.29605 9.32378 2.29605 8.91736C2.29605 8.67297 1.86003 8.72707 1.64875 8.72707C1.64875 7.78531 1.94858 6.86185 2.22473 6.18062C2.5173 5.4593 2.84189 5.06983 3.26985 4.52211C3.35409 4.41445 3.37266 4.39319 3.46686 4.30006C3.84717 3.92406 3.84798 3.90037 4.28132 3.55316C4.98569 2.98902 6.04965 2.46848 6.90662 2.29407C7.09449 2.25585 7.39621 2.18157 7.58947 2.17726C7.58947 2.92873 7.59054 2.78662 9.11259 2.78662C9.45953 2.78662 9.41727 2.44345 9.41727 2.17726C9.60326 2.1813 9.89771 2.25397 10.0683 2.28788C10.5727 2.38854 11.3754 2.70318 11.7802 2.93708L12.2582 3.22076C12.8823 3.63741 13.4317 4.1165 13.8951 4.70621C14.0198 4.86474 14.1204 4.99959 14.2313 5.16969C14.4281 5.47222 14.6474 5.84903 14.7817 6.18062C14.9306 6.54775 15.0805 6.93236 15.1709 7.35251C15.253 7.7339 15.3577 8.26709 15.3577 8.72707C14.5435 8.72707 14.7104 8.58496 14.7104 10.2884C14.7104 10.3912 14.7284 10.3934 14.7484 10.4787C15.1023 10.5611 15.9033 10.5167 16.3097 10.5167C16.4327 10.5167 16.5 10.3786 16.5 10.2502V9.03148C16.5 8.64552 16.1299 8.7268 15.8145 8.7268C15.8145 7.04056 15.0835 5.52793 14.357 4.54849C13.5942 3.52006 12.5507 2.73737 11.384 2.2284C11.3301 2.20498 11.2951 2.19368 11.2494 2.17242L11.198 2.14738C11.1485 2.11966 11.1598 2.12639 11.1304 2.10082H14.7481C14.7801 2.48409 15.2716 2.84368 15.7168 2.76805C16.88 2.57076 16.6074 0.996491 15.7001 0.996491H15.5098C15.162 0.996491 14.7745 1.32862 14.7481 1.6438H9.417C9.417 0.847381 9.45657 0.958541 8.04622 0.958541C7.73077 0.958541 7.5892 1.01883 7.5892 1.33939H7.58893Z" fill="#FEFEFE"/>
</svg>
