<svg width="21" height="21" viewBox="0 0 21 21" fill="none" xmlns="http://www.w3.org/2000/svg">
<path fill-rule="evenodd" clip-rule="evenodd" d="M9.59205 19.1465H11.1923C11.1747 19.3576 11.0728 19.5231 10.9419 19.6313C10.5357 19.9669 9.96098 19.861 9.70625 19.4215C9.64199 19.311 9.636 19.2447 9.59205 19.1465ZM7.9918 18.2382C7.9918 18.0227 7.93619 17.7623 8.29447 17.7623H12.5328C12.8528 17.7623 12.7925 17.9332 12.7925 18.2814C12.7925 18.4143 12.6657 18.4546 12.5328 18.4546H8.29447C8.14896 18.4546 7.9918 18.378 7.9918 18.2382ZM7.64585 16.7245C7.64585 16.5154 7.78269 16.3785 7.9918 16.3785H12.7489C12.9058 16.3785 12.9903 16.4148 13.0949 16.4651C13.1571 16.7335 13.1571 16.7158 13.0949 16.9842C12.9903 17.0345 12.9058 17.0708 12.7489 17.0708H7.9918C7.78269 17.0708 7.64585 16.9339 7.64585 16.7248V16.7245ZM7.64585 15.3407C7.64585 15.1316 7.78269 14.9947 7.9918 14.9947H12.7489C12.9058 14.9947 12.9903 15.031 13.0949 15.0813C13.1571 15.3496 13.1571 15.332 13.0949 15.6004C12.9903 15.6507 12.9058 15.6869 12.7489 15.6869H7.9918C7.78269 15.6869 7.64585 15.5501 7.64585 15.341V15.3407ZM11.9272 5.52373C11.9272 6.28323 13.624 5.70387 13.7005 4.78854C13.9603 4.78287 14.5223 4.72993 14.5223 5.39421C14.5223 5.65758 14.4321 5.63661 14.1844 5.66191C13.6559 5.71552 13.0949 6.17935 13.0949 6.47536C13.0949 6.66482 13.2361 6.82131 13.4841 6.82131C13.7492 6.82131 13.7109 6.6748 13.8893 6.53463C14.7417 5.86336 15.7104 7.13663 14.8247 7.72965C14.6821 7.6544 14.5886 7.56716 14.4417 7.50723C14.1201 7.37604 13.5853 7.28414 13.3876 7.59213C13.273 7.77027 13.329 8.01567 13.5108 8.09225C13.6586 8.15452 14.522 7.99969 14.522 8.68128C14.522 9.4218 13.5817 9.45976 13.3413 8.95364C13.1065 8.45919 13.3037 8.73222 12.6897 8.48249C12.5611 8.43022 12.4899 8.42322 12.334 8.39892C12.028 8.3513 11.8406 8.46451 11.8406 8.76752C11.8406 9.14044 12.1463 9.06819 12.411 9.14843C12.9947 9.32624 13.0712 10.4107 12.1003 10.4107C11.8719 10.4107 11.6248 10.1856 11.5552 10.0045C11.4417 9.70982 11.495 7.49457 11.495 7.08069C12.2811 6.89257 12.2135 7.46993 12.6194 7.46993C13.0276 7.46993 13.1455 6.94518 12.5695 6.56859C12.1959 6.32452 11.9218 6.3455 11.495 6.3455V4.52915C11.495 3.37675 13.0519 3.38374 13.0519 4.44258C13.0519 4.74725 12.8355 5.00496 12.6214 5.0932C12.3374 5.21007 11.9275 5.10852 11.9275 5.52406L11.9272 5.52373ZM7.86194 4.44258C7.86194 3.38374 9.41891 3.37675 9.41891 4.52915V6.3455C8.99237 6.3455 8.71801 6.32452 8.34475 6.56859C7.76838 6.94518 7.88625 7.46993 8.29447 7.46993C8.70835 7.46993 8.62011 6.89456 9.41891 7.08069C9.41891 7.48359 9.46386 9.68584 9.36929 9.97186C9.1502 10.6368 8.07804 10.5283 8.07804 9.80505C8.07804 8.77451 9.07261 9.42846 9.07261 8.7239C9.07261 8.4745 8.86651 8.35996 8.61611 8.39193C8.52421 8.40358 8.34708 8.43821 8.28681 8.45785C8.14863 8.50214 8.14363 8.54243 7.99979 8.56607C7.68047 8.61868 7.71876 8.63133 7.58058 8.91835C7.28124 9.53934 6.39155 9.3279 6.39155 8.7239C6.39155 7.99603 7.21731 8.13454 7.33552 8.1109C7.84796 8.00868 7.58091 7.03608 6.50076 7.49258C6.32296 7.56783 6.24738 7.64541 6.08855 7.72932C5.20318 7.1363 6.17145 5.86303 7.02385 6.53429C7.23396 6.69944 7.13673 6.82098 7.47236 6.82098C7.8989 6.82098 8.01777 6.23562 7.22797 5.81108C6.68456 5.51907 6.39121 5.81841 6.39121 5.39354C6.39121 5.04259 6.59066 4.83648 6.89832 4.77588C7.08146 4.73992 6.98457 4.78288 7.21265 4.7882C7.2889 5.70353 8.98571 6.2829 8.98571 5.5234C8.98571 5.12284 8.6261 5.21174 8.3231 5.10486C8.08469 5.02061 7.86128 4.75158 7.86128 4.44225L7.86194 4.44258ZM7.17003 4.05334C6.37856 4.05334 5.82417 4.41528 5.69698 5.13382C5.63338 5.4921 5.7356 5.53705 5.74292 5.86969C4.85623 6.33884 4.83991 7.5605 5.44991 8.15219C5.55213 8.25141 5.69964 8.28105 5.69964 8.42123C5.69964 8.75819 5.59009 9.0815 5.97101 9.53368C6.30598 9.93124 6.79111 10.1067 7.34317 9.97819C7.43641 10.1723 7.41976 10.5189 7.91655 10.8752C8.38337 11.2102 8.42133 10.9308 8.60013 11.2728C9.27639 12.567 9.41924 12.4588 9.41924 14.3028H8.38137C8.38137 12.561 8.54286 12.5021 7.37747 11.7173L6.72518 11.2019C6.59166 11.089 6.52474 11.053 6.4022 10.9192C6.05991 10.5459 5.92007 10.3568 5.63105 9.91726C5.53948 9.77774 5.50718 9.70882 5.42161 9.56431C5.11361 9.04521 4.74868 7.95607 4.74868 7.25317C4.74868 6.05448 4.77631 5.46646 5.32538 4.36999C6.11185 2.79938 7.47736 1.70324 9.18583 1.31101C11.8096 0.708666 14.4044 2.00025 15.5891 4.36999C16.4396 6.07047 16.3633 8.25341 15.3361 9.84001C14.853 10.5862 14.3562 11.1749 13.5887 11.682C13.3623 11.8315 13.0872 11.9877 12.9101 12.1711C12.3943 12.7059 12.5335 13.4211 12.5335 14.3028H11.4956C11.4956 12.8011 11.5409 12.5234 12.3057 11.2641C12.373 11.1536 12.3637 11.1476 12.4885 11.101C12.7226 11.0131 12.7889 11.0247 12.9983 10.8755C13.4725 10.5372 13.4595 10.2116 13.5714 9.97819C14.3488 10.1593 15.0304 9.67186 15.1886 9.08683C15.2815 8.74254 15.2149 8.73056 15.2149 8.42123C15.2149 8.28305 15.3431 8.26074 15.4423 8.17283C15.6774 7.96539 15.8895 7.47759 15.8991 7.11999C15.9141 6.58191 15.5272 6.05781 15.1716 5.86935C15.1783 5.56236 15.2765 5.48577 15.2239 5.17112C15.1004 4.43159 14.5639 4.05301 13.7442 4.05301C13.577 3.70439 13.5594 3.54123 13.2564 3.28651C12.2412 2.43211 10.8034 3.23657 10.8034 4.31239V9.89128C10.8034 10.4443 11.2069 10.7946 11.6252 11.0157C10.7854 12.603 10.8034 12.3719 10.8034 14.3025H10.1115C10.1115 13.4064 10.1757 12.92 9.83378 12.0719C9.66996 11.6653 9.48017 11.375 9.29004 11.0157C9.70825 10.7943 10.1118 10.4437 10.1118 9.89128V4.31239C10.1118 2.98617 8.15895 2.36086 7.37747 3.61082C7.27525 3.77431 7.24928 3.88985 7.17103 4.05301L7.17003 4.05334ZM4.01315 6.82131C4.01315 8.52911 4.69274 10.0398 5.51717 10.9828C5.99731 11.5322 6.36724 11.9001 6.96193 12.306C7.85528 12.9156 7.68913 12.7079 7.68913 14.3467C7.22563 14.3854 6.56569 15.1306 7.17003 16.0332C6.90732 16.4255 6.82907 16.8347 7.06814 17.2596C7.17103 17.4427 7.18601 17.4414 7.34317 17.5469C7.33818 17.7603 7.12241 18.354 7.45838 18.7726C7.76471 19.1542 7.96383 19.1498 8.60113 19.1432C9.16252 19.1375 8.63343 19.2051 9.24443 20.0135C10.0166 21.0354 11.8979 20.4594 11.9272 19.1472H12.6624C13.5351 19.1472 13.6526 18.0317 13.4408 17.5902C14.2636 17.0391 13.6769 16.0579 13.6766 16.0336C13.6762 16.0106 14.2506 15.025 13.4408 14.4766C13.1392 14.2722 13.2247 14.4167 13.2247 13.3522C13.2247 12.8893 13.3253 12.6879 13.6316 12.5051C14.4554 12.0133 15.0174 11.4742 15.6098 10.7207C15.7893 10.4926 15.9481 10.2226 16.0933 9.95022C17.6749 6.98746 16.8444 3.61582 14.2506 1.68726C13.3433 1.01267 11.9648 0.4646 10.8027 0.4646C9.25441 0.4646 8.42899 0.627421 7.12841 1.3746C5.97933 2.03455 5.15224 3.09839 4.57454 4.26977C4.2772 4.87211 4.01282 5.91863 4.01282 6.82198L4.01315 6.82131Z" fill="#FEFEFE"/>
<path fill-rule="evenodd" clip-rule="evenodd" d="M0.509888 7.90216C0.509888 8.46587 1.26572 8.26143 1.60402 8.21781C2.05286 8.15987 2.71581 8.23746 2.71581 7.77263C2.71581 7.27118 2.04787 7.43433 1.61568 7.4946C1.21911 7.54954 0.509888 7.47795 0.509888 7.90249V7.90216Z" fill="#FEFEFE"/>
<path fill-rule="evenodd" clip-rule="evenodd" d="M0.856412 4.13949C0.856412 4.52807 1.31824 4.56436 1.62957 4.66392C1.76941 4.70854 2.56255 4.96126 2.67276 4.96126C2.91849 4.96126 3.35435 4.41586 2.6055 4.20642C2.38241 4.14415 2.16997 4.07456 1.97119 4.01896C1.74011 3.95469 1.56431 3.8871 1.33689 3.82717C1.1208 3.77023 0.856079 3.90175 0.856079 4.13916L0.856412 4.13949Z" fill="#FEFEFE"/>
<path fill-rule="evenodd" clip-rule="evenodd" d="M20.4901 7.94539C20.4901 7.47058 19.9337 7.57014 19.3473 7.48823C18.9231 7.42896 18.2572 7.31109 18.3034 7.80321C18.3437 8.23175 18.9008 8.15982 19.4016 8.2121C19.7732 8.25106 20.4901 8.46982 20.4901 7.94539Z" fill="#FEFEFE"/>
<path fill-rule="evenodd" clip-rule="evenodd" d="M18.0248 4.57216C18.0248 5.28272 18.9571 4.77428 19.7119 4.57283C20.4711 4.37005 20.1088 3.74107 19.7019 3.82431C19.5018 3.86527 19.2594 3.95617 19.068 4.01544C18.5562 4.1736 18.0248 4.21256 18.0248 4.57216Z" fill="#FEFEFE"/>
<path fill-rule="evenodd" clip-rule="evenodd" d="M4.229 14.519C4.229 14.841 4.51935 15.2239 4.97452 14.6592C5.14034 14.4537 5.82925 13.6439 5.82925 13.4378C5.82925 13.2617 5.79529 13.0486 5.4833 13.0486C5.23557 13.0486 5.03612 13.3975 4.80338 13.7095C4.69782 13.8514 4.229 14.4154 4.229 14.519Z" fill="#FEFEFE"/>
<path fill-rule="evenodd" clip-rule="evenodd" d="M2.62952 0.809578C2.62952 1.10559 3.40634 1.63234 3.64874 1.8228C3.88448 2.00827 3.92676 2.10682 4.14319 2.10682C4.38693 2.10682 4.76951 1.78518 4.20546 1.35265C4.06228 1.24277 3.96373 1.15587 3.82188 1.04432C3.64774 0.907471 3.15794 0.463623 3.01876 0.463623C2.80965 0.463623 2.62952 0.586489 2.62952 0.809578Z" fill="#FEFEFE"/>
<path fill-rule="evenodd" clip-rule="evenodd" d="M1.6344 11.5352C1.6344 11.8072 1.89278 11.9344 2.07525 11.8888L2.93231 11.4493C3.2493 11.2844 3.66718 11.0996 3.66718 10.8433C3.66718 10.5666 3.42644 10.4387 3.22566 10.49L2.36926 10.9292C2.0546 11.092 1.63473 11.2795 1.63473 11.5352H1.6344Z" fill="#FEFEFE"/>
<path fill-rule="evenodd" clip-rule="evenodd" d="M16.5114 1.76124C16.5114 2.00598 16.8227 2.28667 17.1946 1.96902C17.422 1.7749 18.2817 1.13959 18.363 0.970776C18.4462 0.798298 18.3284 0.105722 17.6221 0.709728C17.4813 0.830263 17.3561 0.919165 17.2132 1.03604C17.0737 1.14991 16.9768 1.23649 16.8327 1.34736C16.7071 1.44392 16.5114 1.57112 16.5114 1.76124Z" fill="#FEFEFE"/>
<path fill-rule="evenodd" clip-rule="evenodd" d="M15.2141 13.3514C15.2141 13.5053 16.213 14.7999 16.3845 14.8645C16.5656 14.9327 17.1866 14.7815 16.6279 14.1C16.4444 13.8762 15.8607 13.0055 15.6034 13.0055C15.4106 13.0055 15.2141 13.1806 15.2141 13.3514Z" fill="#FEFEFE"/>
<path fill-rule="evenodd" clip-rule="evenodd" d="M17.3765 10.7996C17.3765 11.1835 17.6342 11.1738 18.1097 11.4502C18.4826 11.667 18.7763 11.8807 19.1062 11.8807C19.3403 11.8807 19.4875 11.4669 19.2451 11.2664L17.8433 10.5019C17.6292 10.4337 17.3765 10.5202 17.3765 10.7996Z" fill="#FEFEFE"/>
</svg>
