<svg width="19" height="19" viewBox="0 0 19 19" fill="none" xmlns="http://www.w3.org/2000/svg">
<path fill-rule="evenodd" clip-rule="evenodd" d="M15.7824 17.5863H11.5943C11.604 17.1542 11.9913 16.6888 12.2959 16.4166C13.0547 15.7398 14.1848 15.7643 15.0447 16.4081C15.6192 16.8378 15.6361 17.2817 15.7824 17.5863ZM1.25759 16.1159V6.49227H2.77252V16.2497C2.77252 16.7448 3.46623 16.6061 3.97554 16.6061C3.87289 17.0473 3.34147 17.5863 2.81702 17.5863C2.26108 17.5863 1.99765 17.5512 1.61976 17.1348C1.39811 16.8905 1.25759 16.5713 1.25759 16.1159ZM10.7922 17.5863H4.33194C4.84337 16.8226 4.82217 16.6567 4.82217 15.5815C4.82217 14.8529 4.77857 10.9059 4.82581 10.5504C4.92331 9.81793 6.04367 10.012 6.82702 10.012C7.65881 10.012 8.4903 10.012 9.3221 10.012C10.2777 10.012 10.956 10.0923 11.6391 9.78947C11.8584 9.69227 12.2126 9.44912 12.3855 9.28864C13.0078 8.7115 13.4281 7.73981 14.6684 7.73981H17.0296C17.3512 7.73981 17.6979 7.96449 17.6979 8.27456V17.5863C16.6199 17.5863 16.6054 17.6835 16.5315 17.4164C16.3386 16.7212 16.2956 16.6609 15.8653 16.1223C15.8011 16.042 15.7821 15.9984 15.7006 15.9306C15.4435 15.7168 15.2219 15.5442 14.8976 15.397C13.8432 14.9183 12.5073 15.0979 11.6936 15.9039C11.2876 16.3058 10.8061 16.9592 10.7922 17.5866V17.5863ZM7.45048 7.91816C7.49651 8.11498 7.7439 8.41173 7.84958 8.58856C7.9919 8.82717 8.11968 9.0034 8.25261 9.25472H6.20295C6.43702 8.90499 6.91483 8.47017 7.10075 8.23671C7.20673 8.10317 7.2685 7.96691 7.45048 7.91816ZM10.302 9.25472C8.86246 9.25472 9.29545 9.3389 8.95631 8.8626C8.95086 8.85503 8.94269 8.84413 8.93724 8.83716C8.85609 8.72967 8.93603 8.83383 8.87607 8.76479C8.88758 8.74299 10.2429 6.51165 10.391 6.40355C10.4246 6.52952 10.4794 6.56373 10.5603 6.68001L11.5371 8.06441C11.6304 8.18887 11.8723 8.50499 11.9062 8.63126C11.621 9.057 10.8761 9.25503 10.3023 9.25503L10.302 9.25472ZM8.38615 8.00718C8.25382 7.75677 8.1433 7.6084 7.99372 7.37494C7.87018 7.18235 7.55859 6.47259 7.062 7.08425L5.2352 9.13391C5.02657 9.34587 5.07138 9.26896 4.82157 9.38856V3.95298H12.1285V7.51725L10.8812 5.77948C10.3126 4.97312 10.1784 5.24988 9.76661 5.8685L8.64414 7.64201C8.56268 7.76282 8.48334 7.93603 8.38584 8.00749L8.38615 8.00718ZM4.01975 3.59628V15.8488C3.66941 15.8488 3.52952 15.897 3.52952 15.7153V2.79446C3.52952 2.69182 3.56041 2.66093 3.66306 2.66093H13.4205V7.16086C13.4205 7.28955 13.1189 7.4355 12.9303 7.56176L12.9306 3.90817C12.9327 3.42823 12.9439 3.15086 12.4403 3.15086H4.50969C4.36707 3.15086 4.24504 3.17842 4.16479 3.25169C4.09848 3.31195 4.01946 3.47668 4.01946 3.59658L4.01975 3.59628ZM2.77221 2.25972V5.69045H0.900901C0.717101 5.69045 0.5 5.84004 0.5 6.00234V16.4281C0.5 16.9695 0.811573 17.4285 1.15707 17.7762C1.48076 18.102 1.96736 18.3884 2.59416 18.3884H18.0991C18.3192 18.3884 18.5 18.2076 18.5 17.9875V8.31907C18.5 7.95238 18.3268 7.62777 18.0952 7.38705C17.7681 7.04731 17.3481 6.93799 16.7622 6.93799H15.1138C14.7365 6.93799 14.5469 6.98251 14.1781 6.98251V2.25972C14.1781 2.04443 14.0373 1.90332 13.8217 1.90332H3.1286C2.91301 1.90332 2.77221 2.04443 2.77221 2.25972Z" fill="#FEFEFE"/>
<path fill-rule="evenodd" clip-rule="evenodd" d="M3.52959 1.0126C3.52959 1.23274 3.71037 1.41351 3.93051 1.41351H14.6681V6.04728C14.6681 6.62684 15.4699 6.62684 15.4699 6.04728V1.05711C15.4699 0.807001 15.2749 0.611694 15.0245 0.611694H4.01953C3.74126 0.611694 3.5293 0.739174 3.5293 1.0126H3.52959Z" fill="#FEFEFE"/>
<path fill-rule="evenodd" clip-rule="evenodd" d="M13.6883 13.7996C13.3092 13.7996 13.0364 13.6706 12.8172 13.4677C12.1477 12.8485 12.293 11.3045 13.7774 11.3045C14.1108 11.3045 14.4172 11.5119 14.5925 11.6924C15.3186 12.44 14.8063 13.7996 13.6883 13.7996ZM11.6387 12.5075C11.6387 14.1012 13.2411 15.0126 14.521 14.4097C14.9483 14.2084 15.3656 13.8208 15.5421 13.3811C15.6453 13.124 15.7029 12.8875 15.7071 12.5457C15.721 11.4329 14.8126 10.5027 13.6435 10.5027C12.5819 10.5027 11.6387 11.4383 11.6387 12.5075Z" fill="#FEFEFE"/>
<path fill-rule="evenodd" clip-rule="evenodd" d="M7.31688 5.42346C7.31688 5.54367 7.29568 5.5464 7.27236 5.64602C6.63951 5.79349 6.8969 5.29568 6.90871 5.28296C7.03952 5.13822 7.31688 5.23028 7.31688 5.42346ZM6.06934 5.37895C6.06934 6.69492 7.58638 6.76548 7.9994 5.92793C8.35731 5.20272 7.80046 4.44299 7.18305 4.44299C6.52688 4.44299 6.06934 4.82604 6.06934 5.37865V5.37895Z" fill="#FEFEFE"/>
<path fill-rule="evenodd" clip-rule="evenodd" d="M6.06934 14.1116C6.06934 14.4156 6.17531 14.6018 6.55957 14.6018H9.45556C9.85163 14.6018 10.0379 14.1594 9.75564 13.9005C9.67601 13.8275 9.55306 13.7997 9.41075 13.7997H6.47025C6.29644 13.7997 6.06934 13.9696 6.06934 14.1116Z" fill="#FEFEFE"/>
<path fill-rule="evenodd" clip-rule="evenodd" d="M6.06934 12.1511C6.06934 12.39 6.17411 12.552 6.42573 12.552H9.50008C10.0485 12.552 9.93218 11.7947 9.5891 11.7947H6.42573C6.21014 11.7947 6.06934 11.9355 6.06934 12.1511Z" fill="#FEFEFE"/>
<path fill-rule="evenodd" clip-rule="evenodd" d="M6.06934 16.2054C6.06934 16.4443 6.17411 16.6063 6.42573 16.6063H9.50008C9.69963 16.6063 9.85769 16.4643 9.88555 16.2793C9.91159 16.1055 9.75504 15.849 9.5891 15.849H6.42573C6.21014 15.849 6.06934 15.9898 6.06934 16.2054Z" fill="#FEFEFE"/>
</svg>
