<svg width="24" height="22" viewBox="0 0 24 22" fill="none" xmlns="http://www.w3.org/2000/svg">
<path d="M5.79335 11.385C5.52111 11.3779 5.29688 11.5974 5.29688 11.8704C5.29688 12.1434 5.52111 12.363 5.79335 12.3551H18.1572C18.4294 12.363 18.6536 12.1427 18.6536 11.8704C18.6536 11.5974 18.4294 11.3771 18.1572 11.385H5.79335Z" fill="#185850"/>
<path d="M23.5229 7.9825C23.7888 7.98722 24.0004 8.20595 23.9997 8.47267V13.022C23.9997 13.6664 23.9808 14.2588 23.7557 14.8072C23.5315 15.3548 23.0634 15.8096 22.3718 16.0724L22.2962 16.1007V19.2944C22.9752 19.4328 23.5756 19.8514 23.9304 20.4667C24.0642 20.6988 23.9839 20.997 23.7526 21.1308C23.5213 21.2653 23.2239 21.1866 23.0901 20.9529C22.8257 20.4934 22.3395 20.2102 21.8108 20.2102C21.2813 20.2102 20.7942 20.4934 20.5299 20.9529C20.3992 21.1929 20.0971 21.2771 19.8611 21.1394C19.6266 21.0041 19.5479 20.6996 19.6911 20.4659C20.046 19.8514 20.6455 19.432 21.3245 19.2936V16.4682L20.1451 16.9159C19.891 17.0276 19.5943 16.904 19.4968 16.6452C19.3976 16.384 19.5377 16.0944 19.8005 16.0087L22.0303 15.1652C22.5378 14.974 22.7274 14.7592 22.8596 14.4382C22.9925 14.1156 23.0295 13.6365 23.0295 13.022V8.47267C23.0264 8.19965 23.249 7.97777 23.5229 7.9825Z" fill="#185850"/>
<path d="M0.47605 7.9825C0.210897 7.98722 -0.00311294 8.20595 3.42722e-05 8.47267V13.022C3.42722e-05 13.6664 0.0181306 14.2588 0.242369 14.8072C0.467395 15.3548 0.934756 15.8096 1.62635 16.0724L1.70346 16.1007V19.2944C1.02366 19.4328 0.424121 19.8514 0.0692729 20.4667C-0.0644836 20.6988 0.0134099 20.997 0.246303 21.1308C0.477623 21.2645 0.774248 21.1866 0.908004 20.9529C1.17237 20.4934 1.6594 20.2102 2.18892 20.2102C2.71844 20.2102 3.20547 20.4934 3.46983 20.9529C3.60044 21.1929 3.901 21.2771 4.13704 21.1394C4.37308 21.0041 4.45019 20.6996 4.30856 20.4659C3.95372 19.8514 3.35339 19.432 2.67438 19.2936V16.4682L3.85458 16.9159C4.10714 17.0276 4.40298 16.904 4.50212 16.6452C4.59968 16.384 4.46199 16.0944 4.19684 16.0087L1.96783 15.1652C1.46113 14.974 1.27072 14.7592 1.13932 14.4382C1.00714 14.1156 0.968588 13.6365 0.968588 13.022V8.47267C0.970949 8.19965 0.748283 7.97777 0.47605 7.9825Z" fill="#185850"/>
<path d="M22.5762 7.40685V13.5431C22.5762 13.9979 22.2953 14.4062 21.8657 14.5738L18.883 15.7344L18.119 20.2412C17.9207 21.7573 15.6075 21.3765 15.9167 19.8785L16.7822 14.7548C16.8467 14.3732 17.1087 14.0522 17.4722 13.9106L19.2536 13.2174V9.57213L18.5627 10.4699C18.3833 10.6445 18.1434 10.7429 17.8908 10.7429H15.4431C14.17 10.7429 14.17 8.85535 15.4431 8.85535H17.5013L19.3912 6.78921C19.6855 6.46662 19.9994 6.21484 20.3724 6.21484H21.4566C22.1868 6.21484 22.5762 6.88363 22.5762 7.40685Z" fill="#185850"/>
<path d="M7.4368 6.08594C7.21414 6.08594 7.03789 6.17327 6.91673 6.2968L5.875 7.34876L6.71531 8.26617H8.50843C8.97579 8.26617 9.40145 8.46051 9.67054 8.75949C9.93805 9.05769 10.06 9.42985 10.06 9.7965C10.06 10.1458 9.94906 10.4999 9.7083 10.7902H11.3409L11.3629 8.49277L12.4094 9.29845C12.695 9.52033 13.1175 9.53213 13.3599 9.26541L14.9051 7.55647C14.9453 7.52028 14.998 7.49903 15.0523 7.50061H15.891C16.168 7.50061 16.3497 7.43137 16.4606 7.34403C16.5708 7.2567 16.6172 7.15442 16.6188 7.03954C16.6204 6.80901 16.4111 6.49586 15.8682 6.37705L14.773 6.10718C14.5904 6.10797 14.4165 6.17485 14.2843 6.2968L12.9688 7.66662C12.8925 7.73744 12.7721 7.74216 12.6895 7.67528L10.9247 6.2968C10.7666 6.17327 10.6045 6.08594 10.3787 6.08594H7.4368Z" fill="#185850"/>
<path d="M6.875 12.9121L8.53043 15.2646V18.2624C8.53043 19.6047 10.6619 19.6047 10.6619 18.2624V15.1694L9.975 13.994C9.86406 13.7485 10.0513 13.6627 10.2 13.861L11.06 15.0019C11.0797 15.0357 11.0899 15.0719 11.0899 15.1104V18.2616C11.0899 19.6047 13.2025 19.6047 13.2025 18.2616V14.8909C13.2025 14.6478 13.1199 14.4102 12.968 14.219L12.06 12.9121H6.875Z" fill="#185850"/>
<path fill-rule="evenodd" clip-rule="evenodd" d="M10.868 4.01613C10.4171 5.04763 9.20701 5.52286 8.16214 5.07674C7.12041 4.63377 6.64125 3.4339 7.09052 2.40476C7.54214 1.37247 8.75146 0.898031 9.79318 1.34257C10.8381 1.7879 11.318 2.98463 10.868 4.01613Z" fill="#185850"/>
<path d="M1.37891 7.40685V13.5431C1.37891 13.9979 1.66058 14.4062 2.0886 14.5738L5.07294 15.7344L5.83614 20.2412C6.03363 21.7573 8.3484 21.3765 8.0384 19.8785L7.17292 14.7548C7.10683 14.3732 6.84482 14.0522 6.48132 13.9106L4.70157 13.2174V9.57213L5.3916 10.4699C5.5702 10.6445 5.81254 10.7429 6.06353 10.7429H8.51206C9.78432 10.7429 9.78432 8.85535 8.51206 8.85535H6.45457L4.56467 6.78921C4.26883 6.46662 3.9549 6.21484 3.58353 6.21484H2.49695C1.76837 6.21484 1.37891 6.88363 1.37891 7.40685Z" fill="#185850"/>
<path fill-rule="evenodd" clip-rule="evenodd" d="M1.02001 4.26432C1.50153 5.36663 2.79425 5.87254 3.90993 5.39653C5.02247 4.92287 5.53311 3.64432 5.05394 2.54516C4.57085 1.44363 3.2797 0.935358 2.16874 1.41059C1.05148 1.8866 0.540057 3.1628 1.02001 4.26432Z" fill="#185850"/>
<path fill-rule="evenodd" clip-rule="evenodd" d="M22.9321 4.26432C22.4498 5.36663 21.1587 5.87254 20.043 5.39653C18.9305 4.92287 18.419 3.64432 18.899 2.54516C19.3797 1.44363 20.6732 0.935358 21.7842 1.41059C22.9007 1.8866 23.4113 3.1628 22.9321 4.26432Z" fill="#185850"/>
<path fill-rule="evenodd" clip-rule="evenodd" d="M15.243 4.93625C14.9983 4.94569 14.7473 4.91737 14.4932 4.85049C13.8457 4.67582 13.3397 4.27455 13.0274 3.76392L12.3507 3.86069C12.1312 3.89216 12.0462 3.68445 12.1839 3.50742L12.6969 2.85044C12.6481 2.52234 12.6631 2.17536 12.7551 1.83074C13.1084 0.512061 14.4169 -0.274742 15.7662 0.0887611C17.1164 0.451477 17.8576 1.78825 17.5051 3.10694C17.2187 4.17856 16.3013 4.89927 15.243 4.93625ZM13.8858 2.93227C14.1415 2.93227 14.3468 2.72455 14.3468 2.46884C14.3468 2.21391 14.1415 2.0062 13.8858 2.0062C13.6301 2.0062 13.4231 2.21391 13.4231 2.46884C13.4231 2.72455 13.6301 2.93227 13.8858 2.93227ZM15.1305 2.93227C15.3862 2.93227 15.5924 2.72455 15.5931 2.46884C15.5924 2.21391 15.3862 2.0062 15.1305 2.0062C14.8748 2.0062 14.6671 2.21391 14.6671 2.46884C14.6671 2.72455 14.8748 2.93227 15.1305 2.93227ZM16.3752 2.93227C16.6294 2.93227 16.8371 2.72455 16.8371 2.46884C16.8371 2.21391 16.6294 2.0062 16.3752 2.0062C16.1179 2.0062 15.9126 2.21391 15.9126 2.46884C15.9126 2.72455 16.1179 2.93227 16.3752 2.93227Z" fill="#185850"/>
</svg>
