<svg width="16" height="18" viewBox="0 0 16 18" fill="none" xmlns="http://www.w3.org/2000/svg">
<mask id="mask0_655_19472" style="mask-type:luminance" maskUnits="userSpaceOnUse" x="0" y="0" width="16" height="18">
<path d="M0.388672 0.655762H15.5006V17.344H0.388672V0.655762Z" fill="white"/>
</mask>
<g mask="url(#mask0_655_19472)">
<path d="M10.9478 15.8251V7.48835L10.0339 7.41808C9.29108 7.36106 8.65719 7.0128 8.21729 6.4222H5.195C5.04531 6.4222 4.92414 6.30153 4.92414 6.15235C4.92414 6.00266 5.04531 5.88199 5.195 5.88199H7.84409L7.41029 5.24963H5.195C5.04531 5.24963 4.92414 5.12846 4.92414 4.97928C4.92414 4.8301 5.04531 4.70892 5.195 4.70892H7.03964L6.65625 4.14988C6.4862 3.90193 6.47398 3.58269 6.62417 3.32303L6.68629 3.2156H3.35292V4.59182H3.76634C3.8478 4.59182 3.9145 4.65852 3.9145 4.73998V6.39165C3.9145 6.47311 3.8478 6.5393 3.76634 6.5393H2.11213C2.03067 6.5393 1.96397 6.47311 1.96397 6.39165V6.17526H0.388672V15.8251C0.388672 16.0822 0.59844 16.292 0.856067 16.292H10.4804C10.7376 16.292 10.9478 16.0822 10.9478 15.8251ZM3.9145 14.7676C3.9145 14.8485 3.8478 14.9152 3.76634 14.9152H2.11213C2.03067 14.9152 1.96397 14.8485 1.96397 14.7676V13.1159C1.96397 13.0345 2.03067 12.9678 2.11213 12.9678H3.76634C3.8478 12.9678 3.9145 13.0345 3.9145 13.1159V14.7676ZM3.9145 11.9754C3.9145 12.0569 3.8478 12.1236 3.76634 12.1236H2.11213C2.03067 12.1236 1.96397 12.0569 1.96397 11.9754V10.3238C1.96397 10.2423 2.03067 10.1756 2.11213 10.1756H3.76634C3.8478 10.1756 3.9145 10.2423 3.9145 10.3238V11.9754ZM3.9145 9.18329C3.9145 9.26475 3.8478 9.33145 3.76634 9.33145H2.11213C2.03067 9.33145 1.96397 9.26475 1.96397 9.18329V7.53162C1.96397 7.45067 2.03067 7.38397 2.11213 7.38397H3.76634C3.8478 7.38397 3.9145 7.45067 3.9145 7.53162V9.18329ZM5.195 7.50107H7.97494C8.12462 7.50107 8.2458 7.62225 8.2458 7.77143C8.2458 7.92061 8.12462 8.04128 7.97494 8.04128H5.195C5.04531 8.04128 4.92414 7.92061 4.92414 7.77143C4.92414 7.62225 5.04531 7.50107 5.195 7.50107ZM9.37254 14.7981H5.195C5.04531 14.7981 4.92414 14.677 4.92414 14.5278C4.92414 14.3786 5.04531 14.2579 5.195 14.2579H9.37254C9.52223 14.2579 9.6434 14.3786 9.6434 14.5278C9.6434 14.677 9.52223 14.7981 9.37254 14.7981ZM4.92414 13.3552C4.92414 13.206 5.04531 13.0849 5.195 13.0849H7.97545C8.12462 13.0849 8.2458 13.206 8.2458 13.3552C8.2458 13.5044 8.12462 13.6256 7.97545 13.6256H5.195C5.04531 13.6256 4.92414 13.5044 4.92414 13.3552ZM9.37254 12.006H5.195C5.04531 12.006 4.92414 11.8853 4.92414 11.7361C4.92414 11.587 5.04531 11.4658 5.195 11.4658H9.37254C9.52223 11.4658 9.6434 11.587 9.6434 11.7361C9.6434 11.8853 9.52223 12.006 9.37254 12.006ZM4.92414 10.5631C4.92414 10.4139 5.04531 10.2932 5.195 10.2932H7.97494C8.12462 10.2932 8.2458 10.4139 8.2458 10.5631C8.2458 10.7123 8.12462 10.8334 7.97494 10.8334H5.195C5.04531 10.8334 4.92414 10.7123 4.92414 10.5631ZM9.37254 9.21435H5.195C5.04531 9.21435 4.92414 9.09317 4.92414 8.94399C4.92414 8.79481 5.04531 8.67364 5.195 8.67364H9.37254C9.52223 8.67364 9.6434 8.79481 9.6434 8.94399C9.6434 9.09317 9.52223 9.21435 9.37254 9.21435ZM2.38961 5.63455H0.428894C0.451806 5.58516 0.483882 5.53985 0.525632 5.4981L2.67473 3.35205C2.71648 3.31081 2.7618 3.27873 2.81169 3.25582V5.21348C2.81169 5.44566 2.62229 5.63455 2.38961 5.63455ZM8.60169 6.02964L7.10277 3.84439C7.04982 3.76751 7.04626 3.67383 7.0931 3.59288L7.6725 2.59088L9.57773 5.36827C9.70196 5.54952 9.91529 5.68597 10.1363 5.70277L13.5231 5.96346L12.9437 6.96545C12.8968 7.0459 12.8133 7.09019 12.7207 7.08307L10.0752 6.87941C9.46011 6.83206 8.95046 6.53828 8.60169 6.02964ZM3.49751 7.92825C3.60342 8.03313 3.60392 8.2042 3.49853 8.3096L3.02604 8.78565C2.92167 8.89053 2.75212 8.89206 2.64673 8.78921L2.38299 8.5326C2.27607 8.42874 2.27353 8.25817 2.37739 8.15125C2.48126 8.04484 2.65233 8.0423 2.75925 8.14616L2.83155 8.21642L3.11616 7.92927C3.22105 7.82387 3.39212 7.82336 3.49751 7.92825ZM3.49751 10.7204C3.60342 10.8253 3.60392 10.9958 3.49853 11.1012L3.02604 11.5778C2.92167 11.6827 2.75212 11.6837 2.64673 11.5809L2.38299 11.3242C2.27607 11.2204 2.27353 11.0498 2.37739 10.9434C2.48126 10.8365 2.65233 10.8344 2.75925 10.9378L2.83155 11.0086L3.11616 10.7214C3.22105 10.616 3.39212 10.6155 3.49751 10.7204ZM3.49751 13.5126C3.60342 13.6174 3.60392 13.788 3.49853 13.8934L3.02604 14.37C2.92167 14.4743 2.75212 14.4759 2.64673 14.373L2.38299 14.1164C2.27607 14.0125 2.27353 13.842 2.37739 13.735C2.48126 13.6286 2.65233 13.6261 2.75925 13.73L2.83155 13.8002L3.11616 13.5136C3.22105 13.4077 3.39212 13.4072 3.49751 13.5126ZM14.4777 5.50828L15.2847 5.5704C15.2802 5.60909 15.2669 5.64677 15.2445 5.68139L14.0241 7.79129L14.1819 8.30145L13.6356 9.24541C13.5984 9.31007 13.5155 9.33247 13.4508 9.29479L12.5399 8.76986C12.4758 8.7327 12.4534 8.65022 12.4905 8.58555L13.0369 7.64109L13.5577 7.52246L14.6559 5.62335L14.4777 5.50828ZM11.4891 7.5301L12.0007 7.5693V8.3544C11.9055 8.54788 11.9111 8.76783 12.0007 8.95061V16.8765C12.0007 17.1336 11.791 17.3434 11.5339 17.3434H1.90898C1.65186 17.3434 1.44158 17.1336 1.44158 16.8765V16.8322H10.4804C11.0364 16.8322 11.4891 16.3806 11.4891 15.8251V7.5301ZM15.4528 5.56989L15.2863 5.55716C15.2934 5.46195 15.2501 5.36623 15.1641 5.31022L11.4173 2.88822C11.292 2.80727 11.125 2.84291 11.0441 2.96765C10.9626 3.09239 10.9982 3.25888 11.123 3.34034L14.4538 5.49301L10.1775 5.1641C10.1286 5.16002 10.0599 5.11471 10.0242 5.06278L7.06306 0.746245C7.02742 0.694312 7.03862 0.655108 7.0875 0.658672L12.3628 1.06446C12.4116 1.06853 12.4804 1.11385 12.516 1.16578L15.4772 5.48231C15.5128 5.53425 15.5016 5.57345 15.4528 5.56989Z" fill="white"/>
</g>
</svg>
