<svg width="17" height="17" viewBox="0 0 17 17" fill="none" xmlns="http://www.w3.org/2000/svg">
<path d="M8.50538 0.170693C8.44232 0.211683 8.29728 0.416629 8.06396 0.798143L7.71713 1.36884L7.14958 1.50127C6.83744 1.57694 6.52844 1.65576 6.46223 1.68099C6.23206 1.77243 6.10909 2.03413 6.18791 2.27375C6.20683 2.33681 6.41178 2.60482 6.64825 2.88229L7.07391 3.37731L7.05815 3.53496C7.04869 3.62009 7.02346 3.92278 7.00454 4.20025C6.96986 4.67951 6.96986 4.71734 7.02662 4.83085C7.10859 5.00111 7.26309 5.0957 7.44912 5.0957C7.56578 5.0957 7.73604 5.03895 8.17116 4.85923C8.48646 4.72995 8.75762 4.62275 8.77339 4.62275C8.78915 4.62275 9.06031 4.72995 9.37561 4.85923C9.81073 5.03895 9.98414 5.0957 10.0977 5.0957C10.2837 5.0957 10.4382 4.99796 10.5202 4.83085C10.5769 4.71734 10.5769 4.67951 10.5422 4.20025C10.5233 3.92278 10.4981 3.62009 10.4886 3.53496L10.4729 3.37731L10.8985 2.88229C11.135 2.60482 11.3399 2.33681 11.3589 2.27375C11.4377 2.03413 11.3147 1.77558 11.0845 1.68099C11.0183 1.65576 10.7093 1.57379 10.3972 1.50127L9.82965 1.36569L9.48281 0.798143C9.25264 0.419782 9.10445 0.211683 9.04139 0.170693C8.91527 0.0950212 8.6315 0.0950212 8.50538 0.170693Z" fill="white"/>
<path d="M3.16897 1.97331C3.00501 2.01115 2.91042 2.12781 2.56359 2.69535L2.24514 3.22191L1.62715 3.37325C1.28662 3.45523 0.965012 3.54352 0.917717 3.56874C0.778984 3.64126 0.703312 3.78945 0.703312 3.9944C0.703312 4.19934 0.678088 4.15835 1.2141 4.78896C1.45688 5.07588 1.58616 5.25245 1.58616 5.29975C1.58616 5.34073 1.56408 5.63712 1.53571 5.95873C1.48841 6.52942 1.48841 6.54834 1.55147 6.68707C1.6303 6.86679 1.76903 6.95508 1.97398 6.95508C2.09379 6.95508 2.2546 6.90148 2.69602 6.7186C3.00817 6.58933 3.27932 6.48213 3.29509 6.48213C3.31401 6.48213 3.58832 6.58933 3.90677 6.72176C4.44594 6.94562 4.50269 6.96138 4.6635 6.94877C4.81169 6.93616 4.85583 6.91724 4.95358 6.8195C5.06078 6.7123 5.07024 6.68707 5.0797 6.49158C5.086 6.37177 5.07024 6.04386 5.04501 5.75693L5.00087 5.23669L5.42022 4.74481C5.65354 4.47366 5.85534 4.21196 5.87426 4.16781C5.95308 3.95341 5.87741 3.71693 5.68508 3.5782C5.64093 3.54667 5.32878 3.45523 4.99141 3.37641C4.65404 3.29758 4.36081 3.21245 4.34189 3.19353C4.32297 3.17146 4.19685 2.96967 4.06127 2.7458C3.71759 2.17511 3.64507 2.07421 3.54733 2.02376C3.42436 1.96386 3.28878 1.94494 3.16897 1.97331Z" fill="white"/>
<path d="M14.0893 1.98908C14.0199 2.01115 13.9411 2.05845 13.9095 2.08998C13.878 2.12151 13.7077 2.38636 13.5249 2.68274L13.2001 3.21876L12.5443 3.37956C11.8601 3.54982 11.7876 3.58451 11.6867 3.77684C11.6362 3.87774 11.6299 4.048 11.6741 4.16781C11.693 4.21196 11.8948 4.47366 12.1281 4.74481L12.5474 5.23669L12.5033 5.75693C12.4781 6.04386 12.4623 6.37177 12.4686 6.49158C12.4781 6.68707 12.4875 6.7123 12.5947 6.8195C12.6925 6.91724 12.7366 6.93616 12.8848 6.94877C13.0456 6.96138 13.1055 6.94562 13.6415 6.72176C13.9631 6.58933 14.2375 6.48213 14.2532 6.48213C14.269 6.48213 14.5401 6.58933 14.8523 6.7186C15.2937 6.90148 15.4545 6.95508 15.5743 6.95508C15.7793 6.95508 15.918 6.86679 15.9968 6.68707C16.0599 6.54834 16.0599 6.52942 16.0126 5.95873C15.9842 5.63712 15.9622 5.34073 15.9622 5.29975C15.9622 5.25245 16.0914 5.07588 16.3342 4.78896C16.8702 4.15835 16.845 4.19934 16.845 3.9944C16.845 3.76738 16.763 3.62865 16.5833 3.55297C16.5108 3.52144 16.1923 3.43316 15.8802 3.36064L15.3063 3.22506L14.9816 2.68905C14.6631 2.1688 14.5023 1.97331 14.3919 1.97331C14.3636 1.97331 14.31 1.96701 14.2753 1.95755C14.2406 1.94809 14.1555 1.96386 14.0893 1.98908Z" fill="white"/>
<path d="M9.72161 6.68591C9.63964 6.71113 9.52928 6.7805 9.45991 6.85302C9.34641 6.96968 9.31803 7.04535 8.96804 8.15521C8.76625 8.80473 8.55815 9.40696 8.51086 9.4984C8.37843 9.73802 8.10412 9.99972 7.85503 10.1164L7.64378 10.2173V12.8879L7.64062 15.5553L7.79197 15.6878C7.87395 15.7603 8.02214 15.8612 8.11988 15.9116C8.47933 16.0914 8.52978 16.0977 10.4973 16.0977C11.585 16.0977 12.367 16.085 12.4679 16.0661C13.0165 15.9621 13.5305 15.5175 13.7196 14.9783C13.7732 14.827 14.2903 11.9704 14.3723 11.3681C14.3975 11.179 14.3156 10.8006 14.2115 10.6177C14.0223 10.2993 13.748 10.0849 13.398 9.99342C13.2751 9.95874 12.9408 9.94928 11.9697 9.94928C11.2697 9.94928 10.699 9.93982 10.699 9.92405C10.699 9.91144 10.7999 9.57407 10.9229 9.17679C11.1688 8.38853 11.2098 8.12368 11.1436 7.79577C11.0522 7.36696 10.7337 6.95707 10.3459 6.76788C10.1031 6.65122 9.9108 6.626 9.72161 6.68591Z" fill="white"/>
<path d="M3.82646 9.69443C3.7634 9.72597 3.68773 9.80794 3.64674 9.88677L3.57422 10.0223V12.9578C3.57422 15.7545 3.57737 15.8996 3.63413 16.0036C3.66566 16.0635 3.73818 16.1455 3.79493 16.1833C3.89898 16.2559 3.90529 16.2559 5.16019 16.2559C6.36779 16.2559 6.42454 16.2527 6.52229 16.1928C6.73985 16.0604 6.72723 16.2369 6.72723 12.9389C6.72723 10.0287 6.72723 9.96244 6.66417 9.86154C6.62949 9.80479 6.55697 9.73227 6.50022 9.69759C6.40247 9.63768 6.33941 9.63453 5.16649 9.63453C4.02825 9.63453 3.92736 9.63768 3.82646 9.69443Z" fill="white"/>
</svg>
