<svg width="33" height="28" viewBox="0 0 33 28" fill="none" xmlns="http://www.w3.org/2000/svg">
<mask id="mask0_655_19482" style="mask-type:luminance" maskUnits="userSpaceOnUse" x="0" y="6" width="15" height="22">
<path d="M0 6.4707H14.4231V27.6437H0V6.4707Z" fill="white"/>
</mask>
<g mask="url(#mask0_655_19482)">
<path d="M8.5703 14.7431C8.71039 14.9119 8.91969 15.009 9.13743 15.009C9.15262 15.009 9.16781 15.0081 9.18385 15.0073C9.41762 14.9921 9.63198 14.8664 9.75858 14.668L11.7444 11.5716C11.9317 11.2804 11.887 10.9074 11.6608 10.6669L14.2459 6.80749L13.9387 6.60156L11.3486 10.4685C11.0372 10.3689 10.6861 10.4846 10.5013 10.7732L9.05894 13.0223L7.11786 10.6981C6.98958 10.5445 6.81235 10.4567 6.62837 10.4373C6.55748 10.4137 6.48237 10.4002 6.40304 10.4002H2.83482C2.82723 10.4002 2.82048 10.4019 2.81288 10.4019C2.64831 10.4027 2.36474 10.4365 2.04236 10.5993C1.54527 10.8458 1.01021 11.3851 0.635493 12.3413C0.255716 13.3 0.00168779 14.6874 0 16.7821C0 17.3239 0.017723 17.9122 0.0557006 18.5536C0.0784873 18.946 0.404251 19.2498 0.792468 19.2498C0.806815 19.2498 0.821162 19.249 0.836353 19.2481C1.24314 19.2245 1.55455 18.8743 1.53008 18.4666C1.49379 17.8514 1.47775 17.2919 1.47775 16.7821C1.47438 14.5431 1.80099 13.2856 2.12084 12.629V26.496C2.12084 27.1272 2.63228 27.6387 3.26271 27.6387C3.89398 27.6387 4.40541 27.1272 4.40541 26.496V18.1518H4.83329V26.496C4.83329 27.1272 5.34473 27.6387 5.97516 27.6387C6.60559 27.6387 7.11702 27.1272 7.11702 26.496V13.0029L8.5703 14.7431Z" fill="#185850"/>
</g>
<path d="M6.69857 7.79518C6.69857 7.9319 6.68591 8.06693 6.65891 8.20112C6.63274 8.33446 6.59308 8.46443 6.54075 8.59102C6.48843 8.71677 6.42429 8.83661 6.34918 8.95054C6.27322 9.06448 6.18714 9.16913 6.09008 9.26534C5.99387 9.36239 5.88922 9.44847 5.77529 9.52443C5.6622 9.60038 5.54236 9.66452 5.41577 9.71685C5.29002 9.76917 5.16005 9.80799 5.02671 9.835C4.89252 9.86116 4.75749 9.87467 4.62077 9.87467C4.48405 9.87467 4.34902 9.86116 4.21567 9.835C4.08149 9.80799 3.95152 9.76917 3.82577 9.71685C3.69918 9.66452 3.58018 9.60038 3.46625 9.52443C3.35316 9.44847 3.24767 9.36239 3.15146 9.26534C3.05525 9.16913 2.96916 9.06448 2.89321 8.95054C2.81725 8.83661 2.75311 8.71677 2.70079 8.59102C2.64846 8.46443 2.60964 8.33446 2.58263 8.20112C2.55647 8.06693 2.54297 7.9319 2.54297 7.79518C2.54297 7.65846 2.55647 7.52343 2.58263 7.38924C2.60964 7.25505 2.64846 7.12508 2.70079 6.99933C2.75311 6.87274 2.81725 6.7529 2.89321 6.63981C2.96916 6.52588 3.05525 6.42123 3.15146 6.32417C3.24767 6.22796 3.35316 6.14188 3.46625 6.06593C3.58018 5.98997 3.69918 5.92583 3.82577 5.87351C3.95152 5.82118 4.08149 5.78152 4.21567 5.75535C4.34902 5.72835 4.48405 5.71484 4.62077 5.71484C4.75749 5.71484 4.89252 5.72835 5.02671 5.75535C5.16005 5.78152 5.29002 5.82118 5.41577 5.87351C5.54236 5.92583 5.6622 5.98997 5.77529 6.06593C5.88922 6.14188 5.99387 6.22796 6.09008 6.32417C6.18714 6.42123 6.27322 6.52588 6.34918 6.63981C6.42429 6.7529 6.48843 6.87274 6.54075 6.99933C6.59308 7.12508 6.63274 7.25505 6.65891 7.38924C6.68591 7.52343 6.69857 7.65846 6.69857 7.79518Z" fill="#185850"/>
<path d="M29.7028 0H5.32031V4.66619H5.78195V0.46164H29.2412V13.3116H12.1183V13.7741H29.7028V0Z" fill="#185850"/>
<path d="M14.8939 19.8178C14.8939 19.9545 14.8804 20.0895 14.8542 20.2237C14.8272 20.3579 14.7884 20.4879 14.7361 20.6136C14.6837 20.7402 14.6196 20.86 14.5436 20.9731C14.4677 21.0871 14.3816 21.1917 14.2854 21.2888C14.1892 21.385 14.0837 21.4711 13.9706 21.547C13.8567 21.623 13.7377 21.6871 13.6111 21.7394C13.4853 21.7918 13.3554 21.8314 13.2212 21.8576C13.0878 21.8846 12.9528 21.8981 12.8161 21.8981C12.6794 21.8981 12.5443 21.8846 12.411 21.8576C12.2768 21.8314 12.1468 21.7918 12.0211 21.7394C11.8945 21.6871 11.7746 21.623 11.6616 21.547C11.5476 21.4711 11.443 21.385 11.3468 21.2888C11.2497 21.1917 11.1636 21.0871 11.0885 20.9731C11.0126 20.86 10.9484 20.7402 10.8961 20.6136C10.8438 20.4879 10.8041 20.3579 10.7779 20.2237C10.7509 20.0895 10.7383 19.9545 10.7383 19.8178C10.7383 19.6811 10.7509 19.546 10.7779 19.4118C10.8041 19.2785 10.8438 19.1485 10.8961 19.0219C10.9484 18.8962 11.0126 18.7763 11.0885 18.6624C11.1636 18.5485 11.2497 18.4438 11.3468 18.3476C11.443 18.2506 11.5476 18.1645 11.6616 18.0885C11.7746 18.0126 11.8945 17.9484 12.0211 17.8961C12.1468 17.8438 12.2768 17.805 12.411 17.7779C12.5443 17.7518 12.6794 17.7383 12.8161 17.7383C12.9528 17.7383 13.0878 17.7518 13.2212 17.7779C13.3554 17.805 13.4853 17.8438 13.6111 17.8961C13.7377 17.9484 13.8567 18.0126 13.9706 18.0885C14.0837 18.1645 14.1892 18.2506 14.2854 18.3476C14.3816 18.4438 14.4677 18.5485 14.5436 18.6624C14.6196 18.7763 14.6837 18.8962 14.7361 19.0219C14.7884 19.1485 14.8272 19.2785 14.8542 19.4118C14.8804 19.546 14.8939 19.6811 14.8939 19.8178Z" fill="#185850"/>
<path d="M22.6994 19.8178C22.6994 19.9545 22.6859 20.0895 22.6589 20.2237C22.6327 20.3579 22.5931 20.4879 22.5408 20.6136C22.4884 20.7402 22.4251 20.86 22.3492 20.9731C22.2732 21.0871 22.1871 21.1917 22.0901 21.2888C21.9939 21.385 21.8892 21.4711 21.7753 21.547C21.6622 21.623 21.5424 21.6871 21.4166 21.7394C21.29 21.7918 21.1601 21.8314 21.0267 21.8576C20.8925 21.8846 20.7575 21.8981 20.6208 21.8981C20.4849 21.8981 20.3499 21.8846 20.2157 21.8576C20.0815 21.8314 19.9515 21.7918 19.8258 21.7394C19.7 21.6871 19.5802 21.623 19.4662 21.547C19.3532 21.4711 19.2485 21.385 19.1515 21.2888C19.0552 21.1917 18.9692 21.0871 18.8932 20.9731C18.8173 20.86 18.7531 20.7402 18.7008 20.6136C18.6493 20.4879 18.6096 20.3579 18.5826 20.2237C18.5565 20.0895 18.543 19.9545 18.543 19.8178C18.543 19.6811 18.5565 19.546 18.5826 19.4118C18.6096 19.2785 18.6493 19.1485 18.7008 19.0219C18.7531 18.8962 18.8173 18.7763 18.8932 18.6624C18.9692 18.5485 19.0552 18.4438 19.1515 18.3476C19.2485 18.2506 19.3532 18.1645 19.4662 18.0885C19.5802 18.0126 19.7 17.9484 19.8258 17.8961C19.9515 17.8438 20.0815 17.805 20.2157 17.7779C20.3499 17.7518 20.4849 17.7383 20.6208 17.7383C20.7575 17.7383 20.8925 17.7518 21.0267 17.7779C21.1601 17.805 21.29 17.8438 21.4166 17.8961C21.5424 17.9484 21.6622 18.0126 21.7753 18.0885C21.8892 18.1645 21.9939 18.2506 22.0901 18.3476C22.1871 18.4438 22.2732 18.5485 22.3492 18.6624C22.4251 18.7763 22.4884 18.8962 22.5408 19.0219C22.5931 19.1485 22.6327 19.2785 22.6589 19.4118C22.6859 19.546 22.6994 19.6811 22.6994 19.8178Z" fill="#185850"/>
<mask id="mask1_655_19482" style="mask-type:luminance" maskUnits="userSpaceOnUse" x="8" y="22" width="25" height="6">
<path d="M8.15625 22.2422H32.9987V27.6435H8.15625V22.2422Z" fill="white"/>
</mask>
<g mask="url(#mask1_655_19482)">
<path d="M10.3147 24.6535V27.4571H15.3109V24.6578C15.3657 24.77 15.4206 24.8991 15.4755 25.0494C15.6653 25.5777 15.8333 26.3549 15.9101 27.4571H17.5187C17.6174 26.0393 17.8697 25.1641 18.1195 24.6535V27.4571H23.1149V24.6578C23.1697 24.77 23.2254 24.8991 23.2794 25.0494C23.4702 25.5777 23.6381 26.3549 23.7141 27.4571H25.3235C25.4214 26.0393 25.6746 25.1641 25.9235 24.6535V27.4571H30.9197V24.6578C30.9746 24.77 31.0294 24.8991 31.0843 25.0494C31.2742 25.5777 31.4421 26.3549 31.5189 27.4571H32.9992C32.876 25.4966 32.4852 24.3101 31.9839 23.5437C31.6801 23.083 31.3257 22.7867 30.9974 22.623C30.6817 22.4643 30.4049 22.428 30.2378 22.4264C30.2268 22.4255 30.2167 22.4247 30.2057 22.4247H26.6375C26.6249 22.4247 26.613 22.4255 26.6004 22.4264C26.4341 22.4289 26.1582 22.4652 25.845 22.623C25.3826 22.8526 24.8872 23.3361 24.5184 24.1716C24.4129 23.9353 24.2998 23.7269 24.1791 23.5437C23.8761 23.083 23.5208 22.7867 23.1934 22.623C22.8777 22.4635 22.6001 22.428 22.4338 22.4255C22.4228 22.4255 22.4119 22.4238 22.4009 22.4238H18.8327C18.82 22.4238 18.8082 22.4255 18.7964 22.4264C18.6293 22.428 18.3533 22.4652 18.0402 22.623C17.5777 22.8526 17.0823 23.3361 16.7135 24.1716C16.6089 23.9353 16.4949 23.7269 16.3751 23.5437C16.0713 23.083 15.7168 22.7867 15.3885 22.623C15.0729 22.4635 14.7961 22.428 14.629 22.4255C14.618 22.4255 14.6079 22.4238 14.5969 22.4238H11.0287C11.016 22.4238 11.0034 22.4255 10.9916 22.4264C10.8245 22.428 10.5493 22.4652 10.2362 22.623C9.73914 22.8694 9.20323 23.4087 8.82851 24.3649C8.53735 25.1008 8.32046 26.0908 8.23438 27.4571H9.71382C9.81256 26.0393 10.0657 25.1641 10.3147 24.6535Z" fill="#185850"/>
</g>
<path d="M30.5041 19.8178C30.5041 19.9545 30.4906 20.0895 30.4644 20.2237C30.4374 20.3579 30.3986 20.4879 30.3463 20.6136C30.294 20.7402 30.2298 20.86 30.1539 20.9731C30.0779 21.0871 29.9918 21.1917 29.8956 21.2888C29.7994 21.385 29.6939 21.4711 29.5808 21.547C29.4669 21.623 29.347 21.6871 29.2213 21.7394C29.0956 21.7918 28.9656 21.8314 28.8314 21.8576C28.6981 21.8846 28.5622 21.8981 28.4263 21.8981C28.2896 21.8981 28.1546 21.8846 28.0204 21.8576C27.887 21.8314 27.7571 21.7918 27.6305 21.7394C27.5047 21.6871 27.3849 21.623 27.2718 21.547C27.1578 21.4711 27.0532 21.385 26.957 21.2888C26.8599 21.1917 26.7739 21.0871 26.6979 20.9731C26.6228 20.86 26.5586 20.7402 26.5063 20.6136C26.454 20.4879 26.4143 20.3579 26.3882 20.2237C26.3612 20.0895 26.3477 19.9545 26.3477 19.8178C26.3477 19.6811 26.3612 19.546 26.3882 19.4118C26.4143 19.2785 26.454 19.1485 26.5063 19.0219C26.5586 18.8962 26.6228 18.7763 26.6979 18.6624C26.7739 18.5485 26.8599 18.4438 26.957 18.3476C27.0532 18.2506 27.1578 18.1645 27.2718 18.0885C27.3849 18.0126 27.5047 17.9484 27.6305 17.8961C27.7571 17.8438 27.887 17.805 28.0204 17.7779C28.1546 17.7518 28.2896 17.7383 28.4263 17.7383C28.5622 17.7383 28.6981 17.7518 28.8314 17.7779C28.9656 17.805 29.0956 17.8438 29.2213 17.8961C29.347 17.9484 29.4669 18.0126 29.5808 18.0885C29.6939 18.1645 29.7994 18.2506 29.8956 18.3476C29.9918 18.4438 30.0779 18.5485 30.1539 18.6624C30.2298 18.7763 30.294 18.8962 30.3463 19.0219C30.3986 19.1485 30.4374 19.2785 30.4644 19.4118C30.4906 19.546 30.5041 19.6811 30.5041 19.8178Z" fill="#185850"/>
</svg>
