<svg width="20" height="27" viewBox="0 0 20 27" fill="none" xmlns="http://www.w3.org/2000/svg">
<path d="M8.78824 0.582748C5.27967 1.15061 2.43023 3.45247 1.17789 6.74302C0.975083 7.27032 0.721573 8.26915 0.64045 8.86743C0.549187 9.50121 0.564398 10.8245 0.665801 11.4279C1.21845 14.7945 3.86509 19.3069 8.23559 24.3467C8.6412 24.8182 9.2547 25.4875 9.59947 25.8424L10.2282 26.4863L10.796 25.9033C11.9216 24.7574 13.6252 22.7445 14.8268 21.1322C17.7168 17.2687 19.3545 14.0694 19.7905 11.4279C19.8919 10.8245 19.9021 9.50628 19.8159 8.86743C19.2531 4.75551 16.1654 1.48017 12.0737 0.648661C11.3588 0.501627 9.50314 0.466135 8.78824 0.582748ZM10.7504 4.88734C11.6275 5.07493 12.4489 5.7949 12.7481 6.65176C12.8748 7.02188 12.8748 7.97508 12.7481 8.3452C12.4236 9.27305 11.5363 10.0032 10.5425 10.1451C9.76171 10.2617 8.94034 9.97273 8.3522 9.37952C7.27732 8.2945 7.27225 6.68218 8.34713 5.62251C8.73754 5.23718 9.06203 5.04958 9.57919 4.91269C10.0254 4.79607 10.2992 4.791 10.7504 4.88734ZM11.6377 10.3175C12.8596 10.571 13.8483 11.3468 14.4364 12.5129C14.7356 13.1112 14.8015 13.4813 14.8268 14.7336L14.8522 15.8643H10.2282H5.60416L5.62444 14.6322C5.64472 13.4407 5.64979 13.3951 5.79176 12.9844C6.13146 11.9856 6.83115 11.1693 7.73871 10.7028C8.51445 10.3023 8.79331 10.2516 10.1927 10.2415C10.9786 10.2364 11.3436 10.2567 11.6377 10.3175Z" fill="white"/>
</svg>
