<svg width="23" height="27" viewBox="0 0 23 27" fill="none" xmlns="http://www.w3.org/2000/svg">
<path id="Vector" d="M2.53752 0.101959C1.9672 0.254908 1.50348 0.52916 1.00778 1.01965C0.661328 1.36246 0.533406 1.53651 0.357513 1.89515C0.240251 2.14303 0.112328 2.4753 0.0750177 2.63352C0.0110565 2.87085 0.000396348 4.79062 0.000396348 13.4981C0.000396348 25.1855 -0.0262541 24.2942 0.357513 25.1011C0.645338 25.7024 1.29561 26.3511 1.89258 26.6412C2.6761 27.0209 1.9139 26.9998 12.7393 26.9998C22.4294 26.9998 22.4934 26.9998 22.6693 26.8943C22.9784 26.7044 22.9998 26.5884 22.9998 24.9429C22.9998 23.5927 22.9891 23.4451 22.8985 23.2657C22.8398 23.1603 22.7226 23.0284 22.6373 22.9757C22.4188 22.8544 22.0563 22.8596 21.8378 22.9915C21.5446 23.1708 21.5073 23.3343 21.5073 24.521V25.5758H12.5688C6.87089 25.5758 3.49161 25.5547 3.25708 25.523C2.76138 25.4492 2.36696 25.2435 2.02583 24.8796C1.6474 24.4788 1.50348 24.1096 1.50348 23.5453C1.50348 23.2024 1.53013 23.0706 1.63674 22.8333C1.89791 22.2742 2.25503 21.9261 2.78804 21.7152L3.09185 21.5939L12.8033 21.5675L22.5147 21.5411L22.664 21.4304C22.7439 21.3723 22.8558 21.2405 22.9038 21.1403C22.9944 20.9715 22.9998 20.3703 22.9998 10.7662C22.9998 -0.45182 23.0211 0.318195 22.6693 0.101959C22.4934 -0.00352287 22.4294 -0.00352287 12.7127 0.00175095C3.21977 0.00175095 2.92129 0.00702477 2.53752 0.101959ZM4.95205 2.81284C5.048 2.84976 5.18658 2.96579 5.25587 3.06072L5.38379 3.24004L5.39978 10.4128C5.41044 14.3578 5.39978 17.7121 5.38379 17.8703C5.35714 18.0866 5.30917 18.1921 5.17059 18.345C5.00535 18.5191 4.96804 18.5349 4.69088 18.5349C4.41371 18.5349 4.3764 18.5191 4.21117 18.345C4.07259 18.1921 4.02462 18.0866 3.99797 17.8703C3.98198 17.7121 3.97132 14.3578 3.98198 10.4128L3.99797 3.24004L4.12589 3.06072C4.25381 2.88667 4.499 2.74427 4.68022 2.739C4.73352 2.739 4.85611 2.77065 4.95205 2.81284Z" fill="#2D945C"/>
</svg>
