<svg width="53" height="54" viewBox="0 0 53 54" fill="none" xmlns="http://www.w3.org/2000/svg">
<g id="Black">
<path id="Vector" d="M21.1115 0.242666C19.3667 0.84177 18.0844 2.27121 17.664 4.08955C17.4643 4.96193 17.5799 6.4229 17.9163 7.26375C18.4838 8.67217 19.7661 9.84936 21.2166 10.3118C22.1731 10.6061 23.592 10.6061 24.4959 10.3013C27.5755 9.26076 28.9944 5.85533 27.5965 2.89134C27.0079 1.6616 25.61 0.505431 24.2437 0.14807C23.3818 -0.0831623 21.9418 -0.0411205 21.1115 0.242666Z" fill="#2D945C"/>
<path id="Vector_2" d="M15.93 10.1658C14.385 10.4916 12.8399 11.6373 12.1252 12.9826C11.8309 13.5502 8.5831 23.735 8.29931 24.9963C8.07859 26.0053 8.61463 27.2035 9.51854 27.7185L9.93897 27.9603H5.3143C-0.403467 27.9708 0.00644615 27.7921 0.00644615 30.157C0.00644615 31.5233 0.00644616 31.5339 0.311254 31.8702L0.616061 32.217L2.0455 32.2486L3.47495 32.2906V42.4964C3.47495 52.5025 3.47495 52.7232 3.68516 53.0596C4.31579 54.0791 5.89238 54.0791 6.52302 53.0596C6.73323 52.7232 6.73323 52.5025 6.73323 42.4859V32.2696H25.81H44.8867V42.3808C44.8867 52.1346 44.8972 52.5235 45.0969 52.944C45.3597 53.5431 45.8222 53.8163 46.5579 53.8163C47.2726 53.8163 47.7456 53.5431 48.0294 52.9334C48.2501 52.492 48.2501 52.3869 48.2501 42.3808V32.2696H49.5114C51.5189 32.2696 51.7186 32.0699 51.7186 30.0308C51.7186 28.9272 51.6976 28.8011 51.4558 28.4437L51.2036 28.0654H51.7712H52.3492V26.0683V24.0713H48.0925H43.8357V26.0158V27.9603H42.8372H41.8386V26.0158V24.0713H40.4197H39.0008V26.0158V27.9603H37.4032H35.795L36.2155 27.7185C36.7936 27.3927 37.277 26.7095 37.4242 26.0158C37.5713 25.2906 37.6239 25.4798 35.5743 18.8791C34.6284 15.8415 33.798 13.3505 33.6088 12.9826C32.6314 11.1433 30.5397 9.99763 28.1538 9.98713C27.3445 9.98713 27.3445 9.98713 26.5142 10.5547C24.9796 11.5952 23.382 11.9631 21.7634 11.6373C20.7859 11.4481 19.6403 10.9436 18.894 10.376C18.4105 9.99763 18.3685 9.98713 17.5276 9.99763C17.0546 9.99763 16.3399 10.0712 15.93 10.1658ZM18.2423 17.1554C18.5682 17.3025 18.7153 17.5758 19.7769 20.0037C20.4391 21.5278 20.5757 21.7695 20.8069 21.8221C21.4901 21.9692 22.0262 22.2215 22.7304 22.726C22.8775 22.8311 22.9511 22.8206 23.1508 22.6314C23.2874 22.5053 23.6763 22.274 24.0232 22.1059L24.6538 21.8116L27.355 21.78L30.0563 21.7485L30.0878 20.277L30.1193 18.816L30.7289 20.7815C31.0548 21.8746 31.328 22.789 31.328 22.8311C31.328 22.8836 29.8776 22.9152 28.1013 22.9152C24.9376 22.9152 24.8535 22.9257 24.3385 23.1674C23.5397 23.5353 23.4976 23.6194 23.7604 24.3761C24.0232 25.1644 24.0232 25.8476 23.7604 26.5939C23.6448 26.9092 23.5607 27.2035 23.5502 27.256C23.5502 27.2981 23.7709 27.4768 24.0442 27.6449L24.5382 27.9603H22.867H21.1958L21.6898 27.6554C22.4151 27.193 22.8145 26.4362 22.8145 25.5113C22.8145 24.3656 22.3625 23.6089 21.3955 23.1674C20.8805 22.9257 20.8069 22.9152 17.6432 22.9152C15.8564 22.9152 14.406 22.8836 14.406 22.8311C14.406 22.789 14.6792 21.8746 15.0051 20.7815L15.6147 18.816L15.6462 20.2875L15.6778 21.759H16.9811C17.7063 21.759 18.2949 21.738 18.2949 21.7064C18.2949 21.6749 17.9691 20.8971 17.5592 19.9827C17.1597 19.0578 16.8234 18.1749 16.8234 18.0067C16.8234 17.2815 17.5592 16.84 18.2423 17.1554Z" fill="#2D945C"/>
<path id="Vector_3" d="M37.9497 15.2938V17.2383H42.0488H46.148V15.2938V13.3494H42.0488H37.9497V15.2938Z" fill="#2D945C"/>
<path id="Vector_4" d="M48.145 15.2938V17.2383H49.7216H51.2982V15.2938V13.3494H49.7216H48.145V15.2938Z" fill="#2D945C"/>
<path id="Vector_5" d="M37.2139 20.6571V22.6016H38.6328H40.0517V20.6571V18.7126H38.6328H37.2139V20.6571Z" fill="#2D945C"/>
<path id="Vector_6" d="M41.9434 20.6571V22.6016H46.2527H50.5621V20.6571V18.7126H46.2527H41.9434V20.6571Z" fill="#2D945C"/>
<path id="Vector_7" d="M11.9674 33.7615C11.7677 34.0873 11.589 34.5603 11.5154 35.0017C11.4734 35.2435 11.8413 37.7345 12.5665 42.1489C13.7542 49.3277 13.8068 49.5169 14.4794 50.158C15.2047 50.8517 16.6656 51.125 17.5696 50.7361C18.547 50.3262 19.3458 49.191 19.3458 48.1925C19.3458 47.8982 18.9359 45.197 18.4419 42.1699C17.9479 39.1534 17.559 36.6204 17.5906 36.5363C17.6221 36.4627 18.3263 35.811 19.1567 35.1068C19.987 34.3921 20.7332 33.751 20.8173 33.6669C20.9435 33.5513 20.2498 33.5302 16.5395 33.5302H12.1146L11.9674 33.7615Z" fill="#2D945C"/>
<path id="Vector_8" d="M24.8115 33.5696C24.8115 33.5906 25.5683 34.2528 26.4932 35.0516C27.4182 35.8504 28.1749 36.5126 28.1749 36.5231C28.1749 36.5336 27.765 39.0036 27.271 41.9991C26.7665 45.0051 26.3566 47.7379 26.3566 48.0847C26.3461 49.1989 26.9242 50.1238 27.9227 50.6178C29.3626 51.322 31.1284 50.7439 31.8011 49.3355C31.9272 49.0727 32.3792 46.6133 33.0834 42.409C34.2816 35.2513 34.3236 34.8099 33.8506 33.969L33.5984 33.5276H29.205C26.7875 33.5276 24.8115 33.5486 24.8115 33.5696Z" fill="#2D945C"/>
</g>
</svg>
