<svg width="52" height="54" viewBox="0 0 52 54" fill="none" xmlns="http://www.w3.org/2000/svg">
<g id="Black">
<path id="Vector" d="M12.8857 0.285713C12.7386 0.432861 12.5809 0.664095 12.5599 0.779711C12.5284 0.905838 12.5178 6.62361 12.5284 13.487L12.5599 25.9841L12.9067 26.2889L13.2431 26.5938H16.5014H19.7596V25.385V24.1763H17.3422H14.9248V13.2978V2.41936H31.7943H48.6638V13.2978V24.1763H42.6728H36.6817V25.385V26.5938H43.5241H50.3665L50.7239 26.2364L51.0812 25.879V13.3294C51.0812 1.68362 51.0707 0.769201 50.9026 0.527456C50.808 0.380308 50.6503 0.212139 50.5557 0.138565C50.4296 0.0334587 46.2569 0.0124378 31.7838 0.00192642H13.1695L12.8857 0.285713Z" fill="#2D945C"/>
<path id="Vector_2" d="M29.7135 5.15103C28.4733 5.36124 27.3381 6.28618 26.8967 7.44234C26.4342 8.65106 26.6654 10.2277 27.4432 11.1631L27.7585 11.5625H30.3862H33.0033L33.3712 11.058C33.5709 10.7847 33.8126 10.3328 33.9072 10.0595C34.1174 9.42885 34.1174 8.1886 33.9072 7.58949C33.2976 5.88678 31.5108 4.84623 29.7135 5.15103Z" fill="#2D945C"/>
<path id="Vector_3" d="M43.903 5.25603C43.7558 5.37165 43.5982 5.56084 43.5667 5.67646C43.5036 5.88667 43.388 5.88667 39.0786 5.88667H34.6642L34.9269 6.32811C35.0741 6.58037 35.2528 6.97977 35.3158 7.22152L35.4525 7.67347H39.6252H43.7979L43.8609 8.06236C43.9345 8.48279 44.1342 8.24104 40.9916 11.5624L40.3084 12.2876L37.0816 12.6555C33.8864 13.0339 33.8233 13.0339 29.514 13.0339C24.8893 13.0339 24.5109 13.0654 23.5229 13.5699C22.8608 13.9063 22.104 14.7366 21.7256 15.5354L21.3893 16.2396L21.2947 23.3343C21.2001 31.1121 21.2001 31.1016 21.7992 31.7007C22.619 32.5205 23.9013 32.3839 24.6371 31.3959C24.8578 31.1016 24.8578 30.965 24.9314 25.037C25.0365 16.8072 25.0259 17.091 25.2677 17.0489C25.3728 17.0279 25.4989 17.0699 25.5515 17.154C25.604 17.2276 25.6461 23.3763 25.6461 30.8178C25.6461 38.2698 25.6776 44.3555 25.7302 44.3555C25.7722 44.3555 26.1085 44.2609 26.4659 44.1453C26.8338 44.0296 27.2962 43.935 27.4959 43.935C27.9479 43.935 27.9479 43.8089 27.58 42.7053C26.8443 40.5086 27.6116 38.0281 29.4404 36.7248L29.9554 36.3464V33.3088V30.2713H30.3758H30.7963V33.0986V35.926L31.4059 35.7683C32.2152 35.5476 33.6972 35.6317 34.475 35.9365C34.7903 36.0521 35.0846 36.1572 35.1371 36.1572C35.1792 36.1572 35.2107 31.7638 35.2107 26.3823V16.6075L35.4525 16.5549C35.5786 16.5339 36.987 16.3657 38.5741 16.1871C40.1612 16.0084 41.6642 15.7877 41.8955 15.7036C42.2423 15.5774 42.7889 15.0624 44.5967 13.1495C45.8369 11.8357 46.9616 10.5954 47.0772 10.3957C47.34 9.96478 47.3715 9.07138 47.1403 8.62994C46.9721 8.28308 46.4045 7.77858 46.2048 7.77858C46.1207 7.77858 46.0156 7.52632 45.942 7.11641C45.6898 5.8236 45.5426 5.4242 45.2063 5.2245C44.7964 4.98276 44.2393 4.99327 43.903 5.25603Z" fill="#2D945C"/>
<path id="Vector_4" d="M17.7312 6.01511C17.2056 6.42502 17.3528 7.33944 17.9729 7.56016C18.2041 7.63374 19.4759 7.67578 21.8093 7.67578H25.2988L25.4249 7.22383C25.4985 6.98208 25.6772 6.58268 25.8138 6.33042L26.0766 5.88898H21.988C18.8873 5.88898 17.8678 5.92051 17.7312 6.01511Z" fill="#2D945C"/>
<path id="Vector_5" d="M19.6864 33.6355C19.4972 33.7406 19.2659 33.9613 19.1713 34.1085C19.0767 34.2556 18.6038 36.116 18.1203 38.2391C17.6368 40.3623 17.2164 42.2016 17.1848 42.3277C17.1533 42.4749 16.3755 43.1055 15.0407 44.083L12.9491 45.6176H8.66074C6.29585 45.6281 4.04658 45.6701 3.65769 45.7122C2.36489 45.8803 1.34536 46.5215 0.662168 47.583C0.0945954 48.4764 0 49.044 0 51.5771V53.8158H0.630636C1.31383 53.8158 1.27178 53.8684 1.41893 52.9645C1.5871 51.8714 2.62765 50.5786 3.74177 50.0636C4.62467 49.6641 5.52858 49.5906 9.09167 49.6326C12.5602 49.6747 12.2869 49.6431 13.5902 50.1897C13.7479 50.2527 13.7689 50.1897 13.7794 49.6011V48.9284L16.7434 46.7737C18.5302 45.4704 19.7704 44.4929 19.8755 44.3037C20.1488 43.8308 22.1038 35.1385 22.0302 34.6971C21.8621 33.646 20.6113 33.0679 19.6864 33.6355Z" fill="#2D945C"/>
<path id="Vector_6" d="M7.35742 37.6509C6.55862 37.9557 5.67573 38.8491 5.38143 39.6585C4.5616 41.8447 5.88594 44.1885 8.15623 44.5564C11.6878 45.1135 13.7899 40.7936 11.1728 38.3552C10.1953 37.4407 8.65023 37.1569 7.35742 37.6509Z" fill="#2D945C"/>
<path id="Vector_7" d="M31.2796 37.6817C28.4837 38.8274 28.3366 42.8844 31.0378 44.2298C33.9913 45.7013 37.197 42.7688 36.0304 39.6577C35.7256 38.8274 34.8532 37.955 34.0228 37.6502C33.1715 37.3243 32.1099 37.3348 31.2796 37.6817Z" fill="#2D945C"/>
<path id="Vector_8" d="M27.5376 45.7232C26.2764 45.9124 25.3304 46.48 24.6787 47.4155C23.9955 48.414 23.943 48.6452 23.8904 51.3674L23.8379 53.8164H24.6787H25.5091L25.5616 53.3014C25.6352 52.5551 26.1818 51.4831 26.7914 50.8839C27.443 50.2533 28.2103 49.8644 29.1142 49.7173C29.9971 49.5806 35.4836 49.5806 36.3665 49.7173C38.1744 50.0116 39.6984 51.5461 39.9086 53.2804L39.9717 53.8164H40.6864H41.4116V51.5776C41.4116 49.0446 41.317 48.477 40.7494 47.5836C40.0663 46.522 39.0467 45.8809 37.7539 45.7127C36.9236 45.6076 28.2313 45.6076 27.5376 45.7232Z" fill="#2D945C"/>
<path id="Vector_9" d="M4.50909 50.9155C3.93101 51.1257 3.38446 51.4831 3.10067 51.8614C2.7328 52.3449 2.41748 53.0807 2.41748 53.4696V53.8164H8.51363H14.6098V53.5221C14.6098 52.6392 13.874 51.5461 12.9701 51.0836L12.4551 50.8209L8.67129 50.7999C5.75985 50.7788 4.80339 50.8104 4.50909 50.9155Z" fill="#2D945C"/>
<path id="Vector_10" d="M28.5153 50.9891C27.5693 51.3569 26.8125 52.3134 26.6444 53.3645L26.5708 53.8164H32.7405H38.8997L38.8262 53.417C38.637 52.3029 37.8802 51.3359 36.9132 50.9785C36.3982 50.7788 36.0934 50.7683 32.709 50.7788C29.3246 50.7788 29.0198 50.7894 28.5153 50.9891Z" fill="#2D945C"/>
</g>
</svg>
