<svg width="54" height="54" viewBox="0 0 54 54" fill="none" xmlns="http://www.w3.org/2000/svg">
<g id="Black">
<path id="Vector" d="M4.62451 1.57561V3.1522H6.2011H7.77769V7.09368V11.0352H9.40684H11.036V7.09368V3.1522H12.56H14.0841V6.30539V9.45857H26.907H39.7299V6.30539V3.1522H43.6714H47.6129V1.57561V-0.000975609H26.1187H4.62451V1.57561Z" fill="#2D945C"/>
<path id="Vector_2" d="M14.0845 14.189V15.7656H26.9074H39.7303V14.189V12.6124H26.9074H14.0845V14.189Z" fill="#2D945C"/>
<path id="Vector_3" d="M2.46984 15.5115C2.09146 16.2998 1.81818 16.983 1.86023 17.0251C1.90227 17.0566 2.79567 17.4875 3.83622 17.971C4.87677 18.4545 6.16957 19.0536 6.70561 19.3059L7.6831 19.7578L8.36629 18.3284C8.73416 17.5401 9.03897 16.8674 9.03897 16.8359C9.03897 16.7728 3.93081 14.3554 3.33171 14.1241C3.18456 14.0716 3.03741 14.3028 2.46984 15.5115Z" fill="#2D945C"/>
<path id="Vector_4" d="M47.6236 15.41C46.089 16.1247 44.8173 16.7343 44.7962 16.7658C44.7121 16.8499 46.068 19.6562 46.1836 19.6562C46.3728 19.6562 52.0275 16.9866 52.0065 16.913C51.9855 16.8709 51.6912 16.2193 51.3443 15.4625C50.9449 14.5796 50.6611 14.0961 50.556 14.0961C50.472 14.0961 49.1476 14.6847 47.6236 15.41Z" fill="#2D945C"/>
<path id="Vector_5" d="M12.9281 19.4667C12.4446 20.3285 11.7824 22.0838 11.4776 23.3766C11.2149 24.4487 11.1938 24.722 11.1938 26.8556C11.1938 28.7055 11.2359 29.3361 11.383 30.0403C12.0452 33.0253 13.4221 35.653 15.4401 37.7551L16.4176 38.7852H20.8741H25.3306V33.9713V29.168L23.3861 27.2235L21.4417 25.279L22.5138 24.207L23.5964 23.1244L25.2465 24.7745L26.9072 26.4352L28.5679 24.7745L30.218 23.1244L31.3006 24.207L32.3727 25.279L30.4282 27.2235L28.4838 29.168V33.9713V38.7852H32.9403H37.3968L38.3743 37.7551C40.3923 35.653 41.7692 33.0359 42.4314 30.0403C42.5785 29.3361 42.6205 28.7055 42.6205 26.8556C42.6205 24.722 42.5995 24.4487 42.3368 23.3766C42.032 22.0838 41.3698 20.3285 40.8863 19.4667L40.571 18.9201H26.9072H13.2434L12.9281 19.4667Z" fill="#2D945C"/>
<path id="Vector_6" d="M0 26.9078V28.4844H3.20573H6.41147V26.9078V25.3312H3.20573H0V26.9078Z" fill="#2D945C"/>
<path id="Vector_7" d="M47.4028 26.9078V28.4844H50.6086H53.8143V26.9078V25.3312H50.6086H47.4028V26.9078Z" fill="#2D945C"/>
<path id="Vector_8" d="M4.72978 35.4324C2.95349 36.2628 1.84988 36.8408 1.8709 36.9249C1.92345 37.1351 3.0586 39.5631 3.15319 39.6577C3.23728 39.7523 9.03913 37.1036 9.03913 36.9775C9.03913 36.8514 7.73582 34.0555 7.67275 34.066C7.64122 34.066 6.31688 34.6757 4.72978 35.4324Z" fill="#2D945C"/>
<path id="Vector_9" d="M45.4162 35.5889C45.0588 36.3772 44.7751 37.0394 44.8066 37.0604C44.8591 37.1129 50.4823 39.7406 50.5874 39.7616C50.6715 39.7826 52.0694 36.9027 52.0064 36.8397C51.9118 36.7556 46.2886 34.1595 46.194 34.1595C46.1309 34.1595 45.7841 34.8006 45.4162 35.5889Z" fill="#2D945C"/>
<path id="Vector_10" d="M18.3936 44.0179C18.3936 46.2567 18.4671 46.9083 18.877 48.1486C19.7284 50.7762 22.0618 52.8994 24.8471 53.6036C25.9927 53.8874 27.8216 53.8874 28.9672 53.6036C31.7525 52.8994 34.0859 50.7762 34.9372 48.1486C35.3472 46.9083 35.4207 46.2567 35.4207 44.0179V41.9368H26.9071H18.3936V44.0179Z" fill="#2D945C"/>
</g>
</svg>
