<svg width="54" height="54" viewBox="0 0 54 54" fill="none" xmlns="http://www.w3.org/2000/svg">
<g id="Black">
<path id="Vector" d="M45.5849 0.138911C43.5143 0.790568 42.1689 2.6089 42.1689 4.72153C42.1689 6.58191 43.199 8.21105 44.8912 9.02037C45.5954 9.3462 45.8056 9.39875 46.699 9.43028C47.5399 9.47233 47.8447 9.43028 48.4017 9.2516C51.1345 8.33718 52.4483 5.2786 51.2291 2.69299C50.4198 0.969249 48.8432 -0.0187473 46.9197 0.00227356C46.4152 0.00227356 45.8161 0.0653372 45.5849 0.138911Z" fill="#2D945C"/>
<path id="Vector_2" d="M15.6818 8.5053C13.7269 8.7996 12.2239 10.1239 11.7404 11.9633C11.3094 13.645 11.7614 15.3897 12.9596 16.588C13.895 17.5129 14.9881 17.9648 16.3335 17.9648C18.7194 17.9648 20.6639 16.3042 21.0422 13.9498C21.5257 10.8176 18.7825 8.03232 15.6818 8.5053Z" fill="#2D945C"/>
<path id="Vector_3" d="M43.23 10.9338C42.4312 11.1755 41.6744 11.8272 41.2329 12.6575L40.9597 13.1831L40.9281 17.1981C40.9071 19.6156 40.9386 21.2237 40.9912 21.2237C41.0438 21.2237 41.254 21.1606 41.4537 21.0765C41.7795 20.9399 41.9372 20.6771 43.2089 18.1861C43.9867 16.6726 44.6384 15.4534 44.6594 15.4744C44.6699 15.4954 44.3441 17.0615 43.9237 18.9534C43.4191 21.2237 43.1038 22.4324 43.0092 22.485C42.9251 22.527 41.4116 23.1261 39.6458 23.7988C37.8801 24.4715 36.2614 25.1231 36.0512 25.2492C35.8305 25.3649 35.5257 25.6592 35.368 25.8904C35.1158 26.2583 35.0737 26.4264 35.0737 27.0781C35.0737 27.7403 35.1053 27.8769 35.389 28.2763C35.5677 28.518 35.9146 28.8334 36.1773 28.9805C37.0077 29.422 37.3756 29.3274 41.9792 27.5511C44.218 26.6787 46.1834 25.8694 46.3621 25.7327C46.5303 25.5961 46.751 25.3438 46.8456 25.1862C46.9402 25.018 47.4342 23.0315 47.9387 20.7717L48.8636 16.6621L48.9267 17.8603C48.9687 18.5225 49.0003 20.3828 49.0003 21.9804C49.0003 24.6712 48.9793 24.9339 48.7796 25.4805C48.5063 26.2057 47.9072 26.9835 47.287 27.3934C47.0243 27.5616 45.4582 28.2237 43.808 28.8544L40.802 30V40.826C40.802 51.4942 40.8125 51.6624 41.0227 52.1249C41.5167 53.2074 42.4101 53.7435 43.6714 53.712C44.6489 53.6909 45.5528 53.0708 45.9942 52.1249C46.215 51.6624 46.215 51.5363 46.2465 41.7404L46.278 31.8394H46.9507H47.6339V41.6668C47.6339 51.2209 47.6444 51.5047 47.8441 52.0513C48.1384 52.8291 48.8636 53.4807 49.6309 53.6489C50.9973 53.9537 52.2586 53.3441 52.8261 52.1249C53.0469 51.6519 53.0469 51.6519 53.0784 33.9941C53.0889 24.2823 53.0679 15.6215 53.0153 14.7597C52.9312 13.3723 52.8892 13.12 52.6475 12.6575C52.3321 12.0269 51.7435 11.4488 51.1024 11.1125C50.6399 10.8707 50.5769 10.8707 47.1084 10.8497C45.0273 10.8392 43.4402 10.8707 43.23 10.9338Z" fill="#2D945C"/>
<path id="Vector_4" d="M10.4897 19.793C9.43863 20.2345 8.66085 21.1489 8.36655 22.2735C8.22991 22.8096 8.20889 23.8606 8.24043 29.4943C8.27196 36.0634 8.27196 36.095 8.5137 36.6836C8.81851 37.4298 9.36506 38.071 10.0482 38.4598L10.5843 38.7752H8.61881C6.66384 38.7752 6.64281 38.7752 6.59026 38.5334C6.55873 38.4073 5.87554 34.9178 5.05571 30.7871C4.2464 26.6564 3.54219 23.1249 3.47912 22.9462C3.26891 22.284 2.55419 21.8216 1.74487 21.8216C0.714834 21.8216 -0.0103978 22.5573 0.000112771 23.5663C0.000112771 24.26 3.31095 41.0665 3.52116 41.4764C3.73138 41.8863 4.03618 42.128 4.50916 42.2962C4.72988 42.3803 4.89805 42.5064 4.89805 42.58C4.88754 42.6536 4.18333 44.514 3.33197 46.7107C2.48062 48.9074 1.71334 50.9044 1.63977 51.1567C1.46109 51.7347 1.54517 52.1657 1.93406 52.5546C2.19683 52.8068 2.33347 52.8594 2.75389 52.8594C3.64729 52.8594 3.63678 52.8699 5.74941 47.3623L7.64132 42.4539H11.3411H15.0408L15.2405 43.0004C15.3561 43.3052 15.8291 44.5455 16.3021 45.7437L17.1534 47.9299L16.6699 49.1071C15.9132 50.957 15.9237 52.0501 16.712 52.9855C17.3636 53.7528 18.7931 54.0366 19.7811 53.5846C20.3697 53.3218 20.685 53.0275 20.9583 52.502C21.0739 52.2813 22.4928 48.7497 24.1114 44.6716C26.0454 39.7842 27.0649 37.0724 27.107 36.7256C27.2226 35.664 26.676 34.6445 25.7196 34.161L25.2045 33.8877L20.0964 33.8352C14.4732 33.7721 14.778 33.8142 13.9372 33.0784C13.233 32.4583 13.0963 32.0063 12.7495 29.2526C12.5708 27.8757 12.4447 26.7405 12.4552 26.7195C12.4762 26.709 12.8336 27.4763 13.2645 28.4538C14.5783 31.4703 14.757 31.7225 15.6714 32.0379C16.239 32.2271 16.5333 32.185 18.1414 31.6805C19.8126 31.1655 19.8231 31.1655 19.7285 31.3126C19.5919 31.5334 19.8967 32.2481 20.233 32.4898L20.5694 32.7316H27.0964C32.3202 32.7316 33.6761 32.7 33.8863 32.5949C34.4539 32.2901 34.6536 31.5018 34.3277 30.8817C34.0124 30.2616 33.9704 30.2616 28.0634 30.2511L22.6715 30.2406L24.3742 29.6835C25.3937 29.3577 26.2346 29.0213 26.4553 28.8532C26.9808 28.4432 27.2436 27.8757 27.2436 27.1294C27.2436 25.5738 26.0454 24.712 24.3532 25.0378L23.9328 25.1114L22.8397 23.272C22.2405 22.2525 21.6309 21.3276 21.4838 21.2225C21.0949 20.9176 20.664 20.9492 20.2856 21.3276C19.8231 21.79 19.9072 22.0948 21.0949 24.0708C21.6625 24.9958 22.0934 25.763 22.0829 25.7841C21.9883 25.8366 18.9297 26.7931 18.8351 26.7931C18.751 26.7931 18.7405 26.257 18.7931 24.9747C18.8456 23.6924 18.8246 22.9777 18.73 22.5363C18.4778 21.2855 17.7841 20.4026 16.6384 19.8666C16.0603 19.6038 15.9973 19.5933 13.5798 19.5618C11.1624 19.5408 11.0993 19.5408 10.4897 19.793ZM17.4582 25.6895L18.4252 26.9507L18.0784 27.0769C17.8892 27.1399 17.6895 27.203 17.6474 27.203C17.5633 27.2135 17.1429 26.3411 16.5123 24.8696C16.1444 23.9867 16.197 24.0288 17.4582 25.6895ZM20.5799 39.2481C19.9703 40.8563 18.5829 44.3143 18.5303 44.3668C18.4883 44.4088 18.2886 43.9989 18.0784 43.4524L17.7 42.4539L18.0784 42.3488C18.8351 42.1491 19.3606 41.4028 19.3606 40.562C19.3606 40.068 19.245 39.7947 18.8561 39.3743L18.5829 39.0905H19.6129C20.4853 39.0905 20.6324 39.1115 20.5799 39.2481Z" fill="#2D945C"/>
<path id="Vector_5" d="M28.6839 27.2588C28.4001 27.4795 28.2634 27.9735 28.4001 28.3204C28.6103 28.8774 28.6839 28.8879 31.1959 28.8984H33.5187L33.3296 28.3414C33.2244 28.0471 33.1404 27.6372 33.1299 27.448V27.1116H31.0067C29.3986 27.1221 28.831 27.1537 28.6839 27.2588Z" fill="#2D945C"/>
</g>
</svg>
