<svg width="41" height="40" viewBox="0 0 41 40" fill="none" xmlns="http://www.w3.org/2000/svg">
<path d="M40.0735 19.7301C40.0735 8.83347 31.24 0 20.3434 0C9.44675 0 0.613281 8.83347 0.613281 19.7301C0.613281 30.6267 9.44675 39.4602 20.3434 39.4602C31.24 39.4602 40.0735 30.6267 40.0735 19.7301Z" fill="#185850"/>
<path d="M20.9246 10.5727C20.8642 10.5991 20.7662 10.6708 20.7096 10.7312C20.5775 10.8783 19.6533 12.4816 19.6722 12.5344C19.691 12.5759 21.6225 13.7038 21.6414 13.6812C21.6678 13.6473 22.5316 12.1345 22.5996 12.0025C22.7542 11.6969 22.6825 11.3159 22.426 11.082C22.3694 11.0254 22.1506 10.8821 21.9432 10.7614C21.5961 10.5614 21.5433 10.5426 21.3018 10.5312C21.1321 10.5237 20.9963 10.5388 20.9246 10.5727Z" fill="white"/>
<path d="M16.8022 17.4394C15.5536 19.6048 14.5312 21.3854 14.5312 21.4004C14.5312 21.4118 15.1273 21.4193 15.8591 21.4155L17.1833 21.4042L19.1223 18.0505C20.1861 16.2021 21.0575 14.6742 21.0575 14.6516C21.0575 14.6176 19.1676 13.501 19.1035 13.501C19.0884 13.501 18.0547 15.274 16.8022 17.4394Z" fill="white"/>
<path d="M16.09 15.0663C15.8485 15.138 15.7504 15.2059 14.6904 16.0056C13.6794 16.7639 13.3814 17.043 13.0833 17.4995C12.8306 17.8767 10.7973 21.5624 10.7331 21.751C10.6426 22.0151 10.6803 22.5206 10.8124 22.7733C11.0047 23.1543 11.3669 23.4222 11.6838 23.4222C11.8875 23.4222 12.1252 23.3052 12.2383 23.1543C12.4307 22.894 16.9123 15.0814 16.8897 15.0474C16.8558 14.9946 16.2748 15.0059 16.09 15.0663Z" fill="white"/>
<path d="M19.9525 18.7741C19.1301 20.2001 18.4549 21.3809 18.4549 21.396C18.4549 21.4111 18.6963 21.4224 18.9943 21.4224C19.4545 21.4224 19.5451 21.4337 19.6394 21.4941C19.9827 21.7204 19.9714 22.2372 19.6168 22.4296C19.4998 22.4937 19.3036 22.4975 16.9082 22.5164L14.3241 22.5352L14.1468 22.622C13.7507 22.8182 13.4866 23.1577 13.3998 23.584C13.2753 24.1989 13.6299 24.8515 14.2222 25.0892L14.4372 25.1759L17.0025 25.1948L19.5677 25.2137L20.0204 25.4438C21.967 26.4359 24.2455 26.5755 26.3128 25.8286L26.5278 25.7493V22.0599V18.3667H26.1053H25.6828L23.5778 17.2727C22.4234 16.6691 21.469 16.1787 21.4615 16.1787C21.4577 16.1787 20.7749 17.3482 19.9525 18.7741Z" fill="white"/>
<path d="M28.0904 17.2304C27.9395 17.2681 27.8188 17.3549 27.732 17.4869C27.6641 17.5888 27.6604 17.7736 27.6604 21.9422C27.6604 26.718 27.6453 26.3936 27.8792 26.5709C27.9735 26.6388 28.0489 26.6464 28.7808 26.6577C29.6824 26.669 29.7805 26.6501 29.9238 26.42C29.9993 26.2993 29.9993 26.2427 29.9993 21.9497C29.9993 17.0946 30.0219 17.4756 29.7352 17.2983C29.6145 17.2229 29.5503 17.2153 28.9052 17.2078C28.5205 17.204 28.1545 17.2153 28.0904 17.2304Z" fill="white"/>
<path d="M12.1816 25.4396L11.8685 25.9866L11.5705 27.2353C11.2989 28.3821 11.28 28.4952 11.3215 28.631C11.3818 28.8272 11.5441 28.9291 11.7893 28.9291C11.9968 28.9291 11.8609 29.0385 13.1172 27.8577C13.8075 27.2088 13.8452 27.1673 14.1055 26.726L14.3809 26.2695L14.1998 26.2205C13.9282 26.145 13.5698 25.9904 13.3737 25.8621C13.1172 25.6961 12.7776 25.3415 12.6418 25.1001C12.5777 24.9869 12.5211 24.8926 12.5136 24.8926C12.506 24.8926 12.3589 25.1378 12.1816 25.4396Z" fill="white"/>
<path d="M15.2368 26.9407L14.8633 27.5896L15.0066 27.7103C15.2179 27.8951 15.5159 27.9932 15.8517 27.9932C16.4251 27.9932 16.8627 27.699 17.0777 27.1708L17.1607 26.9709L17.2474 27.1859C17.3719 27.4877 17.6888 27.797 17.9831 27.9064C18.5338 28.1177 19.1978 27.9442 19.5298 27.5103C19.692 27.2991 19.8089 26.9784 19.8127 26.7559V26.5597L19.526 26.4239L19.2393 26.2881H17.421L15.6064 26.2918L15.2368 26.9407Z" fill="white"/>
</svg>
