<svg width="123" height="118" viewBox="0 0 123 118" fill="none" xmlns="http://www.w3.org/2000/svg">
<path d="M6.54566 95.9219V93.5469H1.6473V91.6172L6.39723 84.8634H8.84641V91.6172H10.5534V93.5469H8.84641V95.9219H6.54566ZM3.32462 92.4485L2.89415 91.6172H6.54566V86.6447L7.12456 86.8228L3.32462 92.4485ZM12.9152 95.9219V93.6953H15.1417V95.9219H12.9152ZM21.7501 96.1C20.9188 96.1 20.2014 95.9466 19.5978 95.6398C19.004 95.3331 18.5488 94.9224 18.2322 94.4078C17.9155 93.8933 17.7572 93.3342 17.7572 92.7305C17.7572 92.0081 17.9452 91.4045 18.3212 90.9196C18.7072 90.4347 19.2712 90.0686 20.0134 89.8212L19.865 90.3852C19.3405 90.2269 18.9199 89.9003 18.6033 89.4056C18.2965 88.9108 18.1431 88.3616 18.1431 87.7579C18.1431 87.1642 18.2965 86.6348 18.6033 86.1697C18.91 85.7046 19.3355 85.3434 19.8798 85.0861C20.4241 84.8189 21.0475 84.6853 21.7501 84.6853C22.4527 84.6853 23.0712 84.8189 23.6055 85.0861C24.1498 85.3434 24.5753 85.7046 24.8821 86.1697C25.1987 86.6348 25.3571 87.1642 25.3571 87.7579C25.3571 88.3616 25.2037 88.9108 24.8969 89.4056C24.5901 89.9003 24.1696 90.2319 23.6352 90.4001L23.5016 89.8063C24.2438 90.0834 24.8078 90.4644 25.1938 90.9493C25.5797 91.4243 25.7727 92.023 25.7727 92.7454C25.7727 93.349 25.6094 93.9081 25.2828 94.4227C24.9662 94.9274 24.506 95.3331 23.9024 95.6398C23.2988 95.9466 22.5813 96.1 21.7501 96.1ZM21.7501 94.1703C22.0964 94.1703 22.3982 94.106 22.6555 93.9774C22.9128 93.8487 23.1107 93.6706 23.2493 93.443C23.3977 93.2154 23.4719 92.9532 23.4719 92.6563C23.4719 92.3495 23.3977 92.0873 23.2493 91.8696C23.1107 91.642 22.9128 91.4688 22.6555 91.3501C22.3982 91.2214 22.0964 91.1571 21.7501 91.1571C21.4136 91.1571 21.1168 91.2214 20.8595 91.3501C20.6121 91.4688 20.4142 91.642 20.2657 91.8696C20.1272 92.0873 20.0579 92.3495 20.0579 92.6563C20.0579 92.9532 20.1272 93.2154 20.2657 93.443C20.4142 93.6706 20.6121 93.8487 20.8595 93.9774C21.1168 94.106 21.4136 94.1703 21.7501 94.1703ZM21.7501 89.2274C22.0173 89.2274 22.2449 89.1681 22.4329 89.0493C22.6308 88.9306 22.7842 88.7722 22.893 88.5743C23.0019 88.3764 23.0563 88.1587 23.0563 87.9212C23.0563 87.6738 23.0019 87.4512 22.893 87.2533C22.7842 87.0553 22.6308 86.902 22.4329 86.7931C22.2449 86.6744 22.0173 86.615 21.7501 86.615C21.4928 86.615 21.2652 86.6744 21.0673 86.7931C20.8694 86.902 20.716 87.0553 20.6071 87.2533C20.4983 87.4512 20.4439 87.6738 20.4439 87.9212C20.4439 88.1587 20.4983 88.3764 20.6071 88.5743C20.716 88.7722 20.8694 88.9306 21.0673 89.0493C21.2652 89.1681 21.4928 89.2274 21.7501 89.2274Z" fill="#185850"/>
<path d="M2.71671 114.994V107.225H4.43341V114.994H2.71671ZM1.22009 108.689V107.225H4.32337V108.689H1.22009ZM8.83445 115.115C8.21086 115.115 7.64596 114.946 7.13975 114.609C6.63354 114.272 6.23371 113.802 5.94026 113.2C5.65414 112.591 5.51108 111.891 5.51108 111.099C5.51108 110.299 5.65414 109.602 5.94026 109.008C6.22637 108.406 6.61887 107.94 7.11774 107.61C7.61661 107.273 8.18151 107.104 8.81244 107.104C9.4507 107.104 10.0193 107.273 10.5181 107.61C11.017 107.94 11.4095 108.406 11.6956 109.008C11.9891 109.609 12.1358 110.31 12.1358 111.11C12.1358 111.909 11.9891 112.61 11.6956 113.211C11.4095 113.813 11.017 114.283 10.5181 114.62C10.0266 114.95 9.46537 115.115 8.83445 115.115ZM8.82344 113.586C9.14624 113.586 9.42502 113.494 9.65979 113.31C9.89455 113.12 10.0743 112.841 10.199 112.474C10.3311 112.1 10.3971 111.645 10.3971 111.11C10.3971 110.567 10.3311 110.112 10.199 109.745C10.0743 109.378 9.89455 109.103 9.65979 108.92C9.42502 108.729 9.14257 108.634 8.81244 108.634C8.49697 108.634 8.21819 108.725 7.97609 108.909C7.74133 109.092 7.56159 109.367 7.43687 109.734C7.31215 110.101 7.24979 110.556 7.24979 111.099C7.24979 111.641 7.31215 112.096 7.43687 112.463C7.56159 112.83 7.74133 113.109 7.97609 113.299C8.21819 113.49 8.50064 113.586 8.82344 113.586ZM16.1636 115.115C15.54 115.115 14.9751 114.946 14.4689 114.609C13.9627 114.272 13.5629 113.802 13.2694 113.2C12.9833 112.591 12.8403 111.891 12.8403 111.099C12.8403 110.299 12.9833 109.602 13.2694 109.008C13.5556 108.406 13.9481 107.94 14.4469 107.61C14.9458 107.273 15.5107 107.104 16.1416 107.104C16.7799 107.104 17.3485 107.273 17.8473 107.61C18.3462 107.94 18.7387 108.406 19.0248 109.008C19.3183 109.609 19.465 110.31 19.465 111.11C19.465 111.909 19.3183 112.61 19.0248 113.211C18.7387 113.813 18.3462 114.283 17.8473 114.62C17.3558 114.95 16.7946 115.115 16.1636 115.115ZM16.1526 113.586C16.4754 113.586 16.7542 113.494 16.989 113.31C17.2237 113.12 17.4035 112.841 17.5282 112.474C17.6602 112.1 17.7263 111.645 17.7263 111.11C17.7263 110.567 17.6602 110.112 17.5282 109.745C17.4035 109.378 17.2237 109.103 16.989 108.92C16.7542 108.729 16.4718 108.634 16.1416 108.634C15.8262 108.634 15.5474 108.725 15.3053 108.909C15.0705 109.092 14.8908 109.367 14.7661 109.734C14.6413 110.101 14.579 110.556 14.579 111.099C14.579 111.641 14.6413 112.096 14.7661 112.463C14.8908 112.83 15.0705 113.109 15.3053 113.299C15.5474 113.49 15.8298 113.586 16.1526 113.586ZM20.3565 112.012V110.614H25.4736V112.012H20.3565ZM22.2053 108.623H23.6359V113.982H22.2053V108.623Z" fill="#185850"/>
<path d="M31.9984 111.671V110.801H34.0672C34.5147 110.801 34.8595 110.688 35.1016 110.46C35.3437 110.233 35.4648 109.925 35.4648 109.536C35.4648 109.169 35.3437 108.865 35.1016 108.623C34.8669 108.38 34.5257 108.259 34.0782 108.259H31.9984V107.357H34.1112C34.5954 107.357 35.0173 107.452 35.3768 107.643C35.7362 107.827 36.0113 108.08 36.2021 108.402C36.4002 108.725 36.4992 109.096 36.4992 109.514C36.4992 109.947 36.4002 110.325 36.2021 110.647C36.0113 110.97 35.7362 111.223 35.3768 111.407C35.0173 111.583 34.5954 111.671 34.1112 111.671H31.9984ZM31.3051 114.994V107.357H32.3395V114.994H31.3051ZM35.7069 114.994L32.9337 111.572L33.9132 111.231L37.0164 114.994H35.7069ZM40.1592 115.104C39.6383 115.104 39.1688 114.987 38.7506 114.752C38.3324 114.51 38.0023 114.183 37.7602 113.773C37.5181 113.362 37.397 112.896 37.397 112.375C37.397 111.862 37.5144 111.399 37.7492 110.988C37.9913 110.578 38.3141 110.255 38.7176 110.02C39.1284 109.778 39.5869 109.657 40.0931 109.657C40.5773 109.657 41.0028 109.767 41.3697 109.987C41.7438 110.207 42.0336 110.512 42.239 110.9C42.4518 111.289 42.5581 111.729 42.5581 112.221C42.5581 112.294 42.5545 112.375 42.5471 112.463C42.5398 112.544 42.5251 112.639 42.5031 112.749H38.0903V111.924H41.9749L41.6118 112.243C41.6118 111.891 41.5494 111.594 41.4247 111.352C41.3 111.102 41.1239 110.911 40.8965 110.779C40.669 110.64 40.3939 110.57 40.0711 110.57C39.7337 110.57 39.4365 110.644 39.1798 110.79C38.923 110.937 38.7249 111.143 38.5855 111.407C38.4461 111.671 38.3764 111.983 38.3764 112.342C38.3764 112.709 38.4498 113.032 38.5965 113.31C38.7432 113.582 38.9523 113.795 39.2238 113.949C39.4952 114.095 39.807 114.169 40.1592 114.169C40.4526 114.169 40.7204 114.117 40.9625 114.015C41.2119 113.912 41.4247 113.758 41.6008 113.553L42.239 114.202C41.9896 114.495 41.6815 114.719 41.3146 114.873C40.9552 115.027 40.57 115.104 40.1592 115.104ZM45.3458 114.994L42.9468 109.767H44.0473L45.9731 114.18H45.3348L47.2716 109.767H48.328L45.9291 114.994H45.3458ZM49.1836 114.994V109.767H50.174V114.994H49.1836ZM49.6788 108.722C49.4954 108.722 49.345 108.663 49.2276 108.545C49.1102 108.421 49.0515 108.267 49.0515 108.083C49.0515 107.907 49.1102 107.761 49.2276 107.643C49.345 107.518 49.4954 107.456 49.6788 107.456C49.8622 107.456 50.0126 107.518 50.1299 107.643C50.2473 107.761 50.306 107.907 50.306 108.083C50.306 108.267 50.2473 108.421 50.1299 108.545C50.0126 108.663 49.8622 108.722 49.6788 108.722ZM54.0545 115.104C53.5336 115.104 53.0641 114.987 52.6459 114.752C52.2278 114.51 51.8976 114.183 51.6555 113.773C51.4134 113.362 51.2924 112.896 51.2924 112.375C51.2924 111.862 51.4098 111.399 51.6445 110.988C51.8866 110.578 52.2094 110.255 52.6129 110.02C53.0238 109.778 53.4823 109.657 53.9885 109.657C54.4727 109.657 54.8982 109.767 55.265 109.987C55.6392 110.207 55.929 110.512 56.1344 110.9C56.3471 111.289 56.4535 111.729 56.4535 112.221C56.4535 112.294 56.4498 112.375 56.4425 112.463C56.4352 112.544 56.4205 112.639 56.3985 112.749H51.9857V111.924H55.8703L55.5071 112.243C55.5071 111.891 55.4448 111.594 55.32 111.352C55.1953 111.102 55.0192 110.911 54.7918 110.779C54.5644 110.64 54.2893 110.57 53.9665 110.57C53.629 110.57 53.3319 110.644 53.0751 110.79C52.8183 110.937 52.6203 111.143 52.4809 111.407C52.3415 111.671 52.2718 111.983 52.2718 112.342C52.2718 112.709 52.3452 113.032 52.4919 113.31C52.6386 113.582 52.8477 113.795 53.1191 113.949C53.3906 114.095 53.7024 114.169 54.0545 114.169C54.348 114.169 54.6158 114.117 54.8579 114.015C55.1073 113.912 55.32 113.758 55.4961 113.553L56.1344 114.202C55.8849 114.495 55.5768 114.719 55.21 114.873C54.8505 115.027 54.4654 115.104 54.0545 115.104ZM58.9655 114.994L56.8967 109.767H57.9311L59.4277 113.839H59.0976L60.5832 109.767H61.1554L62.6411 113.839H62.3109L63.8075 109.767H64.842L62.7841 114.994H62.2009L60.6933 111.044H61.0564L59.5378 114.994H58.9655ZM67.255 115.104C66.9616 115.104 66.6828 115.068 66.4187 114.994C66.1619 114.913 65.9235 114.803 65.7034 114.664C65.4833 114.517 65.2926 114.345 65.1312 114.147L65.7694 113.509C65.9602 113.743 66.1803 113.919 66.4297 114.037C66.6791 114.147 66.9579 114.202 67.2661 114.202C67.5742 114.202 67.8126 114.15 67.9813 114.048C68.1501 113.938 68.2344 113.787 68.2344 113.597C68.2344 113.406 68.1648 113.259 68.0254 113.156C67.8933 113.046 67.7209 112.958 67.5082 112.892C67.2954 112.819 67.068 112.749 66.8259 112.683C66.5911 112.61 66.3673 112.518 66.1546 112.408C65.9418 112.298 65.7658 112.148 65.6264 111.957C65.4943 111.766 65.4283 111.513 65.4283 111.198C65.4283 110.882 65.5053 110.611 65.6594 110.383C65.8135 110.148 66.0262 109.969 66.2977 109.844C66.5764 109.719 66.9102 109.657 67.2991 109.657C67.7099 109.657 68.073 109.73 68.3885 109.877C68.7113 110.016 68.9754 110.229 69.1808 110.515L68.5426 111.154C68.3958 110.963 68.2124 110.816 67.9923 110.713C67.7796 110.611 67.5375 110.559 67.2661 110.559C66.9799 110.559 66.7598 110.611 66.6058 110.713C66.4591 110.809 66.3857 110.944 66.3857 111.121C66.3857 111.297 66.4517 111.432 66.5838 111.528C66.7158 111.623 66.8882 111.704 67.101 111.77C67.3211 111.836 67.5485 111.906 67.7833 111.979C68.018 112.045 68.2418 112.137 68.4545 112.254C68.6673 112.371 68.8397 112.529 68.9718 112.727C69.1111 112.925 69.1808 113.186 69.1808 113.509C69.1808 114 69.0048 114.389 68.6526 114.675C68.3078 114.961 67.842 115.104 67.255 115.104Z" fill="#868686"/>
<path d="M44.1673 82.8433C44.3948 82.3856 45.0477 82.3856 45.2751 82.8433L47.1324 86.5814C47.2225 86.7627 47.3955 86.8884 47.5957 86.918L51.7248 87.5293C52.2304 87.6041 52.4321 88.2251 52.0671 88.5828L49.0859 91.5043C48.9413 91.646 48.8752 91.8494 48.9089 92.049L49.6035 96.1649C49.6886 96.6688 49.1604 97.0526 48.7074 96.816L45.0076 94.8835C44.8282 94.7898 44.6143 94.7898 44.4349 94.8835L40.7351 96.816C40.2821 97.0526 39.7539 96.6688 39.8389 96.1649L40.5335 92.049C40.5672 91.8494 40.5011 91.646 40.3566 91.5043L37.3753 88.5828C37.0103 88.2251 37.2121 87.6041 37.7177 87.5293L41.8467 86.918C42.047 86.8884 42.22 86.7627 42.3101 86.5814L44.1673 82.8433Z" fill="#2D945C"/>
<path d="M61.4847 82.8433C61.7121 82.3856 62.3651 82.3856 62.5925 82.8433L64.4498 86.5814C64.5398 86.7627 64.7129 86.8884 64.9131 86.918L69.0422 87.5293C69.5478 87.6041 69.7495 88.2251 69.3845 88.5828L66.4033 91.5043C66.2587 91.646 66.1926 91.8494 66.2263 92.049L66.9209 96.1649C67.006 96.6688 66.4778 97.0526 66.0247 96.816L62.325 94.8835C62.1456 94.7898 61.9317 94.7898 61.7523 94.8835L58.0525 96.816C57.5995 97.0526 57.0712 96.6688 57.1563 96.1649L57.8509 92.049C57.8846 91.8494 57.8185 91.646 57.6739 91.5043L54.6927 88.5828C54.3277 88.2251 54.5295 87.6041 55.035 87.5293L59.1641 86.918C59.3643 86.8884 59.5374 86.7627 59.6274 86.5814L61.4847 82.8433Z" fill="#2D945C"/>
<path d="M78.8024 82.8433C79.0298 82.3856 79.6827 82.3856 79.9101 82.8433L81.7674 86.5814C81.8575 86.7627 82.0305 86.8884 82.2307 86.918L86.3598 87.5293C86.8654 87.6041 87.0672 88.2251 86.7021 88.5828L83.7209 91.5043C83.5764 91.646 83.5103 91.8494 83.5439 92.049L84.2386 96.1649C84.3236 96.6688 83.7954 97.0526 83.3424 96.816L79.6426 94.8835C79.4632 94.7898 79.2493 94.7898 79.0699 94.8835L75.3701 96.816C74.9171 97.0526 74.3889 96.6688 74.4739 96.1649L75.1685 92.049C75.2022 91.8494 75.1361 91.646 74.9916 91.5043L72.0104 88.5828C71.6453 88.2251 71.8471 87.6041 72.3527 87.5293L76.4818 86.918C76.682 86.8884 76.855 86.7627 76.9451 86.5814L78.8024 82.8433Z" fill="#2D945C"/>
<path d="M96.1197 82.8433C96.3472 82.3856 97.0001 82.3856 97.2275 82.8433L99.0848 86.5814C99.1748 86.7627 99.3479 86.8884 99.5481 86.918L103.677 87.5293C104.183 87.6041 104.385 88.2251 104.02 88.5828L101.038 91.5043C100.894 91.646 100.828 91.8494 100.861 92.049L101.556 96.1649C101.641 96.6688 101.113 97.0526 100.66 96.816L96.96 94.8835C96.7806 94.7898 96.5667 94.7898 96.3873 94.8835L92.6875 96.816C92.2345 97.0526 91.7062 96.6688 91.7913 96.1649L92.4859 92.049C92.5196 91.8494 92.4535 91.646 92.309 91.5043L89.3277 88.5828C88.9627 88.2251 89.1645 87.6041 89.6701 87.5293L93.7991 86.918C93.9993 86.8884 94.1724 86.7627 94.2624 86.5814L96.1197 82.8433Z" fill="#2D945C"/>
<path d="M113.437 82.8433C113.665 82.3856 114.317 82.3856 114.545 82.8433L116.402 86.5814C116.492 86.7627 116.665 86.8884 116.865 86.918L120.995 87.5293C121.5 87.6041 121.702 88.2251 121.337 88.5828L118.356 91.5043C118.211 91.646 118.145 91.8494 118.179 92.049L118.873 96.1649C118.958 96.6688 118.43 97.0526 117.977 96.816L114.277 94.8835C114.098 94.7898 113.884 94.7898 113.705 94.8835L110.005 96.816C109.552 97.0526 109.024 96.6688 109.109 96.1649L109.803 92.049C109.837 91.8494 109.771 91.646 109.626 91.5043L106.645 88.5828C106.28 88.2251 106.482 87.6041 106.987 87.5293L111.117 86.918C111.317 86.8884 111.49 86.7627 111.58 86.5814L113.437 82.8433Z" fill="#2D945C"/>
<path d="M72.6503 37.6362C72.6503 35.0736 72.4203 32.6096 71.9932 30.2441H37.957V44.2397H57.4063C56.5521 48.7406 53.9895 52.5516 50.1457 55.1142V64.2146H61.8743C68.7079 57.9067 72.6503 48.6421 72.6503 37.6362Z" fill="#4285F4"/>
<path d="M37.9574 72.9524C47.7149 72.9524 55.8954 69.7328 61.8747 64.2134L50.146 55.113C46.9264 57.2814 42.8197 58.5955 37.9574 58.5955C28.5613 58.5955 20.5779 52.2548 17.7197 43.7129H5.69531V53.0433C11.6418 64.8377 23.8304 72.9524 37.9574 72.9524Z" fill="#34A853"/>
<path d="M17.7175 43.6783C16.9947 41.51 16.5676 39.2103 16.5676 36.812C16.5676 34.4137 16.9947 32.1139 17.7175 29.9456V20.6152H5.69311C3.2291 25.4775 1.81641 30.9641 1.81641 36.812C1.81641 42.6599 3.2291 48.1464 5.69311 53.0087L15.0563 45.7153L17.7175 43.6783Z" fill="#FBBC05"/>
<path d="M37.9574 15.0656C43.2796 15.0656 48.0105 16.9054 51.7887 20.4535L62.1375 10.1047C55.8625 4.25681 47.7149 0.675781 37.9574 0.675781C23.8304 0.675781 11.6418 8.79058 5.69531 20.6178L17.7197 29.9482C20.5779 21.4063 28.5613 15.0656 37.9574 15.0656Z" fill="#EA4335"/>
</svg>
