<svg width="320" height="317" viewBox="0 0 320 317" fill="none" xmlns="http://www.w3.org/2000/svg">
<g opacity="0.04">
<path d="M53.3359 126.671C53.3359 115.073 43.9339 105.671 32.3359 105.671L21.0026 105.671C9.40462 105.671 0.0026142 115.073 0.00261288 126.671L0.00261164 137.506C0.00261032 149.104 9.40463 158.506 21.0026 158.506L32.336 158.506C43.9339 158.506 53.3359 149.104 53.3359 137.506L53.3359 126.671Z" fill="#E6E7E8"/>
<path d="M4.2678 132.089C4.2678 119.834 14.295 109.898 26.6671 109.898C39.0379 109.898 49.0664 119.834 49.0664 132.089C49.0664 144.343 39.0379 154.279 26.6671 154.279C14.295 154.279 4.2678 144.343 4.2678 132.089Z" fill="#185850"/>
<path d="M53.3359 179.507C53.3359 167.909 43.9339 158.507 32.3359 158.507L21.0026 158.507C9.40462 158.507 0.0026142 167.909 0.00261288 179.507L0.00261164 190.342C0.00261032 201.94 9.40463 211.342 21.0026 211.342L32.336 211.342C43.9339 211.342 53.3359 201.94 53.3359 190.342L53.3359 179.507Z" fill="#2D945C"/>
<path d="M4.27171 184.925C4.27171 172.669 14.2989 162.734 26.671 162.734C39.0418 162.734 49.0703 172.669 49.0703 184.925C49.0703 197.18 39.0418 207.115 26.671 207.115C14.2989 207.115 4.27171 197.18 4.27171 184.925Z" fill="#E6E7E8"/>
<path d="M53.332 232.341C53.332 220.743 43.93 211.341 32.332 211.341L20.9996 211.341C9.40165 211.341 -0.000376526 220.743 -0.000377846 232.341L-0.00037908 243.176C-0.0003804 254.774 9.40164 264.176 20.9996 264.176L32.332 264.176C43.93 264.176 53.332 254.774 53.332 243.176L53.332 232.341Z" fill="#2D945C"/>
<path d="M26.671 224.678C33.9644 224.678 39.8772 230.534 39.8772 237.76C39.8772 244.986 33.9644 250.842 26.671 250.842C19.3772 250.842 13.4653 244.986 13.4653 237.76C13.4653 230.534 19.3772 224.678 26.671 224.678ZM26.671 259.951C39.0427 259.951 49.0703 250.016 49.0703 237.76C49.0703 225.505 39.0427 215.57 26.671 215.57C14.3003 215.57 4.27171 225.505 4.27171 237.76C4.27171 250.015 14.3003 259.951 26.671 259.951Z" fill="#185850"/>
<path d="M26.6688 242.994C29.5865 242.994 31.9531 240.651 31.9531 237.76C31.9531 234.869 29.5865 232.526 26.6688 232.526C23.7498 232.526 21.385 234.869 21.385 237.76C21.385 240.651 23.7498 242.994 26.6688 242.994Z" fill="#185850"/>
<path d="M160 126.671C160 115.073 150.598 105.671 139 105.671L127.668 105.671C116.07 105.671 106.668 115.073 106.668 126.671L106.668 137.506C106.668 149.104 116.07 158.506 127.668 158.506L139 158.506C150.598 158.506 160 149.104 160 137.506L160 126.671Z" fill="#185850"/>
<path d="M110.931 132.088C110.931 119.833 120.959 109.898 133.33 109.898C145.701 109.898 155.73 119.833 155.73 132.088C155.73 144.343 145.701 154.279 133.33 154.279C120.959 154.279 110.931 144.343 110.931 132.088Z" fill="#2D945C"/>
<path d="M106.668 126.671C106.668 115.073 97.266 105.671 85.668 105.671L74.3351 105.671C62.7371 105.671 53.3351 115.073 53.3351 126.671L53.3351 137.506C53.3351 149.104 62.7372 158.506 74.3351 158.506L85.668 158.506C97.266 158.506 106.668 149.104 106.668 137.506L106.668 126.671Z" fill="#185850"/>
<path d="M57.6028 132.088C57.6028 119.833 67.6309 109.898 80.003 109.898C92.3733 109.898 102.402 119.833 102.402 132.088C102.402 144.343 92.3733 154.279 80.003 154.279C67.6309 154.279 57.6028 144.343 57.6028 132.088Z" fill="#2D945C"/>
<path d="M106.664 179.508C106.664 167.91 97.262 158.508 85.6641 158.508L74.3331 158.508C62.7351 158.508 53.3331 167.91 53.3331 179.508L53.3331 190.342C53.3331 201.94 62.7351 211.342 74.3331 211.342L85.6641 211.342C97.2621 211.342 106.664 201.94 106.664 190.342L106.664 179.508Z" fill="#E6E7E8"/>
<path d="M80.003 171.842C87.2964 171.842 93.2092 177.698 93.2092 184.925C93.2092 192.15 87.2964 198.006 80.003 198.006C72.7092 198.006 66.7969 192.15 66.7969 184.925C66.7969 177.698 72.7092 171.842 80.003 171.842ZM80.003 207.115C92.3738 207.115 102.402 197.18 102.402 184.925C102.402 172.67 92.3738 162.735 80.003 162.735C67.6323 162.735 57.6037 172.67 57.6037 184.925C57.6037 197.18 67.6323 207.115 80.003 207.115Z" fill="#185850"/>
<path d="M80.0013 190.158C82.9186 190.158 85.2852 187.815 85.2852 184.925C85.2852 182.033 82.9186 179.69 80.0013 179.69C77.0822 179.69 74.7175 182.033 74.7175 184.925C74.7175 187.815 77.0822 190.158 80.0013 190.158Z" fill="#185850"/>
<path d="M213.336 126.671C213.336 115.073 203.934 105.671 192.336 105.671L181.002 105.671C169.404 105.671 160.002 115.073 160.002 126.671L160.002 137.506C160.002 149.104 169.404 158.506 181.002 158.506L192.336 158.506C203.934 158.506 213.336 149.104 213.336 137.506L213.336 126.671Z" fill="#185850"/>
<path d="M186.666 119.005C193.96 119.005 199.873 124.862 199.873 132.089C199.873 139.314 193.96 145.171 186.666 145.171C179.372 145.171 173.46 139.314 173.46 132.089C173.46 124.862 179.372 119.005 186.666 119.005ZM186.666 154.279C199.038 154.279 209.066 144.344 209.066 132.089C209.066 119.834 199.038 109.898 186.666 109.898C174.295 109.898 164.266 119.834 164.266 132.089C164.266 144.344 174.295 154.279 186.666 154.279Z" fill="#2D945C"/>
<path d="M186.665 137.322C189.583 137.322 191.949 134.98 191.949 132.09C191.949 129.197 189.583 126.855 186.665 126.855C183.746 126.855 181.382 129.197 181.382 132.09C181.382 134.979 183.746 137.322 186.665 137.322Z" fill="#2D945C"/>
<path d="M53.332 285.178C53.332 273.58 43.93 264.178 32.332 264.178L21.0024 264.178C9.40444 264.178 0.00239672 273.58 0.00239541 285.178L0.00239419 296.002C0.00239288 307.6 9.40441 317.002 21.0024 317.002L32.332 317.002C43.93 317.002 53.332 307.6 53.332 296.002L53.332 285.178Z" fill="#185850"/>
<path d="M4.27055 290.594C4.27055 278.34 14.2977 268.405 26.6685 268.405C39.0378 268.405 49.0664 278.339 49.0664 290.594C49.0664 302.848 39.0378 312.783 26.6685 312.783C14.2977 312.783 4.27055 302.848 4.27055 290.594Z" fill="#2D945C"/>
<path d="M266.664 179.506C266.664 167.909 257.262 158.507 245.664 158.507L234.331 158.507C222.733 158.507 213.331 167.909 213.331 179.507L213.331 190.342C213.331 201.94 222.733 211.342 234.331 211.342L245.664 211.342C257.262 211.342 266.664 201.94 266.664 190.342L266.664 179.506Z" fill="#E6E7E8"/>
<path d="M217.602 184.925C217.602 172.669 227.63 162.734 240.002 162.734C252.373 162.734 262.402 172.669 262.402 184.925C262.402 197.18 252.373 207.115 240.002 207.115C227.631 207.115 217.602 197.18 217.602 184.925Z" fill="#185850"/>
<path d="M159.996 232.34C159.996 220.742 150.594 211.34 138.996 211.34L127.665 211.34C116.067 211.34 106.665 220.742 106.665 232.34L106.665 243.174C106.665 254.772 116.067 264.174 127.665 264.174L138.996 264.174C150.594 264.174 159.996 254.772 159.996 243.174L159.996 232.34Z" fill="#2D945C"/>
<path d="M110.932 237.757C110.932 225.502 120.96 215.567 133.331 215.567C145.702 215.567 155.73 225.502 155.73 237.757C155.73 250.012 145.702 259.947 133.331 259.947C120.959 259.947 110.932 250.012 110.932 237.757Z" fill="#185850"/>
<path d="M159.996 73.8356C159.996 62.2376 150.594 52.8355 138.996 52.8355L127.664 52.8355C116.066 52.8355 106.664 62.2376 106.664 73.8355L106.664 84.6699C106.664 96.2679 116.066 105.67 127.664 105.67L138.996 105.67C150.594 105.67 159.996 96.2679 159.996 84.6699L159.996 73.8356Z" fill="#E6E7E8"/>
<path d="M110.931 79.2512C110.931 66.996 120.96 57.0611 133.33 57.0611C145.701 57.0611 155.73 66.996 155.73 79.2512C155.73 91.5065 145.701 101.441 133.33 101.441C120.959 101.441 110.931 91.5065 110.931 79.2512Z" fill="#185850"/>
<path d="M213.336 73.8356C213.336 62.2376 203.934 52.8355 192.336 52.8355L181.004 52.8355C169.406 52.8355 160.004 62.2376 160.004 73.8355L160.004 84.6699C160.004 96.2679 169.406 105.67 181.004 105.67L192.336 105.67C203.934 105.67 213.336 96.2679 213.336 84.6699L213.336 73.8356Z" fill="#E6E7E8"/>
<path d="M164.267 79.2512C164.267 66.996 174.295 57.0611 186.666 57.0611C199.037 57.0611 209.066 66.996 209.066 79.2512C209.066 91.5065 199.037 101.441 186.666 101.441C174.295 101.441 164.267 91.5065 164.267 79.2512Z" fill="#2D945C"/>
<path d="M106.664 21.0006C106.664 9.40259 97.2621 0.000586835 85.6641 0.00058606L20.9993 0.000581738C9.40133 0.000580963 -0.000675689 9.4026 -0.000677009 21.0006L-0.000684255 84.668C-0.000685575 96.266 9.40134 105.668 20.9993 105.668L85.6641 105.668C97.2621 105.668 106.664 96.2659 106.664 84.668L106.664 21.0006Z" fill="#185850"/>
<path d="M53.3303 26.668C67.917 26.668 79.7417 38.3827 79.7417 52.8332C79.7417 67.2841 67.9174 78.9993 53.3303 78.9993C38.7423 78.9993 26.9175 67.2841 26.9175 52.8332C26.9175 38.3823 38.7423 26.668 53.3303 26.668ZM53.3303 97.2148C78.0732 97.2148 98.1289 77.3436 98.1289 52.8332C98.1289 28.3241 78.0732 8.45426 53.3303 8.45426C28.5888 8.45426 8.53031 28.3241 8.53031 52.8332C8.53031 77.3436 28.5888 97.2148 53.3303 97.2148Z" fill="#E6E7E8"/>
<path d="M53.3342 63.3008C59.1687 63.3008 63.9023 58.614 63.9023 52.8327C63.9023 47.0499 59.1682 42.3655 53.3342 42.3655C47.4969 42.3655 42.767 47.0499 42.767 52.8327C42.767 58.614 47.4969 63.3008 53.3342 63.3008Z" fill="#E6E7E8"/>
<path d="M159.996 20.9996C159.996 9.40164 150.594 -0.000389728 138.996 -0.000390503L127.664 -0.00039126C116.066 -0.000392035 106.664 9.40163 106.664 20.9996L106.664 31.834C106.664 43.432 116.066 52.834 127.664 52.834L138.996 52.834C150.594 52.834 159.996 43.432 159.996 31.834L159.996 20.9996Z" fill="#E6E7E8"/>
<path d="M110.931 26.4173C110.931 14.162 120.959 4.22576 133.33 4.22576C145.701 4.22576 155.73 14.162 155.73 26.4173C155.73 38.6711 145.701 48.6074 133.33 48.6074C120.959 48.6074 110.931 38.6711 110.931 26.4173Z" fill="#2D945C"/>
<path d="M213.336 20.9996C213.336 9.40164 203.934 -0.000389728 192.336 -0.000390503L181.003 -0.00039126C169.405 -0.000392035 160.003 9.40163 160.003 20.9996L160.003 31.834C160.003 43.432 169.405 52.834 181.003 52.834L192.336 52.834C203.934 52.834 213.336 43.432 213.336 31.834L213.336 20.9996Z" fill="#2D945C"/>
<path d="M186.666 13.3331C193.96 13.3331 199.873 19.1911 199.873 26.4173C199.873 33.6425 193.96 39.5001 186.666 39.5001C179.372 39.5001 173.46 33.6425 173.46 26.4173C173.46 19.1916 179.372 13.3331 186.666 13.3331ZM186.666 48.6074C199.038 48.6074 209.066 38.6711 209.066 26.4173C209.066 14.162 199.038 4.22576 186.666 4.22576C174.296 4.22576 164.267 14.162 164.267 26.4173C164.267 38.6711 174.296 48.6074 186.666 48.6074Z" fill="#E6E7E8"/>
<path d="M186.664 31.6504C189.582 31.6504 191.949 29.3086 191.949 26.4173C191.949 23.5254 189.582 21.1828 186.664 21.1828C183.745 21.1828 181.382 23.5254 181.382 26.4173C181.382 29.3082 183.746 31.6504 186.664 31.6504Z" fill="#E6E7E8"/>
<path d="M266.664 20.9996C266.664 9.40164 257.262 -0.000389728 245.664 -0.000390503L234.332 -0.00039126C222.734 -0.000392035 213.332 9.40163 213.332 20.9996L213.332 31.834C213.332 43.432 222.734 52.834 234.332 52.834L245.664 52.834C257.262 52.834 266.664 43.432 266.664 31.834L266.664 20.9996Z" fill="#2D945C"/>
<path d="M217.603 26.4173C217.603 14.1621 227.631 4.22714 240.003 4.22714C252.373 4.22714 262.402 14.1621 262.402 26.4173C262.402 38.6725 252.373 48.6074 240.003 48.6074C227.632 48.6074 217.603 38.6725 217.603 26.4173Z" fill="#185850"/>
<path d="M320 21.0002C320 9.40218 310.598 0.000178662 299 0.000177887L287.668 0.00017713C276.07 0.000176355 266.668 9.4022 266.668 21.0002L266.668 31.836C266.668 43.4339 276.07 52.8359 287.668 52.8359L299 52.8359C310.598 52.8359 320 43.4339 320 31.8359L320 21.0002Z" fill="#E6E7E8"/>
<path d="M270.935 26.4173C270.935 14.162 280.963 4.22712 293.334 4.22712C305.705 4.22712 315.734 14.162 315.734 26.4173C315.734 38.6725 305.705 48.6074 293.334 48.6074C280.963 48.6074 270.935 38.6725 270.935 26.4173Z" fill="#2D945C"/>
</g>
</svg>
