<svg width="320" height="317" viewBox="0 0 320 317" fill="none" xmlns="http://www.w3.org/2000/svg">
<g opacity="0.04">
<path d="M265.914 126.374C265.914 114.776 275.316 105.374 286.914 105.374L298.097 105.374C309.695 105.374 319.097 114.776 319.097 126.374L319.097 137.061C319.097 148.659 309.695 158.061 298.097 158.061L286.914 158.061C275.316 158.061 265.914 148.659 265.914 137.061L265.914 126.374Z" fill="#E6E7E8"/>
<path d="M314.844 131.718C314.844 119.497 304.845 109.589 292.508 109.589C280.172 109.589 270.172 119.497 270.172 131.718C270.172 143.937 280.172 153.846 292.508 153.846C304.845 153.846 314.844 143.937 314.844 131.718Z" fill="#185850"/>
<path d="M265.914 179.06C265.914 167.462 275.316 158.06 286.914 158.06L298.097 158.06C309.695 158.06 319.097 167.462 319.097 179.06L319.097 189.746C319.097 201.344 309.695 210.746 298.097 210.746L286.914 210.746C275.316 210.746 265.914 201.344 265.914 189.746L265.914 179.06Z" fill="#2D945C"/>
<path d="M314.84 184.403C314.84 172.182 304.842 162.275 292.504 162.275C280.168 162.275 270.168 172.182 270.168 184.403C270.168 196.624 280.168 206.531 292.504 206.531C304.842 206.531 314.84 196.624 314.84 184.403Z" fill="#E6E7E8"/>
<path d="M265.918 231.748C265.918 220.15 275.32 210.748 286.918 210.748L298.1 210.748C309.698 210.748 319.1 220.15 319.1 231.748L319.1 242.434C319.1 254.032 309.698 263.434 298.1 263.434L286.918 263.434C275.32 263.434 265.918 254.032 265.918 242.434L265.918 231.748Z" fill="#2D945C"/>
<path d="M292.504 224.045C285.231 224.045 279.335 229.884 279.335 237.09C279.335 244.295 285.231 250.135 292.504 250.135C299.777 250.135 305.673 244.295 305.673 237.09C305.673 229.884 299.777 224.045 292.504 224.045ZM292.504 259.219C280.167 259.219 270.168 249.311 270.168 237.09C270.168 224.87 280.167 214.962 292.504 214.962C304.84 214.962 314.84 224.87 314.84 237.09C314.84 249.311 304.84 259.219 292.504 259.219Z" fill="#185850"/>
<path d="M292.504 242.311C289.594 242.311 287.234 239.974 287.234 237.091C287.234 234.208 289.594 231.872 292.504 231.872C295.415 231.872 297.773 234.208 297.773 237.091C297.773 239.974 295.415 242.311 292.504 242.311Z" fill="#185850"/>
<path d="M159.551 126.374C159.551 114.776 168.953 105.374 180.551 105.374L191.733 105.374C203.331 105.374 212.733 114.776 212.733 126.374L212.733 137.061C212.733 148.659 203.331 158.061 191.733 158.061L180.551 158.061C168.953 158.061 159.551 148.659 159.551 137.061L159.551 126.374Z" fill="#185850"/>
<path d="M208.478 131.717C208.478 119.496 198.479 109.589 186.142 109.589C173.806 109.589 163.805 119.496 163.805 131.717C163.805 143.937 173.805 153.846 186.142 153.846C198.479 153.846 208.478 143.937 208.478 131.717Z" fill="#2D945C"/>
<path d="M212.73 126.374C212.73 114.776 222.132 105.374 233.73 105.374L244.913 105.374C256.511 105.374 265.913 114.776 265.913 126.374L265.913 137.061C265.913 148.659 256.511 158.061 244.913 158.061L233.73 158.061C222.132 158.061 212.73 148.659 212.73 137.061L212.73 126.374Z" fill="#185850"/>
<path d="M261.658 131.717C261.658 119.496 251.658 109.589 239.321 109.589C226.985 109.589 216.984 119.496 216.984 131.717C216.984 143.937 226.985 153.846 239.321 153.846C251.658 153.846 261.658 143.937 261.658 131.717Z" fill="#2D945C"/>
<path d="M212.734 179.061C212.734 167.463 222.136 158.061 233.734 158.061L244.915 158.061C256.513 158.061 265.915 167.463 265.915 179.061L265.915 189.746C265.915 201.344 256.513 210.746 244.915 210.746L233.734 210.746C222.136 210.746 212.734 201.344 212.734 189.746L212.734 179.061Z" fill="#E6E7E8"/>
<path d="M239.325 171.358C232.052 171.358 226.156 177.197 226.156 184.404C226.156 191.608 232.052 197.448 239.325 197.448C246.598 197.448 252.494 191.608 252.494 184.404C252.494 177.197 246.598 171.358 239.325 171.358ZM239.325 206.531C226.989 206.531 216.988 196.624 216.988 184.404C216.988 172.183 226.989 162.276 239.325 162.276C251.66 162.276 261.661 172.183 261.661 184.404C261.661 196.624 251.66 206.531 239.325 206.531Z" fill="#185850"/>
<path d="M239.324 189.623C236.415 189.623 234.055 187.287 234.055 184.404C234.055 181.52 236.415 179.184 239.324 179.184C242.235 179.184 244.593 181.52 244.593 184.404C244.593 187.287 242.235 189.623 239.324 189.623Z" fill="#185850"/>
<path d="M106.363 126.374C106.363 114.776 115.765 105.374 127.363 105.374L138.547 105.374C150.145 105.374 159.547 114.776 159.547 126.374L159.547 137.061C159.547 148.659 150.145 158.061 138.547 158.061L127.363 158.061C115.765 158.061 106.363 148.659 106.363 137.061L106.363 126.374Z" fill="#185850"/>
<path d="M132.958 118.671C125.685 118.671 119.789 124.511 119.789 131.718C119.789 138.923 125.685 144.763 132.958 144.763C140.232 144.763 146.128 138.922 146.128 131.718C146.128 124.511 140.232 118.671 132.958 118.671ZM132.958 153.846C120.621 153.846 110.621 143.939 110.621 131.718C110.621 119.497 120.621 109.589 132.958 109.589C145.294 109.589 155.295 119.497 155.295 131.718C155.295 143.939 145.294 153.846 132.958 153.846Z" fill="#2D945C"/>
<path d="M132.961 136.936C130.051 136.936 127.691 134.599 127.691 131.718C127.691 128.833 130.051 126.498 132.961 126.498C135.872 126.498 138.229 128.833 138.229 131.718C138.229 134.599 135.872 136.936 132.961 136.936Z" fill="#2D945C"/>
<path d="M265.918 284.434C265.918 272.836 275.32 263.434 286.918 263.434L298.098 263.434C309.696 263.434 319.098 272.836 319.098 284.434L319.098 295.109C319.098 306.707 309.696 316.109 298.098 316.109L286.918 316.109C275.32 316.109 265.918 306.707 265.918 295.109L265.918 284.434Z" fill="#185850"/>
<path d="M314.842 289.775C314.842 277.556 304.843 267.649 292.507 267.649C280.172 267.649 270.172 277.555 270.172 289.775C270.172 301.995 280.172 311.902 292.507 311.902C304.843 311.902 314.842 301.995 314.842 289.775Z" fill="#2D945C"/>
<path d="M53.1836 179.059C53.1836 167.461 62.5856 158.059 74.1836 158.059L85.3668 158.059C96.9648 158.059 106.367 167.462 106.367 179.059L106.367 189.746C106.367 201.344 96.9648 210.746 85.3668 210.746L74.1836 210.746C62.5856 210.746 53.1836 201.344 53.1836 189.746L53.1836 179.059Z" fill="#E6E7E8"/>
<path d="M102.112 184.405C102.112 172.184 92.1115 162.277 79.7747 162.277C67.4388 162.277 57.4375 172.184 57.4375 184.405C57.4375 196.626 67.4383 206.533 79.7747 206.533C92.1111 206.533 102.112 196.626 102.112 184.405Z" fill="#185850"/>
<path d="M159.551 231.745C159.551 220.147 168.953 210.745 180.551 210.745L191.732 210.745C203.33 210.745 212.732 220.147 212.732 231.745L212.732 242.43C212.732 254.028 203.33 263.43 191.732 263.43L180.551 263.43C168.953 263.43 159.551 254.028 159.551 242.43L159.551 231.745Z" fill="#2D945C"/>
<path d="M208.477 237.087C208.477 224.866 198.478 214.959 186.141 214.959C173.805 214.959 163.805 224.866 163.805 237.087C163.805 249.307 173.805 259.215 186.141 259.215C198.478 259.215 208.477 249.307 208.477 237.087Z" fill="#185850"/>
<path d="M159.551 73.6854C159.551 62.0874 168.953 52.6854 180.551 52.6854L191.733 52.6854C203.331 52.6854 212.733 62.0874 212.733 73.6854L212.733 84.3711C212.733 95.9691 203.331 105.371 191.733 105.371L180.551 105.371C168.953 105.371 159.551 95.9691 159.551 84.3711L159.551 73.6854Z" fill="#E6E7E8"/>
<path d="M208.478 79.0285C208.478 66.8078 198.478 56.9008 186.142 56.9008C173.806 56.9008 163.805 66.8078 163.805 79.0285C163.805 91.2493 173.805 101.156 186.142 101.156C198.478 101.156 208.478 91.2493 208.478 79.0285Z" fill="#185850"/>
<path d="M106.363 73.6854C106.363 62.0874 115.765 52.6854 127.363 52.6854L138.546 52.6854C150.144 52.6854 159.546 62.0874 159.546 73.6854L159.546 84.3711C159.546 95.9691 150.144 105.371 138.546 105.371L127.363 105.371C115.765 105.371 106.363 95.9691 106.363 84.3711L106.363 73.6854Z" fill="#E6E7E8"/>
<path d="M155.295 79.0285C155.295 66.8078 145.294 56.9008 132.958 56.9008C120.622 56.9008 110.621 66.8078 110.621 79.0285C110.621 91.2493 120.622 101.156 132.958 101.156C145.294 101.156 155.295 91.2493 155.295 79.0285Z" fill="#2D945C"/>
<path d="M212.734 21.0011C212.734 9.40309 222.136 0.00109038 233.734 0.0010896L298.099 0.0010853C309.697 0.00108452 319.099 9.40311 319.099 21.0011L319.099 84.3711C319.099 95.9691 309.697 105.371 298.099 105.371L233.734 105.371C222.136 105.371 212.734 95.9691 212.734 84.3711L212.734 21.0011Z" fill="#185850"/>
<path d="M265.919 26.5931C251.373 26.5931 239.582 38.2749 239.582 52.6846C239.582 67.0949 251.373 78.7771 265.919 78.7771C280.466 78.7771 292.257 67.0949 292.257 52.6846C292.257 38.2744 280.466 26.5931 265.919 26.5931ZM265.919 96.9414C241.245 96.9414 221.246 77.1261 221.246 52.6846C221.246 28.2445 241.245 8.43062 265.919 8.43062C290.59 8.43061 310.593 28.2445 310.593 52.6846C310.593 77.1261 290.59 96.9414 265.919 96.9414Z" fill="#E6E7E8"/>
<path d="M265.913 63.123C260.095 63.123 255.375 58.4495 255.375 52.6844C255.375 46.9179 260.096 42.2467 265.913 42.2467C271.734 42.2467 276.451 46.9179 276.451 52.6844C276.451 58.4495 271.734 63.123 265.913 63.123Z" fill="#E6E7E8"/>
<path d="M159.551 20.9999C159.551 9.40189 168.953 -0.000137957 180.551 -0.000138733L191.733 -0.00013948C203.331 -0.000140255 212.733 9.40187 212.733 20.9999L212.733 31.6855C212.733 43.2835 203.331 52.6855 191.733 52.6855L180.551 52.6855C168.953 52.6855 159.551 43.2835 159.551 31.6855L159.551 20.9999Z" fill="#E6E7E8"/>
<path d="M208.478 26.343C208.478 14.1223 198.479 4.21394 186.142 4.21395C173.806 4.21395 163.805 14.1223 163.805 26.343C163.805 38.5624 173.805 48.4707 186.142 48.4707C198.479 48.4707 208.478 38.5624 208.478 26.343Z" fill="#2D945C"/>
<path d="M106.367 20.9999C106.367 9.40189 115.769 -0.000137957 127.367 -0.000138733L138.55 -0.00013948C150.148 -0.000140255 159.55 9.40187 159.55 20.9999L159.55 31.6855C159.55 43.2835 150.148 52.6855 138.55 52.6855L127.367 52.6855C115.769 52.6855 106.367 43.2835 106.367 31.6855L106.367 20.9999Z" fill="#2D945C"/>
<path d="M132.958 13.2956C125.685 13.2956 119.789 19.1372 119.789 26.343C119.789 33.5479 125.685 39.389 132.958 39.389C140.232 39.389 146.127 33.5479 146.127 26.343C146.127 19.1376 140.232 13.2956 132.958 13.2956ZM132.958 48.4707C120.621 48.4707 110.621 38.5624 110.621 26.343C110.621 14.1223 120.621 4.21395 132.958 4.21395C145.294 4.21394 155.295 14.1223 155.295 26.343C155.295 38.5624 145.294 48.4707 132.958 48.4707Z" fill="#E6E7E8"/>
<path d="M132.961 31.5605C130.052 31.5605 127.691 29.2254 127.691 26.3421C127.691 23.4584 130.052 21.1224 132.961 21.1224C135.872 21.1224 138.229 23.4584 138.229 26.3421C138.229 29.2249 135.872 31.5605 132.961 31.5605Z" fill="#E6E7E8"/>
<path d="M53.1836 20.9999C53.1836 9.40189 62.5856 -0.000137957 74.1836 -0.000138733L85.3654 -0.00013948C96.9634 -0.000140255 106.365 9.40187 106.365 20.9999L106.365 31.6855C106.365 43.2835 96.9634 52.6855 85.3654 52.6855L74.1836 52.6855C62.5856 52.6855 53.1836 43.2835 53.1836 31.6855L53.1836 20.9999Z" fill="#2D945C"/>
<path d="M102.111 26.3411C102.111 14.1203 92.1106 4.21337 79.7738 4.21337C67.4383 4.21337 57.4375 14.1203 57.4375 26.3411C57.4375 38.5618 67.4383 48.4687 79.7738 48.4687C92.1102 48.4687 102.111 38.5618 102.111 26.3411Z" fill="#185850"/>
<path d="M-3.60652e-06 20.9985C-4.92657e-06 9.40052 9.40202 -0.00151888 21 -0.00151965L32.1823 -0.0015204C43.7803 -0.00152118 53.1823 9.4005 53.1823 20.9985L53.1823 31.6855C53.1823 43.2835 43.7803 52.6855 32.1823 52.6855L21 52.6855C9.40204 52.6855 -1.07011e-06 43.2835 -2.39016e-06 31.6855L-3.60652e-06 20.9985Z" fill="#E6E7E8"/>
<path d="M48.9235 26.343C48.9235 14.1222 38.9236 4.2153 26.5872 4.2153C14.2513 4.2153 4.25 14.1222 4.25 26.343C4.25 38.5637 14.2508 48.4707 26.5872 48.4707C38.9236 48.4707 48.9235 38.5637 48.9235 26.343Z" fill="#2D945C"/>
</g>
</svg>
