<svg width="14" height="13" viewBox="0 0 14 13" fill="none" xmlns="http://www.w3.org/2000/svg">
<path d="M3.47131 2.24886C3.5968 2.31948 4.44147 2.72755 4.84954 2.92405C4.85114 3.08244 4.85464 3.35633 4.86003 3.36099C4.905 3.7532 4.98221 4.18893 5.00457 4.31198C4.96747 4.33255 4.77677 4.45725 4.77677 4.84512L4.7773 4.85154C4.77702 4.86171 4.77677 4.87197 4.77677 4.8825C4.85885 5.96058 5.2876 5.49596 5.37602 5.96818C5.52308 6.75333 6.21828 7.32139 6.65101 7.51749C6.90112 7.63079 7.15851 7.68857 7.42902 7.69412C7.69953 7.6886 7.95692 7.63079 8.20703 7.51749C8.63976 7.32139 9.33496 6.7533 9.48203 5.96818C9.57044 5.49593 9.99919 5.96058 10.0813 4.8825C10.0813 4.87194 10.081 4.86171 10.0807 4.85154L10.0813 4.84512C10.0813 4.45722 9.89055 4.33255 9.85347 4.31198C9.87586 4.18893 9.95307 3.75323 9.99802 3.36099C10.0034 3.35633 10.0069 3.08246 10.0085 2.92405C10.3008 2.78338 10.5928 2.64196 10.8844 2.49981V3.54196C10.8022 3.59049 10.7444 3.67616 10.7444 3.77831C10.7444 3.86874 10.7903 3.94535 10.8571 3.99599C10.8571 3.99599 10.7382 4.66448 10.6998 4.86109C10.6613 5.05765 11.378 5.01822 11.3457 4.86109C11.3135 4.70391 11.1884 3.99599 11.1884 3.99599C11.2553 3.94535 11.3012 3.86874 11.3012 3.77831C11.3012 3.67613 11.2436 3.59052 11.1615 3.54196V2.36364C11.2718 2.30891 11.3539 2.2673 11.3867 2.24886C11.4755 2.19889 11.5233 2.13497 11.5132 2.06856C11.5254 1.99931 11.4753 1.92488 11.3409 1.85908C10.3819 1.38964 7.93691 0.193136 7.69516 0.0778203C7.58968 0.0275187 7.50286 0.00529638 7.42902 0C7.35518 0.00529638 7.26836 0.0275187 7.16288 0.0778203C6.92113 0.193136 4.47616 1.38967 3.51716 1.85908C3.38273 1.92488 3.33268 1.99931 3.34484 2.06856C3.3347 2.13497 3.38253 2.19889 3.47131 2.24886ZM10.684 8.99221C10.2328 8.82954 9.44744 8.36054 9.31288 8.28818C9.27691 8.26718 9.23602 8.25611 9.19437 8.2561C9.14958 8.2561 9.10572 8.26885 9.06791 8.29285C9.0301 8.31686 8.99991 8.35114 8.98086 8.39167C8.60885 9.01443 7.91917 10.8254 7.43796 10.859C7.43502 10.8587 7.43199 10.8582 7.42902 10.8578C7.42605 10.8582 7.42302 10.8587 7.42008 10.859C6.93887 10.8254 6.24919 9.01443 5.87718 8.39167C5.85813 8.35114 5.82794 8.31687 5.79013 8.29286C5.75232 8.26885 5.70846 8.2561 5.66367 8.2561C5.62202 8.25611 5.58111 8.26718 5.54514 8.28818C5.4106 8.36054 4.62525 8.82954 4.17407 8.99221C2.65965 9.53827 1.97852 10.0952 1.97852 10.4749V13H12.8795V10.4749C12.8795 10.0952 12.1984 9.53827 10.684 8.99221Z" fill="#2D945C"/>
</svg>
