<svg width="16" height="13" viewBox="0 0 16 13" fill="none" xmlns="http://www.w3.org/2000/svg">
<path d="M15.1543 2.87043C15.3945 3.18208 15.4485 3.53473 15.3164 3.92839L12.8394 11.3587C12.7253 11.7086 12.4956 12.0025 12.1504 12.2403C11.8051 12.4782 11.4373 12.5971 11.047 12.5971H2.7333C2.27093 12.5971 1.82507 12.4508 1.39572 12.1583C0.96638 11.8658 0.66764 11.5063 0.499505 11.0799C0.355389 10.7135 0.349384 10.3664 0.481491 10.0383C0.481491 10.0164 0.490498 9.94262 0.508512 9.81687C0.526527 9.69112 0.538536 9.58997 0.544541 9.51342C0.550546 9.46968 0.541539 9.41091 0.517519 9.3371C0.4935 9.26329 0.484493 9.20998 0.490498 9.17717C0.502507 9.11703 0.526527 9.05962 0.562556 9.00495C0.598585 8.95027 0.648124 8.88603 0.711175 8.81222C0.774226 8.73841 0.823765 8.67416 0.859794 8.61949C0.997905 8.41173 1.13301 8.16159 1.26512 7.86908C1.39723 7.57657 1.4873 7.32643 1.53534 7.11867C1.55335 7.06399 1.55485 6.98198 1.53984 6.87263C1.52483 6.76328 1.52333 6.68673 1.53534 6.64299C1.55335 6.58285 1.60439 6.50631 1.68846 6.41336C1.77253 6.32041 1.82357 6.25754 1.84158 6.22473C1.96768 6.0279 2.09379 5.7764 2.21989 5.47022C2.34599 5.16404 2.42105 4.918 2.44507 4.73211C2.45107 4.6829 2.44357 4.59542 2.42255 4.46967C2.40153 4.34392 2.40303 4.26737 2.42705 4.24003C2.45107 4.16896 2.51713 4.08558 2.62521 3.9899C2.7333 3.89422 2.79935 3.83271 2.82337 3.80537C2.93746 3.66321 3.06507 3.43221 3.20618 3.11237C3.34729 2.79252 3.42986 2.52871 3.45388 2.32095C3.45988 2.27721 3.45088 2.2075 3.42686 2.11182C3.40284 2.01614 3.39683 1.94369 3.40884 1.89448C3.42085 1.85074 3.44787 1.80154 3.48991 1.74686C3.53194 1.69219 3.58598 1.62931 3.65204 1.55823C3.71809 1.48716 3.76913 1.42975 3.80516 1.38601C3.8532 1.3204 3.90274 1.23702 3.95378 1.13587C4.00482 1.03472 4.04986 0.939041 4.08889 0.848827C4.12792 0.758614 4.17596 0.660199 4.233 0.553583C4.29005 0.446967 4.3486 0.359487 4.40864 0.291144C4.46869 0.2228 4.54826 0.158557 4.64734 0.0984147C4.74642 0.0382724 4.8545 0.00683436 4.9716 0.00410061C5.08869 0.00136687 5.2313 0.0164025 5.39944 0.0492074L5.39043 0.073811C5.61862 0.0246037 5.77174 0 5.8498 0H12.7043C13.1487 0 13.4909 0.15309 13.7311 0.459269C13.9713 0.765448 14.0254 1.12083 13.8933 1.52543L11.4253 8.95574C11.2091 9.60637 10.9944 10.026 10.7813 10.2146C10.5681 10.4033 10.1823 10.4976 9.62383 10.4976H1.79655C1.63442 10.4976 1.52032 10.5386 1.45427 10.6206C1.38822 10.7081 1.38522 10.8256 1.44526 10.9732C1.58938 11.356 2.02173 11.5473 2.74231 11.5473H11.056C11.2301 11.5473 11.3983 11.505 11.5604 11.4202C11.7225 11.3355 11.8276 11.222 11.8756 11.0799L14.5778 2.98525C14.6198 2.86496 14.6349 2.70914 14.6228 2.51778C14.851 2.59979 15.0282 2.71734 15.1543 2.87043ZM5.57058 2.88683C5.54656 2.95791 5.55256 3.01942 5.58859 3.07136C5.62462 3.1233 5.68467 3.14927 5.76874 3.14927H11.2451C11.3232 3.14927 11.3998 3.1233 11.4748 3.07136C11.5499 3.01942 11.5994 2.95791 11.6234 2.88683L11.8126 2.36195C11.8366 2.29088 11.8306 2.22937 11.7946 2.17743C11.7585 2.12548 11.6985 2.09951 11.6144 2.09951H6.13803C6.05997 2.09951 5.98341 2.12548 5.90835 2.17743C5.83329 2.22937 5.78375 2.29088 5.75973 2.36195L5.57058 2.88683ZM4.82298 4.98635C4.79896 5.05742 4.80496 5.11893 4.84099 5.17087C4.87702 5.22282 4.93707 5.24879 5.02114 5.24879H10.4975C10.5756 5.24879 10.6522 5.22282 10.7272 5.17087C10.8023 5.11893 10.8518 5.05742 10.8758 4.98635L11.065 4.46147C11.089 4.39039 11.083 4.32888 11.047 4.27694C11.0109 4.225 10.9509 4.19903 10.8668 4.19903H5.39043C5.31237 4.19903 5.23581 4.225 5.16075 4.27694C5.08569 4.32888 5.03615 4.39039 5.01213 4.46147L4.82298 4.98635Z" fill="#2D945C"/>
</svg>
