<svg width="15" height="16" viewBox="0 0 15 16" fill="none" xmlns="http://www.w3.org/2000/svg">
<path d="M6.65719 0.0411501C6.3618 0.125103 6.0633 0.302338 5.83009 0.538651C5.57512 0.790511 5.42587 1.0517 5.33259 1.40306L5.2673 1.64559L4.96258 1.75131C4.79467 1.81039 4.48062 1.94098 4.26918 2.0467C3.71882 2.311 3.39856 2.52555 2.70205 3.10078C2.61499 3.1723 2.61188 3.1723 2.46574 3.11944C2.24187 3.0386 1.6573 3.01994 1.39922 3.08835C0.743143 3.25936 0.214547 3.79107 0.0466408 4.45647C-0.0217657 4.72077 -0.0124375 5.12499 0.0652971 5.40484C0.155469 5.73754 0.295391 5.98007 0.537923 6.22571L0.746252 6.44026L0.687174 6.75742C0.597002 7.2145 0.559689 7.86436 0.590783 8.34942C0.618767 8.77852 0.628095 8.84381 0.702721 9.23249L0.749361 9.4688L0.531705 9.68646C0.180344 10.0471 0 10.4887 0 11.0017C0 11.3251 0.0559689 11.5614 0.208329 11.8724C0.419767 12.3077 0.898612 12.6932 1.38679 12.8176C1.62932 12.8798 2.10816 12.8829 2.33204 12.8207C2.42532 12.7958 2.53104 12.7679 2.56524 12.7585C2.61188 12.7461 2.70205 12.8083 2.90727 12.9793C3.49806 13.4768 4.27229 13.9214 4.95947 14.1546L5.2673 14.2572L5.33259 14.5029C5.42587 14.8574 5.57512 15.1185 5.83009 15.3704C6.20011 15.7435 6.61677 15.9146 7.15158 15.9146C7.6864 15.9146 8.10305 15.7435 8.47307 15.3704C8.72804 15.1185 8.87729 14.8574 8.97057 14.506L9.03587 14.2635L9.3437 14.1577C9.51471 14.0987 9.82876 13.965 10.0433 13.8592C10.5968 13.5887 10.9077 13.3804 11.6011 12.8083C11.6882 12.7368 11.6913 12.7368 11.8374 12.7896C12.0613 12.8705 12.6459 12.8891 12.9039 12.8207C13.56 12.6497 14.0886 12.118 14.2565 11.4526C14.3249 11.1883 14.3156 10.7841 14.2379 10.5042C14.1477 10.1715 14.0078 9.92899 13.7652 9.68335L13.5569 9.4688L13.6191 9.1392C13.7031 8.69145 13.7404 8.05403 13.7124 7.56275C13.6844 7.14298 13.6782 7.07457 13.6004 6.67657L13.5538 6.44026L13.7652 6.22571C14.1228 5.86191 14.3032 5.41727 14.3032 4.90733C14.3032 4.58396 14.2472 4.34454 14.0948 4.03671C13.8834 3.60139 13.4046 3.21583 12.9164 3.09145C12.6738 3.02927 12.195 3.02616 11.9711 3.08835C11.8778 3.11322 11.7721 3.1412 11.7379 3.15053C11.6913 3.16297 11.6011 3.10078 11.3959 2.92977C10.8238 2.44159 10.0402 1.99384 9.3437 1.75131L9.03587 1.64559L8.97057 1.40306C8.80577 0.787402 8.3829 0.317884 7.78901 0.0877905C7.54647 -0.00549126 6.91838 -0.0303659 6.65719 0.0411501ZM7.47496 1.00817C7.64597 1.06725 7.8854 1.28801 7.97557 1.47147C8.02221 1.56475 8.03776 1.66114 8.03776 1.86014C8.03776 2.16797 7.9849 2.30167 7.78901 2.49756C7.59311 2.69345 7.45941 2.74631 7.15158 2.74631C6.84375 2.74631 6.71005 2.69345 6.51416 2.49756C6.34314 2.32966 6.27163 2.16486 6.25608 1.91611C6.2281 1.4839 6.43953 1.16364 6.85619 0.998839C6.993 0.94598 7.30394 0.952199 7.47496 1.00817ZM5.84564 3.19717C6.21877 3.5703 6.60744 3.72577 7.15158 3.72577C7.69572 3.72577 8.0844 3.5703 8.45752 3.19717C8.59745 3.06036 8.73115 2.88935 8.78401 2.78674L8.87418 2.61261L9.04831 2.6748C9.58312 2.86758 10.2983 3.27802 10.718 3.62938L10.9139 3.79107L10.8362 3.90611C10.4537 4.48446 10.46 5.32399 10.8486 5.92099C11.1907 6.44959 11.6851 6.73565 12.3287 6.76985L12.6396 6.78851L12.6925 7.09945C12.7578 7.46014 12.7702 8.31522 12.7174 8.65414C12.7018 8.7723 12.677 8.93088 12.6676 9.00239L12.6459 9.1361H12.394C11.4954 9.1361 10.7554 9.76108 10.5812 10.6628C10.4973 11.1012 10.5999 11.6485 10.8362 12.0029L10.9139 12.118L10.687 12.3014C10.2423 12.6684 9.53959 13.0664 9.0452 13.2343L8.87418 13.2965L8.78401 13.1192C8.58501 12.7305 8.09062 12.3512 7.63043 12.2299C7.39722 12.1709 6.90594 12.1709 6.67274 12.2299C6.21255 12.3512 5.71816 12.7305 5.51916 13.1223L5.42898 13.2965L5.25486 13.2343C4.72004 13.0415 4.00489 12.631 3.58512 12.2797L3.38923 12.118L3.46696 12.0029C3.59756 11.8071 3.69706 11.5179 3.73437 11.2287C3.8432 10.3861 3.35813 9.5683 2.56524 9.25736C2.36624 9.17963 2.25119 9.15475 1.99001 9.1392L1.66352 9.12055L1.61066 8.80961C1.54536 8.44892 1.53293 7.59384 1.58579 7.25492C1.60133 7.13365 1.62621 6.97818 1.63554 6.90978L1.65419 6.77918L1.9869 6.76675C2.26052 6.75431 2.35691 6.73565 2.56524 6.65481C3.36124 6.34076 3.8432 5.52299 3.73437 4.68035C3.69706 4.39118 3.59756 4.102 3.46696 3.90611L3.38923 3.79107L3.61621 3.60761C4.06085 3.24381 4.76979 2.83959 5.25797 2.6748L5.42587 2.61572L5.51916 2.78984C5.56891 2.88624 5.71505 3.06969 5.84564 3.19717ZM2.31027 4.11133C2.85441 4.4316 2.94459 5.14987 2.49683 5.56341C2.30405 5.74065 2.12993 5.81217 1.87807 5.81217C1.52049 5.81527 1.2251 5.62871 1.03853 5.28046C0.995003 5.19962 0.979456 5.10633 0.979456 4.90733C0.979456 4.62438 1.01055 4.53421 1.18468 4.31344C1.42721 4.0025 1.96513 3.90611 2.31027 4.11133ZM12.876 4.11755C13.0345 4.20461 13.1589 4.33832 13.2646 4.53421C13.3082 4.61505 13.3237 4.70833 13.3237 4.90733C13.3237 5.10633 13.3082 5.19962 13.2646 5.28046C13.1527 5.4919 13.0252 5.61938 12.8355 5.71266C12.4655 5.89923 12.0364 5.82149 11.769 5.52299C11.4425 5.1623 11.4363 4.66791 11.7535 4.30722C12.0364 3.98074 12.4873 3.90611 12.876 4.11755ZM2.22943 10.1591C2.50927 10.2866 2.72382 10.5695 2.7829 10.8805C2.81399 11.0484 2.74559 11.322 2.63365 11.4899C2.22321 12.0993 1.39611 12.0403 1.03853 11.3749C0.951471 11.2101 0.954581 10.7841 1.04786 10.6099C1.1598 10.4016 1.26552 10.2959 1.46763 10.1964C1.62621 10.1156 1.69461 10.1 1.87807 10.1C2.02732 10.1 2.14237 10.1218 2.22943 10.1591ZM12.8355 10.1964C13.0252 10.2897 13.1527 10.4172 13.2646 10.6286C13.3082 10.7094 13.3237 10.8027 13.3237 11.0017C13.3237 11.2007 13.3082 11.294 13.2646 11.3749C13.1496 11.5894 13.0252 11.7138 12.8293 11.8102C11.9276 12.2548 11.0912 11.1323 11.769 10.3861C12.0364 10.0876 12.4655 10.0098 12.8355 10.1964ZM7.47496 13.1969C7.64597 13.256 7.8854 13.4768 7.97557 13.6602C8.02221 13.7535 8.03776 13.8499 8.03776 14.0489C8.03776 14.3567 7.9849 14.4905 7.78901 14.6863C7.59311 14.8822 7.45941 14.9351 7.15158 14.9351C6.84375 14.9351 6.71005 14.8822 6.51416 14.6863C6.34314 14.5184 6.27163 14.3536 6.25608 14.1049C6.2281 13.6727 6.43953 13.3524 6.85619 13.1876C6.993 13.1348 7.30394 13.141 7.47496 13.1969Z" fill="#2D945C"/>
</svg>
