<svg width="17" height="20" viewBox="0 0 17 20" fill="none" xmlns="http://www.w3.org/2000/svg">
<path d="M12.7633 0.720263C12.0189 0.938129 11.4307 1.53726 11.2382 2.27438C11.1656 2.54671 11.1692 3.1059 11.2419 3.3855C11.4343 4.13351 12.0589 4.75806 12.8032 4.95051C13.0901 5.02313 13.6311 5.02676 13.918 4.95051C14.6733 4.75443 15.2869 4.14077 15.483 3.3855C15.5593 3.10227 15.5593 2.55761 15.483 2.27438C15.2869 1.51911 14.6733 0.905449 13.918 0.709369C13.6202 0.633116 13.0465 0.636747 12.7633 0.720263ZM13.682 2.20902C13.9253 2.33248 14.0523 2.54671 14.0523 2.82994C14.0523 3.23299 13.7655 3.51985 13.3624 3.51985C12.9594 3.51985 12.6725 3.23299 12.6725 2.82994C12.6725 2.42689 12.9521 2.14366 13.3552 2.14003C13.475 2.14003 13.5985 2.16545 13.682 2.20902Z" fill="#2D945C"/>
<path d="M2.66955 4.3145C1.92517 4.53237 1.33693 5.1315 1.14448 5.86862C1.07186 6.14095 1.07549 6.70014 1.14811 6.97974C1.34056 7.72775 1.96511 8.3523 2.70949 8.54475C2.99635 8.61737 3.53739 8.621 3.82424 8.54475C4.57952 8.34867 5.19317 7.73501 5.38926 6.97974C5.46551 6.69651 5.46551 6.15184 5.38926 5.86862C5.19317 5.11335 4.57952 4.49969 3.82424 4.30361C3.52649 4.22735 2.95278 4.23099 2.66955 4.3145ZM3.58822 5.80326C3.83151 5.92672 3.9586 6.14095 3.9586 6.42418C3.9586 6.82723 3.67174 7.11409 3.26868 7.11409C2.86563 7.11409 2.57877 6.82723 2.57877 6.42418C2.57877 6.02112 2.85837 5.7379 3.26142 5.73427C3.38125 5.73427 3.50471 5.75968 3.58822 5.80326Z" fill="#2D945C"/>
<path d="M11.2201 5.78165C10.454 6.01041 9.81127 6.59139 9.54983 7.28493C9.50626 7.40112 9.21214 8.46504 8.8926 9.65241C8.57669 10.8398 8.2971 11.8238 8.27168 11.8383C8.24626 11.8529 8.20995 11.8529 8.18816 11.8383C8.17001 11.8238 7.62897 11.3953 6.9899 10.8906C5.2869 9.53985 5.22517 9.49991 4.6914 9.36193C4.44812 9.3002 4.28472 9.29293 3.13002 9.29293C1.69573 9.29293 1.60858 9.30383 1.14743 9.53622C0.798845 9.71414 0.417578 10.0918 0.239654 10.4476C0.00363111 10.916 0 10.956 0 12.6372C0 14.0461 0.00363111 14.1659 0.0726223 14.3838C0.206974 14.8195 0.537405 15.2298 0.925934 15.4331L1.08933 15.5203V17.1325V18.7447L1.18011 18.9009C1.31446 19.1296 1.52507 19.2422 1.81556 19.2422C2.10605 19.2422 2.31665 19.1296 2.451 18.9009L2.54178 18.7447V16.7186V14.6924L2.451 14.5363C2.33844 14.3474 2.12057 14.2131 1.87366 14.1804C1.77561 14.1695 1.65579 14.1332 1.61221 14.1042C1.46334 14.0061 1.44518 13.8318 1.45971 12.5283C1.4706 11.4208 1.47786 11.2973 1.53959 11.1811C1.634 11.0032 1.70299 10.9306 1.87002 10.8398C2.00801 10.7672 2.05884 10.7635 3.14091 10.7635H4.26656L4.46627 10.8616C4.5752 10.9124 5.26149 11.4317 5.99134 12.0126C6.73935 12.6081 7.4111 13.1165 7.53456 13.1782C8.26079 13.545 9.23756 13.24 9.61519 12.5319C9.69508 12.383 9.89479 11.6967 10.3124 10.1281C10.6355 8.91893 10.9297 7.86591 10.966 7.78239C11.0531 7.57905 11.2637 7.37934 11.507 7.26314L11.7103 7.16873H13.3443C14.9457 7.16873 14.982 7.16873 15.1236 7.24499C15.2906 7.33576 15.3596 7.40839 15.454 7.58631C15.5194 7.70614 15.523 7.83323 15.523 9.85576C15.523 11.8783 15.5194 12.0054 15.454 12.1252C15.3124 12.3939 15.1417 12.5028 14.7968 12.5428C14.5136 12.5755 14.2957 12.7026 14.1795 12.9023L14.0887 13.0584V15.9016V18.7447L14.1795 18.9009C14.3139 19.1296 14.5245 19.2422 14.8149 19.2422C15.1054 19.2422 15.316 19.1296 15.4504 18.9009L15.5412 18.7447V16.33V13.9153L15.6973 13.8464C16.2819 13.5922 16.7757 13.0148 16.9391 12.3939C17.0227 12.0744 17.019 7.64804 16.9355 7.32124C16.7394 6.56597 16.1258 5.95231 15.3705 5.75623C15.1817 5.70539 14.8694 5.69813 13.3226 5.70176C11.5361 5.70176 11.4852 5.70539 11.2201 5.78165Z" fill="#2D945C"/>
<path d="M11.5213 12.6553C11.4341 12.7062 11.3252 12.8151 11.2744 12.9023L11.1836 13.0584V15.9016V18.7447L11.2744 18.9009C11.4087 19.1296 11.6193 19.2422 11.9098 19.2422C12.2003 19.2422 12.4109 19.1296 12.5453 18.9009L12.636 18.7447V15.9016V13.0584L12.5453 12.9023C12.4109 12.6735 12.2003 12.5609 11.9062 12.5609C11.721 12.5609 11.6411 12.5791 11.5213 12.6553Z" fill="#2D945C"/>
<path d="M4.33183 14.2893C4.24469 14.3402 4.13575 14.4491 4.08492 14.5363L3.99414 14.6924V16.7186V18.7447L4.08492 18.9009C4.21927 19.1296 4.42987 19.2422 4.72036 19.2422C5.01085 19.2422 5.22146 19.1296 5.35581 18.9009L5.44659 18.7447V16.7186V14.6924L5.35581 14.5363C5.22146 14.3075 5.01085 14.1949 4.71673 14.1949C4.53155 14.1949 4.45166 14.2131 4.33183 14.2893Z" fill="#2D945C"/>
</svg>
